<?xml version="1.0" encoding="UTF-8" standalone="no"?>
<!-- Generator: Adobe Illustrator 19.1.0, SVG Export Plug-In . SVG Version: 6.00 Build 0)  -->

<svg
   xmlns:dc="http://purl.org/dc/elements/1.1/"
   xmlns:cc="http://creativecommons.org/ns#"
   xmlns:rdf="http://www.w3.org/1999/02/22-rdf-syntax-ns#"
   xmlns:svg="http://www.w3.org/2000/svg"
   xmlns="http://www.w3.org/2000/svg"
   xmlns:sodipodi="http://sodipodi.sourceforge.net/DTD/sodipodi-0.dtd"
   xmlns:inkscape="http://www.inkscape.org/namespaces/inkscape"
   version="1.1"
   id="Calque_1"
   x="0px"
   y="0px"
   viewBox="-199 273.1 195.4 295.8"
   style="enable-background:new -199 273.1 195.4 295.8;"
   xml:space="preserve"
   sodipodi:docname="flag.svg"
   inkscape:version="0.92.2 5c3e80d, 2017-08-06"><metadata
     id="metadata13"><rdf:RDF><cc:Work
         rdf:about=""><dc:format>image/svg+xml</dc:format><dc:type
           rdf:resource="http://purl.org/dc/dcmitype/StillImage" /></cc:Work></rdf:RDF></metadata><defs
     id="defs11" /><sodipodi:namedview
     pagecolor="#ffffff"
     bordercolor="#666666"
     borderopacity="1"
     objecttolerance="10"
     gridtolerance="10"
     guidetolerance="10"
     inkscape:pageopacity="0"
     inkscape:pageshadow="2"
     inkscape:window-width="1309"
     inkscape:window-height="890"
     id="namedview9"
     showgrid="false"
     inkscape:zoom="1.6980817"
     inkscape:cx="112.80508"
     inkscape:cy="246.91043"
     inkscape:window-x="1020"
     inkscape:window-y="68"
     inkscape:window-maximized="0"
     inkscape:current-layer="Calque_1" /><style
     type="text/css"
     id="style2">
	.st0{fill: rgb( 78, 159, 234);}
	.st1{fill:#FFFFFF;stroke:#000000;stroke-miterlimit:10;}
</style><polygon
     class="st0"
     points="-185.9,273.1 -185.9,551.3 -104.4,469.7 -15.9,551.3 -15.9,273.1 "
     id="polygon4"
     style="fill:#e4f0fc;fill-opacity:1;stroke:#6186bd;stroke-opacity:1;stroke-width:4;stroke-miterlimit:4;stroke-dasharray:none" /><path
     class="st1"
     d="M-86.5,350.7l-20.3-0.2c0,0-0.9-1.2-2.8-1.5c-1.8-0.3-3.4,3-3.4,3s-35,41.4-46.3,55.5c-1.5,1.9-0.7,2.9-0.1,3.5  c0.4,0.4,1.6,1.3,1.6,1.3l34.3,0.1v-9.8H-148l27.6-33.2L-121,424c0,0-0.4,3.5-1.2,4.3c-1.8,1.7-8.1,1.8-9.7,2.4  c-0.7,0.3,0.2,2.8,0.2,2.8h47.9c0,0,38.8-1.1,40.8-40.6C-40.9,349-86.5,350.7-86.5,350.7z M-84.9,427h-13.9c0,0,2.2,0.5-5.4-1.1  c-4.7-1-3-15.5-3-15.5s6.6,0.3,10.1,0c1.7-0.1,2-4.7,2.2-6.4c0.1-0.9-0.1-3.1-1-3.5c-0.7-0.4-3,1.3-3,1.3h-8.3v-42.9l1.4-2.1  c0,0,14.8-2.6,25.6,1.4c11.6,4.3,22.6,12.1,22.5,35.2C-57.9,426.6-84.9,427-84.9,427z"
     id="path6"
     style="fill:#6186bd;fill-opacity:1;stroke:#6186bd;stroke-opacity:1" /></svg>