<?xml version="1.0" encoding="utf-8"?>
<!-- Generator: Adobe Illustrator 27.0.1, SVG Export Plug-In . SVG Version: 6.00 Build 0)  -->
<svg version="1.1" id="Calque_1" xmlns="http://www.w3.org/2000/svg" xmlns:xlink="http://www.w3.org/1999/xlink" x="0px" y="0px"
	 viewBox="0 0 512 2048" style="enable-background:new 0 0 512 2048;" xml:space="preserve">
<style type="text/css">
	.st0{fill:#FFFFFF;stroke:#000000;stroke-width:8;stroke-miterlimit:10;}
	.st1{fill:none;stroke:#000000;stroke-width:8;stroke-miterlimit:10;}
	.st2{fill:none;}
	.st3{fill:#F6A318;}
	.st4{fill:#3BB2E6;}
	.st5{fill:#FFFFFF;stroke:#A2A2A0;stroke-width:8;stroke-miterlimit:10;}
	.st6{fill:none;stroke:#A2A19F;stroke-width:8;stroke-miterlimit:10;}
	.st7{fill:#A2A19F;}
	.st8{fill:#1D1D1B;stroke:#FFFFFF;stroke-width:15;stroke-miterlimit:10;}
	.st9{fill:#A2A2A0;stroke:#FFFFFF;stroke-width:15;stroke-miterlimit:10;}
</style>
<rect x="10" y="10" class="st0" width="492" height="492"/>
<polygon class="st1" points="456.6,473.5 175.1,473.5 175.1,178.9 428.3,178.9 456.6,212.7 "/>
<path class="st1" d="M399,345.5H232.7c-9.6,0-17.3,7.8-17.3,17.3v110.7h201V362.8C416.3,353.3,408.6,345.5,399,345.5z"/>
<rect x="223.7" y="178.9" class="st1" width="184.2" height="110.7"/>
<rect x="337.4" y="197.3" class="st1" width="39" height="73"/>
<g>
	<path class="st2" d="M6,0"/>
</g>
<polygon points="277.4,276.1 271.2,29.9 220.5,80.2 149.8,10 10,10 10,150.5 79.8,219.8 29.1,270 "/>
<g>
	<path class="st2" d="M-28.4,499.5"/>
</g>
<g>
	<path class="st2" d="M6,516"/>
</g>
<rect x="10" y="523" class="st0" width="492" height="492"/>
<polygon class="st1" points="456.6,986.5 175.1,986.5 175.1,691.9 428.3,691.9 456.6,725.7 "/>
<path class="st1" d="M399,858.5H232.7c-9.6,0-17.3,7.8-17.3,17.3v110.7h201V875.8C416.3,866.3,408.6,858.5,399,858.5z"/>
<rect x="223.7" y="691.9" class="st1" width="184.2" height="110.7"/>
<rect x="337.4" y="710.3" class="st1" width="39" height="73"/>
<polygon class="st3" points="277.4,789.1 271.2,542.9 220.5,593.2 149.8,523 10,523 10,663.5 79.8,732.8 29.1,783 "/>
<g>
	<path class="st2" d="M-28.4,1246.5"/>
</g>
<g>
	<path class="st2" d="M6,1263"/>
</g>
<g>
	<path class="st2" d="M-34.4,777.5"/>
</g>
<rect x="10" y="1035" class="st0" width="492" height="492"/>
<polygon class="st1" points="456.6,1498.5 175.1,1498.5 175.1,1203.9 428.3,1203.9 456.6,1237.7 "/>
<path class="st1" d="M399,1370.5H232.7c-9.6,0-17.3,7.8-17.3,17.3v110.7h201v-110.7C416.3,1378.3,408.6,1370.5,399,1370.5z"/>
<rect x="223.7" y="1203.9" class="st1" width="184.2" height="110.7"/>
<rect x="337.4" y="1222.3" class="st1" width="39" height="73"/>
<polygon class="st4" points="277.4,1301.1 271.2,1054.9 220.5,1105.2 149.8,1035 10,1035 10,1175.5 79.8,1244.8 29.1,1295 "/>
<g>
	<path class="st2" d="M-34.4,1279.5"/>
</g>
<rect x="10" y="1544" class="st5" width="492" height="492"/>
<polygon class="st6" points="456.6,2007.5 175.1,2007.5 175.1,1712.9 428.3,1712.9 456.6,1746.7 "/>
<path class="st6" d="M399,1879.5H232.7c-9.6,0-17.3,7.8-17.3,17.3v110.7h201v-110.7C416.3,1887.3,408.6,1879.5,399,1879.5z"/>
<rect x="223.7" y="1712.9" class="st6" width="184.2" height="110.7"/>
<rect x="337.4" y="1731.3" class="st6" width="39" height="73"/>
<polygon class="st7" points="277.4,1810.1 271.2,1563.9 220.5,1614.2 149.8,1544 10,1544 10,1684.5 79.8,1753.8 29.1,1804 "/>
<g>
	<path class="st2" d="M-34.4,1788.5"/>
</g>
<g>
	<path class="st2" d="M-34.4,1510"/>
</g>
<g>
	<path class="st2" d="M-34.4,2046.5"/>
</g>
<g>
	<path class="st2" d="M-15.2,2067"/>
</g>
<path class="st8" d="M249,233.8l94.9-94.9c6.6-6.6,6.6-17.3,0-23.9h0c-6.6-6.6-17.3-6.6-23.9,0l-94.9,94.9L130.2,115
	c-6.6-6.6-17.3-6.6-23.9,0h0c-6.6,6.6-6.6,17.3,0,23.9l94.9,94.9l-94.9,94.9c-6.6,6.6-6.6,17.3,0,23.9h0c6.6,6.6,17.3,6.6,23.9,0
	l94.9-94.9l94.9,94.9c6.6,6.6,17.3,6.6,23.9,0h0c6.6-6.6,6.6-17.3,0-23.9L249,233.8z"/>
<path class="st8" d="M249,747.3l94.9-94.9c6.6-6.6,6.6-17.3,0-23.9h0c-6.6-6.6-17.3-6.6-23.9,0l-94.9,94.9l-94.9-94.9
	c-6.6-6.6-17.3-6.6-23.9,0h0c-6.6,6.6-6.6,17.3,0,23.9l94.9,94.9l-94.9,94.9c-6.6,6.6-6.6,17.3,0,23.9h0c6.6,6.6,17.3,6.6,23.9,0
	l94.9-94.9l94.9,94.9c6.6,6.6,17.3,6.6,23.9,0h0c6.6-6.6,6.6-17.3,0-23.9L249,747.3z"/>
<path class="st8" d="M249,1258.8l94.9-94.9c6.6-6.6,6.6-17.3,0-23.9h0c-6.6-6.6-17.3-6.6-23.9,0l-94.9,94.9l-94.9-94.9
	c-6.6-6.6-17.3-6.6-23.9,0h0c-6.6,6.6-6.6,17.3,0,23.9l94.9,94.9l-94.9,94.9c-6.6,6.6-6.6,17.3,0,23.9h0c6.6,6.6,17.3,6.6,23.9,0
	l94.9-94.9l94.9,94.9c6.6,6.6,17.3,6.6,23.9,0h0c6.6-6.6,6.6-17.3,0-23.9L249,1258.8z"/>
<path class="st9" d="M249,1744.8l94.9-94.9c6.6-6.6,6.6-17.3,0-23.9h0c-6.6-6.6-17.3-6.6-23.9,0l-94.9,94.9l-94.9-94.9
	c-6.6-6.6-17.3-6.6-23.9,0h0c-6.6,6.6-6.6,17.3,0,23.9l94.9,94.9l-94.9,94.9c-6.6,6.6-6.6,17.3,0,23.9h0c6.6,6.6,17.3,6.6,23.9,0
	l94.9-94.9l94.9,94.9c6.6,6.6,17.3,6.6,23.9,0h0c6.6-6.6,6.6-17.3,0-23.9L249,1744.8z"/>
</svg>
