<?xml version="1.0" encoding="utf-8"?>
<!-- Generator: Adobe Illustrator 27.0.1, SVG Export Plug-In . SVG Version: 6.00 Build 0)  -->
<svg version="1.1" id="Calque_1" xmlns="http://www.w3.org/2000/svg" xmlns:xlink="http://www.w3.org/1999/xlink" x="0px" y="0px"
	 viewBox="0 0 512 2048" style="enable-background:new 0 0 512 2048;" xml:space="preserve">
<style type="text/css">
	.st0{fill:#FFFFFF;stroke:#000000;stroke-width:8;stroke-miterlimit:10;}
	.st1{fill:none;}
	.st2{fill:#FFFFFF;stroke:#A2A2A0;stroke-width:8;stroke-miterlimit:10;}
	.st3{fill:#FFFFFF;stroke:#A2A19F;stroke-width:8;stroke-miterlimit:10;}
	.st4{fill:none;stroke:#A2A19F;stroke-width:8;stroke-miterlimit:10;}
	.st5{fill:#FFFFFF;stroke:#1D1D1B;stroke-width:8;stroke-miterlimit:10;}
	.st6{fill:none;stroke:#1D1D1B;stroke-width:8;stroke-miterlimit:10;}
	.st7{fill:#F6A318;}
	.st8{fill:#3BB2E6;}
	.st9{fill:#A2A19F;}
</style>
<rect x="10" y="10" class="st0" width="492" height="492"/>
<g>
	<path class="st1" d="M6,0"/>
</g>
<g>
	<path class="st1" d="M-28.4,499.5"/>
</g>
<g>
	<path class="st1" d="M6,516"/>
</g>
<rect x="10" y="523" class="st0" width="492" height="492"/>
<g>
	<path class="st1" d="M-28.4,1246.5"/>
</g>
<g>
	<path class="st1" d="M6,1263"/>
</g>
<g>
	<path class="st1" d="M-34.4,777.5"/>
</g>
<rect x="10" y="1035" class="st0" width="492" height="492"/>
<g>
	<path class="st1" d="M-34.4,1279.5"/>
</g>
<rect x="10" y="1544" class="st2" width="492" height="492"/>
<g>
	<path class="st1" d="M-34.4,1788.5"/>
</g>
<g>
	<path class="st1" d="M-34.4,1510"/>
</g>
<g>
	<path class="st1" d="M-34.4,2046.5"/>
</g>
<g>
	<path class="st1" d="M-15.2,2067"/>
</g>
<rect x="217.1" y="1789.2" class="st3" width="199.5" height="219.2"/>
<rect x="199.1" y="1754.9" class="st3" width="235.4" height="34.2"/>
<rect x="295.9" y="1731.8" class="st4" width="41.9" height="23.2"/>
<rect x="217.1" y="1277.6" class="st5" width="199.5" height="219.2"/>
<rect x="199.1" y="1243.4" class="st5" width="235.4" height="34.2"/>
<rect x="295.9" y="1220.2" class="st6" width="41.9" height="23.2"/>
<rect x="217.1" y="768.3" class="st5" width="199.5" height="219.2"/>
<rect x="199.1" y="734.1" class="st5" width="235.4" height="34.2"/>
<rect x="295.9" y="711" class="st6" width="41.9" height="23.2"/>
<rect x="217.1" y="255.3" class="st5" width="199.5" height="219.2"/>
<rect x="199.1" y="221.1" class="st5" width="235.4" height="34.2"/>
<rect x="295.9" y="198" class="st6" width="41.9" height="23.2"/>
<polygon points="277.4,276.1 271.2,29.9 220.5,80.2 149.8,10 10,10 10,150.5 79.8,219.8 29.1,270 "/>
<polygon class="st7" points="277.4,789.1 271.2,542.9 220.5,593.2 149.8,523 10,523 10,663.5 79.8,732.8 29.1,783 "/>
<polygon class="st8" points="277.4,1301.1 271.2,1054.9 220.5,1105.2 149.8,1035 10,1035 10,1175.5 79.8,1244.8 29.1,1295 "/>
<polygon class="st9" points="277.4,1810.1 271.2,1563.9 220.5,1614.2 149.8,1544 10,1544 10,1684.5 79.8,1753.8 29.1,1804 "/>
</svg>
