<?xml version="1.0" encoding="utf-8"?>
<!-- Generator: Adobe Illustrator 27.0.1, SVG Export Plug-In . SVG Version: 6.00 Build 0)  -->
<svg version="1.1" id="Calque_1" xmlns="http://www.w3.org/2000/svg" xmlns:xlink="http://www.w3.org/1999/xlink" x="0px" y="0px"
	 viewBox="0 0 512 2048" style="enable-background:new 0 0 512 2048;" xml:space="preserve">
<style type="text/css">
	.st0{fill:#FFFFFF;stroke:#000000;stroke-width:8;stroke-miterlimit:10;}
	.st1{fill:none;}
	.st2{fill:#FFFFFF;stroke:#A2A2A0;stroke-width:8;stroke-miterlimit:10;}
	.st3{fill:#1D1D1B;}
	.st4{fill:#F7A51C;}
	.st5{fill:#3AB2E7;}
	.st6{fill:#A2A19F;}
</style>
<rect x="10" y="10" class="st0" width="492" height="492"/>
<g>
	<path class="st1" d="M6,0"/>
</g>
<g>
	<path class="st1" d="M-28.4,499.5"/>
</g>
<g>
	<path class="st1" d="M6,516"/>
</g>
<rect x="10" y="523" class="st0" width="492" height="492"/>
<g>
	<path class="st1" d="M-28.4,1246.5"/>
</g>
<g>
	<path class="st1" d="M6,1263"/>
</g>
<g>
	<path class="st1" d="M-34.4,777.5"/>
</g>
<rect x="10" y="1035" class="st0" width="492" height="492"/>
<g>
	<path class="st1" d="M-34.4,1279.5"/>
</g>
<rect x="10" y="1544" class="st2" width="492" height="492"/>
<g>
	<path class="st1" d="M-34.4,1788.5"/>
</g>
<g>
	<path class="st1" d="M-34.4,1510"/>
</g>
<g>
	<path class="st1" d="M-34.4,2046.5"/>
</g>
<g>
	<path class="st1" d="M-15.2,2067"/>
</g>
<path class="st3" d="M315.2,162.6l-16.9,29.3c25.3,14.6,42.3,42,42.3,73.3c0,46.7-37.9,84.6-84.6,84.6s-84.6-37.9-84.6-84.6
	c0-31.3,17-58.7,42.3-73.3l-16.9-29.3c-35.4,20.5-59.2,58.8-59.2,102.6c0,65.4,53,118.5,118.4,118.5s118.4-53,118.4-118.5
	C374.5,221.4,350.6,183.1,315.2,162.6z"/>
<rect x="238.4" y="128.3" class="st3" width="35.1" height="111.5"/>
<path class="st4" d="M315.2,675.6l-16.9,29.3c25.3,14.6,42.3,42,42.3,73.3c0,46.7-37.9,84.6-84.6,84.6s-84.6-37.9-84.6-84.6
	c0-31.3,17-58.7,42.3-73.3l-16.9-29.3c-35.4,20.5-59.2,58.8-59.2,102.6c0,65.4,53,118.5,118.4,118.5s118.4-53,118.4-118.5
	C374.4,734.4,350.6,696.1,315.2,675.6z"/>
<rect x="238.3" y="641.3" class="st4" width="35.1" height="111.5"/>
<path class="st5" d="M315.1,1188.6l-16.9,29.3c25.3,14.6,42.3,42,42.3,73.3c0,46.7-37.9,84.6-84.6,84.6s-84.6-37.9-84.6-84.6
	c0-31.3,17-58.7,42.3-73.3l-16.9-29.3c-35.4,20.5-59.2,58.8-59.2,102.6c0,65.4,53,118.5,118.4,118.5s118.4-53,118.4-118.5
	C374.3,1247.4,350.5,1209.1,315.1,1188.6z"/>
<rect x="238.3" y="1154.3" class="st5" width="35.1" height="111.5"/>
<path class="st6" d="M315,1695.1l-16.9,29.3c25.3,14.6,42.3,42,42.3,73.3c0,46.7-37.9,84.6-84.6,84.6s-84.6-37.9-84.6-84.6
	c0-31.3,17-58.7,42.3-73.3l-16.9-29.3c-35.4,20.5-59.2,58.8-59.2,102.6c0,65.4,53,118.5,118.4,118.5s118.4-53,118.4-118.5
	C374.3,1753.9,350.4,1715.6,315,1695.1z"/>
<rect x="238.2" y="1660.8" class="st6" width="35.1" height="111.5"/>
</svg>
