<?xml version="1.0" encoding="utf-8"?>
<!-- Generator: Adobe Illustrator 27.0.1, SVG Export Plug-In . SVG Version: 6.00 Build 0)  -->
<svg version="1.1" id="Calque_1" xmlns="http://www.w3.org/2000/svg" xmlns:xlink="http://www.w3.org/1999/xlink" x="0px" y="0px"
	 viewBox="0 0 512 2048" style="enable-background:new 0 0 512 2048;" xml:space="preserve">
<style type="text/css">
	.st0{fill:#FFFFFF;stroke:#000000;stroke-width:8;stroke-miterlimit:10;}
	.st1{fill:none;}
	.st2{fill:#FFFFFF;stroke:#A2A2A0;stroke-width:8;stroke-miterlimit:10;}
	.st3{fill:#FFFFFF;stroke:#000000;stroke-width:8;stroke-linejoin:round;}
	.st4{fill:#F6A318;stroke:#1D1D1B;stroke-width:8;stroke-miterlimit:10;}
	.st5{fill:#A2A19F;stroke:#000000;stroke-width:8;stroke-miterlimit:10;}
	.st6{fill:#3BB2E6;stroke:#1D1D1B;stroke-width:8;stroke-miterlimit:10;}
</style>
<rect x="10" y="10" class="st0" width="492" height="492"/>
<g>
	<path class="st1" d="M6,0"/>
</g>
<g>
	<path class="st1" d="M-28.4,499.5"/>
</g>
<g>
	<path class="st1" d="M6,516"/>
</g>
<rect x="10" y="523" class="st0" width="492" height="492"/>
<g>
	<path class="st1" d="M-28.4,1246.5"/>
</g>
<g>
	<path class="st1" d="M6,1263"/>
</g>
<g>
	<path class="st1" d="M-34.4,777.5"/>
</g>
<rect x="10" y="1035" class="st0" width="492" height="492"/>
<g>
	<path class="st1" d="M-34.4,1279.5"/>
</g>
<rect x="10" y="1544" class="st2" width="492" height="492"/>
<g>
	<path class="st1" d="M-34.4,1788.5"/>
</g>
<g>
	<path class="st1" d="M-34.4,1510"/>
</g>
<g>
	<path class="st1" d="M-34.4,2046.5"/>
</g>
<g>
	<path class="st1" d="M-15.2,2067"/>
</g>
<path id="path817" class="st3" d="M89,108.6h142.3L423,311.7L292.2,441.5L89,241.7V108.6z"/>
<ellipse id="path819" cx="165.9" cy="178.6" rx="18.4" ry="18.4"/>
<path id="path817_00000095330607295913822700000015789835783247776151_" class="st4" d="M89,621.6h142.3L423,824.7L292.2,954.5
	L89,754.7V621.6z"/>
<ellipse id="path819_00000026160879680959341980000005892508140137531580_" cx="165.9" cy="691.6" rx="18.4" ry="18.4"/>
<path id="path817_00000158015972520847173440000008321697569821932677_" class="st5" d="M89,1642.6h142.3L423,1845.7l-130.9,129.7
	L89,1775.7V1642.6z"/>
<ellipse id="path819_00000061436979840730088010000012651686465780649359_" cx="165.9" cy="1712.6" rx="18.4" ry="18.4"/>
<path id="path817_00000156551216844375770550000007219807078955880852_" class="st6" d="M89,1132.1h142.3L423,1335.2L292.2,1465
	L89,1265.2V1132.1z"/>
<ellipse id="path819_00000132086701521677981990000009639803507582157230_" cx="165.9" cy="1202.1" rx="18.4" ry="18.4"/>
</svg>
