<?xml version="1.0" encoding="utf-8"?>
<!-- Generator: Adobe Illustrator 27.0.1, SVG Export Plug-In . SVG Version: 6.00 Build 0)  -->
<svg version="1.1" id="Calque_1" xmlns="http://www.w3.org/2000/svg" xmlns:xlink="http://www.w3.org/1999/xlink" x="0px" y="0px"
	 viewBox="0 0 512 2048" style="enable-background:new 0 0 512 2048;" xml:space="preserve">
<style type="text/css">
	.st0{fill:#FFFFFF;stroke:#000000;stroke-width:8;stroke-miterlimit:10;}
	.st1{fill:none;}
	.st2{fill:#FFFFFF;stroke:#A2A2A0;stroke-width:8;stroke-miterlimit:10;}
	.st3{fill:#1D1D1B;}
	.st4{fill:#F6A318;}
	.st5{fill:#3BB2E6;}
	.st6{fill:#A2A19F;}
</style>
<rect x="10" y="10" class="st0" width="492" height="492"/>
<g>
	<path class="st1" d="M6,0"/>
</g>
<g>
	<path class="st1" d="M-28.4,499.5"/>
</g>
<g>
	<path class="st1" d="M6,516"/>
</g>
<rect x="10" y="523" class="st0" width="492" height="492"/>
<g>
	<path class="st1" d="M-28.4,1246.5"/>
</g>
<g>
	<path class="st1" d="M6,1263"/>
</g>
<g>
	<path class="st1" d="M-34.4,777.5"/>
</g>
<rect x="10" y="1035" class="st0" width="492" height="492"/>
<g>
	<path class="st1" d="M-34.4,1279.5"/>
</g>
<rect x="10" y="1544" class="st2" width="492" height="492"/>
<g>
	<path class="st1" d="M-34.4,1788.5"/>
</g>
<g>
	<path class="st1" d="M-34.4,1510"/>
</g>
<g>
	<path class="st1" d="M-34.4,2046.5"/>
</g>
<g>
	<path class="st1" d="M-15.2,2067"/>
</g>
<polygon class="st3" points="383.2,270.3 209.6,96.7 209.6,152.6 40.7,152.6 40.7,383.7 218.6,382 218.6,434.9 "/>
<polygon class="st4" points="383.2,782 209.6,608.4 209.6,664.3 40.7,664.3 40.7,895.5 218.6,893.7 218.6,946.6 "/>
<polygon class="st5" points="383.2,1296.3 209.6,1122.7 209.6,1178.6 40.7,1178.6 40.7,1409.7 218.6,1408 218.6,1460.9 "/>
<polygon class="st6" points="383.2,1802.8 209.6,1629.2 209.6,1685.1 40.7,1685.1 40.7,1916.2 218.6,1914.5 218.6,1967.4 "/>
</svg>
