<?xml version="1.0" encoding="utf-8"?>
<!-- Generator: Adobe Illustrator 27.0.1, SVG Export Plug-In . SVG Version: 6.00 Build 0)  -->
<svg version="1.1" id="Calque_1" xmlns="http://www.w3.org/2000/svg" xmlns:xlink="http://www.w3.org/1999/xlink" x="0px" y="0px"
	 viewBox="0 0 512 2048" style="enable-background:new 0 0 512 2048;" xml:space="preserve">
<style type="text/css">
	.st0{fill:#FFFFFF;stroke:#000000;stroke-width:8;stroke-miterlimit:10;}
	.st1{fill:none;stroke:#000000;stroke-width:8;stroke-miterlimit:10;}
	.st2{fill:none;}
	.st3{fill:#FFFFFF;stroke:#A2A2A0;stroke-width:8;stroke-miterlimit:10;}
	.st4{fill:none;stroke:#000000;stroke-width:20;stroke-miterlimit:10;}
	.st5{fill:none;stroke:#ADABAA;stroke-width:8;stroke-miterlimit:10;}
	.st6{fill:none;stroke:#ADABAA;stroke-width:20;stroke-miterlimit:10;}
	.st7{fill:#ADABAA;}
	.st8{fill:none;stroke:#3AB2E7;stroke-width:8;stroke-miterlimit:10;}
	.st9{fill:none;stroke:#3AB2E7;stroke-width:20;stroke-miterlimit:10;}
	.st10{fill:#3AB2E7;}
	.st11{fill:none;stroke:#F7A71B;stroke-width:8;stroke-miterlimit:10;}
	.st12{fill:none;stroke:#F7A71B;stroke-width:20;stroke-miterlimit:10;}
	.st13{fill:#F7A71B;}
</style>
<rect x="10" y="10" class="st0" width="492" height="492"/>
<polygon class="st1" points="356.9,362 154.8,362 154.8,150.4 336.6,150.4 356.9,174.7 "/>
<path class="st1" d="M315.6,270.1H196.1c-6.9,0-12.4,5.6-12.4,12.4V362h144.4v-79.5C328,275.7,322.5,270.1,315.6,270.1z"/>
<rect x="189.7" y="150.4" class="st1" width="132.3" height="79.5"/>
<rect x="271.3" y="163.6" class="st1" width="28" height="52.4"/>
<g>
	<path class="st2" d="M6,0"/>
</g>
<g>
	<path class="st2" d="M-28.4,499.5"/>
</g>
<g>
	<path class="st2" d="M6,516"/>
</g>
<rect x="10" y="523" class="st0" width="492" height="492"/>
<g>
	<path class="st2" d="M-28.4,1246.5"/>
</g>
<g>
	<path class="st2" d="M6,1263"/>
</g>
<g>
	<path class="st2" d="M-34.4,777.5"/>
</g>
<rect x="10" y="1035" class="st0" width="492" height="492"/>
<g>
	<path class="st2" d="M-34.4,1279.5"/>
</g>
<rect x="10" y="1544" class="st3" width="492" height="492"/>
<g>
	<path class="st2" d="M-34.4,1788.5"/>
</g>
<g>
	<path class="st2" d="M-34.4,1510"/>
</g>
<g>
	<path class="st2" d="M-34.4,2046.5"/>
</g>
<g>
	<path class="st2" d="M-15.2,2067"/>
</g>
<g>
	<g>
		<line class="st4" x1="85.8" y1="150.4" x2="85.8" y2="326.1"/>
		<g>
			<polygon points="60.8,318.8 85.8,362 110.7,318.8 			"/>
		</g>
	</g>
</g>
<g>
	<g>
		<line class="st4" x1="417.9" y1="362" x2="417.9" y2="186.3"/>
		<g>
			<polygon points="442.8,193.6 417.9,150.4 392.9,193.6 			"/>
		</g>
	</g>
</g>
<polygon class="st5" points="356.9,1894.5 154.8,1894.5 154.8,1682.9 336.6,1682.9 356.9,1707.2 "/>
<path class="st5" d="M315.6,1802.6H196.1c-6.9,0-12.4,5.6-12.4,12.4v79.5h144.4V1815C328,1808.2,322.5,1802.6,315.6,1802.6z"/>
<rect x="189.7" y="1682.9" class="st5" width="132.3" height="79.5"/>
<rect x="271.3" y="1696.1" class="st5" width="28" height="52.4"/>
<g>
	<g>
		<line class="st6" x1="85.8" y1="1682.9" x2="85.8" y2="1858.6"/>
		<g>
			<polygon class="st7" points="60.8,1851.3 85.8,1894.5 110.7,1851.3 			"/>
		</g>
	</g>
</g>
<g>
	<g>
		<line class="st6" x1="417.9" y1="1894.5" x2="417.9" y2="1718.8"/>
		<g>
			<polygon class="st7" points="442.8,1726.1 417.9,1682.9 392.9,1726.1 			"/>
		</g>
	</g>
</g>
<polygon class="st8" points="356.6,1387 154.4,1387 154.4,1175.4 336.2,1175.4 356.6,1199.7 "/>
<path class="st8" d="M315.2,1295.1H195.8c-6.9,0-12.4,5.6-12.4,12.4v79.5h144.4v-79.5C327.6,1300.7,322.1,1295.1,315.2,1295.1z"/>
<rect x="189.3" y="1175.4" class="st8" width="132.3" height="79.5"/>
<rect x="271" y="1188.6" class="st8" width="28" height="52.4"/>
<g>
	<g>
		<line class="st9" x1="85.4" y1="1175.4" x2="85.4" y2="1351.1"/>
		<g>
			<polygon class="st10" points="60.5,1343.8 85.4,1387 110.3,1343.8 			"/>
		</g>
	</g>
</g>
<g>
	<g>
		<line class="st9" x1="417.5" y1="1387" x2="417.5" y2="1211.3"/>
		<g>
			<polygon class="st10" points="442.4,1218.6 417.5,1175.4 392.6,1218.6 			"/>
		</g>
	</g>
</g>
<polygon class="st11" points="356.7,875 154.6,875 154.6,663.4 336.4,663.4 356.7,687.7 "/>
<path class="st11" d="M315.4,783.1H195.9c-6.9,0-12.4,5.6-12.4,12.4V875h144.4v-79.5C327.8,788.7,322.3,783.1,315.4,783.1z"/>
<rect x="189.5" y="663.4" class="st11" width="132.3" height="79.5"/>
<rect x="271.1" y="676.6" class="st11" width="28" height="52.4"/>
<g>
	<g>
		<line class="st12" x1="85.6" y1="663.4" x2="85.6" y2="839.1"/>
		<g>
			<polygon class="st13" points="60.6,831.8 85.6,875 110.5,831.8 			"/>
		</g>
	</g>
</g>
<g>
	<g>
		<line class="st12" x1="417.7" y1="875" x2="417.7" y2="699.3"/>
		<g>
			<polygon class="st13" points="442.6,706.6 417.7,663.4 392.7,706.6 			"/>
		</g>
	</g>
</g>
</svg>
