<?xml version="1.0" encoding="utf-8"?>
<!-- Generator: Adobe Illustrator 27.0.1, SVG Export Plug-In . SVG Version: 6.00 Build 0)  -->
<svg version="1.1" id="Calque_1" xmlns="http://www.w3.org/2000/svg" xmlns:xlink="http://www.w3.org/1999/xlink" x="0px" y="0px"
	 viewBox="0 0 512 2048" style="enable-background:new 0 0 512 2048;" xml:space="preserve">
<style type="text/css">
	.st0{fill:#FFFFFF;stroke:#000000;stroke-width:8;stroke-miterlimit:10;}
	.st1{fill:none;}
	.st2{fill:#FFFFFF;stroke:#A2A2A0;stroke-width:8;stroke-miterlimit:10;}
	.st3{fill:#1D1D1B;}
	.st4{fill:#F6A318;}
	.st5{fill:#3BB2E6;}
	.st6{fill:#A2A19F;}
</style>
<rect x="10" y="10" class="st0" width="492" height="492"/>
<g>
	<path class="st1" d="M6,0"/>
</g>
<g>
	<path class="st1" d="M-28.4,499.5"/>
</g>
<g>
	<path class="st1" d="M6,516"/>
</g>
<rect x="10" y="523" class="st0" width="492" height="492"/>
<g>
	<path class="st1" d="M-28.4,1246.5"/>
</g>
<g>
	<path class="st1" d="M6,1263"/>
</g>
<g>
	<path class="st1" d="M-34.4,777.5"/>
</g>
<rect x="10" y="1035" class="st0" width="492" height="492"/>
<g>
	<path class="st1" d="M-34.4,1279.5"/>
</g>
<rect x="10" y="1544" class="st2" width="492" height="492"/>
<g>
	<path class="st1" d="M-34.4,1788.5"/>
</g>
<g>
	<path class="st1" d="M-34.4,1510"/>
</g>
<g>
	<path class="st1" d="M-34.4,2046.5"/>
</g>
<g>
	<path class="st1" d="M-15.2,2067"/>
</g>
<polygon class="st3" points="128.4,270.3 302,96.7 302,152.6 471,152.6 471,383.7 293,382 293,434.9 "/>
<polygon class="st4" points="128.4,782 302,608.4 302,664.3 471,664.3 471,895.5 293,893.7 293,946.6 "/>
<polygon class="st5" points="128.4,1296.3 302,1122.7 302,1178.6 471,1178.6 471,1409.7 293,1408 293,1460.9 "/>
<polygon class="st6" points="128.4,1802.8 302,1629.2 302,1685.1 471,1685.1 471,1916.2 293,1914.5 293,1967.4 "/>
</svg>
