<?xml version="1.0" encoding="utf-8"?>
<!-- Generator: Adobe Illustrator 27.0.1, SVG Export Plug-In . SVG Version: 6.00 Build 0)  -->
<svg version="1.1" id="Calque_1" xmlns="http://www.w3.org/2000/svg" xmlns:xlink="http://www.w3.org/1999/xlink" x="0px" y="0px"
	 viewBox="0 0 512 2048" style="enable-background:new 0 0 512 2048;" xml:space="preserve">
<style type="text/css">
	.st0{fill:#FFFFFF;stroke:#000000;stroke-width:8;stroke-miterlimit:10;}
	.st1{fill:none;}
	.st2{fill:#FFFFFF;stroke:#A2A2A0;stroke-width:8;stroke-miterlimit:10;}
	.st3{fill:#FFFFFF;stroke:#1D1D1B;stroke-width:8;stroke-miterlimit:10;}
	.st4{fill:#1D1D1B;stroke:#1D1D1B;stroke-width:4;stroke-miterlimit:10;}
	.st5{fill:#FFFFFF;stroke:#1D1D1B;stroke-width:4;stroke-miterlimit:10;}
	.st6{fill:#A2A19F;stroke:#1D1D1B;stroke-width:8;stroke-miterlimit:10;}
	.st7{fill:#3BB2E6;stroke:#1D1D1B;stroke-width:8;stroke-miterlimit:10;}
	.st8{fill:#F6A318;stroke:#1D1D1B;stroke-width:8;stroke-miterlimit:10;}
</style>
<rect x="12.2" y="10" class="st0" width="492" height="492"/>
<g>
	<path class="st1" d="M6,0"/>
</g>
<g>
	<path class="st1" d="M-28.4,499.5"/>
</g>
<g>
	<path class="st1" d="M6,516"/>
</g>
<rect x="10" y="523" class="st0" width="492" height="492"/>
<g>
	<path class="st1" d="M-28.4,1246.5"/>
</g>
<g>
	<path class="st1" d="M6,1263"/>
</g>
<g>
	<path class="st1" d="M-34.4,777.5"/>
</g>
<rect x="10" y="1035" class="st0" width="492" height="492"/>
<g>
	<path class="st1" d="M-34.4,1279.5"/>
</g>
<rect x="10" y="1544" class="st2" width="492" height="492"/>
<g>
	<path class="st1" d="M-34.4,1788.5"/>
</g>
<g>
	<path class="st1" d="M-34.4,1510"/>
</g>
<g>
	<path class="st1" d="M-34.4,2046.5"/>
</g>
<g>
	<path class="st1" d="M-15.2,2067"/>
</g>
<rect x="103.1" y="252.5" class="st3" width="301.3" height="137.2"/>
<rect x="154" y="122.3" class="st3" width="199.5" height="155.3"/>
<rect x="154" y="359.8" class="st4" width="199.5" height="29.9"/>
<rect x="103.1" y="1786.5" class="st5" width="301.3" height="137.2"/>
<rect x="154" y="1656.3" class="st6" width="199.5" height="155.3"/>
<rect x="154" y="1893.8" class="st4" width="199.5" height="29.9"/>
<rect x="103.1" y="1278.5" class="st3" width="301.3" height="137.2"/>
<rect x="154" y="1148.3" class="st7" width="199.5" height="155.3"/>
<rect x="154" y="1385.8" class="st4" width="199.5" height="29.9"/>
<rect x="103.1" y="765.5" class="st3" width="301.3" height="137.2"/>
<rect x="154" y="635.3" class="st8" width="199.5" height="155.3"/>
<rect x="154" y="872.8" class="st4" width="199.5" height="29.9"/>
</svg>
