<?xml version="1.0" encoding="utf-8"?>
<!-- Generator: Adobe Illustrator 27.0.1, SVG Export Plug-In . SVG Version: 6.00 Build 0)  -->
<svg version="1.1" id="Calque_1" xmlns="http://www.w3.org/2000/svg" xmlns:xlink="http://www.w3.org/1999/xlink" x="0px" y="0px"
	 viewBox="0 0 512 2048" style="enable-background:new 0 0 512 2048;" xml:space="preserve">
<style type="text/css">
	.st0{fill:#FFFFFF;stroke:#000000;stroke-width:8;stroke-miterlimit:10;}
	.st1{fill:none;}
	.st2{fill:#FFFFFF;stroke:#A2A2A0;stroke-width:8;stroke-miterlimit:10;}
	.st3{fill:#1D1D1B;}
	.st4{fill:#FFFFFF;stroke:#1D1D1B;stroke-width:8;stroke-miterlimit:10;}
	.st5{fill:#F7A51C;}
	.st6{fill:#FFFFFF;stroke:#F7A51C;stroke-width:8;stroke-miterlimit:10;}
	.st7{fill:#3AB2E7;}
	.st8{fill:#FFFFFF;stroke:#3AB2E7;stroke-width:8;stroke-miterlimit:10;}
	.st9{fill:#A2A19F;}
	.st10{fill:#FFFFFF;stroke:#A2A19F;stroke-width:8;stroke-miterlimit:10;}
</style>
<rect x="10" y="10" class="st0" width="492" height="492"/>
<g>
	<path class="st1" d="M6,0"/>
</g>
<g>
	<path class="st1" d="M-28.4,499.5"/>
</g>
<g>
	<path class="st1" d="M6,516"/>
</g>
<rect x="10" y="523" class="st0" width="492" height="492"/>
<g>
	<path class="st1" d="M-28.4,1246.5"/>
</g>
<g>
	<path class="st1" d="M6,1263"/>
</g>
<g>
	<path class="st1" d="M-34.4,777.5"/>
</g>
<rect x="10" y="1035" class="st0" width="492" height="492"/>
<g>
	<path class="st1" d="M-34.4,1279.5"/>
</g>
<rect x="10" y="1544" class="st2" width="492" height="492"/>
<g>
	<path class="st1" d="M-34.4,1788.5"/>
</g>
<g>
	<path class="st1" d="M-34.4,1510"/>
</g>
<g>
	<path class="st1" d="M-34.4,2046.5"/>
</g>
<g>
	<path class="st1" d="M-15.2,2067"/>
</g>
<rect x="190.9" y="200" transform="matrix(0.7071 0.7071 -0.7071 0.7071 276.377 -64.4736)" class="st3" width="50.2" height="202.8"/>
<circle class="st4" cx="291.2" cy="225.3" r="94.2"/>
<rect x="190.9" y="713" transform="matrix(0.7071 0.7071 -0.7071 0.7071 639.1227 85.7806)" class="st5" width="50.2" height="202.8"/>
<circle class="st6" cx="291.2" cy="738.3" r="94.2"/>
<rect x="190.9" y="1226" transform="matrix(0.7071 0.7071 -0.7071 0.7071 1001.8685 236.0348)" class="st7" width="50.2" height="202.8"/>
<circle class="st8" cx="291.2" cy="1251.3" r="94.2"/>
<rect x="190.9" y="1732.5" transform="matrix(0.7071 0.7071 -0.7071 0.7071 1360.0181 384.3852)" class="st9" width="50.2" height="202.8"/>
<circle class="st10" cx="291.2" cy="1757.8" r="94.2"/>
</svg>
