<?xml version="1.0" encoding="utf-8"?>
<!-- Generator: Adobe Illustrator 27.0.1, SVG Export Plug-In . SVG Version: 6.00 Build 0)  -->
<svg version="1.1" id="Calque_1" xmlns="http://www.w3.org/2000/svg" xmlns:xlink="http://www.w3.org/1999/xlink" x="0px" y="0px"
	 viewBox="0 0 512 2048" style="enable-background:new 0 0 512 2048;" xml:space="preserve">
<style type="text/css">
	.st0{fill:#FFFFFF;stroke:#000000;stroke-width:8;stroke-miterlimit:10;}
	.st1{fill:none;}
	.st2{fill:#FFFFFF;stroke:#A2A2A0;stroke-width:8;stroke-miterlimit:10;}
	.st3{fill:#FFFFFF;stroke:#1D1D1B;stroke-width:8;stroke-miterlimit:10;}
	.st4{fill:#F7A51C;stroke:#FFFFFF;stroke-width:8;stroke-miterlimit:10;}
	.st5{fill:#3AB2E7;stroke:#FFFFFF;stroke-width:8;stroke-miterlimit:10;}
	.st6{fill:#A2A19F;stroke:#FFFFFF;stroke-width:8;stroke-miterlimit:10;}
</style>
<rect x="10" y="10" class="st0" width="492" height="492"/>
<g>
	<path class="st1" d="M6,0"/>
</g>
<g>
	<path class="st1" d="M-28.4,499.5"/>
</g>
<g>
	<path class="st1" d="M6,516"/>
</g>
<rect x="10" y="523" class="st0" width="492" height="492"/>
<g>
	<path class="st1" d="M-28.4,1246.5"/>
</g>
<g>
	<path class="st1" d="M6,1263"/>
</g>
<g>
	<path class="st1" d="M-34.4,777.5"/>
</g>
<rect x="10" y="1035" class="st0" width="492" height="492"/>
<g>
	<path class="st1" d="M-34.4,1279.5"/>
</g>
<rect x="10" y="1544" class="st2" width="492" height="492"/>
<g>
	<path class="st1" d="M-34.4,1788.5"/>
</g>
<g>
	<path class="st1" d="M-34.4,1510"/>
</g>
<g>
	<path class="st1" d="M-34.4,2046.5"/>
</g>
<g>
	<path class="st1" d="M-15.2,2067"/>
</g>
<polygon class="st3" points="389.7,443.9 122.3,443.9 122.3,88.7 323.3,88.7 389.7,147.1 "/>
<polyline class="st3" points="323.3,88.7 323.3,152.1 389.7,152.1 "/>
<polygon class="st4" points="389.7,959.9 122.3,959.9 122.3,604.7 323.3,604.7 389.7,663.1 "/>
<polyline class="st4" points="323.3,604.7 323.3,668.1 389.7,668.1 "/>
<polygon class="st5" points="389.7,1469.9 122.3,1469.9 122.3,1114.7 323.3,1114.7 389.7,1173.1 "/>
<polyline class="st5" points="323.3,1114.7 323.3,1178.1 389.7,1178.1 "/>
<polygon class="st6" points="389.7,1977.9 122.3,1977.9 122.3,1622.7 323.3,1622.7 389.7,1681.1 "/>
<polyline class="st6" points="323.3,1622.7 323.3,1686.1 389.7,1686.1 "/>
</svg>
