<?xml version="1.0" encoding="utf-8"?>
<!-- Generator: Adobe Illustrator 27.0.1, SVG Export Plug-In . SVG Version: 6.00 Build 0)  -->
<svg version="1.1" id="Calque_1" xmlns="http://www.w3.org/2000/svg" xmlns:xlink="http://www.w3.org/1999/xlink" x="0px" y="0px"
	 viewBox="0 0 512 2048" style="enable-background:new 0 0 512 2048;" xml:space="preserve">
<style type="text/css">
	.st0{fill:#FFFFFF;stroke:#000000;stroke-width:8;stroke-miterlimit:10;}
	.st1{fill:#FFFFFF;stroke:#A2A2A0;stroke-width:8;stroke-miterlimit:10;}
	.st2{fill:none;stroke:#000000;stroke-width:8;stroke-miterlimit:10;}
	.st3{fill:none;}
	.st4{fill:#FFFFFF;stroke:#ADABAA;stroke-width:8;stroke-miterlimit:10;}
	.st5{fill:none;stroke:#ADABAA;stroke-width:8;stroke-miterlimit:10;}
	.st6{fill:#FFFFFF;stroke:#F6A318;stroke-width:40;stroke-miterlimit:10;}
	.st7{fill:none;stroke:#3BB2E6;stroke-width:40;stroke-miterlimit:10;}
</style>
<rect x="10" y="521" class="st0" width="492" height="492"/>
<rect x="10" y="1544" class="st1" width="492" height="492"/>
<rect x="10" y="10" class="st0" width="492" height="492"/>
<polygon class="st0" points="416.6,363.5 135.1,363.5 135.1,68.9 388.3,68.9 416.6,102.7 "/>
<polygon class="st0" points="416.6,393.5 135.1,393.5 135.1,98.9 388.3,98.9 416.6,132.7 "/>
<polygon class="st0" points="416.6,423.5 135.1,423.5 135.1,128.9 388.3,128.9 416.6,162.7 "/>
<polygon class="st0" points="376.6,453.5 95.1,453.5 95.1,158.9 348.3,158.9 376.6,192.7 "/>
<path class="st2" d="M319,325.5H152.7c-9.6,0-17.3,7.8-17.3,17.3v110.7h201V342.8C336.3,333.3,328.6,325.5,319,325.5z"/>
<rect x="143.7" y="158.9" class="st2" width="184.2" height="110.7"/>
<rect x="257.4" y="177.3" class="st2" width="39" height="73"/>
<g>
	<path class="st3" d="M6,0"/>
</g>
<polygon class="st4" points="416.6,1897 135.1,1897 135.1,1602.4 388.3,1602.4 416.6,1636.2 "/>
<polygon class="st4" points="416.6,1927 135.1,1927 135.1,1632.4 388.3,1632.4 416.6,1666.2 "/>
<polygon class="st4" points="416.6,1957 135.1,1957 135.1,1662.4 388.3,1662.4 416.6,1696.2 "/>
<polygon class="st4" points="376.6,1987 95.1,1987 95.1,1692.4 348.3,1692.4 376.6,1726.2 "/>
<path class="st5" d="M319,1859H152.7c-9.6,0-17.3,7.8-17.3,17.3V1987h201v-110.7C336.3,1866.8,328.6,1859,319,1859z"/>
<rect x="143.7" y="1692.4" class="st5" width="184.2" height="110.7"/>
<rect x="257.4" y="1710.8" class="st5" width="39" height="73"/>
<g>
	<path class="st3" d="M742.3,1230.3"/>
</g>
<g>
	<path class="st3" d="M-28.4,499.5"/>
</g>
<g>
	<path class="st3" d="M6,516"/>
</g>
<g>
	<path class="st3" d="M-28.4,1246.5"/>
</g>
<g>
	<path class="st3" d="M6,1263"/>
</g>
<g>
	<path class="st3" d="M-34.4,775.5"/>
</g>
<rect x="10" y="1035" class="st0" width="492" height="492"/>
<g>
	<path class="st3" d="M-34.4,1279.5"/>
</g>
<g>
	<path class="st3" d="M-34.4,1788.5"/>
</g>
<g>
	<path class="st3" d="M-34.4,1510"/>
</g>
<g>
	<path class="st3" d="M-34.4,2046.5"/>
</g>
<g>
	<path class="st3" d="M-15.2,2067"/>
</g>
<polygon class="st0" points="418.4,876.1 136.9,876.1 136.9,581.5 390.1,581.5 418.4,615.3 "/>
<polygon class="st0" points="418.4,906.1 136.9,906.1 136.9,611.5 390.1,611.5 418.4,645.3 "/>
<polygon class="st0" points="418.4,936.1 136.9,936.1 136.9,641.5 390.1,641.5 418.4,675.3 "/>
<g>
	<path class="st3" d="M7.8,514.6"/>
</g>
<polygon class="st0" points="418.5,1387.5 137,1387.5 137,1092.9 390.1,1092.9 418.5,1126.7 "/>
<polygon class="st0" points="418.5,1417.5 137,1417.5 137,1122.9 390.1,1122.9 418.5,1156.7 "/>
<polygon class="st0" points="418.5,1447.5 137,1447.5 137,1152.9 390.1,1152.9 418.5,1186.7 "/>
<g>
	<path class="st3" d="M7.9,1024"/>
</g>
<polygon class="st6" points="95,671.5 95,967.8 376.5,967.8 376.5,697.5 348.2,671.5 "/>
<polygon class="st7" points="97,1182.9 97,1473.3 378.5,1473.3 378.5,1208.4 350.2,1182.9 "/>
<polygon class="st0" points="378.4,966.1 96.9,966.1 96.9,671.5 350.1,671.5 378.4,705.3 "/>
<path class="st2" d="M320.8,838.1H154.5c-9.6,0-17.3,7.8-17.3,17.3v110.7h201V855.4C338.1,845.9,330.4,838.1,320.8,838.1z"/>
<rect x="145.5" y="671.5" class="st2" width="184.2" height="110.7"/>
<rect x="259.2" y="689.9" class="st2" width="39" height="73"/>
<polygon class="st0" points="378.5,1477.5 97,1477.5 97,1182.9 350.1,1182.9 378.5,1216.7 "/>
<path class="st2" d="M320.9,1349.5H154.6c-9.6,0-17.3,7.8-17.3,17.3v110.7h201v-110.7C338.1,1357.3,330.5,1349.5,320.9,1349.5z"/>
<rect x="145.6" y="1182.9" class="st2" width="184.2" height="110.7"/>
<rect x="259.2" y="1201.3" class="st2" width="39" height="73"/>
</svg>
