<?xml version="1.0" encoding="utf-8"?>
<!-- Generator: Adobe Illustrator 27.0.1, SVG Export Plug-In . SVG Version: 6.00 Build 0)  -->
<svg version="1.1" id="Calque_1" xmlns="http://www.w3.org/2000/svg" xmlns:xlink="http://www.w3.org/1999/xlink" x="0px" y="0px"
	 viewBox="0 0 512 2048" style="enable-background:new 0 0 512 2048;" xml:space="preserve">
<style type="text/css">
	.st0{fill:#FFFFFF;stroke:#000000;stroke-width:8;stroke-miterlimit:10;}
	.st1{fill:#FFFFFF;stroke:#F6A318;stroke-width:40;stroke-miterlimit:10;}
	.st2{fill:#FFFFFF;stroke:#A2A2A0;stroke-width:8;stroke-miterlimit:10;}
	.st3{fill:none;stroke:#000000;stroke-width:8;stroke-miterlimit:10;}
	.st4{fill:none;}
	.st5{fill:#FFFFFF;stroke:#ADABAA;stroke-width:8;stroke-miterlimit:10;}
	.st6{fill:none;stroke:#ADABAA;stroke-width:8;stroke-miterlimit:10;}
	.st7{fill:none;stroke:#3BB2E6;stroke-width:40;stroke-miterlimit:10;}
</style>
<rect x="10" y="521" class="st0" width="492" height="492"/>
<polygon class="st1" points="115,580.2 115,964.8 396.5,964.8 396.5,614 368.2,580.2 "/>
<rect x="10" y="1544" class="st2" width="492" height="492"/>
<rect x="10" y="10" class="st0" width="492" height="492"/>
<polygon class="st0" points="396.6,363.5 115.1,363.5 115.1,68.9 368.3,68.9 396.6,102.7 "/>
<polygon class="st0" points="396.6,393.5 115.1,393.5 115.1,98.9 368.3,98.9 396.6,132.7 "/>
<polygon class="st0" points="396.6,423.5 115.1,423.5 115.1,128.9 368.3,128.9 396.6,162.7 "/>
<polygon class="st0" points="396.6,453.5 115.1,453.5 115.1,158.9 368.3,158.9 396.6,192.7 "/>
<path class="st3" d="M339,325.5H172.7c-9.6,0-17.3,7.8-17.3,17.3v110.7h201V342.8C356.3,333.3,348.6,325.5,339,325.5z"/>
<rect x="163.7" y="158.9" class="st3" width="184.2" height="110.7"/>
<rect x="277.4" y="177.3" class="st3" width="39" height="73"/>
<g>
	<path class="st4" d="M6,0"/>
</g>
<polygon class="st5" points="396.6,1897 115.1,1897 115.1,1602.4 368.3,1602.4 396.6,1636.2 "/>
<polygon class="st5" points="396.6,1927 115.1,1927 115.1,1632.4 368.3,1632.4 396.6,1666.2 "/>
<polygon class="st5" points="396.6,1957 115.1,1957 115.1,1662.4 368.3,1662.4 396.6,1696.2 "/>
<polygon class="st5" points="396.6,1987 115.1,1987 115.1,1692.4 368.3,1692.4 396.6,1726.2 "/>
<path class="st6" d="M339,1859H172.7c-9.6,0-17.3,7.8-17.3,17.3V1987h201v-110.7C356.3,1866.8,348.6,1859,339,1859z"/>
<rect x="163.7" y="1692.4" class="st6" width="184.2" height="110.7"/>
<rect x="277.4" y="1710.8" class="st6" width="39" height="73"/>
<g>
	<path class="st4" d="M742.3,1230.3"/>
</g>
<g>
	<path class="st4" d="M-28.4,499.5"/>
</g>
<g>
	<path class="st4" d="M6,516"/>
</g>
<g>
	<path class="st4" d="M-28.4,1246.5"/>
</g>
<g>
	<path class="st4" d="M6,1263"/>
</g>
<g>
	<path class="st4" d="M-34.4,775.5"/>
</g>
<rect x="10" y="1035" class="st0" width="492" height="492"/>
<g>
	<path class="st4" d="M-34.4,1279.5"/>
</g>
<g>
	<path class="st4" d="M-34.4,1788.5"/>
</g>
<g>
	<path class="st4" d="M-34.4,1510"/>
</g>
<g>
	<path class="st4" d="M-34.4,2046.5"/>
</g>
<g>
	<path class="st4" d="M-15.2,2067"/>
</g>
<polygon class="st0" points="398.4,876.1 116.9,876.1 116.9,581.5 370.1,581.5 398.4,615.3 "/>
<polygon class="st0" points="398.4,906.1 116.9,906.1 116.9,611.5 370.1,611.5 398.4,645.3 "/>
<polygon class="st0" points="398.4,936.1 116.9,936.1 116.9,641.5 370.1,641.5 398.4,675.3 "/>
<polygon class="st0" points="398.4,966.1 116.9,966.1 116.9,671.5 370.1,671.5 398.4,705.3 "/>
<path class="st3" d="M340.8,838.1H174.5c-9.6,0-17.3,7.8-17.3,17.3v110.7h201V855.4C358.1,845.9,350.4,838.1,340.8,838.1z"/>
<rect x="165.5" y="671.5" class="st3" width="184.2" height="110.7"/>
<rect x="279.2" y="689.9" class="st3" width="39" height="73"/>
<g>
	<path class="st4" d="M7.8,514.6"/>
</g>
<polygon class="st7" points="117,1088.7 117,1473.3 398.5,1473.3 398.5,1122.5 370.2,1088.7 "/>
<polygon class="st0" points="398.5,1387.5 117,1387.5 117,1092.9 370.1,1092.9 398.5,1126.7 "/>
<polygon class="st0" points="398.5,1417.5 117,1417.5 117,1122.9 370.1,1122.9 398.5,1156.7 "/>
<polygon class="st0" points="398.5,1447.5 117,1447.5 117,1152.9 370.1,1152.9 398.5,1186.7 "/>
<polygon class="st0" points="398.5,1477.5 117,1477.5 117,1182.9 370.1,1182.9 398.5,1216.7 "/>
<path class="st3" d="M340.9,1349.5H174.6c-9.6,0-17.3,7.8-17.3,17.3v110.7h201v-110.7C358.1,1357.3,350.5,1349.5,340.9,1349.5z"/>
<rect x="165.6" y="1182.9" class="st3" width="184.2" height="110.7"/>
<rect x="279.2" y="1201.3" class="st3" width="39" height="73"/>
<g>
	<path class="st4" d="M7.9,1024"/>
</g>
</svg>
