<?xml version="1.0" encoding="utf-8"?>
<!-- Generator: Adobe Illustrator 27.1.0, SVG Export Plug-In . SVG Version: 6.00 Build 0)  -->
<svg version="1.1" id="Calque_1" xmlns="http://www.w3.org/2000/svg" xmlns:xlink="http://www.w3.org/1999/xlink" x="0px" y="0px"
	 viewBox="0 0 512 2048" style="enable-background:new 0 0 512 2048;" xml:space="preserve">
<style type="text/css">
	.st0{fill:#FFFFFF;stroke:#000000;stroke-width:8;stroke-miterlimit:10;}
	.st1{fill:#FFFFFF;stroke:#A2A2A0;stroke-width:8;stroke-miterlimit:10;}
	.st2{fill:none;}
	.st3{stroke:#FFFFFF;stroke-width:12;}
	.st4{fill:#F6A318;stroke:#FFFFFF;stroke-width:12;stroke-miterlimit:10;}
	.st5{fill:#3BB2E6;stroke:#FFFFFF;stroke-width:12;stroke-miterlimit:10;}
	.st6{fill:#A2A19F;stroke:#FFFFFF;stroke-width:12;stroke-miterlimit:10;}
</style>
<rect x="10" y="10" class="st0" width="492" height="492"/>
<rect x="10" y="523" class="st0" width="492" height="492"/>
<rect x="10" y="1035" class="st0" width="492" height="492"/>
<rect x="10" y="1544" class="st1" width="492" height="492"/>
<rect x="123.8" y="167" class="st0" width="264.4" height="70.8"/>
<rect x="123.8" y="248.9" class="st0" width="264.4" height="70.8"/>
<rect x="123.8" y="330.7" class="st0" width="264.4" height="70.8"/>
<rect x="123.8" y="680" class="st0" width="264.4" height="70.8"/>
<rect x="123.8" y="761.9" class="st0" width="264.4" height="70.8"/>
<rect x="123.8" y="843.7" class="st0" width="264.4" height="70.8"/>
<rect x="123.8" y="1192" class="st0" width="264.4" height="70.8"/>
<rect x="123.8" y="1273.9" class="st0" width="264.4" height="70.8"/>
<rect x="123.8" y="1355.7" class="st0" width="264.4" height="70.8"/>
<rect x="123.8" y="1699.5" class="st1" width="264.4" height="70.8"/>
<rect x="123.8" y="1781.4" class="st1" width="264.4" height="70.8"/>
<rect x="123.8" y="1863.2" class="st1" width="264.4" height="70.8"/>
<g>
	<path class="st2" d="M6,2"/>
</g>
<g>
	<path class="st2" d="M-28.4,501.5"/>
</g>
<g>
	<path class="st2" d="M6,518"/>
</g>
<g>
	<path class="st2" d="M-28.4,1248.5"/>
</g>
<g>
	<path class="st2" d="M6,1265"/>
</g>
<g>
	<path class="st2" d="M-34.4,779.5"/>
</g>
<g>
	<path class="st2" d="M-34.4,1281.5"/>
</g>
<g>
	<path class="st2" d="M-34.4,1790.5"/>
</g>
<g>
	<path class="st2" d="M-34.4,1512"/>
</g>
<g>
	<path class="st2" d="M-34.4,2048.5"/>
</g>
<g>
	<path class="st2" d="M-15.2,2069"/>
</g>
<path class="st3" d="M279.5,70.5c-8.3,0-15,6.7-15,15v7.9c-9.5-10.7-20.6-19.8-32.7-26.9C212.2,55,190.2,49,168.1,49
	c-0.1,0-0.2,0-0.4,0c-45.3,0.1-85.5,24.8-110.1,67.7c-4.1,7.2-1.6,16.4,5.5,20.5c2.4,1.4,4.9,2,7.5,2c5.2,0,10.3-2.7,13-7.5
	c19.1-33.4,49.8-52.6,84.2-52.7c30.1-0.1,58.2,14.1,77.8,38.5h-13.2c-8.3,0-15,6.7-15,15s6.7,15,15,15h62v-62
	C294.5,77.2,287.7,70.5,279.5,70.5z"/>
<path class="st3" d="M286.9,210.8c-7.2-4.1-16.4-1.6-20.5,5.5c-19.1,33.4-49.8,52.6-84.2,52.7c-0.1,0-0.2,0-0.3,0
	c-30,0-58-14.1-77.5-38.5h13.2c8.3,0,15-6.7,15-15s-6.7-15-15-15h-62v62c0,8.3,6.7,15,15,15s15-6.7,15-15v-7.9
	c9.5,10.7,20.6,19.8,32.7,26.9c19.5,11.4,41.5,17.4,63.6,17.4c0.1,0,0.2,0,0.4,0c45.4-0.1,85.5-24.8,110.2-67.7
	C296.6,224.1,294.1,214.9,286.9,210.8z"/>
<path class="st4" d="M279.5,583.5c-8.3,0-15,6.7-15,15v7.9c-9.5-10.7-20.6-19.8-32.7-26.9C212.2,568,190.2,562,168.1,562
	c-0.1,0-0.2,0-0.4,0c-45.4,0.1-85.5,24.8-110.2,67.7c-4.1,7.2-1.6,16.4,5.5,20.5c2.4,1.4,4.9,2,7.5,2c5.2,0,10.3-2.7,13-7.5
	c19.1-33.4,49.8-52.6,84.2-52.7c30.1-0.1,58.2,14.1,77.8,38.5h-13.2c-8.3,0-15,6.7-15,15s6.7,15,15,15h62v-62
	C294.5,590.2,287.7,583.5,279.5,583.5z"/>
<path class="st4" d="M286.9,723.8c-7.2-4.1-16.4-1.6-20.5,5.5c-19.1,33.4-49.8,52.6-84.2,52.7c-0.1,0-0.2,0-0.3,0
	c-30,0-58-14.1-77.5-38.5h13.2c8.3,0,15-6.7,15-15s-6.7-15-15-15h-62v62c0,8.3,6.7,15,15,15s15-6.7,15-15v-7.9
	c9.5,10.7,20.6,19.8,32.7,26.9c19.5,11.4,41.5,17.4,63.6,17.4c0.1,0,0.2,0,0.4,0c45.4-0.1,85.5-24.8,110.2-67.7
	C296.6,737.1,294.1,728,286.9,723.8z"/>
<path class="st5" d="M279.5,1095.6c-8.3,0-15,6.7-15,15v7.9c-9.5-10.7-20.6-19.8-32.7-26.9c-19.5-11.4-41.5-17.4-63.6-17.4
	c-0.1,0-0.2,0-0.4,0c-45.4,0.1-85.5,24.8-110.2,67.7c-4.1,7.2-1.6,16.4,5.5,20.5c2.4,1.4,4.9,2,7.5,2c5.2,0,10.3-2.7,13-7.5
	c19.1-33.4,49.8-52.6,84.2-52.7c30.1-0.1,58.2,14.1,77.8,38.5h-13.2c-8.3,0-15,6.7-15,15s6.7,15,15,15h62v-62
	C294.5,1102.2,287.7,1095.6,279.5,1095.6z"/>
<path class="st5" d="M286.9,1235.9c-7.2-4.1-16.4-1.6-20.5,5.5c-19.1,33.4-49.8,52.6-84.2,52.7c-0.1,0-0.2,0-0.3,0
	c-30,0-58-14.1-77.5-38.5h13.2c8.3,0,15-6.7,15-15s-6.7-15-15-15h-62v62c0,8.3,6.7,15,15,15s15-6.7,15-15v-7.9
	c9.5,10.7,20.6,19.8,32.7,26.9c19.5,11.4,41.5,17.4,63.6,17.4c0.1,0,0.2,0,0.4,0c45.4-0.1,85.5-24.8,110.2-67.7
	C296.6,1249.1,294.1,1239.9,286.9,1235.9z"/>
<path class="st6" d="M279.5,1604.6c-8.3,0-15,6.7-15,15v7.9c-9.5-10.7-20.6-19.8-32.7-26.9c-19.5-11.4-41.5-17.4-63.6-17.4
	c-0.1,0-0.2,0-0.4,0c-45.4,0.1-85.5,24.8-110.2,67.7c-4.1,7.2-1.6,16.4,5.5,20.5c2.4,1.4,4.9,2,7.5,2c5.2,0,10.3-2.7,13-7.5
	c19.1-33.4,49.8-52.6,84.2-52.7c30.1-0.1,58.2,14.1,77.8,38.5h-13.2c-8.3,0-15,6.7-15,15s6.7,15,15,15h62v-62
	C294.5,1611.2,287.7,1604.6,279.5,1604.6z"/>
<path class="st6" d="M286.9,1744.9c-7.2-4.1-16.4-1.6-20.5,5.5c-19.1,33.4-49.8,52.6-84.2,52.7c-0.1,0-0.2,0-0.3,0
	c-30,0-58-14.1-77.5-38.5h13.2c8.3,0,15-6.7,15-15s-6.7-15-15-15h-62v62c0,8.3,6.7,15,15,15s15-6.7,15-15v-7.9
	c9.5,10.7,20.6,19.8,32.7,26.9c19.5,11.4,41.5,17.4,63.6,17.4c0.1,0,0.2,0,0.4,0c45.4-0.1,85.5-24.8,110.2-67.7
	C296.6,1758.1,294.1,1748.9,286.9,1744.9z"/>
</svg>
