<?xml version="1.0" encoding="utf-8"?>
<!-- Generator: Adobe Illustrator 27.1.0, SVG Export Plug-In . SVG Version: 6.00 Build 0)  -->
<svg version="1.1" id="Calque_1" xmlns="http://www.w3.org/2000/svg" xmlns:xlink="http://www.w3.org/1999/xlink" x="0px" y="0px"
	 viewBox="0 0 512 2048" style="enable-background:new 0 0 512 2048;" xml:space="preserve">
<style type="text/css">
	.st0{fill:#FFFFFF;stroke:#000000;stroke-width:8;stroke-miterlimit:10;}
	.st1{fill:#FFFFFF;stroke:#A2A2A0;stroke-width:8;stroke-miterlimit:10;}
	.st2{fill:none;}
	.st3{fill:#F6A318;}
	.st4{fill:#3BB2E6;}
	.st5{fill:#A2A19F;}
	.st6{fill:#1D1D1B;stroke:#FFFFFF;stroke-width:15;stroke-miterlimit:10;}
	.st7{fill:#A2A2A0;stroke:#FFFFFF;stroke-width:15;stroke-miterlimit:10;}
</style>
<rect x="10" y="10" class="st0" width="492" height="492"/>
<rect x="10" y="523" class="st0" width="492" height="492"/>
<rect x="10" y="1035" class="st0" width="492" height="492"/>
<rect x="10" y="1544" class="st1" width="492" height="492"/>
<rect x="123.8" y="167" class="st0" width="264.4" height="70.8"/>
<rect x="123.8" y="248.9" class="st0" width="264.4" height="70.8"/>
<rect x="123.8" y="330.7" class="st0" width="264.4" height="70.8"/>
<rect x="123.8" y="680" class="st0" width="264.4" height="70.8"/>
<rect x="123.8" y="761.9" class="st0" width="264.4" height="70.8"/>
<rect x="123.8" y="843.7" class="st0" width="264.4" height="70.8"/>
<rect x="123.8" y="1192" class="st0" width="264.4" height="70.8"/>
<rect x="123.8" y="1273.9" class="st0" width="264.4" height="70.8"/>
<rect x="123.8" y="1355.7" class="st0" width="264.4" height="70.8"/>
<rect x="123.8" y="1699.5" class="st1" width="264.4" height="70.8"/>
<rect x="123.8" y="1781.4" class="st1" width="264.4" height="70.8"/>
<rect x="123.8" y="1863.2" class="st1" width="264.4" height="70.8"/>
<g>
	<path class="st2" d="M6,2"/>
</g>
<polygon points="277.4,278.1 271.2,31.9 220.5,82.2 149.8,12 10,12 10,152.5 79.8,221.8 29.1,272 "/>
<g>
	<path class="st2" d="M-28.4,501.5"/>
</g>
<g>
	<path class="st2" d="M6,518"/>
</g>
<polygon class="st3" points="277.4,791.1 271.2,544.9 220.5,595.2 149.8,525 10,525 10,665.5 79.8,734.8 29.1,785 "/>
<g>
	<path class="st2" d="M-28.4,1248.5"/>
</g>
<g>
	<path class="st2" d="M6,1265"/>
</g>
<g>
	<path class="st2" d="M-34.4,779.5"/>
</g>
<polygon class="st4" points="277.4,1303.1 271.2,1056.9 220.5,1107.2 149.8,1037 10,1037 10,1177.5 79.8,1246.8 29.1,1297 "/>
<g>
	<path class="st2" d="M-34.4,1281.5"/>
</g>
<polygon class="st5" points="277.4,1812.1 271.2,1565.9 220.5,1616.2 149.8,1546 10,1546 10,1686.5 79.8,1755.8 29.1,1806 "/>
<g>
	<path class="st2" d="M-34.4,1790.5"/>
</g>
<g>
	<path class="st2" d="M-34.4,1512"/>
</g>
<g>
	<path class="st2" d="M-34.4,2048.5"/>
</g>
<g>
	<path class="st2" d="M-15.2,2069"/>
</g>
<path class="st6" d="M249,235.8l94.9-94.9c6.6-6.6,6.6-17.3,0-23.9l0,0c-6.6-6.6-17.3-6.6-23.9,0l-94.9,94.9L130.2,117
	c-6.6-6.6-17.3-6.6-23.9,0l0,0c-6.6,6.6-6.6,17.3,0,23.9l94.9,94.9l-94.9,94.9c-6.6,6.6-6.6,17.3,0,23.9l0,0
	c6.6,6.6,17.3,6.6,23.9,0l94.9-94.9l94.9,94.9c6.6,6.6,17.3,6.6,23.9,0l0,0c6.6-6.6,6.6-17.3,0-23.9L249,235.8z"/>
<path class="st6" d="M249,749.3l94.9-94.9c6.6-6.6,6.6-17.3,0-23.9l0,0c-6.6-6.6-17.3-6.6-23.9,0l-94.9,94.9l-94.9-94.9
	c-6.6-6.6-17.3-6.6-23.9,0l0,0c-6.6,6.6-6.6,17.3,0,23.9l94.9,94.9l-94.9,94.9c-6.6,6.6-6.6,17.3,0,23.9l0,0
	c6.6,6.6,17.3,6.6,23.9,0l94.9-94.9l94.9,94.9c6.6,6.6,17.3,6.6,23.9,0l0,0c6.6-6.6,6.6-17.3,0-23.9L249,749.3z"/>
<path class="st6" d="M249,1260.8l94.9-94.9c6.6-6.6,6.6-17.3,0-23.9l0,0c-6.6-6.6-17.3-6.6-23.9,0l-94.9,94.9l-94.9-94.9
	c-6.6-6.6-17.3-6.6-23.9,0l0,0c-6.6,6.6-6.6,17.3,0,23.9l94.9,94.9l-94.9,94.9c-6.6,6.6-6.6,17.3,0,23.9l0,0
	c6.6,6.6,17.3,6.6,23.9,0l94.9-94.9l94.9,94.9c6.6,6.6,17.3,6.6,23.9,0l0,0c6.6-6.6,6.6-17.3,0-23.9L249,1260.8z"/>
<path class="st7" d="M249,1746.8l94.9-94.9c6.6-6.6,6.6-17.3,0-23.9l0,0c-6.6-6.6-17.3-6.6-23.9,0l-94.9,94.9l-94.9-94.9
	c-6.6-6.6-17.3-6.6-23.9,0l0,0c-6.6,6.6-6.6,17.3,0,23.9l94.9,94.9l-94.9,94.9c-6.6,6.6-6.6,17.3,0,23.9l0,0
	c6.6,6.6,17.3,6.6,23.9,0l94.9-94.9l94.9,94.9c6.6,6.6,17.3,6.6,23.9,0l0,0c6.6-6.6,6.6-17.3,0-23.9L249,1746.8z"/>
</svg>
