<?xml version="1.0" encoding="utf-8"?>
<!-- Generator: Adobe Illustrator 27.1.0, SVG Export Plug-In . SVG Version: 6.00 Build 0)  -->
<svg version="1.1" id="Calque_1" xmlns="http://www.w3.org/2000/svg" xmlns:xlink="http://www.w3.org/1999/xlink" x="0px" y="0px"
	 viewBox="0 0 512 2048" style="enable-background:new 0 0 512 2048;" xml:space="preserve">
<style type="text/css">
	.st0{fill:#FFFFFF;stroke:#000000;stroke-width:8;stroke-miterlimit:10;}
	.st1{fill:#FFFFFF;stroke:#A2A2A0;stroke-width:8;stroke-miterlimit:10;}
	.st2{fill:none;}
	.st3{fill:#F6A318;}
	.st4{fill:#3BB2E6;}
	.st5{fill:#A2A19F;}
</style>
<rect x="10" y="10" class="st0" width="492" height="492"/>
<rect x="10" y="523" class="st0" width="492" height="492"/>
<rect x="10" y="1035" class="st0" width="492" height="492"/>
<rect x="10" y="1544" class="st1" width="492" height="492"/>
<rect x="123.8" y="167" class="st0" width="264.4" height="70.8"/>
<rect x="123.8" y="248.9" class="st0" width="264.4" height="70.8"/>
<rect x="123.8" y="330.7" class="st0" width="264.4" height="70.8"/>
<rect x="123.8" y="680" class="st0" width="264.4" height="70.8"/>
<rect x="123.8" y="761.9" class="st0" width="264.4" height="70.8"/>
<rect x="123.8" y="843.7" class="st0" width="264.4" height="70.8"/>
<rect x="123.8" y="1192" class="st0" width="264.4" height="70.8"/>
<rect x="123.8" y="1273.9" class="st0" width="264.4" height="70.8"/>
<rect x="123.8" y="1355.7" class="st0" width="264.4" height="70.8"/>
<rect x="123.8" y="1699.5" class="st1" width="264.4" height="70.8"/>
<rect x="123.8" y="1781.4" class="st1" width="264.4" height="70.8"/>
<rect x="123.8" y="1863.2" class="st1" width="264.4" height="70.8"/>
<g>
	<path class="st2" d="M6,2"/>
</g>
<g>
	<path class="st2" d="M-28.4,501.5"/>
</g>
<g>
	<path class="st2" d="M6,518"/>
</g>
<g>
	<path class="st2" d="M-28.4,1248.5"/>
</g>
<g>
	<path class="st2" d="M6,1265"/>
</g>
<g>
	<path class="st2" d="M-34.4,779.5"/>
</g>
<g>
	<path class="st2" d="M-34.4,1281.5"/>
</g>
<g>
	<path class="st2" d="M-34.4,1790.5"/>
</g>
<g>
	<path class="st2" d="M-34.4,1512"/>
</g>
<g>
	<path class="st2" d="M-34.4,2048.5"/>
</g>
<g>
	<path class="st2" d="M-15.2,2069"/>
</g>
<polygon points="352.3,243.7 154.1,243.7 154.2,189.5 82.9,189.9 254.2,10 423.9,188.5 352.4,188.8 "/>
<polygon class="st3" points="352.3,756.7 154.1,756.7 154.2,702.5 82.9,702.9 254.2,523 423.9,701.5 352.4,701.8 "/>
<polygon class="st4" points="352.3,1268.7 154.1,1268.7 154.2,1214.5 82.9,1214.9 254.2,1035 423.9,1213.5 352.4,1213.8 "/>
<polygon class="st5" points="352.3,1777.7 154.1,1777.7 154.2,1723.5 82.9,1723.9 254.2,1544 423.9,1722.5 352.4,1722.8 "/>
</svg>
