<?xml version="1.0" encoding="utf-8"?>
<!-- Generator: Adobe Illustrator 27.1.0, SVG Export Plug-In . SVG Version: 6.00 Build 0)  -->
<svg version="1.1" id="Calque_1" xmlns="http://www.w3.org/2000/svg" xmlns:xlink="http://www.w3.org/1999/xlink" x="0px" y="0px"
	 viewBox="0 0 512 2048" style="enable-background:new 0 0 512 2048;" xml:space="preserve">
<style type="text/css">
	.st0{fill:#FFFFFF;stroke:#000000;stroke-width:8;stroke-miterlimit:10;}
	.st1{fill:#FFFFFF;stroke:#A2A2A0;stroke-width:8;stroke-miterlimit:10;}
	.st2{fill:none;}
	.st3{fill:#F6A318;}
	.st4{fill:#3BB2E6;}
	.st5{fill:#A2A19F;}
</style>
<rect x="10" y="10" class="st0" width="492" height="492"/>
<rect x="10" y="523" class="st0" width="492" height="492"/>
<rect x="10" y="1035" class="st0" width="492" height="492"/>
<rect x="10" y="1544" class="st1" width="492" height="492"/>
<rect x="123.8" y="167" class="st0" width="264.4" height="70.8"/>
<rect x="123.8" y="248.9" class="st0" width="264.4" height="70.8"/>
<rect x="123.8" y="330.7" class="st0" width="264.4" height="70.8"/>
<rect x="123.8" y="680" class="st0" width="264.4" height="70.8"/>
<rect x="123.8" y="761.9" class="st0" width="264.4" height="70.8"/>
<rect x="123.8" y="843.7" class="st0" width="264.4" height="70.8"/>
<rect x="123.8" y="1192" class="st0" width="264.4" height="70.8"/>
<rect x="123.8" y="1273.9" class="st0" width="264.4" height="70.8"/>
<rect x="123.8" y="1355.7" class="st0" width="264.4" height="70.8"/>
<rect x="123.8" y="1699.5" class="st1" width="264.4" height="70.8"/>
<rect x="123.8" y="1781.4" class="st1" width="264.4" height="70.8"/>
<rect x="123.8" y="1863.2" class="st1" width="264.4" height="70.8"/>
<g>
	<path class="st2" d="M6,2"/>
</g>
<g>
	<path class="st2" d="M-28.4,501.5"/>
</g>
<g>
	<path class="st2" d="M6,518"/>
</g>
<g>
	<path class="st2" d="M-28.4,1248.5"/>
</g>
<g>
	<path class="st2" d="M6,1265"/>
</g>
<g>
	<path class="st2" d="M-34.4,779.5"/>
</g>
<g>
	<path class="st2" d="M-34.4,1281.5"/>
</g>
<g>
	<path class="st2" d="M-34.4,1790.5"/>
</g>
<g>
	<path class="st2" d="M-34.4,1512"/>
</g>
<g>
	<path class="st2" d="M-34.4,2048.5"/>
</g>
<g>
	<path class="st2" d="M-15.2,2069"/>
</g>
<polygon points="352.3,10 154.1,10 154.2,64.1 82.9,63.8 254.2,243.7 423.9,65.2 352.4,64.9 "/>
<polygon class="st3" points="352.3,523 154.1,523 154.2,577.1 82.9,576.8 254.2,756.7 423.9,578.2 352.4,577.9 "/>
<polygon class="st4" points="352.3,1035 154.1,1035 154.2,1089.1 82.9,1088.8 254.2,1268.7 423.9,1090.2 352.4,1089.9 "/>
<polygon class="st5" points="352.3,1544 154.1,1544 154.2,1598.1 82.9,1597.8 254.2,1777.7 423.9,1599.2 352.4,1598.9 "/>
</svg>
