<?xml version="1.0" encoding="utf-8"?>
<!-- Generator: Adobe Illustrator 27.0.1, SVG Export Plug-In . SVG Version: 6.00 Build 0)  -->
<svg version="1.1" id="Calque_1" xmlns="http://www.w3.org/2000/svg" xmlns:xlink="http://www.w3.org/1999/xlink" x="0px" y="0px"
	 viewBox="0 0 512 2048" style="enable-background:new 0 0 512 2048;" xml:space="preserve">
<style type="text/css">
	.st0{fill:#FFFFFF;stroke:#000000;stroke-width:8;stroke-miterlimit:10;}
	.st1{fill:none;stroke:#000000;stroke-width:8;stroke-miterlimit:10;}
	.st2{fill:none;}
	.st3{fill:#FFFFFF;stroke:#A2A2A0;stroke-width:8;stroke-miterlimit:10;}
	.st4{fill:none;stroke:#A2A19F;stroke-width:8;stroke-miterlimit:10;}
	.st5{stroke:#FFFFFF;stroke-width:12;stroke-miterlimit:10;}
	.st6{fill:#F6A318;stroke:#FFFFFF;stroke-width:12;stroke-miterlimit:10;}
	.st7{fill:#3BB2E6;stroke:#FFFFFF;stroke-width:12;stroke-miterlimit:10;}
	.st8{fill:#A2A19F;stroke:#FFFFFF;stroke-width:12;stroke-miterlimit:10;}
</style>
<rect x="10" y="10" class="st0" width="492" height="492"/>
<polygon class="st1" points="456.6,473.5 175.1,473.5 175.1,178.9 428.3,178.9 456.6,212.7 "/>
<path class="st1" d="M399,345.5H232.7c-9.6,0-17.3,7.8-17.3,17.3v110.7h201V362.8C416.3,353.3,408.6,345.5,399,345.5z"/>
<rect x="223.7" y="178.9" class="st1" width="184.2" height="110.7"/>
<rect x="337.4" y="197.3" class="st1" width="39" height="73"/>
<g>
	<path class="st2" d="M6,0"/>
</g>
<g>
	<path class="st2" d="M-28.4,499.5"/>
</g>
<g>
	<path class="st2" d="M6,516"/>
</g>
<rect x="10" y="523" class="st0" width="492" height="492"/>
<polygon class="st1" points="456.6,986.5 175.1,986.5 175.1,691.9 428.3,691.9 456.6,725.7 "/>
<path class="st1" d="M399,858.5H232.7c-9.6,0-17.3,7.8-17.3,17.3v110.7h201V875.8C416.3,866.3,408.6,858.5,399,858.5z"/>
<rect x="223.7" y="691.9" class="st1" width="184.2" height="110.7"/>
<rect x="337.4" y="710.3" class="st1" width="39" height="73"/>
<g>
	<path class="st2" d="M-28.4,1246.5"/>
</g>
<g>
	<path class="st2" d="M6,1263"/>
</g>
<g>
	<path class="st2" d="M-34.4,777.5"/>
</g>
<rect x="10" y="1035" class="st0" width="492" height="492"/>
<polygon class="st1" points="456.6,1498.5 175.1,1498.5 175.1,1203.9 428.3,1203.9 456.6,1237.7 "/>
<path class="st1" d="M399,1370.5H232.7c-9.6,0-17.3,7.8-17.3,17.3v110.7h201v-110.7C416.3,1378.3,408.6,1370.5,399,1370.5z"/>
<rect x="223.7" y="1203.9" class="st1" width="184.2" height="110.7"/>
<rect x="337.4" y="1222.3" class="st1" width="39" height="73"/>
<g>
	<path class="st2" d="M-34.4,1279.5"/>
</g>
<rect x="10" y="1544" class="st3" width="492" height="492"/>
<polygon class="st4" points="456.6,2007.5 175.1,2007.5 175.1,1712.9 428.3,1712.9 456.6,1746.7 "/>
<path class="st4" d="M399,1879.5H232.7c-9.6,0-17.3,7.8-17.3,17.3v110.7h201v-110.7C416.3,1887.3,408.6,1879.5,399,1879.5z"/>
<rect x="223.7" y="1712.9" class="st4" width="184.2" height="110.7"/>
<rect x="337.4" y="1731.3" class="st4" width="39" height="73"/>
<g>
	<path class="st2" d="M-34.4,1788.5"/>
</g>
<g>
	<path class="st2" d="M-34.4,1510"/>
</g>
<g>
	<path class="st2" d="M-34.4,2046.5"/>
</g>
<g>
	<path class="st2" d="M-15.2,2067"/>
</g>
<path class="st5" d="M224.4,80.2c-5.4-6.3-14.9-6.9-21.2-1.5l-13.6,11.8v-49c0-8.3-6.7-15-15-15s-15,6.7-15,15V90l-12.5-11.1
	c-6.2-5.5-15.7-5-21.2,1.2s-5,15.7,1.2,21.2l47.3,42.2l48.4-42.1C229.2,95.9,229.8,86.5,224.4,80.2z"/>
<path class="st5" d="M293.1,142.9h-47.9l10.4-11.3c5.6-6.1,5.2-15.6-0.9-21.2s-15.6-5.2-21.2,0.9l-42.3,46.2l41.9,49.6
	c3,3.5,7.2,5.3,11.5,5.3c3.4,0,6.9-1.2,9.7-3.5c6.3-5.4,7.1-14.8,1.8-21.1L243.6,173h49.7c8.3,0,15-6.7,15-15
	S301.3,142.9,293.1,142.9z"/>
<path class="st5" d="M223.1,216.6l-47.3-42.2l-48.4,42.1c-6.3,5.4-6.9,14.9-1.5,21.2c3,3.4,7.1,5.2,11.3,5.2c3.5,0,7-1.2,9.8-3.7
	l13.6-11.8v49.1c0,8.3,6.7,15,15,15s15-6.7,15-15V228l12.5,11.1c6.2,5.5,15.7,5,21.2-1.2C229.8,231.6,229.2,222.1,223.1,216.6z"/>
<path class="st5" d="M117.2,110.7c-5.4-6.3-14.8-7.1-21.1-1.8c-6.3,5.4-7.1,14.8-1.8,21.1l12.5,14.8H57.1c-8.3,0-15,6.7-15,15
	s6.7,15,15,15H105l-10.4,11.3c-5.6,6.1-5.2,15.6,0.9,21.2c2.9,2.6,6.5,3.9,10.1,3.9c4.1,0,8.1-1.6,11.1-4.9l42.3-46.2L117.2,110.7z"
	/>
<path class="st6" d="M224.4,593.2c-5.4-6.3-14.9-6.9-21.2-1.5l-13.6,11.8v-49.1c0-8.3-6.7-15-15-15s-15,6.7-15,15V603l-12.5-11.1
	c-6.2-5.5-15.7-5-21.2,1.2s-5,15.7,1.2,21.2l47.3,42.2l48.4-42.1C229.2,608.9,229.8,599.5,224.4,593.2z"/>
<path class="st6" d="M293.1,655.9h-47.9l10.4-11.3c5.6-6.1,5.2-15.6-0.9-21.2c-6.1-5.6-15.6-5.2-21.2,0.9l-42.3,46.2l41.9,49.6
	c3,3.5,7.2,5.3,11.5,5.3c3.4,0,6.9-1.2,9.7-3.5c6.3-5.4,7.1-14.8,1.8-21.1L243.6,686h49.7c8.3,0,15-6.7,15-15
	S301.3,655.9,293.1,655.9z"/>
<path class="st6" d="M223.1,729.6l-47.3-42.2l-48.4,42.1c-6.3,5.4-6.9,14.9-1.5,21.2c3,3.4,7.1,5.2,11.3,5.2c3.5,0,7-1.2,9.8-3.7
	l13.6-11.8v49.1c0,8.3,6.7,15,15,15s15-6.7,15-15V741l12.5,11.1c6.2,5.5,15.7,5,21.2-1.2C229.8,744.6,229.2,735.1,223.1,729.6z"/>
<path class="st6" d="M117.2,623.7c-5.4-6.3-14.8-7.1-21.1-1.8c-6.3,5.4-7.1,14.8-1.8,21.1l12.5,14.8H57.1c-8.3,0-15,6.7-15,15
	s6.7,15,15,15H105l-10.4,11.3c-5.6,6.1-5.2,15.6,0.9,21.2c2.9,2.6,6.5,3.9,10.1,3.9c4.1,0,8.1-1.6,11.1-4.9l42.3-46.2L117.2,623.7z"
	/>
<path class="st7" d="M224.4,1105.2c-5.4-6.3-14.9-6.9-21.2-1.5l-13.6,11.8v-49.1c0-8.3-6.7-15-15-15s-15,6.7-15,15v48.5l-12.5-11.1
	c-6.2-5.5-15.7-5-21.2,1.2s-5,15.7,1.2,21.2l47.3,42.2l48.4-42.1C229.2,1120.9,229.8,1111.5,224.4,1105.2z"/>
<path class="st7" d="M293.1,1167.9h-47.9l10.4-11.3c5.6-6.1,5.2-15.6-0.9-21.2s-15.6-5.2-21.2,0.9l-42.3,46.2l41.9,49.6
	c3,3.5,7.2,5.3,11.5,5.3c3.4,0,6.9-1.2,9.7-3.5c6.3-5.4,7.1-14.8,1.8-21.1l-12.5-14.8h49.7c8.3,0,15-6.7,15-15
	S301.3,1167.9,293.1,1167.9z"/>
<path class="st7" d="M223.1,1241.6l-47.3-42.2l-48.4,42.1c-6.3,5.4-6.9,14.9-1.5,21.2c3,3.4,7.1,5.2,11.3,5.2c3.5,0,7-1.2,9.8-3.7
	l13.6-11.8v49.1c0,8.3,6.7,15,15,15s15-6.7,15-15V1253l12.5,11.1c6.2,5.5,15.7,5,21.2-1.2C229.8,1256.6,229.2,1247.1,223.1,1241.6z"
	/>
<path class="st7" d="M117.2,1135.7c-5.4-6.3-14.8-7.1-21.1-1.8c-6.3,5.4-7.1,14.8-1.8,21.1l12.5,14.8H57.1c-8.3,0-15,6.7-15,15
	s6.7,15,15,15H105l-10.4,11.3c-5.6,6.1-5.2,15.6,0.9,21.2c2.9,2.6,6.5,3.9,10.1,3.9c4.1,0,8.1-1.6,11.1-4.9l42.3-46.2L117.2,1135.7z
	"/>
<path class="st8" d="M224.4,1614.2c-5.4-6.3-14.9-6.9-21.2-1.5l-13.6,11.8v-49.1c0-8.3-6.7-15-15-15s-15,6.7-15,15v48.5l-12.5-11.1
	c-6.2-5.5-15.7-5-21.2,1.2s-5,15.7,1.2,21.2l47.3,42.2l48.4-42.1C229.2,1629.9,229.8,1620.5,224.4,1614.2z"/>
<path class="st8" d="M293.1,1676.9h-47.9l10.4-11.3c5.6-6.1,5.2-15.6-0.9-21.2s-15.6-5.2-21.2,0.9l-42.3,46.2l41.9,49.6
	c3,3.5,7.2,5.3,11.5,5.3c3.4,0,6.9-1.2,9.7-3.5c6.3-5.4,7.1-14.8,1.8-21.1l-12.5-14.8h49.7c8.3,0,15-6.7,15-15
	S301.3,1676.9,293.1,1676.9z"/>
<path class="st8" d="M223.1,1750.6l-47.3-42.2l-48.4,42.1c-6.3,5.4-6.9,14.9-1.5,21.2c3,3.4,7.1,5.2,11.3,5.2c3.5,0,7-1.2,9.8-3.7
	l13.6-11.8v49.1c0,8.3,6.7,15,15,15s15-6.7,15-15V1762l12.5,11.1c6.2,5.5,15.7,5,21.2-1.2C229.8,1765.6,229.2,1756.1,223.1,1750.6z"
	/>
<path class="st8" d="M117.2,1644.7c-5.4-6.3-14.8-7.1-21.1-1.8c-6.3,5.4-7.1,14.8-1.8,21.1l12.5,14.8H57.1c-8.3,0-15,6.7-15,15
	s6.7,15,15,15H105l-10.4,11.3c-5.6,6.1-5.2,15.6,0.9,21.2c2.9,2.6,6.5,3.9,10.1,3.9c4.1,0,8.1-1.6,11.1-4.9l42.3-46.2L117.2,1644.7z
	"/>
</svg>
