<?xml version="1.0" encoding="utf-8"?>
<!-- Generator: Adobe Illustrator 27.0.1, SVG Export Plug-In . SVG Version: 6.00 Build 0)  -->
<svg version="1.1" id="Calque_1" xmlns="http://www.w3.org/2000/svg" xmlns:xlink="http://www.w3.org/1999/xlink" x="0px" y="0px"
	 viewBox="0 0 512 2048" style="enable-background:new 0 0 512 2048;" xml:space="preserve">
<style type="text/css">
	.st0{fill:#FFFFFF;stroke:#000000;stroke-width:8;stroke-miterlimit:10;}
	.st1{fill:none;stroke:#000000;stroke-width:8;stroke-miterlimit:10;}
	.st2{fill:none;}
	.st3{fill:#FFFFFF;stroke:#A2A2A0;stroke-width:8;stroke-miterlimit:10;}
	.st4{fill:none;stroke:#A2A19F;stroke-width:8;stroke-miterlimit:10;}
	.st5{stroke:#FFFFFF;stroke-width:12;}
	.st6{fill:#F6A318;stroke:#FFFFFF;stroke-width:12;stroke-miterlimit:10;}
	.st7{fill:#3BB2E6;stroke:#FFFFFF;stroke-width:12;stroke-miterlimit:10;}
	.st8{fill:#A2A19F;stroke:#FFFFFF;stroke-width:12;stroke-miterlimit:10;}
</style>
<rect x="10" y="10" class="st0" width="492" height="492"/>
<polygon class="st1" points="456.6,473.5 175.1,473.5 175.1,178.9 428.3,178.9 456.6,212.7 "/>
<path class="st1" d="M399,345.5H232.7c-9.6,0-17.3,7.8-17.3,17.3v110.7h201V362.8C416.3,353.3,408.6,345.5,399,345.5z"/>
<rect x="223.7" y="178.9" class="st1" width="184.2" height="110.7"/>
<rect x="337.4" y="197.3" class="st1" width="39" height="73"/>
<g>
	<path class="st2" d="M6,0"/>
</g>
<g>
	<path class="st2" d="M-28.4,499.5"/>
</g>
<g>
	<path class="st2" d="M6,516"/>
</g>
<rect x="10" y="523" class="st0" width="492" height="492"/>
<polygon class="st1" points="456.6,986.5 175.1,986.5 175.1,691.9 428.3,691.9 456.6,725.7 "/>
<path class="st1" d="M399,858.5H232.7c-9.6,0-17.3,7.8-17.3,17.3v110.7h201V875.8C416.3,866.3,408.6,858.5,399,858.5z"/>
<rect x="223.7" y="691.9" class="st1" width="184.2" height="110.7"/>
<rect x="337.4" y="710.3" class="st1" width="39" height="73"/>
<g>
	<path class="st2" d="M-28.4,1246.5"/>
</g>
<g>
	<path class="st2" d="M6,1263"/>
</g>
<g>
	<path class="st2" d="M-34.4,777.5"/>
</g>
<rect x="10" y="1035" class="st0" width="492" height="492"/>
<polygon class="st1" points="456.6,1498.5 175.1,1498.5 175.1,1203.9 428.3,1203.9 456.6,1237.7 "/>
<path class="st1" d="M399,1370.5H232.7c-9.6,0-17.3,7.8-17.3,17.3v110.7h201v-110.7C416.3,1378.3,408.6,1370.5,399,1370.5z"/>
<rect x="223.7" y="1203.9" class="st1" width="184.2" height="110.7"/>
<rect x="337.4" y="1222.3" class="st1" width="39" height="73"/>
<g>
	<path class="st2" d="M-34.4,1279.5"/>
</g>
<rect x="10" y="1544" class="st3" width="492" height="492"/>
<polygon class="st4" points="456.6,2007.5 175.1,2007.5 175.1,1712.9 428.3,1712.9 456.6,1746.7 "/>
<path class="st4" d="M399,1879.5H232.7c-9.6,0-17.3,7.8-17.3,17.3v110.7h201v-110.7C416.3,1887.3,408.6,1879.5,399,1879.5z"/>
<rect x="223.7" y="1712.9" class="st4" width="184.2" height="110.7"/>
<rect x="337.4" y="1731.3" class="st4" width="39" height="73"/>
<g>
	<path class="st2" d="M-34.4,1788.5"/>
</g>
<g>
	<path class="st2" d="M-34.4,1510"/>
</g>
<g>
	<path class="st2" d="M-34.4,2046.5"/>
</g>
<g>
	<path class="st2" d="M-15.2,2067"/>
</g>
<path class="st5" d="M279.9,71.5c-8.3,0-15,6.7-15,15v7.9c-9.5-10.7-20.6-19.8-32.7-26.9C212.6,56,190.6,50,168.5,50
	c-0.1,0-0.2,0-0.4,0C122.8,50.1,82.6,74.8,58,117.7c-4.1,7.2-1.6,16.4,5.5,20.5c2.4,1.4,4.9,2,7.5,2c5.2,0,10.3-2.7,13-7.5
	c19.1-33.4,49.8-52.6,84.2-52.7c30.1-0.1,58.2,14.1,77.8,38.5h-13.2c-8.3,0-15,6.7-15,15s6.7,15,15,15h62v-62
	C294.9,78.2,288.1,71.5,279.9,71.5z"/>
<path class="st5" d="M287.3,211.8c-7.2-4.1-16.4-1.6-20.5,5.5c-19.1,33.4-49.8,52.6-84.2,52.7c-0.1,0-0.2,0-0.3,0
	c-30,0-58-14.1-77.5-38.5H118c8.3,0,15-6.7,15-15s-6.7-15-15-15H56v62c0,8.3,6.7,15,15,15s15-6.7,15-15v-7.9
	c9.5,10.7,20.6,19.8,32.7,26.9c19.5,11.4,41.5,17.4,63.6,17.4c0.1,0,0.2,0,0.4,0c45.4-0.1,85.5-24.8,110.2-67.7
	C297,225.1,294.5,215.9,287.3,211.8z"/>
<path class="st6" d="M279.9,584.5c-8.3,0-15,6.7-15,15v7.9c-9.5-10.7-20.6-19.8-32.7-26.9C212.6,569,190.6,563,168.5,563
	c-0.1,0-0.2,0-0.4,0c-45.4,0.1-85.5,24.8-110.2,67.7c-4.1,7.2-1.6,16.4,5.5,20.5c2.4,1.4,4.9,2,7.5,2c5.2,0,10.3-2.7,13-7.5
	c19.1-33.4,49.8-52.6,84.2-52.7c30.1-0.1,58.2,14.1,77.8,38.5h-13.2c-8.3,0-15,6.7-15,15s6.7,15,15,15h62v-62
	C294.9,591.2,288.1,584.5,279.9,584.5z"/>
<path class="st6" d="M287.3,724.8c-7.2-4.1-16.4-1.6-20.5,5.5c-19.1,33.4-49.8,52.6-84.2,52.7c-0.1,0-0.2,0-0.3,0
	c-30,0-58-14.1-77.5-38.5H118c8.3,0,15-6.7,15-15s-6.7-15-15-15H56v62c0,8.3,6.7,15,15,15s15-6.7,15-15v-7.9
	c9.5,10.7,20.6,19.8,32.7,26.9c19.5,11.4,41.5,17.4,63.6,17.4c0.1,0,0.2,0,0.4,0c45.4-0.1,85.5-24.8,110.2-67.7
	C297,738.1,294.5,728.9,287.3,724.8z"/>
<path class="st7" d="M279.9,1096.5c-8.3,0-15,6.7-15,15v7.9c-9.5-10.7-20.6-19.8-32.7-26.9c-19.5-11.4-41.5-17.4-63.6-17.4
	c-0.1,0-0.2,0-0.4,0c-45.4,0.1-85.5,24.8-110.2,67.7c-4.1,7.2-1.6,16.4,5.5,20.5c2.4,1.4,4.9,2,7.5,2c5.2,0,10.3-2.7,13-7.5
	c19.1-33.4,49.8-52.6,84.2-52.7c30.1-0.1,58.2,14.1,77.8,38.5h-13.2c-8.3,0-15,6.7-15,15s6.7,15,15,15h62v-62
	C294.9,1103.2,288.1,1096.5,279.9,1096.5z"/>
<path class="st7" d="M287.3,1236.8c-7.2-4.1-16.4-1.6-20.5,5.5c-19.1,33.4-49.8,52.6-84.2,52.7c-0.1,0-0.2,0-0.3,0
	c-30,0-58-14.1-77.5-38.5H118c8.3,0,15-6.7,15-15s-6.7-15-15-15H56v62c0,8.3,6.7,15,15,15s15-6.7,15-15v-7.9
	c9.5,10.7,20.6,19.8,32.7,26.9c19.5,11.4,41.5,17.4,63.6,17.4c0.1,0,0.2,0,0.4,0c45.4-0.1,85.5-24.8,110.2-67.7
	C297,1250.1,294.5,1240.9,287.3,1236.8z"/>
<path class="st8" d="M279.9,1605.5c-8.3,0-15,6.7-15,15v7.9c-9.5-10.7-20.6-19.8-32.7-26.9c-19.5-11.4-41.5-17.4-63.6-17.4
	c-0.1,0-0.2,0-0.4,0c-45.4,0.1-85.5,24.8-110.2,67.7c-4.1,7.2-1.6,16.4,5.5,20.5c2.4,1.4,4.9,2,7.5,2c5.2,0,10.3-2.7,13-7.5
	c19.1-33.4,49.8-52.6,84.2-52.7c30.1-0.1,58.2,14.1,77.8,38.5h-13.2c-8.3,0-15,6.7-15,15s6.7,15,15,15h62v-62
	C294.9,1612.2,288.1,1605.5,279.9,1605.5z"/>
<path class="st8" d="M287.3,1745.8c-7.2-4.1-16.4-1.6-20.5,5.5c-19.1,33.4-49.8,52.6-84.2,52.7c-0.1,0-0.2,0-0.3,0
	c-30,0-58-14.1-77.5-38.5H118c8.3,0,15-6.7,15-15s-6.7-15-15-15H56v62c0,8.3,6.7,15,15,15s15-6.7,15-15v-7.9
	c9.5,10.7,20.6,19.8,32.7,26.9c19.5,11.4,41.5,17.4,63.6,17.4c0.1,0,0.2,0,0.4,0c45.4-0.1,85.5-24.8,110.2-67.7
	C297,1759.1,294.5,1749.9,287.3,1745.8z"/>
</svg>
