<?xml version="1.0" encoding="utf-8"?>
<!-- Generator: Adobe Illustrator 27.0.1, SVG Export Plug-In . SVG Version: 6.00 Build 0)  -->
<svg version="1.1"
	 id="svg2" xmlns:rdf="http://www.w3.org/1999/02/22-rdf-syntax-ns#" xmlns:inkscape="http://www.inkscape.org/namespaces/inkscape" xmlns:cc="http://creativecommons.org/ns#" xmlns:dc="http://purl.org/dc/elements/1.1/" xmlns:svg="http://www.w3.org/2000/svg" xmlns:sodipodi="http://sodipodi.sourceforge.net/DTD/sodipodi-0.dtd"
	 xmlns="http://www.w3.org/2000/svg" xmlns:xlink="http://www.w3.org/1999/xlink" x="0px" y="0px" viewBox="0 0 48 192"
	 style="enable-background:new 0 0 48 192;" xml:space="preserve">
<style type="text/css">
	.st0{fill:#FFFFFF;stroke:#000000;stroke-width:2.1;stroke-linecap:round;}
	.st1{fill:#FFFFFF;stroke:#A0A09F;stroke-width:2.1;stroke-linecap:round;}
	.st2{fill:#FFFFFF;stroke:#54E23B;stroke-width:2.1;stroke-linecap:round;}
	.st3{fill:none;stroke:#000000;stroke-width:2;stroke-linecap:round;}
	.st4{fill:none;stroke:#000000;stroke-width:2.1;stroke-linecap:round;}
	.st5{stroke:#000000;stroke-width:2;stroke-linecap:round;}
	.st6{fill:none;}
	.st7{enable-background:new    ;}
	.st8{fill:#A2A19F;}
	.st9{fill:#FFFFFF;stroke:#FFA500;stroke-width:2.1;stroke-linecap:round;}
</style>
<sodipodi:namedview  bordercolor="#666666" borderopacity="1" gridtolerance="10" guidetolerance="10" id="namedview21" inkscape:current-layer="svg2" inkscape:cx="29" inkscape:cy="94" inkscape:pageopacity="0" inkscape:pageshadow="2" inkscape:window-height="852" inkscape:window-maximized="0" inkscape:window-width="1305" inkscape:window-x="0" inkscape:window-y="0" inkscape:zoom="2.7663934" objecttolerance="10" pagecolor="#ffffff" showgrid="false">
	</sodipodi:namedview>
<circle id="path821" class="st0" cx="24" cy="24" r="14.5"/>
<circle id="path821_00000182501691703819782910000011013152401863155335_" class="st1" cx="24" cy="168.1" r="14.5"/>
<circle id="path821_00000028316001474030986710000015796727228983277977_" class="st2" cx="24.3" cy="72" r="14.5"/>
<line class="st3" x1="20" y1="18.6" x2="20" y2="29.4"/>
<line class="st3" x1="28.1" y1="18.6" x2="28.1" y2="29.4"/>
<line class="st4" x1="19.9" y1="21.6" x2="23.1" y2="21.6"/>
<line class="st4" x1="19.9" y1="26.7" x2="23.1" y2="26.7"/>
<path class="st5" d="M18.9,27.7h-4.1c-0.3,0-0.6-0.3-0.6-0.6v-5.9c0-0.3,0.3-0.6,0.6-0.6h4.1V27.7z"/>
<path class="st5" d="M33.3,27.3h-4.1v-7.1h4.1c0.3,0,0.6,0.3,0.6,0.6v5.8C33.9,27,33.6,27.3,33.3,27.3z"/>
<line class="st3" x1="11.8" y1="24" x2="13.5" y2="24"/>
<line class="st3" x1="34.5" y1="23.8" x2="36.2" y2="23.8"/>
<line class="st3" x1="23" y1="66.6" x2="23" y2="77.4"/>
<line class="st3" x1="25" y1="66.6" x2="25" y2="77.4"/>
<path class="st5" d="M21.9,75.7h-4.1c-0.3,0-0.6-0.3-0.6-0.6v-5.9c0-0.3,0.3-0.6,0.6-0.6h4.1V75.7z"/>
<path class="st5" d="M30.3,75.3h-4.1v-7.1h4.1c0.3,0,0.6,0.3,0.6,0.6v5.8C30.9,75,30.6,75.3,30.3,75.3z"/>
<line class="st3" x1="14.8" y1="72" x2="16.5" y2="72"/>
<line class="st3" x1="31.5" y1="71.8" x2="33.2" y2="71.8"/>
<rect x="8.5" y="153.6" class="st6" width="31.1" height="29"/>
<g class="st7">
	<path class="st8" d="M25.8,173h-3.5c0-0.5,0-0.8,0-0.9c0-1.1,0.2-2.1,0.6-2.8s1.1-1.5,2.2-2.5s1.8-1.5,2-1.8
		c0.3-0.4,0.5-0.9,0.5-1.5c0-0.7-0.3-1.4-0.9-1.9s-1.4-0.8-2.4-0.8s-1.8,0.3-2.4,0.8s-1.1,1.4-1.4,2.5l-3.5-0.4
		c0.1-1.6,0.8-3,2.1-4.2c1.3-1.1,3-1.7,5.1-1.7c2.2,0,4,0.6,5.3,1.7c1.3,1.2,2,2.5,2,4c0,0.8-0.2,1.6-0.7,2.4s-1.5,1.8-3.1,3.1
		c-0.8,0.7-1.3,1.2-1.5,1.6C25.8,171.2,25.7,171.9,25.8,173z M22.3,178.2v-3.8h3.8v3.8H22.3z"/>
</g>
<circle id="path821_00000101092617915478267910000004612772102477724814_" class="st9" cx="24.3" cy="120.1" r="14.5"/>
<line class="st3" x1="21.2" y1="114.7" x2="21.2" y2="125.5"/>
<line class="st3" x1="26.3" y1="114.7" x2="26.3" y2="125.5"/>
<line class="st4" x1="21.1" y1="117.7" x2="24.3" y2="117.7"/>
<line class="st4" x1="21.1" y1="122.8" x2="24.3" y2="122.8"/>
<path class="st5" d="M20.1,123.8H16c-0.3,0-0.6-0.3-0.6-0.6v-5.9c0-0.3,0.3-0.6,0.6-0.6h4.1V123.8z"/>
<path class="st5" d="M31.5,123.4h-4.1v-7.1h4.1c0.3,0,0.6,0.3,0.6,0.6v5.8C32.1,123.1,31.8,123.4,31.5,123.4z"/>
<line class="st3" x1="13" y1="120.1" x2="14.7" y2="120.1"/>
<line class="st3" x1="32.7" y1="119.9" x2="34.4" y2="119.9"/>
</svg>
