<?xml version="1.0" encoding="utf-8"?>
<!-- Generator: Adobe Illustrator 27.2.0, SVG Export Plug-In . SVG Version: 6.00 Build 0)  -->
<svg version="1.1"
	 id="svg2" xmlns:rdf="http://www.w3.org/1999/02/22-rdf-syntax-ns#" xmlns:dc="http://purl.org/dc/elements/1.1/" xmlns:sodipodi="http://sodipodi.sourceforge.net/DTD/sodipodi-0.dtd" xmlns:svg="http://www.w3.org/2000/svg" xmlns:inkscape="http://www.inkscape.org/namespaces/inkscape" xmlns:cc="http://creativecommons.org/ns#"
	 xmlns="http://www.w3.org/2000/svg" xmlns:xlink="http://www.w3.org/1999/xlink" x="0px" y="0px" viewBox="0 0 48 192"
	 style="enable-background:new 0 0 48 192;" xml:space="preserve">
<style type="text/css">
	.st0{fill:#A0A09F;}
	.st1{fill:#3AB2E5;}
	.st2{fill:#FFA500;}
</style>
<sodipodi:namedview  bordercolor="#666666" borderopacity="1" gridtolerance="10" guidetolerance="10" id="namedview21" inkscape:current-layer="svg2" inkscape:cx="29" inkscape:cy="94" inkscape:pageopacity="0" inkscape:pageshadow="2" inkscape:window-height="852" inkscape:window-maximized="0" inkscape:window-width="1305" inkscape:window-x="0" inkscape:window-y="0" inkscape:zoom="2.7663934" objecttolerance="10" pagecolor="#ffffff" showgrid="false">
	</sodipodi:namedview>
<path d="M12,7.1l-4.4,4.4v0.1c0.8,1.2-0.8,0.8-0.8,0.8l-2.5,2.5c-0.4,0.4-0.4,1.1,0,1.5l4.8,4.8c0.4,0.4,1.1,0.4,1.5,0l2.5-2.5
	c0,0-0.8-1.7,0.6-0.6l0,0l0.5-0.5C24.7,27,29.7,33.4,38.7,43.4c0.7,0.7,1.9,0.7,2.6,0l2.2-2.2c0.7-0.7,0.7-1.9,0-2.6
	c-10.6-9.4-17.1-14.3-26-24.4l0.6-0.6c-3.6-6.2,0.6-7.6,7.4-7.4c0.1-0.1,0.1-0.1,0.1-0.1C21.5,3.7,17.2,2.8,12,7.1z"/>
<path d="M42.1,19.4c1.9-1.9,2.4-4.7,1.5-7L39,17c-2.8,0.2-4-1.1-3.9-3.9l4.6-4.6c-2.4-0.9-5.1-0.4-7,1.5c-2,2-2.4,4.9-1.4,7.3
	l-22.1,21c-1.3,1.3-1.4,3.4-0.1,4.7s3.4,1.3,4.7-0.1l20.7-22.1C37,21.9,40,21.5,42.1,19.4z"/>
<path class="st0" d="M12,151l-4.4,4.4v0.1c0.8,1.2-0.8,0.8-0.8,0.8l-2.5,2.5c-0.4,0.4-0.4,1.1,0,1.5l4.8,4.8c0.4,0.4,1.1,0.4,1.5,0
	l2.5-2.5c0,0-0.8-1.7,0.6-0.6l0,0l0.5-0.5c10.5,9.6,15.5,16,24.5,25.9c0.7,0.7,1.9,0.7,2.6,0l2.2-2.2c0.7-0.7,0.7-1.9,0-2.6
	c-10.6-9.4-17.1-14.3-26-24.4l0.6-0.6c-3.6-6.2,0.6-7.6,7.4-7.4c0.1-0.1,0.1-0.1,0.1-0.1C21.5,147.6,17.2,146.8,12,151z"/>
<path class="st0" d="M42.1,163.4c1.9-1.9,2.4-4.7,1.5-7L39,161c-2.8,0.2-4-1.1-3.9-3.9l4.6-4.6c-2.4-0.9-5.1-0.4-7,1.5
	c-2,2-2.4,4.9-1.4,7.3L9.2,182.2c-1.3,1.3-1.4,3.4-0.1,4.7s3.4,1.3,4.7-0.1l20.7-22.1C37,165.8,40,165.4,42.1,163.4z"/>
<path class="st1" d="M12,103.1l-4.4,4.4v0.1c0.8,1.2-0.8,0.8-0.8,0.8l-2.5,2.4c-0.4,0.4-0.4,1.1,0,1.5l4.8,4.8
	c0.4,0.4,1.1,0.4,1.5,0l2.5-2.5c0,0-0.8-1.7,0.6-0.6l0,0l0.5-0.5c10.5,9.6,15.5,16,24.5,25.9c0.7,0.7,1.9,0.7,2.6,0l2.2-2.2
	c0.7-0.7,0.7-1.9,0-2.6c-10.6-9.4-17.1-14.3-26-24.4l0.6-0.6c-3.6-6.2,0.6-7.6,7.4-7.4c0.1-0.1,0.1-0.1,0.1-0.1
	C21.5,99.6,17.2,98.8,12,103.1z"/>
<path class="st1" d="M42,115.4c1.9-1.9,2.4-4.7,1.5-7l-4.6,4.6c-2.8,0.2-4-1.1-3.9-3.9l4.6-4.6c-2.4-0.9-5.1-0.4-7,1.5
	c-2,2-2.4,4.9-1.4,7.3l-22,21c-1.3,1.3-1.4,3.4-0.1,4.7s3.4,1.3,4.7-0.1l20.8-22.2C37,117.9,40,117.4,42,115.4z"/>
<path class="st2" d="M12,55l-4.4,4.5v0.1c0.8,1.2-0.8,0.8-0.8,0.8l-2.5,2.5c-0.4,0.4-0.4,1.1,0,1.5l4.8,4.8c0.4,0.4,1.1,0.4,1.5,0
	l2.5-2.5c0,0-0.8-1.7,0.6-0.6l0,0l0.5-0.5c10.5,9.6,15.5,16,24.5,25.9c0.7,0.7,1.9,0.7,2.6,0l2.2-2.2c0.7-0.7,0.7-1.9,0-2.6
	c-10.6-9.4-17.1-14.3-26-24.4l0.6-0.6c-3.6-6.2,0.6-7.6,7.4-7.4c0.1-0.1,0.1-0.1,0.1-0.1C21.5,51.6,17.2,50.8,12,55z"/>
<path class="st2" d="M42.1,67.4c1.9-1.9,2.4-4.7,1.5-7L39,65c-2.8,0.2-4-1.1-3.9-3.9l4.6-4.6c-2.4-0.9-5.1-0.4-7,1.5
	c-2,2-2.4,4.9-1.4,7.3L9.2,86.2c-1.3,1.3-1.4,3.4-0.1,4.7c1.3,1.3,3.4,1.3,4.7-0.1l20.7-22.1C37,69.8,40,69.4,42.1,67.4z"/>
</svg>
