<?xml version="1.0" encoding="utf-8"?>
<!-- Generator: Adobe Illustrator 27.0.1, SVG Export Plug-In . SVG Version: 6.00 Build 0)  -->
<svg version="1.1" id="Calque_1" xmlns="http://www.w3.org/2000/svg" xmlns:xlink="http://www.w3.org/1999/xlink" x="0px" y="0px"
	 viewBox="0 0 512 2048" style="enable-background:new 0 0 512 2048;" xml:space="preserve">
<style type="text/css">
	.st0{fill:#FFFFFF;stroke:#000000;stroke-width:16;stroke-linecap:round;}
	.st1{stroke:#FFFFFF;stroke-width:16;}
	.st2{stroke:#FFFFFF;stroke-width:40;stroke-linecap:round;}
	.st3{fill:#FFFFFF;stroke:#40B5E7;stroke-width:16;stroke-linecap:round;}
	.st4{fill:#3BB2E6;stroke:#FFFFFF;stroke-width:16;stroke-linecap:round;}
	.st5{fill:#FFFFFF;stroke:#F7A51C;stroke-width:16;stroke-linecap:round;}
	.st6{fill:#F7A51C;stroke:#FFFFFF;stroke-width:16;}
	.st7{fill:#FFFFFF;stroke:#A2A19F;stroke-width:16;stroke-linecap:round;}
	.st8{fill:#A2A19F;stroke:#FFFFFF;stroke-width:16;}
	.st9{fill:#A2A19F;stroke:#FFFFFF;stroke-width:40;stroke-linecap:round;}
</style>
<g>
	<path class="st0" d="M291.3,42h-64.8c-4.3,0-7.2,2.9-7.2,7.2l-10.1,86.3c0,4.3,2.9,8.6,7.2,8.6h83.5c4.3,0,7.2-4.3,7.2-8.6
		L297,49.2C298.5,43.4,295.6,42,291.3,42z"/>
	<path class="st0" d="M381.9,426.2l46-46c2.9-2.9,2.9-7.2,0-10.1l-53.2-66.2c-2.9-2.9-7.2-4.3-11.5,0l-59,59
		c-2.9,2.9-2.9,8.6,0,11.5l67.6,53.2C374.7,429.1,379,429.1,381.9,426.2z"/>
	<path class="st0" d="M468.2,288.1v-64.8c0-4.3-2.9-7.2-7.2-7.2L374.7,206c-4.3,0-8.6,2.9-8.6,7.2v84.9c0,4.3,4.3,7.2,8.6,7.2
		l86.3-10.1C465.4,295.3,468.2,290.9,468.2,288.1z"/>
	<path class="st0" d="M435.2,125.5l-47.5-46c-2.9-2.9-5.8-2.9-8.6,0l-67.6,54.7c-2.9,2.9-2.9,7.2,0,10.1l60.4,60.4
		c2.9,2.9,7.2,2.9,10.1,0l54.7-67.6C436.6,132.6,436.6,128.3,435.2,125.5z"/>
	<path class="st0" d="M222.2,463.6h64.8c4.3,0,7.2-2.9,7.2-7.2l10.1-86.3c0-4.3-2.9-8.6-7.2-8.6h-83.5c-4.3,0-7.2,4.3-7.2,8.6
		l10.1,86.3C216.4,460.7,219.3,463.6,222.2,463.6z"/>
	<path class="st0" d="M133,79.4L86.9,124c-2.9,2.9-2.9,7.2,0,10.1l53.2,67.6c2.9,2.9,8.6,4.3,11.5,0l59-59c2.9-2.9,2.9-8.6,0-11.5
		L143,78C138.7,76.5,134.4,76.5,133,79.4z"/>
	<path class="st0" d="M46.6,217.6v64.8c0,4.3,2.9,7.2,7.2,7.2l86.3,10.1c4.3,0,8.6-2.9,8.6-7.2v-83.5c0-4.3-4.3-7.2-8.6-7.2
		l-86.3,10.1C49.5,210.4,46.6,213.2,46.6,217.6z"/>
	<path class="st0" d="M79.7,380.2l46.1,46c2.9,2.9,7.2,2.9,10.1,0l67.6-53.2c2.9-2.9,4.3-7.2,0-11.5l-59-59c-2.9-2.9-8.6-2.9-11.5,0
		l-53.2,67.6C76.8,373,78.3,377.3,79.7,380.2z"/>
</g>
<circle id="path821" class="st1" cx="257.4" cy="252.8" r="126.8"/>
<circle id="path821_00000072243107668516684540000004723983323681458838_" class="st2" cx="257.4" cy="252.8" r="57.7"/>
<g>
	<path class="st3" d="M291.5,554h-64.8c-4.3,0-7.2,2.9-7.2,7.2l-10.1,86.3c0,4.3,2.9,8.6,7.2,8.6h83.5c4.3,0,7.2-4.3,7.2-8.6
		l-10.1-86.3C298.7,555.4,295.9,554,291.5,554z"/>
	<path class="st3" d="M382.2,938.2l46-46c2.9-2.9,2.9-7.2,0-10.1L375,815.9c-2.9-2.9-7.2-4.3-11.5,0l-59,59c-2.9,2.9-2.9,8.6,0,11.5
		l67.6,53.2C375,941.1,379.3,941.1,382.2,938.2z"/>
	<path class="st3" d="M468.5,800.1v-64.8c0-4.3-2.9-7.2-7.2-7.2L375,718c-4.3,0-8.6,2.9-8.6,7.2v84.9c0,4.3,4.3,7.2,8.6,7.2
		l86.3-10.1C465.7,807.3,468.5,802.9,468.5,800.1z"/>
	<path class="st3" d="M435.4,637.5l-47.5-46c-2.9-2.9-5.8-2.9-8.6,0l-67.6,54.7c-2.9,2.9-2.9,7.2,0,10.1l60.4,60.4
		c2.9,2.9,7.2,2.9,10.1,0l54.7-67.6C436.9,644.7,436.9,640.3,435.4,637.5z"/>
	<path class="st3" d="M222.5,975.6h64.8c4.3,0,7.2-2.9,7.2-7.2l10.1-86.3c0-4.3-2.9-8.6-7.2-8.6h-83.5c-4.3,0-7.2,4.3-7.2,8.6
		l10.1,86.3C216.7,972.7,219.6,975.6,222.5,975.6z"/>
	<path class="st3" d="M133.2,591.4L87.2,636c-2.9,2.9-2.9,7.2,0,10.1l53.2,67.6c2.9,2.9,8.6,4.3,11.5,0l59-59
		c2.9-2.9,2.9-8.6,0-11.5L143.3,590C139,588.5,134.7,588.5,133.2,591.4z"/>
	<path class="st3" d="M46.9,729.5v64.8c0,4.3,2.9,7.2,7.2,7.2l86.3,10.1c4.3,0,8.6-2.9,8.6-7.2v-83.5c0-4.3-4.3-7.2-8.6-7.2
		l-86.3,10.1C49.8,722.4,46.9,725.2,46.9,729.5z"/>
	<path class="st3" d="M80,892.2l46.1,46c2.9,2.9,7.2,2.9,10.1,0l67.6-53.2c2.9-2.9,4.3-7.2,0-11.5l-59-59c-2.9-2.9-8.6-2.9-11.5,0
		L80,882.1C77.1,885,78.6,889.3,80,892.2z"/>
</g>
<circle id="path821_00000124845868009796705570000007562445528066456979_" class="st4" cx="257.7" cy="764.8" r="126.8"/>
<circle id="path821_00000041267001344460868240000017362232661988565130_" class="st2" cx="257.7" cy="764.8" r="57.7"/>
<g>
	<path class="st5" d="M290.8,1066.6h-64.8c-4.3,0-7.2,2.9-7.2,7.2l-10.1,86.3c0,4.3,2.9,8.6,7.2,8.6h83.5c4.3,0,7.2-4.3,7.2-8.6
		l-10.1-86.3C298,1068.1,295.1,1066.6,290.8,1066.6z"/>
	<path class="st5" d="M381.5,1450.8l46-46.1c2.9-2.9,2.9-7.2,0-10.1l-53.2-66.2c-2.9-2.9-7.2-4.3-11.5,0l-59,59
		c-2.9,2.9-2.9,8.6,0,11.5l67.6,53.2C374.3,1453.7,378.6,1453.7,381.5,1450.8z"/>
	<path class="st5" d="M467.8,1312.7v-64.8c0-4.3-2.9-7.2-7.2-7.2l-86.3-10.1c-4.3,0-8.6,2.9-8.6,7.2v84.9c0,4.3,4.3,7.2,8.6,7.2
		l86.3-10.1C464.9,1319.9,467.8,1315.6,467.8,1312.7z"/>
	<path class="st5" d="M434.7,1150.1l-47.5-46.1c-2.9-2.9-5.8-2.9-8.6,0l-67.6,54.7c-2.9,2.9-2.9,7.2,0,10.1l60.4,60.4
		c2.9,2.9,7.2,2.9,10.1,0l54.7-67.6C436.2,1157.3,436.2,1153,434.7,1150.1z"/>
	<path class="st5" d="M221.7,1488.2h64.8c4.3,0,7.2-2.9,7.2-7.2l10.1-86.3c0-4.3-2.9-8.6-7.2-8.6h-83.5c-4.3,0-7.2,4.3-7.2,8.6
		L216,1481C216,1485.4,218.9,1488.2,221.7,1488.2z"/>
	<path class="st5" d="M132.5,1104l-46.1,44.6c-2.9,2.9-2.9,7.2,0,10.1l53.2,67.6c2.9,2.9,8.6,4.3,11.5,0l59-59
		c2.9-2.9,2.9-8.6,0-11.5l-67.6-53.2C138.3,1101.2,134,1101.2,132.5,1104z"/>
	<path class="st5" d="M46.2,1242.2v64.8c0,4.3,2.9,7.2,7.2,7.2l86.3,10.1c4.3,0,8.6-2.9,8.6-7.2v-83.5c0-4.3-4.3-7.2-8.6-7.2
		l-86.3,10.1C49.1,1235,46.2,1237.9,46.2,1242.2z"/>
	<path class="st5" d="M79.3,1404.8l46.1,46.1c2.9,2.9,7.2,2.9,10.1,0l67.6-53.2c2.9-2.9,4.3-7.2,0-11.5l-59-59
		c-2.9-2.9-8.6-2.9-11.5,0l-53.2,67.6C76.4,1397.6,77.8,1401.9,79.3,1404.8z"/>
</g>
<circle id="path821_00000049904850890095856850000017426323031955154099_" class="st6" cx="257" cy="1277.4" r="126.8"/>
<circle id="path821_00000181069354134681023050000004755688421014381450_" class="st2" cx="257" cy="1277.4" r="57.7"/>
<g>
	<path class="st7" d="M292,1579.2h-64.8c-4.3,0-7.2,2.9-7.2,7.2l-10.1,86.3c0,4.3,2.9,8.6,7.2,8.6h83.5c4.3,0,7.2-4.3,7.2-8.6
		l-10.1-86.3C299.2,1580.7,296.3,1579.2,292,1579.2z"/>
	<path class="st7" d="M382.6,1963.4l46-46.1c2.9-2.9,2.9-7.2,0-10.1l-53.2-66.2c-2.9-2.9-7.2-4.3-11.5,0l-59,59
		c-2.9,2.9-2.9,8.6,0,11.5l67.6,53.2C375.4,1966.3,379.8,1966.3,382.6,1963.4z"/>
	<path class="st7" d="M469,1825.3v-64.8c0-4.3-2.9-7.2-7.2-7.2l-86.3-10.1c-4.3,0-8.6,2.9-8.6,7.2v84.9c0,4.3,4.3,7.2,8.6,7.2
		l86.3-10.1C466.1,1832.5,469,1828.2,469,1825.3z"/>
	<path class="st7" d="M435.9,1662.7l-47.5-46.1c-2.9-2.9-5.8-2.9-8.6,0l-67.6,54.7c-2.9,2.9-2.9,7.2,0,10.1l60.4,60.4
		c2.9,2.9,7.2,2.9,10.1,0l54.7-67.6C437.3,1669.9,437.3,1665.6,435.9,1662.7z"/>
	<path class="st7" d="M222.9,2000.9h64.8c4.3,0,7.2-2.9,7.2-7.2l10.1-86.3c0-4.3-2.9-8.6-7.2-8.6h-83.5c-4.3,0-7.2,4.3-7.2,8.6
		l10.1,86.3C217.1,1998,220,2000.9,222.9,2000.9z"/>
	<path class="st7" d="M133.7,1616.7l-46.1,44.6c-2.9,2.9-2.9,7.2,0,10.1l53.2,67.6c2.9,2.9,8.6,4.3,11.5,0l59-59
		c2.9-2.9,2.9-8.6,0-11.5l-67.6-53.2C139.4,1613.8,135.1,1613.8,133.7,1616.7z"/>
	<path class="st7" d="M47.3,1754.8v64.8c0,4.3,2.9,7.2,7.2,7.2l86.3,10.1c4.3,0,8.6-2.9,8.6-7.2v-83.5c0-4.3-4.3-7.2-8.6-7.2
		L54.5,1749C50.2,1747.6,47.3,1750.5,47.3,1754.8z"/>
	<path class="st7" d="M80.4,1917.4l46.1,46.1c2.9,2.9,7.2,2.9,10.1,0l67.6-53.2c2.9-2.9,4.3-7.2,0-11.5l-59-59
		c-2.9-2.9-8.6-2.9-11.5,0l-53.2,67.6C77.6,1910.2,79,1914.5,80.4,1917.4z"/>
</g>
<circle id="path821_00000146487816063624307660000002158495301065782187_" class="st8" cx="258.2" cy="1790.1" r="126.8"/>
<circle id="path821_00000007413284797699182800000016956486774492867482_" class="st9" cx="258.2" cy="1790.1" r="57.7"/>
</svg>
