<?xml version="1.0" encoding="utf-8"?>
<!-- Generator: Adobe Illustrator 27.0.1, SVG Export Plug-In . SVG Version: 6.00 Build 0)  -->
<svg version="1.1" id="Calque_1" xmlns="http://www.w3.org/2000/svg" xmlns:xlink="http://www.w3.org/1999/xlink" x="0px" y="0px"
	 viewBox="0 0 128 512" style="enable-background:new 0 0 128 512;" xml:space="preserve">
<style type="text/css">
	.st0{fill:none;stroke:#000000;stroke-width:13;stroke-linecap:round;stroke-linejoin:round;stroke-miterlimit:10;}
	.st1{fill:none;}
	.st2{fill:none;stroke:#000000;stroke-width:13;stroke-miterlimit:10;}
	.st3{fill:none;stroke:#F7931E;stroke-width:13;stroke-linecap:round;stroke-linejoin:round;stroke-miterlimit:10;}
	.st4{fill:none;stroke:#F7931E;stroke-width:13;stroke-miterlimit:10;}
	.st5{fill:#F7931E;}
	.st6{fill:none;stroke:#29ABE2;stroke-width:13;stroke-linecap:round;stroke-linejoin:round;stroke-miterlimit:10;}
	.st7{fill:none;stroke:#29ABE2;stroke-width:13;stroke-miterlimit:10;}
	.st8{fill:#29ABE2;}
	.st9{fill:none;stroke:#A2A19F;stroke-width:13;stroke-linecap:round;stroke-linejoin:round;stroke-miterlimit:10;}
	.st10{fill:#A2A19F;stroke:#A2A19F;stroke-miterlimit:10;}
	.st11{fill:#A2A19F;stroke:#A2A19F;stroke-width:13;stroke-miterlimit:10;}
</style>
<polyline class="st0" points="17.5,74.5 17.5,103.4 112.5,103.4 112.5,74.5 "/>
<g>
	<line class="st1" x1="66" y1="11.3" x2="66" y2="74.5"/>
	<g>
		<line class="st2" x1="66" y1="11.3" x2="66" y2="74.5"/>
		<g>
			<polygon points="53,70.7 66,93.2 79,70.7 			"/>
		</g>
	</g>
</g>
<polyline class="st3" points="17.5,202.3 17.5,231.3 112.5,231.3 112.5,202.3 "/>
<g>
	<line class="st1" x1="66" y1="139.1" x2="66" y2="202.3"/>
	<g>
		<line class="st4" x1="66" y1="139.1" x2="66" y2="202.3"/>
		<g>
			<polygon class="st5" points="53,198.5 66,221 79,198.5 			"/>
		</g>
	</g>
</g>
<polyline class="st6" points="17.5,330.3 17.5,359.3 112.5,359.3 112.5,330.3 "/>
<g>
	<line class="st1" x1="66" y1="267.1" x2="66" y2="330.3"/>
	<g>
		<line class="st7" x1="66" y1="267.1" x2="66" y2="330.3"/>
		<g>
			<polygon class="st8" points="53,326.5 66,349 79,326.5 			"/>
		</g>
	</g>
</g>
<polyline class="st9" points="17.5,458.3 17.5,487.3 112.5,487.3 112.5,458.3 "/>
<g>
	<line class="st10" x1="66" y1="395.1" x2="66" y2="458.3"/>
	<g>
		<line class="st11" x1="66" y1="395.1" x2="66" y2="458.3"/>
		<g>
			<polygon class="st10" points="53,454.5 66,477 79,454.5 			"/>
		</g>
	</g>
</g>
</svg>
