<?xml version="1.0" encoding="utf-8"?>
<!-- Generator: Adobe Illustrator 27.2.0, SVG Export Plug-In . SVG Version: 6.00 Build 0)  -->
<svg version="1.1" id="Calque_1" xmlns="http://www.w3.org/2000/svg" xmlns:xlink="http://www.w3.org/1999/xlink" x="0px" y="0px"
	 viewBox="0 0 64 256" style="enable-background:new 0 0 64 256;" xml:space="preserve">
<style type="text/css">
	.st0{fill:none;stroke:#000000;stroke-width:6.5;stroke-linecap:round;stroke-linejoin:round;stroke-miterlimit:10;}
	.st1{fill:none;}
	.st2{fill:none;stroke:#000000;stroke-width:6.5;stroke-miterlimit:10;}
	.st3{fill:none;stroke:#F7931E;stroke-width:6.5;stroke-linecap:round;stroke-linejoin:round;stroke-miterlimit:10;}
	.st4{fill:none;stroke:#F7931E;stroke-width:6.5;stroke-miterlimit:10;}
	.st5{fill:#F7931E;}
	.st6{fill:none;stroke:#29ABE2;stroke-width:6.5;stroke-linecap:round;stroke-linejoin:round;stroke-miterlimit:10;}
	.st7{fill:none;stroke:#29ABE2;stroke-width:6.5;stroke-miterlimit:10;}
	.st8{fill:#29ABE2;}
	.st9{fill:none;stroke:#A2A19F;stroke-width:6.5;stroke-linecap:round;stroke-linejoin:round;stroke-miterlimit:10;}
	.st10{fill:none;stroke:#A2A19F;stroke-width:0.5;stroke-miterlimit:10;}
	.st11{fill:none;stroke:#A2A19F;stroke-width:6.5;stroke-miterlimit:10;}
	.st12{fill:#A2A19F;stroke:#A2A19F;stroke-width:0.5;stroke-miterlimit:10;}
</style>
<polyline class="st0" points="8.2,40.6 8.2,55 55.8,55 55.8,40.6 "/>
<g>
	<line class="st1" x1="32.5" y1="9" x2="32.5" y2="40.6"/>
	<g>
		<line class="st2" x1="32.5" y1="9" x2="32.5" y2="40.6"/>
		<g>
			<polygon points="26,38.7 32.5,49.9 39,38.7 			"/>
		</g>
	</g>
</g>
<polyline class="st3" points="8.2,104.6 8.2,119.1 55.8,119.1 55.8,104.6 "/>
<g>
	<line class="st1" x1="32.5" y1="72.9" x2="32.5" y2="104.6"/>
	<g>
		<line class="st4" x1="32.5" y1="72.9" x2="32.5" y2="104.6"/>
		<g>
			<polygon class="st5" points="26,102.6 32.5,113.9 39,102.6 			"/>
		</g>
	</g>
</g>
<polyline class="st6" points="8.2,168.5 8.2,183 55.8,183 55.8,168.5 "/>
<g>
	<line class="st1" x1="32.5" y1="137" x2="32.5" y2="168.5"/>
	<g>
		<line class="st7" x1="32.5" y1="137" x2="32.5" y2="168.5"/>
		<g>
			<polygon class="st8" points="26,166.6 32.5,177.9 39,166.6 			"/>
		</g>
	</g>
</g>
<polyline class="st9" points="8.2,232.5 8.2,247 55.8,247 55.8,232.5 "/>
<g>
	<line class="st10" x1="32.5" y1="201" x2="32.5" y2="232.5"/>
	<g>
		<line class="st11" x1="32.5" y1="201" x2="32.5" y2="232.5"/>
		<g>
			<polygon class="st12" points="26,230.6 32.5,241.9 39,230.6 			"/>
		</g>
	</g>
</g>
</svg>
