<?xml version="1.0" encoding="utf-8"?>
<!-- Generator: Adobe Illustrator 27.0.1, SVG Export Plug-In . SVG Version: 6.00 Build 0)  -->
<svg version="1.1"
	 id="svg2" xmlns:rdf="http://www.w3.org/1999/02/22-rdf-syntax-ns#" xmlns:inkscape="http://www.inkscape.org/namespaces/inkscape" xmlns:cc="http://creativecommons.org/ns#" xmlns:dc="http://purl.org/dc/elements/1.1/" xmlns:svg="http://www.w3.org/2000/svg" xmlns:sodipodi="http://sodipodi.sourceforge.net/DTD/sodipodi-0.dtd"
	 xmlns="http://www.w3.org/2000/svg" xmlns:xlink="http://www.w3.org/1999/xlink" x="0px" y="0px" viewBox="0 0 48 192"
	 style="enable-background:new 0 0 48 192;" xml:space="preserve">
<style type="text/css">
	.st0{fill:#FFFFFF;stroke:#000000;stroke-width:2;stroke-linejoin:round;}
	.st1{fill:#FFFFFF;stroke:#FFA500;stroke-width:2;stroke-linejoin:round;stroke-opacity:0.9059;}
	.st2{fill:#FFA500;fill-opacity:0.6157;}
	.st3{fill:#FFFFFF;stroke:#4AB7E9;stroke-width:2;stroke-linejoin:round;stroke-opacity:0.9922;}
	.st4{fill:#4AB7E9;fill-opacity:0.9922;}
	.st5{fill:#FFFFFF;stroke:#A0A09F;stroke-width:2;stroke-linejoin:round;}
	.st6{fill:#A2A19F;}
</style>
<sodipodi:namedview  bordercolor="#666666" borderopacity="1" gridtolerance="10" guidetolerance="10" id="namedview21" inkscape:current-layer="svg2" inkscape:cx="29" inkscape:cy="94" inkscape:pageopacity="0" inkscape:pageshadow="2" inkscape:window-height="852" inkscape:window-maximized="0" inkscape:window-width="1305" inkscape:window-x="0" inkscape:window-y="0" inkscape:zoom="2.7663934" objecttolerance="10" pagecolor="#ffffff" showgrid="false">
	</sodipodi:namedview>
<g id="g831">
	<path id="path817" inkscape:connector-curvature="0" class="st0" d="M10.1,9.9L22,9.5l16.7,17.7L27.3,38.5L9.6,21.1L10.1,9.9z"/>
	<ellipse id="path819" cx="16.3" cy="15.6" rx="1.6" ry="1.6"/>
</g>
<g id="g834" transform="translate(0,48)">
	<path id="path19" inkscape:connector-curvature="0" class="st1" d="M10.1,9.9L22,9.5l16.7,17.7L27.3,38.5L9.6,21.1L10.1,9.9z"/>
	<ellipse id="ellipse21" class="st2" cx="16.3" cy="15.6" rx="1.6" ry="1.6"/>
</g>
<g id="g833" transform="translate(0,96)">
	<path id="path14" inkscape:connector-curvature="0" class="st3" d="M10.1,10L22,9.6l16.7,17.7L27.3,38.6L9.6,21.2L10.1,10z"/>
	<ellipse id="ellipse16" class="st4" cx="16.3" cy="15.7" rx="1.6" ry="1.6"/>
</g>
<path id="path9" inkscape:connector-curvature="0" class="st5" d="M10.1,154.1l11.9-0.5l16.7,17.7l-11.4,11.3L9.6,165.3L10.1,154.1z
	"/>
<ellipse id="ellipse11" class="st6" cx="16.3" cy="159.8" rx="1.6" ry="1.6"/>
</svg>
