<?xml version="1.0" encoding="utf-8"?>
<!-- Generator: Adobe Illustrator 27.0.1, SVG Export Plug-In . SVG Version: 6.00 Build 0)  -->
<svg version="1.1"
	 id="svg2" xmlns:rdf="http://www.w3.org/1999/02/22-rdf-syntax-ns#" xmlns:inkscape="http://www.inkscape.org/namespaces/inkscape" xmlns:cc="http://creativecommons.org/ns#" xmlns:dc="http://purl.org/dc/elements/1.1/" xmlns:svg="http://www.w3.org/2000/svg" xmlns:sodipodi="http://sodipodi.sourceforge.net/DTD/sodipodi-0.dtd"
	 xmlns="http://www.w3.org/2000/svg" xmlns:xlink="http://www.w3.org/1999/xlink" x="0px" y="0px" viewBox="0 0 48 192"
	 style="enable-background:new 0 0 48 192;" xml:space="preserve">
<style type="text/css">
	.st0{fill:#FFFFFF;stroke:#000000;stroke-width:2;stroke-linejoin:round;}
	.st1{fill:none;stroke:#000000;}
	.st2{fill:none;stroke:#000000;stroke-width:1.5;stroke-linecap:round;stroke-linejoin:round;}
	.st3{fill:#FFFFFF;stroke:#FFA500;stroke-width:2;stroke-linejoin:round;}
	.st4{fill:none;stroke:#FFA500;}
	.st5{fill:#FFFFFF;stroke:#39B1E5;stroke-width:2;stroke-linejoin:round;}
	.st6{fill:none;stroke:#39B1E5;}
	.st7{fill:#FFFFFF;stroke:#A2A19F;stroke-width:2;stroke-linejoin:round;}
	.st8{fill:none;stroke:#A2A19F;}
	.st9{fill:none;stroke:#A2A19F;stroke-width:1.5;stroke-linecap:round;stroke-linejoin:round;}
</style>
<sodipodi:namedview  bordercolor="#666666" borderopacity="1" gridtolerance="10" guidetolerance="10" id="namedview21" inkscape:current-layer="svg2" inkscape:cx="29" inkscape:cy="94" inkscape:pageopacity="0" inkscape:pageshadow="2" inkscape:window-height="852" inkscape:window-maximized="0" inkscape:window-width="1305" inkscape:window-x="0" inkscape:window-y="0" inkscape:zoom="2.7663934" objecttolerance="10" pagecolor="#ffffff" showgrid="false">
	</sodipodi:namedview>
<g id="g825">
	<path id="path817" class="st0" d="M25.6,9.7l-12-0.2l-0.4,28.9l21.1,0.1l0.4-19.8L25.6,9.7z"/>
	<path id="path821_00000019664042234130192970000012933779742455419797_" class="st1" d="M25.6,9.7l0.2,8.5l8.8,0.5"/>
</g>
<path id="path825" inkscape:connector-curvature="0" class="st2" d="M21.2,22.2l5.1,5.1l-4.7,4.8"/>
<g id="g831" transform="translate(0,48)">
	<path id="path827" class="st3" d="M25.6,9.7l-12-0.2l-0.4,28.9l21.1,0.1l0.4-19.9L25.6,9.7z"/>
	<path id="path829" class="st4" d="M25.6,9.7l0.2,8.5l8.8,0.5"/>
</g>
<path id="path830" inkscape:connector-curvature="0" class="st2" d="M21.2,70.2l5.1,5.1L21.6,80"/>
<g id="g837" transform="translate(0,96)">
	<path id="path833" class="st5" d="M25.6,9.7l-12-0.2l-0.4,28.9l21.1,0.1l0.4-19.8L25.6,9.7z"/>
	<path id="path835" class="st6" d="M25.6,9.7l0.2,8.5l8.8,0.5"/>
</g>
<path id="path834" inkscape:connector-curvature="0" class="st2" d="M21.2,118.2l5.1,5.1l-4.8,4.8"/>
<g id="g843" transform="translate(0,144)">
	<path id="path839" class="st7" d="M25.6,9.7l-12-0.2l-0.4,28.9l21.1,0.1l0.4-19.8L25.6,9.7z"/>
	<path id="path841" class="st8" d="M25.6,9.7l0.2,8.5l8.8,0.5"/>
</g>
<path id="path838" inkscape:connector-curvature="0" class="st9" d="M21.2,166.2l5.1,5.1l-4.8,4.8"/>
</svg>
