<?xml version="1.0" encoding="utf-8"?>
<!-- Generator: Adobe Illustrator 27.0.1, SVG Export Plug-In . SVG Version: 6.00 Build 0)  -->
<svg version="1.1"
	 id="svg2" xmlns:rdf="http://www.w3.org/1999/02/22-rdf-syntax-ns#" xmlns:inkscape="http://www.inkscape.org/namespaces/inkscape" xmlns:cc="http://creativecommons.org/ns#" xmlns:dc="http://purl.org/dc/elements/1.1/" xmlns:svg="http://www.w3.org/2000/svg" xmlns:sodipodi="http://sodipodi.sourceforge.net/DTD/sodipodi-0.dtd"
	 xmlns="http://www.w3.org/2000/svg" xmlns:xlink="http://www.w3.org/1999/xlink" x="0px" y="0px" viewBox="0 0 48 192"
	 style="enable-background:new 0 0 48 192;" xml:space="preserve">
<style type="text/css">
	.st0{fill:#FFFFFF;stroke:#A0A09F;stroke-width:2;stroke-linecap:round;stroke-linejoin:round;}
	.st1{fill:#FFFFFF;stroke:#A2A19F;stroke-width:2;stroke-linecap:round;stroke-linejoin:round;}
	.st2{fill:none;stroke:#A0A09F;stroke-width:1.5;}
	.st3{fill:#A0A09F;}
	.st4{fill:#FFFFFF;stroke:#39B1E5;stroke-width:2;stroke-linecap:round;stroke-linejoin:round;}
	.st5{fill:none;stroke:#39B1E5;stroke-width:1.5;}
	.st6{fill:#39B1E5;}
	.st7{fill:#FFFFFF;stroke:#FFA500;stroke-width:2;stroke-linecap:round;stroke-linejoin:round;}
	.st8{fill:none;stroke:#FFA500;stroke-width:1.5;}
	.st9{fill:#FFA500;}
	.st10{fill:#FFFFFF;stroke:#000000;stroke-width:2;stroke-linecap:round;stroke-linejoin:round;}
	.st11{fill:none;stroke:#000000;stroke-width:1.5;}
</style>
<sodipodi:namedview  bordercolor="#666666" borderopacity="1" gridtolerance="10" guidetolerance="10" id="namedview21" inkscape:current-layer="svg2" inkscape:cx="29" inkscape:cy="94" inkscape:pageopacity="0" inkscape:pageshadow="2" inkscape:window-height="852" inkscape:window-maximized="0" inkscape:window-width="1305" inkscape:window-x="0" inkscape:window-y="0" inkscape:zoom="2.7663934" objecttolerance="10" pagecolor="#ffffff" showgrid="false">
	</sodipodi:namedview>
<ellipse id="ellipse866" class="st0" cx="23.8" cy="168" rx="12" ry="6.7"/>
<ellipse id="ellipse876" class="st1" cx="23.8" cy="168.2" rx="2.2" ry="2.2"/>
<g>
	<g>
		<line class="st2" x1="23.8" y1="159" x2="23.8" y2="154.5"/>
		<g>
			<polygon class="st3" points="26.1,155.1 23.8,151.2 21.6,155.1 			"/>
		</g>
	</g>
</g>
<g>
	<g>
		<line class="st2" x1="23.8" y1="177" x2="23.8" y2="181.5"/>
		<g>
			<polygon class="st3" points="21.6,180.9 23.8,184.8 26.1,180.9 			"/>
		</g>
	</g>
</g>
<ellipse id="ellipse866_00000095328395164486098970000006814449515935913604_" class="st4" cx="23.8" cy="120" rx="12" ry="6.7"/>
<ellipse id="ellipse876_00000036965339746938597700000004267506217472604822_" class="st4" cx="23.8" cy="120.2" rx="2.2" ry="2.2"/>
<g>
	<g>
		<line class="st5" x1="23.8" y1="111" x2="23.8" y2="106.5"/>
		<g>
			<polygon class="st6" points="26.1,107.1 23.8,103.2 21.6,107.1 			"/>
		</g>
	</g>
</g>
<g>
	<g>
		<line class="st5" x1="23.8" y1="129" x2="23.8" y2="133.5"/>
		<g>
			<polygon class="st6" points="21.6,132.9 23.8,136.8 26.1,132.9 			"/>
		</g>
	</g>
</g>
<ellipse id="ellipse866_00000054247676128554849210000006931406880555563428_" class="st7" cx="23.8" cy="72.3" rx="12" ry="6.7"/>
<ellipse id="ellipse876_00000174563922835142184760000002153870963623159487_" class="st7" cx="23.8" cy="72.5" rx="2.2" ry="2.2"/>
<g>
	<g>
		<line class="st8" x1="23.8" y1="63.2" x2="23.8" y2="58.7"/>
		<g>
			<polygon class="st9" points="26.1,59.4 23.8,55.5 21.6,59.4 			"/>
		</g>
	</g>
</g>
<g>
	<g>
		<line class="st8" x1="23.8" y1="81.3" x2="23.8" y2="85.8"/>
		<g>
			<polygon class="st9" points="21.6,85.2 23.8,89 26.1,85.2 			"/>
		</g>
	</g>
</g>
<ellipse id="ellipse866_00000018923789088189575310000009391746101040894646_" class="st10" cx="23.8" cy="24" rx="12" ry="6.7"/>
<ellipse id="ellipse876_00000053544099579190969920000013018948732670672297_" class="st10" cx="23.8" cy="24.2" rx="2.2" ry="2.2"/>
<g>
	<g>
		<line class="st11" x1="23.8" y1="14.9" x2="23.8" y2="10.4"/>
		<g>
			<polygon points="26.1,11.1 23.8,7.2 21.6,11.1 			"/>
		</g>
	</g>
</g>
<g>
	<g>
		<line class="st11" x1="23.8" y1="33" x2="23.8" y2="37.5"/>
		<g>
			<polygon points="21.6,36.9 23.8,40.7 26.1,36.9 			"/>
		</g>
	</g>
</g>
</svg>
