<?xml version="1.0" encoding="utf-8"?>
<!-- Generator: Adobe Illustrator 27.1.0, SVG Export Plug-In . SVG Version: 6.00 Build 0)  -->
<svg version="1.1"
	 id="svg2" xmlns:dc="http://purl.org/dc/elements/1.1/" xmlns:cc="http://creativecommons.org/ns#" xmlns:inkscape="http://www.inkscape.org/namespaces/inkscape" xmlns:rdf="http://www.w3.org/1999/02/22-rdf-syntax-ns#" xmlns:svg="http://www.w3.org/2000/svg" xmlns:sodipodi="http://sodipodi.sourceforge.net/DTD/sodipodi-0.dtd"
	 xmlns="http://www.w3.org/2000/svg" xmlns:xlink="http://www.w3.org/1999/xlink" x="0px" y="0px" viewBox="0 0 48 192"
	 style="enable-background:new 0 0 48 192;" xml:space="preserve">
<style type="text/css">
	.st0{fill:#FFFFFF;stroke:#1D1D1B;stroke-width:1.5;stroke-linecap:round;}
	.st1{fill:#FFFFFF;stroke:#FFA500;stroke-width:1.5;stroke-linecap:round;}
	.st2{fill:#FFFFFF;stroke:#3AB2E5;stroke-width:1.5;stroke-linecap:round;}
	.st3{fill:#FFFFFF;stroke:#A0A09F;stroke-width:1.5;stroke-linecap:round;}
	.st4{fill:#FFFFFF;}
	.st5{opacity:0.9;fill:#FFFFFF;stroke:#A0A09F;stroke-width:1.5;stroke-linecap:round;enable-background:new    ;}
</style>
<sodipodi:namedview  bordercolor="#666666" borderopacity="1" gridtolerance="10" guidetolerance="10" id="namedview21" inkscape:current-layer="svg2" inkscape:cx="29" inkscape:cy="94" inkscape:pageopacity="0" inkscape:pageshadow="2" inkscape:window-height="852" inkscape:window-maximized="0" inkscape:window-width="1305" inkscape:window-x="0" inkscape:window-y="0" inkscape:zoom="2.7663934" objecttolerance="10" pagecolor="#ffffff" showgrid="false">
	</sodipodi:namedview>
<path class="st0" d="M35.7,14.7c0-3.2-5.5-5.9-12.4-5.9c-6.8,0-12.4,2.6-12.4,5.9c0,0.3,0,15.3,0,15.6c0,3.2,5.5,5.9,12.4,5.9
	c6.8,0,12.4-2.6,12.4-5.9c0-0.3,0-0.9,0-0.9S35.7,14.9,35.7,14.7z"/>
<ellipse class="st0" cx="23.4" cy="25.2" rx="12.4" ry="5.9"/>
<ellipse class="st0" cx="23.4" cy="19.7" rx="12.4" ry="5.9"/>
<ellipse class="st0" cx="23.4" cy="14.2" rx="12.4" ry="5.9"/>
<path class="st1" d="M35.7,62.7c0-3.2-5.5-5.9-12.4-5.9c-6.8,0-12.4,2.6-12.4,5.9c0,0.3,0,15.3,0,15.6c0,3.2,5.5,5.9,12.4,5.9
	c6.8,0,12.4-2.6,12.4-5.9c0-0.3,0-0.9,0-0.9S35.7,62.8,35.7,62.7z"/>
<ellipse class="st1" cx="23.4" cy="73.2" rx="12.4" ry="5.9"/>
<ellipse class="st1" cx="23.4" cy="67.7" rx="12.4" ry="5.9"/>
<ellipse class="st1" cx="23.4" cy="62.1" rx="12.4" ry="5.9"/>
<path class="st2" d="M35.7,110.6c0-3.2-5.5-5.9-12.4-5.9c-6.8,0-12.4,2.6-12.4,5.9c0,0.3,0,15.3,0,15.6c0,3.2,5.5,5.9,12.4,5.9
	c6.8,0,12.4-2.6,12.4-5.9c0-0.3,0-0.9,0-0.9S35.7,110.8,35.7,110.6z"/>
<ellipse class="st2" cx="23.4" cy="121.1" rx="12.4" ry="5.9"/>
<ellipse class="st2" cx="23.4" cy="115.6" rx="12.4" ry="5.9"/>
<ellipse class="st2" cx="23.4" cy="110.1" rx="12.4" ry="5.9"/>
<path class="st3" d="M35.7,158.6c0-3.2-5.5-5.9-12.4-5.9c-6.8,0-12.4,2.6-12.4,5.9c0,0.3,0,15.3,0,15.6c0,3.2,5.5,5.9,12.4,5.9
	c6.8,0,12.4-2.6,12.4-5.9c0-0.3,0-0.9,0-0.9S35.7,158.8,35.7,158.6z"/>
<ellipse class="st3" cx="23.4" cy="169.1" rx="12.4" ry="5.9"/>
<ellipse class="st3" cx="23.4" cy="163.6" rx="12.4" ry="5.9"/>
<ellipse class="st3" cx="23.4" cy="158.1" rx="12.4" ry="5.9"/>
<path class="st4" d="M18.1,32.3l7.2,5.3c0.8,0.5,1.7,0.5,2.5,0.1c0.8-0.5,1.1-1.2,1.1-2v-1.2c3.6-0.2,6,1,7.7,4
	c0.2,0.3,0.4,0.6,0.6,0.7l0.1,0.1c0.4,0.4,0.9,0.5,1.5,0.5s1.1-0.2,1.6-0.6c0.3-0.3,0.5-0.8,0.6-1.1l0.1-0.2v-0.4
	c0.3-2.3-0.4-4.7-2-6.6c-2.3-2.8-5.9-4.4-8.2-4.5h-2L29,25c0-0.9-0.5-1.7-1.3-2c-0.8-0.4-1.8-0.3-2.4,0.2l-7.2,5.4H18
	c-0.6,0.6-0.9,1.2-0.7,1.8C17.2,31.2,17.6,31.9,18.1,32.3z"/>
<path class="st4" d="M30.8,74.3h-2l0.1-1.3c0-0.9-0.5-1.7-1.3-2c-0.8-0.4-1.8-0.3-2.4,0.2L18,76.6h-0.1c-0.6,0.6-0.9,1.2-0.7,1.8
	c0,0.7,0.4,1.4,0.9,1.8l7.2,5.3c0.8,0.5,1.7,0.5,2.5,0.1c0.8-0.5,1.1-1.2,1.1-2v-1.2c3.6-0.2,6,1,7.7,4c0.2,0.3,0.4,0.6,0.6,0.7
	l0.1,0.1c0.4,0.4,0.9,0.5,1.5,0.5s1.1-0.2,1.6-0.6c0.3-0.3,0.5-0.8,0.6-1.1l0.1-0.2v-0.4c0.3-2.3-0.4-4.7-2-6.6
	C36.7,76,33.1,74.4,30.8,74.3z"/>
<path class="st4" d="M30.8,122.3h-2l0.1-1.3c0-0.9-0.5-1.7-1.3-2c-0.8-0.4-1.8-0.3-2.4,0.2l-7.2,5.4h-0.1c-0.6,0.6-0.9,1.2-0.7,1.8
	c0,0.7,0.4,1.4,0.9,1.8l7.2,5.3c0.8,0.5,1.7,0.5,2.5,0.1c0.8-0.5,1.1-1.2,1.1-2v-1.2c3.6-0.2,6,1,7.7,4c0.2,0.3,0.4,0.6,0.6,0.7
	l0.1,0.1c0.4,0.4,0.9,0.5,1.5,0.5s1.1-0.2,1.6-0.6c0.3-0.3,0.5-0.8,0.6-1.1l0.1-0.2v-0.4c0.3-2.3-0.4-4.7-2-6.6
	C36.7,124,33.1,122.4,30.8,122.3z"/>
<path class="st4" d="M39,174.8c-2.3-2.8-5.9-4.4-8.2-4.5h-2l0.1-1.3c0-0.9-0.5-1.7-1.3-2c-0.8-0.4-1.8-0.3-2.4,0.2l-7.2,5.4h-0.1
	c-0.6,0.6-0.9,1.2-0.7,1.8c0,0.7,0.4,1.4,0.9,1.8l7.2,5.3c0.8,0.5,1.7,0.5,2.5,0.1c0.8-0.5,1.1-1.2,1.1-2v-1.2c3.6-0.2,6,1,7.7,4
	c0.2,0.3,0.4,0.6,0.6,0.7l0.1,0.1c0.4,0.4,0.9,0.5,1.5,0.5s1.1-0.2,1.6-0.6c0.3-0.3,0.5-0.8,0.6-1.1l0.1-0.2v-0.4
	C41.3,179.1,40.6,176.7,39,174.8z"/>
<path class="st0" d="M27.4,25.1c0-0.6-0.8-1-1.3-0.6l-7.2,5.4c-0.4,0.3-0.4,1,0,1.3l7.2,5.3c0.5,0.3,1.3,0,1.3-0.7v-2.6
	c5.6-0.8,8.7,1.3,10.5,4.6c0.1,0.2,0.2,0.3,0.3,0.4c0.4,0.3,0.7,0.3,1,0c0.2-0.2,0.2-0.5,0.3-0.8c0.9-5.4-5.6-9.3-8.7-9.4
	c-2-0.1-3.5,0-3.5,0L27.4,25.1z"/>
<path class="st0" d="M27.4,73c0-0.6-0.8-1-1.3-0.6l-7.2,5.4c-0.4,0.3-0.4,1,0,1.3l7.2,5.3c0.5,0.3,1.3,0,1.3-0.7v-2.6
	c5.6-0.8,8.7,1.3,10.5,4.6c0.1,0.2,0.2,0.3,0.3,0.4c0.4,0.3,0.7,0.3,1,0c0.2-0.2,0.2-0.5,0.3-0.8c0.9-5.4-5.6-9.3-8.7-9.4
	c-2-0.1-3.5,0-3.5,0L27.4,73z"/>
<path class="st0" d="M27.4,121c0-0.6-0.8-1-1.3-0.6l-7.2,5.4c-0.4,0.3-0.4,1,0,1.3l7.2,5.3c0.5,0.3,1.3,0,1.3-0.7v-2.6
	c5.6-0.8,8.7,1.3,10.5,4.6c0.1,0.2,0.2,0.3,0.3,0.4c0.4,0.3,0.7,0.3,1,0c0.2-0.2,0.2-0.5,0.3-0.8c0.9-5.4-5.6-9.3-8.7-9.4
	c-2-0.1-3.5,0-3.5,0L27.4,121z"/>
<path class="st5" d="M27.4,169c0-0.6-0.8-1-1.3-0.6l-7.2,5.4c-0.4,0.3-0.4,1,0,1.3l7.2,5.3c0.5,0.3,1.3,0,1.3-0.7v-2.6
	c5.6-0.8,8.7,1.3,10.5,4.6c0.1,0.2,0.2,0.3,0.3,0.4c0.4,0.3,0.7,0.3,1,0c0.2-0.2,0.2-0.5,0.3-0.8c0.9-5.4-5.6-9.3-8.7-9.4
	c-2-0.1-3.5,0-3.5,0L27.4,169z"/>
</svg>
