<?xml version="1.0" encoding="utf-8"?>
<!-- Generator: Adobe Illustrator 27.1.0, SVG Export Plug-In . SVG Version: 6.00 Build 0)  -->
<svg version="1.1"
	 id="svg2" xmlns:dc="http://purl.org/dc/elements/1.1/" xmlns:cc="http://creativecommons.org/ns#" xmlns:inkscape="http://www.inkscape.org/namespaces/inkscape" xmlns:rdf="http://www.w3.org/1999/02/22-rdf-syntax-ns#" xmlns:svg="http://www.w3.org/2000/svg" xmlns:sodipodi="http://sodipodi.sourceforge.net/DTD/sodipodi-0.dtd"
	 xmlns="http://www.w3.org/2000/svg" xmlns:xlink="http://www.w3.org/1999/xlink" x="0px" y="0px" viewBox="0 0 48 192"
	 style="enable-background:new 0 0 48 192;" xml:space="preserve">
<style type="text/css">
	.st0{fill:#FFFFFF;stroke:#1D1D1B;stroke-width:1.5;stroke-linecap:round;}
	.st1{fill:#FFFFFF;stroke:#FFA500;stroke-width:1.5;stroke-linecap:round;}
	.st2{fill:#FFFFFF;stroke:#3AB2E5;stroke-width:1.5;stroke-linecap:round;}
	.st3{fill:#FFFFFF;stroke:#A0A09F;stroke-width:1.5;stroke-linecap:round;}
	.st4{fill:#FFFFFF;}
</style>
<sodipodi:namedview  bordercolor="#666666" borderopacity="1" gridtolerance="10" guidetolerance="10" id="namedview21" inkscape:current-layer="svg2" inkscape:cx="29" inkscape:cy="94" inkscape:pageopacity="0" inkscape:pageshadow="2" inkscape:window-height="852" inkscape:window-maximized="0" inkscape:window-width="1305" inkscape:window-x="0" inkscape:window-y="0" inkscape:zoom="2.7663934" objecttolerance="10" pagecolor="#ffffff" showgrid="false">
	</sodipodi:namedview>
<path class="st0" d="M35.6,14.7c0-3.2-5.5-5.9-12.4-5.9c-6.8,0-12.4,2.6-12.4,5.9c0,0.3,0,15.3,0,15.6c0,3.2,5.5,5.9,12.4,5.9
	c6.8,0,12.4-2.6,12.4-5.9c0-0.3,0-0.9,0-0.9S35.6,14.9,35.6,14.7z"/>
<ellipse class="st0" cx="23.3" cy="25.2" rx="12.4" ry="5.9"/>
<ellipse class="st0" cx="23.3" cy="19.7" rx="12.4" ry="5.9"/>
<ellipse class="st0" cx="23.3" cy="14.2" rx="12.4" ry="5.9"/>
<path class="st1" d="M35.6,62.7c0-3.2-5.5-5.9-12.4-5.9c-6.8,0-12.4,2.6-12.4,5.9c0,0.3,0,15.3,0,15.6c0,3.2,5.5,5.9,12.4,5.9
	c6.8,0,12.4-2.6,12.4-5.9c0-0.3,0-0.9,0-0.9S35.6,62.8,35.6,62.7z"/>
<ellipse class="st1" cx="23.3" cy="73.2" rx="12.4" ry="5.9"/>
<ellipse class="st1" cx="23.3" cy="67.7" rx="12.4" ry="5.9"/>
<ellipse class="st1" cx="23.3" cy="62.1" rx="12.4" ry="5.9"/>
<path class="st2" d="M35.6,110.6c0-3.2-5.5-5.9-12.4-5.9c-6.8,0-12.4,2.6-12.4,5.9c0,0.3,0,15.3,0,15.6c0,3.2,5.5,5.9,12.4,5.9
	c6.8,0,12.4-2.6,12.4-5.9c0-0.3,0-0.9,0-0.9S35.6,110.8,35.6,110.6z"/>
<ellipse class="st2" cx="23.3" cy="121.1" rx="12.4" ry="5.9"/>
<ellipse class="st2" cx="23.3" cy="115.6" rx="12.4" ry="5.9"/>
<ellipse class="st2" cx="23.3" cy="110.1" rx="12.4" ry="5.9"/>
<path class="st3" d="M35.6,158.6c0-3.2-5.5-5.9-12.4-5.9c-6.8,0-12.4,2.6-12.4,5.9c0,0.3,0,15.3,0,15.6c0,3.2,5.5,5.9,12.4,5.9
	c6.8,0,12.4-2.6,12.4-5.9c0-0.3,0-0.9,0-0.9S35.6,158.8,35.6,158.6z"/>
<ellipse class="st3" cx="23.3" cy="169.1" rx="12.4" ry="5.9"/>
<ellipse class="st3" cx="23.3" cy="163.6" rx="12.4" ry="5.9"/>
<ellipse class="st3" cx="23.3" cy="158.1" rx="12.4" ry="5.9"/>
<path class="st4" d="M39.8,16.4l-1.5-1.4c-0.6-0.6-1.4-0.8-2.2-0.7c-0.8,0.1-1.6,0.7-2,1.5c-1.5,2.6-3.1,8.4-4.1,12.1
	c-1.4-1.4-2.6-2.3-3.7-2.7c-0.6-0.2-2.3-0.8-3.4,0.8l-0.8,1.2c-0.8,1.1-0.6,2.5,0.4,3.5l0.3,0.2c2.7,1.5,5.5,5.1,7.9,8.2l2.2,2.9
	l0.9-3.5c1.9-7.5,4.1-13.8,6.7-19.3C40.8,18.3,40.6,17.2,39.8,16.4z"/>
<path class="st0" d="M37.1,16l1.5,1.4c0.3,0.2,0.4,0.6,0.2,1c-2.8,5.9-5,12.4-6.7,19.4c-2.8-3.7-5.6-7.1-8.4-8.7
	c-0.3-0.3-0.3-0.8-0.1-1.2l0.8-1.2c0.3-0.5,0.8-0.3,1.4-0.1c2.2,0.7,5.1,4.8,5.1,4.8s2.6-11.3,4.7-15C36,15.8,36.6,15.5,37.1,16z"/>
<path class="st4" d="M39.8,64.4l-1.5-1.4c-0.6-0.6-1.4-0.8-2.2-0.7c-0.8,0.1-1.6,0.7-2,1.5c-1.5,2.6-3.1,8.4-4.1,12.1
	c-1.4-1.4-2.6-2.3-3.7-2.7c-0.6-0.2-2.3-0.8-3.4,0.8l-0.8,1.2c-0.8,1.1-0.6,2.5,0.4,3.5l0.3,0.2c2.7,1.5,5.5,5.1,7.9,8.2l2.2,2.9
	l0.9-3.5c1.9-7.5,4.1-13.8,6.7-19.3C40.8,66.3,40.6,65.2,39.8,64.4z"/>
<path class="st0" d="M37.1,64l1.5,1.4c0.3,0.2,0.4,0.6,0.2,1c-2.8,5.9-5,12.4-6.7,19.4c-2.8-3.7-5.6-7.1-8.4-8.7
	c-0.3-0.3-0.3-0.8-0.1-1.2l0.8-1.2c0.3-0.5,0.8-0.3,1.4-0.1c2.2,0.7,5.1,4.8,5.1,4.8s2.6-11.3,4.7-15C36,63.8,36.6,63.5,37.1,64z"/>
<path class="st4" d="M39.7,112.4l-1.5-1.4c-0.6-0.6-1.4-0.8-2.2-0.7c-0.8,0.1-1.6,0.7-2,1.5c-1.5,2.6-3.1,8.4-4.1,12.1
	c-1.4-1.4-2.6-2.3-3.7-2.7c-0.6-0.2-2.3-0.8-3.4,0.8l-0.8,1.2c-0.8,1.1-0.6,2.5,0.4,3.5l0.3,0.2c2.7,1.5,5.5,5.1,7.9,8.2l2.2,2.9
	l0.9-3.5c1.9-7.5,4.1-13.8,6.7-19.3C40.7,114.3,40.5,113.2,39.7,112.4z"/>
<path class="st0" d="M37,112l1.5,1.4c0.3,0.2,0.4,0.6,0.2,1c-2.8,5.9-5,12.4-6.7,19.4c-2.8-3.7-5.6-7.1-8.4-8.7
	c-0.3-0.3-0.3-0.8-0.1-1.2l0.8-1.2c0.3-0.5,0.8-0.3,1.4-0.1c2.2,0.7,5.1,4.8,5.1,4.8s2.6-11.3,4.7-15C35.9,111.8,36.5,111.5,37,112z
	"/>
<path class="st4" d="M39.7,160.4l-1.5-1.4c-0.6-0.6-1.4-0.8-2.2-0.7c-0.8,0.1-1.6,0.7-2,1.5c-1.5,2.6-3.1,8.4-4.1,12.1
	c-1.4-1.4-2.6-2.3-3.7-2.7c-0.6-0.2-2.3-0.8-3.4,0.8l-0.8,1.2c-0.8,1.1-0.6,2.5,0.4,3.5l0.3,0.2c2.7,1.5,5.5,5.1,7.9,8.2l2.2,2.9
	l0.9-3.5c1.9-7.5,4.1-13.8,6.7-19.3C40.7,162.3,40.5,161.2,39.7,160.4z"/>
<path class="st3" d="M37,160l1.5,1.4c0.3,0.2,0.4,0.6,0.2,1c-2.8,5.9-5,12.4-6.7,19.4c-2.8-3.7-5.6-7.1-8.4-8.7
	c-0.3-0.3-0.3-0.8-0.1-1.2l0.8-1.2c0.3-0.5,0.8-0.3,1.4-0.1c2.2,0.7,5.1,4.8,5.1,4.8s2.6-11.3,4.7-15C35.9,159.8,36.5,159.5,37,160z
	"/>
</svg>
