<?xml version="1.0" encoding="utf-8"?>
<!-- Generator: Adobe Illustrator 27.1.0, SVG Export Plug-In . SVG Version: 6.00 Build 0)  -->
<svg version="1.1"
	 id="svg2" xmlns:dc="http://purl.org/dc/elements/1.1/" xmlns:cc="http://creativecommons.org/ns#" xmlns:inkscape="http://www.inkscape.org/namespaces/inkscape" xmlns:rdf="http://www.w3.org/1999/02/22-rdf-syntax-ns#" xmlns:svg="http://www.w3.org/2000/svg" xmlns:sodipodi="http://sodipodi.sourceforge.net/DTD/sodipodi-0.dtd"
	 xmlns="http://www.w3.org/2000/svg" xmlns:xlink="http://www.w3.org/1999/xlink" x="0px" y="0px" viewBox="0 0 48 192"
	 style="enable-background:new 0 0 48 192;" xml:space="preserve">
<style type="text/css">
	.st0{fill:#FFFFFF;stroke:#1D1D1B;stroke-width:1.5;stroke-linecap:round;}
	.st1{fill:#FFFFFF;stroke:#FFA500;stroke-width:1.5;stroke-linecap:round;}
	.st2{fill:#FFFFFF;stroke:#3AB2E5;stroke-width:1.5;stroke-linecap:round;}
	.st3{fill:#FFFFFF;stroke:#A0A09F;stroke-width:1.5;stroke-linecap:round;}
	.st4{fill:#FFFFFF;}
	.st5{opacity:0.9;fill:#FFFFFF;stroke:#A0A09F;stroke-width:1.5;stroke-linecap:round;enable-background:new    ;}
</style>
<sodipodi:namedview  bordercolor="#666666" borderopacity="1" gridtolerance="10" guidetolerance="10" id="namedview21" inkscape:current-layer="svg2" inkscape:cx="29" inkscape:cy="94" inkscape:pageopacity="0" inkscape:pageshadow="2" inkscape:window-height="852" inkscape:window-maximized="0" inkscape:window-width="1305" inkscape:window-x="0" inkscape:window-y="0" inkscape:zoom="2.7663934" objecttolerance="10" pagecolor="#ffffff" showgrid="false">
	</sodipodi:namedview>
<path class="st0" d="M35.6,14.7c0-3.2-5.5-5.9-12.4-5.9c-6.8,0-12.4,2.6-12.4,5.9c0,0.3,0,15.3,0,15.6c0,3.2,5.5,5.9,12.4,5.9
	c6.8,0,12.4-2.6,12.4-5.9c0-0.3,0-0.9,0-0.9S35.6,14.9,35.6,14.7z"/>
<ellipse class="st0" cx="23.3" cy="25.2" rx="12.4" ry="5.9"/>
<ellipse class="st0" cx="23.3" cy="19.7" rx="12.4" ry="5.9"/>
<ellipse class="st0" cx="23.3" cy="14.2" rx="12.4" ry="5.9"/>
<path class="st1" d="M35.6,62.7c0-3.2-5.5-5.9-12.4-5.9c-6.8,0-12.4,2.6-12.4,5.9c0,0.3,0,15.3,0,15.6c0,3.2,5.5,5.9,12.4,5.9
	c6.8,0,12.4-2.6,12.4-5.9c0-0.3,0-0.9,0-0.9S35.6,62.8,35.6,62.7z"/>
<ellipse class="st1" cx="23.3" cy="73.2" rx="12.4" ry="5.9"/>
<ellipse class="st1" cx="23.3" cy="67.7" rx="12.4" ry="5.9"/>
<ellipse class="st1" cx="23.3" cy="62.1" rx="12.4" ry="5.9"/>
<path class="st2" d="M35.6,110.6c0-3.2-5.5-5.9-12.4-5.9c-6.8,0-12.4,2.6-12.4,5.9c0,0.3,0,15.3,0,15.6c0,3.2,5.5,5.9,12.4,5.9
	c6.8,0,12.4-2.6,12.4-5.9c0-0.3,0-0.9,0-0.9S35.6,110.8,35.6,110.6z"/>
<ellipse class="st2" cx="23.3" cy="121.1" rx="12.4" ry="5.9"/>
<ellipse class="st2" cx="23.3" cy="115.6" rx="12.4" ry="5.9"/>
<ellipse class="st2" cx="23.3" cy="110.1" rx="12.4" ry="5.9"/>
<path class="st3" d="M35.6,158.6c0-3.2-5.5-5.9-12.4-5.9c-6.8,0-12.4,2.6-12.4,5.9c0,0.3,0,15.3,0,15.6c0,3.2,5.5,5.9,12.4,5.9
	c6.8,0,12.4-2.6,12.4-5.9c0-0.3,0-0.9,0-0.9S35.6,158.8,35.6,158.6z"/>
<ellipse class="st3" cx="23.3" cy="169.1" rx="12.4" ry="5.9"/>
<ellipse class="st3" cx="23.3" cy="163.6" rx="12.4" ry="5.9"/>
<ellipse class="st3" cx="23.3" cy="158.1" rx="12.4" ry="5.9"/>
<path class="st4" d="M17.1,37.8l0.1,0.3c0.1,0.3,0.2,0.7,0.6,1.1c0.4,0.4,1,0.6,1.6,0.6s1.1-0.2,1.5-0.5l0.1-0.1
	c0.1-0.1,0.3-0.3,0.6-0.7c1.7-2.9,4.1-4.2,7.7-4v1.2c0,0.9,0.4,1.5,1.2,2c0.8,0.4,1.7,0.4,2.5-0.1l7.2-5.3c0.5-0.4,0.9-1.1,0.9-1.7
	c0.1-0.6-0.1-1.2-0.7-1.9l-7.2-5.4c-0.7-0.5-1.7-0.6-2.4-0.3c-0.8,0.4-1.3,1.2-1.3,2.1l0.1,1.3h-2c-2.3,0.1-5.9,1.7-8.2,4.5
	c-1.6,1.9-2.3,4.3-2,6.5v0.4H17.1z"/>
<path class="st4" d="M32.9,71.2c-0.7-0.5-1.7-0.6-2.4-0.3c-0.8,0.4-1.3,1.2-1.3,2.1l0.1,1.3h-2c-2.3,0.1-5.9,1.7-8.2,4.5
	c-1.6,1.9-2.3,4.3-2,6.5v0.4l0.1,0.3c0.1,0.3,0.2,0.7,0.6,1.1s1,0.6,1.6,0.6s1.1-0.2,1.5-0.5l0.1-0.1c0.1-0.1,0.3-0.3,0.6-0.7
	c1.7-2.9,4.1-4.2,7.7-4v1.2c0,0.9,0.4,1.5,1.2,2c0.8,0.4,1.7,0.4,2.5-0.1l7.2-5.3c0.5-0.4,0.9-1.1,0.9-1.7c0.1-0.6-0.1-1.2-0.7-1.9
	L32.9,71.2z"/>
<path class="st4" d="M32.9,119.2c-0.7-0.5-1.7-0.6-2.4-0.3c-0.8,0.4-1.3,1.2-1.3,2.1l0.1,1.3h-2c-2.3,0.1-5.9,1.7-8.2,4.5
	c-1.6,1.9-2.3,4.3-2,6.5v0.4l0.1,0.3c0.1,0.3,0.2,0.7,0.6,1.1c0.4,0.4,1,0.6,1.6,0.6s1.1-0.2,1.5-0.5l0.1-0.1
	c0.1-0.1,0.3-0.3,0.6-0.7c1.7-2.9,4.1-4.2,7.7-4v1.2c0,0.9,0.4,1.5,1.2,2c0.8,0.4,1.7,0.4,2.5-0.1l7.2-5.3c0.5-0.4,0.9-1.1,0.9-1.7
	c0.1-0.6-0.1-1.2-0.7-1.9L32.9,119.2z"/>
<path class="st4" d="M32.9,167.2c-0.7-0.5-1.7-0.6-2.4-0.3c-0.8,0.4-1.3,1.2-1.3,2.1l0.1,1.3h-2c-2.3,0.1-5.9,1.7-8.2,4.5
	c-1.6,1.9-2.3,4.3-2,6.5v0.4l0.1,0.3c0.1,0.3,0.2,0.7,0.6,1.1c0.4,0.4,1,0.6,1.6,0.6s1.1-0.2,1.5-0.5l0.1-0.1
	c0.1-0.1,0.3-0.3,0.6-0.7c1.7-2.9,4.1-4.2,7.7-4v1.2c0,0.9,0.4,1.5,1.2,2c0.8,0.4,1.7,0.4,2.5-0.1l7.2-5.3c0.5-0.4,0.9-1.1,0.9-1.7
	c0.1-0.6-0.1-1.2-0.7-1.9L32.9,167.2z"/>
<path class="st0" d="M30.8,28c0,0-1.5-0.1-3.5,0c-3.1,0.1-9.6,4-8.7,9.4c0.1,0.3,0.1,0.6,0.3,0.8c0.3,0.3,0.6,0.3,1,0
	c0.1-0.1,0.2-0.2,0.3-0.4c1.8-3.3,4.9-5.4,10.5-4.6v2.6c0,0.7,0.8,1,1.3,0.7l7.2-5.3c0.4-0.3,0.4-1,0-1.3L32,24.5
	c-0.5-0.4-1.3,0-1.3,0.6L30.8,28z"/>
<path class="st0" d="M30.8,75.9c0,0-1.5-0.1-3.5,0c-3.1,0.1-9.6,4-8.7,9.4c0.1,0.3,0.1,0.6,0.3,0.8c0.3,0.3,0.6,0.3,1,0
	c0.1-0.1,0.2-0.2,0.3-0.4c1.8-3.3,4.9-5.4,10.5-4.6v2.6c0,0.7,0.8,1,1.3,0.7l7.2-5.3c0.4-0.3,0.4-1,0-1.3L32,72.4
	c-0.5-0.4-1.3,0-1.3,0.6L30.8,75.9z"/>
<path class="st0" d="M30.8,123.9c0,0-1.5-0.1-3.5,0c-3.1,0.1-9.6,4-8.7,9.4c0.1,0.3,0.1,0.6,0.3,0.8c0.3,0.3,0.6,0.3,1,0
	c0.1-0.1,0.2-0.2,0.3-0.4c1.8-3.3,4.9-5.4,10.5-4.6v2.6c0,0.7,0.8,1,1.3,0.7l7.2-5.3c0.4-0.3,0.4-1,0-1.3l-7.2-5.4
	c-0.5-0.4-1.3,0-1.3,0.6L30.8,123.9z"/>
<path class="st5" d="M30.8,171.9c0,0-1.5-0.1-3.5,0c-3.1,0.1-9.6,4-8.7,9.4c0.1,0.3,0.1,0.6,0.3,0.8c0.3,0.3,0.6,0.3,1,0
	c0.1-0.1,0.2-0.2,0.3-0.4c1.8-3.3,4.9-5.4,10.5-4.6v2.6c0,0.7,0.8,1,1.3,0.7l7.2-5.3c0.4-0.3,0.4-1,0-1.3l-7.2-5.4
	c-0.5-0.4-1.3,0-1.3,0.6L30.8,171.9z"/>
</svg>
