<?xml version="1.0" encoding="utf-8"?>
<!-- Generator: Adobe Illustrator 27.1.0, SVG Export Plug-In . SVG Version: 6.00 Build 0)  -->
<svg version="1.1"
	 id="svg2" xmlns:dc="http://purl.org/dc/elements/1.1/" xmlns:cc="http://creativecommons.org/ns#" xmlns:inkscape="http://www.inkscape.org/namespaces/inkscape" xmlns:rdf="http://www.w3.org/1999/02/22-rdf-syntax-ns#" xmlns:svg="http://www.w3.org/2000/svg" xmlns:sodipodi="http://sodipodi.sourceforge.net/DTD/sodipodi-0.dtd"
	 xmlns="http://www.w3.org/2000/svg" xmlns:xlink="http://www.w3.org/1999/xlink" x="0px" y="0px" viewBox="0 0 48 192"
	 style="enable-background:new 0 0 48 192;" xml:space="preserve">
<style type="text/css">
	.st0{fill:#FFFFFF;stroke:#1D1D1B;stroke-width:1.5;stroke-linecap:round;}
	.st1{fill:#FFFFFF;stroke:#FFA500;stroke-width:1.5;stroke-linecap:round;}
	.st2{fill:#FFFFFF;stroke:#3AB2E5;stroke-width:1.5;stroke-linecap:round;}
	.st3{fill:#FFFFFF;stroke:#A0A09F;stroke-width:1.5;stroke-linecap:round;}
	.st4{fill:#FFFFFF;}
	.st5{fill:#FFFFFF;stroke:#1D1D1B;stroke-linecap:round;}
	.st6{fill:#FFFFFF;stroke:#A0A09F;stroke-linecap:round;}
</style>
<sodipodi:namedview  bordercolor="#666666" borderopacity="1" gridtolerance="10" guidetolerance="10" id="namedview21" inkscape:current-layer="svg2" inkscape:cx="29" inkscape:cy="94" inkscape:pageopacity="0" inkscape:pageshadow="2" inkscape:window-height="852" inkscape:window-maximized="0" inkscape:window-width="1305" inkscape:window-x="0" inkscape:window-y="0" inkscape:zoom="2.7663934" objecttolerance="10" pagecolor="#ffffff" showgrid="false">
	</sodipodi:namedview>
<path class="st0" d="M35.2,14.1c0-3.2-5.5-5.9-12.4-5.9c-6.8,0-12.4,2.6-12.4,5.9c0,0.3,0,15.3,0,15.6c0,3.2,5.5,5.9,12.4,5.9
	c6.8,0,12.4-2.6,12.4-5.9c0-0.3,0-0.9,0-0.9S35.2,14.3,35.2,14.1z"/>
<ellipse class="st0" cx="23" cy="24.6" rx="12.4" ry="5.9"/>
<ellipse class="st0" cx="23" cy="19.1" rx="12.4" ry="5.9"/>
<ellipse class="st0" cx="23" cy="13.6" rx="12.4" ry="5.9"/>
<path class="st1" d="M35.2,62.1c0-3.2-5.5-5.9-12.4-5.9c-6.8,0-12.4,2.6-12.4,5.9c0,0.3,0,15.3,0,15.6c0,3.2,5.5,5.9,12.4,5.9
	c6.8,0,12.4-2.6,12.4-5.9c0-0.3,0-0.9,0-0.9S35.2,62.3,35.2,62.1z"/>
<ellipse class="st1" cx="23" cy="72.6" rx="12.4" ry="5.9"/>
<ellipse class="st1" cx="23" cy="67.1" rx="12.4" ry="5.9"/>
<ellipse class="st1" cx="23" cy="61.6" rx="12.4" ry="5.9"/>
<path class="st2" d="M35.3,110.1c0-3.2-5.5-5.9-12.4-5.9c-6.8,0-12.4,2.6-12.4,5.9c0,0.3,0,15.3,0,15.6c0,3.2,5.5,5.9,12.4,5.9
	c6.8,0,12.4-2.6,12.4-5.9c0-0.3,0-0.9,0-0.9S35.3,110.3,35.3,110.1z"/>
<ellipse class="st2" cx="23" cy="120.6" rx="12.4" ry="5.9"/>
<ellipse class="st2" cx="23" cy="115.1" rx="12.4" ry="5.9"/>
<ellipse class="st2" cx="23" cy="109.6" rx="12.4" ry="5.9"/>
<path class="st3" d="M35.3,158c0-3.2-5.5-5.9-12.4-5.9c-6.8,0-12.4,2.6-12.4,5.9c0,0.3,0,15.3,0,15.6c0,3.2,5.5,5.9,12.4,5.9
	c6.8,0,12.4-2.6,12.4-5.9c0-0.3,0-0.9,0-0.9S35.3,158.2,35.3,158z"/>
<ellipse class="st3" cx="23" cy="168.5" rx="12.4" ry="5.9"/>
<ellipse class="st3" cx="23" cy="163" rx="12.4" ry="5.9"/>
<ellipse class="st3" cx="23" cy="157.5" rx="12.4" ry="5.9"/>
<path class="st4" d="M20.4,25l5.3,4.6l-3.7,2.7c-0.9,0.5-1.4,1.5-1.5,2.5c-0.1,1.1,0.3,2.1,1.1,2.9c0.7,0.6,1.5,0.9,2.4,0.9
	s1.8-0.4,2.3-1.1l3.9-3.9l7,6c0.5,0.5,1.1,0.7,1.8,0.7H39c0.7,0,1.3-0.3,1.7-0.8c0.5-0.5,0.8-1.1,0.8-1.8s-0.3-1.4-0.9-1.9l-6.4-6.4
	l4-4c0.6-0.6,0.8-1.4,0.4-2.4l-0.2-0.3c-0.3-0.5-0.8-0.8-1.3-0.9c-0.6-0.1-1.2,0-1.7,0.3l-5,3.6L24.6,20c-0.7-0.7-1.6-1-2.5-1
	s-1.7,0.4-2.5,1.2c-0.6,0.7-0.9,1.7-0.9,2.6C19.1,23.7,19.6,24.5,20.4,25z"/>
<path class="st4" d="M34.4,77.5l4-4c0.6-0.6,0.8-1.4,0.4-2.4l-0.2-0.3c-0.3-0.5-0.8-0.8-1.3-0.9c-0.6-0.1-1.2,0-1.7,0.3l-5,3.6
	l-5.8-5.7c-0.7-0.7-1.6-1-2.5-1s-1.7,0.4-2.5,1.2C19.2,69,19,70,19,70.9c0.1,0.9,0.5,1.7,1.2,2.2l5.3,4.6l-3.7,2.7
	c-0.7,0.4-1.2,1.4-1.3,2.4c-0.1,1.1,0.3,2.1,1.1,2.9c0.7,0.6,1.5,0.9,2.4,0.9s1.8-0.4,2.3-1.1l3.9-3.9l7,6c0.5,0.5,1.1,0.7,1.8,0.7
	H39c0.7,0,1.3-0.3,1.7-0.8c0.5-0.5,0.8-1.1,0.8-1.8c0-0.7-0.3-1.4-0.9-1.9L34.4,77.5z"/>
<path class="st4" d="M34.5,125.5l4-4c0.6-0.6,0.8-1.4,0.4-2.4l-0.2-0.3c-0.3-0.5-0.8-0.8-1.3-0.9c-0.6-0.1-1.2,0-1.7,0.3l-5,3.6
	l-5.8-5.7c-0.7-0.7-1.6-1-2.5-1s-1.7,0.4-2.5,1.2c-0.6,0.7-0.9,1.7-0.9,2.6c0.1,0.9,0.5,1.7,1.2,2.2l5.3,4.6l-3.7,2.7
	c-0.8,0.6-1.4,1.5-1.4,2.5c-0.1,1.1,0.3,2.1,1.1,2.9c0.7,0.6,1.5,0.9,2.4,0.9s1.8-0.4,2.3-1.1l3.9-3.9l7,6c0.5,0.5,1.1,0.7,1.8,0.7
	H39c0.7,0,1.3-0.3,1.7-0.8c0.5-0.5,0.8-1.1,0.8-1.8s-0.3-1.4-0.9-1.9L34.5,125.5z"/>
<path class="st4" d="M34.5,173.4l4-4c0.6-0.6,0.8-1.4,0.4-2.4l-0.2-0.3c-0.3-0.5-0.8-0.8-1.3-0.9c-0.6-0.1-1.2,0-1.7,0.3l-5,3.6
	l-5.8-5.7c-0.7-0.7-1.6-1-2.5-1s-1.7,0.4-2.5,1.2c-0.6,0.7-0.9,1.7-0.9,2.6c0.1,0.9,0.5,1.7,1.2,2.2l5.3,4.6l-3.7,2.7
	c-0.8,0.6-1.4,1.5-1.4,2.5c-0.1,1.1,0.3,2.1,1.1,2.9c0.7,0.6,1.5,0.9,2.4,0.9s1.8-0.4,2.3-1.1l3.9-3.9l7,6c0.5,0.5,1.1,0.7,1.8,0.7
	H39c0.7,0,1.3-0.3,1.7-0.8c0.5-0.5,0.8-1.1,0.8-1.8c0-0.7-0.3-1.4-0.9-1.9L34.5,173.4z"/>
<path class="st0" d="M39.8,37l-7.5-7.5l5.1-5.1c0.2-0.2,0.2-0.5,0.1-0.8l0,0c-0.2-0.3-0.6-0.4-0.9-0.2l-6,4.3l-6.7-6.6
	c-0.8-0.8-2-0.7-2.8,0.1l0,0c-0.7,0.8-0.7,2,0.2,2.7l6.7,5.8l-5.2,3.8c-1,0.7-1.1,2.2-0.2,3.1l0,0c0.8,0.7,2,0.7,2.7-0.1l4.9-4.9
	l8.1,7c0.4,0.4,1.1,0.4,1.5-0.1l0,0C40.2,38.1,40.2,37.4,39.8,37z"/>
<path class="st5" d="M39.8,85l-7.5-7.5l5.1-5.1c0.2-0.2,0.2-0.5,0.1-0.8l0,0c-0.2-0.3-0.6-0.4-0.9-0.2l-6,4.3l-6.7-6.6
	c-0.8-0.8-2-0.7-2.8,0.1l0,0c-0.7,0.8-0.7,2,0.2,2.7l6.7,5.8l-5.2,3.8c-1,0.7-1.1,2.2-0.2,3.1l0,0c0.8,0.7,2,0.7,2.7-0.1l4.9-4.9
	l8.1,7c0.4,0.4,1.1,0.4,1.5-0.1l0,0C40.2,86.1,40.2,85.4,39.8,85z"/>
<path class="st5" d="M39.8,133l-7.5-7.5l5.1-5.1c0.2-0.2,0.2-0.5,0.1-0.8l0,0c-0.2-0.3-0.6-0.4-0.9-0.2l-6,4.3l-6.7-6.6
	c-0.8-0.8-2-0.7-2.8,0.1l0,0c-0.7,0.8-0.7,2,0.2,2.7l6.7,5.8l-5.2,3.8c-1,0.7-1.1,2.2-0.2,3.1l0,0c0.8,0.7,2,0.7,2.7-0.1l4.9-4.9
	l8.1,7c0.4,0.4,1.1,0.4,1.5-0.1l0,0C40.3,134.1,40.3,133.4,39.8,133z"/>
<path class="st6" d="M39.8,180.9l-7.5-7.5l5.1-5.1c0.2-0.2,0.2-0.5,0.1-0.8l0,0c-0.2-0.3-0.6-0.4-0.9-0.2l-6,4.3l-6.7-6.6
	c-0.8-0.8-2-0.7-2.8,0.1l0,0c-0.7,0.8-0.7,2,0.2,2.7l6.7,5.8l-5.2,3.8c-1,0.7-1.1,2.2-0.2,3.1l0,0c0.8,0.7,2,0.7,2.7-0.1l4.9-4.9
	l8.1,7c0.4,0.4,1.1,0.4,1.5-0.1l0,0C40.3,182,40.3,181.4,39.8,180.9z"/>
</svg>
