<?xml version="1.0" encoding="utf-8"?>
<!-- Generator: Adobe Illustrator 27.1.0, SVG Export Plug-In . SVG Version: 6.00 Build 0)  -->
<svg version="1.1"
	 id="svg2" xmlns:dc="http://purl.org/dc/elements/1.1/" xmlns:cc="http://creativecommons.org/ns#" xmlns:inkscape="http://www.inkscape.org/namespaces/inkscape" xmlns:rdf="http://www.w3.org/1999/02/22-rdf-syntax-ns#" xmlns:svg="http://www.w3.org/2000/svg" xmlns:sodipodi="http://sodipodi.sourceforge.net/DTD/sodipodi-0.dtd"
	 xmlns="http://www.w3.org/2000/svg" xmlns:xlink="http://www.w3.org/1999/xlink" x="0px" y="0px" viewBox="0 0 48 192"
	 style="enable-background:new 0 0 48 192;" xml:space="preserve">
<style type="text/css">
	.st0{fill:#FFFFFF;stroke:#1D1D1B;stroke-width:1.5;stroke-linecap:round;}
	.st1{fill:#FFFFFF;stroke:#FFA500;stroke-width:1.5;stroke-linecap:round;}
	.st2{fill:#FFFFFF;stroke:#3AB2E5;stroke-width:1.5;stroke-linecap:round;}
	.st3{fill:#FFFFFF;stroke:#A0A09F;stroke-width:1.5;stroke-linecap:round;}
	.st4{fill:#FFFFFF;}
	.st5{fill:#FFFFFF;stroke:#1D1D1B;stroke-width:1.5;stroke-miterlimit:10;}
</style>
<sodipodi:namedview  bordercolor="#666666" borderopacity="1" gridtolerance="10" guidetolerance="10" id="namedview21" inkscape:current-layer="svg2" inkscape:cx="29" inkscape:cy="94" inkscape:pageopacity="0" inkscape:pageshadow="2" inkscape:window-height="852" inkscape:window-maximized="0" inkscape:window-width="1305" inkscape:window-x="0" inkscape:window-y="0" inkscape:zoom="2.7663934" objecttolerance="10" pagecolor="#ffffff" showgrid="false">
	</sodipodi:namedview>
<path class="st0" d="M35.4,13.6c0-3.2-5.5-5.9-12.4-5.9c-6.8,0-12.4,2.6-12.4,5.9c0,0.3,0,15.3,0,15.6c0,3.2,5.5,5.9,12.4,5.9
	c6.8,0,12.4-2.6,12.4-5.9c0-0.3,0-0.9,0-0.9S35.4,13.8,35.4,13.6z"/>
<ellipse class="st0" cx="23" cy="24.1" rx="12.4" ry="5.9"/>
<ellipse class="st0" cx="23" cy="18.6" rx="12.4" ry="5.9"/>
<ellipse class="st0" cx="23" cy="13.1" rx="12.4" ry="5.9"/>
<path class="st1" d="M35.4,61.7c0-3.2-5.5-5.9-12.4-5.9c-6.8,0-12.4,2.6-12.4,5.9c0,0.3,0,15.3,0,15.6c0,3.2,5.5,5.9,12.4,5.9
	c6.8,0,12.4-2.6,12.4-5.9c0-0.3,0-0.9,0-0.9S35.4,61.8,35.4,61.7z"/>
<ellipse class="st1" cx="23" cy="72.2" rx="12.4" ry="5.9"/>
<ellipse class="st1" cx="23" cy="66.7" rx="12.4" ry="5.9"/>
<ellipse class="st1" cx="23" cy="61.1" rx="12.4" ry="5.9"/>
<path class="st2" d="M35.4,109.7c0-3.2-5.5-5.9-12.4-5.9c-6.8,0-12.4,2.6-12.4,5.9c0,0.3,0,15.3,0,15.6c0,3.2,5.5,5.9,12.4,5.9
	c6.8,0,12.4-2.6,12.4-5.9c0-0.3,0-0.9,0-0.9S35.4,109.9,35.4,109.7z"/>
<ellipse class="st2" cx="23" cy="120.2" rx="12.4" ry="5.9"/>
<ellipse class="st2" cx="23" cy="114.7" rx="12.4" ry="5.9"/>
<ellipse class="st2" cx="23" cy="109.2" rx="12.4" ry="5.9"/>
<path class="st3" d="M35.4,157.6c0-3.2-5.5-5.9-12.4-5.9c-6.8,0-12.4,2.6-12.4,5.9c0,0.3,0,15.3,0,15.6c0,3.2,5.5,5.9,12.4,5.9
	c6.8,0,12.4-2.6,12.4-5.9c0-0.3,0-0.9,0-0.9S35.4,157.9,35.4,157.6z"/>
<ellipse class="st3" cx="23" cy="168.1" rx="12.4" ry="5.9"/>
<ellipse class="st3" cx="23" cy="162.6" rx="12.4" ry="5.9"/>
<ellipse class="st3" cx="23" cy="157.1" rx="12.4" ry="5.9"/>
<path class="st4" d="M21.9,32.6h1.3c1.8,0,3.3-1.6,3.3-3.4c0-1.6,1-3.1,2.5-3.7l0,0c0.9,0.5,2.1,0.5,3.1,0l3.1-1.8
	c0.9-0.6,1.5-1.7,1.5-2.7c0-1.1-0.6-2.1-1.5-2.7l-3.1-1.8c-1-0.6-2.2-0.6-3.2,0c-0.5,0.3-0.9,0.7-1.2,1.2c-5.4,1-9.3,5.6-9.3,11.2
	v0.7C18.6,31.2,20.1,32.6,21.9,32.6z"/>
<path class="st4" d="M33.1,27.5c0,1.6-1,3.1-2.5,3.7l0,0c-0.9-0.5-2.1-0.5-3.1,0L24.4,33c-0.9,0.6-1.5,1.7-1.5,2.7
	c0,1.1,0.5,2.1,1.5,2.7l3.1,1.8c0.6,0.3,1.1,0.5,1.5,0.5c0.6,0,1.1-0.2,1.6-0.5s0.9-0.7,1.2-1.2c5.3-0.9,9.2-5.5,9.3-10.9
	c0.4-0.4,0.3-0.8,0.2-1c-0.1-1.7-1.7-3.1-3.4-3.1h-1.3C34.6,24.1,33.1,25.6,33.1,27.5z"/>
<path class="st4" d="M21.9,80.7h1.3c1.8,0,3.3-1.6,3.3-3.4c0-1.6,1-3.1,2.5-3.7l0,0c0.9,0.5,2.1,0.5,3.1,0l3.1-1.8
	c0.9-0.6,1.5-1.7,1.5-2.7c0-1.1-0.6-2.1-1.5-2.7l-3.1-1.8c-1-0.6-2.2-0.6-3.2,0c-0.5,0.3-0.9,0.7-1.2,1.2c-5.4,1-9.3,5.6-9.3,11.2
	v0.7C18.6,79.2,20.1,80.7,21.9,80.7z"/>
<path class="st4" d="M37.8,72.2h-1.3c-1.9,0-3.4,1.5-3.4,3.4c0,1.6-1,3.1-2.5,3.7l0,0c-0.9-0.5-2.1-0.5-3.1,0l-3.1,1.8
	c-0.9,0.6-1.5,1.7-1.5,2.7c0,1.1,0.5,2.1,1.5,2.7l3.1,1.8c0.6,0.3,1.1,0.5,1.5,0.5c0.6,0,1.1-0.2,1.6-0.5s0.9-0.7,1.2-1.2
	c5.3-0.9,9.2-5.5,9.3-10.9c0.4-0.4,0.3-0.8,0.2-1C41,73.5,39.5,72.2,37.8,72.2z"/>
<path class="st4" d="M21.9,128.7h1.3c1.8,0,3.3-1.6,3.3-3.4c0-1.6,1-3.1,2.5-3.7l0,0c0.9,0.5,2.1,0.5,3.1,0l3.1-1.8
	c0.9-0.6,1.5-1.7,1.5-2.7s-0.6-2.1-1.5-2.7l-3.1-1.8c-1-0.6-2.2-0.6-3.2,0c-0.5,0.3-0.9,0.7-1.2,1.2c-5.4,1-9.3,5.6-9.3,11.2v0.7
	C18.6,127.2,20.1,128.7,21.9,128.7z"/>
<path class="st4" d="M37.8,120.2h-1.3c-1.9,0-3.4,1.5-3.4,3.4c0,1.6-1,3.1-2.5,3.7l0,0c-0.9-0.5-2.1-0.5-3.1,0l-3.1,1.8
	c-0.9,0.6-1.5,1.6-1.5,2.7c0,1.1,0.5,2.1,1.5,2.7l3.1,1.8c0.6,0.3,1.1,0.5,1.5,0.5c0.6,0,1.1-0.2,1.6-0.5s0.9-0.7,1.2-1.2
	c5.3-0.9,9.2-5.5,9.3-10.9c0.4-0.4,0.3-0.8,0.2-1C41,121.6,39.5,120.2,37.8,120.2z"/>
<path class="st4" d="M26.5,173.2c0-1.6,1-3.1,2.5-3.7l0,0c0.9,0.5,2.1,0.5,3.1,0l3.1-1.8c0.9-0.6,1.5-1.7,1.5-2.7s-0.6-2.1-1.5-2.7
	l-3.1-1.8c-1-0.6-2.2-0.6-3.2,0c-0.5,0.3-0.9,0.7-1.2,1.2c-5.4,1-9.3,5.6-9.3,11.2v0.7c0.1,1.7,1.6,3.2,3.4,3.2h1.3
	C25,176.6,26.5,175,26.5,173.2z"/>
<path class="st4" d="M37.8,168.1h-1.3c-1.9,0-3.4,1.5-3.4,3.4c0,1.6-1,3.1-2.5,3.7l0,0c-0.9-0.5-2.1-0.5-3.1,0l-3.1,1.8
	c-0.9,0.6-1.5,1.6-1.5,2.7s0.5,2.1,1.5,2.7l3.1,1.8c0.6,0.3,1.1,0.5,1.5,0.5c0.6,0,1.1-0.2,1.6-0.5c0.5-0.3,0.9-0.7,1.2-1.2
	c5.3-0.9,9.2-5.5,9.3-10.9c0.4-0.4,0.3-0.8,0.2-1C41,169.5,39.5,168.1,37.8,168.1z"/>
<g>
	<path class="st5" d="M29.4,23.2c0.1,0.2,0.3,0.4,0.5,0.5c0.4,0.2,0.8,0.2,1.2,0l3.1-1.8c0.4-0.2,0.6-0.6,0.6-1s-0.2-0.8-0.6-1
		l-3.1-1.8c-0.4-0.2-0.8-0.2-1.2,0c-0.4,0.2-0.6,0.6-0.6,1v0.2c-4.9,0.3-8.9,4.4-8.9,9.3c0,0.2,0,0.4,0,0.6c0,0.7,0.6,1.3,1.4,1.3
		h1.3c0.8,0,1.4-0.6,1.4-1.4C24.5,26.2,26.6,23.7,29.4,23.2z"/>
	<path class="st5" d="M39.2,27.5c0-0.7-0.6-1.3-1.4-1.3h-1.3c-0.8,0-1.4,0.6-1.4,1.4c0,2.9-2.1,5.4-5,6c-0.1-0.2-0.3-0.4-0.5-0.5
		c-0.4-0.2-0.8-0.2-1.2,0L25.3,35c-0.4,0.2-0.6,0.6-0.6,1s0.2,0.8,0.6,1l3.1,1.8c0.2,0.1,0.4,0.2,0.6,0.2s0.4-0.1,0.6-0.2
		c0.4-0.2,0.6-0.6,0.6-1v-0.2c4.9-0.3,8.9-4.4,8.9-9.3C39.3,27.9,39.3,27.6,39.2,27.5z"/>
</g>
<g>
	<path class="st5" d="M29.4,71.2c0.1,0.2,0.3,0.4,0.5,0.5c0.4,0.2,0.8,0.2,1.2,0l3.1-1.8c0.4-0.2,0.6-0.6,0.6-1s-0.2-0.8-0.6-1
		l-3.1-1.8c-0.4-0.2-0.8-0.2-1.2,0c-0.4,0.2-0.6,0.6-0.6,1v0.2c-4.9,0.3-8.9,4.4-8.9,9.3c0,0.2,0,0.4,0,0.6c0,0.7,0.6,1.3,1.4,1.3
		h1.3c0.8,0,1.4-0.6,1.4-1.4C24.5,74.2,26.6,71.8,29.4,71.2z"/>
	<path class="st5" d="M39.2,75.5c0-0.7-0.6-1.3-1.4-1.3h-1.3c-0.8,0-1.4,0.6-1.4,1.4c0,2.9-2.1,5.4-5,6c-0.1-0.2-0.3-0.4-0.5-0.5
		c-0.4-0.2-0.8-0.2-1.2,0l-3.1,1.8c-0.4,0.2-0.6,0.6-0.6,1s0.2,0.8,0.6,1l3.1,1.8c0.2,0.1,0.4,0.2,0.6,0.2s0.4-0.1,0.6-0.2
		c0.4-0.2,0.6-0.6,0.6-1v-0.2c4.9-0.3,8.9-4.4,8.9-9.3C39.3,75.9,39.3,75.7,39.2,75.5z"/>
</g>
<g>
	<path class="st5" d="M29.4,119.2c0.1,0.2,0.3,0.4,0.5,0.5c0.4,0.2,0.8,0.2,1.2,0l3.1-1.8c0.4-0.2,0.6-0.6,0.6-1
		c0-0.4-0.2-0.8-0.6-1l-3.1-1.8c-0.4-0.2-0.8-0.2-1.2,0c-0.4,0.2-0.6,0.6-0.6,1v0.2c-4.9,0.3-8.9,4.4-8.9,9.3c0,0.2,0,0.4,0,0.6
		c0,0.7,0.6,1.3,1.4,1.3h1.3c0.8,0,1.4-0.6,1.4-1.4C24.5,122.2,26.6,119.8,29.4,119.2z"/>
	<path class="st5" d="M39.2,123.6c0-0.7-0.6-1.3-1.4-1.3h-1.3c-0.8,0-1.4,0.6-1.4,1.4c0,2.9-2.1,5.4-5,6c-0.1-0.2-0.3-0.4-0.5-0.5
		c-0.4-0.2-0.8-0.2-1.2,0l-3.1,1.8c-0.4,0.2-0.6,0.6-0.6,1s0.2,0.8,0.6,1l3.1,1.8c0.2,0.1,0.4,0.2,0.6,0.2s0.4-0.1,0.6-0.2
		c0.4-0.2,0.6-0.6,0.6-1v-0.2c4.9-0.3,8.9-4.4,8.9-9.3C39.3,123.9,39.3,123.7,39.2,123.6z"/>
</g>
<g>
	<path class="st3" d="M29.4,167.2c0.1,0.2,0.3,0.4,0.5,0.5c0.4,0.2,0.8,0.2,1.2,0l3.1-1.8c0.4-0.2,0.6-0.6,0.6-1s-0.2-0.8-0.6-1
		l-3.1-1.8c-0.4-0.2-0.8-0.2-1.2,0c-0.4,0.2-0.6,0.6-0.6,1v0.2c-4.9,0.3-8.9,4.4-8.9,9.3c0,0.2,0,0.4,0,0.6c0,0.7,0.6,1.3,1.4,1.3
		h1.3c0.8,0,1.4-0.6,1.4-1.4C24.5,170.2,26.6,167.8,29.4,167.2z"/>
	<path class="st3" d="M39.2,171.5c0-0.7-0.6-1.3-1.4-1.3h-1.3c-0.8,0-1.4,0.6-1.4,1.4c0,2.9-2.1,5.4-5,6c-0.1-0.2-0.3-0.4-0.5-0.5
		c-0.4-0.2-0.8-0.2-1.2,0l-3.1,1.8c-0.4,0.2-0.6,0.6-0.6,1s0.2,0.8,0.6,1l3.1,1.8c0.2,0.1,0.4,0.2,0.6,0.2s0.4-0.1,0.6-0.2
		c0.4-0.2,0.6-0.6,0.6-1v-0.2c4.9-0.3,8.9-4.4,8.9-9.3C39.3,172,39.3,171.6,39.2,171.5z"/>
</g>
</svg>
