<?xml version="1.0" encoding="utf-8"?>
<!-- Generator: Adobe Illustrator 27.0.1, SVG Export Plug-In . SVG Version: 6.00 Build 0)  -->
<svg version="1.1"
	 id="svg2" xmlns:rdf="http://www.w3.org/1999/02/22-rdf-syntax-ns#" xmlns:inkscape="http://www.inkscape.org/namespaces/inkscape" xmlns:cc="http://creativecommons.org/ns#" xmlns:dc="http://purl.org/dc/elements/1.1/" xmlns:svg="http://www.w3.org/2000/svg" xmlns:sodipodi="http://sodipodi.sourceforge.net/DTD/sodipodi-0.dtd"
	 xmlns="http://www.w3.org/2000/svg" xmlns:xlink="http://www.w3.org/1999/xlink" x="0px" y="0px" viewBox="0 0 48 192"
	 style="enable-background:new 0 0 48 192;" xml:space="preserve">
<style type="text/css">
	.st0{fill:#FFFFFF;stroke:#000000;stroke-width:2.1;stroke-linecap:round;}
	.st1{fill:#FFFFFF;stroke:#FFA500;stroke-width:2.1;stroke-linecap:round;}
	.st2{fill:#FFFFFF;stroke:#A0A09F;stroke-width:2.1;stroke-linecap:round;}
	.st3{fill:#FFFFFF;stroke:#3AB2E5;stroke-width:2.1;stroke-linecap:round;}
	.st4{fill:none;stroke:#000000;stroke-width:2;stroke-miterlimit:10;}
	.st5{fill:none;stroke:#A2A19F;stroke-width:2;stroke-miterlimit:10;}
</style>
<sodipodi:namedview  bordercolor="#666666" borderopacity="1" gridtolerance="10" guidetolerance="10" id="namedview21" inkscape:current-layer="svg2" inkscape:cx="29" inkscape:cy="94" inkscape:pageopacity="0" inkscape:pageshadow="2" inkscape:window-height="852" inkscape:window-maximized="0" inkscape:window-width="1305" inkscape:window-x="0" inkscape:window-y="0" inkscape:zoom="2.7663934" objecttolerance="10" pagecolor="#ffffff" showgrid="false">
	</sodipodi:namedview>
<circle id="path821" class="st0" cx="24" cy="24" r="14.5"/>
<circle id="path821_00000084500948294210434240000003505161869991647886_" class="st1" cx="24.1" cy="72" r="14.5"/>
<circle id="path821_00000182501691703819782910000011013152401863155335_" class="st2" cx="24" cy="168.1" r="14.5"/>
<circle id="path821_00000028316001474030986710000015796727228983277977_" class="st3" cx="24.3" cy="120" r="14.5"/>
<g>
	<line class="st4" x1="24" y1="19.4" x2="24" y2="12.4"/>
	<polyline class="st4" points="20.3,17.2 24,20.5 27.8,17.2 	"/>
	<line class="st4" x1="28.6" y1="23.9" x2="35.7" y2="23.9"/>
	<polyline class="st4" points="30.9,20.3 27.6,23.9 30.9,27.8 	"/>
	<line class="st4" x1="24.1" y1="28.6" x2="24.1" y2="35.6"/>
	<polyline class="st4" points="27.8,30.8 24.1,27.5 20.3,30.8 	"/>
	<line class="st4" x1="19.5" y1="24.1" x2="12.4" y2="24.1"/>
	<polyline class="st4" points="17.2,27.7 20.5,24.1 17.2,20.2 	"/>
</g>
<g>
	<line class="st4" x1="24" y1="67.5" x2="24" y2="60.4"/>
	<polyline class="st4" points="20.4,65.2 24,68.5 27.9,65.2 	"/>
	<line class="st4" x1="28.7" y1="72" x2="35.8" y2="72"/>
	<polyline class="st4" points="30.9,68.3 27.6,72 30.9,75.8 	"/>
	<line class="st4" x1="24.2" y1="76.6" x2="24.2" y2="83.7"/>
	<polyline class="st4" points="27.8,78.9 24.2,75.6 20.3,78.9 	"/>
	<line class="st4" x1="19.5" y1="72.1" x2="12.5" y2="72.1"/>
	<polyline class="st4" points="17.3,75.8 20.6,72.1 17.3,68.3 	"/>
</g>
<g>
	<line class="st4" x1="23.9" y1="115.5" x2="23.9" y2="108.4"/>
	<polyline class="st4" points="20.3,113.2 23.9,116.5 27.8,113.2 	"/>
	<line class="st4" x1="28.6" y1="120" x2="35.6" y2="120"/>
	<polyline class="st4" points="30.8,116.3 27.5,120 30.8,123.8 	"/>
	<line class="st4" x1="24.1" y1="124.6" x2="24.1" y2="131.7"/>
	<polyline class="st4" points="27.7,126.9 24.1,123.6 20.2,126.9 	"/>
	<line class="st4" x1="19.4" y1="120.1" x2="12.3" y2="120.1"/>
	<polyline class="st4" points="17.2,123.8 20.5,120.1 17.2,116.3 	"/>
</g>
<g>
	<line class="st5" x1="23.9" y1="163.6" x2="23.9" y2="156.5"/>
	<polyline class="st5" points="20.2,161.4 23.9,164.7 27.7,161.4 	"/>
	<line class="st5" x1="28.5" y1="168.1" x2="35.6" y2="168.1"/>
	<polyline class="st5" points="30.8,164.5 27.5,168.1 30.8,172 	"/>
	<line class="st5" x1="24" y1="172.8" x2="24" y2="179.8"/>
	<polyline class="st5" points="27.7,175 24,171.7 20.2,175 	"/>
	<line class="st5" x1="19.4" y1="168.3" x2="12.3" y2="168.3"/>
	<polyline class="st5" points="17.1,171.9 20.4,168.3 17.1,164.4 	"/>
</g>
</svg>
