<?xml version="1.0" encoding="utf-8"?>
<!-- Generator: Adobe Illustrator 27.0.1, SVG Export Plug-In . SVG Version: 6.00 Build 0)  -->
<svg version="1.1"
	 id="svg2" xmlns:rdf="http://www.w3.org/1999/02/22-rdf-syntax-ns#" xmlns:inkscape="http://www.inkscape.org/namespaces/inkscape" xmlns:cc="http://creativecommons.org/ns#" xmlns:dc="http://purl.org/dc/elements/1.1/" xmlns:svg="http://www.w3.org/2000/svg" xmlns:sodipodi="http://sodipodi.sourceforge.net/DTD/sodipodi-0.dtd"
	 xmlns="http://www.w3.org/2000/svg" xmlns:xlink="http://www.w3.org/1999/xlink" x="0px" y="0px" viewBox="0 0 48 192"
	 style="enable-background:new 0 0 48 192;" xml:space="preserve">
<style type="text/css">
	.st0{fill:#FFFFFF;stroke:#000000;stroke-width:2.1;stroke-linecap:round;}
	.st1{fill:none;stroke:#000000;stroke-width:2;stroke-linecap:round;}
	.st2{fill:#FFFFFF;stroke:#FFA500;stroke-width:2.1;stroke-linecap:round;}
	.st3{fill:#FFFFFF;stroke:#A0A09F;stroke-width:2.1;stroke-linecap:round;}
	.st4{fill:#FFFFFF;stroke:#3AB2E5;stroke-width:2.1;stroke-linecap:round;}
	.st5{fill:none;stroke:#A2A19F;stroke-width:2;stroke-linecap:round;}
</style>
<sodipodi:namedview  bordercolor="#666666" borderopacity="1" gridtolerance="10" guidetolerance="10" id="namedview21" inkscape:current-layer="svg2" inkscape:cx="29" inkscape:cy="94" inkscape:pageopacity="0" inkscape:pageshadow="2" inkscape:window-height="852" inkscape:window-maximized="0" inkscape:window-width="1305" inkscape:window-x="0" inkscape:window-y="0" inkscape:zoom="2.7663934" objecttolerance="10" pagecolor="#ffffff" showgrid="false">
	</sodipodi:namedview>
<circle id="path821" class="st0" cx="24" cy="24" r="14.5"/>
<path class="st1" d="M16.4,20.4c3.5-6.1,11.1-5.5,14.3,0"/>
<polyline class="st1" points="31.5,17.6 31.5,21 28.1,21 "/>
<path class="st1" d="M31.7,27.6c-3.5,6.1-11.1,5.5-14.3,0"/>
<polyline class="st1" points="16.6,30.4 16.6,27 20,27 "/>
<circle id="path821_00000084500948294210434240000003505161869991647886_" class="st2" cx="24.1" cy="72" r="14.5"/>
<circle id="path821_00000182501691703819782910000011013152401863155335_" class="st3" cx="24" cy="168.1" r="14.5"/>
<circle id="path821_00000028316001474030986710000015796727228983277977_" class="st4" cx="24.3" cy="120" r="14.5"/>
<path class="st1" d="M16.4,68.4c3.5-6.1,11.1-5.5,14.3,0"/>
<polyline class="st1" points="31.5,65.6 31.5,69 28.1,69 "/>
<path class="st1" d="M31.6,75.6c-3.5,6.1-11.1,5.5-14.3,0"/>
<polyline class="st1" points="16.5,78.4 16.5,75 19.9,75 "/>
<path class="st1" d="M16.4,116.4c3.5-6.1,11.1-5.5,14.3,0"/>
<polyline class="st1" points="31.5,113.6 31.5,117 28.1,117 "/>
<path class="st1" d="M31.6,123.7c-3.5,6.1-11.1,5.5-14.3,0"/>
<polyline class="st1" points="16.5,126.5 16.5,123.1 19.9,123.1 "/>
<path class="st5" d="M16.4,164.5c3.5-6.1,11.1-5.5,14.3,0"/>
<polyline class="st5" points="31.5,161.7 31.5,165.1 28.1,165.1 "/>
<path class="st5" d="M31.6,171.8c-3.5,6.1-11.1,5.5-14.3,0"/>
<polyline class="st5" points="16.5,174.6 16.5,171.2 19.9,171.2 "/>
</svg>
