<?xml version="1.0" encoding="UTF-8" standalone="no"?>
<svg
   xmlns:dc="http://purl.org/dc/elements/1.1/"
   xmlns:cc="http://creativecommons.org/ns#"
   xmlns:rdf="http://www.w3.org/1999/02/22-rdf-syntax-ns#"
   xmlns:svg="http://www.w3.org/2000/svg"
   xmlns="http://www.w3.org/2000/svg"
   version="1.1"
   id="svg833"
   width="16"
   height="16"
   viewBox="0 0 16 16">
  <metadata
     id="metadata839">
    <rdf:RDF>
      <cc:Work
         rdf:about="">
        <dc:format>image/svg+xml</dc:format>
        <dc:type
           rdf:resource="http://purl.org/dc/dcmitype/StillImage" />
        <dc:title></dc:title>
      </cc:Work>
    </rdf:RDF>
  </metadata>
  <defs
     id="defs837">
    <rect
       id="rect844"
       height="19.2104"
       width="18.469024"
       y="0.065415667"
       x="0.087220889" />
    <rect
       x="0.11802581"
       y="0.37374841"
       width="17.467821"
       height="16.818678"
       id="rect847" />
  </defs>
  <g
     style="font-size:16px;line-height:1.25;font-family:sans-serif;shape-inside:url(#rect844)"
     id="text842"
     transform="matrix(1.237903,0,0,1.1831896,1.2858269,-3.0804087)"
     aria-label="T">
    <path
       id="path848"
       style="font-style:normal;font-variant:normal;font-weight:bold;font-stretch:normal;font-family:'Times New Roman';-inkscape-font-specification:'Times New Roman,  Bold'"
       d="M 10.181641,4.0679882 V 6.9351757 H 9.9003906 Q 9.6503906,5.9429882 9.3457031,5.5133007 9.0410156,5.0758007 8.5097656,4.8179882 8.2128906,4.6773632 7.4707031,4.6773632 H 6.6816406 v 8.1718748 q 0,0.8125 0.085937,1.015625 0.09375,0.203125 0.3515625,0.359375 0.265625,0.148438 0.71875,0.148438 h 0.3515625 v 0.289062 h -5.546875 v -0.289062 h 0.3515625 q 0.4609375,0 0.7421875,-0.164063 0.203125,-0.109375 0.3203125,-0.375 0.085937,-0.1875 0.085937,-0.984375 V 4.6773632 h -0.765625 q -1.0703125,0 -1.5546875,0.453125 Q 1.1425781,5.7633007 0.96289063,6.9351757 H 0.66601562 V 4.0679882 Z" />
  </g>
</svg>
