<?xml version="1.0" encoding="utf-8"?>
<!-- Generator: Adobe Illustrator 27.2.0, SVG Export Plug-In . SVG Version: 6.00 Build 0)  -->
<svg version="1.1"
	 id="svg833" xmlns:dc="http://purl.org/dc/elements/1.1/" xmlns:svg="http://www.w3.org/2000/svg" xmlns:cc="http://creativecommons.org/ns#" xmlns:rdf="http://www.w3.org/1999/02/22-rdf-syntax-ns#"
	 xmlns="http://www.w3.org/2000/svg" xmlns:xlink="http://www.w3.org/1999/xlink" x="0px" y="0px" viewBox="0 0 16 16"
	 style="enable-background:new 0 0 16 16;" xml:space="preserve">
<style type="text/css">
	.st0{fill:#26C75A;}
	.st1{fill:none;stroke:#000000;stroke-width:0.5669;}
</style>
<g id="g841">
</g>
<path id="path845-0" class="st0" d="M9.9,4.9L9.9,4.9l-0.1,0l0,0l-0.1,0l-0.1,0l0,0l-0.1,0l0,0L9.2,5l0,0L9.1,5l0,0L8.9,5.1l0,0
	l-0.1,0l0,0.1l0,0l0,0.1l0,0l0,0.1l0,0l0,0.1l0,0l0,0.1l0,0l0,0.1l0,0l0,0.1l0,0l0,0l0,0l0,0.1l0,0l0,0.1l0,0l0,0.1l0,0l0,0.1l0,0
	l0,0.1l0,0l0,0.1l0,0l0,0.1l0,0L8.8,7.3l0,0L8.7,7.4l0,0l0,0l0.1,0.1l0,0L9,7.6l0,0l0.1,0.1l0,0l0.1,0.1l0,0l0.1,0.1l0,0l0.1,0.1
	l0,0L9.6,8l0,0l0.1,0.1l0,0l0.1,0.1l0,0l0.1,0.1l0,0L10,8.5l0,0l0.1,0.1l0,0l0.1,0.1l0,0l0.1,0.1l0,0L10.3,9l0,0l0.1,0.1l0,0l0,0.1
	l0,0l0,0.1l0,0l0,0.1l0,0l0,0.1l0,0l0,0.1l0,0l0,0.1l0,0l0,0.1l0,0l0,0.1l0,0l0,0.1l0,0l0,0.1l0,0l0,0.1l0,0l0,0l0.1,0l0,0l0.1,0
	l0,0l0.1,0l0,0l0.1,0l0,0l0.1,0l0,0l0.1-0.1l0,0l0.1-0.1l0,0l0.1-0.1l0,0l0.1-0.1l0,0l0.1-0.1l0,0l0,0l0.1-0.1l0,0L12,10l0,0
	l0.1-0.1l0,0l0.1-0.1l0.1-0.1l0,0l0.1-0.1l0,0l0.1-0.1l0,0l0.1-0.1l0,0l0.1-0.1l0,0l0.1-0.1l0,0L12.8,9l0,0l0,0l0.1-0.1l0,0l0-0.1
	l0,0l0-0.1l0,0l0-0.1l0,0l0-0.1l0,0l0-0.1l0,0l0-0.1l0,0l0-0.1l0,0l0-0.1l0,0l0-0.1l0,0l0-0.1l0,0l0-0.1l0,0l0-0.1l0,0l0-0.1l0,0
	L13,7l0,0l0-0.1l0,0l0-0.1l0,0l-0.1-0.1l0,0l-0.1-0.1l0,0l-0.1-0.1l0,0l-0.1-0.1l0,0l-0.1-0.1l0,0L12.5,6l0,0l-0.1-0.1l0,0l-0.1-0.1
	l0,0l-0.1-0.1l-0.1-0.1l0,0L12,5.5l0,0l-0.1-0.1l0,0l-0.1-0.1l0,0l-0.1-0.1l0,0l-0.1-0.1l0,0l-0.1-0.1l0,0l0,0l-0.1-0.1L11.1,5l0,0
	L11,5l0,0l-0.1,0l0,0l-0.1,0l-0.1,0l0,0l-0.1,0l0,0l-0.1,0l0,0l-0.1,0l0,0l-0.1,0l0,0l0,0L9.9,4.9z"/>
<ellipse id="path845" class="st0" cx="7.1" cy="10.6" rx="3.1" ry="3"/>
<path id="path845-6" class="st0" d="M5.3,3c-1.7,0.1-3,1.6-2.9,3.2c0,0,0,0,0,0c0.1,1.1,0.8,2.1,1.8,2.6c0,0,0,0,0,0
	c0.3-0.6,0.8-1.1,1.5-1.3c0,0,0,0,0,0c0.3-0.1,0.7-0.2,1.1-0.3c0.5,0,1,0,1.4,0.2c0.3-0.5,0.4-1,0.3-1.6C8.5,4.1,7,2.9,5.3,3
	C5.3,3,5.3,3,5.3,3z"/>
<path id="path1119" class="st1" d="M3.5,9.2c0,0-3.5-3.4-0.4-5.9s5.8,1.1,5.8,1.1s4-0.8,4.6,2.8c0.6,3.6-2.7,4.1-2.7,4.1
	S9.4,15.1,6,14C2.6,12.9,3.5,9.2,3.5,9.2z"/>
</svg>
