<?xml version="1.0" encoding="UTF-8" standalone="no"?>
<svg
   xmlns:dc="http://purl.org/dc/elements/1.1/"
   xmlns:cc="http://creativecommons.org/ns#"
   xmlns:rdf="http://www.w3.org/1999/02/22-rdf-syntax-ns#"
   xmlns:svg="http://www.w3.org/2000/svg"
   xmlns="http://www.w3.org/2000/svg"
   viewBox="0 0 16 16"
   height="16"
   width="16"
   id="svg833"
   version="1.1">
  <metadata
     id="metadata839">
    <rdf:RDF>
      <cc:Work
         rdf:about="">
        <dc:format>image/svg+xml</dc:format>
        <dc:type
           rdf:resource="http://purl.org/dc/dcmitype/StillImage" />
        <dc:title></dc:title>
      </cc:Work>
    </rdf:RDF>
  </metadata>
  <defs
     id="defs837" />
  <g
     id="g841" />
  <path
     d="m 9.9105833,4.856031 -0.00392,5.31e-5 -0.1384803,0.012188 -0.00586,1.041e-4 -0.1402927,0.020026 -0.1362888,0.025819 -0.00392,5.32e-5 -0.1381052,0.033665 -0.00392,5.32e-5 -0.1321787,0.037469 -0.00583,0.00204 -0.1301233,0.043292 -0.00388,0.00201 -0.1299869,0.051104 -0.00388,0.00201 -0.108574,0.046824 0.01853,0.054373 5.32e-5,0.00392 0.041477,0.137969 0.00201,0.00388 0.035686,0.1419772 1.04e-4,0.00586 0.027875,0.142113 0.00204,0.00583 0.020098,0.1442025 5.32e-5,0.00392 0.014261,0.1443016 1.041e-4,0.00586 0.00647,0.1463938 3.59e-5,0.00194 1.724e-4,0.00977 3.58e-5,0.00194 -0.00139,0.1445777 1.041e-4,0.00586 -0.00916,0.1466667 5.31e-5,0.00392 -0.015083,0.1428599 -0.00185,0.0059 -0.022867,0.144952 5.32e-5,0.00392 -0.028796,0.1411475 -0.00185,0.0059 -0.036595,0.141287 5.32e-5,0.00392 -0.04445,0.1394683 -0.00185,0.0059 -0.050379,0.1356634 -0.00188,0.00395 -0.050615,0.1219943 0.043336,0.020733 0.00395,0.00188 0.1301478,0.070006 0.00398,0.00384 0.1263446,0.075932 0.00395,0.00188 0.122507,0.079906 0.00394,0.00188 0.1187384,0.087783 0.00398,0.00384 0.114934,0.093712 0.00395,0.00188 0.1091436,0.09772 0.00398,0.00384 0.1033878,0.1036801 0.00201,0.00388 0.09955,0.1076551 0.00398,0.00384 0.093761,0.1116611 0.00395,0.00382 0.088004,0.1176233 3.44e-5,0.00194 0.084132,0.1196436 0.004,0.00579 0.07642,0.1256379 0.004,0.00579 0.06864,0.1277268 3.5e-5,0.00194 0.0648,0.1317001 0.0019,0.00576 0.05704,0.1337911 0.0021,0.00387 0.05121,0.1358452 0.0019,0.00576 0.04348,0.1398902 0.0021,0.00387 0.03565,0.1400226 3.6e-5,0.00391 0.02982,0.1420777 0.0021,0.00388 0.02401,0.144135 8.5e-5,0.00586 0.01619,0.1442735 8.4e-5,0.00586 0.0084,0.1444081 3.9e-5,0.0039 8.61e-4,0.05272 4.7e-5,0.002 -0.0013,0.14458 6.8e-5,0.0059 -0.0092,0.146661 6e-6,0.004 -0.01539,0.142745 -0.0019,0.0059 -0.01405,0.09207 0.01175,-0.0023 0.0059,-6.7e-5 0.140262,-0.02198 -0.0037,0.0021 0.142112,-0.02787 0.004,-5e-6 0.134235,-0.03165 0.0058,-0.002 0.13214,-0.0394 0.004,-6e-6 0.133963,-0.04726 0.0037,-0.0021 0.12999,-0.0511 0.0037,-0.0021 0.125979,-0.0569 0.0037,-0.0021 0.121973,-0.06268 0.0059,-0.0021 0.119882,-0.07046 0.002,-0.0021 0.117891,-0.07239 0.0038,-0.002 0.0019,-0.0021 0.109948,-0.08006 0.0037,-0.0021 0.107919,-0.08393 0.0039,-0.00396 0.10389,-0.09167 0.0037,-0.00206 0.101783,-0.099452 0.09598,-0.097393 0.0039,-0.00395 0.08997,-0.1051035 0.002,-0.00197 0.08408,-0.1069541 0.0059,-0.00594 0.07812,-0.1127087 -3.5e-5,-0.00195 0.07615,-0.1146255 0.0038,-0.00594 0.06635,-0.1164063 0.002,-0.00394 0.0623,-0.1222117 -3.5e-5,-0.00194 0.002,-0.00197 0.05647,-0.1240322 0.0019,-0.00589 0.04859,-0.1258649 0.0019,-0.00395 0.04268,-0.1296618 0.002,-0.00394 0.03684,-0.1295595 0.0019,-0.00589 0.0309,-0.1333651 -8.5e-5,-0.00353 0.02487,-0.1391373 -0.0019,0.00395 0.01912,-0.1370737 -8.4e-5,-0.00586 0.01142,-0.134977 -3.7e-5,-0.00391 0.0054,-0.1368323 -8.3e-5,-0.00586 -9.56e-4,-0.05858 -3.4e-5,-0.00195 -0.0063,-0.1385811 -3.8e-5,-0.00391 -0.01214,-0.1345724 -1.77e-4,-0.00783 -0.02185,-0.1324521 -3.4e-5,-0.00195 -0.02384,-0.1343717 -0.0022,-0.0078 -0.03155,-0.1283774 -0.0024,-0.00388 -0.03941,-0.1321421 -3.8e-5,-0.00391 -0.04521,-0.1281351 -0.0019,-0.00576 -0.05103,-0.1260781 -0.0021,-0.00193 -0.0569,-0.1259796 -0.0019,-0.00576 -0.0666,-0.1219046 0.0039,0.00383 -0.07246,-0.1218024 -0.0021,-0.00387 -0.07625,-0.1158744 -0.0021,-0.00387 -0.08005,-0.1099479 -0.0039,-0.00383 -0.08584,-0.1059405 -0.0021,-0.00387 -0.09359,-0.1018974 -0.0021,-0.00387 -0.09945,-0.1017959 -0.103252,-0.095869 0.0021,0.00388 -0.107092,-0.091895 -0.0041,-0.00192 -0.108906,-0.084049 -0.0039,-0.00383 -0.11466,-0.078088 -0.0041,-0.00192 -0.116548,-0.07415 -0.0041,-0.00192 -0.122303,-0.068188 -0.0041,-0.00192 -0.124151,-0.062293 -0.002,4.76e-5 -0.0021,-0.00193 -0.12597,-0.054455 -0.137651,-0.052293 0.0039,-6.25e-5 -0.137516,-0.044479 -0.0041,-0.00191 -0.131522,-0.036768 -0.0058,-0.00184 -0.139228,-0.03078 -0.141082,-0.024887 0.0021,0.00193 -0.141012,-0.020977 -0.0059,9.83e-5 -0.136937,-0.011276 -0.0039,5.37e-5 -0.14074,-0.00535 -0.0039,6.7e-5 -0.08791,-4.083e-4 -0.002,3.37e-5 -0.002,3.38e-5 z"
     style="fill:#26c75a;fill-opacity:1;stroke:none;stroke-width:2.87181;stroke-linejoin:round"
     id="path845-0" />
  <ellipse
     cx="7.0509191"
     cy="10.553861"
     rx="3.0867527"
     ry="3.0186632"
     id="path845"
     style="fill:#26c75a;fill-opacity:1;stroke:none;stroke-width:0.566929;stroke-linejoin:round;stroke-miterlimit:4;stroke-dasharray:none;stroke-opacity:1" />
  <path
     id="path845-6"
     style="fill:#26c75a;fill-opacity:1;stroke:none;stroke-width:2.87181;stroke-linejoin:round;stroke-opacity:1"
     d="M 5.2838316,2.9750273 A 3.0186632,3.0867527 86 0 0 2.4160433,6.2024672 3.0186632,3.0867527 86 0 0 4.2568601,8.7560601 3.0186632,3.0867527 86 0 1 4.2588054,8.7559241 3.0186632,3.0867527 86 0 1 5.726369,7.4276602 3.0186632,3.0867527 86 0 1 5.7681434,7.4090759 3.0186632,3.0867527 86 0 1 6.8284779,7.1450143 3.0186632,3.0867527 86 0 1 8.2323507,7.3698985 3.0186632,3.0867527 86 0 0 8.5748325,5.7718028 3.0186632,3.0867527 86 0 0 5.2838316,2.9750273 Z" />
  <path
     id="path1119"
     d="m 3.4845549,9.1797416 c 0,0 -3.53522063,-3.4150164 -0.3746833,-5.9387308 3.1605373,-2.52371443 5.8075917,1.0678475 5.8075917,1.0678475 0,0 4.0360327,-0.7684967 4.5898707,2.8475933 0.553839,3.6160904 -2.735189,4.0653134 -2.735189,4.0653134 0,0 -1.3715382,3.890302 -4.7959459,2.791391 C 2.5517914,12.914245 3.4845549,9.1797416 3.4845549,9.1797416 Z"
     style="fill:none;stroke:#000000;stroke-width:0.566929;stroke-linecap:butt;stroke-linejoin:miter;stroke-miterlimit:4;stroke-dasharray:none;stroke-opacity:1" />
</svg>
