<?xml version="1.0" encoding="utf-8"?>
<!-- Generator: Adobe Illustrator 27.2.0, SVG Export Plug-In . SVG Version: 6.00 Build 0)  -->
<svg version="1.1"
	 id="svg833" xmlns:dc="http://purl.org/dc/elements/1.1/" xmlns:svg="http://www.w3.org/2000/svg" xmlns:cc="http://creativecommons.org/ns#" xmlns:rdf="http://www.w3.org/1999/02/22-rdf-syntax-ns#"
	 xmlns="http://www.w3.org/2000/svg" xmlns:xlink="http://www.w3.org/1999/xlink" x="0px" y="0px" viewBox="0 0 16 16"
	 style="enable-background:new 0 0 16 16;" xml:space="preserve">
<style type="text/css">
	.st0{fill:#FFFFFF;stroke:#000000;stroke-width:0.5669;stroke-linejoin:round;}
	.st1{fill:#E73434;stroke:#000000;stroke-width:0.5669;stroke-linejoin:round;}
	.st2{fill:none;stroke:#000000;stroke-width:1.0016;stroke-linecap:round;}
</style>
<rect id="rect858" x="1.5" y="2.5" class="st0" width="13.1" height="11.9"/>
<rect id="rect860" x="1.4" y="2.5" class="st1" width="13.1" height="4.1"/>
<g id="text845" transform="translate(2.9580055,5.3800467)">
	<path id="path853" d="M4.2,7.5H1V6.7h1V4.1H1V3.3c0.2,0,0.3,0,0.4,0c0.1,0,0.3-0.1,0.4-0.1C1.9,3.2,2,3.1,2,3
		c0.1-0.1,0.1-0.2,0.1-0.3h1.1v4h1V7.5z"/>
	<path id="path855" d="M9.1,3.7L6.9,7.5H5.5l2.3-3.9H5.3V2.7h3.8V3.7z"/>
</g>
<path id="path870" class="st2" d="M4.4,1.1v3.4"/>
<path id="path870-8" class="st2" d="M11.5,1.1v3.4"/>
<g id="g841">
</g>
</svg>
