<?xml version="1.0" encoding="UTF-8" standalone="no"?>
<svg
   xmlns:dc="http://purl.org/dc/elements/1.1/"
   xmlns:cc="http://creativecommons.org/ns#"
   xmlns:rdf="http://www.w3.org/1999/02/22-rdf-syntax-ns#"
   xmlns:svg="http://www.w3.org/2000/svg"
   xmlns="http://www.w3.org/2000/svg"
   viewBox="0 0 16 16"
   height="16"
   width="16"
   id="svg833"
   version="1.1">
  <metadata
     id="metadata839">
    <rdf:RDF>
      <cc:Work
         rdf:about="">
        <dc:format>image/svg+xml</dc:format>
        <dc:type
           rdf:resource="http://purl.org/dc/dcmitype/StillImage" />
        <dc:title></dc:title>
      </cc:Work>
    </rdf:RDF>
  </metadata>
  <defs
     id="defs837">
    <rect
       id="rect853"
       height="13.379986"
       width="12.601151"
       y="0.039940258"
       x="5.6515466" />
    <rect
       id="rect847"
       height="13.080435"
       width="12.641092"
       y="3.8742051"
       x="0.3394922" />
  </defs>
  <g
     id="g841" />
  <g
     style="font-size:10.6667px;line-height:1.25;font-family:sans-serif;shape-inside:url(#rect847)"
     id="text845"
     transform="translate(-0.45931297,1.3779389)"
     aria-label="2">
    <path
       id="path938"
       style="font-style:normal;font-variant:normal;font-weight:bold;font-stretch:normal;font-family:sans-serif;-inkscape-font-specification:'sans-serif Bold'"
       d="M 7.3919494,13.606554 H 1.3033885 V 12.3253 Q 2.0013073,11.82009 2.6992262,11.25238 3.4023534,10.68467 3.8242298,10.27321 4.4544401,9.6638333 4.7200659,9.2107069 4.9856918,8.7575805 4.9856918,8.3148707 q 0,-0.5312516 -0.3437511,-0.8177109 -0.3385428,-0.2916676 -0.9791698,-0.2916676 -0.4791682,0 -1.0104198,0.1979173 -0.5260434,0.1979173 -0.9791698,0.50521 H 1.5065141 V 6.1846557 Q 1.8763069,6.0231968 2.5950592,5.861738 3.3190198,5.7002791 4.0429804,5.7002791 q 1.458338,0 2.2239654,0.6145853 0.7656274,0.6093769 0.7656274,1.7291721 0,0.7343774 -0.3697928,1.3958378 -0.3645845,0.6614607 -1.1197952,1.3645877 -0.4739598,0.437501 -0.953128,0.807294 -0.4791682,0.364585 -0.6822938,0.510418 h 3.484386 z" />
  </g>
  <g
     style="font-style:normal;font-variant:normal;font-weight:bold;font-stretch:normal;font-size:8px;line-height:1.25;font-family:sans-serif;-inkscape-font-specification:'sans-serif Bold';shape-inside:url(#rect853);fill:#009e00;fill-opacity:1"
     id="text851"
     transform="translate(0.31952207,-0.3394922)"
     aria-label="64">
    <path
       id="path933"
       style="font-style:normal;font-variant:normal;font-weight:bold;font-stretch:normal;font-size:6.66667px;font-family:sans-serif;-inkscape-font-specification:'sans-serif Bold';fill:#009e00;fill-opacity:1"
       d="m 10.053388,5.6873136 q 0,0.3743492 -0.1367193,0.7031254 Q 9.7799499,6.7192152 9.5325539,6.9438246 9.2688819,7.1847102 8.9205745,7.3116634 8.5755222,7.4386165 8.1100272,7.4386165 7.6738291,7.4386165 7.3125008,7.321429 6.9544277,7.2009862 6.6972661,6.9568455 6.401042,6.6768974 6.2447919,6.2341889 q -0.15625,-0.4427086 -0.15625,-1.0579432 0,-0.6380212 0.1464844,-1.1328131 Q 6.3815108,3.5486407 6.7135422,3.1677812 7.0325527,2.8031977 7.5403655,2.6013747 8.0514334,2.3995516 8.7545588,2.3995516 q 0.2376303,0 0.5208336,0.032552 0.2832032,0.032552 0.3678387,0.048828 V 3.4347084 H 9.5195331 Q 9.4316424,3.3923907 9.2200538,3.3403073 9.0117204,3.2849687 8.7447931,3.2849687 q -0.6250003,0 -0.9733077,0.3059898 -0.3483075,0.3059897 -0.4199221,0.8528649 0.2506512,-0.1497396 0.527344,-0.2408855 0.2799481,-0.094401 0.6022138,-0.094401 0.2832033,0 0.5240888,0.065104 0.2441408,0.065104 0.4524742,0.2083335 0.2701824,0.1888021 0.4329429,0.5078127 0.162761,0.3190106 0.162761,0.7975264 z M 8.572267,6.4197358 q 0.1009115,-0.1106771 0.1595053,-0.2604167 0.061849,-0.1529949 0.061849,-0.4134117 0,-0.2376303 -0.068359,-0.38737 Q 8.6569025,5.2055426 8.5364597,5.1143967 8.4192722,5.0232508 8.2597669,4.9906987 8.1002616,4.9548914 7.9309907,4.9548914 q -0.1432293,0 -0.2994793,0.032552 -0.1562501,0.032552 -0.2864585,0.08138 0,0.032552 -0.00326,0.107422 -0.00326,0.07487 -0.00326,0.1888021 0,0.4003909 0.078125,0.6608077 0.08138,0.2571615 0.2148439,0.3938803 0.091146,0.1009116 0.2148438,0.1497397 0.123698,0.045573 0.2669272,0.045573 0.1074219,0 0.2376303,-0.048828 0.1302084,-0.048828 0.2213543,-0.1464845 z" />
    <path
       id="path935"
       style="font-style:normal;font-variant:normal;font-weight:bold;font-stretch:normal;font-size:6.66667px;font-family:sans-serif;-inkscape-font-specification:'sans-serif Bold';fill:#009e00;fill-opacity:1"
       d="M 14.867843,6.221168 H 14.207035 V 7.3507259 H 13.012373 V 6.221168 H 10.665367 V 5.3031989 l 2.268881,-2.8125014 h 1.272787 V 5.335751 h 0.660808 z M 13.012373,5.335751 V 3.584448 l -1.409506,1.751303 z" />
  </g>
</svg>
