<?xml version="1.0" encoding="UTF-8" standalone="no"?>
<svg
   xmlns:dc="http://purl.org/dc/elements/1.1/"
   xmlns:cc="http://creativecommons.org/ns#"
   xmlns:rdf="http://www.w3.org/1999/02/22-rdf-syntax-ns#"
   xmlns:svg="http://www.w3.org/2000/svg"
   xmlns="http://www.w3.org/2000/svg"
   viewBox="0 0 16 16"
   height="16"
   width="16"
   id="svg833"
   version="1.1">
  <metadata
     id="metadata839">
    <rdf:RDF>
      <cc:Work
         rdf:about="">
        <dc:format>image/svg+xml</dc:format>
        <dc:type
           rdf:resource="http://purl.org/dc/dcmitype/StillImage" />
        <dc:title></dc:title>
      </cc:Work>
    </rdf:RDF>
  </metadata>
  <defs
     id="defs837">
    <rect
       id="rect853"
       height="13.379986"
       width="12.601151"
       y="0.039940258"
       x="5.6515466" />
    <rect
       id="rect847"
       height="13.080435"
       width="12.641092"
       y="3.8742051"
       x="0.3394922" />
  </defs>
  <g
     id="g841" />
  <g
     style="font-size:10.6667px;line-height:1.25;font-family:sans-serif;shape-inside:url(#rect847)"
     id="text845"
     transform="translate(-0.45931297,1.3779389)"
     aria-label="2">
    <path
       id="path862"
       style="font-style:normal;font-variant:normal;font-weight:bold;font-stretch:normal;font-family:sans-serif;-inkscape-font-specification:'sans-serif Bold'"
       d="M 7.3919494,13.606554 H 1.3033885 V 12.3253 Q 2.0013073,11.82009 2.6992262,11.25238 3.4023534,10.68467 3.8242298,10.27321 4.4544401,9.6638333 4.7200659,9.2107069 4.9856918,8.7575805 4.9856918,8.3148707 q 0,-0.5312516 -0.3437511,-0.8177109 -0.3385428,-0.2916676 -0.9791698,-0.2916676 -0.4791682,0 -1.0104198,0.1979173 -0.5260434,0.1979173 -0.9791698,0.50521 H 1.5065141 V 6.1846557 Q 1.8763069,6.0231968 2.5950592,5.861738 3.3190198,5.7002791 4.0429804,5.7002791 q 1.458338,0 2.2239654,0.6145853 0.7656274,0.6093769 0.7656274,1.7291721 0,0.7343774 -0.3697928,1.3958378 -0.3645845,0.6614607 -1.1197952,1.3645877 -0.4739598,0.437501 -0.953128,0.807294 -0.4791682,0.364585 -0.6822938,0.510418 h 3.484386 z" />
  </g>
  <g
     style="font-style:normal;font-variant:normal;font-weight:bold;font-stretch:normal;font-size:8px;line-height:1.25;font-family:sans-serif;-inkscape-font-specification:'sans-serif Bold';shape-inside:url(#rect853);fill:#006490;fill-opacity:0.901961"
     id="text851"
     transform="translate(0.31952207,-0.3394922)"
     aria-label="32">
    <path
       id="path857"
       style="font-style:normal;font-variant:normal;font-weight:bold;font-stretch:normal;font-size:6.66667px;font-family:sans-serif;-inkscape-font-specification:'sans-serif Bold';fill:#006490;fill-opacity:0.901961"
       d="m 9.5846373,5.0655685 q 0.1595053,0.1367188 0.2539064,0.3190106 0.094401,0.1822918 0.094401,0.4850263 0,0.341797 -0.1367188,0.6380211 Q 9.6627623,6.8038506 9.3828143,7.0154393 9.1093766,7.2205175 8.7382827,7.3311946 8.370444,7.4386165 7.8431,7.4386165 q -0.6022138,0 -1.0351567,-0.094401 Q 6.3782556,7.2498144 6.1080731,7.1326268 V 6.0681732 h 0.1269532 q 0.2799481,0.1692709 0.667318,0.2929689 0.3906252,0.1236979 0.712891,0.1236979 0.1888022,0 0.4101565,-0.029297 0.2213542,-0.032552 0.3743491,-0.1367189 0.1204428,-0.08138 0.1920574,-0.1953126 0.071615,-0.1171875 0.071615,-0.3352866 0,-0.2115886 -0.097656,-0.325521 Q 8.4681003,5.3455166 8.308595,5.2966884 8.1490897,5.2446051 7.9244803,5.2413499 7.6998708,5.2348394 7.5078134,5.2348394 H 7.2408862 V 4.3689536 H 7.517579 q 0.2539064,0 0.449219,-0.016276 0.1953126,-0.016276 0.3320314,-0.07487 0.1432292,-0.061849 0.2148438,-0.1627605 0.071615,-0.1041667 0.071615,-0.3027345 0,-0.1464844 -0.07487,-0.2343751 Q 8.4355482,3.4867917 8.3216159,3.4347084 8.1946627,3.3761146 8.0221365,3.3565833 7.8496104,3.3370521 7.7259124,3.3370521 q -0.3059897,0 -0.6640628,0.1074219 Q 6.7037765,3.5486407 6.3684899,3.7472085 H 6.2480472 V 2.6957757 Q 6.5149744,2.5883538 6.973959,2.4906975 7.4329436,2.389786 7.904949,2.389786 q 0.4589846,0 0.8040368,0.08138 0.3450523,0.078125 0.5696618,0.2115886 0.2669272,0.1595053 0.3971356,0.38737 0.1302084,0.2278647 0.1302084,0.5338544 0,0.403646 -0.2506512,0.7226566 -0.2506512,0.3157553 -0.6608076,0.403646 v 0.045573 q 0.1660157,0.022786 0.3515627,0.091146 0.1855469,0.068359 0.3385418,0.1985678 z" />
    <path
       id="path859"
       style="font-style:normal;font-variant:normal;font-weight:bold;font-stretch:normal;font-size:6.66667px;font-family:sans-serif;-inkscape-font-specification:'sans-serif Bold';fill:#006490;fill-opacity:0.901961"
       d="m 14.799483,7.337705 h -3.80534 V 6.5369234 q 0.436198,-0.3157554 0.872396,-0.6705732 0.439454,-0.3548179 0.703126,-0.6119795 0.39388,-0.3808595 0.559896,-0.6640628 0.166015,-0.2832033 0.166015,-0.5598961 0,-0.3320314 -0.214843,-0.511068 -0.211589,-0.1822917 -0.61198,-0.1822917 -0.299479,0 -0.631511,0.123698 -0.328776,0.1236979 -0.611979,0.3157553 H 11.121096 V 2.6990309 q 0.23112,-0.1009115 0.680339,-0.201823 0.452474,-0.1009115 0.904948,-0.1009115 0.911459,0 1.389975,0.3841148 0.478516,0.3808596 0.478516,1.0807297 0,0.4589846 -0.23112,0.8723962 -0.227865,0.4134117 -0.69987,0.852865 -0.296224,0.2734376 -0.595704,0.5045575 -0.299479,0.2278647 -0.426432,0.3190106 h 2.177735 z" />
  </g>
</svg>
