<?xml version="1.0" encoding="utf-8"?>
<!-- Generator: Adobe Illustrator 27.2.0, SVG Export Plug-In . SVG Version: 6.00 Build 0)  -->
<svg version="1.1"
	 id="svg833" xmlns:svg="http://www.w3.org/2000/svg" xmlns:dc="http://purl.org/dc/elements/1.1/" xmlns:rdf="http://www.w3.org/1999/02/22-rdf-syntax-ns#" xmlns:sodipodi="http://sodipodi.sourceforge.net/DTD/sodipodi-0.dtd" xmlns:cc="http://creativecommons.org/ns#"
	 xmlns="http://www.w3.org/2000/svg" xmlns:xlink="http://www.w3.org/1999/xlink" x="0px" y="0px" viewBox="0 0 16 16"
	 style="enable-background:new 0 0 16 16;" xml:space="preserve">
<g>
	<path d="M3.2,12.5c-1,0-1.8-0.4-2.2-1.1c-0.4-0.8-0.6-1.8-0.6-3.2S0.6,5.7,1,4.9s1.1-1.1,2.2-1.1S5,4.2,5.4,4.9
		C5.8,5.7,6,6.8,6,8.1s-0.2,2.5-0.6,3.2C5,12.1,4.2,12.5,3.2,12.5z M4.1,10.4c0.1-0.5,0.2-1.3,0.2-2.2c0-1-0.1-1.8-0.2-2.3
		C4,5.4,3.7,5.1,3.2,5.1S2.4,5.4,2.3,5.9C2.1,6.4,2,7.1,2,8.1c0,1,0.1,1.7,0.2,2.2c0.2,0.5,0.5,0.8,0.9,0.8S4,10.9,4.1,10.4z"/>
	<path d="M7.1,10.6h1.7v1.7H7.1V10.6z"/>
	<path d="M12.6,8.1c-0.2,0-0.4,0-0.5,0.1c-0.2,0.1-0.4,0.3-0.6,0.5l-1.4-0.1l0.6-4.7h4.5v1.4h-3.3l-0.3,1.8C11.8,7,12,6.9,12.1,6.9
		c0.2-0.1,0.5-0.1,0.8-0.1c0.7,0,1.3,0.2,1.8,0.7c0.5,0.5,0.7,1.2,0.7,2.1c0,0.8-0.2,1.5-0.7,2.1c-0.5,0.6-1.2,0.9-2.2,0.9
		c-0.8,0-1.4-0.2-1.9-0.6c-0.5-0.4-0.8-1-0.8-1.8h1.6c0.1,0.4,0.2,0.6,0.4,0.8s0.4,0.3,0.8,0.3c0.4,0,0.7-0.1,0.9-0.4
		c0.2-0.3,0.3-0.7,0.3-1.1c0-0.4-0.1-0.8-0.3-1.1C13.3,8.2,13,8.1,12.6,8.1z"/>
</g>
</svg>
