<?xml version="1.0" encoding="utf-8"?>
<!-- Generator: Adobe Illustrator 27.2.0, SVG Export Plug-In . SVG Version: 6.00 Build 0)  -->
<svg version="1.1"
	 id="svg833" xmlns:dc="http://purl.org/dc/elements/1.1/" xmlns:svg="http://www.w3.org/2000/svg" xmlns:cc="http://creativecommons.org/ns#" xmlns:rdf="http://www.w3.org/1999/02/22-rdf-syntax-ns#"
	 xmlns="http://www.w3.org/2000/svg" xmlns:xlink="http://www.w3.org/1999/xlink" x="0px" y="0px" viewBox="0 0 16 16"
	 style="enable-background:new 0 0 16 16;" xml:space="preserve">
<style type="text/css">
	.st0{fill:#009E00;}
</style>
<g id="g841">
</g>
<g id="text845" transform="translate(-0.45931297,1.3779389)">
	<path id="path938" d="M7.4,13.6H1.3v-1.3c0.5-0.3,0.9-0.7,1.4-1.1c0.5-0.4,0.8-0.7,1.1-1c0.4-0.4,0.7-0.8,0.9-1.1
		C4.9,8.9,5,8.6,5,8.3C5,8,4.9,7.7,4.6,7.5c-0.2-0.2-0.6-0.3-1-0.3c-0.3,0-0.7,0.1-1,0.2C2.3,7.5,2,7.7,1.7,7.9H1.5V6.2
		C1.8,6.1,2.1,6,2.6,5.9c0.5-0.1,1-0.2,1.4-0.2c1,0,1.7,0.2,2.2,0.6C6.8,6.7,7,7.3,7,8c0,0.5-0.1,1-0.4,1.4C6.4,9.9,6,10.3,5.5,10.8
		c-0.3,0.3-0.6,0.6-1,0.8C4.3,11.9,4,12,3.9,12.1h3.5V13.6z"/>
</g>
<g id="text851" transform="translate(0.31952207,-0.3394922)">
	<path id="path933" class="st0" d="M10.1,5.7c0,0.2,0,0.5-0.1,0.7C9.8,6.6,9.7,6.8,9.5,6.9C9.4,7.1,9.2,7.2,8.9,7.3
		C8.7,7.4,8.4,7.4,8.1,7.4c-0.3,0-0.6,0-0.8-0.1C7.1,7.2,6.9,7.1,6.7,7C6.5,6.8,6.3,6.5,6.2,6.2C6.1,5.9,6.1,5.6,6.1,5.2
		c0-0.4,0-0.8,0.1-1.1c0.1-0.3,0.3-0.6,0.5-0.9c0.2-0.2,0.5-0.4,0.8-0.6c0.3-0.1,0.7-0.2,1.2-0.2c0.2,0,0.3,0,0.5,0
		c0.2,0,0.3,0,0.4,0v1H9.5c-0.1,0-0.2-0.1-0.3-0.1c-0.1,0-0.3-0.1-0.5-0.1c-0.4,0-0.7,0.1-1,0.3C7.5,3.8,7.4,4.1,7.4,4.4
		c0.2-0.1,0.3-0.2,0.5-0.2c0.2-0.1,0.4-0.1,0.6-0.1c0.2,0,0.4,0,0.5,0.1c0.2,0,0.3,0.1,0.5,0.2c0.2,0.1,0.3,0.3,0.4,0.5
		C10,5.1,10.1,5.4,10.1,5.7z M8.6,6.4c0.1-0.1,0.1-0.2,0.2-0.3c0-0.1,0.1-0.2,0.1-0.4c0-0.2,0-0.3-0.1-0.4c0-0.1-0.1-0.2-0.2-0.2
		C8.5,5.1,8.4,5,8.3,5C8.2,5,8,5,7.9,5C7.8,5,7.7,5,7.6,5C7.5,5,7.4,5,7.3,5.1c0,0,0,0.1,0,0.1s0,0.1,0,0.2c0,0.3,0,0.5,0.1,0.7
		c0.1,0.2,0.1,0.3,0.2,0.4c0.1,0.1,0.1,0.1,0.2,0.1c0.1,0,0.2,0,0.3,0c0.1,0,0.2,0,0.2,0C8.4,6.5,8.5,6.5,8.6,6.4L8.6,6.4z"/>
	<path id="path935" class="st0" d="M14.9,6.2h-0.7v1.1H13V6.2h-2.3V5.3l2.3-2.8h1.3v2.8h0.7V6.2z M13,5.3V3.6l-1.4,1.8H13z"/>
</g>
</svg>
