<?xml version="1.0" encoding="utf-8"?>
<!-- Generator: Adobe Illustrator 27.2.0, SVG Export Plug-In . SVG Version: 6.00 Build 0)  -->
<svg version="1.1"
	 id="svg833" xmlns:rdf="http://www.w3.org/1999/02/22-rdf-syntax-ns#" xmlns:svg="http://www.w3.org/2000/svg" xmlns:cc="http://creativecommons.org/ns#" xmlns:dc="http://purl.org/dc/elements/1.1/"
	 xmlns="http://www.w3.org/2000/svg" xmlns:xlink="http://www.w3.org/1999/xlink" x="0px" y="0px" viewBox="0 0 16 16"
	 style="enable-background:new 0 0 16 16;" xml:space="preserve">
<g id="text842" transform="matrix(1.237903,0,0,1.1831896,0.77325768,-2.9509974)">
	<path id="path869" d="M6.7,11.6H3l-0.4,1c-0.1,0.3-0.2,0.6-0.2,0.9c0,0.3,0.1,0.5,0.4,0.7c0.1,0.1,0.5,0.1,1,0.2v0.3H0.2v-0.3
		c0.4-0.1,0.7-0.2,0.9-0.5c0.2-0.3,0.5-0.8,0.9-1.6l3.8-8.5H6l3.8,8.7c0.4,0.8,0.7,1.3,0.9,1.6c0.2,0.2,0.4,0.3,0.8,0.3v0.3H6.3
		v-0.3h0.2c0.4,0,0.7-0.1,0.9-0.2c0.1-0.1,0.2-0.2,0.2-0.4c0-0.1,0-0.2,0-0.3c0,0-0.1-0.2-0.2-0.6L6.7,11.6z M6.5,11.1L4.9,7.4
		l-1.6,3.6H6.5z"/>
</g>
</svg>
