<?xml version="1.0" encoding="UTF-8" standalone="no"?>
<svg
   xmlns:dc="http://purl.org/dc/elements/1.1/"
   xmlns:cc="http://creativecommons.org/ns#"
   xmlns:rdf="http://www.w3.org/1999/02/22-rdf-syntax-ns#"
   xmlns:svg="http://www.w3.org/2000/svg"
   xmlns="http://www.w3.org/2000/svg"
   viewBox="0 0 16 16"
   height="16"
   width="16"
   id="svg833"
   version="1.1">
  <metadata
     id="metadata839">
    <rdf:RDF>
      <cc:Work
         rdf:about="">
        <dc:format>image/svg+xml</dc:format>
        <dc:type
           rdf:resource="http://purl.org/dc/dcmitype/StillImage" />
        <dc:title></dc:title>
      </cc:Work>
    </rdf:RDF>
  </metadata>
  <defs
     id="defs837">
    <rect
       id="rect853"
       height="13.379986"
       width="12.601151"
       y="0.039940258"
       x="5.6515466" />
    <rect
       id="rect847"
       height="13.080435"
       width="12.641092"
       y="3.8742051"
       x="0.3394922" />
  </defs>
  <g
     id="g841" />
  <g
     style="font-size:10.6667px;line-height:1.25;font-family:sans-serif;shape-inside:url(#rect847)"
     id="text845"
     transform="translate(-0.45931297,1.3779389)"
     aria-label="2">
    <path
       id="path888"
       style="font-style:normal;font-variant:normal;font-weight:bold;font-stretch:normal;font-family:sans-serif;-inkscape-font-specification:'sans-serif Bold'"
       d="M 7.3919494,13.606554 H 1.3033885 V 12.3253 Q 2.0013073,11.82009 2.6992262,11.25238 3.4023534,10.68467 3.8242298,10.27321 4.4544401,9.6638333 4.7200659,9.2107069 4.9856918,8.7575805 4.9856918,8.3148707 q 0,-0.5312516 -0.3437511,-0.8177109 -0.3385428,-0.2916676 -0.9791698,-0.2916676 -0.4791682,0 -1.0104198,0.1979173 -0.5260434,0.1979173 -0.9791698,0.50521 H 1.5065141 V 6.1846557 Q 1.8763069,6.0231968 2.5950592,5.861738 3.3190198,5.7002791 4.0429804,5.7002791 q 1.458338,0 2.2239654,0.6145853 0.7656274,0.6093769 0.7656274,1.7291721 0,0.7343774 -0.3697928,1.3958378 -0.3645845,0.6614607 -1.1197952,1.3645877 -0.4739598,0.437501 -0.953128,0.807294 -0.4791682,0.364585 -0.6822938,0.510418 h 3.484386 z" />
  </g>
  <g
     style="font-style:normal;font-variant:normal;font-weight:bold;font-stretch:normal;font-size:8px;line-height:1.25;font-family:sans-serif;-inkscape-font-specification:'sans-serif Bold';shape-inside:url(#rect853);fill:#e60000;fill-opacity:1"
     id="text851"
     transform="translate(0.31952207,-0.3394922)"
     aria-label="16">
    <path
       id="path883"
       style="font-style:normal;font-variant:normal;font-weight:bold;font-stretch:normal;font-size:6.66667px;font-family:sans-serif;-inkscape-font-specification:'sans-serif Bold';fill:#e60000;fill-opacity:1"
       d="M 9.7539082,7.337705 H 6.5182296 V 6.4913505 H 7.5403655 V 3.9295003 H 6.5182296 v -0.791016 q 0.2343751,0 0.4492189,-0.026042 0.2148439,-0.029297 0.3580731,-0.097656 0.1692709,-0.08138 0.2539064,-0.2115886 0.084636,-0.1302084 0.097656,-0.325521 h 1.0774745 v 4.0136738 h 0.9993494 z" />
    <path
       id="path885"
       style="font-style:normal;font-variant:normal;font-weight:bold;font-stretch:normal;font-size:6.66667px;font-family:sans-serif;-inkscape-font-specification:'sans-serif Bold';fill:#e60000;fill-opacity:1"
       d="m 14.792973,5.6873136 q 0,0.3743492 -0.136719,0.7031254 -0.136719,0.3287762 -0.384115,0.5533856 -0.263672,0.2408856 -0.611979,0.3678388 -0.345052,0.1269531 -0.810547,0.1269531 -0.436199,0 -0.797527,-0.1171875 -0.358073,-0.1204428 -0.615234,-0.3645835 -0.296225,-0.2799481 -0.452475,-0.7226566 -0.15625,-0.4427086 -0.15625,-1.0579432 0,-0.6380212 0.146485,-1.1328131 0.146484,-0.4947919 0.478516,-0.8756514 0.31901,-0.3645835 0.826823,-0.5664065 0.511068,-0.2018231 1.214193,-0.2018231 0.23763,0 0.520834,0.032552 0.283203,0.032552 0.367838,0.048828 v 0.9537765 h -0.123698 q -0.08789,-0.042318 -0.299479,-0.094401 -0.208333,-0.055339 -0.47526,-0.055339 -0.625001,0 -0.973308,0.3059898 -0.348308,0.3059897 -0.419922,0.8528649 0.250651,-0.1497396 0.527344,-0.2408855 0.279948,-0.094401 0.602214,-0.094401 0.283203,0 0.524088,0.065104 0.244141,0.065104 0.452475,0.2083335 0.270182,0.1888021 0.432942,0.5078127 0.162761,0.3190106 0.162761,0.7975264 z m -1.481121,0.7324222 q 0.100912,-0.1106771 0.159506,-0.2604167 0.06185,-0.1529949 0.06185,-0.4134117 0,-0.2376303 -0.06836,-0.38737 -0.06836,-0.1529948 -0.188802,-0.2441407 -0.117187,-0.091146 -0.276693,-0.123698 -0.159505,-0.035807 -0.328776,-0.035807 -0.143229,0 -0.299479,0.032552 -0.15625,0.032552 -0.286459,0.08138 0,0.032552 -0.0033,0.107422 -0.0033,0.07487 -0.0033,0.1888021 0,0.4003909 0.07813,0.6608077 0.08138,0.2571615 0.214844,0.3938803 0.09115,0.1009116 0.214844,0.1497397 0.123698,0.045573 0.266927,0.045573 0.107422,0 0.23763,-0.048828 0.130209,-0.048828 0.221354,-0.1464845 z" />
  </g>
</svg>
