<?xml version="1.0" encoding="utf-8"?>
<!-- Generator: Adobe Illustrator 27.2.0, SVG Export Plug-In . SVG Version: 6.00 Build 0)  -->
<svg version="1.1"
	 id="svg833" xmlns:rdf="http://www.w3.org/1999/02/22-rdf-syntax-ns#" xmlns:svg="http://www.w3.org/2000/svg" xmlns:cc="http://creativecommons.org/ns#" xmlns:dc="http://purl.org/dc/elements/1.1/"
	 xmlns="http://www.w3.org/2000/svg" xmlns:xlink="http://www.w3.org/1999/xlink" x="0px" y="0px" viewBox="0 0 16 16"
	 style="enable-background:new 0 0 16 16;" xml:space="preserve">
<g id="text842" transform="matrix(1.237903,0,0,1.1831896,1.2858269,-3.0804087)">
	<path id="path848" d="M10.2,4.1v2.9H9.9C9.7,6.3,9.5,5.8,9.3,5.5C9.1,5.2,8.9,5,8.5,4.8C8.3,4.7,8,4.7,7.5,4.7H6.7v8.2
		c0,0.5,0,0.9,0.1,1c0.1,0.1,0.2,0.3,0.4,0.4c0.2,0.1,0.4,0.1,0.7,0.1h0.4v0.3H2.6v-0.3H3c0.3,0,0.6-0.1,0.7-0.2
		C3.9,14.1,4,14,4.1,13.8c0.1-0.1,0.1-0.5,0.1-1V4.7H3.4c-0.7,0-1.2,0.2-1.6,0.5C1.4,5.6,1.1,6.2,1,6.9H0.7V4.1H10.2z"/>
</g>
</svg>
