<?xml version="1.0" encoding="utf-8"?>
<!-- Generator: Adobe Illustrator 27.2.0, SVG Export Plug-In . SVG Version: 6.00 Build 0)  -->
<svg version="1.1"
	 id="svg833" xmlns:dc="http://purl.org/dc/elements/1.1/" xmlns:svg="http://www.w3.org/2000/svg" xmlns:cc="http://creativecommons.org/ns#" xmlns:rdf="http://www.w3.org/1999/02/22-rdf-syntax-ns#"
	 xmlns="http://www.w3.org/2000/svg" xmlns:xlink="http://www.w3.org/1999/xlink" x="0px" y="0px" viewBox="0 0 16 16"
	 style="enable-background:new 0 0 16 16;" xml:space="preserve">
<style type="text/css">
	.st0{fill:#006490;fill-opacity:0.902;}
</style>
<g id="g841">
</g>
<g id="text845" transform="translate(-0.45931297,1.3779389)">
	<path id="path862" d="M7.4,13.6H1.3v-1.3c0.5-0.3,0.9-0.7,1.4-1.1c0.5-0.4,0.8-0.7,1.1-1c0.4-0.4,0.7-0.8,0.9-1.1
		C4.9,8.9,5,8.6,5,8.3C5,8,4.9,7.7,4.6,7.5c-0.2-0.2-0.6-0.3-1-0.3c-0.3,0-0.7,0.1-1,0.2C2.3,7.5,2,7.7,1.7,7.9H1.5V6.2
		C1.8,6.1,2.1,6,2.6,5.9c0.5-0.1,1-0.2,1.4-0.2c1,0,1.7,0.2,2.2,0.6C6.8,6.7,7,7.3,7,8c0,0.5-0.1,1-0.4,1.4C6.4,9.9,6,10.3,5.5,10.8
		c-0.3,0.3-0.6,0.6-1,0.8C4.3,11.9,4,12,3.9,12.1h3.5V13.6z"/>
</g>
<g id="text851" transform="translate(0.31952207,-0.3394922)">
	<path id="path857" class="st0" d="M9.6,5.1c0.1,0.1,0.2,0.2,0.3,0.3c0.1,0.1,0.1,0.3,0.1,0.5c0,0.2,0,0.4-0.1,0.6
		C9.7,6.7,9.6,6.9,9.4,7C9.2,7.2,9,7.3,8.7,7.3C8.5,7.4,8.2,7.4,7.8,7.4c-0.4,0-0.7,0-1-0.1C6.5,7.3,6.3,7.2,6.1,7.1V6.1h0.1
		c0.2,0.1,0.4,0.2,0.7,0.3c0.3,0.1,0.5,0.1,0.7,0.1c0.1,0,0.3,0,0.4,0c0.1,0,0.3-0.1,0.4-0.1c0.1-0.1,0.1-0.1,0.2-0.2
		c0-0.1,0.1-0.2,0.1-0.3c0-0.1,0-0.2-0.1-0.3C8.5,5.4,8.4,5.3,8.3,5.3c-0.1,0-0.2-0.1-0.4-0.1c-0.1,0-0.3,0-0.4,0H7.2V4.4h0.3
		c0.2,0,0.3,0,0.4,0c0.1,0,0.2,0,0.3-0.1c0.1,0,0.2-0.1,0.2-0.2c0-0.1,0.1-0.2,0.1-0.3c0-0.1,0-0.2-0.1-0.2c0-0.1-0.1-0.1-0.2-0.1
		C8.2,3.4,8.1,3.4,8,3.4c-0.1,0-0.2,0-0.3,0c-0.2,0-0.4,0-0.7,0.1C6.8,3.5,6.6,3.6,6.4,3.7H6.2V2.7C6.4,2.6,6.7,2.6,7,2.5
		c0.3-0.1,0.6-0.1,0.9-0.1c0.3,0,0.6,0,0.8,0.1c0.2,0.1,0.4,0.1,0.6,0.2c0.2,0.1,0.3,0.2,0.4,0.4c0.1,0.2,0.1,0.3,0.1,0.5
		c0,0.3-0.1,0.5-0.3,0.7C9.4,4.5,9.2,4.7,8.9,4.7v0c0.1,0,0.2,0,0.4,0.1C9.4,4.9,9.5,5,9.6,5.1z"/>
	<path id="path859" class="st0" d="M14.8,7.3H11V6.5c0.3-0.2,0.6-0.4,0.9-0.7c0.3-0.2,0.5-0.4,0.7-0.6C12.8,5,13,4.8,13.1,4.6
		c0.1-0.2,0.2-0.4,0.2-0.6c0-0.2-0.1-0.4-0.2-0.5c-0.1-0.1-0.3-0.2-0.6-0.2c-0.2,0-0.4,0-0.6,0.1c-0.2,0.1-0.4,0.2-0.6,0.3h-0.1V2.7
		c0.2-0.1,0.4-0.1,0.7-0.2c0.3-0.1,0.6-0.1,0.9-0.1c0.6,0,1.1,0.1,1.4,0.4c0.3,0.3,0.5,0.6,0.5,1.1c0,0.3-0.1,0.6-0.2,0.9
		C14.2,5,14,5.3,13.6,5.6c-0.2,0.2-0.4,0.4-0.6,0.5c-0.2,0.2-0.3,0.3-0.4,0.3h2.2L14.8,7.3z"/>
</g>
</svg>
