<?xml version="1.0" encoding="utf-8"?>
<!-- Generator: Adobe Illustrator 26.5.0, SVG Export Plug-In . SVG Version: 6.00 Build 0)  -->
<svg version="1.1"
	 id="svg833" xmlns:rdf="http://www.w3.org/1999/02/22-rdf-syntax-ns#" xmlns:cc="http://creativecommons.org/ns#" xmlns:dc="http://purl.org/dc/elements/1.1/" xmlns:svg="http://www.w3.org/2000/svg"
	 xmlns="http://www.w3.org/2000/svg" xmlns:xlink="http://www.w3.org/1999/xlink" x="0px" y="0px" viewBox="0 0 16 16"
	 style="enable-background:new 0 0 16 16;" xml:space="preserve">
<style type="text/css">
	.st0{fill:#D0D6D9;stroke:#7B848A;stroke-miterlimit:10;}
	.st1{fill:#7B848A;stroke:#ED6A5B;stroke-miterlimit:10;}
	.st2{fill:none;stroke:#60A141;stroke-miterlimit:10;}
</style>
<g id="g841">
</g>
<rect x="2.6" y="1.5" class="st0" width="11.1" height="12.9"/>
<line class="st0" x1="4" y1="7.4" x2="6.1" y2="7.4"/>
<line class="st0" x1="4" y1="9.4" x2="8" y2="9.4"/>
<line class="st0" x1="4.1" y1="11.4" x2="8" y2="11.4"/>
<line class="st0" x1="4" y1="3.5" x2="5" y2="3.5"/>
<line class="st0" x1="5" y1="4.5" x2="6.1" y2="4.5"/>
<line class="st0" x1="6.1" y1="3.5" x2="7.1" y2="3.5"/>
<line class="st0" x1="7.1" y1="4.5" x2="8.1" y2="4.5"/>
<line class="st0" x1="8" y1="3.5" x2="9" y2="3.5"/>
<line class="st0" x1="9" y1="4.5" x2="10.1" y2="4.5"/>
<line class="st0" x1="10.1" y1="3.5" x2="11.1" y2="3.5"/>
<line class="st0" x1="11.1" y1="4.5" x2="12.1" y2="4.5"/>
<line class="st0" x1="10.1" y1="7.4" x2="12.1" y2="7.4"/>
<line class="st1" x1="10" y1="9.4" x2="12.1" y2="9.4"/>
<line class="st2" x1="10.1" y1="11.4" x2="12.1" y2="11.4"/>
</svg>
