<?xml version="1.0" encoding="utf-8"?>
<!-- Generator: Adobe Illustrator 27.0.1, SVG Export Plug-In . SVG Version: 6.00 Build 0)  -->
<svg version="1.1" id="Calque_1" xmlns="http://www.w3.org/2000/svg" xmlns:xlink="http://www.w3.org/1999/xlink" x="0px" y="0px"
	 viewBox="0 0 512 2048" style="enable-background:new 0 0 512 2048;" xml:space="preserve">
<style type="text/css">
	.st0{fill:#E8E8E6;stroke:#000000;stroke-width:4;stroke-miterlimit:10;}
	.st1{fill:none;stroke:#000000;stroke-width:16;stroke-miterlimit:10;}
	.st2{fill:none;stroke:#000000;stroke-width:4;stroke-miterlimit:10;}
	.st3{opacity:0.5;fill:none;stroke:#3C3C3B;stroke-width:16;stroke-miterlimit:10;enable-background:new    ;}
	.st4{fill:url(#SVGID_1_);stroke:#000000;stroke-width:4;stroke-miterlimit:10;}
	.st5{opacity:0.5;fill:url(#SVGID_00000011729358731090180520000003589288041588967355_);enable-background:new    ;}
	.st6{fill:url(#SVGID_00000101089633809255433450000013381290244674009257_);stroke:#000000;stroke-width:4;stroke-miterlimit:10;}
	.st7{opacity:0.5;fill:url(#SVGID_00000013886489743670927460000000921087973142984869_);enable-background:new    ;}
	.st8{fill:#E8E8E8;stroke:#000000;stroke-width:4;stroke-miterlimit:10;}
	.st9{opacity:0.5;fill:none;stroke:#1A1A1A;stroke-width:16;stroke-miterlimit:10;enable-background:new    ;}
	.st10{fill:url(#SVGID_00000142862370633229915510000002752634119243738270_);stroke:#000000;stroke-width:4;stroke-miterlimit:10;}
	.st11{opacity:0.5;fill:url(#SVGID_00000023968149224586173680000009492827435278415517_);enable-background:new    ;}
	.st12{fill:url(#SVGID_00000039815574204478827890000009216482776260173481_);stroke:#000000;stroke-width:4;stroke-miterlimit:10;}
	.st13{opacity:0.5;fill:url(#SVGID_00000150787595694961169960000001448608618443207565_);enable-background:new    ;}
</style>
<g>
	<path class="st0" d="M32.2,171.2l28,48.6l12.1-7c-1.9-7.7,1.4-16.1,8.6-20.2c8.7-5.1,19.9-2.1,25,6.7c5.1,8.7,2.1,19.9-6.7,25
		c-7.2,4.2-16.1,2.8-21.8-2.7l-12.1,7l35.8,62.1l12.1-7c-1.9-7.7,1.4-16.1,8.6-20.2c8.7-5,19.9-2,25,6.7s2.1,19.9-6.7,25
		c-7.2,4.2-16.1,2.8-21.8-2.7l-12.1,7l35.8,62.1l12.1-7c-1.9-7.7,1.4-16.1,8.6-20.2c8.7-5,19.9-2,25,6.7s2.1,19.9-6.7,25
		c-7.2,4.2-16.1,2.8-21.8-2.7l-12.1,7l35.8,62.1l12.1-7c-1.9-7.7,1.4-16.1,8.6-20.2c8.7-5,19.9-2,25,6.7s2.1,19.9-6.7,25
		c-7.2,4.2-16.1,2.8-21.8-2.7l-12.1,7l29.9,51.9L481,340.8L295.3,19.2L32.2,171.2z"/>
	<path class="st0" d="M50.3,133.5l19.2,52.7l13.1-4.8c-0.6-7.9,4.1-15.6,12-18.4c9.5-3.4,20,1.4,23.4,10.9s-1.4,20-10.9,23.4
		c-7.8,2.9-16.4,0-21-6.4L73,195.7L97.4,263l13.1-4.8c-0.6-7.9,4.1-15.6,12-18.4c9.5-3.4,20,1.4,23.4,10.9s-1.4,20-10.9,23.4
		c-7.8,2.9-16.4,0-21-6.4l-13.1,4.8l24.5,67.3l13.1-4.8c-0.6-7.9,4.1-15.6,12-18.5c9.5-3.5,20,1.4,23.4,10.9s-1.4,20-10.9,23.4
		c-7.8,2.9-16.4,0-21-6.4l-13.1,4.8l24.5,67.3l13.1-4.8c-0.6-7.9,4.1-15.6,12-18.5c9.5-3.5,20,1.4,23.4,10.9s-1.4,20-10.9,23.4
		c-7.8,2.9-16.4,0-21-6.4l-13.1,4.8l20.5,56.3L463,378.3L336,29.4L50.3,133.5z"/>
	<path class="st0" d="M74.7,99.5l9.7,55.3l13.8-2.4c0.8-7.9,6.8-14.6,15-16.1c9.9-1.8,19.4,4.9,21.2,14.8s-4.9,19.4-14.8,21.2
		c-8.2,1.4-16.1-2.8-19.6-10l-13.8,2.4l12.4,70.6l13.8-2.4c0.8-7.9,6.8-14.6,15-16.1c9.9-1.8,19.4,4.9,21.2,14.8
		s-4.9,19.4-14.8,21.2c-8.2,1.4-16.1-2.8-19.6-10l-13.8,2.4l12.4,70.6l13.8-2.4c0.8-7.9,6.8-14.6,15-16.1
		c9.9-1.8,19.4,4.9,21.2,14.8s-4.9,19.4-14.8,21.2c-8.2,1.5-16.1-2.8-19.6-10l-13.8,2.4l12.4,70.6l13.8-2.4
		c0.8-7.9,6.8-14.6,15-16.1c9.9-1.8,19.4,4.9,21.2,14.8s-4.9,19.4-14.8,21.2c-8.2,1.5-16.1-2.8-19.6-10l-13.8,2.4l10.4,59
		l299.2-52.8L374,46.8L74.7,99.5z"/>
	<rect x="176" y="101.9" transform="matrix(0.9848 -0.1736 0.1736 0.9848 -18.6206 34.1834)" width="20.2" height="43.3"/>
	<rect x="208.9" y="96.1" transform="matrix(0.9848 -0.1736 0.1736 0.9848 -17.1151 39.8072)" width="20.2" height="43.3"/>
	<rect x="241.8" y="90.2" transform="matrix(0.9848 -0.1736 0.1736 0.9848 -15.5926 45.4264)" width="20.2" height="43.3"/>
	<rect x="274.7" y="84.4" transform="matrix(0.9848 -0.1736 0.1736 0.9848 -14.0872 51.0499)" width="20.2" height="43.3"/>
	<line class="st1" x1="164.2" y1="178.2" x2="353.3" y2="144.9"/>
	<line class="st2" x1="169.9" y1="210.6" x2="359" y2="177.2"/>
	<line class="st2" x1="172.8" y1="226.6" x2="361.8" y2="193.3"/>
	<line class="st2" x1="175.6" y1="242.7" x2="364.7" y2="209.4"/>
	<line class="st2" x1="178.4" y1="258.8" x2="367.5" y2="225.5"/>
	<line class="st2" x1="181.3" y1="274.9" x2="370.4" y2="241.6"/>
	<line class="st2" x1="184.1" y1="291" x2="373.2" y2="257.7"/>
	<line class="st2" x1="186.9" y1="307.1" x2="376" y2="273.7"/>
	<line class="st2" x1="189.8" y1="323.2" x2="378.9" y2="289.8"/>
	<line class="st2" x1="192.6" y1="339.3" x2="381.7" y2="305.9"/>
	<line class="st2" x1="195.4" y1="355.4" x2="384.5" y2="322"/>
	<line class="st2" x1="198.3" y1="371.4" x2="387.4" y2="338.1"/>
	<line class="st2" x1="201.1" y1="387.5" x2="323.2" y2="366"/>
</g>
<polygon class="st3" points="337.5,119 263.4,193.1 189.3,119 119.6,188.8 193.7,262.9 119.6,337 189.3,406.7 263.4,332.6 
	337.5,406.7 407.3,337 333.2,262.9 407.3,188.8 "/>
<linearGradient id="SVGID_1_" gradientUnits="userSpaceOnUse" x1="256.55" y1="-880.2" x2="256.55" y2="-1167.8" gradientTransform="matrix(1 0 0 1 0 1280)">
	<stop  offset="0" style="stop-color:#A8D9EA"/>
	<stop  offset="1" style="stop-color:#236BB3"/>
</linearGradient>
<polygon class="st4" points="330.7,112.2 256.6,186.3 182.5,112.2 112.7,181.9 186.8,256 112.7,330.1 182.5,399.8 256.6,325.7 
	330.7,399.8 400.4,330.1 326.3,256 400.4,181.9 "/>
<linearGradient id="SVGID_00000134248975207165706130000011047397738784373399_" gradientUnits="userSpaceOnUse" x1="255.85" y1="-886.6" x2="255.85" y2="-1028.2999" gradientTransform="matrix(1 0 0 1 0 1280)">
	<stop  offset="0" style="stop-color:#FFFEF9"/>
	<stop  offset="1" style="stop-color:#1A63AB"/>
</linearGradient>
<path style="opacity:0.5;fill:url(#SVGID_00000134248975207165706130000011047397738784373399_);enable-background:new    ;" d="
	M192.6,258.8l-71,71.1l56.8,63.5l80.3-78.9l70.1,75.7l61.3-59.8l-75.7-78.7c0,0-27.5,18-41.4,18s-37.8-11-49.2-13.8
	C212.3,253.2,192.6,258.8,192.6,258.8z"/>
<g>
	<path class="st0" d="M33.3,1195.2l28,48.6l12.1-7c-1.9-7.7,1.4-16.1,8.6-20.2c8.7-5.1,19.9-2.1,25,6.7c5.1,8.7,2.1,19.9-6.7,25
		c-7.2,4.2-16.1,2.8-21.8-2.7l-12.1,7l35.8,62.1l12.1-7c-1.9-7.7,1.4-16.1,8.6-20.2c8.7-5.1,19.9-2.1,25,6.7
		c5.1,8.7,2.1,19.9-6.7,25c-7.2,4.2-16.1,2.8-21.8-2.7l-12.1,7l35.8,62.1l12.1-7c-1.9-7.7,1.4-16.1,8.6-20.2
		c8.7-5.1,19.9-2.1,25,6.7c5.1,8.7,2.1,19.9-6.7,25c-7.2,4.2-16.1,2.8-21.8-2.7l-12.1,7l35.8,62.1l12.1-7
		c-1.9-7.7,1.4-16.1,8.6-20.2c8.7-5.1,19.9-2.1,25,6.7c5.1,8.7,2.1,19.9-6.7,25c-7.2,4.2-16.1,2.8-21.8-2.7l-12.1,7l29.9,51.9
		l263.1-151.9l-185.7-321.6L33.3,1195.2z"/>
	<path class="st0" d="M51.4,1157.5l19.2,52.7l13.1-4.8c-0.6-7.9,4.1-15.6,12-18.4c9.5-3.4,20,1.4,23.4,10.9s-1.4,20-10.9,23.4
		c-7.8,2.8-16.4,0-21-6.4l-13.1,4.8l24.5,67.3l13.1-4.8c-0.6-7.9,4.1-15.6,12-18.4c9.5-3.4,20,1.4,23.4,10.9s-1.4,20-10.9,23.4
		c-7.8,2.8-16.4,0-21-6.4l-13.1,4.8l24.5,67.3l13.1-4.8c-0.6-7.9,4.1-15.6,12-18.4c9.5-3.4,20,1.4,23.4,10.9s-1.4,20-10.9,23.4
		c-7.8,2.8-16.4,0-21-6.4l-13.1,4.8l24.5,67.3l13.1-4.8c-0.6-7.9,4.1-15.6,12-18.4c9.5-3.4,20,1.4,23.4,10.9s-1.4,20-10.9,23.4
		c-7.8,2.8-16.4,0-21-6.4l-13.1,4.8l20.5,56.3l285.5-103.9l-127-348.9L51.4,1157.5z"/>
	<path class="st0" d="M75.8,1123.5l9.7,55.2l13.8-2.4c0.8-7.9,6.8-14.6,15-16.1c9.9-1.8,19.4,4.9,21.2,14.8s-4.9,19.4-14.8,21.2
		c-8.2,1.4-16.1-2.8-19.6-10l-13.8,2.4l12.4,70.6l13.8-2.4c0.8-7.9,6.8-14.6,15-16.1c9.9-1.8,19.4,4.9,21.2,14.8
		s-4.9,19.4-14.8,21.2c-8.2,1.4-16.1-2.8-19.6-10l-13.8,2.4l12.4,70.6l13.8-2.4c0.8-7.9,6.8-14.6,15-16.1
		c9.9-1.8,19.4,4.9,21.2,14.8s-4.9,19.4-14.8,21.2c-8.2,1.4-16.1-2.8-19.6-10l-13.8,2.4l12.4,70.6l13.8-2.4
		c0.8-7.9,6.8-14.6,15-16.1c9.9-1.8,19.4,4.9,21.2,14.8s-4.9,19.4-14.8,21.2c-8.2,1.4-16.1-2.8-19.6-10l-13.8,2.4l10.4,59
		l299.2-52.8L375,1070.6L75.8,1123.5z"/>
	<rect x="177" y="1125.9" transform="matrix(0.9848 -0.1736 0.1736 0.9848 -196.3746 49.9056)" width="20.2" height="43.3"/>
	<rect x="210" y="1120" transform="matrix(0.9848 -0.1736 0.1736 0.9848 -194.8477 55.5417)" width="20.2" height="43.3"/>
	<rect x="242.9" y="1114.2" transform="matrix(0.9848 -0.1736 0.1736 0.9848 -193.3421 61.1655)" width="20.2" height="43.3"/>
	<rect x="275.8" y="1108.4" transform="matrix(0.9848 -0.1736 0.1736 0.9848 -191.8366 66.789)" width="20.2" height="43.3"/>
	<line class="st1" x1="165.3" y1="1202.2" x2="354.4" y2="1168.8"/>
	<line class="st2" x1="171.1" y1="1234.6" x2="360.1" y2="1201.2"/>
	<line class="st2" x1="173.9" y1="1250.7" x2="363" y2="1217.3"/>
	<line class="st2" x1="176.7" y1="1266.7" x2="365.8" y2="1233.4"/>
	<line class="st2" x1="179.6" y1="1282.8" x2="368.6" y2="1249.5"/>
	<line class="st2" x1="182.4" y1="1298.9" x2="371.5" y2="1265.6"/>
	<line class="st2" x1="185.2" y1="1315" x2="374.3" y2="1281.7"/>
	<line class="st2" x1="188.1" y1="1331.1" x2="377.2" y2="1297.7"/>
	<line class="st2" x1="190.9" y1="1347.2" x2="380" y2="1313.8"/>
	<line class="st2" x1="193.7" y1="1363.3" x2="382.8" y2="1329.9"/>
	<line class="st2" x1="196.6" y1="1379.3" x2="385.7" y2="1346"/>
	<line class="st2" x1="199.4" y1="1395.4" x2="388.5" y2="1362.1"/>
	<line class="st2" x1="202.2" y1="1411.5" x2="324.4" y2="1390"/>
</g>
<polygon class="st3" points="338.7,1143 264.6,1217.1 190.5,1143 120.7,1212.8 194.8,1286.9 120.7,1361 190.5,1430.7 264.6,1356.6 
	338.7,1430.7 408.4,1361 334.3,1286.9 408.4,1212.8 "/>
<linearGradient id="SVGID_00000047750537926675289670000009578100939914502046_" gradientUnits="userSpaceOnUse" x1="257.7" y1="143.8" x2="257.7" y2="-143.8" gradientTransform="matrix(1 0 0 1 0 1280)">
	<stop  offset="0" style="stop-color:#9CCA84"/>
	<stop  offset="1" style="stop-color:#348E37"/>
</linearGradient>
<polygon style="fill:url(#SVGID_00000047750537926675289670000009578100939914502046_);stroke:#000000;stroke-width:4;stroke-miterlimit:10;" points="
	331.8,1136.2 257.7,1210.3 183.6,1136.2 113.9,1205.9 188,1280 113.9,1354.1 183.6,1423.8 257.7,1349.7 331.8,1423.8 401.5,1354.1 
	327.4,1280 401.5,1205.9 "/>
<linearGradient id="SVGID_00000101071261121245849680000006467762878596564359_" gradientUnits="userSpaceOnUse" x1="256.95" y1="137.4" x2="256.95" y2="-4.3" gradientTransform="matrix(1 0 0 1 0 1280)">
	<stop  offset="0" style="stop-color:#FFFEF9"/>
	<stop  offset="1" style="stop-color:#1A63AB"/>
</linearGradient>
<path style="opacity:0.5;fill:url(#SVGID_00000101071261121245849680000006467762878596564359_);enable-background:new    ;" d="
	M193.7,1282.8l-71,71.1l56.8,63.5l80.3-78.9l70.1,75.7l61.3-59.8l-75.7-78.7c0,0-27.5,18-41.4,18s-37.8-11-49.2-13.8
	S193.7,1282.8,193.7,1282.8z"/>
<g>
	<path class="st8" d="M33.2,1707.2l28,48.6l12.1-7c-1.9-7.7,1.4-16.1,8.6-20.2c8.7-5.1,19.9-2.1,25,6.7c5.1,8.7,2.1,19.9-6.7,25
		c-7.2,4.2-16.1,2.8-21.8-2.7l-12.1,7l35.8,62.1l12.1-7c-1.9-7.7,1.4-16.1,8.6-20.2c8.7-5.1,19.9-2.1,25,6.7
		c5.1,8.7,2.1,19.9-6.7,25c-7.2,4.2-16.1,2.8-21.8-2.7l-12.1,7l35.8,62.1l12.1-7c-1.9-7.7,1.4-16.1,8.6-20.2
		c8.7-5.1,19.9-2.1,25,6.7c5.1,8.7,2.1,19.9-6.7,25c-7.2,4.2-16.1,2.8-21.8-2.7l-12.1,7l35.8,62.1l12.1-7
		c-1.9-7.7,1.4-16.1,8.6-20.2c8.7-5.1,19.9-2.1,25,6.7c5.1,8.7,2.1,19.9-6.7,25c-7.2,4.2-16.1,2.8-21.8-2.7l-12.1,7l29.9,51.9
		l263.2-151.9l-185.6-321.6L33.2,1707.2z"/>
	<path class="st8" d="M51.3,1669.5l19.2,52.7l13.1-4.8c-0.6-7.9,4.1-15.6,12-18.4c9.5-3.4,20,1.4,23.4,10.9s-1.4,20-10.9,23.4
		c-7.8,2.8-16.4,0-21-6.4l-13.1,4.8l24.5,67.3l13.1-4.8c-0.6-7.9,4.1-15.6,12-18.4c9.5-3.4,20,1.4,23.4,10.9s-1.4,20-10.9,23.4
		c-7.8,2.8-16.4,0-21-6.4l-13.1,4.8l24.5,67.3l13.1-4.8c-0.6-7.9,4.1-15.6,12-18.4c9.5-3.4,20,1.4,23.4,10.9s-1.4,20-10.9,23.4
		c-7.8,2.8-16.4,0-21-6.4l-13.1,4.8l24.5,67.3l13.1-4.8c-0.6-7.9,4.1-15.6,12-18.4c9.5-3.4,20,1.4,23.4,10.9s-1.4,20-10.9,23.4
		c-7.8,2.8-16.4,0-21-6.4l-13.1,4.8l20.5,56.3L464,1914.5l-127-348.9L51.3,1669.5z"/>
	<path class="st8" d="M75.7,1635.5l9.7,55.2l13.8-2.4c0.8-7.9,6.8-14.6,15-16.1c9.9-1.8,19.4,4.9,21.2,14.8s-4.9,19.4-14.8,21.2
		c-8.2,1.4-16.1-2.8-19.6-10l-13.8,2.4l12.4,70.6l13.8-2.4c0.8-7.9,6.8-14.6,15-16.1c9.9-1.8,19.4,4.9,21.2,14.8
		s-4.9,19.4-14.8,21.2c-8.2,1.4-16.1-2.8-19.6-10l-13.8,2.4l12.4,70.6l13.8-2.4c0.8-7.9,6.8-14.6,15-16.1
		c9.9-1.8,19.4,4.9,21.2,14.8s-4.9,19.4-14.8,21.2c-8.2,1.4-16.1-2.8-19.6-10l-13.8,2.4l12.4,70.6l13.8-2.4
		c0.8-7.9,6.8-14.6,15-16.1c9.9-1.8,19.4,4.9,21.2,14.8s-4.9,19.4-14.8,21.2c-8.2,1.4-16.1-2.8-19.6-10l-13.8,2.4l10.4,59
		l299.2-52.8L375,1582.8L75.7,1635.5z"/>
	<rect x="176.9" y="1637.8" transform="matrix(0.9848 -0.1736 0.1736 0.9848 -285.2403 57.6574)" width="20.2" height="43.3"/>
	<rect x="209.8" y="1632" transform="matrix(0.9848 -0.1736 0.1736 0.9848 -283.7347 63.2812)" width="20.2" height="43.3"/>
	<rect x="242.7" y="1626.2" transform="matrix(0.9848 -0.1736 0.1736 0.9848 -282.2291 68.905)" width="20.2" height="43.3"/>
	<rect x="275.7" y="1620.4" transform="matrix(0.9848 -0.1736 0.1736 0.9848 -280.7191 74.5453)" width="20.2" height="43.3"/>
	<line class="st1" x1="165.2" y1="1714.2" x2="354.3" y2="1680.8"/>
	<line class="st2" x1="170.9" y1="1746.6" x2="360" y2="1713.2"/>
	<line class="st2" x1="173.7" y1="1762.7" x2="362.8" y2="1729.3"/>
	<line class="st2" x1="176.6" y1="1778.7" x2="365.7" y2="1745.4"/>
	<line class="st2" x1="179.4" y1="1794.8" x2="368.5" y2="1761.5"/>
	<line class="st2" x1="182.2" y1="1810.9" x2="371.3" y2="1777.6"/>
	<line class="st2" x1="185.1" y1="1827" x2="374.2" y2="1793.7"/>
	<line class="st2" x1="187.9" y1="1843.1" x2="377" y2="1809.7"/>
	<line class="st2" x1="190.8" y1="1859.2" x2="379.9" y2="1825.8"/>
	<line class="st2" x1="193.6" y1="1875.3" x2="382.7" y2="1841.9"/>
	<line class="st2" x1="196.4" y1="1891.3" x2="385.5" y2="1858"/>
	<line class="st2" x1="199.3" y1="1907.4" x2="388.4" y2="1874.1"/>
	<line class="st2" x1="202.1" y1="1923.5" x2="324.2" y2="1902"/>
</g>
<polygon class="st9" points="338.5,1655 264.4,1729.1 190.3,1655 120.6,1724.8 194.7,1798.9 120.6,1873 190.3,1942.7 264.4,1868.6 
	338.5,1942.7 408.2,1873 334.1,1798.9 408.2,1724.8 "/>
<linearGradient id="SVGID_00000134212221442458627240000013278148160165812649_" gradientUnits="userSpaceOnUse" x1="257.55" y1="655.8" x2="257.55" y2="368.2" gradientTransform="matrix(1 0 0 1 0 1280)">
	<stop  offset="0" style="stop-color:#DDDDDD"/>
	<stop  offset="1" style="stop-color:#6D6D6D"/>
</linearGradient>
<polygon style="fill:url(#SVGID_00000134212221442458627240000013278148160165812649_);stroke:#000000;stroke-width:4;stroke-miterlimit:10;" points="
	331.6,1648.2 257.6,1722.3 183.5,1648.2 113.7,1717.9 187.8,1792 113.7,1866.1 183.5,1935.8 257.6,1861.7 331.6,1935.8 
	401.4,1866.1 327.3,1792 401.4,1717.9 "/>
<linearGradient id="SVGID_00000154426107387204572710000006461359656106438026_" gradientUnits="userSpaceOnUse" x1="256.85" y1="649.4" x2="256.85" y2="507.7" gradientTransform="matrix(1 0 0 1 0 1280)">
	<stop  offset="0" style="stop-color:#FEFEFE"/>
	<stop  offset="1" style="stop-color:#636363"/>
</linearGradient>
<path style="opacity:0.5;fill:url(#SVGID_00000154426107387204572710000006461359656106438026_);enable-background:new    ;" d="
	M193.6,1794.8l-71,71.1l56.8,63.5l80.3-78.9l70.1,75.7l61.3-59.8l-75.7-78.7c0,0-27.5,18-41.4,18s-37.8-11-49.2-13.8
	S193.6,1794.8,193.6,1794.8z"/>
<g>
	<path class="st0" d="M32.7,683.2l28,48.6l12.1-7c-1.9-7.7,1.4-16.1,8.6-20.2c8.7-5,19.9-2,25,6.7s2.1,19.9-6.7,25
		c-7.2,4.2-16.1,2.8-21.8-2.7l-12.1,7l35.8,62.1l12.1-7c-1.9-7.7,1.4-16.1,8.6-20.2c8.7-5,19.9-2,25,6.7s2.1,19.9-6.7,25
		c-7.2,4.2-16.1,2.8-21.8-2.7l-12.1,7l35.8,62.1l12.1-7c-1.9-7.7,1.4-16.1,8.6-20.2c8.7-5,19.9-2,25,6.7s2.1,19.9-6.7,25
		c-7.2,4.2-16.1,2.8-21.8-2.7l-12.1,7l35.8,62.1l12.1-7c-1.9-7.7,1.4-16.1,8.6-20.2c8.7-5,19.9-2,25,6.7s2.1,19.9-6.7,25
		c-7.2,4.2-16.1,2.8-21.8-2.7l-12.1,7l29.9,51.9l263.1-151.9L295.9,531.2L32.7,683.2z"/>
	<path class="st0" d="M50.9,645.5l19.2,52.7l13.1-4.8c-0.6-7.9,4.1-15.6,12-18.5c9.5-3.5,20,1.4,23.4,10.9s-1.4,20-10.9,23.4
		c-7.8,2.8-16.4,0-21-6.4l-13.1,4.8L98,775l13.1-4.8c-0.6-7.9,4.1-15.6,12-18.5c9.5-3.5,20,1.4,23.4,10.9s-1.4,20-10.9,23.4
		c-7.8,2.8-16.4,0-21-6.4l-13.1,4.8l24.5,67.3l13.1-4.8c-0.6-7.9,4.1-15.6,12-18.5c9.5-3.5,20,1.4,23.4,10.9s-1.4,20-10.9,23.4
		c-7.8,2.8-16.4,0-21-6.4l-13.1,4.8l24.5,67.3l13.1-4.8c-0.6-7.9,4.1-15.6,12-18.5c9.5-3.5,20,1.4,23.4,10.9s-1.4,20-10.9,23.4
		c-7.8,2.8-16.4,0-21-6.4l-13.1,4.8l20.5,56.3l285.6-103.9l-127-348.9L50.9,645.5z"/>
	<path class="st0" d="M75.3,611.5l9.7,55.2l13.8-2.4c0.8-7.9,6.8-14.6,15-16.1c9.9-1.8,19.4,4.9,21.2,14.8s-4.9,19.4-14.8,21.2
		c-8.2,1.5-16.1-2.8-19.6-10l-13.8,2.4l12.4,70.6l13.8-2.4c0.8-7.9,6.8-14.6,15-16.1c9.9-1.8,19.4,4.9,21.2,14.8
		s-4.9,19.4-14.8,21.2c-8.2,1.5-16.1-2.8-19.6-10l-13.8,2.4l12.4,70.6l13.8-2.4c0.8-7.9,6.8-14.6,15-16.1
		c9.9-1.8,19.4,4.9,21.2,14.8s-4.9,19.4-14.8,21.2c-8.2,1.5-16.1-2.8-19.6-10l-13.8,2.4l12.4,70.6l13.8-2.4
		c0.8-7.9,6.8-14.6,15-16.1c9.9-1.8,19.4,4.9,21.2,14.8s-4.9,19.4-14.8,21.2c-8.2,1.5-16.1-2.8-19.6-10l-13.8,2.4l10.4,59L439,924.5
		l-64.5-365.7L75.3,611.5z"/>
	<rect x="176.5" y="613.9" transform="matrix(0.9848 -0.1736 0.1736 0.9848 -107.4976 42.0445)" width="20.2" height="43.3"/>
	<rect x="209.4" y="608" transform="matrix(0.9848 -0.1736 0.1736 0.9848 -105.9752 47.6638)" width="20.2" height="43.3"/>
	<rect x="242.4" y="602.2" transform="matrix(0.9848 -0.1736 0.1736 0.9848 -104.4651 53.3044)" width="20.2" height="43.3"/>
	<rect x="275.3" y="596.4" transform="matrix(0.9848 -0.1736 0.1736 0.9848 -102.9597 58.9279)" width="20.2" height="43.3"/>
	<line class="st1" x1="164.8" y1="690.2" x2="353.9" y2="656.8"/>
	<line class="st2" x1="170.5" y1="722.6" x2="359.6" y2="689.2"/>
	<line class="st2" x1="173.3" y1="738.7" x2="362.4" y2="705.3"/>
	<line class="st2" x1="176.2" y1="754.7" x2="365.2" y2="721.4"/>
	<line class="st2" x1="179" y1="770.8" x2="368.1" y2="737.5"/>
	<line class="st2" x1="181.8" y1="786.9" x2="370.9" y2="753.6"/>
	<line class="st2" x1="184.7" y1="803" x2="373.8" y2="769.7"/>
	<line class="st2" x1="187.5" y1="819.1" x2="376.6" y2="785.7"/>
	<line class="st2" x1="190.3" y1="835.2" x2="379.4" y2="801.8"/>
	<line class="st2" x1="193.2" y1="851.3" x2="382.3" y2="817.9"/>
	<line class="st2" x1="196" y1="867.3" x2="385.1" y2="834"/>
	<line class="st2" x1="198.9" y1="883.4" x2="387.9" y2="850.1"/>
	<line class="st2" x1="201.7" y1="899.5" x2="323.8" y2="878"/>
</g>
<polygon class="st3" points="338.1,631 264,705.1 189.9,631 120.2,700.8 194.3,774.9 120.2,849 189.9,918.7 264,844.6 338.1,918.7 
	407.8,849 333.7,774.9 407.8,700.8 "/>
<linearGradient id="SVGID_00000174585108516516064180000010191688442976188588_" gradientUnits="userSpaceOnUse" x1="257.15" y1="-368.2" x2="257.15" y2="-655.8" gradientTransform="matrix(1 0 0 1 0 1280)">
	<stop  offset="0" style="stop-color:#FED905"/>
	<stop  offset="1" style="stop-color:#C08010"/>
</linearGradient>
<polygon style="fill:url(#SVGID_00000174585108516516064180000010191688442976188588_);stroke:#000000;stroke-width:4;stroke-miterlimit:10;" points="
	331.2,624.2 257.1,698.3 183,624.2 113.3,693.9 187.4,768 113.3,842.1 183,911.8 257.1,837.7 331.2,911.8 401,842.1 326.9,768 
	401,693.9 "/>
<linearGradient id="SVGID_00000040546103387713633160000012208243849814982559_" gradientUnits="userSpaceOnUse" x1="256.45" y1="-374.6" x2="256.45" y2="-516.3" gradientTransform="matrix(1 0 0 1 0 1280)">
	<stop  offset="0" style="stop-color:#FFFEF9"/>
	<stop  offset="1" style="stop-color:#1A63AB"/>
</linearGradient>
<path style="opacity:0.5;fill:url(#SVGID_00000040546103387713633160000012208243849814982559_);enable-background:new    ;" d="
	M193.2,770.8l-71,71.1l56.8,63.5l80.3-78.9l70.1,75.7l61.3-59.8L315,763.7c0,0-27.5,18-41.4,18s-37.8-11-49.2-13.8
	S193.2,770.8,193.2,770.8z"/>
</svg>
