<?xml version="1.0" encoding="utf-8"?>
<!-- Generator: Adobe Illustrator 27.0.1, SVG Export Plug-In . SVG Version: 6.00 Build 0)  -->
<svg version="1.1" id="Calque_1" xmlns="http://www.w3.org/2000/svg" xmlns:xlink="http://www.w3.org/1999/xlink" x="0px" y="0px"
	 viewBox="0 0 512 2048" style="enable-background:new 0 0 512 2048;" xml:space="preserve">
<style type="text/css">
	.st0{fill:url(#SVGID_1_);stroke:#000000;stroke-miterlimit:10;}
	.st1{fill:#415B6A;stroke:#020203;stroke-width:4;stroke-miterlimit:10;}
	.st2{fill:#E9E8E7;stroke:#020203;stroke-width:4;stroke-miterlimit:10;}
	.st3{fill:url(#SVGID_00000150102276937528529590000009744493885337369472_);stroke:#000000;stroke-miterlimit:10;}
	.st4{fill:#F3920D;stroke:#020203;stroke-width:4;stroke-miterlimit:10;}
	.st5{fill:url(#SVGID_00000053510283723927158310000013139588341557983152_);stroke:#000000;stroke-miterlimit:10;}
	.st6{fill:#3EB2E6;stroke:#020203;stroke-width:4;stroke-miterlimit:10;}
	.st7{fill:url(#SVGID_00000003070771263195228090000014862409248074113967_);stroke:#000000;stroke-miterlimit:10;}
	.st8{fill:#202020;stroke:#000000;stroke-width:4;stroke-miterlimit:10;}
	.st9{fill:#E9E9E9;stroke:#000000;stroke-width:4;stroke-miterlimit:10;}
</style>
<g>
	<linearGradient id="SVGID_1_" gradientUnits="userSpaceOnUse" x1="122.3185" y1="309.5477" x2="389.6815" y2="309.5477">
		<stop  offset="0" style="stop-color:#435264"/>
		<stop  offset="0.2495" style="stop-color:#B4B5CD"/>
		<stop  offset="0.5203" style="stop-color:#6B7B8D"/>
		<stop  offset="0.7726" style="stop-color:#B4B5CD"/>
		<stop  offset="0.9978" style="stop-color:#7A8493"/>
	</linearGradient>
	<path class="st0" d="M363.81,431.86c-72.5,34.82-144.43,35.4-215.77,0.04c-4.4-2.18-7.3-6.57-7.65-11.47L122.32,160.9
		c89.12,47,178.24,47,267.36,0l-18.07,259.41C371.27,425.28,368.3,429.7,363.81,431.86z"/>
	<path class="st1" d="M388.21,159.95c0,12.08-64.07,36.2-132.56,36.2s-132.02-24.41-132.02-36.49c0-12.08,63.88-21.87,132.37-21.87
		S388.21,147.87,388.21,159.95z"/>
	<path class="st2" d="M342.96,53.81L136.75,90.17l6.71,38.08l9.47-1.67c0.57-5.45,4.67-10.09,10.33-11.08
		c6.85-1.21,13.38,3.37,14.59,10.22c1.21,6.85-3.37,13.38-10.22,14.59c-5.67,1-11.1-1.96-13.5-6.88l-9.47,1.67l7.36,41.73
		c3.61,1.48,7.23,2.88,10.84,4.21c0.94-5,4.87-9.14,10.19-10.07c6.85-1.21,13.38,3.37,14.59,10.22c0.46,2.64,0.07,5.22-0.98,7.48
		c59.22,16.2,118.45,11.65,177.67-13.66L342.96,53.81z"/>
</g>
<linearGradient id="SVGID_00000015325575338804157400000000277862381954384312_" gradientUnits="userSpaceOnUse" x1="122.3185" y1="821.5477" x2="389.6815" y2="821.5477">
	<stop  offset="0" style="stop-color:#435264"/>
	<stop  offset="0.2495" style="stop-color:#B4B5CD"/>
	<stop  offset="0.5203" style="stop-color:#6B7B8D"/>
	<stop  offset="0.7726" style="stop-color:#B4B5CD"/>
	<stop  offset="0.9978" style="stop-color:#7A8493"/>
</linearGradient>
<path style="fill:url(#SVGID_00000015325575338804157400000000277862381954384312_);stroke:#000000;stroke-miterlimit:10;" d="
	M363.81,943.86c-72.5,34.82-144.43,35.4-215.77,0.04c-4.4-2.18-7.3-6.57-7.65-11.47L122.32,672.9c89.12,47,178.24,47,267.36,0
	l-18.07,259.41C371.27,937.28,368.3,941.7,363.81,943.86z"/>
<path class="st1" d="M388.21,671.95c0,12.08-64.07,36.2-132.56,36.2s-132.02-24.41-132.02-36.49s63.88-21.87,132.37-21.87
	S388.21,659.87,388.21,671.95z"/>
<path class="st4" d="M342.96,565.81l-206.21,36.37l6.71,38.08l9.47-1.67c0.57-5.45,4.67-10.09,10.33-11.08
	c6.85-1.21,13.38,3.37,14.59,10.22c1.21,6.85-3.37,13.38-10.22,14.59c-5.67,1-11.1-1.96-13.5-6.88l-9.47,1.67l7.36,41.73
	c3.61,1.48,7.23,2.88,10.84,4.21c0.94-5,4.87-9.14,10.19-10.07c6.85-1.21,13.38,3.37,14.59,10.22c0.46,2.64,0.07,5.22-0.98,7.48
	c59.22,16.2,118.45,11.65,177.67-13.66L342.96,565.81z"/>
<linearGradient id="SVGID_00000074431946525596396590000006954036219930174888_" gradientUnits="userSpaceOnUse" x1="122.3185" y1="1333.5477" x2="389.6815" y2="1333.5477">
	<stop  offset="0" style="stop-color:#435264"/>
	<stop  offset="0.2495" style="stop-color:#B4B5CD"/>
	<stop  offset="0.5203" style="stop-color:#6B7B8D"/>
	<stop  offset="0.7726" style="stop-color:#B4B5CD"/>
	<stop  offset="0.9978" style="stop-color:#7A8493"/>
</linearGradient>
<path style="fill:url(#SVGID_00000074431946525596396590000006954036219930174888_);stroke:#000000;stroke-miterlimit:10;" d="
	M363.81,1455.86c-72.5,34.82-144.43,35.4-215.77,0.04c-4.4-2.18-7.3-6.57-7.65-11.47l-18.08-259.53c89.12,47,178.24,47,267.36,0
	l-18.07,259.41C371.27,1449.28,368.3,1453.7,363.81,1455.86z"/>
<path class="st1" d="M388.21,1183.95c0,12.08-64.07,36.2-132.56,36.2s-132.02-24.41-132.02-36.49c0-12.08,63.88-21.87,132.37-21.87
	S388.21,1171.87,388.21,1183.95z"/>
<path class="st6" d="M342.96,1077.81l-206.21,36.37l6.71,38.08l9.47-1.67c0.57-5.45,4.67-10.09,10.33-11.08
	c6.85-1.21,13.38,3.37,14.59,10.22c1.21,6.85-3.37,13.38-10.22,14.59c-5.67,1-11.1-1.96-13.5-6.88l-9.47,1.67l7.36,41.73
	c3.61,1.48,7.23,2.88,10.84,4.21c0.94-5,4.87-9.14,10.19-10.07c6.85-1.21,13.38,3.37,14.59,10.22c0.46,2.64,0.07,5.22-0.98,7.48
	c59.22,16.2,118.45,11.65,177.67-13.66L342.96,1077.81z"/>
<g>
	
		<linearGradient id="SVGID_00000052802743646675059360000010783822068413523104_" gradientUnits="userSpaceOnUse" x1="122.3185" y1="1845.5477" x2="389.6815" y2="1845.5477">
		<stop  offset="0" style="stop-color:#141414"/>
		<stop  offset="0.2495" style="stop-color:#B8B8B8"/>
		<stop  offset="0.5203" style="stop-color:#646464"/>
		<stop  offset="0.7726" style="stop-color:#B8B8B8"/>
		<stop  offset="0.9978" style="stop-color:#717171"/>
	</linearGradient>
	<path style="fill:url(#SVGID_00000052802743646675059360000010783822068413523104_);stroke:#000000;stroke-miterlimit:10;" d="
		M363.81,1967.86c-72.5,34.82-144.43,35.4-215.77,0.04c-4.4-2.18-7.3-6.57-7.65-11.47l-18.08-259.53c89.12,47,178.24,47,267.36,0
		l-18.07,259.41C371.27,1961.28,368.3,1965.7,363.81,1967.86z"/>
	<path class="st8" d="M388.21,1695.95c0,12.08-64.07,36.2-132.56,36.2s-132.02-24.41-132.02-36.49c0-12.08,63.88-21.87,132.37-21.87
		S388.21,1683.87,388.21,1695.95z"/>
	<path class="st9" d="M342.96,1589.81l-206.21,36.37l6.71,38.08l9.47-1.67c0.57-5.45,4.67-10.09,10.33-11.08
		c6.85-1.21,13.38,3.37,14.59,10.22c1.21,6.85-3.37,13.38-10.22,14.59c-5.67,1-11.1-1.96-13.5-6.88l-9.47,1.67l7.36,41.73
		c3.61,1.48,7.23,2.88,10.84,4.21c0.94-5,4.87-9.14,10.19-10.07c6.85-1.21,13.38,3.37,14.59,10.22c0.46,2.64,0.07,5.22-0.98,7.48
		c59.22,16.2,118.45,11.65,177.67-13.66L342.96,1589.81z"/>
</g>
</svg>
