<?xml version="1.0" encoding="utf-8"?>
<!-- Generator: Adobe Illustrator 27.0.1, SVG Export Plug-In . SVG Version: 6.00 Build 0)  -->
<svg version="1.1" id="Calque_1" xmlns="http://www.w3.org/2000/svg" xmlns:xlink="http://www.w3.org/1999/xlink" x="0px" y="0px"
	 viewBox="0 0 512 2048" style="enable-background:new 0 0 512 2048;" xml:space="preserve">
<style type="text/css">
	.st0{fill:url(#SVGID_1_);stroke:#222954;stroke-width:9;stroke-miterlimit:10;}
	
		.st1{opacity:0.5;fill:none;stroke:url(#SVGID_00000129889235838764690520000015890690831307391119_);stroke-width:16;stroke-miterlimit:10;enable-background:new    ;}
	.st2{opacity:0.15;fill:url(#SVGID_00000100342261330072513790000017553112607690020259_);enable-background:new    ;}
	.st3{opacity:0.9;fill:#FFFFFF;enable-background:new    ;}
	.st4{opacity:0.4;fill:url(#SVGID_00000114075526758410349800000012940870190863560622_);enable-background:new    ;}
	.st5{fill:url(#SVGID_00000179646028646657613240000011772286988245268880_);stroke:#222954;stroke-width:9;stroke-miterlimit:10;}
	
		.st6{opacity:0.5;fill:none;stroke:url(#SVGID_00000051351492143931013030000005661889685217021884_);stroke-width:16;stroke-miterlimit:10;enable-background:new    ;}
	.st7{fill:url(#SVGID_00000143578891341655161670000014626874030391413433_);}
	.st8{opacity:0.4;fill:url(#SVGID_00000051382170241073429280000012349334892731907725_);enable-background:new    ;}
	.st9{fill:url(#SVGID_00000095316517286282718600000002817593753143814026_);stroke:#222954;stroke-width:9;stroke-miterlimit:10;}
	
		.st10{opacity:0.5;fill:none;stroke:url(#SVGID_00000054257515478526400500000004869201803706487696_);stroke-width:16;stroke-miterlimit:10;enable-background:new    ;}
	.st11{fill:url(#SVGID_00000150805779739817713030000011684170774547160960_);}
	.st12{opacity:0.4;fill:url(#SVGID_00000106113070487721646460000002776047254953663873_);enable-background:new    ;}
	.st13{fill:url(#SVGID_00000044141599908060351120000017014881723204867238_);stroke:#000000;stroke-width:9;stroke-miterlimit:10;}
	
		.st14{opacity:0.5;fill:none;stroke:url(#SVGID_00000128486376920975752090000009951239059220490399_);stroke-width:16;stroke-miterlimit:10;enable-background:new    ;}
	.st15{opacity:0.15;fill:url(#SVGID_00000176751756895521150480000005917338020485650577_);enable-background:new    ;}
	.st16{opacity:0.4;fill:url(#SVGID_00000015334453352648997160000010381541565199177634_);enable-background:new    ;}
</style>
<linearGradient id="SVGID_1_" gradientUnits="userSpaceOnUse" x1="256" y1="-1230.51" x2="256" y2="-817.49" gradientTransform="matrix(1 0 0 1 0 1280)">
	<stop  offset="0" style="stop-color:#22396F"/>
	<stop  offset="1" style="stop-color:#4193CC"/>
</linearGradient>
<circle class="st0" cx="256" cy="256" r="206.51"/>
<linearGradient id="SVGID_00000036971724800836522740000013246330232408781204_" gradientUnits="userSpaceOnUse" x1="347.4646" y1="-1182.4214" x2="164.5354" y2="-865.5787" gradientTransform="matrix(1 0 0 1 0 1280)">
	<stop  offset="1.078831e-03" style="stop-color:#009FE3"/>
	<stop  offset="1" style="stop-color:#FFFFFF"/>
</linearGradient>
<circle style="opacity:0.5;fill:none;stroke:url(#SVGID_00000036971724800836522740000013246330232408781204_);stroke-width:16;stroke-miterlimit:10;enable-background:new    ;" cx="256" cy="256" r="174.9"/>
<linearGradient id="SVGID_00000093867610156371687560000008703495534284904832_" gradientUnits="userSpaceOnUse" x1="338.8688" y1="-1167.5331" x2="173.1312" y2="-880.4669" gradientTransform="matrix(1 0 0 1 0 1280)">
	<stop  offset="0" style="stop-color:#222954"/>
	<stop  offset="1" style="stop-color:#4193CC"/>
</linearGradient>
<circle style="opacity:0.15;fill:url(#SVGID_00000093867610156371687560000008703495534284904832_);enable-background:new    ;" cx="256" cy="256" r="165.71"/>
<path class="st3" d="M315.23,162.61l-16.92,29.32c25.28,14.63,42.29,41.96,42.29,73.27c0,46.72-37.87,84.6-84.6,84.6
	s-84.6-37.87-84.6-84.6c0-31.31,17.01-58.65,42.29-73.27l-16.92-29.32c-35.4,20.49-59.22,58.76-59.22,102.6
	c0,65.42,53.04,118.45,118.45,118.45s118.45-53.04,118.45-118.45C374.46,221.38,350.64,183.1,315.23,162.61z"/>
<rect x="238.4" y="128.34" class="st3" width="35.06" height="111.54"/>
<linearGradient id="SVGID_00000132057970040485939780000000877782089282072194_" gradientUnits="userSpaceOnUse" x1="255.93" y1="-820.97" x2="255.93" y2="-1040.1218" gradientTransform="matrix(1 0 0 1 0 1280)">
	<stop  offset="0" style="stop-color:#FFFFFF;stop-opacity:0.05"/>
	<stop  offset="1" style="stop-color:#FFFFFF"/>
</linearGradient>
<path style="opacity:0.4;fill:url(#SVGID_00000132057970040485939780000000877782089282072194_);enable-background:new    ;" d="
	M155.15,240.58c65.18,6.65,114.39,44.63,178.24,55.27c34.69,5.78,85.47-10.19,124.63-25.98c-6.78,105.6-94.57,189.16-201.88,189.16
	c-111.22,0-201.46-89.75-202.3-200.77C81.92,247.63,120.25,237.02,155.15,240.58z"/>
<linearGradient id="SVGID_00000119086211429814496540000005800244166221740206_" gradientUnits="userSpaceOnUse" x1="255.93" y1="-718.51" x2="255.93" y2="-305.49" gradientTransform="matrix(1 0 0 1 0 1280)">
	<stop  offset="0" style="stop-color:#22396F"/>
	<stop  offset="1" style="stop-color:#4193CC"/>
</linearGradient>
<circle style="fill:url(#SVGID_00000119086211429814496540000005800244166221740206_);stroke:#222954;stroke-width:9;stroke-miterlimit:10;" cx="255.93" cy="768" r="206.51"/>
<linearGradient id="SVGID_00000005969815005501662620000012957868843831252905_" gradientUnits="userSpaceOnUse" x1="347.3946" y1="-670.4214" x2="164.4654" y2="-353.5786" gradientTransform="matrix(1 0 0 1 0 1280)">
	<stop  offset="1.078831e-03" style="stop-color:#009FE3"/>
	<stop  offset="1" style="stop-color:#FFFFFF"/>
</linearGradient>
<circle style="opacity:0.5;fill:none;stroke:url(#SVGID_00000005969815005501662620000012957868843831252905_);stroke-width:16;stroke-miterlimit:10;enable-background:new    ;" cx="255.93" cy="768" r="174.9"/>
<linearGradient id="SVGID_00000119830700414310504090000014588507409830146730_" gradientUnits="userSpaceOnUse" x1="338.7988" y1="-655.5331" x2="173.0612" y2="-368.4669" gradientTransform="matrix(1 0 0 1 0 1280)">
	<stop  offset="0" style="stop-color:#FDD803"/>
	<stop  offset="1" style="stop-color:#BE8011"/>
</linearGradient>
<circle style="fill:url(#SVGID_00000119830700414310504090000014588507409830146730_);" cx="255.93" cy="768" r="165.71"/>
<path class="st3" d="M315.16,674.61l-16.92,29.32c25.28,14.63,42.29,41.96,42.29,73.27c0,46.72-37.87,84.6-84.6,84.6
	s-84.6-37.87-84.6-84.6c0-31.31,17.01-58.65,42.29-73.27l-16.92-29.32c-35.4,20.49-59.22,58.76-59.22,102.6
	c0,65.42,53.04,118.45,118.45,118.45s118.45-53.04,118.45-118.45C374.39,733.38,350.57,695.1,315.16,674.61z"/>
<rect x="238.33" y="640.34" class="st3" width="35.06" height="111.54"/>
<linearGradient id="SVGID_00000042012256535065923330000008459966631351540415_" gradientUnits="userSpaceOnUse" x1="255.86" y1="-308.97" x2="255.86" y2="-528.1218" gradientTransform="matrix(1 0 0 1 0 1280)">
	<stop  offset="0" style="stop-color:#FFFFFF;stop-opacity:0.05"/>
	<stop  offset="1" style="stop-color:#FFFFFF"/>
</linearGradient>
<path style="opacity:0.4;fill:url(#SVGID_00000042012256535065923330000008459966631351540415_);enable-background:new    ;" d="
	M155.08,752.58c65.18,6.65,114.39,44.63,178.24,55.27c34.69,5.78,85.47-10.19,124.63-25.98c-6.78,105.6-94.57,189.16-201.88,189.16
	c-111.22,0-201.46-89.75-202.3-200.77C81.85,759.63,120.18,749.02,155.08,752.58z"/>
<linearGradient id="SVGID_00000139271790854995081270000003516480964229387443_" gradientUnits="userSpaceOnUse" x1="255.86" y1="-206.51" x2="255.86" y2="206.51" gradientTransform="matrix(1 0 0 1 0 1280)">
	<stop  offset="0" style="stop-color:#22396F"/>
	<stop  offset="1" style="stop-color:#4193CC"/>
</linearGradient>
<circle style="fill:url(#SVGID_00000139271790854995081270000003516480964229387443_);stroke:#222954;stroke-width:9;stroke-miterlimit:10;" cx="255.86" cy="1280" r="206.51"/>
<linearGradient id="SVGID_00000001645724964161475010000011569001975618222228_" gradientUnits="userSpaceOnUse" x1="347.3246" y1="-158.4213" x2="164.3954" y2="158.4214" gradientTransform="matrix(1 0 0 1 0 1280)">
	<stop  offset="1.078831e-03" style="stop-color:#009FE3"/>
	<stop  offset="1" style="stop-color:#FFFFFF"/>
</linearGradient>
<circle style="opacity:0.5;fill:none;stroke:url(#SVGID_00000001645724964161475010000011569001975618222228_);stroke-width:16;stroke-miterlimit:10;enable-background:new    ;" cx="255.86" cy="1280" r="174.9"/>
<linearGradient id="SVGID_00000173123262329788530220000005658960315859645849_" gradientUnits="userSpaceOnUse" x1="338.7288" y1="-143.5331" x2="172.9912" y2="143.5331" gradientTransform="matrix(1 0 0 1 0 1280)">
	<stop  offset="0" style="stop-color:#9BC983"/>
	<stop  offset="1" style="stop-color:#358D36"/>
</linearGradient>
<circle style="fill:url(#SVGID_00000173123262329788530220000005658960315859645849_);" cx="255.86" cy="1280" r="165.71"/>
<path class="st3" d="M315.09,1186.61l-16.92,29.32c25.28,14.63,42.29,41.96,42.29,73.27c0,46.72-37.87,84.6-84.6,84.6
	s-84.6-37.87-84.6-84.6c0-31.31,17.01-58.65,42.29-73.27l-16.92-29.32c-35.4,20.49-59.22,58.76-59.22,102.6
	c0,65.42,53.04,118.45,118.45,118.45s118.45-53.04,118.45-118.45C374.32,1245.38,350.5,1207.1,315.09,1186.61z"/>
<rect x="238.26" y="1152.33" class="st3" width="35.06" height="111.54"/>
<linearGradient id="SVGID_00000127751971332774491290000006324566277373639344_" gradientUnits="userSpaceOnUse" x1="255.79" y1="203.03" x2="255.79" y2="-16.1219" gradientTransform="matrix(1 0 0 1 0 1280)">
	<stop  offset="0" style="stop-color:#FFFFFF;stop-opacity:0.05"/>
	<stop  offset="1" style="stop-color:#FFFFFF"/>
</linearGradient>
<path style="opacity:0.4;fill:url(#SVGID_00000127751971332774491290000006324566277373639344_);enable-background:new    ;" d="
	M155.01,1264.58c65.18,6.65,114.39,44.63,178.24,55.27c34.69,5.78,85.47-10.19,124.63-25.98c-6.78,105.6-94.57,189.16-201.88,189.16
	c-111.22,0-201.46-89.75-202.3-200.77C81.78,1271.63,120.11,1261.02,155.01,1264.58z"/>
<linearGradient id="SVGID_00000048466012429582493510000005804642505405135542_" gradientUnits="userSpaceOnUse" x1="255.79" y1="305.49" x2="255.79" y2="718.51" gradientTransform="matrix(1 0 0 1 0 1280)">
	<stop  offset="0" style="stop-color:#0F0F0F"/>
	<stop  offset="1" style="stop-color:#989898"/>
</linearGradient>
<circle style="fill:url(#SVGID_00000048466012429582493510000005804642505405135542_);stroke:#000000;stroke-width:9;stroke-miterlimit:10;" cx="255.79" cy="1792" r="206.51"/>
<linearGradient id="SVGID_00000085210453756122611660000017219798612758581136_" gradientUnits="userSpaceOnUse" x1="347.2546" y1="353.5786" x2="164.3254" y2="670.4214" gradientTransform="matrix(1 0 0 1 0 1280)">
	<stop  offset="1.078831e-03" style="stop-color:#B2B2B2"/>
	<stop  offset="1" style="stop-color:#FFFFFF"/>
</linearGradient>
<circle style="opacity:0.5;fill:none;stroke:url(#SVGID_00000085210453756122611660000017219798612758581136_);stroke-width:16;stroke-miterlimit:10;enable-background:new    ;" cx="255.79" cy="1792" r="174.9"/>
<linearGradient id="SVGID_00000115517326236420479260000014050174062424913280_" gradientUnits="userSpaceOnUse" x1="338.6588" y1="368.467" x2="172.9212" y2="655.533" gradientTransform="matrix(1 0 0 1 0 1280)">
	<stop  offset="0" style="stop-color:#000000"/>
	<stop  offset="1" style="stop-color:#989898"/>
</linearGradient>
<circle style="opacity:0.15;fill:url(#SVGID_00000115517326236420479260000014050174062424913280_);enable-background:new    ;" cx="255.79" cy="1792" r="165.71"/>
<path class="st3" d="M315.02,1698.61l-16.92,29.32c25.28,14.63,42.29,41.96,42.29,73.27c0,46.72-37.87,84.6-84.6,84.6
	s-84.6-37.87-84.6-84.6c0-31.31,17.01-58.65,42.29-73.27l-16.92-29.32c-35.4,20.49-59.22,58.76-59.22,102.6
	c0,65.42,53.04,118.45,118.45,118.45s118.45-53.04,118.45-118.45C374.25,1757.38,350.43,1719.1,315.02,1698.61z"/>
<rect x="238.19" y="1664.33" class="st3" width="35.06" height="111.54"/>
<linearGradient id="SVGID_00000125560806613763394830000012244233411662967185_" gradientUnits="userSpaceOnUse" x1="255.72" y1="715.03" x2="255.72" y2="495.8781" gradientTransform="matrix(1 0 0 1 0 1280)">
	<stop  offset="0" style="stop-color:#FFFFFF;stop-opacity:0.05"/>
	<stop  offset="1" style="stop-color:#FFFFFF"/>
</linearGradient>
<path style="opacity:0.4;fill:url(#SVGID_00000125560806613763394830000012244233411662967185_);enable-background:new    ;" d="
	M154.94,1776.58c65.18,6.65,114.39,44.63,178.24,55.27c34.69,5.78,85.47-10.19,124.63-25.98c-6.78,105.6-94.57,189.16-201.88,189.16
	c-111.22,0-201.46-89.75-202.3-200.77C81.71,1783.63,120.04,1773.02,154.94,1776.58z"/>
</svg>
