<?xml version="1.0" encoding="utf-8"?>
<!-- Generator: Adobe Illustrator 27.0.1, SVG Export Plug-In . SVG Version: 6.00 Build 0)  -->
<svg version="1.1" id="Calque_1" xmlns="http://www.w3.org/2000/svg" xmlns:xlink="http://www.w3.org/1999/xlink" x="0px" y="0px"
	 viewBox="0 0 512 2048" style="enable-background:new 0 0 512 2048;" xml:space="preserve">
<style type="text/css">
	.st0{opacity:0.5;fill:none;stroke:#3F3E3C;stroke-width:16;stroke-miterlimit:10;enable-background:new    ;}
	.st1{fill:#5CB9DC;stroke:#000000;stroke-width:4;stroke-miterlimit:10;}
	.st2{fill:#E8E8E6;stroke:#000000;stroke-width:4;stroke-miterlimit:10;}
	.st3{fill:url(#SVGID_1_);stroke:#030405;stroke-width:4;stroke-miterlimit:10;}
	.st4{fill:url(#SVGID_00000043455577484772953590000004405072321111767440_);stroke:#030405;stroke-width:4;stroke-miterlimit:10;}
	.st5{opacity:0.5;fill:url(#SVGID_00000086688080893979683880000006744704001316529287_);enable-background:new    ;}
	.st6{opacity:0.5;fill:url(#SVGID_00000139262370935049576670000013682942176859520909_);enable-background:new    ;}
	.st7{fill:url(#SVGID_00000083809926748392290570000004230327810553276051_);stroke:#030304;stroke-width:4;stroke-miterlimit:10;}
	.st8{fill:url(#SVGID_00000117665902548162753760000017422983071396869255_);stroke:#030304;stroke-width:4;stroke-miterlimit:10;}
	.st9{opacity:0.5;fill:url(#SVGID_00000025436515478950254990000011773913393787179409_);enable-background:new    ;}
	.st10{opacity:0.5;fill:url(#SVGID_00000134210719894739094840000009504363467346423991_);enable-background:new    ;}
	.st11{fill:url(#SVGID_00000098201750967138255340000008893277254447348655_);stroke:#030304;stroke-width:4;stroke-miterlimit:10;}
	.st12{fill:url(#SVGID_00000063625984308104376980000007489126143956350112_);stroke:#030304;stroke-width:4;stroke-miterlimit:10;}
	.st13{opacity:0.5;fill:url(#SVGID_00000046321922662274868430000006735022401256555404_);enable-background:new    ;}
	.st14{opacity:0.5;fill:url(#SVGID_00000021828269833355049190000006780888948932308911_);enable-background:new    ;}
	.st15{opacity:0.5;fill:none;stroke:#000000;stroke-width:16;stroke-miterlimit:10;enable-background:new    ;}
	.st16{fill:#C1C1C1;stroke:#000000;stroke-width:4;stroke-miterlimit:10;}
	.st17{fill:#E8E8E8;stroke:#000000;stroke-width:4;stroke-miterlimit:10;}
	.st18{fill:url(#SVGID_00000006676818548334428900000002489377229545278857_);stroke:#000000;stroke-width:4;stroke-miterlimit:10;}
	.st19{fill:url(#SVGID_00000078026694664185128950000008584718049348002207_);stroke:#000000;stroke-width:4;stroke-miterlimit:10;}
	.st20{opacity:0.5;fill:url(#SVGID_00000135652167375909186700000017126478065190741646_);enable-background:new    ;}
	.st21{opacity:0.5;fill:url(#SVGID_00000159464177912943566170000017801183663745888131_);enable-background:new    ;}
</style>
<rect x="41.02" y="90.23" class="st0" width="442.94" height="360.14"/>
<rect x="31.02" y="80.23" class="st1" width="442.94" height="360.14"/>
<path class="st2" d="M191.32,90.73v49.95h12.43c1.95-6.8,8.2-11.79,15.63-11.79c8.99,0,16.27,7.29,16.27,16.27
	c0,8.99-7.29,16.27-16.27,16.27c-7.43,0-13.68-4.98-15.63-11.79h-12.43v63.79h12.43c1.95-6.8,8.2-11.79,15.63-11.79
	c8.99,0,16.27,7.29,16.27,16.27c0,8.99-7.29,16.27-16.27,16.27c-7.43,0-13.68-4.98-15.63-11.79h-12.43v63.79h12.43
	c1.95-6.8,8.2-11.79,15.63-11.79c8.99,0,16.27,7.29,16.27,16.27c0,8.99-7.29,16.27-16.27,16.27c-7.43,0-13.68-4.98-15.63-11.79
	h-12.43v63.79h12.43c1.95-6.8,8.2-11.79,15.63-11.79c8.99,0,16.27,7.29,16.27,16.27c0,8.99-7.29,16.27-16.27,16.27
	c-7.43,0-13.68-4.98-15.63-11.79h-12.43v53.31h270.5V90.73H191.32z"/>
<path class="st2" d="M179.49,90.73v49.95h-12.43c-1.95-6.8-8.2-11.79-15.63-11.79c-8.99,0-16.27,7.29-16.27,16.27
	c0,8.99,7.29,16.27,16.27,16.27c7.43,0,13.68-4.98,15.63-11.79h12.43v63.79h-12.43c-1.95-6.8-8.2-11.79-15.63-11.79
	c-8.99,0-16.27,7.29-16.27,16.27c0,8.99,7.29,16.27,16.27,16.27c7.43,0,13.68-4.98,15.63-11.79h12.43v63.79h-12.43
	c-1.95-6.8-8.2-11.79-15.63-11.79c-8.99,0-16.27,7.29-16.27,16.27c0,8.99,7.29,16.27,16.27,16.27c7.43,0,13.68-4.98,15.63-11.79
	h12.43v63.79h-12.43c-1.95-6.8-8.2-11.79-15.63-11.79c-8.99,0-16.27,7.29-16.27,16.27c0,8.99,7.29,16.27,16.27,16.27
	c7.43,0,13.68-4.98,15.63-11.79h12.43v53.31H44.24V90.73H179.49z"/>
<g>
	<polygon class="st0" points="475.09,205 344.01,205 344.01,112.63 197.57,261.27 344.01,409.9 344.01,317.55 475.09,317.55 	"/>
	<polygon class="st0" points="114.22,261.27 191.4,183.21 191.4,109.08 40.91,261.27 191.4,413.47 191.4,339.32 	"/>
	
		<linearGradient id="SVGID_1_" gradientUnits="userSpaceOnUse" x1="332.33" y1="-882.65" x2="332.33" y2="-1179.92" gradientTransform="matrix(1 0 0 1 0 1282)">
		<stop  offset="0" style="stop-color:#ABD9E8"/>
		<stop  offset="1" style="stop-color:#2A6EB5"/>
	</linearGradient>
	<polygon class="st3" points="471.09,194.45 340.01,194.45 340.01,102.08 193.57,250.73 340.01,399.35 340.01,307 471.09,307 	"/>
	
		<linearGradient id="SVGID_00000042016528180945610180000014215622467366541204_" gradientUnits="userSpaceOnUse" x1="112.155" y1="-879.08" x2="112.155" y2="-1183.47" gradientTransform="matrix(1 0 0 1 0 1282)">
		<stop  offset="0" style="stop-color:#ABD9E8"/>
		<stop  offset="1" style="stop-color:#2A6EB5"/>
	</linearGradient>
	
		<polygon style="fill:url(#SVGID_00000042016528180945610180000014215622467366541204_);stroke:#030405;stroke-width:4;stroke-miterlimit:10;" points="
		110.22,250.73 187.4,172.66 187.4,98.53 36.91,250.73 187.4,402.92 187.4,328.78 	"/>
	
		<linearGradient id="SVGID_00000138551179867699376930000002647761675216812470_" gradientUnits="userSpaceOnUse" x1="333.72" y1="2949.4299" x2="333.72" y2="3100.8269" gradientTransform="matrix(1 0 0 -1 0 3332)">
		<stop  offset="0" style="stop-color:#FFFFFC"/>
		<stop  offset="1" style="stop-color:#2466AD"/>
	</linearGradient>
	<path style="opacity:0.5;fill:url(#SVGID_00000138551179867699376930000002647761675216812470_);enable-background:new    ;" d="
		M201.94,250.73l131.21,131.84v-81.13l132.35-1.22v-55.79c0,0-33.17,21.74-74.22,21.74c-17.01,0-58.12-32.43-100.77-34.57
		C276.52,227.79,201.94,250.73,201.94,250.73z"/>
	
		<linearGradient id="SVGID_00000075136040992392912720000000319566323307578028_" gradientUnits="userSpaceOnUse" x1="114.16" y1="2942.71" x2="114.16" y2="3084.0803" gradientTransform="matrix(1 0 0 -1 0 3332)">
		<stop  offset="0" style="stop-color:#FFFFFC"/>
		<stop  offset="1" style="stop-color:#2466AD"/>
	</linearGradient>
	<path style="opacity:0.5;fill:url(#SVGID_00000075136040992392912720000000319566323307578028_);enable-background:new    ;" d="
		M45.09,250.73l138.14,138.56l-0.83-56.75l-77.83-79.27c0,0-13.62-5.35-26.55-5.35C61.04,247.89,45.09,250.73,45.09,250.73z"/>
</g>
<rect x="41.02" y="602.23" class="st0" width="442.94" height="360.14"/>
<rect x="31.02" y="592.23" class="st1" width="442.94" height="360.14"/>
<path class="st2" d="M191.32,602.73v49.95h12.43c1.95-6.8,8.2-11.79,15.63-11.79c8.99,0,16.27,7.29,16.27,16.27
	c0,8.99-7.29,16.27-16.27,16.27c-7.43,0-13.68-4.98-15.63-11.79h-12.43v63.79h12.43c1.95-6.8,8.2-11.79,15.63-11.79
	c8.99,0,16.27,7.29,16.27,16.27c0,8.99-7.29,16.27-16.27,16.27c-7.43,0-13.68-4.98-15.63-11.79h-12.43v63.79h12.43
	c1.95-6.8,8.2-11.79,15.63-11.79c8.99,0,16.27,7.29,16.27,16.27c0,8.99-7.29,16.27-16.27,16.27c-7.43,0-13.68-4.98-15.63-11.79
	h-12.43v63.79h12.43c1.95-6.8,8.2-11.79,15.63-11.79c8.99,0,16.27,7.29,16.27,16.27c0,8.99-7.29,16.27-16.27,16.27
	c-7.43,0-13.68-4.98-15.63-11.79h-12.43v53.31h270.5V602.73H191.32z"/>
<path class="st2" d="M179.49,602.73v49.95h-12.43c-1.95-6.8-8.2-11.79-15.63-11.79c-8.99,0-16.27,7.29-16.27,16.27
	c0,8.99,7.29,16.27,16.27,16.27c7.43,0,13.68-4.98,15.63-11.79h12.43v63.79h-12.43c-1.95-6.8-8.2-11.79-15.63-11.79
	c-8.99,0-16.27,7.29-16.27,16.27c0,8.99,7.29,16.27,16.27,16.27c7.43,0,13.68-4.98,15.63-11.79h12.43v63.79h-12.43
	c-1.95-6.8-8.2-11.79-15.63-11.79c-8.99,0-16.27,7.29-16.27,16.27c0,8.99,7.29,16.27,16.27,16.27c7.43,0,13.68-4.98,15.63-11.79
	h12.43v63.79h-12.43c-1.95-6.8-8.2-11.79-15.63-11.79c-8.99,0-16.27,7.29-16.27,16.27c0,8.99,7.29,16.27,16.27,16.27
	c7.43,0,13.68-4.98,15.63-11.79h12.43v53.31H44.24V602.73H179.49z"/>
<polygon class="st0" points="475.09,717 344.01,717 344.01,624.63 197.57,773.27 344.01,921.9 344.01,829.55 475.09,829.55 "/>
<polygon class="st0" points="114.22,773.27 191.4,695.21 191.4,621.08 40.91,773.27 191.4,925.47 191.4,851.32 "/>
<linearGradient id="SVGID_00000169539484918744436280000005467164097740147381_" gradientUnits="userSpaceOnUse" x1="332.33" y1="-370.65" x2="332.33" y2="-667.92" gradientTransform="matrix(1 0 0 1 0 1282)">
	<stop  offset="0" style="stop-color:#FED908"/>
	<stop  offset="1" style="stop-color:#BE8110"/>
</linearGradient>
<polygon style="fill:url(#SVGID_00000169539484918744436280000005467164097740147381_);stroke:#030304;stroke-width:4;stroke-miterlimit:10;" points="
	471.09,706.45 340.01,706.45 340.01,614.08 193.57,762.73 340.01,911.35 340.01,819 471.09,819 "/>
<linearGradient id="SVGID_00000178908223869917324290000016062515404933387185_" gradientUnits="userSpaceOnUse" x1="112.155" y1="-367.08" x2="112.155" y2="-671.47" gradientTransform="matrix(1 0 0 1 0 1282)">
	<stop  offset="0" style="stop-color:#FED908"/>
	<stop  offset="1" style="stop-color:#BE8110"/>
</linearGradient>
<polygon style="fill:url(#SVGID_00000178908223869917324290000016062515404933387185_);stroke:#030304;stroke-width:4;stroke-miterlimit:10;" points="
	110.22,762.73 187.4,684.66 187.4,610.53 36.91,762.73 187.4,914.92 187.4,840.78 "/>
<linearGradient id="SVGID_00000168837914813372687360000007115078197531182517_" gradientUnits="userSpaceOnUse" x1="333.72" y1="2437.4299" x2="333.72" y2="2588.8269" gradientTransform="matrix(1 0 0 -1 0 3332)">
	<stop  offset="0" style="stop-color:#FFFFFC"/>
	<stop  offset="1" style="stop-color:#2466AD"/>
</linearGradient>
<path style="opacity:0.5;fill:url(#SVGID_00000168837914813372687360000007115078197531182517_);enable-background:new    ;" d="
	M201.94,762.73l131.21,131.84v-81.13l132.35-1.22v-55.79c0,0-33.17,21.74-74.22,21.74c-17.01,0-58.12-32.43-100.77-34.57
	C276.52,739.79,201.94,762.73,201.94,762.73z"/>
<linearGradient id="SVGID_00000183245437696162986160000002514244399718624421_" gradientUnits="userSpaceOnUse" x1="114.16" y1="2430.71" x2="114.16" y2="2572.0803" gradientTransform="matrix(1 0 0 -1 0 3332)">
	<stop  offset="0" style="stop-color:#FFFFFC"/>
	<stop  offset="1" style="stop-color:#2466AD"/>
</linearGradient>
<path style="opacity:0.5;fill:url(#SVGID_00000183245437696162986160000002514244399718624421_);enable-background:new    ;" d="
	M45.09,762.73l138.14,138.56l-0.83-56.75l-77.83-79.27c0,0-13.62-5.35-26.55-5.35C61.04,759.89,45.09,762.73,45.09,762.73z"/>
<rect x="41.02" y="1114.23" class="st0" width="442.94" height="360.14"/>
<rect x="31.02" y="1104.23" class="st1" width="442.94" height="360.14"/>
<path class="st2" d="M191.32,1114.73v49.95h12.43c1.95-6.8,8.2-11.79,15.63-11.79c8.99,0,16.27,7.29,16.27,16.27
	s-7.29,16.27-16.27,16.27c-7.43,0-13.68-4.98-15.63-11.79h-12.43v63.79h12.43c1.95-6.8,8.2-11.79,15.63-11.79
	c8.99,0,16.27,7.29,16.27,16.27c0,8.99-7.29,16.27-16.27,16.27c-7.43,0-13.68-4.98-15.63-11.79h-12.43v63.79h12.43
	c1.95-6.8,8.2-11.79,15.63-11.79c8.99,0,16.27,7.29,16.27,16.27s-7.29,16.27-16.27,16.27c-7.43,0-13.68-4.98-15.63-11.79h-12.43
	v63.79h12.43c1.95-6.8,8.2-11.79,15.63-11.79c8.99,0,16.27,7.29,16.27,16.27s-7.29,16.27-16.27,16.27
	c-7.43,0-13.68-4.98-15.63-11.79h-12.43v53.31h270.5v-330.55H191.32z"/>
<path class="st2" d="M179.49,1114.73v49.95h-12.43c-1.95-6.8-8.2-11.79-15.63-11.79c-8.99,0-16.27,7.29-16.27,16.27
	s7.29,16.27,16.27,16.27c7.43,0,13.68-4.98,15.63-11.79h12.43v63.79h-12.43c-1.95-6.8-8.2-11.79-15.63-11.79
	c-8.99,0-16.27,7.29-16.27,16.27c0,8.99,7.29,16.27,16.27,16.27c7.43,0,13.68-4.98,15.63-11.79h12.43v63.79h-12.43
	c-1.95-6.8-8.2-11.79-15.63-11.79c-8.99,0-16.27,7.29-16.27,16.27s7.29,16.27,16.27,16.27c7.43,0,13.68-4.98,15.63-11.79h12.43
	v63.79h-12.43c-1.95-6.8-8.2-11.79-15.63-11.79c-8.99,0-16.27,7.29-16.27,16.27s7.29,16.27,16.27,16.27
	c7.43,0,13.68-4.98,15.63-11.79h12.43v53.31H44.24v-330.55H179.49z"/>
<polygon class="st0" points="475.09,1229 344.01,1229 344.01,1136.63 197.57,1285.27 344.01,1433.9 344.01,1341.55 475.09,1341.55 
	"/>
<polygon class="st0" points="114.22,1285.27 191.4,1207.21 191.4,1133.08 40.91,1285.27 191.4,1437.47 191.4,1363.32 "/>
<linearGradient id="SVGID_00000066516638381294971850000012785465763438199728_" gradientUnits="userSpaceOnUse" x1="332.33" y1="141.35" x2="332.33" y2="-155.92" gradientTransform="matrix(1 0 0 1 0 1282)">
	<stop  offset="0" style="stop-color:#9CCA86"/>
	<stop  offset="1" style="stop-color:#388F36"/>
</linearGradient>
<polygon style="fill:url(#SVGID_00000066516638381294971850000012785465763438199728_);stroke:#030304;stroke-width:4;stroke-miterlimit:10;" points="
	471.09,1218.45 340.01,1218.45 340.01,1126.08 193.57,1274.73 340.01,1423.35 340.01,1331 471.09,1331 "/>
<linearGradient id="SVGID_00000096774275659719131830000001154379241155282855_" gradientUnits="userSpaceOnUse" x1="112.155" y1="144.92" x2="112.155" y2="-159.47" gradientTransform="matrix(1 0 0 1 0 1282)">
	<stop  offset="0" style="stop-color:#9CCA86"/>
	<stop  offset="1" style="stop-color:#388F36"/>
</linearGradient>
<polygon style="fill:url(#SVGID_00000096774275659719131830000001154379241155282855_);stroke:#030304;stroke-width:4;stroke-miterlimit:10;" points="
	110.22,1274.73 187.4,1196.66 187.4,1122.53 36.91,1274.73 187.4,1426.92 187.4,1352.78 "/>
<linearGradient id="SVGID_00000044878538524024057410000009624778966365952139_" gradientUnits="userSpaceOnUse" x1="333.72" y1="1925.4299" x2="333.72" y2="2076.8269" gradientTransform="matrix(1 0 0 -1 0 3332)">
	<stop  offset="0" style="stop-color:#FFFFFC"/>
	<stop  offset="1" style="stop-color:#2466AD"/>
</linearGradient>
<path style="opacity:0.5;fill:url(#SVGID_00000044878538524024057410000009624778966365952139_);enable-background:new    ;" d="
	M201.94,1274.73l131.21,131.84v-81.13l132.35-1.22v-55.79c0,0-33.17,21.74-74.22,21.74c-17.01,0-58.12-32.43-100.77-34.57
	C276.52,1251.79,201.94,1274.73,201.94,1274.73z"/>
<linearGradient id="SVGID_00000073679378374403121800000006720676029430701712_" gradientUnits="userSpaceOnUse" x1="114.16" y1="1918.71" x2="114.16" y2="2060.0803" gradientTransform="matrix(1 0 0 -1 0 3332)">
	<stop  offset="0" style="stop-color:#FFFFFC"/>
	<stop  offset="1" style="stop-color:#2466AD"/>
</linearGradient>
<path style="opacity:0.5;fill:url(#SVGID_00000073679378374403121800000006720676029430701712_);enable-background:new    ;" d="
	M45.09,1274.73l138.14,138.56l-0.83-56.75l-77.83-79.27c0,0-13.62-5.35-26.55-5.35C61.04,1271.89,45.09,1274.73,45.09,1274.73z"/>
<rect x="41.02" y="1626.23" class="st15" width="442.94" height="360.14"/>
<rect x="31.02" y="1616.23" class="st16" width="442.94" height="360.14"/>
<path class="st17" d="M191.32,1626.73v49.95h12.43c1.95-6.8,8.2-11.79,15.63-11.79c8.99,0,16.27,7.29,16.27,16.27
	s-7.29,16.27-16.27,16.27c-7.43,0-13.68-4.98-15.63-11.79h-12.43v63.79h12.43c1.95-6.8,8.2-11.79,15.63-11.79
	c8.99,0,16.27,7.29,16.27,16.27c0,8.99-7.29,16.27-16.27,16.27c-7.43,0-13.68-4.98-15.63-11.79h-12.43v63.79h12.43
	c1.95-6.8,8.2-11.79,15.63-11.79c8.99,0,16.27,7.29,16.27,16.27s-7.29,16.27-16.27,16.27c-7.43,0-13.68-4.98-15.63-11.79h-12.43
	v63.79h12.43c1.95-6.8,8.2-11.79,15.63-11.79c8.99,0,16.27,7.29,16.27,16.27s-7.29,16.27-16.27,16.27
	c-7.43,0-13.68-4.98-15.63-11.79h-12.43v53.31h270.5v-330.55H191.32z"/>
<path class="st17" d="M179.49,1626.73v49.95h-12.43c-1.95-6.8-8.2-11.79-15.63-11.79c-8.99,0-16.27,7.29-16.27,16.27
	s7.29,16.27,16.27,16.27c7.43,0,13.68-4.98,15.63-11.79h12.43v63.79h-12.43c-1.95-6.8-8.2-11.79-15.63-11.79
	c-8.99,0-16.27,7.29-16.27,16.27c0,8.99,7.29,16.27,16.27,16.27c7.43,0,13.68-4.98,15.63-11.79h12.43v63.79h-12.43
	c-1.95-6.8-8.2-11.79-15.63-11.79c-8.99,0-16.27,7.29-16.27,16.27s7.29,16.27,16.27,16.27c7.43,0,13.68-4.98,15.63-11.79h12.43
	v63.79h-12.43c-1.95-6.8-8.2-11.79-15.63-11.79c-8.99,0-16.27,7.29-16.27,16.27s7.29,16.27,16.27,16.27
	c7.43,0,13.68-4.98,15.63-11.79h12.43v53.31H44.24v-330.55H179.49z"/>
<g>
	<polygon class="st15" points="475.09,1741 344.01,1741 344.01,1648.63 197.57,1797.27 344.01,1945.9 344.01,1853.55 
		475.09,1853.55 	"/>
	<polygon class="st15" points="114.22,1797.27 191.4,1719.21 191.4,1645.08 40.91,1797.27 191.4,1949.47 191.4,1875.32 	"/>
	
		<linearGradient id="SVGID_00000052093934896639989520000013113497324436572558_" gradientUnits="userSpaceOnUse" x1="332.33" y1="653.35" x2="332.33" y2="356.08" gradientTransform="matrix(1 0 0 1 0 1282)">
		<stop  offset="0" style="stop-color:#DDDDDD"/>
		<stop  offset="1" style="stop-color:#707070"/>
	</linearGradient>
	
		<polygon style="fill:url(#SVGID_00000052093934896639989520000013113497324436572558_);stroke:#000000;stroke-width:4;stroke-miterlimit:10;" points="
		471.09,1730.45 340.01,1730.45 340.01,1638.08 193.57,1786.73 340.01,1935.35 340.01,1843 471.09,1843 	"/>
	
		<linearGradient id="SVGID_00000010305514661309309780000007237756487064717466_" gradientUnits="userSpaceOnUse" x1="112.155" y1="656.92" x2="112.155" y2="352.53" gradientTransform="matrix(1 0 0 1 0 1282)">
		<stop  offset="0" style="stop-color:#DDDDDD"/>
		<stop  offset="1" style="stop-color:#707070"/>
	</linearGradient>
	
		<polygon style="fill:url(#SVGID_00000010305514661309309780000007237756487064717466_);stroke:#000000;stroke-width:4;stroke-miterlimit:10;" points="
		110.22,1786.73 187.4,1708.66 187.4,1634.53 36.91,1786.73 187.4,1938.92 187.4,1864.78 	"/>
	
		<linearGradient id="SVGID_00000139984615481062570840000017908038321945674896_" gradientUnits="userSpaceOnUse" x1="333.72" y1="1413.4299" x2="333.72" y2="1564.827" gradientTransform="matrix(1 0 0 -1 0 3332)">
		<stop  offset="0" style="stop-color:#FEFEFE"/>
		<stop  offset="1" style="stop-color:#666666"/>
	</linearGradient>
	<path style="opacity:0.5;fill:url(#SVGID_00000139984615481062570840000017908038321945674896_);enable-background:new    ;" d="
		M201.94,1786.73l131.21,131.84v-81.13l132.35-1.22v-55.79c0,0-33.17,21.74-74.22,21.74c-17.01,0-58.12-32.43-100.77-34.57
		C276.52,1763.79,201.94,1786.73,201.94,1786.73z"/>
	
		<linearGradient id="SVGID_00000142147859796298531550000008114564995600510877_" gradientUnits="userSpaceOnUse" x1="114.16" y1="1406.71" x2="114.16" y2="1548.0802" gradientTransform="matrix(1 0 0 -1 0 3332)">
		<stop  offset="0" style="stop-color:#FEFEFE"/>
		<stop  offset="1" style="stop-color:#666666"/>
	</linearGradient>
	<path style="opacity:0.5;fill:url(#SVGID_00000142147859796298531550000008114564995600510877_);enable-background:new    ;" d="
		M45.09,1786.73l138.14,138.56l-0.83-56.75l-77.83-79.27c0,0-13.62-5.35-26.55-5.35C61.04,1783.89,45.09,1786.73,45.09,1786.73z"/>
</g>
</svg>
