<?xml version="1.0" encoding="utf-8"?>
<!-- Generator: Adobe Illustrator 27.0.1, SVG Export Plug-In . SVG Version: 6.00 Build 0)  -->
<svg version="1.1" id="Calque_1" xmlns="http://www.w3.org/2000/svg" xmlns:xlink="http://www.w3.org/1999/xlink" x="0px" y="0px"
	 viewBox="0 0 512 2048" style="enable-background:new 0 0 512 2048;" xml:space="preserve">
<style type="text/css">
	.st0{fill:url(#SVGID_1_);stroke:#000000;stroke-width:4;stroke-miterlimit:10;}
	.st1{fill:none;stroke:#416585;stroke-width:4;stroke-miterlimit:10;}
	.st2{fill:#416585;}
	.st3{fill:none;stroke:#706F6F;stroke-width:2;stroke-miterlimit:10;}
	.st4{fill:url(#SVGID_00000024701195268759547410000006149954905255806119_);}
	.st5{fill:url(#SVGID_00000132779007474416174700000003776650625376316557_);}
	.st6{fill:url(#SVGID_00000094589865638588991710000015965398305624407937_);}
	.st7{fill:url(#SVGID_00000135682903245372746850000014654869415187425425_);}
	.st8{opacity:0.5;fill:url(#SVGID_00000022536305863412831930000017995812873635490181_);enable-background:new    ;}
	.st9{fill:url(#SVGID_00000108302422831634004820000010373269070478068120_);stroke:#000000;stroke-width:4;stroke-miterlimit:10;}
	.st10{fill:url(#SVGID_00000092416414426230735650000009238024533028363688_);}
	.st11{fill:url(#SVGID_00000129204430992724591550000003988546220969427631_);}
	.st12{fill:url(#SVGID_00000119828245576034047860000001596905914530864787_);}
	.st13{fill:url(#SVGID_00000129884010752677645470000006168265198731440298_);}
	.st14{opacity:0.5;fill:url(#SVGID_00000129908320775719230490000015416305663553877424_);enable-background:new    ;}
	.st15{fill:url(#SVGID_00000114771172990026475290000009245078147179131054_);stroke:#000000;stroke-width:4;stroke-miterlimit:10;}
	.st16{fill:url(#SVGID_00000000182529709836542250000010747974504493549708_);}
	.st17{fill:url(#SVGID_00000062874032735672339570000007680945625834656949_);}
	.st18{fill:url(#SVGID_00000120536850357194896210000004461995887278285710_);}
	.st19{fill:url(#SVGID_00000093173966782162160950000018444742646420762752_);}
	.st20{opacity:0.5;fill:url(#SVGID_00000080185924968226785970000001336047156941758382_);enable-background:new    ;}
	.st21{fill:url(#SVGID_00000170267038393359800380000005239893258232357034_);stroke:#000000;stroke-width:4;stroke-miterlimit:10;}
	.st22{fill:none;stroke:#494949;stroke-width:4;stroke-miterlimit:10;}
	.st23{fill:#494949;}
	.st24{fill:none;stroke:#4D4D4D;stroke-width:2;stroke-miterlimit:10;}
	.st25{fill:url(#SVGID_00000125570961252363651170000012252762379229729198_);}
	.st26{fill:url(#SVGID_00000114037297544746024290000018372621882440763839_);}
	.st27{fill:url(#SVGID_00000048479514591223363680000007037772327862986163_);}
	.st28{fill:url(#SVGID_00000111153818765626884730000005763355948798183813_);}
	.st29{opacity:0.5;fill:url(#SVGID_00000025416884054020228890000011266617462311021457_);enable-background:new    ;}
</style>
<linearGradient id="SVGID_1_" gradientUnits="userSpaceOnUse" x1="33.0312" y1="256" x2="479.9664" y2="256">
	<stop  offset="5.397066e-04" style="stop-color:#575756;stop-opacity:0.25"/>
	<stop  offset="1" style="stop-color:#646464"/>
</linearGradient>
<rect x="33.03" y="54.48" class="st0" width="446.94" height="403.04"/>
<rect x="53.48" y="107.35" width="406.03" height="326.22"/>
<g>
	<g>
		<polyline class="st1" points="70.94,141.32 70.94,410.63 438.02,410.63 		"/>
		<g>
			<path class="st2" d="M70.94,135.29c-1.05,2.84-2.85,6.36-4.76,8.55l4.76-1.72l4.75,1.72C73.79,141.65,71.99,138.13,70.94,135.29z
				"/>
		</g>
		<g>
			<path class="st2" d="M444.05,410.63c-2.84,1.05-6.36,2.85-8.55,4.76l1.72-4.76l-1.72-4.75
				C437.69,407.78,441.21,409.58,444.05,410.63z"/>
		</g>
	</g>
</g>
<line class="st3" x1="70.94" y1="376.71" x2="430.69" y2="376.71"/>
<line class="st3" x1="70.94" y1="345.79" x2="430.69" y2="345.79"/>
<line class="st3" x1="72.53" y1="314.86" x2="432.28" y2="314.86"/>
<line class="st3" x1="70.94" y1="283.93" x2="430.69" y2="283.93"/>
<line class="st3" x1="71.74" y1="253.01" x2="431.49" y2="253.01"/>
<line class="st3" x1="71.74" y1="222.08" x2="431.49" y2="222.08"/>
<line class="st3" x1="73.33" y1="191.15" x2="433.08" y2="191.15"/>
<line class="st3" x1="71.74" y1="160.23" x2="431.49" y2="160.23"/>
<linearGradient id="SVGID_00000016073038023454407630000011326683016206223512_" gradientUnits="userSpaceOnUse" x1="88.8981" y1="296.9026" x2="118.8268" y2="296.9026">
	<stop  offset="0" style="stop-color:#A9D9E9"/>
	<stop  offset="1" style="stop-color:#266CB3"/>
</linearGradient>
<rect x="88.9" y="187.16" style="fill:url(#SVGID_00000016073038023454407630000011326683016206223512_);" width="29.93" height="219.48"/>
<linearGradient id="SVGID_00000125594434210474946770000008054850481099282058_" gradientUnits="userSpaceOnUse" x1="164.7175" y1="391.6768" x2="194.6462" y2="391.6768">
	<stop  offset="0" style="stop-color:#A9D9E9"/>
	<stop  offset="1" style="stop-color:#266CB3"/>
</linearGradient>
<rect x="164.72" y="376.71" style="fill:url(#SVGID_00000125594434210474946770000008054850481099282058_);" width="29.93" height="29.93"/>
<linearGradient id="SVGID_00000158013876731749826700000016445487278162725555_" gradientUnits="userSpaceOnUse" x1="241.5345" y1="327.0456" x2="271.4632" y2="327.0456">
	<stop  offset="0" style="stop-color:#A9D9E9"/>
	<stop  offset="1" style="stop-color:#266CB3"/>
</linearGradient>
<rect x="241.53" y="243.46" style="fill:url(#SVGID_00000158013876731749826700000016445487278162725555_);" width="29.93" height="167.17"/>
<linearGradient id="SVGID_00000111908810179768215630000017909877581296353682_" gradientUnits="userSpaceOnUse" x1="312.3657" y1="351.4943" x2="342.2944" y2="351.4943">
	<stop  offset="0" style="stop-color:#A9D9E9"/>
	<stop  offset="1" style="stop-color:#266CB3"/>
</linearGradient>
<rect x="312.37" y="292.36" style="fill:url(#SVGID_00000111908810179768215630000017909877581296353682_);" width="29.93" height="118.27"/>
<linearGradient id="SVGID_00000084493633458870824400000011868743362560745870_" gradientUnits="userSpaceOnUse" x1="255.1112" y1="2896.4231" x2="255.1112" y2="3218.5383" gradientTransform="matrix(1 0 0 -1 0 3330)">
	<stop  offset="5.397066e-04" style="stop-color:#FFFEFA;stop-opacity:0.25"/>
	<stop  offset="1" style="stop-color:#1C64AC"/>
</linearGradient>
<path style="opacity:0.5;fill:url(#SVGID_00000084493633458870824400000011868743362560745870_);enable-background:new    ;" d="
	M53.48,433.58l403.26-4.21l0-317.91C291.67,186.78,155.71,292.55,53.48,433.58z"/>
<linearGradient id="SVGID_00000072263147280318202770000010662216844109501830_" gradientUnits="userSpaceOnUse" x1="33.0312" y1="768" x2="479.9664" y2="768">
	<stop  offset="5.397066e-04" style="stop-color:#575756;stop-opacity:0.25"/>
	<stop  offset="1" style="stop-color:#646464"/>
</linearGradient>
<rect x="33.03" y="566.48" style="fill:url(#SVGID_00000072263147280318202770000010662216844109501830_);stroke:#000000;stroke-width:4;stroke-miterlimit:10;" width="446.94" height="403.04"/>
<rect x="53.48" y="619.35" width="406.03" height="326.22"/>
<g>
	<g>
		<polyline class="st1" points="70.94,653.32 70.94,922.63 438.02,922.63 		"/>
		<g>
			<path class="st2" d="M70.94,647.29c-1.05,2.84-2.85,6.36-4.76,8.55l4.76-1.72l4.75,1.72C73.79,653.65,71.99,650.13,70.94,647.29z
				"/>
		</g>
		<g>
			<path class="st2" d="M444.05,922.63c-2.84,1.05-6.36,2.85-8.55,4.76l1.72-4.76l-1.72-4.75
				C437.69,919.78,441.21,921.58,444.05,922.63z"/>
		</g>
	</g>
</g>
<line class="st3" x1="70.94" y1="888.71" x2="430.69" y2="888.71"/>
<line class="st3" x1="70.94" y1="857.79" x2="430.69" y2="857.79"/>
<line class="st3" x1="72.53" y1="826.86" x2="432.28" y2="826.86"/>
<line class="st3" x1="70.94" y1="795.93" x2="430.69" y2="795.93"/>
<line class="st3" x1="71.74" y1="765.01" x2="431.49" y2="765.01"/>
<line class="st3" x1="71.74" y1="734.08" x2="431.49" y2="734.08"/>
<line class="st3" x1="73.33" y1="703.15" x2="433.08" y2="703.15"/>
<line class="st3" x1="71.74" y1="672.23" x2="431.49" y2="672.23"/>
<linearGradient id="SVGID_00000155838726243792301760000010849822646493254291_" gradientUnits="userSpaceOnUse" x1="88.8981" y1="808.9025" x2="118.8268" y2="808.9025">
	<stop  offset="0" style="stop-color:#FED908"/>
	<stop  offset="1" style="stop-color:#BF8010"/>
</linearGradient>
<rect x="88.9" y="699.16" style="fill:url(#SVGID_00000155838726243792301760000010849822646493254291_);" width="29.93" height="219.48"/>
<linearGradient id="SVGID_00000146480701900149922880000016474352406663615645_" gradientUnits="userSpaceOnUse" x1="164.7175" y1="903.6768" x2="194.6462" y2="903.6768">
	<stop  offset="0" style="stop-color:#FED908"/>
	<stop  offset="1" style="stop-color:#BF8010"/>
</linearGradient>
<rect x="164.72" y="888.71" style="fill:url(#SVGID_00000146480701900149922880000016474352406663615645_);" width="29.93" height="29.93"/>
<linearGradient id="SVGID_00000009579961318171086200000013039492978230779316_" gradientUnits="userSpaceOnUse" x1="241.5345" y1="839.0456" x2="271.4632" y2="839.0456">
	<stop  offset="0" style="stop-color:#FED908"/>
	<stop  offset="1" style="stop-color:#BF8010"/>
</linearGradient>
<rect x="241.53" y="755.46" style="fill:url(#SVGID_00000009579961318171086200000013039492978230779316_);" width="29.93" height="167.17"/>
<linearGradient id="SVGID_00000170271132212935834960000014590274197267047083_" gradientUnits="userSpaceOnUse" x1="312.3657" y1="863.4943" x2="342.2944" y2="863.4943">
	<stop  offset="0" style="stop-color:#FED908"/>
	<stop  offset="1" style="stop-color:#BF8010"/>
</linearGradient>
<rect x="312.37" y="804.36" style="fill:url(#SVGID_00000170271132212935834960000014590274197267047083_);" width="29.93" height="118.27"/>
<linearGradient id="SVGID_00000036972412643724187090000008470493390200278452_" gradientUnits="userSpaceOnUse" x1="255.1112" y1="2384.4231" x2="255.1112" y2="2706.5383" gradientTransform="matrix(1 0 0 -1 0 3330)">
	<stop  offset="5.397066e-04" style="stop-color:#FFFEFA;stop-opacity:0.25"/>
	<stop  offset="1" style="stop-color:#1C64AC"/>
</linearGradient>
<path style="opacity:0.5;fill:url(#SVGID_00000036972412643724187090000008470493390200278452_);enable-background:new    ;" d="
	M53.48,945.58l403.26-4.21l0-317.91C291.67,698.78,155.71,804.55,53.48,945.58z"/>
<linearGradient id="SVGID_00000133514300642810519720000017892552138137255557_" gradientUnits="userSpaceOnUse" x1="32.5324" y1="1280" x2="479.4676" y2="1280">
	<stop  offset="5.397066e-04" style="stop-color:#575756;stop-opacity:0.25"/>
	<stop  offset="1" style="stop-color:#646464"/>
</linearGradient>
<rect x="32.53" y="1078.48" style="fill:url(#SVGID_00000133514300642810519720000017892552138137255557_);stroke:#000000;stroke-width:4;stroke-miterlimit:10;" width="446.94" height="403.04"/>
<rect x="52.98" y="1131.35" width="406.03" height="326.22"/>
<g>
	<g>
		<polyline class="st1" points="70.44,1165.32 70.44,1434.63 437.52,1434.63 		"/>
		<g>
			<path class="st2" d="M70.44,1159.29c-1.05,2.84-2.85,6.36-4.76,8.55l4.76-1.72l4.75,1.72
				C73.29,1165.65,71.49,1162.13,70.44,1159.29z"/>
		</g>
		<g>
			<path class="st2" d="M443.55,1434.63c-2.84,1.05-6.36,2.85-8.55,4.76l1.72-4.76l-1.72-4.75
				C437.19,1431.78,440.71,1433.58,443.55,1434.63z"/>
		</g>
	</g>
</g>
<line class="st3" x1="70.44" y1="1400.71" x2="430.19" y2="1400.71"/>
<line class="st3" x1="70.44" y1="1369.79" x2="430.19" y2="1369.79"/>
<line class="st3" x1="72.03" y1="1338.86" x2="431.78" y2="1338.86"/>
<line class="st3" x1="70.44" y1="1307.93" x2="430.19" y2="1307.93"/>
<line class="st3" x1="71.24" y1="1277.01" x2="430.99" y2="1277.01"/>
<line class="st3" x1="71.24" y1="1246.08" x2="430.99" y2="1246.08"/>
<line class="st3" x1="72.83" y1="1215.15" x2="432.58" y2="1215.15"/>
<line class="st3" x1="71.24" y1="1184.23" x2="430.99" y2="1184.23"/>
<linearGradient id="SVGID_00000106857160880882435650000003854249368530357163_" gradientUnits="userSpaceOnUse" x1="88.3993" y1="1320.9026" x2="118.328" y2="1320.9026">
	<stop  offset="0" style="stop-color:#9CCA85"/>
	<stop  offset="1" style="stop-color:#368E36"/>
</linearGradient>
<rect x="88.4" y="1211.16" style="fill:url(#SVGID_00000106857160880882435650000003854249368530357163_);" width="29.93" height="219.48"/>
<linearGradient id="SVGID_00000176734528777535833400000000510093562359152296_" gradientUnits="userSpaceOnUse" x1="164.2187" y1="1415.6768" x2="194.1474" y2="1415.6768">
	<stop  offset="0" style="stop-color:#9CCA85"/>
	<stop  offset="1" style="stop-color:#368E36"/>
</linearGradient>
<rect x="164.22" y="1400.71" style="fill:url(#SVGID_00000176734528777535833400000000510093562359152296_);" width="29.93" height="29.93"/>
<linearGradient id="SVGID_00000137115455683027743490000005444447699322384007_" gradientUnits="userSpaceOnUse" x1="241.0357" y1="1351.0455" x2="270.9644" y2="1351.0455">
	<stop  offset="0" style="stop-color:#9CCA85"/>
	<stop  offset="1" style="stop-color:#368E36"/>
</linearGradient>
<rect x="241.04" y="1267.46" style="fill:url(#SVGID_00000137115455683027743490000005444447699322384007_);" width="29.93" height="167.17"/>
<linearGradient id="SVGID_00000095314111664240416020000000626765157781791676_" gradientUnits="userSpaceOnUse" x1="311.8669" y1="1375.4943" x2="341.7956" y2="1375.4943">
	<stop  offset="0" style="stop-color:#9CCA85"/>
	<stop  offset="1" style="stop-color:#368E36"/>
</linearGradient>
<rect x="311.87" y="1316.36" style="fill:url(#SVGID_00000095314111664240416020000000626765157781791676_);" width="29.93" height="118.27"/>
<linearGradient id="SVGID_00000131368343166446193930000000706745528730707109_" gradientUnits="userSpaceOnUse" x1="255.1112" y1="1872.4231" x2="255.1112" y2="2194.5383" gradientTransform="matrix(1 0 0 -1 0 3330)">
	<stop  offset="5.397066e-04" style="stop-color:#FFFEFA;stop-opacity:0.25"/>
	<stop  offset="1" style="stop-color:#1C64AC"/>
</linearGradient>
<path style="opacity:0.5;fill:url(#SVGID_00000131368343166446193930000000706745528730707109_);enable-background:new    ;" d="
	M53.48,1457.58l403.26-4.21l0-317.91C291.67,1210.78,155.71,1316.55,53.48,1457.58z"/>
<linearGradient id="SVGID_00000142167269789378574980000009222144812567759544_" gradientUnits="userSpaceOnUse" x1="32.5324" y1="1792.3892" x2="479.4676" y2="1792.3892">
	<stop  offset="5.397066e-04" style="stop-color:#575756;stop-opacity:0.25"/>
	<stop  offset="1" style="stop-color:#646464"/>
</linearGradient>
<rect x="32.53" y="1590.87" style="fill:url(#SVGID_00000142167269789378574980000009222144812567759544_);stroke:#000000;stroke-width:4;stroke-miterlimit:10;" width="446.94" height="403.04"/>
<rect x="52.98" y="1643.74" width="406.03" height="326.22"/>
<g>
	<g>
		<polyline class="st22" points="70.44,1677.71 70.44,1947.02 437.52,1947.02 		"/>
		<g>
			<path class="st23" d="M70.44,1671.68c-1.05,2.84-2.85,6.36-4.76,8.55l4.76-1.72l4.75,1.72
				C73.29,1678.04,71.49,1674.52,70.44,1671.68z"/>
		</g>
		<g>
			<path class="st23" d="M443.55,1947.02c-2.84,1.05-6.36,2.85-8.55,4.76l1.72-4.76l-1.72-4.75
				C437.19,1944.17,440.71,1945.97,443.55,1947.02z"/>
		</g>
	</g>
</g>
<line class="st24" x1="70.44" y1="1913.1" x2="430.19" y2="1913.1"/>
<line class="st24" x1="70.44" y1="1882.18" x2="430.19" y2="1882.18"/>
<line class="st24" x1="72.03" y1="1851.25" x2="431.78" y2="1851.25"/>
<line class="st24" x1="70.44" y1="1820.32" x2="430.19" y2="1820.32"/>
<line class="st24" x1="71.24" y1="1789.4" x2="430.99" y2="1789.4"/>
<line class="st24" x1="71.24" y1="1758.47" x2="430.99" y2="1758.47"/>
<line class="st24" x1="72.83" y1="1727.54" x2="432.58" y2="1727.54"/>
<line class="st24" x1="71.24" y1="1696.62" x2="430.99" y2="1696.62"/>
<linearGradient id="SVGID_00000008855259123842631560000009599325276704177835_" gradientUnits="userSpaceOnUse" x1="88.3993" y1="1833.2916" x2="118.328" y2="1833.2916">
	<stop  offset="0" style="stop-color:#DDDDDD"/>
	<stop  offset="1" style="stop-color:#6E6E6E"/>
</linearGradient>
<rect x="88.4" y="1723.55" style="fill:url(#SVGID_00000008855259123842631560000009599325276704177835_);" width="29.93" height="219.48"/>
<linearGradient id="SVGID_00000057107022558247012710000004524694617904343218_" gradientUnits="userSpaceOnUse" x1="164.2187" y1="1928.0659" x2="194.1474" y2="1928.0659">
	<stop  offset="0" style="stop-color:#DDDDDD"/>
	<stop  offset="1" style="stop-color:#6E6E6E"/>
</linearGradient>
<rect x="164.22" y="1913.1" style="fill:url(#SVGID_00000057107022558247012710000004524694617904343218_);" width="29.93" height="29.93"/>
<linearGradient id="SVGID_00000016763659624892715210000012982607691397840776_" gradientUnits="userSpaceOnUse" x1="241.0357" y1="1863.4347" x2="270.9644" y2="1863.4347">
	<stop  offset="0" style="stop-color:#DDDDDD"/>
	<stop  offset="1" style="stop-color:#6E6E6E"/>
</linearGradient>
<rect x="241.04" y="1779.85" style="fill:url(#SVGID_00000016763659624892715210000012982607691397840776_);" width="29.93" height="167.17"/>
<linearGradient id="SVGID_00000005262776507649634330000011113109524402051721_" gradientUnits="userSpaceOnUse" x1="311.8669" y1="1887.8834" x2="341.7956" y2="1887.8834">
	<stop  offset="0" style="stop-color:#DDDDDD"/>
	<stop  offset="1" style="stop-color:#6E6E6E"/>
</linearGradient>
<rect x="311.87" y="1828.75" style="fill:url(#SVGID_00000005262776507649634330000011113109524402051721_);" width="29.93" height="118.27"/>
<linearGradient id="SVGID_00000067215200749087452250000002340974772408239006_" gradientUnits="userSpaceOnUse" x1="255.1112" y1="1360.0339" x2="255.1112" y2="1682.1493" gradientTransform="matrix(1 0 0 -1 0 3330)">
	<stop  offset="5.397066e-04" style="stop-color:#FEFEFE;stop-opacity:0.25"/>
	<stop  offset="1" style="stop-color:#646464"/>
</linearGradient>
<path style="opacity:0.5;fill:url(#SVGID_00000067215200749087452250000002340974772408239006_);enable-background:new    ;" d="
	M53.48,1969.97l403.26-4.21l0-317.91C291.67,1723.17,155.71,1828.94,53.48,1969.97z"/>
</svg>
