<?xml version="1.0" encoding="utf-8"?>
<!-- Generator: Adobe Illustrator 27.0.1, SVG Export Plug-In . SVG Version: 6.00 Build 0)  -->
<svg version="1.1" id="Calque_1" xmlns="http://www.w3.org/2000/svg" xmlns:xlink="http://www.w3.org/1999/xlink" x="0px" y="0px"
	 viewBox="0 0 512 2048" style="enable-background:new 0 0 512 2048;" xml:space="preserve">
<style type="text/css">
	.st0{fill:url(#SVGID_1_);stroke:#000000;stroke-width:4;stroke-miterlimit:10;}
	.st1{fill:url(#SVGID_00000183933652458027205660000007098252654736796033_);stroke:#000000;stroke-width:4;stroke-miterlimit:10;}
	.st2{fill:url(#SVGID_00000058560812887227865220000013376687246209615248_);stroke:#000000;stroke-width:4;stroke-miterlimit:10;}
	
		.st3{fill:url(#SVGID_00000145772908664868035410000003223983253323401383_);stroke:#000000;stroke-width:14;stroke-linecap:round;stroke-miterlimit:10;}
	
		.st4{fill:url(#SVGID_00000049912959291318050960000006386922039743280037_);stroke:#000000;stroke-width:14;stroke-linecap:round;stroke-miterlimit:10;}
	
		.st5{fill:url(#SVGID_00000142164085385299407270000010880679934458354341_);stroke:#000000;stroke-width:14;stroke-linecap:round;stroke-miterlimit:10;}
	
		.st6{fill:url(#SVGID_00000007391760911857093910000006331713558585893512_);stroke:#000000;stroke-width:14;stroke-linecap:round;stroke-miterlimit:10;}
	.st7{fill:url(#SVGID_00000150068215158465866400000007179775462605333432_);stroke:#000000;stroke-width:4;stroke-miterlimit:10;}
	.st8{fill:url(#SVGID_00000102524164872034198670000002499386734888483744_);stroke:#000000;stroke-width:4;stroke-miterlimit:10;}
	.st9{fill:url(#SVGID_00000064345679011557520580000008754842737267334537_);stroke:#000000;stroke-width:4;stroke-miterlimit:10;}
	
		.st10{fill:url(#SVGID_00000032634843761722761320000009185360884947043741_);stroke:#000000;stroke-width:14;stroke-linecap:round;stroke-miterlimit:10;}
	
		.st11{fill:url(#SVGID_00000094606680134581080990000007473628052688223111_);stroke:#000000;stroke-width:14;stroke-linecap:round;stroke-miterlimit:10;}
	
		.st12{fill:url(#SVGID_00000132789944050278220380000006458051371488145591_);stroke:#000000;stroke-width:14;stroke-linecap:round;stroke-miterlimit:10;}
	
		.st13{fill:url(#SVGID_00000054948570497823895720000010562591086508371076_);stroke:#000000;stroke-width:14;stroke-linecap:round;stroke-miterlimit:10;}
	.st14{fill:url(#SVGID_00000181082542255035340630000018357614532569622150_);stroke:#000000;stroke-width:4;stroke-miterlimit:10;}
	.st15{fill:url(#SVGID_00000064337778511734604850000012553255765555933342_);stroke:#000000;stroke-width:4;stroke-miterlimit:10;}
	.st16{fill:url(#SVGID_00000128458327468006194840000003320484241428234159_);stroke:#000000;stroke-width:4;stroke-miterlimit:10;}
	
		.st17{fill:url(#SVGID_00000168814311411500653410000012957589253395666601_);stroke:#000000;stroke-width:14;stroke-linecap:round;stroke-miterlimit:10;}
	
		.st18{fill:url(#SVGID_00000157296437225840610510000001104229029347927702_);stroke:#000000;stroke-width:14;stroke-linecap:round;stroke-miterlimit:10;}
	
		.st19{fill:url(#SVGID_00000152961522632991635420000013881451281709880510_);stroke:#000000;stroke-width:14;stroke-linecap:round;stroke-miterlimit:10;}
	
		.st20{fill:url(#SVGID_00000120545718766106446750000011766397544532088230_);stroke:#000000;stroke-width:14;stroke-linecap:round;stroke-miterlimit:10;}
	.st21{fill:url(#SVGID_00000182519936625033016900000012378706597003857284_);stroke:#A2A19F;stroke-width:4;stroke-miterlimit:10;}
	.st22{fill:url(#SVGID_00000103240663019200498310000001404876603227193777_);stroke:#A2A19F;stroke-width:4;stroke-miterlimit:10;}
	.st23{fill:url(#SVGID_00000040547628944736549140000006431863781817305496_);stroke:#A2A19F;stroke-width:4;stroke-miterlimit:10;}
	
		.st24{fill:url(#SVGID_00000107583266748720689240000013562446695255569585_);stroke:#A2A19F;stroke-width:14;stroke-linecap:round;stroke-miterlimit:10;}
	
		.st25{fill:url(#SVGID_00000140719214574280886120000003000461047266248340_);stroke:#A2A19F;stroke-width:14;stroke-linecap:round;stroke-miterlimit:10;}
	
		.st26{fill:url(#SVGID_00000018952701583125657080000005277927868257409980_);stroke:#A2A19F;stroke-width:14;stroke-linecap:round;stroke-miterlimit:10;}
	
		.st27{fill:url(#SVGID_00000052101189687055090110000012201824272343863227_);stroke:#A2A19F;stroke-width:14;stroke-linecap:round;stroke-miterlimit:10;}
</style>
<linearGradient id="SVGID_1_" gradientUnits="userSpaceOnUse" x1="97.0603" y1="314.8267" x2="406.9885" y2="314.8267" gradientTransform="matrix(0.9397 0.342 -0.342 0.9397 117.6905 -76.6888)">
	<stop  offset="0" style="stop-color:#FFFFFF"/>
	<stop  offset="1" style="stop-color:#E9E8E7"/>
</linearGradient>
<path class="st0" d="M302.06,143.91l-171.61,28.13l52.16,291.47c72.9,16.11,135.26,6.43,184.48-35.48L302.06,143.91z M220.11,201.84
	c-7.59-2.76-11.51-11.16-8.75-18.75c2.76-7.59,11.16-11.51,18.75-8.75c7.59,2.76,11.51,11.16,8.74,18.75S227.7,204.6,220.11,201.84z
	"/>
<linearGradient id="SVGID_00000061473413612240492360000015973387663224071589_" gradientUnits="userSpaceOnUse" x1="112.4178" y1="302.8671" x2="422.3461" y2="302.8671" gradientTransform="matrix(0.9848 0.1736 -0.1736 0.9848 54.7345 -45.1524)">
	<stop  offset="0" style="stop-color:#FFFFFF"/>
	<stop  offset="1" style="stop-color:#E9E8E7"/>
</linearGradient>
<path style="fill:url(#SVGID_00000061473413612240492360000015973387663224071589_);stroke:#000000;stroke-width:4;stroke-miterlimit:10;" d="
	M291.81,130.96l-164.12,57.51l101.98,277.99c74.59,3.21,134.33-17.16,175.52-66.98L291.81,130.96z M221.16,202.25
	c-7.96-1.4-13.27-8.99-11.87-16.95c1.4-7.96,8.99-13.27,16.95-11.87c7.96,1.4,13.27,8.99,11.87,16.95
	C236.71,198.34,229.12,203.65,221.16,202.25z"/>
<linearGradient id="SVGID_00000106832989527753595150000009891042731520553625_" gradientUnits="userSpaceOnUse" x1="130.4503" y1="290.2327" x2="440.3785" y2="290.2327">
	<stop  offset="0" style="stop-color:#FFFFFF"/>
	<stop  offset="1" style="stop-color:#E9E8E7"/>
</linearGradient>
<path style="fill:url(#SVGID_00000106832989527753595150000009891042731520553625_);stroke:#000000;stroke-width:4;stroke-miterlimit:10;" d="
	M282.09,119.64l-151.64,85.13l148.71,256.06c74.01-9.79,129.31-40.22,161.22-96.44L282.09,119.64z M224.89,202.11
	c-8.08,0-14.63-6.55-14.63-14.63s6.55-14.63,14.63-14.63c8.08,0,14.63,6.55,14.63,14.63S232.97,202.11,224.89,202.11z"/>
<linearGradient id="SVGID_00000005958308366251722790000005122761232025467795_" gradientUnits="userSpaceOnUse" x1="153.0631" y1="109.6629" x2="224.1107" y2="109.6629">
	<stop  offset="0" style="stop-color:#FFFFFF"/>
	<stop  offset="1" style="stop-color:#E9E8E7"/>
</linearGradient>
<line style="fill:url(#SVGID_00000005958308366251722790000005122761232025467795_);stroke:#000000;stroke-width:14;stroke-linecap:round;stroke-miterlimit:10;" x1="153.06" y1="31.85" x2="224.11" y2="187.48"/>
<linearGradient id="SVGID_00000163759178023036809800000016242375529420356284_" gradientUnits="userSpaceOnUse" x1="285.4144" y1="269.6152" x2="372.5402" y2="269.6152">
	<stop  offset="0" style="stop-color:#FFFFFF"/>
	<stop  offset="1" style="stop-color:#E9E8E7"/>
</linearGradient>
<line style="fill:url(#SVGID_00000163759178023036809800000016242375529420356284_);stroke:#000000;stroke-width:14;stroke-linecap:round;stroke-miterlimit:10;" x1="285.41" y1="199.12" x2="372.54" y2="340.11"/>
<linearGradient id="SVGID_00000158749395331381308380000015362349416616989866_" gradientUnits="userSpaceOnUse" x1="252.5349" y1="290.2327" x2="339.6606" y2="290.2327">
	<stop  offset="0" style="stop-color:#FFFFFF"/>
	<stop  offset="1" style="stop-color:#E9E8E7"/>
</linearGradient>
<line style="fill:url(#SVGID_00000158749395331381308380000015362349416616989866_);stroke:#000000;stroke-width:14;stroke-linecap:round;stroke-miterlimit:10;" x1="252.53" y1="219.73" x2="339.66" y2="360.73"/>
<linearGradient id="SVGID_00000139996796475766768950000003188818660054733733_" gradientUnits="userSpaceOnUse" x1="222.8808" y1="276.4792" x2="268.351" y2="276.4792">
	<stop  offset="0" style="stop-color:#FFFFFF"/>
	<stop  offset="1" style="stop-color:#E9E8E7"/>
</linearGradient>
<line style="fill:url(#SVGID_00000139996796475766768950000003188818660054733733_);stroke:#000000;stroke-width:14;stroke-linecap:round;stroke-miterlimit:10;" x1="222.88" y1="239.69" x2="268.35" y2="313.27"/>
<linearGradient id="SVGID_00000019658842028415668580000003219819176709879201_" gradientUnits="userSpaceOnUse" x1="272.1746" y1="795.9493" x2="582.1028" y2="795.9493" gradientTransform="matrix(0.9397 0.342 -0.342 0.9397 117.6905 -76.6888)">
	<stop  offset="0" style="stop-color:#FFFFFF"/>
	<stop  offset="1" style="stop-color:#E9E8E7"/>
</linearGradient>
<path style="fill:url(#SVGID_00000019658842028415668580000003219819176709879201_);stroke:#000000;stroke-width:4;stroke-miterlimit:10;" d="
	M302.06,655.91l-171.61,28.13l52.16,291.47c72.9,16.11,135.26,6.43,184.48-35.48L302.06,655.91z M220.11,713.84
	c-7.59-2.76-11.51-11.16-8.75-18.75c2.76-7.59,11.16-11.51,18.75-8.75c7.59,2.76,11.51,11.16,8.74,18.75S227.7,716.6,220.11,713.84z
	"/>
<linearGradient id="SVGID_00000158707655888229371000000005169196675803606189_" gradientUnits="userSpaceOnUse" x1="201.3257" y1="807.0887" x2="511.2539" y2="807.0887" gradientTransform="matrix(0.9848 0.1736 -0.1736 0.9848 54.7345 -45.1524)">
	<stop  offset="0" style="stop-color:#FFFFFF"/>
	<stop  offset="1" style="stop-color:#E9E8E7"/>
</linearGradient>
<path style="fill:url(#SVGID_00000158707655888229371000000005169196675803606189_);stroke:#000000;stroke-width:4;stroke-miterlimit:10;" d="
	M291.81,642.96l-164.12,57.51l101.98,277.99c74.59,3.21,134.33-17.16,175.52-66.98L291.81,642.96z M221.16,714.25
	c-7.96-1.4-13.27-8.99-11.87-16.95c1.4-7.96,8.99-13.27,16.95-11.87c7.96,1.4,13.27,8.99,11.87,16.95
	C236.71,710.34,229.12,715.65,221.16,714.25z"/>
<linearGradient id="SVGID_00000151534102704726731200000001428303069607163047_" gradientUnits="userSpaceOnUse" x1="130.4503" y1="802.2327" x2="440.3785" y2="802.2327">
	<stop  offset="0" style="stop-color:#FFFFFF"/>
	<stop  offset="1" style="stop-color:#F3920D"/>
</linearGradient>
<path style="fill:url(#SVGID_00000151534102704726731200000001428303069607163047_);stroke:#000000;stroke-width:4;stroke-miterlimit:10;" d="
	M282.09,631.64l-151.64,85.13l148.71,256.06c74.01-9.79,129.31-40.22,161.22-96.44L282.09,631.64z M224.89,714.11
	c-8.08,0-14.63-6.55-14.63-14.63s6.55-14.63,14.63-14.63c8.08,0,14.63,6.55,14.63,14.63S232.97,714.11,224.89,714.11z"/>
<linearGradient id="SVGID_00000140707627597675477220000014810927304176069028_" gradientUnits="userSpaceOnUse" x1="153.0631" y1="621.6629" x2="224.1107" y2="621.6629">
	<stop  offset="0" style="stop-color:#FFFFFF"/>
	<stop  offset="1" style="stop-color:#E9E8E7"/>
</linearGradient>
<line style="fill:url(#SVGID_00000140707627597675477220000014810927304176069028_);stroke:#000000;stroke-width:14;stroke-linecap:round;stroke-miterlimit:10;" x1="153.06" y1="543.85" x2="224.11" y2="699.48"/>
<linearGradient id="SVGID_00000088092339775753202070000001582033576692262842_" gradientUnits="userSpaceOnUse" x1="285.4144" y1="781.6152" x2="372.5402" y2="781.6152">
	<stop  offset="0" style="stop-color:#FFFFFF"/>
	<stop  offset="1" style="stop-color:#E9E8E7"/>
</linearGradient>
<line style="fill:url(#SVGID_00000088092339775753202070000001582033576692262842_);stroke:#000000;stroke-width:14;stroke-linecap:round;stroke-miterlimit:10;" x1="285.41" y1="711.12" x2="372.54" y2="852.11"/>
<linearGradient id="SVGID_00000169546605944095661510000018349496967634814348_" gradientUnits="userSpaceOnUse" x1="252.5349" y1="802.2327" x2="339.6606" y2="802.2327">
	<stop  offset="0" style="stop-color:#FFFFFF"/>
	<stop  offset="1" style="stop-color:#E9E8E7"/>
</linearGradient>
<line style="fill:url(#SVGID_00000169546605944095661510000018349496967634814348_);stroke:#000000;stroke-width:14;stroke-linecap:round;stroke-miterlimit:10;" x1="252.53" y1="731.73" x2="339.66" y2="872.73"/>
<linearGradient id="SVGID_00000020390699172652540260000017624784327359909032_" gradientUnits="userSpaceOnUse" x1="222.8808" y1="788.4792" x2="268.351" y2="788.4792">
	<stop  offset="0" style="stop-color:#FFFFFF"/>
	<stop  offset="1" style="stop-color:#E9E8E7"/>
</linearGradient>
<line style="fill:url(#SVGID_00000020390699172652540260000017624784327359909032_);stroke:#000000;stroke-width:14;stroke-linecap:round;stroke-miterlimit:10;" x1="222.88" y1="751.69" x2="268.35" y2="825.27"/>
<linearGradient id="SVGID_00000104673184125576872240000014252322062364702594_" gradientUnits="userSpaceOnUse" x1="447.2889" y1="1277.0719" x2="757.2171" y2="1277.0719" gradientTransform="matrix(0.9397 0.342 -0.342 0.9397 117.6905 -76.6888)">
	<stop  offset="0" style="stop-color:#FFFFFF"/>
	<stop  offset="1" style="stop-color:#E9E8E7"/>
</linearGradient>
<path style="fill:url(#SVGID_00000104673184125576872240000014252322062364702594_);stroke:#000000;stroke-width:4;stroke-miterlimit:10;" d="
	M302.06,1167.91l-171.61,28.13l52.16,291.47c72.9,16.11,135.26,6.43,184.48-35.48L302.06,1167.91z M220.11,1225.84
	c-7.59-2.76-11.51-11.16-8.75-18.75s11.16-11.51,18.75-8.75c7.59,2.76,11.51,11.16,8.74,18.75
	C236.1,1224.69,227.7,1228.6,220.11,1225.84z"/>
<linearGradient id="SVGID_00000158729179358465600940000010857901447433969599_" gradientUnits="userSpaceOnUse" x1="290.2336" y1="1311.3103" x2="600.1618" y2="1311.3103" gradientTransform="matrix(0.9848 0.1736 -0.1736 0.9848 54.7345 -45.1524)">
	<stop  offset="0" style="stop-color:#FFFFFF"/>
	<stop  offset="1" style="stop-color:#E9E8E7"/>
</linearGradient>
<path style="fill:url(#SVGID_00000158729179358465600940000010857901447433969599_);stroke:#000000;stroke-width:4;stroke-miterlimit:10;" d="
	M291.81,1154.96l-164.12,57.51l101.98,277.99c74.59,3.21,134.33-17.16,175.52-66.98L291.81,1154.96z M221.16,1226.25
	c-7.96-1.4-13.27-8.99-11.87-16.95c1.4-7.96,8.99-13.27,16.95-11.87c7.96,1.4,13.27,8.99,11.87,16.95
	C236.71,1222.34,229.12,1227.65,221.16,1226.25z"/>
<linearGradient id="SVGID_00000149345866474571755460000010946866778106451365_" gradientUnits="userSpaceOnUse" x1="130.4503" y1="1314.2327" x2="440.3785" y2="1314.2327">
	<stop  offset="0" style="stop-color:#FFFFFF"/>
	<stop  offset="1" style="stop-color:#3CB2E6"/>
</linearGradient>
<path style="fill:url(#SVGID_00000149345866474571755460000010946866778106451365_);stroke:#000000;stroke-width:4;stroke-miterlimit:10;" d="
	M282.09,1143.64l-151.64,85.13l148.71,256.06c74.01-9.79,129.31-40.22,161.22-96.44L282.09,1143.64z M224.89,1226.11
	c-8.08,0-14.63-6.55-14.63-14.63s6.55-14.63,14.63-14.63c8.08,0,14.63,6.55,14.63,14.63S232.97,1226.11,224.89,1226.11z"/>
<linearGradient id="SVGID_00000026137175016358659400000011600225307279547833_" gradientUnits="userSpaceOnUse" x1="153.0631" y1="1133.663" x2="224.1107" y2="1133.663">
	<stop  offset="0" style="stop-color:#FFFFFF"/>
	<stop  offset="1" style="stop-color:#E9E8E7"/>
</linearGradient>
<line style="fill:url(#SVGID_00000026137175016358659400000011600225307279547833_);stroke:#000000;stroke-width:14;stroke-linecap:round;stroke-miterlimit:10;" x1="153.06" y1="1055.85" x2="224.11" y2="1211.48"/>
<linearGradient id="SVGID_00000021078702283365887260000012101297164560118185_" gradientUnits="userSpaceOnUse" x1="285.4144" y1="1293.6152" x2="372.5402" y2="1293.6152">
	<stop  offset="0" style="stop-color:#FFFFFF"/>
	<stop  offset="1" style="stop-color:#E9E8E7"/>
</linearGradient>
<line style="fill:url(#SVGID_00000021078702283365887260000012101297164560118185_);stroke:#000000;stroke-width:14;stroke-linecap:round;stroke-miterlimit:10;" x1="285.41" y1="1223.12" x2="372.54" y2="1364.11"/>
<linearGradient id="SVGID_00000182505707659029236710000015820283092130440367_" gradientUnits="userSpaceOnUse" x1="252.5349" y1="1314.2327" x2="339.6606" y2="1314.2327">
	<stop  offset="0" style="stop-color:#FFFFFF"/>
	<stop  offset="1" style="stop-color:#E9E8E7"/>
</linearGradient>
<line style="fill:url(#SVGID_00000182505707659029236710000015820283092130440367_);stroke:#000000;stroke-width:14;stroke-linecap:round;stroke-miterlimit:10;" x1="252.53" y1="1243.73" x2="339.66" y2="1384.73"/>
<linearGradient id="SVGID_00000129178941698993038120000010209844251387209403_" gradientUnits="userSpaceOnUse" x1="222.8808" y1="1300.4792" x2="268.351" y2="1300.4792">
	<stop  offset="0" style="stop-color:#FFFFFF"/>
	<stop  offset="1" style="stop-color:#E9E8E7"/>
</linearGradient>
<line style="fill:url(#SVGID_00000129178941698993038120000010209844251387209403_);stroke:#000000;stroke-width:14;stroke-linecap:round;stroke-miterlimit:10;" x1="222.88" y1="1263.69" x2="268.35" y2="1337.27"/>
<linearGradient id="SVGID_00000130620618968479894110000012456771637365387162_" gradientUnits="userSpaceOnUse" x1="622.4776" y1="1758.399" x2="932.4058" y2="1758.399" gradientTransform="matrix(0.9397 0.342 -0.342 0.9397 117.6905 -76.6888)">
	<stop  offset="0" style="stop-color:#FFFFFF"/>
	<stop  offset="1" style="stop-color:#E9E8E7"/>
</linearGradient>
<path style="fill:url(#SVGID_00000130620618968479894110000012456771637365387162_);stroke:#A2A19F;stroke-width:4;stroke-miterlimit:10;" d="
	M302.06,1680.12l-171.61,28.13l52.16,291.47c72.9,16.11,135.26,6.43,184.48-35.48L302.06,1680.12z M220.11,1738.06
	c-7.59-2.76-11.51-11.16-8.75-18.75c2.76-7.59,11.16-11.51,18.75-8.74c7.59,2.76,11.51,11.16,8.74,18.75
	S227.7,1740.82,220.11,1738.06z"/>
<linearGradient id="SVGID_00000093177410453472457990000002394928152393684887_" gradientUnits="userSpaceOnUse" x1="379.1792" y1="1815.7461" x2="689.1074" y2="1815.7461" gradientTransform="matrix(0.9848 0.1736 -0.1736 0.9848 54.7345 -45.1524)">
	<stop  offset="0" style="stop-color:#FFFFFF"/>
	<stop  offset="1" style="stop-color:#E9E8E7"/>
</linearGradient>
<path style="fill:url(#SVGID_00000093177410453472457990000002394928152393684887_);stroke:#A2A19F;stroke-width:4;stroke-miterlimit:10;" d="
	M291.81,1667.18l-164.12,57.51l101.98,277.99c74.59,3.21,134.33-17.16,175.52-66.98L291.81,1667.18z M221.16,1738.47
	c-7.96-1.4-13.27-8.99-11.87-16.95c1.4-7.96,8.99-13.27,16.95-11.87c7.96,1.4,13.27,8.99,11.87,16.95
	C236.71,1734.56,229.12,1739.87,221.16,1738.47z"/>
<linearGradient id="SVGID_00000124856866106097011280000015518391647607088527_" gradientUnits="userSpaceOnUse" x1="130.4503" y1="1826.4503" x2="440.3785" y2="1826.4503">
	<stop  offset="0" style="stop-color:#FFFFFF"/>
	<stop  offset="1" style="stop-color:#E9E8E7"/>
</linearGradient>
<path style="fill:url(#SVGID_00000124856866106097011280000015518391647607088527_);stroke:#A2A19F;stroke-width:4;stroke-miterlimit:10;" d="
	M282.09,1655.86l-151.64,85.13l148.71,256.06c74.01-9.79,129.31-40.22,161.22-96.44L282.09,1655.86z M224.89,1738.33
	c-8.08,0-14.63-6.55-14.63-14.63s6.55-14.63,14.63-14.63c8.08,0,14.63,6.55,14.63,14.63S232.97,1738.33,224.89,1738.33z"/>
<linearGradient id="SVGID_00000029747677594755319180000000240985235683760545_" gradientUnits="userSpaceOnUse" x1="153.0631" y1="1645.8805" x2="224.1107" y2="1645.8805">
	<stop  offset="0" style="stop-color:#FFFFFF"/>
	<stop  offset="1" style="stop-color:#E9E8E7"/>
</linearGradient>
<line style="fill:url(#SVGID_00000029747677594755319180000000240985235683760545_);stroke:#A2A19F;stroke-width:14;stroke-linecap:round;stroke-miterlimit:10;" x1="153.06" y1="1568.07" x2="224.11" y2="1723.7"/>
<linearGradient id="SVGID_00000119109771545264599620000008041468181632261555_" gradientUnits="userSpaceOnUse" x1="285.4144" y1="1805.8328" x2="372.5402" y2="1805.8328">
	<stop  offset="0" style="stop-color:#FFFFFF"/>
	<stop  offset="1" style="stop-color:#E9E8E7"/>
</linearGradient>
<line style="fill:url(#SVGID_00000119109771545264599620000008041468181632261555_);stroke:#A2A19F;stroke-width:14;stroke-linecap:round;stroke-miterlimit:10;" x1="285.41" y1="1735.33" x2="372.54" y2="1876.33"/>
<linearGradient id="SVGID_00000054977378159857052330000012675127951249522834_" gradientUnits="userSpaceOnUse" x1="252.5349" y1="1826.4503" x2="339.6606" y2="1826.4503">
	<stop  offset="0" style="stop-color:#FFFFFF"/>
	<stop  offset="1" style="stop-color:#E9E8E7"/>
</linearGradient>
<line style="fill:url(#SVGID_00000054977378159857052330000012675127951249522834_);stroke:#A2A19F;stroke-width:14;stroke-linecap:round;stroke-miterlimit:10;" x1="252.53" y1="1755.95" x2="339.66" y2="1896.95"/>
<linearGradient id="SVGID_00000148662477954670073100000014062425659870215076_" gradientUnits="userSpaceOnUse" x1="222.8808" y1="1812.6968" x2="268.351" y2="1812.6968">
	<stop  offset="0" style="stop-color:#FFFFFF"/>
	<stop  offset="1" style="stop-color:#E9E8E7"/>
</linearGradient>
<line style="fill:url(#SVGID_00000148662477954670073100000014062425659870215076_);stroke:#A2A19F;stroke-width:14;stroke-linecap:round;stroke-miterlimit:10;" x1="222.88" y1="1775.9" x2="268.35" y2="1849.49"/>
</svg>
