<?xml version="1.0" encoding="utf-8"?>
<!-- Generator: Adobe Illustrator 27.0.1, SVG Export Plug-In . SVG Version: 6.00 Build 0)  -->
<svg version="1.1" id="Calque_1" xmlns="http://www.w3.org/2000/svg" xmlns:xlink="http://www.w3.org/1999/xlink" x="0px" y="0px"
	 viewBox="0 0 512 2048" style="enable-background:new 0 0 512 2048;" xml:space="preserve">
<style type="text/css">
	.st0{opacity:0.5;fill:none;stroke:#3F3E3C;stroke-width:16;stroke-miterlimit:10;enable-background:new    ;}
	.st1{fill:#5CB9DC;stroke:#000000;stroke-width:4;stroke-miterlimit:10;}
	.st2{fill:#E8E8E6;stroke:#000000;stroke-width:4;stroke-miterlimit:10;}
	.st3{fill:url(#SVGID_1_);stroke:#030405;stroke-width:4;stroke-miterlimit:10;}
	.st4{fill:url(#SVGID_00000074410233624957194350000007977805873748344455_);stroke:#030405;stroke-width:4;stroke-miterlimit:10;}
	.st5{opacity:0.5;fill:url(#SVGID_00000176751753955818844470000008218721935458943640_);enable-background:new    ;}
	.st6{opacity:0.5;fill:url(#SVGID_00000050648604102658938300000004791231696901669789_);enable-background:new    ;}
	.st7{fill:url(#SVGID_00000155138427929871038490000006951765992781104006_);stroke:#030304;stroke-width:4;stroke-miterlimit:10;}
	.st8{fill:url(#SVGID_00000129897143508056665250000013775477047811549322_);stroke:#030304;stroke-width:4;stroke-miterlimit:10;}
	.st9{opacity:0.5;fill:url(#SVGID_00000163775411130917416730000004603014627850353830_);enable-background:new    ;}
	.st10{opacity:0.5;fill:url(#SVGID_00000179612824780737895890000007766038629762427552_);enable-background:new    ;}
	.st11{fill:url(#SVGID_00000098918989494558153810000008283998417082167700_);stroke:#030304;stroke-width:4;stroke-miterlimit:10;}
	.st12{fill:url(#SVGID_00000163765480338419746830000005759472425716056476_);stroke:#030304;stroke-width:4;stroke-miterlimit:10;}
	.st13{opacity:0.5;fill:url(#SVGID_00000104699614074953146440000015224685176978387894_);enable-background:new    ;}
	.st14{opacity:0.5;fill:url(#SVGID_00000022551447332885627120000004343167532172372113_);enable-background:new    ;}
	.st15{opacity:0.5;fill:none;stroke:#000000;stroke-width:16;stroke-miterlimit:10;enable-background:new    ;}
	.st16{fill:#C1C1C1;stroke:#000000;stroke-width:4;stroke-miterlimit:10;}
	.st17{fill:#E8E8E8;stroke:#000000;stroke-width:4;stroke-miterlimit:10;}
	.st18{fill:url(#SVGID_00000141432425195370905030000014952133522999251841_);stroke:#000000;stroke-width:4;stroke-miterlimit:10;}
	.st19{fill:url(#SVGID_00000128480024087427179160000004680793097542939556_);stroke:#000000;stroke-width:4;stroke-miterlimit:10;}
	.st20{opacity:0.5;fill:url(#SVGID_00000178178932097621624800000007886408429333872782_);enable-background:new    ;}
	.st21{opacity:0.5;fill:url(#SVGID_00000147208230157380693930000002273099283270473881_);enable-background:new    ;}
</style>
<rect x="41.02" y="90.23" class="st0" width="442.94" height="360.14"/>
<rect x="32.15" y="80.24" class="st1" width="442.94" height="360.14"/>
<path class="st2" d="M314.79,90.73v49.95h-12.43c-1.95-6.8-8.2-11.79-15.63-11.79c-8.99,0-16.27,7.29-16.27,16.27
	c0,8.99,7.29,16.27,16.27,16.27c7.43,0,13.68-4.98,15.63-11.79h12.43v63.79h-12.43c-1.95-6.8-8.2-11.79-15.63-11.79
	c-8.99,0-16.27,7.29-16.27,16.27c0,8.99,7.29,16.27,16.27,16.27c7.43,0,13.68-4.98,15.63-11.79h12.43v63.79h-12.43
	c-1.95-6.8-8.2-11.79-15.63-11.79c-8.99,0-16.27,7.29-16.27,16.27c0,8.99,7.29,16.27,16.27,16.27c7.43,0,13.68-4.98,15.63-11.79
	h12.43v63.79h-12.43c-1.95-6.8-8.2-11.79-15.63-11.79c-8.99,0-16.27,7.29-16.27,16.27c0,8.99,7.29,16.27,16.27,16.27
	c7.43,0,13.68-4.98,15.63-11.79h12.43v53.31H44.29V90.73H314.79z"/>
<path class="st2" d="M326.62,90.73v49.95h12.43c1.95-6.8,8.2-11.79,15.63-11.79c8.99,0,16.27,7.29,16.27,16.27
	c0,8.99-7.29,16.27-16.27,16.27c-7.43,0-13.68-4.98-15.63-11.79h-12.43v63.79h12.43c1.95-6.8,8.2-11.79,15.63-11.79
	c8.99,0,16.27,7.29,16.27,16.27c0,8.99-7.29,16.27-16.27,16.27c-7.43,0-13.68-4.98-15.63-11.79h-12.43v63.79h12.43
	c1.95-6.8,8.2-11.79,15.63-11.79c8.99,0,16.27,7.29,16.27,16.27c0,8.99-7.29,16.27-16.27,16.27c-7.43,0-13.68-4.98-15.63-11.79
	h-12.43v63.79h12.43c1.95-6.8,8.2-11.79,15.63-11.79c8.99,0,16.27,7.29,16.27,16.27c0,8.99-7.29,16.27-16.27,16.27
	c-7.43,0-13.68-4.98-15.63-11.79h-12.43v53.31h135.25V90.73H326.62z"/>
<polygon class="st0" points="39.02,317.55 170.1,317.55 170.1,409.9 316.54,261.27 170.1,112.63 170.1,205 39.02,205 "/>
<polygon class="st0" points="322.71,339.32 322.71,413.47 473.2,261.27 322.71,109.08 322.71,183.21 399.89,261.27 "/>
<linearGradient id="SVGID_1_" gradientUnits="userSpaceOnUse" x1="-177.6695" y1="2930.6499" x2="-177.6695" y2="3227.9199" gradientTransform="matrix(-1 0 0 -1 -3.8895 3330)">
	<stop  offset="0" style="stop-color:#ABD9E8"/>
	<stop  offset="1" style="stop-color:#2A6EB5"/>
</linearGradient>
<polygon class="st3" points="35.02,307 166.1,307 166.1,399.35 312.54,250.73 166.1,102.08 166.1,194.45 35.02,194.45 "/>
<linearGradient id="SVGID_00000030486357835339390080000017371327666257352577_" gradientUnits="userSpaceOnUse" x1="-397.8445" y1="2927.0801" x2="-397.8445" y2="3231.47" gradientTransform="matrix(-1 0 0 -1 -3.8895 3330)">
	<stop  offset="0" style="stop-color:#ABD9E8"/>
	<stop  offset="1" style="stop-color:#2A6EB5"/>
</linearGradient>
<polygon style="fill:url(#SVGID_00000030486357835339390080000017371327666257352577_);stroke:#030405;stroke-width:4;stroke-miterlimit:10;" points="
	318.71,328.78 318.71,402.92 469.2,250.73 318.71,98.53 318.71,172.66 395.89,250.73 "/>
<linearGradient id="SVGID_00000172429341499038283730000004743102813789393821_" gradientUnits="userSpaceOnUse" x1="-176.2795" y1="-2181.4299" x2="-176.2795" y2="-2332.8269" gradientTransform="matrix(-1 0 0 1 -3.8895 2564)">
	<stop  offset="0" style="stop-color:#FFFFFC"/>
	<stop  offset="1" style="stop-color:#2466AD"/>
</linearGradient>
<path style="opacity:0.5;fill:url(#SVGID_00000172429341499038283730000004743102813789393821_);enable-background:new    ;" d="
	M215.6,231.6c-42.65,2.14-83.76,34.57-100.77,34.57c-41.05,0-74.22-21.74-74.22-21.74v55.79l132.35,1.22v81.13l131.21-131.84
	C304.17,250.73,229.59,227.79,215.6,231.6z"/>
<linearGradient id="SVGID_00000134214444896963300690000002400739540284041635_" gradientUnits="userSpaceOnUse" x1="-395.8395" y1="-2174.71" x2="-395.8395" y2="-2316.0803" gradientTransform="matrix(-1 0 0 1 -3.8895 2564)">
	<stop  offset="0" style="stop-color:#FFFFFC"/>
	<stop  offset="1" style="stop-color:#2466AD"/>
</linearGradient>
<path style="opacity:0.5;fill:url(#SVGID_00000134214444896963300690000002400739540284041635_);enable-background:new    ;" d="
	M428.09,247.92c-12.93,0-26.55,5.35-26.55,5.35l-77.83,79.27l-0.83,56.75l138.14-138.56C461.02,250.73,445.07,247.89,428.09,247.92z
	"/>
<rect x="41.02" y="602.23" class="st0" width="442.94" height="360.14"/>
<rect x="32.15" y="592.24" class="st1" width="442.94" height="360.14"/>
<path class="st2" d="M314.79,602.73v49.95h-12.43c-1.95-6.8-8.2-11.79-15.63-11.79c-8.99,0-16.27,7.29-16.27,16.27
	c0,8.99,7.29,16.27,16.27,16.27c7.43,0,13.68-4.98,15.63-11.79h12.43v63.79h-12.43c-1.95-6.8-8.2-11.79-15.63-11.79
	c-8.99,0-16.27,7.29-16.27,16.27c0,8.99,7.29,16.27,16.27,16.27c7.43,0,13.68-4.98,15.63-11.79h12.43v63.79h-12.43
	c-1.95-6.8-8.2-11.79-15.63-11.79c-8.99,0-16.27,7.29-16.27,16.27c0,8.99,7.29,16.27,16.27,16.27c7.43,0,13.68-4.98,15.63-11.79
	h12.43v63.79h-12.43c-1.95-6.8-8.2-11.79-15.63-11.79c-8.99,0-16.27,7.29-16.27,16.27c0,8.99,7.29,16.27,16.27,16.27
	c7.43,0,13.68-4.98,15.63-11.79h12.43v53.31H44.29V602.73H314.79z"/>
<path class="st2" d="M326.62,602.73v49.95h12.43c1.95-6.8,8.2-11.79,15.63-11.79c8.99,0,16.27,7.29,16.27,16.27
	c0,8.99-7.29,16.27-16.27,16.27c-7.43,0-13.68-4.98-15.63-11.79h-12.43v63.79h12.43c1.95-6.8,8.2-11.79,15.63-11.79
	c8.99,0,16.27,7.29,16.27,16.27c0,8.99-7.29,16.27-16.27,16.27c-7.43,0-13.68-4.98-15.63-11.79h-12.43v63.79h12.43
	c1.95-6.8,8.2-11.79,15.63-11.79c8.99,0,16.27,7.29,16.27,16.27c0,8.99-7.29,16.27-16.27,16.27c-7.43,0-13.68-4.98-15.63-11.79
	h-12.43v63.79h12.43c1.95-6.8,8.2-11.79,15.63-11.79c8.99,0,16.27,7.29,16.27,16.27c0,8.99-7.29,16.27-16.27,16.27
	c-7.43,0-13.68-4.98-15.63-11.79h-12.43v53.31h135.25V602.73H326.62z"/>
<polygon class="st0" points="39.02,829.55 170.1,829.55 170.1,921.9 316.54,773.27 170.1,624.63 170.1,717 39.02,717 "/>
<polygon class="st0" points="322.71,851.32 322.71,925.47 473.2,773.27 322.71,621.08 322.71,695.21 399.89,773.27 "/>
<linearGradient id="SVGID_00000126323451309601144610000009588673051160501381_" gradientUnits="userSpaceOnUse" x1="-177.6695" y1="2418.6499" x2="-177.6695" y2="2715.9199" gradientTransform="matrix(-1 0 0 -1 -3.8895 3330)">
	<stop  offset="0" style="stop-color:#FED908"/>
	<stop  offset="1" style="stop-color:#BE8110"/>
</linearGradient>
<polygon style="fill:url(#SVGID_00000126323451309601144610000009588673051160501381_);stroke:#030304;stroke-width:4;stroke-miterlimit:10;" points="
	35.02,819 166.1,819 166.1,911.35 312.54,762.73 166.1,614.08 166.1,706.45 35.02,706.45 "/>
<linearGradient id="SVGID_00000108990530251334496680000004567123255239986573_" gradientUnits="userSpaceOnUse" x1="-397.8445" y1="2415.0801" x2="-397.8445" y2="2719.47" gradientTransform="matrix(-1 0 0 -1 -3.8895 3330)">
	<stop  offset="0" style="stop-color:#FED908"/>
	<stop  offset="1" style="stop-color:#BE8110"/>
</linearGradient>
<polygon style="fill:url(#SVGID_00000108990530251334496680000004567123255239986573_);stroke:#030304;stroke-width:4;stroke-miterlimit:10;" points="
	318.71,840.78 318.71,914.92 469.2,762.73 318.71,610.53 318.71,684.66 395.89,762.73 "/>
<linearGradient id="SVGID_00000057121768722656091620000001162140804153628805_" gradientUnits="userSpaceOnUse" x1="-176.2795" y1="-1669.4301" x2="-176.2795" y2="-1820.827" gradientTransform="matrix(-1 0 0 1 -3.8895 2564)">
	<stop  offset="0" style="stop-color:#FFFFFC"/>
	<stop  offset="1" style="stop-color:#2466AD"/>
</linearGradient>
<path style="opacity:0.5;fill:url(#SVGID_00000057121768722656091620000001162140804153628805_);enable-background:new    ;" d="
	M215.6,743.6c-42.65,2.14-83.76,34.57-100.77,34.57c-41.05,0-74.22-21.74-74.22-21.74v55.79l132.35,1.22v81.13l131.21-131.84
	C304.17,762.73,229.59,739.79,215.6,743.6z"/>
<linearGradient id="SVGID_00000004519732853696937100000002372526172781103265_" gradientUnits="userSpaceOnUse" x1="-395.8395" y1="-1662.71" x2="-395.8395" y2="-1804.0802" gradientTransform="matrix(-1 0 0 1 -3.8895 2564)">
	<stop  offset="0" style="stop-color:#FFFFFC"/>
	<stop  offset="1" style="stop-color:#2466AD"/>
</linearGradient>
<path style="opacity:0.5;fill:url(#SVGID_00000004519732853696937100000002372526172781103265_);enable-background:new    ;" d="
	M428.09,759.92c-12.93,0-26.55,5.35-26.55,5.35l-77.83,79.27l-0.83,56.75l138.14-138.56C461.02,762.73,445.07,759.89,428.09,759.92z
	"/>
<rect x="41.02" y="1114.23" class="st0" width="442.94" height="360.14"/>
<rect x="32.15" y="1104.24" class="st1" width="442.94" height="360.14"/>
<path class="st2" d="M314.79,1114.73v49.95h-12.43c-1.95-6.8-8.2-11.79-15.63-11.79c-8.99,0-16.27,7.29-16.27,16.27
	s7.29,16.27,16.27,16.27c7.43,0,13.68-4.98,15.63-11.79h12.43v63.79h-12.43c-1.95-6.8-8.2-11.79-15.63-11.79
	c-8.99,0-16.27,7.29-16.27,16.27c0,8.99,7.29,16.27,16.27,16.27c7.43,0,13.68-4.98,15.63-11.79h12.43v63.79h-12.43
	c-1.95-6.8-8.2-11.79-15.63-11.79c-8.99,0-16.27,7.29-16.27,16.27s7.29,16.27,16.27,16.27c7.43,0,13.68-4.98,15.63-11.79h12.43
	v63.79h-12.43c-1.95-6.8-8.2-11.79-15.63-11.79c-8.99,0-16.27,7.29-16.27,16.27s7.29,16.27,16.27,16.27
	c7.43,0,13.68-4.98,15.63-11.79h12.43v53.31H44.29v-330.55h270.5V1114.73z"/>
<path class="st2" d="M326.62,1114.73v49.95h12.43c1.95-6.8,8.2-11.79,15.63-11.79c8.99,0,16.27,7.29,16.27,16.27
	s-7.29,16.27-16.27,16.27c-7.43,0-13.68-4.98-15.63-11.79h-12.43v63.79h12.43c1.95-6.8,8.2-11.79,15.63-11.79
	c8.99,0,16.27,7.29,16.27,16.27c0,8.99-7.29,16.27-16.27,16.27c-7.43,0-13.68-4.98-15.63-11.79h-12.43v63.79h12.43
	c1.95-6.8,8.2-11.79,15.63-11.79c8.99,0,16.27,7.29,16.27,16.27s-7.29,16.27-16.27,16.27c-7.43,0-13.68-4.98-15.63-11.79h-12.43
	v63.79h12.43c1.95-6.8,8.2-11.79,15.63-11.79c8.99,0,16.27,7.29,16.27,16.27s-7.29,16.27-16.27,16.27
	c-7.43,0-13.68-4.98-15.63-11.79h-12.43v53.31h135.25v-330.55H326.62V1114.73z"/>
<polygon class="st0" points="39.02,1341.55 170.1,1341.55 170.1,1433.9 316.54,1285.27 170.1,1136.63 170.1,1229 39.02,1229 "/>
<polygon class="st0" points="322.71,1363.32 322.71,1437.47 473.2,1285.27 322.71,1133.08 322.71,1207.21 399.89,1285.27 "/>
<linearGradient id="SVGID_00000128446872828704757010000005638151100677310904_" gradientUnits="userSpaceOnUse" x1="-177.6695" y1="1906.65" x2="-177.6695" y2="2203.9199" gradientTransform="matrix(-1 0 0 -1 -3.8895 3330)">
	<stop  offset="0" style="stop-color:#9CCA86"/>
	<stop  offset="1" style="stop-color:#388F36"/>
</linearGradient>
<polygon style="fill:url(#SVGID_00000128446872828704757010000005638151100677310904_);stroke:#030304;stroke-width:4;stroke-miterlimit:10;" points="
	35.02,1331 166.1,1331 166.1,1423.35 312.54,1274.73 166.1,1126.08 166.1,1218.45 35.02,1218.45 "/>
<linearGradient id="SVGID_00000099657740744649759840000010768323950294668685_" gradientUnits="userSpaceOnUse" x1="-397.8445" y1="1903.08" x2="-397.8445" y2="2207.47" gradientTransform="matrix(-1 0 0 -1 -3.8895 3330)">
	<stop  offset="0" style="stop-color:#9CCA86"/>
	<stop  offset="1" style="stop-color:#388F36"/>
</linearGradient>
<polygon style="fill:url(#SVGID_00000099657740744649759840000010768323950294668685_);stroke:#030304;stroke-width:4;stroke-miterlimit:10;" points="
	318.71,1352.78 318.71,1426.92 469.2,1274.73 318.71,1122.53 318.71,1196.66 395.89,1274.73 "/>
<linearGradient id="SVGID_00000016065333412325000310000000660382420012023430_" gradientUnits="userSpaceOnUse" x1="-176.2795" y1="-1157.4301" x2="-176.2795" y2="-1308.827" gradientTransform="matrix(-1 0 0 1 -3.8895 2564)">
	<stop  offset="0" style="stop-color:#FFFFFC"/>
	<stop  offset="1" style="stop-color:#2466AD"/>
</linearGradient>
<path style="opacity:0.5;fill:url(#SVGID_00000016065333412325000310000000660382420012023430_);enable-background:new    ;" d="
	M215.6,1255.6c-42.65,2.14-83.76,34.57-100.77,34.57c-41.05,0-74.22-21.74-74.22-21.74v55.79l132.35,1.22v81.13l131.21-131.84
	C304.17,1274.73,229.59,1251.79,215.6,1255.6z"/>
<linearGradient id="SVGID_00000134209573777469018310000014029804538431152569_" gradientUnits="userSpaceOnUse" x1="-395.8395" y1="-1150.71" x2="-395.8395" y2="-1292.0802" gradientTransform="matrix(-1 0 0 1 -3.8895 2564)">
	<stop  offset="0" style="stop-color:#FFFFFC"/>
	<stop  offset="1" style="stop-color:#2466AD"/>
</linearGradient>
<path style="opacity:0.5;fill:url(#SVGID_00000134209573777469018310000014029804538431152569_);enable-background:new    ;" d="
	M428.09,1271.92c-12.93,0-26.55,5.35-26.55,5.35l-77.83,79.27l-0.83,56.75l138.14-138.56
	C461.02,1274.73,445.07,1271.89,428.09,1271.92z"/>
<rect x="41.02" y="1626.23" class="st15" width="442.94" height="360.14"/>
<rect x="32.15" y="1616.24" class="st16" width="442.94" height="360.14"/>
<path class="st17" d="M314.79,1626.73v49.95h-12.43c-1.95-6.8-8.2-11.79-15.63-11.79c-8.99,0-16.27,7.29-16.27,16.27
	s7.29,16.27,16.27,16.27c7.43,0,13.68-4.98,15.63-11.79h12.43v63.79h-12.43c-1.95-6.8-8.2-11.79-15.63-11.79
	c-8.99,0-16.27,7.29-16.27,16.27c0,8.99,7.29,16.27,16.27,16.27c7.43,0,13.68-4.98,15.63-11.79h12.43v63.79h-12.43
	c-1.95-6.8-8.2-11.79-15.63-11.79c-8.99,0-16.27,7.29-16.27,16.27s7.29,16.27,16.27,16.27c7.43,0,13.68-4.98,15.63-11.79h12.43
	v63.79h-12.43c-1.95-6.8-8.2-11.79-15.63-11.79c-8.99,0-16.27,7.29-16.27,16.27s7.29,16.27,16.27,16.27
	c7.43,0,13.68-4.98,15.63-11.79h12.43v53.31H44.29v-330.55h270.5V1626.73z"/>
<path class="st17" d="M326.62,1626.73v49.95h12.43c1.95-6.8,8.2-11.79,15.63-11.79c8.99,0,16.27,7.29,16.27,16.27
	s-7.29,16.27-16.27,16.27c-7.43,0-13.68-4.98-15.63-11.79h-12.43v63.79h12.43c1.95-6.8,8.2-11.79,15.63-11.79
	c8.99,0,16.27,7.29,16.27,16.27c0,8.99-7.29,16.27-16.27,16.27c-7.43,0-13.68-4.98-15.63-11.79h-12.43v63.79h12.43
	c1.95-6.8,8.2-11.79,15.63-11.79c8.99,0,16.27,7.29,16.27,16.27s-7.29,16.27-16.27,16.27c-7.43,0-13.68-4.98-15.63-11.79h-12.43
	v63.79h12.43c1.95-6.8,8.2-11.79,15.63-11.79c8.99,0,16.27,7.29,16.27,16.27s-7.29,16.27-16.27,16.27
	c-7.43,0-13.68-4.98-15.63-11.79h-12.43v53.31h135.25v-330.55H326.62V1626.73z"/>
<polygon class="st15" points="39.02,1853.55 170.1,1853.55 170.1,1945.9 316.54,1797.27 170.1,1648.63 170.1,1741 39.02,1741 "/>
<polygon class="st15" points="322.71,1875.32 322.71,1949.47 473.2,1797.27 322.71,1645.08 322.71,1719.21 399.89,1797.27 "/>
<linearGradient id="SVGID_00000026136315276184240410000006291538605463636622_" gradientUnits="userSpaceOnUse" x1="-177.6695" y1="1394.65" x2="-177.6695" y2="1691.92" gradientTransform="matrix(-1 0 0 -1 -3.8895 3330)">
	<stop  offset="0" style="stop-color:#DDDDDD"/>
	<stop  offset="1" style="stop-color:#707070"/>
</linearGradient>
<polygon style="fill:url(#SVGID_00000026136315276184240410000006291538605463636622_);stroke:#000000;stroke-width:4;stroke-miterlimit:10;" points="
	35.02,1843 166.1,1843 166.1,1935.35 312.54,1786.73 166.1,1638.08 166.1,1730.45 35.02,1730.45 "/>
<linearGradient id="SVGID_00000047055425431525225190000006735851631073670788_" gradientUnits="userSpaceOnUse" x1="-397.8445" y1="1391.08" x2="-397.8445" y2="1695.47" gradientTransform="matrix(-1 0 0 -1 -3.8895 3330)">
	<stop  offset="0" style="stop-color:#DDDDDD"/>
	<stop  offset="1" style="stop-color:#707070"/>
</linearGradient>
<polygon style="fill:url(#SVGID_00000047055425431525225190000006735851631073670788_);stroke:#000000;stroke-width:4;stroke-miterlimit:10;" points="
	318.71,1864.78 318.71,1938.92 469.2,1786.73 318.71,1634.53 318.71,1708.66 395.89,1786.73 "/>
<linearGradient id="SVGID_00000066508101206970101670000005326459727697100928_" gradientUnits="userSpaceOnUse" x1="-176.2795" y1="-645.4301" x2="-176.2795" y2="-796.827" gradientTransform="matrix(-1 0 0 1 -3.8895 2564)">
	<stop  offset="0" style="stop-color:#FEFEFE"/>
	<stop  offset="1" style="stop-color:#666666"/>
</linearGradient>
<path style="opacity:0.5;fill:url(#SVGID_00000066508101206970101670000005326459727697100928_);enable-background:new    ;" d="
	M215.6,1767.6c-42.65,2.14-83.76,34.57-100.77,34.57c-41.05,0-74.22-21.74-74.22-21.74v55.79l132.35,1.22v81.13l131.21-131.84
	C304.17,1786.73,229.59,1763.79,215.6,1767.6z"/>
<linearGradient id="SVGID_00000124150261251069946180000010459928825543683730_" gradientUnits="userSpaceOnUse" x1="-395.8395" y1="-638.71" x2="-395.8395" y2="-780.0802" gradientTransform="matrix(-1 0 0 1 -3.8895 2564)">
	<stop  offset="0" style="stop-color:#FEFEFE"/>
	<stop  offset="1" style="stop-color:#666666"/>
</linearGradient>
<path style="opacity:0.5;fill:url(#SVGID_00000124150261251069946180000010459928825543683730_);enable-background:new    ;" d="
	M428.09,1783.92c-12.93,0-26.55,5.35-26.55,5.35l-77.83,79.27l-0.83,56.75l138.14-138.56
	C461.02,1786.73,445.07,1783.89,428.09,1783.92z"/>
</svg>
