<?xml version="1.0" encoding="utf-8"?>
<!-- Generator: Adobe Illustrator 27.0.1, SVG Export Plug-In . SVG Version: 6.00 Build 0)  -->
<svg version="1.1" id="Calque_1" xmlns="http://www.w3.org/2000/svg" xmlns:xlink="http://www.w3.org/1999/xlink" x="0px" y="0px"
	 viewBox="0 0 512 2048" style="enable-background:new 0 0 512 2048;" xml:space="preserve">
<style type="text/css">
	.st0{fill:#E8E8E6;stroke:#000000;stroke-width:4;stroke-miterlimit:10;}
	.st1{fill:none;stroke:#000000;stroke-width:16;stroke-miterlimit:10;}
	.st2{fill:none;stroke:#000000;stroke-width:4;stroke-miterlimit:10;}
	.st3{opacity:0.5;fill:none;stroke:#3C3C3B;stroke-width:16;stroke-miterlimit:10;enable-background:new    ;}
	.st4{fill:url(#SVGID_1_);stroke:#000000;stroke-width:4;stroke-miterlimit:10;}
	.st5{opacity:0.5;fill:url(#SVGID_00000098914320784064229050000009513722079924530356_);enable-background:new    ;}
	.st6{fill:url(#SVGID_00000170274656814573868150000017378703379382746260_);stroke:#000000;stroke-width:4;stroke-miterlimit:10;}
	.st7{fill:#E8E8E8;stroke:#000000;stroke-width:4;stroke-miterlimit:10;}
	.st8{opacity:0.5;fill:none;stroke:#1A1A1A;stroke-width:16;stroke-miterlimit:10;enable-background:new    ;}
	.st9{fill:url(#SVGID_00000119818816739214768140000002330296203381890704_);stroke:#000000;stroke-width:4;stroke-miterlimit:10;}
	.st10{fill:url(#SVGID_00000034805864930245209690000016194917774508291209_);stroke:#000000;stroke-width:4;stroke-miterlimit:10;}
	.st11{opacity:0.5;fill:url(#SVGID_00000109710761030510140990000004309099224657545630_);enable-background:new    ;}
	.st12{opacity:0.5;fill:url(#SVGID_00000114061381205217544460000016460525607482725027_);enable-background:new    ;}
	.st13{opacity:0.5;fill:url(#SVGID_00000021804683982711093720000002536084572423824300_);enable-background:new    ;}
</style>
<g>
	<path class="st0" d="M32.2,171.2l28,48.6l12.1-7c-1.9-7.7,1.4-16.1,8.6-20.2c8.7-5.1,19.9-2.1,25,6.7c5.1,8.7,2.1,19.9-6.7,25
		c-7.2,4.2-16.1,2.8-21.8-2.7l-12.1,7l35.8,62.1l12.1-7c-1.9-7.7,1.4-16.1,8.6-20.2c8.7-5,19.9-2,25,6.7s2.1,19.9-6.7,25
		c-7.2,4.2-16.1,2.8-21.8-2.7l-12.1,7l35.8,62.1l12.1-7c-1.9-7.7,1.4-16.1,8.6-20.2c8.7-5,19.9-2,25,6.7s2.1,19.9-6.7,25
		c-7.2,4.2-16.1,2.8-21.8-2.7l-12.1,7l35.8,62.1l12.1-7c-1.9-7.7,1.4-16.1,8.6-20.2c8.7-5,19.9-2,25,6.7s2.1,19.9-6.7,25
		c-7.2,4.2-16.1,2.8-21.8-2.7l-12.1,7l29.9,51.9L481,340.8L295.3,19.2L32.2,171.2z"/>
	<path class="st0" d="M50.3,133.5l19.2,52.7l13.1-4.8c-0.6-7.9,4.1-15.6,12-18.4c9.5-3.4,20,1.4,23.4,10.9s-1.4,20-10.9,23.4
		c-7.8,2.9-16.4,0-21-6.4L73,195.7L97.4,263l13.1-4.8c-0.6-7.9,4.1-15.6,12-18.4c9.5-3.4,20,1.4,23.4,10.9s-1.4,20-10.9,23.4
		c-7.8,2.9-16.4,0-21-6.4l-13.1,4.8l24.5,67.3l13.1-4.8c-0.6-7.9,4.1-15.6,12-18.5c9.5-3.5,20,1.4,23.4,10.9s-1.4,20-10.9,23.4
		c-7.8,2.9-16.4,0-21-6.4l-13.1,4.8l24.5,67.3l13.1-4.8c-0.6-7.9,4.1-15.6,12-18.5c9.5-3.5,20,1.4,23.4,10.9s-1.4,20-10.9,23.4
		c-7.8,2.9-16.4,0-21-6.4l-13.1,4.8l20.5,56.3L463,378.3L336,29.4L50.3,133.5z"/>
	<path class="st0" d="M74.7,99.5l9.7,55.3l13.8-2.4c0.8-7.9,6.8-14.6,15-16.1c9.9-1.8,19.4,4.9,21.2,14.8s-4.9,19.4-14.8,21.2
		c-8.2,1.4-16.1-2.8-19.6-10l-13.8,2.4l12.4,70.6l13.8-2.4c0.8-7.9,6.8-14.6,15-16.1c9.9-1.8,19.4,4.9,21.2,14.8
		s-4.9,19.4-14.8,21.2c-8.2,1.4-16.1-2.8-19.6-10l-13.8,2.4l12.4,70.6l13.8-2.4c0.8-7.9,6.8-14.6,15-16.1
		c9.9-1.8,19.4,4.9,21.2,14.8s-4.9,19.4-14.8,21.2c-8.2,1.5-16.1-2.8-19.6-10l-13.8,2.4l12.4,70.6l13.8-2.4
		c0.8-7.9,6.8-14.6,15-16.1c9.9-1.8,19.4,4.9,21.2,14.8s-4.9,19.4-14.8,21.2c-8.2,1.5-16.1-2.8-19.6-10l-13.8,2.4l10.4,59
		l299.2-52.8L374,46.8L74.7,99.5z"/>
	<rect x="176" y="101.9" transform="matrix(0.9848 -0.1736 0.1736 0.9848 -18.6206 34.1834)" width="20.2" height="43.3"/>
	<rect x="208.9" y="96.1" transform="matrix(0.9848 -0.1736 0.1736 0.9848 -17.1151 39.8072)" width="20.2" height="43.3"/>
	<rect x="241.8" y="90.2" transform="matrix(0.9848 -0.1736 0.1736 0.9848 -15.5926 45.4264)" width="20.2" height="43.3"/>
	<rect x="274.7" y="84.4" transform="matrix(0.9848 -0.1736 0.1736 0.9848 -14.0872 51.0499)" width="20.2" height="43.3"/>
	<line class="st1" x1="164.2" y1="178.2" x2="353.3" y2="144.9"/>
	<line class="st2" x1="169.9" y1="210.6" x2="359" y2="177.2"/>
	<line class="st2" x1="172.8" y1="226.6" x2="361.8" y2="193.3"/>
	<line class="st2" x1="175.6" y1="242.7" x2="364.7" y2="209.4"/>
	<line class="st2" x1="178.4" y1="258.8" x2="367.5" y2="225.5"/>
	<line class="st2" x1="181.3" y1="274.9" x2="370.4" y2="241.6"/>
	<line class="st2" x1="184.1" y1="291" x2="373.2" y2="257.7"/>
	<line class="st2" x1="186.9" y1="307.1" x2="376" y2="273.7"/>
	<line class="st2" x1="189.8" y1="323.2" x2="378.9" y2="289.8"/>
	<line class="st2" x1="192.6" y1="339.3" x2="381.7" y2="305.9"/>
	<line class="st2" x1="195.4" y1="355.4" x2="384.5" y2="322"/>
	<line class="st2" x1="198.3" y1="371.4" x2="387.4" y2="338.1"/>
	<line class="st2" x1="201.1" y1="387.5" x2="323.2" y2="366"/>
</g>
<polygon class="st3" points="159.6,63.9 159.6,159.1 64.4,159.1 64.4,248.7 159.6,248.7 159.6,343.9 249.2,343.9 249.2,248.7 
	344.4,248.7 344.4,159.1 249.2,159.1 249.2,63.9 "/>
<linearGradient id="SVGID_1_" gradientUnits="userSpaceOnUse" x1="913.3307" y1="-274.3107" x2="1111.3225" y2="-472.3025" gradientTransform="matrix(0.7071 -0.7071 0.7071 0.7071 -255.2511 1175.7812)">
	<stop  offset="0" style="stop-color:#A8D9EA"/>
	<stop  offset="1" style="stop-color:#236BB3"/>
</linearGradient>
<polygon class="st4" points="151.8,56 151.8,151.2 56.6,151.2 56.6,240.8 151.8,240.8 151.8,336 241.4,336 241.4,240.8 336.6,240.8 
	336.6,151.2 241.4,151.2 241.4,56 "/>
<linearGradient id="SVGID_00000120553218539320358230000011593019206395292561_" gradientUnits="userSpaceOnUse" x1="916.6541" y1="-279.1898" x2="1015.2518" y2="-377.7874" gradientTransform="matrix(0.7071 -0.7071 0.7071 0.7071 -255.2511 1175.7812)">
	<stop  offset="0" style="stop-color:#FFFEF9"/>
	<stop  offset="1" style="stop-color:#1A63AB"/>
</linearGradient>
<path style="opacity:0.5;fill:url(#SVGID_00000120553218539320358230000011593019206395292561_);enable-background:new    ;" d="
	M157.3,236.1l0.1,94.1l77.3-0.4l0.8-94h93.7l0.5-45c0,0-57.8,23.9-93.3,21.3s-65.2-22.3-105.5-21.3s-69.6,16.7-69.6,16.7l0.3,28.3
	L157.3,236.1z"/>
<g>
	<path class="st0" d="M33.3,1195.2l28,48.6l12.1-7c-1.9-7.7,1.4-16.1,8.6-20.2c8.7-5.1,19.9-2.1,25,6.7c5.1,8.7,2.1,19.9-6.7,25
		c-7.2,4.2-16.1,2.8-21.8-2.7l-12.1,7l35.8,62.1l12.1-7c-1.9-7.7,1.4-16.1,8.6-20.2c8.7-5.1,19.9-2.1,25,6.7
		c5.1,8.7,2.1,19.9-6.7,25c-7.2,4.2-16.1,2.8-21.8-2.7l-12.1,7l35.8,62.1l12.1-7c-1.9-7.7,1.4-16.1,8.6-20.2
		c8.7-5.1,19.9-2.1,25,6.7c5.1,8.7,2.1,19.9-6.7,25c-7.2,4.2-16.1,2.8-21.8-2.7l-12.1,7l35.8,62.1l12.1-7
		c-1.9-7.7,1.4-16.1,8.6-20.2c8.7-5.1,19.9-2.1,25,6.7c5.1,8.7,2.1,19.9-6.7,25c-7.2,4.2-16.1,2.8-21.8-2.7l-12.1,7l29.9,51.9
		l263.1-151.9l-185.7-321.6L33.3,1195.2z"/>
	<path class="st0" d="M51.4,1157.5l19.2,52.7l13.1-4.8c-0.6-7.9,4.1-15.6,12-18.4c9.5-3.4,20,1.4,23.4,10.9s-1.4,20-10.9,23.4
		c-7.8,2.8-16.4,0-21-6.4l-13.1,4.8l24.5,67.3l13.1-4.8c-0.6-7.9,4.1-15.6,12-18.4c9.5-3.4,20,1.4,23.4,10.9s-1.4,20-10.9,23.4
		c-7.8,2.8-16.4,0-21-6.4l-13.1,4.8l24.5,67.3l13.1-4.8c-0.6-7.9,4.1-15.6,12-18.4c9.5-3.4,20,1.4,23.4,10.9s-1.4,20-10.9,23.4
		c-7.8,2.8-16.4,0-21-6.4l-13.1,4.8l24.5,67.3l13.1-4.8c-0.6-7.9,4.1-15.6,12-18.4c9.5-3.4,20,1.4,23.4,10.9s-1.4,20-10.9,23.4
		c-7.8,2.8-16.4,0-21-6.4l-13.1,4.8l20.5,56.3l285.5-103.9l-127-348.9L51.4,1157.5z"/>
	<path class="st0" d="M75.8,1123.5l9.7,55.2l13.8-2.4c0.8-7.9,6.8-14.6,15-16.1c9.9-1.8,19.4,4.9,21.2,14.8s-4.9,19.4-14.8,21.2
		c-8.2,1.4-16.1-2.8-19.6-10l-13.8,2.4l12.4,70.6l13.8-2.4c0.8-7.9,6.8-14.6,15-16.1c9.9-1.8,19.4,4.9,21.2,14.8
		s-4.9,19.4-14.8,21.2c-8.2,1.4-16.1-2.8-19.6-10l-13.8,2.4l12.4,70.6l13.8-2.4c0.8-7.9,6.8-14.6,15-16.1
		c9.9-1.8,19.4,4.9,21.2,14.8s-4.9,19.4-14.8,21.2c-8.2,1.4-16.1-2.8-19.6-10l-13.8,2.4l12.4,70.6l13.8-2.4
		c0.8-7.9,6.8-14.6,15-16.1c9.9-1.8,19.4,4.9,21.2,14.8s-4.9,19.4-14.8,21.2c-8.2,1.4-16.1-2.8-19.6-10l-13.8,2.4l10.4,59
		l299.2-52.8L375,1070.6L75.8,1123.5z"/>
	<rect x="177" y="1125.9" transform="matrix(0.9848 -0.1736 0.1736 0.9848 -196.3746 49.9056)" width="20.2" height="43.3"/>
	<rect x="210" y="1120" transform="matrix(0.9848 -0.1736 0.1736 0.9848 -194.8477 55.5417)" width="20.2" height="43.3"/>
	<rect x="242.9" y="1114.2" transform="matrix(0.9848 -0.1736 0.1736 0.9848 -193.3421 61.1655)" width="20.2" height="43.3"/>
	<rect x="275.8" y="1108.4" transform="matrix(0.9848 -0.1736 0.1736 0.9848 -191.8366 66.789)" width="20.2" height="43.3"/>
	<line class="st1" x1="165.3" y1="1202.2" x2="354.4" y2="1168.8"/>
	<line class="st2" x1="171.1" y1="1234.6" x2="360.1" y2="1201.2"/>
	<line class="st2" x1="173.9" y1="1250.7" x2="363" y2="1217.3"/>
	<line class="st2" x1="176.7" y1="1266.7" x2="365.8" y2="1233.4"/>
	<line class="st2" x1="179.6" y1="1282.8" x2="368.6" y2="1249.5"/>
	<line class="st2" x1="182.4" y1="1298.9" x2="371.5" y2="1265.6"/>
	<line class="st2" x1="185.2" y1="1315" x2="374.3" y2="1281.7"/>
	<line class="st2" x1="188.1" y1="1331.1" x2="377.2" y2="1297.7"/>
	<line class="st2" x1="190.9" y1="1347.2" x2="380" y2="1313.8"/>
	<line class="st2" x1="193.7" y1="1363.3" x2="382.8" y2="1329.9"/>
	<line class="st2" x1="196.6" y1="1379.3" x2="385.7" y2="1346"/>
	<line class="st2" x1="199.4" y1="1395.4" x2="388.5" y2="1362.1"/>
	<line class="st2" x1="202.2" y1="1411.5" x2="324.4" y2="1390"/>
</g>
<polygon class="st3" points="160.8,1087.9 160.8,1183.1 65.6,1183.1 65.6,1272.7 160.8,1272.7 160.8,1367.9 250.4,1367.9 
	250.4,1272.7 345.6,1272.7 345.6,1183.1 250.4,1183.1 250.4,1087.9 "/>
<linearGradient id="SVGID_00000096054706446998137280000001168157674370344624_" gradientUnits="userSpaceOnUse" x1="914.4418" y1="749.6727" x2="1112.4336" y2="551.6808" gradientTransform="matrix(0.7071 -0.7071 0.7071 0.7071 -978.9953 1476.5083)">
	<stop  offset="0" style="stop-color:#9CCA84"/>
	<stop  offset="1" style="stop-color:#348E37"/>
</linearGradient>
<polygon style="fill:url(#SVGID_00000096054706446998137280000001168157674370344624_);stroke:#000000;stroke-width:4;stroke-miterlimit:10;" points="
	152.9,1080 152.9,1175.2 57.7,1175.2 57.7,1264.8 152.9,1264.8 152.9,1360 242.5,1360 242.5,1264.8 337.7,1264.8 337.7,1175.2 
	242.5,1175.2 242.5,1080 "/>
<g>
	<path class="st7" d="M33.2,1707.2l28,48.6l12.1-7c-1.9-7.7,1.4-16.1,8.6-20.2c8.7-5.1,19.9-2.1,25,6.7c5.1,8.7,2.1,19.9-6.7,25
		c-7.2,4.2-16.1,2.8-21.8-2.7l-12.1,7l35.8,62.1l12.1-7c-1.9-7.7,1.4-16.1,8.6-20.2c8.7-5.1,19.9-2.1,25,6.7
		c5.1,8.7,2.1,19.9-6.7,25c-7.2,4.2-16.1,2.8-21.8-2.7l-12.1,7l35.8,62.1l12.1-7c-1.9-7.7,1.4-16.1,8.6-20.2
		c8.7-5.1,19.9-2.1,25,6.7c5.1,8.7,2.1,19.9-6.7,25c-7.2,4.2-16.1,2.8-21.8-2.7l-12.1,7l35.8,62.1l12.1-7
		c-1.9-7.7,1.4-16.1,8.6-20.2c8.7-5.1,19.9-2.1,25,6.7c5.1,8.7,2.1,19.9-6.7,25c-7.2,4.2-16.1,2.8-21.8-2.7l-12.1,7l29.9,51.9
		l263.2-151.9l-185.6-321.6L33.2,1707.2z"/>
	<path class="st7" d="M51.3,1669.5l19.2,52.7l13.1-4.8c-0.6-7.9,4.1-15.6,12-18.4c9.5-3.4,20,1.4,23.4,10.9s-1.4,20-10.9,23.4
		c-7.8,2.8-16.4,0-21-6.4l-13.1,4.8l24.5,67.3l13.1-4.8c-0.6-7.9,4.1-15.6,12-18.4c9.5-3.4,20,1.4,23.4,10.9s-1.4,20-10.9,23.4
		c-7.8,2.8-16.4,0-21-6.4l-13.1,4.8l24.5,67.3l13.1-4.8c-0.6-7.9,4.1-15.6,12-18.4c9.5-3.4,20,1.4,23.4,10.9s-1.4,20-10.9,23.4
		c-7.8,2.8-16.4,0-21-6.4l-13.1,4.8l24.5,67.3l13.1-4.8c-0.6-7.9,4.1-15.6,12-18.4c9.5-3.4,20,1.4,23.4,10.9s-1.4,20-10.9,23.4
		c-7.8,2.8-16.4,0-21-6.4l-13.1,4.8l20.5,56.3L464,1914.5l-127-348.9L51.3,1669.5z"/>
	<path class="st7" d="M75.7,1635.5l9.7,55.2l13.8-2.4c0.8-7.9,6.8-14.6,15-16.1c9.9-1.8,19.4,4.9,21.2,14.8s-4.9,19.4-14.8,21.2
		c-8.2,1.4-16.1-2.8-19.6-10l-13.8,2.4l12.4,70.6l13.8-2.4c0.8-7.9,6.8-14.6,15-16.1c9.9-1.8,19.4,4.9,21.2,14.8
		s-4.9,19.4-14.8,21.2c-8.2,1.4-16.1-2.8-19.6-10l-13.8,2.4l12.4,70.6l13.8-2.4c0.8-7.9,6.8-14.6,15-16.1
		c9.9-1.8,19.4,4.9,21.2,14.8s-4.9,19.4-14.8,21.2c-8.2,1.4-16.1-2.8-19.6-10l-13.8,2.4l12.4,70.6l13.8-2.4
		c0.8-7.9,6.8-14.6,15-16.1c9.9-1.8,19.4,4.9,21.2,14.8s-4.9,19.4-14.8,21.2c-8.2,1.4-16.1-2.8-19.6-10l-13.8,2.4l10.4,59
		l299.2-52.8L375,1582.8L75.7,1635.5z"/>
	<rect x="176.9" y="1637.8" transform="matrix(0.9848 -0.1736 0.1736 0.9848 -285.2403 57.6574)" width="20.2" height="43.3"/>
	<rect x="209.8" y="1632" transform="matrix(0.9848 -0.1736 0.1736 0.9848 -283.7347 63.2812)" width="20.2" height="43.3"/>
	<rect x="242.7" y="1626.2" transform="matrix(0.9848 -0.1736 0.1736 0.9848 -282.2291 68.905)" width="20.2" height="43.3"/>
	<rect x="275.7" y="1620.4" transform="matrix(0.9848 -0.1736 0.1736 0.9848 -280.7191 74.5453)" width="20.2" height="43.3"/>
	<line class="st1" x1="165.2" y1="1714.2" x2="354.3" y2="1680.8"/>
	<line class="st2" x1="170.9" y1="1746.6" x2="360" y2="1713.2"/>
	<line class="st2" x1="173.7" y1="1762.7" x2="362.8" y2="1729.3"/>
	<line class="st2" x1="176.6" y1="1778.7" x2="365.7" y2="1745.4"/>
	<line class="st2" x1="179.4" y1="1794.8" x2="368.5" y2="1761.5"/>
	<line class="st2" x1="182.2" y1="1810.9" x2="371.3" y2="1777.6"/>
	<line class="st2" x1="185.1" y1="1827" x2="374.2" y2="1793.7"/>
	<line class="st2" x1="187.9" y1="1843.1" x2="377" y2="1809.7"/>
	<line class="st2" x1="190.8" y1="1859.2" x2="379.9" y2="1825.8"/>
	<line class="st2" x1="193.6" y1="1875.3" x2="382.7" y2="1841.9"/>
	<line class="st2" x1="196.4" y1="1891.3" x2="385.5" y2="1858"/>
	<line class="st2" x1="199.3" y1="1907.4" x2="388.4" y2="1874.1"/>
	<line class="st2" x1="202.1" y1="1923.5" x2="324.2" y2="1902"/>
</g>
<polygon class="st8" points="160.6,1599.9 160.6,1695.1 65.4,1695.1 65.4,1784.7 160.6,1784.7 160.6,1879.9 250.2,1879.9 
	250.2,1784.7 345.4,1784.7 345.4,1695.1 250.2,1695.1 250.2,1599.9 "/>
<linearGradient id="SVGID_00000074405252768471989350000007963336898282793095_" gradientUnits="userSpaceOnUse" x1="914.3271" y1="1261.7126" x2="1112.3191" y2="1063.7209" gradientTransform="matrix(0.7071 -0.7071 0.7071 0.7071 -1341.0778 1626.3638)">
	<stop  offset="0" style="stop-color:#DDDDDD"/>
	<stop  offset="1" style="stop-color:#6D6D6D"/>
</linearGradient>
<polygon style="fill:url(#SVGID_00000074405252768471989350000007963336898282793095_);stroke:#000000;stroke-width:4;stroke-miterlimit:10;" points="
	152.8,1592 152.8,1687.2 57.6,1687.2 57.6,1776.8 152.8,1776.8 152.8,1872 242.4,1872 242.4,1776.8 337.6,1776.8 337.6,1687.2 
	242.4,1687.2 242.4,1592 "/>
<g>
	<path class="st0" d="M32.7,683.2l28,48.6l12.1-7c-1.9-7.7,1.4-16.1,8.6-20.2c8.7-5,19.9-2,25,6.7s2.1,19.9-6.7,25
		c-7.2,4.2-16.1,2.8-21.8-2.7l-12.1,7l35.8,62.1l12.1-7c-1.9-7.7,1.4-16.1,8.6-20.2c8.7-5,19.9-2,25,6.7s2.1,19.9-6.7,25
		c-7.2,4.2-16.1,2.8-21.8-2.7l-12.1,7l35.8,62.1l12.1-7c-1.9-7.7,1.4-16.1,8.6-20.2c8.7-5,19.9-2,25,6.7s2.1,19.9-6.7,25
		c-7.2,4.2-16.1,2.8-21.8-2.7l-12.1,7l35.8,62.1l12.1-7c-1.9-7.7,1.4-16.1,8.6-20.2c8.7-5,19.9-2,25,6.7s2.1,19.9-6.7,25
		c-7.2,4.2-16.1,2.8-21.8-2.7l-12.1,7l29.9,51.9l263.1-151.9L295.9,531.2L32.7,683.2z"/>
	<path class="st0" d="M50.9,645.5l19.2,52.7l13.1-4.8c-0.6-7.9,4.1-15.6,12-18.5c9.5-3.5,20,1.4,23.4,10.9s-1.4,20-10.9,23.4
		c-7.8,2.8-16.4,0-21-6.4l-13.1,4.8L98,775l13.1-4.8c-0.6-7.9,4.1-15.6,12-18.5c9.5-3.5,20,1.4,23.4,10.9s-1.4,20-10.9,23.4
		c-7.8,2.8-16.4,0-21-6.4l-13.1,4.8l24.5,67.3l13.1-4.8c-0.6-7.9,4.1-15.6,12-18.5c9.5-3.5,20,1.4,23.4,10.9s-1.4,20-10.9,23.4
		c-7.8,2.8-16.4,0-21-6.4l-13.1,4.8l24.5,67.3l13.1-4.8c-0.6-7.9,4.1-15.6,12-18.5c9.5-3.5,20,1.4,23.4,10.9s-1.4,20-10.9,23.4
		c-7.8,2.8-16.4,0-21-6.4l-13.1,4.8l20.5,56.3l285.6-103.9l-127-348.9L50.9,645.5z"/>
	<path class="st0" d="M75.3,611.5l9.7,55.2l13.8-2.4c0.8-7.9,6.8-14.6,15-16.1c9.9-1.8,19.4,4.9,21.2,14.8s-4.9,19.4-14.8,21.2
		c-8.2,1.5-16.1-2.8-19.6-10l-13.8,2.4l12.4,70.6l13.8-2.4c0.8-7.9,6.8-14.6,15-16.1c9.9-1.8,19.4,4.9,21.2,14.8
		s-4.9,19.4-14.8,21.2c-8.2,1.5-16.1-2.8-19.6-10l-13.8,2.4l12.4,70.6l13.8-2.4c0.8-7.9,6.8-14.6,15-16.1
		c9.9-1.8,19.4,4.9,21.2,14.8s-4.9,19.4-14.8,21.2c-8.2,1.5-16.1-2.8-19.6-10l-13.8,2.4l12.4,70.6l13.8-2.4
		c0.8-7.9,6.8-14.6,15-16.1c9.9-1.8,19.4,4.9,21.2,14.8s-4.9,19.4-14.8,21.2c-8.2,1.5-16.1-2.8-19.6-10l-13.8,2.4l10.4,59L439,924.5
		l-64.5-365.7L75.3,611.5z"/>
	<rect x="176.5" y="613.9" transform="matrix(0.9848 -0.1736 0.1736 0.9848 -107.4976 42.0445)" width="20.2" height="43.3"/>
	<rect x="209.4" y="608" transform="matrix(0.9848 -0.1736 0.1736 0.9848 -105.9752 47.6638)" width="20.2" height="43.3"/>
	<rect x="242.4" y="602.2" transform="matrix(0.9848 -0.1736 0.1736 0.9848 -104.4651 53.3044)" width="20.2" height="43.3"/>
	<rect x="275.3" y="596.4" transform="matrix(0.9848 -0.1736 0.1736 0.9848 -102.9597 58.9279)" width="20.2" height="43.3"/>
	<line class="st1" x1="164.8" y1="690.2" x2="353.9" y2="656.8"/>
	<line class="st2" x1="170.5" y1="722.6" x2="359.6" y2="689.2"/>
	<line class="st2" x1="173.3" y1="738.7" x2="362.4" y2="705.3"/>
	<line class="st2" x1="176.2" y1="754.7" x2="365.2" y2="721.4"/>
	<line class="st2" x1="179" y1="770.8" x2="368.1" y2="737.5"/>
	<line class="st2" x1="181.8" y1="786.9" x2="370.9" y2="753.6"/>
	<line class="st2" x1="184.7" y1="803" x2="373.8" y2="769.7"/>
	<line class="st2" x1="187.5" y1="819.1" x2="376.6" y2="785.7"/>
	<line class="st2" x1="190.3" y1="835.2" x2="379.4" y2="801.8"/>
	<line class="st2" x1="193.2" y1="851.3" x2="382.3" y2="817.9"/>
	<line class="st2" x1="196" y1="867.3" x2="385.1" y2="834"/>
	<line class="st2" x1="198.9" y1="883.4" x2="387.9" y2="850.1"/>
	<line class="st2" x1="201.7" y1="899.5" x2="323.8" y2="878"/>
</g>
<polygon class="st3" points="160.2,575.9 160.2,671.1 65,671.1 65,760.7 160.2,760.7 160.2,855.9 249.8,855.9 249.8,760.7 
	345,760.7 345,671.1 249.8,671.1 249.8,575.9 "/>
<linearGradient id="SVGID_00000114791276916810490190000010180617987196687238_" gradientUnits="userSpaceOnUse" x1="913.851" y1="237.6456" x2="1111.8428" y2="39.6538" gradientTransform="matrix(0.7071 -0.7071 0.7071 0.7071 -617.1232 1326.1448)">
	<stop  offset="0" style="stop-color:#FED905"/>
	<stop  offset="1" style="stop-color:#C08010"/>
</linearGradient>
<polygon style="fill:url(#SVGID_00000114791276916810490190000010180617987196687238_);stroke:#000000;stroke-width:4;stroke-miterlimit:10;" points="
	152.3,568 152.3,663.2 57.1,663.2 57.1,752.8 152.3,752.8 152.3,848 241.9,848 241.9,752.8 337.1,752.8 337.1,663.2 241.9,663.2 
	241.9,568 "/>
<linearGradient id="SVGID_00000046328263911164025930000009716434048450909579_" gradientUnits="userSpaceOnUse" x1="554.6121" y1="82.8524" x2="653.2097" y2="-15.7453" gradientTransform="matrix(0.7071 -0.7071 0.7071 0.7071 -255.2511 1175.7812)">
	<stop  offset="0" style="stop-color:#FFFEF9"/>
	<stop  offset="1" style="stop-color:#1A63AB"/>
</linearGradient>
<path style="opacity:0.5;fill:url(#SVGID_00000046328263911164025930000009716434048450909579_);enable-background:new    ;" d="
	M157.3,748.1l0.1,94.1l77.3-0.4l0.8-94h93.7l0.5-45c0,0-57.8,23.9-93.3,21.3s-65.2-22.3-105.5-21.3s-69.6,16.7-69.6,16.7l0.3,28.3
	L157.3,748.1z"/>
<linearGradient id="SVGID_00000044891664460582987280000004215486034978746780_" gradientUnits="userSpaceOnUse" x1="195.964" y1="445.3188" x2="294.5617" y2="346.7212" gradientTransform="matrix(0.7071 -0.7071 0.7071 0.7071 -255.2511 1175.7812)">
	<stop  offset="0" style="stop-color:#FFFEF9"/>
	<stop  offset="1" style="stop-color:#1A63AB"/>
</linearGradient>
<path style="opacity:0.5;fill:url(#SVGID_00000044891664460582987280000004215486034978746780_);enable-background:new    ;" d="
	M160,1258l0.1,94.1l77.3-0.4l0.8-94h93.7l0.5-45c0,0-57.8,23.9-93.3,21.3s-65.2-22.3-105.5-21.3S64,1229.4,64,1229.4l0.3,28.3
	L160,1258z"/>
<linearGradient id="SVGID_00000018932745898792703820000017471753242271468728_" gradientUnits="userSpaceOnUse" x1="-168.6944" y1="807.7145" x2="-70.0968" y2="709.1168" gradientTransform="matrix(0.7071 -0.7071 0.7071 0.7071 -255.2511 1175.7812)">
	<stop  offset="0" style="stop-color:#FEFEFE"/>
	<stop  offset="1" style="stop-color:#636363"/>
</linearGradient>
<path style="opacity:0.5;fill:url(#SVGID_00000018932745898792703820000017471753242271468728_);enable-background:new    ;" d="
	M158.3,1772.1l0.1,94.1l77.4-0.4l0.8-94h93.7l0.5-45c0,0-57.8,23.9-93.3,21.3s-65.2-22.3-105.5-21.3s-69.6,16.7-69.6,16.7l0.3,28.3
	L158.3,1772.1z"/>
</svg>
