<?xml version="1.0" encoding="utf-8"?>
<!-- Generator: Adobe Illustrator 27.0.1, SVG Export Plug-In . SVG Version: 6.00 Build 0)  -->
<svg version="1.1" id="Calque_1" xmlns="http://www.w3.org/2000/svg" xmlns:xlink="http://www.w3.org/1999/xlink" x="0px" y="0px"
	 viewBox="0 0 512 2048" style="enable-background:new 0 0 512 2048;" xml:space="preserve">
<style type="text/css">
	.st0{opacity:0.5;fill:none;stroke:#3F3E3C;stroke-width:16;stroke-miterlimit:10;enable-background:new    ;}
	.st1{fill:#5CB9DC;stroke:#000000;stroke-width:4;stroke-miterlimit:10;}
	.st2{fill:#E8E8E6;stroke:#000000;stroke-width:4;stroke-miterlimit:10;}
	.st3{fill:url(#SVGID_1_);stroke:#030405;stroke-width:4;stroke-miterlimit:10;}
	.st4{opacity:0.5;fill:url(#SVGID_00000025435729898318136360000014239841290765224839_);enable-background:new    ;}
	.st5{fill:url(#SVGID_00000062904027249680082410000014246876860953134739_);stroke:#030304;stroke-width:4;stroke-miterlimit:10;}
	.st6{opacity:0.5;fill:url(#SVGID_00000042712082222937556340000014080648115699151262_);enable-background:new    ;}
	.st7{fill:url(#SVGID_00000019650863598422367570000003204085596160227742_);stroke:#030304;stroke-width:4;stroke-miterlimit:10;}
	.st8{opacity:0.5;fill:url(#SVGID_00000053524642579750635510000007309620538337724340_);enable-background:new    ;}
	.st9{opacity:0.5;fill:none;stroke:#000000;stroke-width:16;stroke-miterlimit:10;enable-background:new    ;}
	.st10{fill:#C1C1C1;stroke:#000000;stroke-width:4;stroke-miterlimit:10;}
	.st11{fill:#E8E8E8;stroke:#000000;stroke-width:4;stroke-miterlimit:10;}
	.st12{fill:url(#SVGID_00000122709692024375054750000015316990618642987660_);stroke:#000000;stroke-width:4;stroke-miterlimit:10;}
	.st13{opacity:0.5;fill:url(#SVGID_00000060709797756850777150000008557428441768889987_);enable-background:new    ;}
</style>
<rect x="41.02" y="90.23" class="st0" width="442.94" height="360.14"/>
<rect x="32.15" y="80.23" transform="matrix(-1 -4.489754e-11 4.489754e-11 -1 507.2354 520.6081)" class="st1" width="442.94" height="360.14"/>
<path class="st2" d="M314.79,90.73v49.95h-12.43c-1.95-6.8-8.2-11.79-15.63-11.79c-8.99,0-16.27,7.29-16.27,16.27
	c0,8.99,7.29,16.27,16.27,16.27c7.43,0,13.68-4.98,15.63-11.79h12.43v63.79h-12.43c-1.95-6.8-8.2-11.79-15.63-11.79
	c-8.99,0-16.27,7.29-16.27,16.27c0,8.99,7.29,16.27,16.27,16.27c7.43,0,13.68-4.98,15.63-11.79h12.43v63.79h-12.43
	c-1.95-6.8-8.2-11.79-15.63-11.79c-8.99,0-16.27,7.29-16.27,16.27c0,8.99,7.29,16.27,16.27,16.27c7.43,0,13.68-4.98,15.63-11.79
	h12.43v63.79h-12.43c-1.95-6.8-8.2-11.79-15.63-11.79c-8.99,0-16.27,7.29-16.27,16.27c0,8.99,7.29,16.27,16.27,16.27
	c7.43,0,13.68-4.98,15.63-11.79h12.43v53.31H44.29V90.73H314.79z"/>
<path class="st2" d="M326.62,90.73v49.95h12.43c1.95-6.8,8.2-11.79,15.63-11.79c8.99,0,16.27,7.29,16.27,16.27
	c0,8.99-7.29,16.27-16.27,16.27c-7.43,0-13.68-4.98-15.63-11.79h-12.43v63.79h12.43c1.95-6.8,8.2-11.79,15.63-11.79
	c8.99,0,16.27,7.29,16.27,16.27c0,8.99-7.29,16.27-16.27,16.27c-7.43,0-13.68-4.98-15.63-11.79h-12.43v63.79h12.43
	c1.95-6.8,8.2-11.79,15.63-11.79c8.99,0,16.27,7.29,16.27,16.27c0,8.99-7.29,16.27-16.27,16.27c-7.43,0-13.68-4.98-15.63-11.79
	h-12.43v63.79h12.43c1.95-6.8,8.2-11.79,15.63-11.79c8.99,0,16.27,7.29,16.27,16.27c0,8.99-7.29,16.27-16.27,16.27
	c-7.43,0-13.68-4.98-15.63-11.79h-12.43v53.31h135.25V90.73H326.62z"/>
<polygon class="st0" points="40.02,317.55 171.1,317.55 171.1,409.9 317.54,261.27 171.1,112.63 171.1,205 40.02,205 "/>
<linearGradient id="SVGID_1_" gradientUnits="userSpaceOnUse" x1="332.33" y1="-882.65" x2="332.33" y2="-1179.92" gradientTransform="matrix(-1 0 0 1 506.1105 1282)">
	<stop  offset="0" style="stop-color:#ABD9E8"/>
	<stop  offset="1" style="stop-color:#2A6EB5"/>
</linearGradient>
<polygon class="st3" points="35.02,307 166.1,307 166.1,399.35 312.54,250.73 166.1,102.08 166.1,194.45 35.02,194.45 "/>
<linearGradient id="SVGID_00000055696427906990988570000003265199607827293869_" gradientUnits="userSpaceOnUse" x1="333.72" y1="2949.4299" x2="333.72" y2="3100.8269" gradientTransform="matrix(-1 0 0 -1 506.1105 3332)">
	<stop  offset="0" style="stop-color:#FFFFFC"/>
	<stop  offset="1" style="stop-color:#2466AD"/>
</linearGradient>
<path style="opacity:0.5;fill:url(#SVGID_00000055696427906990988570000003265199607827293869_);enable-background:new    ;" d="
	M215.6,231.6c-42.65,2.14-83.76,34.57-100.77,34.57c-41.05,0-74.22-21.74-74.22-21.74v55.79l132.35,1.22v81.13l131.21-131.84
	C304.17,250.73,229.59,227.79,215.6,231.6z"/>
<rect x="41.02" y="602.23" class="st0" width="442.94" height="360.14"/>
<rect x="32.15" y="592.23" transform="matrix(-1 -4.489754e-11 4.489754e-11 -1 507.2354 1544.608)" class="st1" width="442.94" height="360.14"/>
<path class="st2" d="M314.79,602.73v49.95h-12.43c-1.95-6.8-8.2-11.79-15.63-11.79c-8.99,0-16.27,7.29-16.27,16.27
	c0,8.99,7.29,16.27,16.27,16.27c7.43,0,13.68-4.98,15.63-11.79h12.43v63.79h-12.43c-1.95-6.8-8.2-11.79-15.63-11.79
	c-8.99,0-16.27,7.29-16.27,16.27c0,8.99,7.29,16.27,16.27,16.27c7.43,0,13.68-4.98,15.63-11.79h12.43v63.79h-12.43
	c-1.95-6.8-8.2-11.79-15.63-11.79c-8.99,0-16.27,7.29-16.27,16.27c0,8.99,7.29,16.27,16.27,16.27c7.43,0,13.68-4.98,15.63-11.79
	h12.43v63.79h-12.43c-1.95-6.8-8.2-11.79-15.63-11.79c-8.99,0-16.27,7.29-16.27,16.27c0,8.99,7.29,16.27,16.27,16.27
	c7.43,0,13.68-4.98,15.63-11.79h12.43v53.31H44.29V602.73H314.79z"/>
<path class="st2" d="M326.62,602.73v49.95h12.43c1.95-6.8,8.2-11.79,15.63-11.79c8.99,0,16.27,7.29,16.27,16.27
	c0,8.99-7.29,16.27-16.27,16.27c-7.43,0-13.68-4.98-15.63-11.79h-12.43v63.79h12.43c1.95-6.8,8.2-11.79,15.63-11.79
	c8.99,0,16.27,7.29,16.27,16.27c0,8.99-7.29,16.27-16.27,16.27c-7.43,0-13.68-4.98-15.63-11.79h-12.43v63.79h12.43
	c1.95-6.8,8.2-11.79,15.63-11.79c8.99,0,16.27,7.29,16.27,16.27c0,8.99-7.29,16.27-16.27,16.27c-7.43,0-13.68-4.98-15.63-11.79
	h-12.43v63.79h12.43c1.95-6.8,8.2-11.79,15.63-11.79c8.99,0,16.27,7.29,16.27,16.27c0,8.99-7.29,16.27-16.27,16.27
	c-7.43,0-13.68-4.98-15.63-11.79h-12.43v53.31h135.25V602.73H326.62z"/>
<polygon class="st0" points="40.02,829.55 171.1,829.55 171.1,921.9 317.54,773.27 171.1,624.63 171.1,717 40.02,717 "/>
<linearGradient id="SVGID_00000028301992666573103810000007976411788855850912_" gradientUnits="userSpaceOnUse" x1="332.33" y1="-370.65" x2="332.33" y2="-667.92" gradientTransform="matrix(-1 0 0 1 506.1105 1282)">
	<stop  offset="0" style="stop-color:#FED908"/>
	<stop  offset="1" style="stop-color:#BE8110"/>
</linearGradient>
<polygon style="fill:url(#SVGID_00000028301992666573103810000007976411788855850912_);stroke:#030304;stroke-width:4;stroke-miterlimit:10;" points="
	35.02,819 166.1,819 166.1,911.35 312.54,762.73 166.1,614.08 166.1,706.45 35.02,706.45 "/>
<linearGradient id="SVGID_00000072263688394806258870000014205215026574785410_" gradientUnits="userSpaceOnUse" x1="333.72" y1="2437.4299" x2="333.72" y2="2588.8269" gradientTransform="matrix(-1 0 0 -1 506.1105 3332)">
	<stop  offset="0" style="stop-color:#FFFFFC"/>
	<stop  offset="1" style="stop-color:#2466AD"/>
</linearGradient>
<path style="opacity:0.5;fill:url(#SVGID_00000072263688394806258870000014205215026574785410_);enable-background:new    ;" d="
	M215.6,743.6c-42.65,2.14-83.76,34.57-100.77,34.57c-41.05,0-74.22-21.74-74.22-21.74v55.79l132.35,1.22v81.13l131.21-131.84
	C304.17,762.73,229.59,739.79,215.6,743.6z"/>
<rect x="41.02" y="1114.23" class="st0" width="442.94" height="360.14"/>
<rect x="32.15" y="1104.23" transform="matrix(-1 -4.489310e-11 4.489310e-11 -1 507.2354 2568.6082)" class="st1" width="442.94" height="360.14"/>
<path class="st2" d="M314.79,1114.73v49.95h-12.43c-1.95-6.8-8.2-11.79-15.63-11.79c-8.99,0-16.27,7.29-16.27,16.27
	s7.29,16.27,16.27,16.27c7.43,0,13.68-4.98,15.63-11.79h12.43v63.79h-12.43c-1.95-6.8-8.2-11.79-15.63-11.79
	c-8.99,0-16.27,7.29-16.27,16.27c0,8.99,7.29,16.27,16.27,16.27c7.43,0,13.68-4.98,15.63-11.79h12.43v63.79h-12.43
	c-1.95-6.8-8.2-11.79-15.63-11.79c-8.99,0-16.27,7.29-16.27,16.27s7.29,16.27,16.27,16.27c7.43,0,13.68-4.98,15.63-11.79h12.43
	v63.79h-12.43c-1.95-6.8-8.2-11.79-15.63-11.79c-8.99,0-16.27,7.29-16.27,16.27s7.29,16.27,16.27,16.27
	c7.43,0,13.68-4.98,15.63-11.79h12.43v53.31H44.29v-330.55H314.79z"/>
<path class="st2" d="M326.62,1114.73v49.95h12.43c1.95-6.8,8.2-11.79,15.63-11.79c8.99,0,16.27,7.29,16.27,16.27
	s-7.29,16.27-16.27,16.27c-7.43,0-13.68-4.98-15.63-11.79h-12.43v63.79h12.43c1.95-6.8,8.2-11.79,15.63-11.79
	c8.99,0,16.27,7.29,16.27,16.27c0,8.99-7.29,16.27-16.27,16.27c-7.43,0-13.68-4.98-15.63-11.79h-12.43v63.79h12.43
	c1.95-6.8,8.2-11.79,15.63-11.79c8.99,0,16.27,7.29,16.27,16.27s-7.29,16.27-16.27,16.27c-7.43,0-13.68-4.98-15.63-11.79h-12.43
	v63.79h12.43c1.95-6.8,8.2-11.79,15.63-11.79c8.99,0,16.27,7.29,16.27,16.27s-7.29,16.27-16.27,16.27
	c-7.43,0-13.68-4.98-15.63-11.79h-12.43v53.31h135.25v-330.55H326.62z"/>
<polygon class="st0" points="40.02,1341.55 171.1,1341.55 171.1,1433.9 317.54,1285.27 171.1,1136.63 171.1,1229 40.02,1229 "/>
<linearGradient id="SVGID_00000070101558995748202820000013269702001927198646_" gradientUnits="userSpaceOnUse" x1="332.33" y1="141.35" x2="332.33" y2="-155.92" gradientTransform="matrix(-1 0 0 1 506.1105 1282)">
	<stop  offset="0" style="stop-color:#9CCA86"/>
	<stop  offset="1" style="stop-color:#388F36"/>
</linearGradient>
<polygon style="fill:url(#SVGID_00000070101558995748202820000013269702001927198646_);stroke:#030304;stroke-width:4;stroke-miterlimit:10;" points="
	35.02,1331 166.1,1331 166.1,1423.35 312.54,1274.73 166.1,1126.08 166.1,1218.45 35.02,1218.45 "/>
<linearGradient id="SVGID_00000083061365203535364580000013713743387016770978_" gradientUnits="userSpaceOnUse" x1="333.72" y1="1925.4301" x2="333.72" y2="2076.8269" gradientTransform="matrix(-1 0 0 -1 506.1105 3332)">
	<stop  offset="0" style="stop-color:#FFFFFC"/>
	<stop  offset="1" style="stop-color:#2466AD"/>
</linearGradient>
<path style="opacity:0.5;fill:url(#SVGID_00000083061365203535364580000013713743387016770978_);enable-background:new    ;" d="
	M215.6,1255.6c-42.65,2.14-83.76,34.57-100.77,34.57c-41.05,0-74.22-21.74-74.22-21.74v55.79l132.35,1.22v81.13l131.21-131.84
	C304.17,1274.73,229.59,1251.79,215.6,1255.6z"/>
<rect x="41.02" y="1626.23" class="st9" width="442.94" height="360.14"/>
<rect x="32.15" y="1616.23" transform="matrix(-1 -4.489310e-11 4.489310e-11 -1 507.2354 3592.6082)" class="st10" width="442.94" height="360.14"/>
<path class="st11" d="M314.79,1626.73v49.95h-12.43c-1.95-6.8-8.2-11.79-15.63-11.79c-8.99,0-16.27,7.29-16.27,16.27
	s7.29,16.27,16.27,16.27c7.43,0,13.68-4.98,15.63-11.79h12.43v63.79h-12.43c-1.95-6.8-8.2-11.79-15.63-11.79
	c-8.99,0-16.27,7.29-16.27,16.27c0,8.99,7.29,16.27,16.27,16.27c7.43,0,13.68-4.98,15.63-11.79h12.43v63.79h-12.43
	c-1.95-6.8-8.2-11.79-15.63-11.79c-8.99,0-16.27,7.29-16.27,16.27s7.29,16.27,16.27,16.27c7.43,0,13.68-4.98,15.63-11.79h12.43
	v63.79h-12.43c-1.95-6.8-8.2-11.79-15.63-11.79c-8.99,0-16.27,7.29-16.27,16.27s7.29,16.27,16.27,16.27
	c7.43,0,13.68-4.98,15.63-11.79h12.43v53.31H44.29v-330.55H314.79z"/>
<path class="st11" d="M326.62,1626.73v49.95h12.43c1.95-6.8,8.2-11.79,15.63-11.79c8.99,0,16.27,7.29,16.27,16.27
	s-7.29,16.27-16.27,16.27c-7.43,0-13.68-4.98-15.63-11.79h-12.43v63.79h12.43c1.95-6.8,8.2-11.79,15.63-11.79
	c8.99,0,16.27,7.29,16.27,16.27c0,8.99-7.29,16.27-16.27,16.27c-7.43,0-13.68-4.98-15.63-11.79h-12.43v63.79h12.43
	c1.95-6.8,8.2-11.79,15.63-11.79c8.99,0,16.27,7.29,16.27,16.27s-7.29,16.27-16.27,16.27c-7.43,0-13.68-4.98-15.63-11.79h-12.43
	v63.79h12.43c1.95-6.8,8.2-11.79,15.63-11.79c8.99,0,16.27,7.29,16.27,16.27s-7.29,16.27-16.27,16.27
	c-7.43,0-13.68-4.98-15.63-11.79h-12.43v53.31h135.25v-330.55H326.62z"/>
<polygon class="st9" points="40.02,1853.55 171.1,1853.55 171.1,1945.9 317.54,1797.27 171.1,1648.63 171.1,1741 40.02,1741 "/>
<linearGradient id="SVGID_00000058561434047280477580000000668440624402998163_" gradientUnits="userSpaceOnUse" x1="332.33" y1="653.35" x2="332.33" y2="356.08" gradientTransform="matrix(-1 0 0 1 506.1105 1282)">
	<stop  offset="0" style="stop-color:#DDDDDD"/>
	<stop  offset="1" style="stop-color:#707070"/>
</linearGradient>
<polygon style="fill:url(#SVGID_00000058561434047280477580000000668440624402998163_);stroke:#000000;stroke-width:4;stroke-miterlimit:10;" points="
	35.02,1843 166.1,1843 166.1,1935.35 312.54,1786.73 166.1,1638.08 166.1,1730.45 35.02,1730.45 "/>
<linearGradient id="SVGID_00000029017340597231292580000003420201931402249889_" gradientUnits="userSpaceOnUse" x1="333.72" y1="1413.4301" x2="333.72" y2="1564.827" gradientTransform="matrix(-1 0 0 -1 506.1105 3332)">
	<stop  offset="0" style="stop-color:#FEFEFE"/>
	<stop  offset="1" style="stop-color:#666666"/>
</linearGradient>
<path style="opacity:0.5;fill:url(#SVGID_00000029017340597231292580000003420201931402249889_);enable-background:new    ;" d="
	M215.6,1767.6c-42.65,2.14-83.76,34.57-100.77,34.57c-41.05,0-74.22-21.74-74.22-21.74v55.79l132.35,1.22v81.13l131.21-131.84
	C304.17,1786.73,229.59,1763.79,215.6,1767.6z"/>
</svg>
