<?xml version="1.0" encoding="utf-8"?>
<!-- Generator: Adobe Illustrator 27.0.1, SVG Export Plug-In . SVG Version: 6.00 Build 0)  -->
<svg version="1.1" id="Calque_1" xmlns="http://www.w3.org/2000/svg" xmlns:xlink="http://www.w3.org/1999/xlink" x="0px" y="0px"
	 viewBox="0 0 512 2048" style="enable-background:new 0 0 512 2048;" xml:space="preserve">
<style type="text/css">
	.st0{fill:#E8E8E6;stroke:#000000;stroke-width:4;stroke-miterlimit:10;}
	.st1{fill:none;stroke:#000000;stroke-width:16;stroke-miterlimit:10;}
	.st2{fill:none;stroke:#000000;stroke-width:4;stroke-miterlimit:10;}
	.st3{fill:#E8E8E8;stroke:#000000;stroke-width:4;stroke-miterlimit:10;}
	.st4{opacity:0.5;fill:none;stroke:#3E3D3C;stroke-width:16;stroke-miterlimit:10;enable-background:new    ;}
	.st5{fill:url(#SVGID_1_);stroke:#030304;stroke-width:4;stroke-miterlimit:10;}
	.st6{fill:url(#SVGID_00000100349928017817697770000000038164140523197345_);stroke:#030304;stroke-width:4;stroke-miterlimit:10;}
	.st7{opacity:0.5;fill:url(#SVGID_00000174576561034526776520000013040847514338620322_);enable-background:new    ;}
	.st8{fill:url(#SVGID_00000039845845461856012530000012501000862495035054_);stroke:#020203;stroke-width:4;stroke-miterlimit:10;}
	.st9{fill:url(#SVGID_00000169552694811987850760000005451577376120632459_);stroke:#020203;stroke-width:4;stroke-miterlimit:10;}
	.st10{opacity:0.5;fill:url(#SVGID_00000158743161878133154100000017397855803933296532_);enable-background:new    ;}
	.st11{fill:url(#SVGID_00000090982391499741921040000008110554123931014048_);stroke:#020203;stroke-width:4;stroke-miterlimit:10;}
	.st12{fill:url(#SVGID_00000160912553901813287400000002464301228396441476_);stroke:#020203;stroke-width:4;stroke-miterlimit:10;}
	.st13{opacity:0.5;fill:url(#SVGID_00000123442872743434817500000000823652261858271632_);enable-background:new    ;}
	.st14{fill:url(#SVGID_00000082359585945828408470000003972791664566716831_);stroke:#000000;stroke-width:4;stroke-miterlimit:10;}
	.st15{fill:url(#SVGID_00000058560706728235844840000000269647916319079576_);stroke:#000000;stroke-width:4;stroke-miterlimit:10;}
	.st16{opacity:0.5;fill:url(#SVGID_00000155124912259402773640000012793005272558264205_);enable-background:new    ;}
</style>
<g>
	<path class="st0" d="M56.8,180.49l24.97,43.26l10.76-6.21c-1.71-6.87,1.21-14.31,7.65-18.02c7.78-4.49,17.74-1.83,22.23,5.96
		c4.49,7.78,1.83,17.74-5.96,22.23c-6.43,3.71-14.34,2.53-19.43-2.39l-10.76,6.21l31.89,55.24l10.76-6.21
		c-1.71-6.87,1.21-14.31,7.65-18.02c7.78-4.49,17.74-1.83,22.23,5.96c4.49,7.78,1.83,17.74-5.96,22.23
		c-6.43,3.71-14.34,2.53-19.43-2.39l-10.76,6.21l31.89,55.24l10.76-6.21c-1.71-6.87,1.21-14.31,7.65-18.02
		c7.78-4.49,17.74-1.83,22.23,5.96c4.49,7.78,1.83,17.74-5.96,22.23c-6.43,3.71-14.34,2.53-19.43-2.39l-10.76,6.21l31.89,55.24
		l10.76-6.21c-1.71-6.87,1.21-14.31,7.65-18.02c7.78-4.49,17.74-1.83,22.23,5.96c4.49,7.78,1.83,17.74-5.96,22.23
		c-6.43,3.71-14.34,2.53-19.43-2.39l-10.76,6.21l26.66,46.17l234.26-135.25L291.06,45.25L56.8,180.49z"/>
	<path class="st0" d="M72.95,146.95l17.08,46.93l11.68-4.25c-0.49-7.06,3.68-13.88,10.66-16.42c8.45-3.07,17.79,1.28,20.86,9.73
		c3.07,8.45-1.28,17.79-9.73,20.86c-6.98,2.54-14.56,0-18.72-5.73l-11.68,4.25l21.82,59.94l11.68-4.25
		c-0.49-7.06,3.68-13.88,10.66-16.42c8.45-3.07,17.79,1.28,20.86,9.73c3.07,8.45-1.28,17.79-9.73,20.86
		c-6.98,2.54-14.56,0-18.72-5.73l-11.68,4.25l21.82,59.94l11.68-4.25c-0.49-7.06,3.68-13.88,10.66-16.42
		c8.45-3.07,17.79,1.28,20.86,9.73c3.07,8.45-1.28,17.79-9.73,20.86c-6.98,2.54-14.56,0-18.72-5.73l-11.68,4.25l21.82,59.94
		l11.68-4.25c-0.49-7.06,3.68-13.88,10.66-16.42c8.45-3.07,17.79,1.28,20.86,9.73c3.07,8.45-1.28,17.79-9.73,20.86
		c-6.98,2.54-14.56,0-18.72-5.73l-11.68,4.25l18.23,50.1l254.18-92.52L327.13,54.44L72.95,146.95z"/>
	<path class="st0" d="M94.68,116.72l8.67,49.19l12.24-2.16c0.74-7.04,6.03-13.03,13.35-14.32c8.85-1.56,17.29,4.35,18.85,13.2
		c1.56,8.85-4.35,17.29-13.2,18.85c-7.32,1.29-14.34-2.53-17.44-8.89l-12.24,2.16l11.08,62.82l12.24-2.16
		c0.74-7.04,6.03-13.03,13.35-14.32c8.85-1.56,17.29,4.35,18.85,13.2c1.56,8.85-4.35,17.29-13.2,18.85
		c-7.32,1.29-14.34-2.53-17.44-8.89l-12.24,2.16l11.08,62.82l12.24-2.16c0.74-7.04,6.03-13.03,13.35-14.32
		c8.85-1.56,17.29,4.35,18.85,13.2c1.56,8.85-4.35,17.29-13.2,18.85c-7.32,1.29-14.34-2.53-17.44-8.89l-12.24,2.16l11.08,62.82
		l12.24-2.16c0.74-7.04,6.03-13.03,13.35-14.32c8.85-1.56,17.29,4.35,18.85,13.2c1.56,8.85-4.35,17.29-13.2,18.85
		c-7.32,1.29-14.34-2.53-17.44-8.89l-12.24,2.16l9.26,52.5l266.39-46.97l-57.4-325.52L94.68,116.72z"/>
	<rect x="184.81" y="118.77" transform="matrix(0.9848 -0.1736 0.1736 0.9848 -21.0297 35.7488)" width="17.96" height="38.57"/>
	<rect x="214.13" y="113.6" transform="matrix(0.9848 -0.1736 0.1736 0.9848 -19.6868 40.7609)" width="17.96" height="38.57"/>
	<rect x="243.44" y="108.43" transform="matrix(0.9848 -0.1736 0.1736 0.9848 -18.3438 45.7729)" width="17.96" height="38.57"/>
	<rect x="272.76" y="103.27" transform="matrix(0.9848 -0.1736 0.1736 0.9848 -17.0008 50.7849)" width="17.96" height="38.57"/>
	<line class="st1" x1="174.35" y1="186.74" x2="342.68" y2="157.06"/>
	<line class="st2" x1="179.43" y1="215.56" x2="347.76" y2="185.87"/>
	<line class="st2" x1="181.95" y1="229.88" x2="350.28" y2="200.19"/>
	<line class="st2" x1="184.48" y1="244.2" x2="352.81" y2="214.51"/>
	<line class="st2" x1="187" y1="258.52" x2="355.33" y2="228.83"/>
	<line class="st2" x1="189.53" y1="272.84" x2="357.86" y2="243.16"/>
	<line class="st2" x1="192.05" y1="287.16" x2="360.38" y2="257.48"/>
	<line class="st2" x1="194.58" y1="301.48" x2="362.91" y2="271.8"/>
	<line class="st2" x1="197.1" y1="315.8" x2="365.43" y2="286.12"/>
	<line class="st2" x1="199.63" y1="330.12" x2="367.96" y2="300.44"/>
	<line class="st2" x1="202.15" y1="344.44" x2="370.48" y2="314.76"/>
	<line class="st2" x1="204.68" y1="358.76" x2="373.01" y2="329.08"/>
	<line class="st2" x1="207.2" y1="373.08" x2="315.93" y2="353.91"/>
</g>
<g>
	<path class="st0" d="M56.8,692.49l24.97,43.26l10.76-6.21c-1.71-6.87,1.21-14.31,7.65-18.02c7.78-4.49,17.74-1.83,22.23,5.96
		c4.49,7.78,1.83,17.74-5.96,22.23c-6.43,3.71-14.34,2.53-19.43-2.39l-10.76,6.21l31.89,55.24l10.76-6.21
		c-1.71-6.87,1.21-14.31,7.65-18.02c7.78-4.49,17.74-1.83,22.23,5.96c4.49,7.78,1.83,17.74-5.96,22.23
		c-6.43,3.71-14.34,2.53-19.43-2.39l-10.76,6.21l31.89,55.24l10.76-6.21c-1.71-6.87,1.21-14.31,7.65-18.02
		c7.78-4.49,17.74-1.83,22.23,5.96c4.49,7.78,1.83,17.74-5.96,22.23c-6.43,3.71-14.34,2.53-19.43-2.39l-10.76,6.21l31.89,55.24
		l10.76-6.21c-1.71-6.87,1.21-14.31,7.65-18.02c7.78-4.49,17.74-1.83,22.23,5.96c4.49,7.78,1.83,17.74-5.96,22.23
		c-6.43,3.71-14.34,2.53-19.43-2.39l-10.76,6.21l26.66,46.17l234.26-135.25L291.06,557.25L56.8,692.49z"/>
	<path class="st0" d="M72.95,658.95l17.08,46.93l11.68-4.25c-0.49-7.06,3.68-13.88,10.66-16.42c8.45-3.07,17.79,1.28,20.86,9.73
		c3.07,8.45-1.28,17.79-9.73,20.86c-6.98,2.54-14.56,0-18.72-5.73l-11.68,4.25l21.82,59.94l11.68-4.25
		c-0.49-7.06,3.68-13.88,10.66-16.42c8.45-3.07,17.79,1.28,20.86,9.73c3.07,8.45-1.28,17.79-9.73,20.86
		c-6.98,2.54-14.56,0-18.72-5.73l-11.68,4.25l21.82,59.94l11.68-4.25c-0.49-7.06,3.68-13.88,10.66-16.42
		c8.45-3.07,17.79,1.28,20.86,9.73c3.07,8.45-1.28,17.79-9.73,20.86c-6.98,2.54-14.56,0-18.72-5.73l-11.68,4.25l21.82,59.94
		l11.68-4.25c-0.49-7.06,3.68-13.88,10.66-16.42c8.45-3.07,17.79,1.28,20.86,9.73c3.07,8.45-1.28,17.79-9.73,20.86
		c-6.98,2.54-14.56,0-18.72-5.73l-11.68,4.25l18.23,50.1l254.18-92.52L327.13,566.44L72.95,658.95z"/>
	<path class="st0" d="M94.68,628.72l8.67,49.19l12.24-2.16c0.74-7.04,6.03-13.03,13.35-14.32c8.85-1.56,17.29,4.35,18.85,13.2
		s-4.35,17.29-13.2,18.85c-7.32,1.29-14.34-2.53-17.44-8.89l-12.24,2.16l11.08,62.82l12.24-2.16c0.74-7.04,6.03-13.03,13.35-14.32
		c8.85-1.56,17.29,4.35,18.85,13.2c1.56,8.85-4.35,17.29-13.2,18.85c-7.32,1.29-14.34-2.53-17.44-8.89l-12.24,2.16l11.08,62.82
		l12.24-2.16c0.74-7.04,6.03-13.03,13.35-14.32c8.85-1.56,17.29,4.35,18.85,13.2c1.56,8.85-4.35,17.29-13.2,18.85
		c-7.32,1.29-14.34-2.53-17.44-8.89l-12.24,2.16l11.08,62.82l12.24-2.16c0.74-7.04,6.03-13.03,13.35-14.32
		c8.85-1.56,17.29,4.35,18.85,13.2c1.56,8.85-4.35,17.29-13.2,18.85c-7.32,1.29-14.34-2.53-17.44-8.89l-12.24,2.16l9.26,52.5
		l266.39-46.97l-57.4-325.52L94.68,628.72z"/>
	<rect x="184.81" y="630.77" transform="matrix(0.9848 -0.1736 0.1736 0.9848 -109.9376 43.5273)" width="17.96" height="38.57"/>
	<rect x="214.13" y="625.6" transform="matrix(0.9848 -0.1736 0.1736 0.9848 -108.5946 48.5393)" width="17.96" height="38.57"/>
	<rect x="243.44" y="620.43" transform="matrix(0.9848 -0.1736 0.1736 0.9848 -107.2517 53.5513)" width="17.96" height="38.57"/>
	<rect x="272.76" y="615.27" transform="matrix(0.9848 -0.1736 0.1736 0.9848 -105.9087 58.5633)" width="17.96" height="38.57"/>
	<line class="st1" x1="174.35" y1="698.74" x2="342.68" y2="669.06"/>
	<line class="st2" x1="179.43" y1="727.56" x2="347.76" y2="697.87"/>
	<line class="st2" x1="181.95" y1="741.88" x2="350.28" y2="712.19"/>
	<line class="st2" x1="184.48" y1="756.2" x2="352.81" y2="726.51"/>
	<line class="st2" x1="187" y1="770.52" x2="355.33" y2="740.83"/>
	<line class="st2" x1="189.53" y1="784.84" x2="357.86" y2="755.16"/>
	<line class="st2" x1="192.05" y1="799.16" x2="360.38" y2="769.48"/>
	<line class="st2" x1="194.58" y1="813.48" x2="362.91" y2="783.8"/>
	<line class="st2" x1="197.1" y1="827.8" x2="365.43" y2="798.12"/>
	<line class="st2" x1="199.63" y1="842.12" x2="367.96" y2="812.44"/>
	<line class="st2" x1="202.15" y1="856.44" x2="370.48" y2="826.76"/>
	<line class="st2" x1="204.68" y1="870.76" x2="373.01" y2="841.08"/>
	<line class="st2" x1="207.2" y1="885.08" x2="315.93" y2="865.91"/>
</g>
<g>
	<path class="st0" d="M56.8,1204.49l24.97,43.26l10.76-6.21c-1.71-6.87,1.21-14.31,7.65-18.02c7.78-4.49,17.74-1.83,22.23,5.96
		c4.49,7.78,1.83,17.74-5.96,22.23c-6.43,3.71-14.34,2.53-19.43-2.39l-10.76,6.21l31.89,55.24l10.76-6.21
		c-1.71-6.87,1.21-14.31,7.65-18.02c7.78-4.49,17.74-1.83,22.23,5.96c4.49,7.78,1.83,17.74-5.96,22.23
		c-6.43,3.71-14.34,2.53-19.43-2.39l-10.76,6.21l31.89,55.24l10.76-6.21c-1.71-6.87,1.21-14.31,7.65-18.02
		c7.78-4.49,17.74-1.83,22.23,5.96c4.49,7.78,1.83,17.74-5.96,22.23c-6.43,3.71-14.34,2.53-19.43-2.39l-10.76,6.21l31.89,55.24
		l10.76-6.21c-1.71-6.87,1.21-14.31,7.65-18.02c7.78-4.49,17.74-1.83,22.23,5.96c4.49,7.78,1.83,17.74-5.96,22.23
		c-6.43,3.71-14.34,2.53-19.43-2.39l-10.76,6.21l26.66,46.17l234.26-135.25l-165.27-286.26L56.8,1204.49z"/>
	<path class="st0" d="M72.95,1170.95l17.08,46.93l11.68-4.25c-0.49-7.06,3.68-13.88,10.66-16.42c8.45-3.07,17.79,1.28,20.86,9.73
		c3.07,8.45-1.28,17.79-9.73,20.86c-6.98,2.54-14.56,0-18.72-5.73l-11.68,4.25l21.82,59.94l11.68-4.25
		c-0.49-7.06,3.68-13.88,10.66-16.42c8.45-3.07,17.79,1.28,20.86,9.73c3.07,8.45-1.28,17.79-9.73,20.86
		c-6.98,2.54-14.56,0-18.72-5.73l-11.68,4.25l21.82,59.94l11.68-4.25c-0.49-7.06,3.68-13.88,10.66-16.42
		c8.45-3.07,17.79,1.28,20.86,9.73c3.07,8.45-1.28,17.79-9.73,20.86c-6.98,2.54-14.56,0-18.72-5.73l-11.68,4.25l21.82,59.94
		l11.68-4.25c-0.49-7.06,3.68-13.88,10.66-16.42c8.45-3.07,17.79,1.28,20.86,9.73c3.07,8.45-1.28,17.79-9.73,20.86
		c-6.98,2.54-14.56,0-18.72-5.73l-11.68,4.25l18.23,50.1l254.18-92.52l-113.05-310.61L72.95,1170.95z"/>
	<path class="st0" d="M94.68,1140.72l8.67,49.19l12.24-2.16c0.74-7.04,6.03-13.03,13.35-14.32c8.85-1.56,17.29,4.35,18.85,13.2
		c1.56,8.85-4.35,17.29-13.2,18.85c-7.32,1.29-14.34-2.53-17.44-8.89l-12.24,2.16l11.08,62.82l12.24-2.16
		c0.74-7.04,6.03-13.03,13.35-14.32c8.85-1.56,17.29,4.35,18.85,13.2c1.56,8.85-4.35,17.29-13.2,18.85
		c-7.32,1.29-14.34-2.53-17.44-8.89l-12.24,2.16l11.08,62.82l12.24-2.16c0.74-7.04,6.03-13.03,13.35-14.32
		c8.85-1.56,17.29,4.35,18.85,13.2c1.56,8.85-4.35,17.29-13.2,18.85c-7.32,1.29-14.34-2.53-17.44-8.89l-12.24,2.16l11.08,62.82
		l12.24-2.16c0.74-7.04,6.03-13.03,13.35-14.32c8.85-1.56,17.29,4.35,18.85,13.2c1.56,8.85-4.35,17.29-13.2,18.85
		c-7.32,1.29-14.34-2.53-17.44-8.89l-12.24,2.16l9.26,52.5l266.39-46.97l-57.4-325.52L94.68,1140.72z"/>
	<rect x="184.81" y="1142.77" transform="matrix(0.9848 -0.1736 0.1736 0.9848 -198.8455 51.3057)" width="17.96" height="38.57"/>
	<rect x="214.13" y="1137.6" transform="matrix(0.9848 -0.1736 0.1736 0.9848 -197.5025 56.3177)" width="17.96" height="38.57"/>
	<rect x="243.44" y="1132.43" transform="matrix(0.9848 -0.1736 0.1736 0.9848 -196.1595 61.3297)" width="17.96" height="38.57"/>
	<rect x="272.76" y="1127.27" transform="matrix(0.9848 -0.1736 0.1736 0.9848 -194.8166 66.3418)" width="17.96" height="38.57"/>
	<line class="st1" x1="174.35" y1="1210.74" x2="342.68" y2="1181.06"/>
	<line class="st2" x1="179.43" y1="1239.56" x2="347.76" y2="1209.87"/>
	<line class="st2" x1="181.95" y1="1253.88" x2="350.28" y2="1224.19"/>
	<line class="st2" x1="184.48" y1="1268.2" x2="352.81" y2="1238.51"/>
	<line class="st2" x1="187" y1="1282.52" x2="355.33" y2="1252.83"/>
	<line class="st2" x1="189.53" y1="1296.84" x2="357.86" y2="1267.16"/>
	<line class="st2" x1="192.05" y1="1311.16" x2="360.38" y2="1281.48"/>
	<line class="st2" x1="194.58" y1="1325.48" x2="362.91" y2="1295.8"/>
	<line class="st2" x1="197.1" y1="1339.8" x2="365.43" y2="1310.12"/>
	<line class="st2" x1="199.63" y1="1354.12" x2="367.96" y2="1324.44"/>
	<line class="st2" x1="202.15" y1="1368.44" x2="370.48" y2="1338.76"/>
	<line class="st2" x1="204.68" y1="1382.76" x2="373.01" y2="1353.08"/>
	<line class="st2" x1="207.2" y1="1397.08" x2="315.93" y2="1377.91"/>
</g>
<g>
	<path class="st3" d="M56.8,1716.49l24.97,43.26l10.76-6.21c-1.71-6.87,1.21-14.31,7.65-18.02c7.78-4.49,17.74-1.83,22.23,5.96
		c4.49,7.78,1.83,17.74-5.96,22.23c-6.43,3.71-14.34,2.53-19.43-2.39l-10.76,6.21l31.89,55.24l10.76-6.21
		c-1.71-6.87,1.21-14.31,7.65-18.02c7.78-4.49,17.74-1.83,22.23,5.96c4.49,7.78,1.83,17.74-5.96,22.23
		c-6.43,3.71-14.34,2.53-19.43-2.39l-10.76,6.21l31.89,55.24l10.76-6.21c-1.71-6.87,1.21-14.31,7.65-18.02
		c7.78-4.49,17.74-1.83,22.23,5.96c4.49,7.78,1.83,17.74-5.96,22.23c-6.43,3.71-14.34,2.53-19.43-2.39l-10.76,6.21l31.89,55.24
		l10.76-6.21c-1.71-6.87,1.21-14.31,7.65-18.02c7.78-4.49,17.74-1.83,22.23,5.96c4.49,7.78,1.83,17.74-5.96,22.23
		c-6.43,3.71-14.34,2.53-19.43-2.39l-10.76,6.21l26.66,46.17l234.26-135.25l-165.27-286.26L56.8,1716.49z"/>
	<path class="st3" d="M72.95,1682.95l17.08,46.93l11.68-4.25c-0.49-7.06,3.68-13.88,10.66-16.42c8.45-3.07,17.79,1.28,20.86,9.73
		c3.07,8.45-1.28,17.79-9.73,20.86c-6.98,2.54-14.56,0-18.72-5.73l-11.68,4.25l21.82,59.94l11.68-4.25
		c-0.49-7.06,3.68-13.88,10.66-16.42c8.45-3.07,17.79,1.28,20.86,9.73c3.07,8.45-1.28,17.79-9.73,20.86
		c-6.98,2.54-14.56,0-18.72-5.73l-11.68,4.25l21.82,59.94l11.68-4.25c-0.49-7.06,3.68-13.88,10.66-16.42
		c8.45-3.07,17.79,1.28,20.86,9.73c3.07,8.45-1.28,17.79-9.73,20.86c-6.98,2.54-14.56,0-18.72-5.73l-11.68,4.25l21.82,59.94
		l11.68-4.25c-0.49-7.06,3.68-13.88,10.66-16.42c8.45-3.07,17.79,1.28,20.86,9.73c3.07,8.45-1.28,17.79-9.73,20.86
		c-6.98,2.54-14.56,0-18.72-5.73l-11.68,4.25l18.23,50.1l254.18-92.52l-113.05-310.61L72.95,1682.95z"/>
	<path class="st3" d="M94.68,1652.72l8.67,49.19l12.24-2.16c0.74-7.04,6.03-13.03,13.35-14.32c8.85-1.56,17.29,4.35,18.85,13.2
		c1.56,8.85-4.35,17.29-13.2,18.85c-7.32,1.29-14.34-2.53-17.44-8.89l-12.24,2.16l11.08,62.82l12.24-2.16
		c0.74-7.04,6.03-13.03,13.35-14.32c8.85-1.56,17.29,4.35,18.85,13.2c1.56,8.85-4.35,17.29-13.2,18.85
		c-7.32,1.29-14.34-2.53-17.44-8.89l-12.24,2.16l11.08,62.82l12.24-2.16c0.74-7.04,6.03-13.03,13.35-14.32
		c8.85-1.56,17.29,4.35,18.85,13.2c1.56,8.85-4.35,17.29-13.2,18.85c-7.32,1.29-14.34-2.53-17.44-8.89l-12.24,2.16l11.08,62.82
		l12.24-2.16c0.74-7.04,6.03-13.03,13.35-14.32c8.85-1.56,17.29,4.35,18.85,13.2c1.56,8.85-4.35,17.29-13.2,18.85
		c-7.32,1.29-14.34-2.53-17.44-8.89l-12.24,2.16l9.26,52.5l266.39-46.97l-57.4-325.52L94.68,1652.72z"/>
	<rect x="184.81" y="1654.77" transform="matrix(0.9848 -0.1736 0.1736 0.9848 -287.7533 59.0841)" width="17.96" height="38.57"/>
	<rect x="214.13" y="1649.6" transform="matrix(0.9848 -0.1736 0.1736 0.9848 -286.4104 64.0962)" width="17.96" height="38.57"/>
	<rect x="243.44" y="1644.43" transform="matrix(0.9848 -0.1736 0.1736 0.9848 -285.0674 69.1082)" width="17.96" height="38.57"/>
	<rect x="272.76" y="1639.27" transform="matrix(0.9848 -0.1736 0.1736 0.9848 -283.7244 74.1202)" width="17.96" height="38.57"/>
	<line class="st1" x1="174.35" y1="1722.74" x2="342.68" y2="1693.06"/>
	<line class="st2" x1="179.43" y1="1751.56" x2="347.76" y2="1721.87"/>
	<line class="st2" x1="181.95" y1="1765.88" x2="350.28" y2="1736.19"/>
	<line class="st2" x1="184.48" y1="1780.2" x2="352.81" y2="1750.51"/>
	<line class="st2" x1="187" y1="1794.52" x2="355.33" y2="1764.83"/>
	<line class="st2" x1="189.53" y1="1808.84" x2="357.86" y2="1779.16"/>
	<line class="st2" x1="192.05" y1="1823.16" x2="360.38" y2="1793.48"/>
	<line class="st2" x1="194.58" y1="1837.48" x2="362.91" y2="1807.8"/>
	<line class="st2" x1="197.1" y1="1851.8" x2="365.43" y2="1822.12"/>
	<line class="st2" x1="199.63" y1="1866.12" x2="367.96" y2="1836.44"/>
	<line class="st2" x1="202.15" y1="1880.44" x2="370.48" y2="1850.76"/>
	<line class="st2" x1="204.68" y1="1894.76" x2="373.01" y2="1865.08"/>
	<line class="st2" x1="207.2" y1="1909.08" x2="315.93" y2="1889.91"/>
</g>
<path class="st4" d="M366.76,106.9L257.93,44.08v40.76l0,0c-103.42,0-187.25,83.84-187.25,187.25c0,10.01,0.81,19.81,2.32,29.39
	h63.29c-0.83-6.17-1.31-12.45-1.31-18.85c0-71.36,53.76-130.11,122.96-138.12v25.22L366.76,106.9z"/>
<path class="st4" d="M445,230.53h-63.29c0.83,6.17,1.31,12.45,1.31,18.85c0,71.36-53.76,130.11-122.96,138.12v-25.22L151.24,425.1
	l108.83,62.82v-40.76l0,0c103.42,0,187.25-83.84,187.25-187.25C447.32,249.93,446.52,240.12,445,230.53z"/>
<path class="st4" d="M366.76,618.9l-108.83-62.82v40.76l0,0c-103.42,0-187.25,83.84-187.25,187.25c0,10.01,0.81,19.81,2.32,29.39
	h63.29c-0.83-6.17-1.31-12.45-1.31-18.85c0-71.36,53.76-130.11,122.96-138.12v25.22L366.76,618.9z"/>
<path class="st4" d="M445,742.53h-63.29c0.83,6.17,1.31,12.45,1.31,18.85c0,71.36-53.76,130.11-122.96,138.12v-25.22L151.24,937.1
	l108.83,62.82v-40.76l0,0c103.42,0,187.25-83.84,187.25-187.25C447.32,761.93,446.52,752.12,445,742.53z"/>
<path class="st4" d="M366.76,1130.9l-108.83-62.82v40.76l0,0c-103.42,0-187.25,83.84-187.25,187.25c0,10.01,0.81,19.81,2.32,29.39
	h63.29c-0.83-6.17-1.31-12.45-1.31-18.85c0-71.36,53.76-130.11,122.96-138.12v25.22L366.76,1130.9z"/>
<path class="st4" d="M445,1254.53h-63.29c0.83,6.17,1.31,12.45,1.31,18.85c0,71.36-53.76,130.11-122.96,138.12v-25.22l-108.83,62.82
	l108.83,62.82v-40.76l0,0c103.42,0,187.25-83.84,187.25-187.25C447.32,1273.93,446.52,1264.12,445,1254.53z"/>
<path class="st4" d="M366.76,1642.9l-108.83-62.82v40.76l0,0c-103.42,0-187.25,83.84-187.25,187.25c0,10.01,0.81,19.81,2.32,29.39
	h63.29c-0.83-6.17-1.31-12.45-1.31-18.85c0-71.36,53.76-130.11,122.96-138.12v25.22L366.76,1642.9z"/>
<path class="st4" d="M445,1766.53h-63.29c0.83,6.17,1.31,12.45,1.31,18.85c0,71.36-53.76,130.11-122.96,138.12v-25.22l-108.83,62.82
	l108.83,62.82v-40.76l0,0c103.42,0,187.25-83.84,187.25-187.25C447.32,1785.93,446.52,1776.12,445,1766.53z"/>
<linearGradient id="SVGID_1_" gradientUnits="userSpaceOnUse" x1="67.6753" y1="1887.2245" x2="363.7571" y2="1887.2245" gradientTransform="matrix(1 0 0 -1 0 2050)">
	<stop  offset="0" style="stop-color:#AAD9E9"/>
	<stop  offset="1" style="stop-color:#276DB4"/>
</linearGradient>
<path class="st5" d="M363.76,96.9L254.93,34.08v40.76l0,0c-103.42,0-187.25,83.84-187.25,187.25c0,10.01,0.81,19.81,2.32,29.39
	h63.29c-0.83-6.17-1.31-12.45-1.31-18.85c0-71.36,53.76-130.11,122.96-138.12v25.22L363.76,96.9z"/>
<linearGradient id="SVGID_00000172437089764263667030000003718392018703436942_" gradientUnits="userSpaceOnUse" x1="148.2429" y1="1700.7755" x2="444.3247" y2="1700.7755" gradientTransform="matrix(1 0 0 -1 0 2050)">
	<stop  offset="0" style="stop-color:#AAD9E9"/>
	<stop  offset="1" style="stop-color:#276DB4"/>
</linearGradient>
<path style="fill:url(#SVGID_00000172437089764263667030000003718392018703436942_);stroke:#030304;stroke-width:4;stroke-miterlimit:10;" d="
	M442,220.53h-63.29c0.83,6.17,1.31,12.45,1.31,18.85c0,71.36-53.76,130.11-122.96,138.12v-25.22L148.24,415.1l108.83,62.82v-40.76
	l0,0c103.42,0,187.25-83.84,187.25-187.25C444.32,239.93,443.52,230.12,442,220.53z"/>
<linearGradient id="SVGID_00000124870236517786680480000016839462114815460247_" gradientUnits="userSpaceOnUse" x1="213.2744" y1="-813.1927" x2="213.2744" y2="-981.5641" gradientTransform="matrix(-1 0 0 1 508 1282)">
	<stop  offset="0" style="stop-color:#FFFFFB"/>
	<stop  offset="1" style="stop-color:#2065AD"/>
</linearGradient>
<path style="opacity:0.5;fill:url(#SVGID_00000124870236517786680480000016839462114815460247_);enable-background:new    ;" d="
	M157.5,415.16l94.92,53.65v-35.42c0,0,56,1.68,102.91-29.32s76.62-101.46,76.62-101.46l-30.21-2.18l-33.78,8.31
	c0,0-21.95,34.47-39.76,47.44c-33.48,24.39-75.78,29.52-75.78,29.52v-24.65L157.5,415.16z"/>
<linearGradient id="SVGID_00000108274996031646607880000002686622599782319281_" gradientUnits="userSpaceOnUse" x1="67.6753" y1="1375.2245" x2="363.7571" y2="1375.2245" gradientTransform="matrix(1 0 0 -1 0 2050)">
	<stop  offset="0" style="stop-color:#FED908"/>
	<stop  offset="1" style="stop-color:#BF8010"/>
</linearGradient>
<path style="fill:url(#SVGID_00000108274996031646607880000002686622599782319281_);stroke:#020203;stroke-width:4;stroke-miterlimit:10;" d="
	M363.76,608.9l-108.83-62.82v40.76l0,0c-103.42,0-187.25,83.84-187.25,187.25c0,10.01,0.81,19.81,2.32,29.39h63.29
	c-0.83-6.17-1.31-12.45-1.31-18.85c0-71.36,53.76-130.11,122.96-138.12v25.22L363.76,608.9z"/>
<linearGradient id="SVGID_00000170246576883608695760000010111905398902427528_" gradientUnits="userSpaceOnUse" x1="148.2429" y1="1188.7755" x2="444.3247" y2="1188.7755" gradientTransform="matrix(1 0 0 -1 0 2050)">
	<stop  offset="0" style="stop-color:#FED908"/>
	<stop  offset="1" style="stop-color:#BF8010"/>
</linearGradient>
<path style="fill:url(#SVGID_00000170246576883608695760000010111905398902427528_);stroke:#020203;stroke-width:4;stroke-miterlimit:10;" d="
	M442,732.53h-63.29c0.83,6.17,1.31,12.45,1.31,18.85c0,71.36-53.76,130.11-122.96,138.12v-25.22L148.24,927.1l108.83,62.82v-40.76
	l0,0c103.42,0,187.25-83.84,187.25-187.25C444.32,751.93,443.52,742.12,442,732.53z"/>
<linearGradient id="SVGID_00000114066187972043582820000007316772974049341352_" gradientUnits="userSpaceOnUse" x1="213.2744" y1="-301.1927" x2="213.2744" y2="-469.5641" gradientTransform="matrix(-1 0 0 1 508 1282)">
	<stop  offset="0" style="stop-color:#FFFFFB"/>
	<stop  offset="1" style="stop-color:#2065AD"/>
</linearGradient>
<path style="opacity:0.5;fill:url(#SVGID_00000114066187972043582820000007316772974049341352_);enable-background:new    ;" d="
	M157.5,927.16l94.92,53.65v-35.42c0,0,56,1.68,102.91-29.32c46.91-31,76.62-101.46,76.62-101.46l-30.21-2.18l-33.78,8.31
	c0,0-21.95,34.47-39.76,47.44c-33.48,24.39-75.78,29.52-75.78,29.52v-24.65L157.5,927.16z"/>
<linearGradient id="SVGID_00000172421985026013102160000002671003064671450511_" gradientUnits="userSpaceOnUse" x1="67.6753" y1="863.2244" x2="363.7571" y2="863.2244" gradientTransform="matrix(1 0 0 -1 0 2050)">
	<stop  offset="0" style="stop-color:#9CCA85"/>
	<stop  offset="1" style="stop-color:#368E36"/>
</linearGradient>
<path style="fill:url(#SVGID_00000172421985026013102160000002671003064671450511_);stroke:#020203;stroke-width:4;stroke-miterlimit:10;" d="
	M363.76,1120.9l-108.83-62.82v40.76l0,0c-103.42,0-187.25,83.84-187.25,187.25c0,10.01,0.81,19.81,2.32,29.39h63.29
	c-0.83-6.17-1.31-12.45-1.31-18.85c0-71.36,53.76-130.11,122.96-138.12v25.22L363.76,1120.9z"/>
<linearGradient id="SVGID_00000114058584525828874540000015137703339788168583_" gradientUnits="userSpaceOnUse" x1="148.2429" y1="676.7755" x2="444.3247" y2="676.7755" gradientTransform="matrix(1 0 0 -1 0 2050)">
	<stop  offset="0" style="stop-color:#9CCA85"/>
	<stop  offset="1" style="stop-color:#368E36"/>
</linearGradient>
<path style="fill:url(#SVGID_00000114058584525828874540000015137703339788168583_);stroke:#020203;stroke-width:4;stroke-miterlimit:10;" d="
	M442,1244.53h-63.29c0.83,6.17,1.31,12.45,1.31,18.85c0,71.36-53.76,130.11-122.96,138.12v-25.22l-108.83,62.82l108.83,62.82v-40.76
	l0,0c103.42,0,187.25-83.84,187.25-187.25C444.32,1263.93,443.52,1254.12,442,1244.53z"/>
<linearGradient id="SVGID_00000104701938045672629050000002128813308626221965_" gradientUnits="userSpaceOnUse" x1="213.2744" y1="210.8073" x2="213.2744" y2="42.4359" gradientTransform="matrix(-1 0 0 1 508 1282)">
	<stop  offset="0" style="stop-color:#FFFFFB"/>
	<stop  offset="1" style="stop-color:#2065AD"/>
</linearGradient>
<path style="opacity:0.5;fill:url(#SVGID_00000104701938045672629050000002128813308626221965_);enable-background:new    ;" d="
	M157.5,1439.16l94.92,53.65v-35.42c0,0,56,1.68,102.91-29.32s76.62-101.46,76.62-101.46l-30.21-2.18l-33.78,8.31
	c0,0-21.95,34.47-39.76,47.44c-33.48,24.39-75.78,29.53-75.78,29.53v-24.65L157.5,1439.16z"/>
<linearGradient id="SVGID_00000057143346441758187750000001748642123453678501_" gradientUnits="userSpaceOnUse" x1="67.6753" y1="351.2245" x2="363.7571" y2="351.2245" gradientTransform="matrix(1 0 0 -1 0 2050)">
	<stop  offset="0" style="stop-color:#DEDEDE"/>
	<stop  offset="1" style="stop-color:#6F6F6F"/>
</linearGradient>
<path style="fill:url(#SVGID_00000057143346441758187750000001748642123453678501_);stroke:#000000;stroke-width:4;stroke-miterlimit:10;" d="
	M363.76,1632.9l-108.83-62.82v40.76l0,0c-103.42,0-187.25,83.84-187.25,187.25c0,10.01,0.81,19.81,2.32,29.39h63.29
	c-0.83-6.17-1.31-12.45-1.31-18.85c0-71.36,53.76-130.11,122.96-138.12v25.22L363.76,1632.9z"/>
<linearGradient id="SVGID_00000127734418904894096870000006441169293907427719_" gradientUnits="userSpaceOnUse" x1="148.2429" y1="164.7755" x2="444.3247" y2="164.7755" gradientTransform="matrix(1 0 0 -1 0 2050)">
	<stop  offset="0" style="stop-color:#DEDEDE"/>
	<stop  offset="1" style="stop-color:#6F6F6F"/>
</linearGradient>
<path style="fill:url(#SVGID_00000127734418904894096870000006441169293907427719_);stroke:#000000;stroke-width:4;stroke-miterlimit:10;" d="
	M442,1756.53h-63.29c0.83,6.17,1.31,12.45,1.31,18.85c0,71.36-53.76,130.11-122.96,138.12v-25.22l-108.83,62.82l108.83,62.82v-40.76
	l0,0c103.42,0,187.25-83.84,187.25-187.25C444.32,1775.93,443.52,1766.12,442,1756.53z"/>
<linearGradient id="SVGID_00000005263800246640425870000008032620909003513999_" gradientUnits="userSpaceOnUse" x1="213.2744" y1="722.8073" x2="213.2744" y2="554.4359" gradientTransform="matrix(-1 0 0 1 508 1282)">
	<stop  offset="0" style="stop-color:#FEFEFE"/>
	<stop  offset="1" style="stop-color:#656565"/>
</linearGradient>
<path style="opacity:0.5;fill:url(#SVGID_00000005263800246640425870000008032620909003513999_);enable-background:new    ;" d="
	M157.5,1951.16l94.92,53.65v-35.42c0,0,56,1.68,102.91-29.32s76.62-101.46,76.62-101.46l-30.21-2.18l-33.78,8.31
	c0,0-21.95,34.47-39.76,47.44c-33.48,24.39-75.78,29.53-75.78,29.53v-24.65L157.5,1951.16z"/>
</svg>
