<?xml version="1.0" encoding="utf-8"?>
<!-- Generator: Adobe Illustrator 27.0.1, SVG Export Plug-In . SVG Version: 6.00 Build 0)  -->
<svg version="1.1" id="Calque_1" xmlns="http://www.w3.org/2000/svg" xmlns:xlink="http://www.w3.org/1999/xlink" x="0px" y="0px"
	 viewBox="0 0 512 2048" style="enable-background:new 0 0 512 2048;" xml:space="preserve">
<style type="text/css">
	.st0{opacity:0.5;fill:none;stroke:#3F3E3C;stroke-width:16;stroke-miterlimit:10;enable-background:new    ;}
	.st1{fill:#5CB9DC;stroke:#000000;stroke-width:4;stroke-miterlimit:10;}
	.st2{fill:#E8E8E6;stroke:#000000;stroke-width:4;stroke-miterlimit:10;}
	.st3{fill:url(#SVGID_1_);stroke:#030405;stroke-width:4;stroke-miterlimit:10;}
	.st4{opacity:0.5;fill:url(#SVGID_00000128464079397115539850000012630310601496537259_);enable-background:new    ;}
	.st5{fill:url(#SVGID_00000181793192823820579850000014920862999994831751_);stroke:#030304;stroke-width:4;stroke-miterlimit:10;}
	.st6{opacity:0.5;fill:url(#SVGID_00000085230011132500796330000011827386743318992051_);enable-background:new    ;}
	.st7{fill:url(#SVGID_00000142151205135394731800000014533767697426320035_);stroke:#030304;stroke-width:4;stroke-miterlimit:10;}
	.st8{opacity:0.5;fill:url(#SVGID_00000143595141669873522140000016700990510450797497_);enable-background:new    ;}
	.st9{opacity:0.5;fill:none;stroke:#000000;stroke-width:16;stroke-miterlimit:10;enable-background:new    ;}
	.st10{fill:#C1C1C1;stroke:#000000;stroke-width:4;stroke-miterlimit:10;}
	.st11{fill:#E8E8E8;stroke:#000000;stroke-width:4;stroke-miterlimit:10;}
	.st12{fill:url(#SVGID_00000143580709193724607460000010682323552985974695_);stroke:#000000;stroke-width:4;stroke-miterlimit:10;}
	.st13{opacity:0.5;fill:url(#SVGID_00000047762647766020313330000016138404592231037085_);enable-background:new    ;}
</style>
<rect x="41.02" y="90.23" class="st0" width="442.94" height="360.14"/>
<rect x="31.02" y="80.23" class="st1" width="442.94" height="360.14"/>
<path class="st2" d="M191.32,90.73v49.95h12.43c1.95-6.8,8.2-11.79,15.63-11.79c8.99,0,16.27,7.29,16.27,16.27
	c0,8.99-7.29,16.27-16.27,16.27c-7.43,0-13.68-4.98-15.63-11.79h-12.43v63.79h12.43c1.95-6.8,8.2-11.79,15.63-11.79
	c8.99,0,16.27,7.29,16.27,16.27c0,8.99-7.29,16.27-16.27,16.27c-7.43,0-13.68-4.98-15.63-11.79h-12.43v63.79h12.43
	c1.95-6.8,8.2-11.79,15.63-11.79c8.99,0,16.27,7.29,16.27,16.27c0,8.99-7.29,16.27-16.27,16.27c-7.43,0-13.68-4.98-15.63-11.79
	h-12.43v63.79h12.43c1.95-6.8,8.2-11.79,15.63-11.79c8.99,0,16.27,7.29,16.27,16.27c0,8.99-7.29,16.27-16.27,16.27
	c-7.43,0-13.68-4.98-15.63-11.79h-12.43v53.31h270.5V90.73H191.32z"/>
<path class="st2" d="M179.49,90.73v49.95h-12.43c-1.95-6.8-8.2-11.79-15.63-11.79c-8.99,0-16.27,7.29-16.27,16.27
	c0,8.99,7.29,16.27,16.27,16.27c7.43,0,13.68-4.98,15.63-11.79h12.43v63.79h-12.43c-1.95-6.8-8.2-11.79-15.63-11.79
	c-8.99,0-16.27,7.29-16.27,16.27c0,8.99,7.29,16.27,16.27,16.27c7.43,0,13.68-4.98,15.63-11.79h12.43v63.79h-12.43
	c-1.95-6.8-8.2-11.79-15.63-11.79c-8.99,0-16.27,7.29-16.27,16.27c0,8.99,7.29,16.27,16.27,16.27c7.43,0,13.68-4.98,15.63-11.79
	h12.43v63.79h-12.43c-1.95-6.8-8.2-11.79-15.63-11.79c-8.99,0-16.27,7.29-16.27,16.27c0,8.99,7.29,16.27,16.27,16.27
	c7.43,0,13.68-4.98,15.63-11.79h12.43v53.31H44.24V90.73H179.49z"/>
<polygon class="st0" points="475.09,205 344.01,205 344.01,112.63 197.57,261.27 344.01,409.9 344.01,317.55 475.09,317.55 "/>
<linearGradient id="SVGID_1_" gradientUnits="userSpaceOnUse" x1="332.33" y1="-882.65" x2="332.33" y2="-1179.92" gradientTransform="matrix(1 0 0 1 0 1282)">
	<stop  offset="0" style="stop-color:#ABD9E8"/>
	<stop  offset="1" style="stop-color:#2A6EB5"/>
</linearGradient>
<polygon class="st3" points="471.09,194.45 340.01,194.45 340.01,102.08 193.57,250.73 340.01,399.35 340.01,307 471.09,307 "/>
<linearGradient id="SVGID_00000049189624629575542840000014109135235613909181_" gradientUnits="userSpaceOnUse" x1="333.72" y1="2949.4299" x2="333.72" y2="3100.8269" gradientTransform="matrix(1 0 0 -1 0 3332)">
	<stop  offset="0" style="stop-color:#FFFFFC"/>
	<stop  offset="1" style="stop-color:#2466AD"/>
</linearGradient>
<path style="opacity:0.5;fill:url(#SVGID_00000049189624629575542840000014109135235613909181_);enable-background:new    ;" d="
	M201.94,250.73l131.21,131.84v-81.13l132.35-1.22v-55.79c0,0-33.17,21.74-74.22,21.74c-17.01,0-58.12-32.43-100.77-34.57
	C276.52,227.79,201.94,250.73,201.94,250.73z"/>
<rect x="41.02" y="602.23" class="st0" width="442.94" height="360.14"/>
<rect x="31.02" y="592.23" class="st1" width="442.94" height="360.14"/>
<path class="st2" d="M191.32,602.73v49.95h12.43c1.95-6.8,8.2-11.79,15.63-11.79c8.99,0,16.27,7.29,16.27,16.27
	c0,8.99-7.29,16.27-16.27,16.27c-7.43,0-13.68-4.98-15.63-11.79h-12.43v63.79h12.43c1.95-6.8,8.2-11.79,15.63-11.79
	c8.99,0,16.27,7.29,16.27,16.27c0,8.99-7.29,16.27-16.27,16.27c-7.43,0-13.68-4.98-15.63-11.79h-12.43v63.79h12.43
	c1.95-6.8,8.2-11.79,15.63-11.79c8.99,0,16.27,7.29,16.27,16.27c0,8.99-7.29,16.27-16.27,16.27c-7.43,0-13.68-4.98-15.63-11.79
	h-12.43v63.79h12.43c1.95-6.8,8.2-11.79,15.63-11.79c8.99,0,16.27,7.29,16.27,16.27c0,8.99-7.29,16.27-16.27,16.27
	c-7.43,0-13.68-4.98-15.63-11.79h-12.43v53.31h270.5V602.73H191.32z"/>
<path class="st2" d="M179.49,602.73v49.95h-12.43c-1.95-6.8-8.2-11.79-15.63-11.79c-8.99,0-16.27,7.29-16.27,16.27
	c0,8.99,7.29,16.27,16.27,16.27c7.43,0,13.68-4.98,15.63-11.79h12.43v63.79h-12.43c-1.95-6.8-8.2-11.79-15.63-11.79
	c-8.99,0-16.27,7.29-16.27,16.27c0,8.99,7.29,16.27,16.27,16.27c7.43,0,13.68-4.98,15.63-11.79h12.43v63.79h-12.43
	c-1.95-6.8-8.2-11.79-15.63-11.79c-8.99,0-16.27,7.29-16.27,16.27c0,8.99,7.29,16.27,16.27,16.27c7.43,0,13.68-4.98,15.63-11.79
	h12.43v63.79h-12.43c-1.95-6.8-8.2-11.79-15.63-11.79c-8.99,0-16.27,7.29-16.27,16.27c0,8.99,7.29,16.27,16.27,16.27
	c7.43,0,13.68-4.98,15.63-11.79h12.43v53.31H44.24V602.73H179.49z"/>
<polygon class="st0" points="475.09,717 344.01,717 344.01,624.63 197.57,773.27 344.01,921.9 344.01,829.55 475.09,829.55 "/>
<linearGradient id="SVGID_00000106853049562459520830000004402969859148331445_" gradientUnits="userSpaceOnUse" x1="332.33" y1="-370.65" x2="332.33" y2="-667.92" gradientTransform="matrix(1 0 0 1 0 1282)">
	<stop  offset="0" style="stop-color:#FED908"/>
	<stop  offset="1" style="stop-color:#BE8110"/>
</linearGradient>
<polygon style="fill:url(#SVGID_00000106853049562459520830000004402969859148331445_);stroke:#030304;stroke-width:4;stroke-miterlimit:10;" points="
	471.09,706.45 340.01,706.45 340.01,614.08 193.57,762.73 340.01,911.35 340.01,819 471.09,819 "/>
<linearGradient id="SVGID_00000001634971394966553580000003066827609087670161_" gradientUnits="userSpaceOnUse" x1="333.72" y1="2437.4299" x2="333.72" y2="2588.8269" gradientTransform="matrix(1 0 0 -1 0 3332)">
	<stop  offset="0" style="stop-color:#FFFFFC"/>
	<stop  offset="1" style="stop-color:#2466AD"/>
</linearGradient>
<path style="opacity:0.5;fill:url(#SVGID_00000001634971394966553580000003066827609087670161_);enable-background:new    ;" d="
	M201.94,762.73l131.21,131.84v-81.13l132.35-1.22v-55.79c0,0-33.17,21.74-74.22,21.74c-17.01,0-58.12-32.43-100.77-34.57
	C276.52,739.79,201.94,762.73,201.94,762.73z"/>
<rect x="41.02" y="1114.23" class="st0" width="442.94" height="360.14"/>
<rect x="31.02" y="1104.23" class="st1" width="442.94" height="360.14"/>
<path class="st2" d="M191.32,1114.73v49.95h12.43c1.95-6.8,8.2-11.79,15.63-11.79c8.99,0,16.27,7.29,16.27,16.27
	s-7.29,16.27-16.27,16.27c-7.43,0-13.68-4.98-15.63-11.79h-12.43v63.79h12.43c1.95-6.8,8.2-11.79,15.63-11.79
	c8.99,0,16.27,7.29,16.27,16.27c0,8.99-7.29,16.27-16.27,16.27c-7.43,0-13.68-4.98-15.63-11.79h-12.43v63.79h12.43
	c1.95-6.8,8.2-11.79,15.63-11.79c8.99,0,16.27,7.29,16.27,16.27s-7.29,16.27-16.27,16.27c-7.43,0-13.68-4.98-15.63-11.79h-12.43
	v63.79h12.43c1.95-6.8,8.2-11.79,15.63-11.79c8.99,0,16.27,7.29,16.27,16.27s-7.29,16.27-16.27,16.27
	c-7.43,0-13.68-4.98-15.63-11.79h-12.43v53.31h270.5v-330.55H191.32z"/>
<path class="st2" d="M179.49,1114.73v49.95h-12.43c-1.95-6.8-8.2-11.79-15.63-11.79c-8.99,0-16.27,7.29-16.27,16.27
	s7.29,16.27,16.27,16.27c7.43,0,13.68-4.98,15.63-11.79h12.43v63.79h-12.43c-1.95-6.8-8.2-11.79-15.63-11.79
	c-8.99,0-16.27,7.29-16.27,16.27c0,8.99,7.29,16.27,16.27,16.27c7.43,0,13.68-4.98,15.63-11.79h12.43v63.79h-12.43
	c-1.95-6.8-8.2-11.79-15.63-11.79c-8.99,0-16.27,7.29-16.27,16.27s7.29,16.27,16.27,16.27c7.43,0,13.68-4.98,15.63-11.79h12.43
	v63.79h-12.43c-1.95-6.8-8.2-11.79-15.63-11.79c-8.99,0-16.27,7.29-16.27,16.27s7.29,16.27,16.27,16.27
	c7.43,0,13.68-4.98,15.63-11.79h12.43v53.31H44.24v-330.55H179.49z"/>
<polygon class="st0" points="475.09,1229 344.01,1229 344.01,1136.63 197.57,1285.27 344.01,1433.9 344.01,1341.55 475.09,1341.55 
	"/>
<linearGradient id="SVGID_00000034087629931016559970000011319638398643789235_" gradientUnits="userSpaceOnUse" x1="332.33" y1="141.35" x2="332.33" y2="-155.92" gradientTransform="matrix(1 0 0 1 0 1282)">
	<stop  offset="0" style="stop-color:#9CCA86"/>
	<stop  offset="1" style="stop-color:#388F36"/>
</linearGradient>
<polygon style="fill:url(#SVGID_00000034087629931016559970000011319638398643789235_);stroke:#030304;stroke-width:4;stroke-miterlimit:10;" points="
	471.09,1218.45 340.01,1218.45 340.01,1126.08 193.57,1274.73 340.01,1423.35 340.01,1331 471.09,1331 "/>
<linearGradient id="SVGID_00000053542664338730460810000014091581770367342757_" gradientUnits="userSpaceOnUse" x1="333.72" y1="1925.4299" x2="333.72" y2="2076.8269" gradientTransform="matrix(1 0 0 -1 0 3332)">
	<stop  offset="0" style="stop-color:#FFFFFC"/>
	<stop  offset="1" style="stop-color:#2466AD"/>
</linearGradient>
<path style="opacity:0.5;fill:url(#SVGID_00000053542664338730460810000014091581770367342757_);enable-background:new    ;" d="
	M201.94,1274.73l131.21,131.84v-81.13l132.35-1.22v-55.79c0,0-33.17,21.74-74.22,21.74c-17.01,0-58.12-32.43-100.77-34.57
	C276.52,1251.79,201.94,1274.73,201.94,1274.73z"/>
<rect x="41.02" y="1626.23" class="st9" width="442.94" height="360.14"/>
<rect x="31.02" y="1616.23" class="st10" width="442.94" height="360.14"/>
<path class="st11" d="M191.32,1626.73v49.95h12.43c1.95-6.8,8.2-11.79,15.63-11.79c8.99,0,16.27,7.29,16.27,16.27
	s-7.29,16.27-16.27,16.27c-7.43,0-13.68-4.98-15.63-11.79h-12.43v63.79h12.43c1.95-6.8,8.2-11.79,15.63-11.79
	c8.99,0,16.27,7.29,16.27,16.27c0,8.99-7.29,16.27-16.27,16.27c-7.43,0-13.68-4.98-15.63-11.79h-12.43v63.79h12.43
	c1.95-6.8,8.2-11.79,15.63-11.79c8.99,0,16.27,7.29,16.27,16.27s-7.29,16.27-16.27,16.27c-7.43,0-13.68-4.98-15.63-11.79h-12.43
	v63.79h12.43c1.95-6.8,8.2-11.79,15.63-11.79c8.99,0,16.27,7.29,16.27,16.27s-7.29,16.27-16.27,16.27
	c-7.43,0-13.68-4.98-15.63-11.79h-12.43v53.31h270.5v-330.55H191.32z"/>
<path class="st11" d="M179.49,1626.73v49.95h-12.43c-1.95-6.8-8.2-11.79-15.63-11.79c-8.99,0-16.27,7.29-16.27,16.27
	s7.29,16.27,16.27,16.27c7.43,0,13.68-4.98,15.63-11.79h12.43v63.79h-12.43c-1.95-6.8-8.2-11.79-15.63-11.79
	c-8.99,0-16.27,7.29-16.27,16.27c0,8.99,7.29,16.27,16.27,16.27c7.43,0,13.68-4.98,15.63-11.79h12.43v63.79h-12.43
	c-1.95-6.8-8.2-11.79-15.63-11.79c-8.99,0-16.27,7.29-16.27,16.27s7.29,16.27,16.27,16.27c7.43,0,13.68-4.98,15.63-11.79h12.43
	v63.79h-12.43c-1.95-6.8-8.2-11.79-15.63-11.79c-8.99,0-16.27,7.29-16.27,16.27s7.29,16.27,16.27,16.27
	c7.43,0,13.68-4.98,15.63-11.79h12.43v53.31H44.24v-330.55H179.49z"/>
<polygon class="st9" points="475.09,1741 344.01,1741 344.01,1648.63 197.57,1797.27 344.01,1945.9 344.01,1853.55 475.09,1853.55 
	"/>
<linearGradient id="SVGID_00000029033088938406991900000002110959561379087292_" gradientUnits="userSpaceOnUse" x1="332.33" y1="653.35" x2="332.33" y2="356.08" gradientTransform="matrix(1 0 0 1 0 1282)">
	<stop  offset="0" style="stop-color:#DDDDDD"/>
	<stop  offset="1" style="stop-color:#707070"/>
</linearGradient>
<polygon style="fill:url(#SVGID_00000029033088938406991900000002110959561379087292_);stroke:#000000;stroke-width:4;stroke-miterlimit:10;" points="
	471.09,1730.45 340.01,1730.45 340.01,1638.08 193.57,1786.73 340.01,1935.35 340.01,1843 471.09,1843 "/>
<linearGradient id="SVGID_00000079477949066346656110000016345569450009269680_" gradientUnits="userSpaceOnUse" x1="333.72" y1="1413.4299" x2="333.72" y2="1564.827" gradientTransform="matrix(1 0 0 -1 0 3332)">
	<stop  offset="0" style="stop-color:#FEFEFE"/>
	<stop  offset="1" style="stop-color:#666666"/>
</linearGradient>
<path style="opacity:0.5;fill:url(#SVGID_00000079477949066346656110000016345569450009269680_);enable-background:new    ;" d="
	M201.94,1786.73l131.21,131.84v-81.13l132.35-1.22v-55.79c0,0-33.17,21.74-74.22,21.74c-17.01,0-58.12-32.43-100.77-34.57
	C276.52,1763.79,201.94,1786.73,201.94,1786.73z"/>
</svg>
