<?xml version="1.0" encoding="utf-8"?>
<!-- Generator: Adobe Illustrator 27.0.1, SVG Export Plug-In . SVG Version: 6.00 Build 0)  -->
<svg version="1.1" id="Calque_1" xmlns="http://www.w3.org/2000/svg" xmlns:xlink="http://www.w3.org/1999/xlink" x="0px" y="0px"
	 viewBox="0 0 512 2048" style="enable-background:new 0 0 512 2048;" xml:space="preserve">
<style type="text/css">
	.st0{fill:#E8E8E6;stroke:#000000;stroke-width:4;stroke-miterlimit:10;}
	.st1{fill:none;stroke:#000000;stroke-width:16;stroke-miterlimit:10;}
	.st2{fill:none;stroke:#000000;stroke-width:4;stroke-miterlimit:10;}
	.st3{opacity:0.5;fill:none;stroke:#3E3D3C;stroke-width:16;stroke-miterlimit:10;enable-background:new    ;}
	.st4{fill:url(#SVGID_1_);stroke:#030304;stroke-width:4;stroke-miterlimit:10;}
	.st5{opacity:0.5;fill:url(#SVGID_00000016068939837088954670000007210390874630657681_);enable-background:new    ;}
	.st6{fill:url(#SVGID_00000005989262502446405430000014108515716127358910_);stroke:#020203;stroke-width:4;stroke-miterlimit:10;}
	.st7{opacity:0.5;fill:url(#SVGID_00000115500378847615194250000015573920523091110291_);enable-background:new    ;}
	.st8{fill:url(#SVGID_00000065763596437574267310000002829330528156668306_);stroke:#020203;stroke-width:4;stroke-miterlimit:10;}
	.st9{opacity:0.5;fill:url(#SVGID_00000065075743547631266450000001233249019500138925_);enable-background:new    ;}
	.st10{fill:#E8E8E8;stroke:#000000;stroke-width:4;stroke-miterlimit:10;}
	.st11{opacity:0.5;fill:none;stroke:#000000;stroke-width:16;stroke-miterlimit:10;enable-background:new    ;}
	.st12{fill:url(#SVGID_00000131368015872888609140000010382092629040494745_);stroke:#000000;stroke-width:4;stroke-miterlimit:10;}
	.st13{opacity:0.5;fill:url(#SVGID_00000005228783667415016130000016533995067396655523_);enable-background:new    ;}
</style>
<g>
	<path class="st0" d="M56.8,180.49l24.97,43.26l10.76-6.21c-1.71-6.87,1.21-14.31,7.65-18.02c7.78-4.49,17.74-1.83,22.23,5.96
		c4.49,7.78,1.83,17.74-5.96,22.23c-6.43,3.71-14.34,2.53-19.43-2.39l-10.76,6.21l31.89,55.24l10.76-6.21
		c-1.71-6.87,1.21-14.31,7.65-18.02c7.78-4.49,17.74-1.83,22.23,5.96c4.49,7.78,1.83,17.74-5.96,22.23
		c-6.43,3.71-14.34,2.53-19.43-2.39l-10.76,6.21l31.89,55.24l10.76-6.21c-1.71-6.87,1.21-14.31,7.65-18.02
		c7.78-4.49,17.74-1.83,22.23,5.96c4.49,7.78,1.83,17.74-5.96,22.23c-6.43,3.71-14.34,2.53-19.43-2.39l-10.76,6.21l31.89,55.24
		l10.76-6.21c-1.71-6.87,1.21-14.31,7.65-18.02c7.78-4.49,17.74-1.83,22.23,5.96c4.49,7.78,1.83,17.74-5.96,22.23
		c-6.43,3.71-14.34,2.53-19.43-2.39l-10.76,6.21l26.66,46.17l234.26-135.25L291.06,45.25L56.8,180.49z"/>
	<path class="st0" d="M72.95,146.95l17.08,46.93l11.68-4.25c-0.49-7.06,3.68-13.88,10.66-16.42c8.45-3.07,17.79,1.28,20.86,9.73
		c3.07,8.45-1.28,17.79-9.73,20.86c-6.98,2.54-14.56,0-18.72-5.73l-11.68,4.25l21.82,59.94l11.68-4.25
		c-0.49-7.06,3.68-13.88,10.66-16.42c8.45-3.07,17.79,1.28,20.86,9.73c3.07,8.45-1.28,17.79-9.73,20.86
		c-6.98,2.54-14.56,0-18.72-5.73l-11.68,4.25l21.82,59.94l11.68-4.25c-0.49-7.06,3.68-13.88,10.66-16.42
		c8.45-3.07,17.79,1.28,20.86,9.73c3.07,8.45-1.28,17.79-9.73,20.86c-6.98,2.54-14.56,0-18.72-5.73l-11.68,4.25l21.82,59.94
		l11.68-4.25c-0.49-7.06,3.68-13.88,10.66-16.42c8.45-3.07,17.79,1.28,20.86,9.73c3.07,8.45-1.28,17.79-9.73,20.86
		c-6.98,2.54-14.56,0-18.72-5.73l-11.68,4.25l18.23,50.1l254.18-92.52L327.13,54.44L72.95,146.95z"/>
	<path class="st0" d="M94.68,116.72l8.67,49.19l12.24-2.16c0.74-7.04,6.03-13.03,13.35-14.32c8.85-1.56,17.29,4.35,18.85,13.2
		c1.56,8.85-4.35,17.29-13.2,18.85c-7.32,1.29-14.34-2.53-17.44-8.89l-12.24,2.16l11.08,62.82l12.24-2.16
		c0.74-7.04,6.03-13.03,13.35-14.32c8.85-1.56,17.29,4.35,18.85,13.2c1.56,8.85-4.35,17.29-13.2,18.85
		c-7.32,1.29-14.34-2.53-17.44-8.89l-12.24,2.16l11.08,62.82l12.24-2.16c0.74-7.04,6.03-13.03,13.35-14.32
		c8.85-1.56,17.29,4.35,18.85,13.2c1.56,8.85-4.35,17.29-13.2,18.85c-7.32,1.29-14.34-2.53-17.44-8.89l-12.24,2.16l11.08,62.82
		l12.24-2.16c0.74-7.04,6.03-13.03,13.35-14.32c8.85-1.56,17.29,4.35,18.85,13.2c1.56,8.85-4.35,17.29-13.2,18.85
		c-7.32,1.29-14.34-2.53-17.44-8.89l-12.24,2.16l9.26,52.5l266.39-46.97l-57.4-325.52L94.68,116.72z"/>
	<rect x="184.81" y="118.77" transform="matrix(0.9848 -0.1736 0.1736 0.9848 -21.0297 35.7488)" width="17.96" height="38.57"/>
	<rect x="214.13" y="113.6" transform="matrix(0.9848 -0.1736 0.1736 0.9848 -19.6868 40.7609)" width="17.96" height="38.57"/>
	<rect x="243.44" y="108.43" transform="matrix(0.9848 -0.1736 0.1736 0.9848 -18.3438 45.7729)" width="17.96" height="38.57"/>
	<rect x="272.76" y="103.27" transform="matrix(0.9848 -0.1736 0.1736 0.9848 -17.0008 50.7849)" width="17.96" height="38.57"/>
	<line class="st1" x1="174.35" y1="186.74" x2="342.68" y2="157.06"/>
	<line class="st2" x1="179.43" y1="215.56" x2="347.76" y2="185.87"/>
	<line class="st2" x1="181.95" y1="229.88" x2="350.28" y2="200.19"/>
	<line class="st2" x1="184.48" y1="244.2" x2="352.81" y2="214.51"/>
	<line class="st2" x1="187" y1="258.52" x2="355.33" y2="228.83"/>
	<line class="st2" x1="189.53" y1="272.84" x2="357.86" y2="243.16"/>
	<line class="st2" x1="192.05" y1="287.16" x2="360.38" y2="257.48"/>
	<line class="st2" x1="194.58" y1="301.48" x2="362.91" y2="271.8"/>
	<line class="st2" x1="197.1" y1="315.8" x2="365.43" y2="286.12"/>
	<line class="st2" x1="199.63" y1="330.12" x2="367.96" y2="300.44"/>
	<line class="st2" x1="202.15" y1="344.44" x2="370.48" y2="314.76"/>
	<line class="st2" x1="204.68" y1="358.76" x2="373.01" y2="329.08"/>
	<line class="st2" x1="207.2" y1="373.08" x2="315.93" y2="353.91"/>
</g>
<polygon class="st3" points="475.09,205 344.01,205 344.01,112.63 197.57,261.27 344.01,409.9 344.01,317.55 475.09,317.55 "/>
<linearGradient id="SVGID_1_" gradientUnits="userSpaceOnUse" x1="332.3329" y1="1650.6456" x2="332.3329" y2="1947.9178" gradientTransform="matrix(1 0 0 -1 0 2050)">
	<stop  offset="0" style="stop-color:#AAD9E9"/>
	<stop  offset="1" style="stop-color:#276DB4"/>
</linearGradient>
<polygon class="st4" points="471.09,194.45 340.01,194.45 340.01,102.08 193.57,250.73 340.01,399.35 340.01,307 471.09,307 "/>
<linearGradient id="SVGID_00000116208325271566622900000012962480769047300267_" gradientUnits="userSpaceOnUse" x1="333.7258" y1="-899.4305" x2="333.7258" y2="-1050.8368" gradientTransform="matrix(1 0 0 1 0 1282)">
	<stop  offset="0" style="stop-color:#FFFFFB"/>
	<stop  offset="1" style="stop-color:#2065AD"/>
</linearGradient>
<path style="opacity:0.5;fill:url(#SVGID_00000116208325271566622900000012962480769047300267_);enable-background:new    ;" d="
	M201.94,250.73l131.21,131.84v-81.13l132.35-1.22v-55.79c0,0-33.17,21.74-74.22,21.74c-17.01,0-58.12-32.43-100.77-34.57
	C276.52,227.79,201.94,250.73,201.94,250.73z"/>
<g>
	<path class="st0" d="M56.83,693.35l24.97,43.26l10.76-6.21c-1.71-6.87,1.21-14.31,7.65-18.02c7.78-4.49,17.74-1.83,22.23,5.96
		c4.49,7.78,1.83,17.74-5.96,22.23c-6.43,3.71-14.34,2.53-19.43-2.39l-10.76,6.21l31.89,55.24l10.76-6.21
		c-1.71-6.87,1.21-14.31,7.65-18.02c7.78-4.49,17.74-1.83,22.23,5.96c4.49,7.78,1.83,17.74-5.96,22.23
		c-6.43,3.71-14.34,2.53-19.43-2.39l-10.76,6.21l31.89,55.24l10.76-6.21c-1.71-6.87,1.21-14.31,7.65-18.02
		c7.78-4.49,17.74-1.83,22.23,5.96c4.49,7.78,1.83,17.74-5.96,22.23c-6.43,3.71-14.34,2.53-19.43-2.39l-10.76,6.21l31.89,55.24
		l10.76-6.21c-1.71-6.87,1.21-14.31,7.65-18.02c7.78-4.49,17.74-1.83,22.23,5.96c4.49,7.78,1.83,17.74-5.96,22.23
		c-6.43,3.71-14.34,2.53-19.43-2.39l-10.76,6.21l26.66,46.17l234.26-135.25L291.09,558.1L56.83,693.35z"/>
	<path class="st0" d="M72.98,659.8l17.08,46.93l11.68-4.25c-0.49-7.06,3.68-13.88,10.66-16.42c8.45-3.07,17.79,1.28,20.86,9.73
		c3.07,8.45-1.28,17.79-9.73,20.86c-6.98,2.54-14.56,0-18.72-5.73l-11.68,4.25l21.82,59.94l11.68-4.25
		c-0.49-7.06,3.68-13.88,10.66-16.42c8.45-3.07,17.79,1.28,20.86,9.73c3.07,8.45-1.28,17.79-9.73,20.86
		c-6.98,2.54-14.56,0-18.72-5.73l-11.68,4.25l21.82,59.94l11.68-4.25c-0.49-7.06,3.68-13.88,10.66-16.42
		c8.45-3.07,17.79,1.28,20.86,9.73c3.07,8.45-1.28,17.79-9.73,20.86c-6.98,2.54-14.56,0-18.72-5.73l-11.68,4.25l21.82,59.94
		l11.68-4.25c-0.49-7.06,3.68-13.88,10.66-16.42c8.45-3.07,17.79,1.28,20.86,9.73c3.07,8.45-1.28,17.79-9.73,20.86
		c-6.98,2.54-14.56,0-18.72-5.73l-11.68,4.25l18.23,50.1l254.18-92.52L327.16,567.29L72.98,659.8z"/>
	<path class="st0" d="M94.7,629.58l8.67,49.19l12.24-2.16c0.74-7.04,6.03-13.03,13.35-14.32c8.85-1.56,17.29,4.35,18.85,13.2
		s-4.35,17.29-13.2,18.85c-7.32,1.29-14.34-2.53-17.44-8.89l-12.24,2.16l11.08,62.82l12.24-2.16c0.74-7.04,6.03-13.03,13.35-14.32
		c8.85-1.56,17.29,4.35,18.85,13.2c1.56,8.85-4.35,17.29-13.2,18.85c-7.32,1.29-14.34-2.53-17.44-8.89l-12.24,2.16l11.08,62.82
		l12.24-2.16c0.74-7.04,6.03-13.03,13.35-14.32c8.85-1.56,17.29,4.35,18.85,13.2c1.56,8.85-4.35,17.29-13.2,18.85
		c-7.32,1.29-14.34-2.53-17.44-8.89l-12.24,2.16l11.08,62.82l12.24-2.16c0.74-7.04,6.03-13.03,13.35-14.32
		c8.85-1.56,17.29,4.35,18.85,13.2c1.56,8.85-4.35,17.29-13.2,18.85c-7.32,1.29-14.34-2.53-17.44-8.89l-12.24,2.16l9.26,52.5
		l266.39-46.97l-57.4-325.52L94.7,629.58z"/>
	<rect x="184.84" y="631.63" transform="matrix(0.9848 -0.1736 0.1736 0.9848 -110.0853 43.5452)" width="17.96" height="38.57"/>
	<rect x="214.16" y="626.46" transform="matrix(0.9848 -0.1736 0.1736 0.9848 -108.7423 48.5572)" width="17.96" height="38.57"/>
	<rect x="243.47" y="621.29" transform="matrix(0.9848 -0.1736 0.1736 0.9848 -107.3993 53.5692)" width="17.96" height="38.57"/>
	<rect x="272.79" y="616.12" transform="matrix(0.9848 -0.1736 0.1736 0.9848 -106.0564 58.5813)" width="17.96" height="38.57"/>
	<line class="st1" x1="174.38" y1="699.59" x2="342.7" y2="669.91"/>
	<line class="st2" x1="179.46" y1="728.41" x2="347.79" y2="698.73"/>
	<line class="st2" x1="181.98" y1="742.73" x2="350.31" y2="713.05"/>
	<line class="st2" x1="184.51" y1="757.05" x2="352.84" y2="727.37"/>
	<line class="st2" x1="187.03" y1="771.37" x2="355.36" y2="741.69"/>
	<line class="st2" x1="189.56" y1="785.69" x2="357.89" y2="756.01"/>
	<line class="st2" x1="192.08" y1="800.01" x2="360.41" y2="770.33"/>
	<line class="st2" x1="194.61" y1="814.33" x2="362.94" y2="784.65"/>
	<line class="st2" x1="197.13" y1="828.65" x2="365.46" y2="798.97"/>
	<line class="st2" x1="199.66" y1="842.97" x2="367.99" y2="813.29"/>
	<line class="st2" x1="202.18" y1="857.29" x2="370.51" y2="827.61"/>
	<line class="st2" x1="204.71" y1="871.61" x2="373.04" y2="841.93"/>
	<line class="st2" x1="207.23" y1="885.93" x2="315.96" y2="866.76"/>
</g>
<polygon class="st3" points="475.12,717.86 344.04,717.86 344.04,625.48 197.6,774.13 344.04,922.76 344.04,830.4 475.12,830.4 "/>
<linearGradient id="SVGID_00000003090779869626435900000009785878816874464414_" gradientUnits="userSpaceOnUse" x1="332.3615" y1="1137.7926" x2="332.3615" y2="1435.0649" gradientTransform="matrix(1 0 0 -1 0 2050)">
	<stop  offset="0" style="stop-color:#FED908"/>
	<stop  offset="1" style="stop-color:#BF8010"/>
</linearGradient>
<polygon style="fill:url(#SVGID_00000003090779869626435900000009785878816874464414_);stroke:#020203;stroke-width:4;stroke-miterlimit:10;" points="
	471.12,707.31 340.04,707.31 340.04,614.94 193.6,763.58 340.04,912.21 340.04,819.85 471.12,819.85 "/>
<linearGradient id="SVGID_00000111191878006302764630000008898628581203056572_" gradientUnits="userSpaceOnUse" x1="333.7545" y1="-386.5776" x2="333.7545" y2="-537.9839" gradientTransform="matrix(1 0 0 1 0 1282)">
	<stop  offset="0" style="stop-color:#FFFFFB"/>
	<stop  offset="1" style="stop-color:#2065AD"/>
</linearGradient>
<path style="opacity:0.5;fill:url(#SVGID_00000111191878006302764630000008898628581203056572_);enable-background:new    ;" d="
	M201.97,763.58l131.21,131.84v-81.13l132.35-1.22v-55.79c0,0-33.17,21.74-74.22,21.74c-17.01,0-58.12-32.43-100.77-34.57
	C276.55,740.64,201.97,763.58,201.97,763.58z"/>
<g>
	<path class="st0" d="M56.77,1205.2l24.97,43.26l10.76-6.21c-1.71-6.87,1.21-14.31,7.65-18.02c7.78-4.49,17.74-1.83,22.23,5.96
		c4.49,7.78,1.83,17.74-5.96,22.23c-6.43,3.71-14.34,2.53-19.43-2.39l-10.76,6.21l31.89,55.24l10.76-6.21
		c-1.71-6.87,1.21-14.31,7.65-18.02c7.78-4.49,17.74-1.83,22.23,5.96c4.49,7.78,1.83,17.74-5.96,22.23
		c-6.43,3.71-14.34,2.53-19.43-2.39l-10.76,6.21l31.89,55.24l10.76-6.21c-1.71-6.87,1.21-14.31,7.65-18.02
		c7.78-4.49,17.74-1.83,22.23,5.96c4.49,7.78,1.83,17.74-5.96,22.23c-6.43,3.71-14.34,2.53-19.43-2.39l-10.76,6.21l31.89,55.24
		l10.76-6.21c-1.71-6.87,1.21-14.31,7.65-18.02c7.78-4.49,17.74-1.83,22.23,5.96c4.49,7.78,1.83,17.74-5.96,22.23
		c-6.43,3.71-14.34,2.53-19.43-2.39l-10.76,6.21l26.66,46.17l234.26-135.25l-165.27-286.26L56.77,1205.2z"/>
	<path class="st0" d="M72.92,1171.66L90,1218.59l11.68-4.25c-0.49-7.06,3.68-13.88,10.66-16.42c8.45-3.07,17.79,1.28,20.86,9.73
		c3.07,8.45-1.28,17.79-9.73,20.86c-6.98,2.54-14.56,0-18.72-5.73l-11.68,4.25l21.82,59.94l11.68-4.25
		c-0.49-7.06,3.68-13.88,10.66-16.42c8.45-3.07,17.79,1.28,20.86,9.73c3.07,8.45-1.28,17.79-9.73,20.86
		c-6.98,2.54-14.56,0-18.72-5.73l-11.68,4.25l21.82,59.94l11.68-4.25c-0.49-7.06,3.68-13.88,10.66-16.42
		c8.45-3.07,17.79,1.28,20.86,9.73c3.07,8.45-1.28,17.79-9.73,20.86c-6.98,2.54-14.56,0-18.72-5.73l-11.68,4.25l21.82,59.94
		l11.68-4.25c-0.49-7.06,3.68-13.88,10.66-16.42c8.45-3.07,17.79,1.28,20.86,9.73c3.07,8.45-1.28,17.79-9.73,20.86
		c-6.98,2.54-14.56,0-18.72-5.73l-11.68,4.25l18.23,50.1l254.18-92.52l-113.05-310.61L72.92,1171.66z"/>
	<path class="st0" d="M94.65,1141.43l8.67,49.19l12.24-2.16c0.74-7.04,6.03-13.03,13.35-14.32c8.85-1.56,17.29,4.35,18.85,13.2
		c1.56,8.85-4.35,17.29-13.2,18.85c-7.32,1.29-14.34-2.53-17.44-8.89l-12.24,2.16l11.08,62.82l12.24-2.16
		c0.74-7.04,6.03-13.03,13.35-14.32c8.85-1.56,17.29,4.35,18.85,13.2c1.56,8.85-4.35,17.29-13.2,18.85
		c-7.32,1.29-14.34-2.53-17.44-8.89l-12.24,2.16l11.08,62.82l12.24-2.16c0.74-7.04,6.03-13.03,13.35-14.32
		c8.85-1.56,17.29,4.35,18.85,13.2c1.56,8.85-4.35,17.29-13.2,18.85c-7.32,1.29-14.34-2.53-17.44-8.89l-12.24,2.16l11.08,62.82
		l12.24-2.16c0.74-7.04,6.03-13.03,13.35-14.32c8.85-1.56,17.29,4.35,18.85,13.2s-4.35,17.29-13.2,18.85
		c-7.32,1.29-14.34-2.53-17.44-8.89l-12.24,2.16l9.26,52.5l266.39-46.97l-57.4-325.52L94.65,1141.43z"/>
	<rect x="184.78" y="1143.48" transform="matrix(0.9848 -0.1736 0.1736 0.9848 -198.9685 51.3114)" width="17.96" height="38.57"/>
	<rect x="214.1" y="1138.31" transform="matrix(0.9848 -0.1736 0.1736 0.9848 -197.6255 56.3235)" width="17.96" height="38.57"/>
	<rect x="243.41" y="1133.14" transform="matrix(0.9848 -0.1736 0.1736 0.9848 -196.2825 61.3355)" width="17.96" height="38.57"/>
	<rect x="272.73" y="1127.97" transform="matrix(0.9848 -0.1736 0.1736 0.9848 -194.9396 66.3475)" width="17.96" height="38.57"/>
	<line class="st1" x1="174.32" y1="1211.44" x2="342.65" y2="1181.76"/>
	<line class="st2" x1="179.4" y1="1240.26" x2="347.73" y2="1210.58"/>
	<line class="st2" x1="181.92" y1="1254.58" x2="350.25" y2="1224.9"/>
	<line class="st2" x1="184.45" y1="1268.9" x2="352.78" y2="1239.22"/>
	<line class="st2" x1="186.97" y1="1283.22" x2="355.3" y2="1253.54"/>
	<line class="st2" x1="189.5" y1="1297.54" x2="357.83" y2="1267.86"/>
	<line class="st2" x1="192.03" y1="1311.86" x2="360.35" y2="1282.18"/>
	<line class="st2" x1="194.55" y1="1326.18" x2="362.88" y2="1296.5"/>
	<line class="st2" x1="197.08" y1="1340.5" x2="365.4" y2="1310.82"/>
	<line class="st2" x1="199.6" y1="1354.82" x2="367.93" y2="1325.14"/>
	<line class="st2" x1="202.13" y1="1369.14" x2="370.45" y2="1339.46"/>
	<line class="st2" x1="204.65" y1="1383.46" x2="372.98" y2="1353.78"/>
	<line class="st2" x1="207.18" y1="1397.78" x2="315.9" y2="1378.61"/>
</g>
<polygon class="st3" points="475.06,1229.71 343.98,1229.71 343.98,1137.34 197.54,1285.98 343.98,1434.61 343.98,1342.25 
	475.06,1342.25 "/>
<linearGradient id="SVGID_00000137095160430721787430000011374185134619492775_" gradientUnits="userSpaceOnUse" x1="332.3043" y1="625.9398" x2="332.3043" y2="923.212" gradientTransform="matrix(1 0 0 -1 0 2050)">
	<stop  offset="0" style="stop-color:#9CCA85"/>
	<stop  offset="1" style="stop-color:#368E36"/>
</linearGradient>
<polygon style="fill:url(#SVGID_00000137095160430721787430000011374185134619492775_);stroke:#020203;stroke-width:4;stroke-miterlimit:10;" points="
	471.06,1219.16 339.98,1219.16 339.98,1126.79 193.54,1275.43 339.98,1424.06 339.98,1331.7 471.06,1331.7 "/>
<linearGradient id="SVGID_00000061446728295695973630000002116146132956051632_" gradientUnits="userSpaceOnUse" x1="333.6972" y1="125.2753" x2="333.6972" y2="-26.1309" gradientTransform="matrix(1 0 0 1 0 1282)">
	<stop  offset="0" style="stop-color:#FFFFFB"/>
	<stop  offset="1" style="stop-color:#2065AD"/>
</linearGradient>
<path style="opacity:0.5;fill:url(#SVGID_00000061446728295695973630000002116146132956051632_);enable-background:new    ;" d="
	M201.91,1275.43l131.21,131.84v-81.13l132.35-1.22v-55.79c0,0-33.17,21.74-74.22,21.74c-17.01,0-58.12-32.43-100.77-34.57
	C276.5,1252.5,201.91,1275.43,201.91,1275.43z"/>
<g>
	<path class="st10" d="M56.8,1717.2l24.97,43.26l10.76-6.21c-1.71-6.87,1.21-14.31,7.65-18.02c7.78-4.49,17.74-1.83,22.23,5.96
		c4.49,7.78,1.83,17.74-5.96,22.23c-6.43,3.71-14.34,2.53-19.43-2.39l-10.76,6.21l31.89,55.24l10.76-6.21
		c-1.71-6.87,1.21-14.31,7.65-18.02c7.78-4.49,17.74-1.83,22.23,5.96c4.49,7.78,1.83,17.74-5.96,22.23
		c-6.43,3.71-14.34,2.53-19.43-2.39l-10.76,6.21l31.89,55.24l10.76-6.21c-1.71-6.87,1.21-14.31,7.65-18.02
		c7.78-4.49,17.74-1.83,22.23,5.96c4.49,7.78,1.83,17.74-5.96,22.23c-6.43,3.71-14.34,2.53-19.43-2.39l-10.76,6.21l31.89,55.24
		l10.76-6.21c-1.71-6.87,1.21-14.31,7.65-18.02c7.78-4.49,17.74-1.83,22.23,5.96c4.49,7.78,1.83,17.74-5.96,22.23
		c-6.43,3.71-14.34,2.53-19.43-2.39l-10.76,6.21l26.66,46.17l234.26-135.25l-165.27-286.26L56.8,1717.2z"/>
	<path class="st10" d="M72.95,1683.66l17.08,46.93l11.68-4.25c-0.49-7.06,3.68-13.88,10.66-16.42c8.45-3.07,17.79,1.28,20.86,9.73
		c3.07,8.45-1.28,17.79-9.73,20.86c-6.98,2.54-14.56,0-18.72-5.73l-11.68,4.25l21.82,59.94l11.68-4.25
		c-0.49-7.06,3.68-13.88,10.66-16.42c8.45-3.07,17.79,1.28,20.86,9.73c3.07,8.45-1.28,17.79-9.73,20.86
		c-6.98,2.54-14.56,0-18.72-5.73l-11.68,4.25l21.82,59.94l11.68-4.25c-0.49-7.06,3.68-13.88,10.66-16.42
		c8.45-3.07,17.79,1.28,20.86,9.73c3.07,8.45-1.28,17.79-9.73,20.86c-6.98,2.54-14.56,0-18.72-5.73l-11.68,4.25l21.82,59.94
		l11.68-4.25c-0.49-7.06,3.68-13.88,10.66-16.42c8.45-3.07,17.79,1.28,20.86,9.73c3.07,8.45-1.28,17.79-9.73,20.86
		c-6.98,2.54-14.56,0-18.72-5.73l-11.68,4.25l18.23,50.1l254.18-92.52l-113.05-310.61L72.95,1683.66z"/>
	<path class="st10" d="M94.68,1653.43l8.67,49.19l12.24-2.16c0.74-7.04,6.03-13.03,13.35-14.32c8.85-1.56,17.29,4.35,18.85,13.2
		c1.56,8.85-4.35,17.29-13.2,18.85c-7.32,1.29-14.34-2.53-17.44-8.89l-12.24,2.16l11.08,62.82l12.24-2.16
		c0.74-7.04,6.03-13.03,13.35-14.32c8.85-1.56,17.29,4.35,18.85,13.2c1.56,8.85-4.35,17.29-13.2,18.85
		c-7.32,1.29-14.34-2.53-17.44-8.89l-12.24,2.16l11.08,62.82l12.24-2.16c0.74-7.04,6.03-13.03,13.35-14.32
		c8.85-1.56,17.29,4.35,18.85,13.2c1.56,8.85-4.35,17.29-13.2,18.85c-7.32,1.29-14.34-2.53-17.44-8.89l-12.24,2.16l11.08,62.82
		l12.24-2.16c0.74-7.04,6.03-13.03,13.35-14.32c8.85-1.56,17.29,4.35,18.85,13.2c1.56,8.85-4.35,17.29-13.2,18.85
		c-7.32,1.29-14.34-2.53-17.44-8.89l-12.24,2.16l9.26,52.5l266.39-46.97l-57.4-325.52L94.68,1653.43z"/>
	<rect x="184.81" y="1655.48" transform="matrix(0.9848 -0.1736 0.1736 0.9848 -287.8759 59.0948)" width="17.96" height="38.57"/>
	<rect x="214.13" y="1650.31" transform="matrix(0.9848 -0.1736 0.1736 0.9848 -286.5329 64.1069)" width="17.96" height="38.57"/>
	<rect x="243.44" y="1645.14" transform="matrix(0.9848 -0.1736 0.1736 0.9848 -285.19 69.1189)" width="17.96" height="38.57"/>
	<rect x="272.76" y="1639.97" transform="matrix(0.9848 -0.1736 0.1736 0.9848 -283.847 74.1309)" width="17.96" height="38.57"/>
	<line class="st1" x1="174.35" y1="1723.44" x2="342.68" y2="1693.76"/>
	<line class="st2" x1="179.43" y1="1752.26" x2="347.76" y2="1722.58"/>
	<line class="st2" x1="181.95" y1="1766.58" x2="350.28" y2="1736.9"/>
	<line class="st2" x1="184.48" y1="1780.9" x2="352.81" y2="1751.22"/>
	<line class="st2" x1="187" y1="1795.22" x2="355.33" y2="1765.54"/>
	<line class="st2" x1="189.53" y1="1809.54" x2="357.86" y2="1779.86"/>
	<line class="st2" x1="192.05" y1="1823.86" x2="360.38" y2="1794.18"/>
	<line class="st2" x1="194.58" y1="1838.18" x2="362.91" y2="1808.5"/>
	<line class="st2" x1="197.1" y1="1852.5" x2="365.43" y2="1822.82"/>
	<line class="st2" x1="199.63" y1="1866.82" x2="367.96" y2="1837.14"/>
	<line class="st2" x1="202.15" y1="1881.14" x2="370.48" y2="1851.46"/>
	<line class="st2" x1="204.68" y1="1895.46" x2="373.01" y2="1865.78"/>
	<line class="st2" x1="207.2" y1="1909.78" x2="315.93" y2="1890.61"/>
</g>
<polygon class="st11" points="475.09,1741.71 344.01,1741.71 344.01,1649.34 197.57,1797.98 344.01,1946.61 344.01,1854.25 
	475.09,1854.25 "/>
<linearGradient id="SVGID_00000048473605049476024920000014410329653734174142_" gradientUnits="userSpaceOnUse" x1="332.3329" y1="113.9397" x2="332.3329" y2="411.212" gradientTransform="matrix(1 0 0 -1 0 2050)">
	<stop  offset="0" style="stop-color:#DEDEDE"/>
	<stop  offset="1" style="stop-color:#6F6F6F"/>
</linearGradient>
<polygon style="fill:url(#SVGID_00000048473605049476024920000014410329653734174142_);stroke:#000000;stroke-width:4;stroke-miterlimit:10;" points="
	471.09,1731.16 340.01,1731.16 340.01,1638.79 193.57,1787.43 340.01,1936.06 340.01,1843.7 471.09,1843.7 "/>
<linearGradient id="SVGID_00000155134049237637376000000015844152413304501926_" gradientUnits="userSpaceOnUse" x1="333.7258" y1="637.2753" x2="333.7258" y2="485.869" gradientTransform="matrix(1 0 0 1 0 1282)">
	<stop  offset="0" style="stop-color:#FEFEFE"/>
	<stop  offset="1" style="stop-color:#656565"/>
</linearGradient>
<path style="opacity:0.5;fill:url(#SVGID_00000155134049237637376000000015844152413304501926_);enable-background:new    ;" d="
	M201.94,1787.43l131.21,131.84v-81.13l132.35-1.22v-55.79c0,0-33.17,21.74-74.22,21.74c-17.01,0-58.12-32.43-100.77-34.57
	C276.52,1764.5,201.94,1787.43,201.94,1787.43z"/>
</svg>
