<?xml version="1.0" encoding="utf-8"?>
<!-- Generator: Adobe Illustrator 27.0.1, SVG Export Plug-In . SVG Version: 6.00 Build 0)  -->
<svg version="1.1" id="Calque_1" xmlns="http://www.w3.org/2000/svg" xmlns:xlink="http://www.w3.org/1999/xlink" x="0px" y="0px"
	 viewBox="0 0 512 2048" style="enable-background:new 0 0 512 2048;" xml:space="preserve">
<style type="text/css">
	.st0{fill:none;stroke:#3EB2E6;stroke-width:40;stroke-linecap:round;stroke-miterlimit:10;}
	.st1{fill:none;stroke:#F39208;stroke-width:40;stroke-miterlimit:10;}
	.st2{fill:#E8E8E6;stroke:#000000;stroke-width:4;stroke-miterlimit:10;}
	.st3{fill:none;stroke:#000000;stroke-width:16;stroke-miterlimit:10;}
	.st4{fill:none;stroke:#000000;stroke-width:4;stroke-miterlimit:10;}
	.st5{fill:#E8E8E8;stroke:#A2A19F;stroke-width:4;stroke-miterlimit:10;}
	.st6{fill:#A2A19F;}
	.st7{fill:none;stroke:#A2A19F;stroke-width:16;stroke-miterlimit:10;}
	.st8{fill:none;stroke:#A2A19F;stroke-width:4;stroke-miterlimit:10;}
	.st9{fill:#818085;stroke:#010202;stroke-miterlimit:10;}
	.st10{opacity:0.5;fill:url(#SVGID_1_);}
	.st11{opacity:0.5;fill:#FFFFFF;enable-background:new    ;}
	.st12{fill:#FFFFFF;}
	.st13{fill:url(#SVGID_00000048492309211616324990000007697852975678200508_);stroke:#010202;stroke-miterlimit:10;}
	.st14{opacity:0.5;fill:#A0A09F;enable-background:new    ;}
	.st15{opacity:0.5;fill:url(#SVGID_00000146464472299522154350000014148218337965966012_);}
	.st16{fill:url(#SVGID_00000137111398989711849120000013655116419864524974_);stroke:#010202;stroke-miterlimit:10;}
	.st17{opacity:0.5;fill:url(#SVGID_00000026133147445660451610000001555093396423696256_);}
	.st18{fill:url(#SVGID_00000080205483883174732970000016620440764425074841_);stroke:#010202;stroke-miterlimit:10;}
	.st19{fill:#818181;stroke:#020202;stroke-miterlimit:10;}
	.st20{opacity:0.5;fill:url(#SVGID_00000068652402354046584400000009495504003011972758_);}
	.st21{fill:url(#SVGID_00000179646596253057872720000001839139649500013961_);stroke:#020202;stroke-miterlimit:10;}
	.st22{opacity:0.5;fill:#A0A0A0;enable-background:new    ;}
</style>
<path class="st0" d="M441.54,1340.55l20.73-17.39l-82.94-98.85l-22.41-127.07l-26.64,4.7l-7.28-20.01l-25.42,9.25l-10.65-18.45
	l-23.43,13.53l-13.69-16.32l-69.68,58.47l-89.58,15.8l3.7,20.97l-25.42,9.25l7.28,20.01l-23.43,13.53l10.65,18.44L42.6,1243.8
	l78.88,94.01l15.65,70.57l1.56,8.84l9.26,52.5l26.64-4.7l7.28,20.01l25.42-9.25l10.65,18.44l23.43-13.53l13.69,16.32l69.68-58.47
	l89.58-15.8l-3.7-20.97l25.42-9.25l-7.28-20.01l23.43-13.53L441.54,1340.55z"/>
<path class="st1" d="M441.54,831.54l20.73-17.39l-82.94-98.85l-22.41-127.07l-26.64,4.7L323,572.92l-25.42,9.25l-10.65-18.45
	l-23.43,13.53l-13.69-16.32l-69.68,58.47l-89.58,15.8l3.7,20.97l-25.42,9.25l7.28,20.01l-23.43,13.53l10.65,18.45L42.6,734.8
	l78.88,94.01l15.65,70.57l1.56,8.84l9.26,52.5l26.64-4.7l7.28,20.01l25.42-9.25l10.65,18.44l23.43-13.53l13.69,16.32l69.68-58.47
	l89.58-15.8l-3.7-20.97l25.42-9.25l-7.28-20.01l23.43-13.53L441.54,831.54z"/>
<g>
	<path class="st2" d="M46.73,216.33l32.11,38.26l9.52-7.99c-2.88-6.46-1.29-14.3,4.4-19.08c6.89-5.78,17.15-4.88,22.93,2.01
		s4.88,17.15-2.01,22.93c-5.69,4.78-13.68,4.98-19.55,1.02l-9.52,7.99l41,48.87l9.52-7.99c-2.88-6.46-1.29-14.3,4.4-19.08
		c6.89-5.78,17.15-4.88,22.93,2.01s4.88,17.15-2.01,22.93c-5.69,4.78-13.68,4.98-19.55,1.02l-9.52,7.99l41,48.87l9.52-7.99
		c-2.88-6.46-1.29-14.3,4.4-19.08c6.89-5.78,17.15-4.88,22.93,2.01s4.88,17.15-2.01,22.93c-5.69,4.78-13.68,4.98-19.55,1.02
		l-9.52,7.99l41,48.87l9.52-7.99c-2.88-6.46-1.29-14.3,4.4-19.08c6.89-5.78,17.15-4.88,22.93,2.01s4.88,17.15-2.01,22.93
		c-5.69,4.78-13.68,4.98-19.55,1.02l-9.52,7.99l34.27,40.84L466.4,295.69L253.94,42.46L46.73,216.33z"/>
	<path class="st2" d="M56.8,180.49l24.97,43.26l10.76-6.21c-1.71-6.87,1.21-14.31,7.65-18.02c7.78-4.49,17.74-1.83,22.23,5.96
		c4.49,7.78,1.83,17.74-5.96,22.23c-6.43,3.71-14.34,2.53-19.43-2.39l-10.76,6.21l31.89,55.24l10.76-6.21
		c-1.71-6.87,1.21-14.31,7.65-18.02c7.78-4.49,17.74-1.83,22.23,5.96c4.49,7.78,1.83,17.74-5.96,22.23
		c-6.43,3.71-14.34,2.53-19.43-2.39l-10.76,6.21l31.89,55.24l10.76-6.21c-1.71-6.87,1.21-14.31,7.65-18.02
		c7.78-4.49,17.74-1.83,22.23,5.96c4.49,7.78,1.83,17.74-5.96,22.23c-6.43,3.71-14.34,2.53-19.43-2.39l-10.76,6.21l31.89,55.24
		l10.76-6.21c-1.71-6.87,1.21-14.31,7.65-18.02c7.78-4.49,17.74-1.83,22.23,5.96c4.49,7.78,1.83,17.74-5.96,22.23
		c-6.43,3.71-14.34,2.53-19.43-2.39l-10.76,6.21l26.66,46.17l234.26-135.25L291.06,45.25L56.8,180.49z"/>
	<path class="st2" d="M72.95,146.95l17.08,46.93l11.68-4.25c-0.49-7.06,3.68-13.88,10.66-16.42c8.45-3.07,17.79,1.28,20.86,9.73
		c3.07,8.45-1.28,17.79-9.73,20.86c-6.98,2.54-14.56,0-18.72-5.73l-11.68,4.25l21.82,59.94l11.68-4.25
		c-0.49-7.06,3.68-13.88,10.66-16.42c8.45-3.07,17.79,1.28,20.86,9.73c3.07,8.45-1.28,17.79-9.73,20.86
		c-6.98,2.54-14.56,0-18.72-5.73l-11.68,4.25l21.82,59.94l11.68-4.25c-0.49-7.06,3.68-13.88,10.66-16.42
		c8.45-3.07,17.79,1.28,20.86,9.73c3.07,8.45-1.28,17.79-9.73,20.86c-6.98,2.54-14.56,0-18.72-5.73l-11.68,4.25l21.82,59.94
		l11.68-4.25c-0.49-7.06,3.68-13.88,10.66-16.42c8.45-3.07,17.79,1.28,20.86,9.73c3.07,8.45-1.28,17.79-9.73,20.86
		c-6.98,2.54-14.56,0-18.72-5.73l-11.68,4.25l18.23,50.1l254.18-92.52L327.13,54.44L72.95,146.95z"/>
	<path class="st2" d="M94.68,116.72l8.67,49.19l12.24-2.16c0.74-7.04,6.03-13.03,13.35-14.32c8.85-1.56,17.29,4.35,18.85,13.2
		c1.56,8.85-4.35,17.29-13.2,18.85c-7.32,1.29-14.34-2.53-17.44-8.89l-12.24,2.16l11.08,62.82l12.24-2.16
		c0.74-7.04,6.03-13.03,13.35-14.32c8.85-1.56,17.29,4.35,18.85,13.2c1.56,8.85-4.35,17.29-13.2,18.85
		c-7.32,1.29-14.34-2.53-17.44-8.89l-12.24,2.16l11.08,62.82l12.24-2.16c0.74-7.04,6.03-13.03,13.35-14.32
		c8.85-1.56,17.29,4.35,18.85,13.2s-4.35,17.29-13.2,18.85c-7.32,1.29-14.34-2.53-17.44-8.89l-12.24,2.16l11.08,62.82l12.24-2.16
		c0.74-7.04,6.03-13.03,13.35-14.32c8.85-1.56,17.29,4.35,18.85,13.2s-4.35,17.29-13.2,18.85c-7.32,1.29-14.34-2.53-17.44-8.89
		l-12.24,2.16l9.26,52.5l266.39-46.97l-57.4-325.52L94.68,116.72z"/>
	<rect x="184.8" y="118.78" transform="matrix(0.9848 -0.1736 0.1736 0.9848 -21.0258 35.7373)" width="17.96" height="38.57"/>
	<rect x="214.12" y="113.61" transform="matrix(0.9848 -0.1736 0.1736 0.9848 -19.6832 40.7488)" width="17.96" height="38.57"/>
	<rect x="243.43" y="108.44" transform="matrix(0.9848 -0.1736 0.1736 0.9848 -18.341 45.7586)" width="17.96" height="38.57"/>
	<rect x="272.75" y="103.28" transform="matrix(0.9848 -0.1736 0.1736 0.9848 -17.0001 50.7706)" width="17.96" height="38.57"/>
	<line class="st3" x1="174.35" y1="186.74" x2="342.68" y2="157.06"/>
	<line class="st4" x1="179.43" y1="215.56" x2="347.76" y2="185.87"/>
	<line class="st4" x1="181.95" y1="229.88" x2="350.28" y2="200.19"/>
	<line class="st4" x1="184.48" y1="244.2" x2="352.81" y2="214.51"/>
	<line class="st4" x1="187" y1="258.52" x2="355.33" y2="228.83"/>
	<line class="st4" x1="189.53" y1="272.84" x2="357.86" y2="243.16"/>
	<line class="st4" x1="192.05" y1="287.16" x2="360.38" y2="257.48"/>
	<line class="st4" x1="194.58" y1="301.48" x2="362.91" y2="271.8"/>
	<line class="st4" x1="197.1" y1="315.8" x2="365.43" y2="286.12"/>
	<line class="st4" x1="199.63" y1="330.12" x2="367.96" y2="300.44"/>
	<line class="st4" x1="202.15" y1="344.44" x2="370.48" y2="314.76"/>
	<line class="st4" x1="204.68" y1="358.76" x2="373.01" y2="329.08"/>
	<line class="st4" x1="207.2" y1="373.08" x2="315.93" y2="353.91"/>
</g>
<path class="st2" d="M46.73,728.82l32.11,38.26l9.52-7.99c-2.88-6.46-1.29-14.3,4.4-19.08c6.89-5.78,17.15-4.88,22.93,2.01
	s4.88,17.15-2.01,22.93c-5.69,4.78-13.68,4.98-19.55,1.02l-9.52,7.99l41,48.87l9.52-7.99c-2.88-6.46-1.29-14.3,4.4-19.08
	c6.89-5.78,17.15-4.88,22.93,2.01s4.88,17.15-2.01,22.93c-5.69,4.78-13.68,4.98-19.55,1.02l-9.52,7.99l41,48.87l9.52-7.99
	c-2.88-6.46-1.29-14.3,4.4-19.08c6.89-5.78,17.15-4.88,22.93,2.01s4.88,17.15-2.01,22.93c-5.69,4.78-13.68,4.98-19.55,1.02
	l-9.52,7.99l41,48.87l9.52-7.99c-2.88-6.46-1.29-14.3,4.4-19.08c6.89-5.78,17.15-4.88,22.93,2.01s4.88,17.15-2.01,22.93
	c-5.69,4.78-13.68,4.98-19.55,1.02l-9.52,7.99l34.27,40.84L466.4,808.18L253.94,554.94L46.73,728.82z"/>
<path class="st2" d="M56.8,692.98l24.97,43.26l10.76-6.21c-1.71-6.87,1.21-14.31,7.65-18.02c7.78-4.49,17.74-1.83,22.23,5.96
	c4.49,7.78,1.83,17.74-5.96,22.23c-6.43,3.71-14.34,2.53-19.43-2.39l-10.76,6.21l31.89,55.24l10.76-6.21
	c-1.71-6.87,1.21-14.31,7.65-18.02c7.78-4.49,17.74-1.83,22.23,5.96c4.49,7.78,1.83,17.74-5.96,22.23
	c-6.43,3.71-14.34,2.53-19.43-2.39l-10.76,6.21l31.89,55.24l10.76-6.21c-1.71-6.87,1.21-14.31,7.65-18.02
	c7.78-4.49,17.74-1.83,22.23,5.96c4.49,7.78,1.83,17.74-5.96,22.23c-6.43,3.71-14.34,2.53-19.43-2.39l-10.76,6.21l31.89,55.24
	l10.76-6.21c-1.71-6.87,1.21-14.31,7.65-18.02c7.78-4.49,17.74-1.83,22.23,5.96c4.49,7.78,1.83,17.74-5.96,22.23
	c-6.43,3.71-14.34,2.53-19.43-2.39l-10.76,6.21l26.66,46.17L456.32,844L291.06,557.73L56.8,692.98z"/>
<path class="st2" d="M72.95,659.44l17.08,46.93l11.68-4.25c-0.49-7.06,3.68-13.88,10.66-16.42c8.45-3.07,17.79,1.28,20.86,9.73
	c3.07,8.45-1.28,17.79-9.73,20.86c-6.98,2.54-14.56,0-18.72-5.73l-11.68,4.25l21.82,59.94l11.68-4.25
	c-0.49-7.06,3.68-13.88,10.66-16.42c8.45-3.07,17.79,1.28,20.86,9.73c3.07,8.45-1.28,17.79-9.73,20.86
	c-6.98,2.54-14.56,0-18.72-5.73l-11.68,4.25l21.82,59.94l11.68-4.25c-0.49-7.06,3.68-13.88,10.66-16.42
	c8.45-3.07,17.79,1.28,20.86,9.73c3.07,8.45-1.28,17.79-9.73,20.86c-6.98,2.54-14.56,0-18.72-5.73l-11.68,4.25l21.82,59.94
	l11.68-4.25c-0.49-7.06,3.68-13.88,10.66-16.42c8.45-3.07,17.79,1.28,20.86,9.73c3.07,8.45-1.28,17.79-9.73,20.86
	c-6.98,2.54-14.56,0-18.72-5.73l-11.68,4.25l18.23,50.1l254.18-92.52L327.13,566.92L72.95,659.44z"/>
<path class="st2" d="M94.68,629.21l8.67,49.19l12.24-2.16c0.74-7.04,6.03-13.03,13.35-14.32c8.85-1.56,17.29,4.35,18.85,13.2
	s-4.35,17.29-13.2,18.85c-7.32,1.29-14.34-2.53-17.44-8.89l-12.24,2.16l11.08,62.82l12.24-2.16c0.74-7.04,6.03-13.03,13.35-14.32
	c8.85-1.56,17.29,4.35,18.85,13.2c1.56,8.85-4.35,17.29-13.2,18.85c-7.32,1.29-14.34-2.53-17.44-8.89l-12.24,2.16l11.08,62.82
	l12.24-2.16c0.74-7.04,6.03-13.03,13.35-14.32c8.85-1.56,17.29,4.35,18.85,13.2c1.56,8.85-4.35,17.29-13.2,18.85
	c-7.32,1.29-14.34-2.53-17.44-8.89l-12.24,2.16l11.08,62.82l12.24-2.16c0.74-7.04,6.03-13.03,13.35-14.32
	c8.85-1.56,17.29,4.35,18.85,13.2c1.56,8.85-4.35,17.29-13.2,18.85c-7.32,1.29-14.34-2.53-17.44-8.89l-12.24,2.16l9.26,52.5
	l266.39-46.97l-57.4-325.52L94.68,629.21z"/>
<rect x="184.78" y="631.26" transform="matrix(0.9848 -0.1736 0.1736 0.9848 -109.9951 43.5149)" width="17.96" height="38.57"/>
<rect x="214.1" y="626.1" transform="matrix(0.9848 -0.1736 0.1736 0.9848 -108.6525 48.5264)" width="17.96" height="38.57"/>
<rect x="243.41" y="620.93" transform="matrix(0.9848 -0.1736 0.1736 0.9848 -107.3104 53.5362)" width="17.96" height="38.57"/>
<rect x="272.73" y="615.76" transform="matrix(0.9848 -0.1736 0.1736 0.9848 -105.9678 58.5477)" width="17.96" height="38.57"/>
<line class="st3" x1="174.35" y1="699.22" x2="342.68" y2="669.54"/>
<line class="st4" x1="179.43" y1="728.04" x2="347.76" y2="698.36"/>
<line class="st4" x1="181.95" y1="742.36" x2="350.28" y2="712.68"/>
<line class="st4" x1="184.48" y1="756.68" x2="352.81" y2="727"/>
<line class="st4" x1="187" y1="771" x2="355.33" y2="741.32"/>
<line class="st4" x1="189.53" y1="785.32" x2="357.86" y2="755.64"/>
<line class="st4" x1="192.05" y1="799.64" x2="360.38" y2="769.96"/>
<line class="st4" x1="194.58" y1="813.96" x2="362.91" y2="784.28"/>
<line class="st4" x1="197.1" y1="828.28" x2="365.43" y2="798.6"/>
<line class="st4" x1="199.63" y1="842.6" x2="367.96" y2="812.92"/>
<line class="st4" x1="202.15" y1="856.92" x2="370.48" y2="827.24"/>
<line class="st4" x1="204.68" y1="871.24" x2="373.01" y2="841.56"/>
<line class="st4" x1="207.2" y1="885.56" x2="315.93" y2="866.39"/>
<path class="st2" d="M46.73,1241.3l32.11,38.26l9.52-7.99c-2.88-6.46-1.29-14.3,4.4-19.08c6.89-5.78,17.15-4.88,22.93,2.01
	s4.88,17.15-2.01,22.93c-5.69,4.78-13.68,4.98-19.55,1.02l-9.52,7.99l41,48.87l9.52-7.99c-2.88-6.46-1.29-14.3,4.4-19.08
	c6.89-5.78,17.15-4.88,22.93,2.01s4.88,17.15-2.01,22.93c-5.69,4.78-13.68,4.98-19.55,1.02l-9.52,7.99l41,48.87l9.52-7.99
	c-2.88-6.46-1.29-14.3,4.4-19.08c6.89-5.78,17.15-4.88,22.93,2.01s4.88,17.15-2.01,22.93c-5.69,4.78-13.68,4.98-19.55,1.02
	l-9.52,7.99l41,48.87l9.52-7.99c-2.88-6.46-1.29-14.3,4.4-19.08c6.89-5.78,17.15-4.88,22.93,2.01s4.88,17.15-2.01,22.93
	c-5.69,4.78-13.68,4.98-19.55,1.02l-9.52,7.99l34.27,40.84l207.21-173.87l-212.47-253.21L46.73,1241.3z"/>
<path class="st2" d="M56.8,1205.47l24.97,43.26l10.76-6.21c-1.71-6.87,1.21-14.31,7.65-18.02c7.78-4.49,17.74-1.83,22.23,5.96
	c4.49,7.78,1.83,17.74-5.96,22.23c-6.43,3.71-14.34,2.53-19.43-2.39l-10.76,6.21l31.89,55.24l10.76-6.21
	c-1.71-6.87,1.21-14.31,7.65-18.02c7.78-4.49,17.74-1.83,22.23,5.96c4.49,7.78,1.83,17.74-5.96,22.23
	c-6.43,3.71-14.34,2.53-19.43-2.39l-10.76,6.21l31.89,55.24l10.76-6.21c-1.71-6.87,1.21-14.31,7.65-18.02
	c7.78-4.49,17.74-1.83,22.23,5.96c4.49,7.78,1.83,17.74-5.96,22.23c-6.43,3.71-14.34,2.53-19.43-2.39l-10.76,6.21l31.89,55.24
	l10.76-6.21c-1.71-6.87,1.21-14.31,7.65-18.02c7.78-4.49,17.74-1.83,22.23,5.96c4.49,7.78,1.83,17.74-5.96,22.23
	c-6.43,3.71-14.34,2.53-19.43-2.39l-10.76,6.21l26.66,46.17l234.26-135.25l-165.27-286.26L56.8,1205.47z"/>
<path class="st2" d="M72.95,1171.92l17.08,46.93l11.68-4.25c-0.49-7.06,3.68-13.88,10.66-16.42c8.45-3.07,17.79,1.28,20.86,9.73
	c3.07,8.45-1.28,17.79-9.73,20.86c-6.98,2.54-14.56,0-18.72-5.73l-11.68,4.25l21.82,59.94l11.68-4.25
	c-0.49-7.06,3.68-13.88,10.66-16.42c8.45-3.07,17.79,1.28,20.86,9.73s-1.28,17.79-9.73,20.86c-6.98,2.54-14.56,0-18.72-5.73
	l-11.68,4.25l21.82,59.94l11.68-4.25c-0.49-7.06,3.68-13.88,10.66-16.42c8.45-3.07,17.79,1.28,20.86,9.73
	c3.07,8.45-1.28,17.79-9.73,20.86c-6.98,2.54-14.56,0-18.72-5.73l-11.68,4.25L164.7,1424l11.68-4.25
	c-0.49-7.06,3.68-13.88,10.66-16.42c8.45-3.07,17.79,1.28,20.86,9.73c3.07,8.45-1.28,17.79-9.73,20.86
	c-6.98,2.54-14.56,0-18.72-5.73l-11.68,4.25l18.23,50.1l254.18-92.52l-113.05-310.61L72.95,1171.92z"/>
<path class="st2" d="M94.68,1141.7l8.67,49.19l12.24-2.16c0.74-7.04,6.03-13.03,13.35-14.32c8.85-1.56,17.29,4.35,18.85,13.2
	s-4.35,17.29-13.2,18.85c-7.32,1.29-14.34-2.53-17.44-8.89l-12.24,2.16l11.08,62.82l12.24-2.16c0.74-7.04,6.03-13.03,13.35-14.32
	c8.85-1.56,17.29,4.35,18.85,13.2s-4.35,17.29-13.2,18.85c-7.32,1.29-14.34-2.53-17.44-8.89l-12.24,2.16l11.08,62.82l12.24-2.16
	c0.74-7.04,6.03-13.03,13.35-14.32c8.85-1.56,17.29,4.35,18.85,13.2s-4.35,17.29-13.2,18.85c-7.32,1.29-14.34-2.53-17.44-8.89
	l-12.24,2.16l11.08,62.82l12.24-2.16c0.74-7.04,6.03-13.03,13.35-14.32c8.85-1.56,17.29,4.35,18.85,13.2s-4.35,17.29-13.2,18.85
	c-7.32,1.29-14.34-2.53-17.44-8.89l-12.24,2.16l9.26,52.5l266.39-46.97l-57.4-325.52L94.68,1141.7z"/>
<rect x="184.75" y="1143.74" transform="matrix(0.9848 -0.1736 0.1736 0.9848 -198.9628 51.2919)" width="17.96" height="38.57"/>
<rect x="214.07" y="1138.58" transform="matrix(0.9848 -0.1736 0.1736 0.9848 -197.6219 56.3039)" width="17.96" height="38.57"/>
<rect x="243.38" y="1133.41" transform="matrix(0.9848 -0.1736 0.1736 0.9848 -196.2797 61.3137)" width="17.96" height="38.57"/>
<rect x="272.7" y="1128.24" transform="matrix(0.9848 -0.1736 0.1736 0.9848 -194.9371 66.3252)" width="17.96" height="38.57"/>
<line class="st3" x1="174.35" y1="1211.71" x2="342.68" y2="1182.03"/>
<line class="st4" x1="179.43" y1="1240.53" x2="347.76" y2="1210.85"/>
<line class="st4" x1="181.95" y1="1254.85" x2="350.28" y2="1225.17"/>
<line class="st4" x1="184.48" y1="1269.17" x2="352.81" y2="1239.49"/>
<line class="st4" x1="187" y1="1283.49" x2="355.33" y2="1253.81"/>
<line class="st4" x1="189.53" y1="1297.81" x2="357.86" y2="1268.13"/>
<line class="st4" x1="192.05" y1="1312.13" x2="360.38" y2="1282.45"/>
<line class="st4" x1="194.58" y1="1326.45" x2="362.91" y2="1296.77"/>
<line class="st4" x1="197.1" y1="1340.77" x2="365.43" y2="1311.09"/>
<line class="st4" x1="199.63" y1="1355.09" x2="367.96" y2="1325.41"/>
<line class="st4" x1="202.15" y1="1369.41" x2="370.48" y2="1339.73"/>
<line class="st4" x1="204.68" y1="1383.73" x2="373.01" y2="1354.05"/>
<line class="st4" x1="207.2" y1="1398.05" x2="315.93" y2="1378.88"/>
<path class="st5" d="M46.73,1753.79l32.11,38.26l9.52-7.99c-2.88-6.46-1.29-14.3,4.4-19.08c6.89-5.78,17.15-4.88,22.93,2.01
	s4.88,17.15-2.01,22.93c-5.69,4.78-13.68,4.98-19.55,1.02l-9.52,7.99l41,48.87l9.52-7.99c-2.88-6.46-1.29-14.3,4.4-19.08
	c6.89-5.78,17.15-4.88,22.93,2.01s4.88,17.15-2.01,22.93c-5.69,4.78-13.68,4.98-19.55,1.02l-9.52,7.99l41,48.87l9.52-7.99
	c-2.88-6.46-1.29-14.3,4.4-19.08c6.89-5.78,17.15-4.88,22.93,2.01s4.88,17.15-2.01,22.93c-5.69,4.78-13.68,4.98-19.55,1.02
	l-9.52,7.99l41,48.87l9.52-7.99c-2.88-6.46-1.29-14.3,4.4-19.08c6.89-5.78,17.15-4.88,22.93,2.01s4.88,17.15-2.01,22.93
	c-5.69,4.78-13.68,4.98-19.55,1.02l-9.52,7.99L259.2,2007l207.21-173.87l-212.47-253.21L46.73,1753.79z"/>
<path class="st5" d="M56.8,1717.95l24.97,43.26l10.76-6.21c-1.71-6.87,1.21-14.31,7.65-18.02c7.78-4.49,17.74-1.83,22.23,5.96
	c4.49,7.78,1.83,17.74-5.96,22.23c-6.43,3.71-14.34,2.53-19.43-2.39l-10.76,6.21l31.89,55.24l10.76-6.21
	c-1.71-6.87,1.21-14.31,7.65-18.02c7.78-4.49,17.74-1.83,22.23,5.96c4.49,7.78,1.83,17.74-5.96,22.23
	c-6.43,3.71-14.34,2.53-19.43-2.39l-10.76,6.21l31.89,55.24l10.76-6.21c-1.71-6.87,1.21-14.31,7.65-18.02
	c7.78-4.49,17.74-1.83,22.23,5.96c4.49,7.78,1.83,17.74-5.96,22.23c-6.43,3.71-14.34,2.53-19.43-2.39l-10.76,6.21l31.89,55.24
	l10.76-6.21c-1.71-6.87,1.21-14.31,7.65-18.02c7.78-4.49,17.74-1.83,22.23,5.96c4.49,7.78,1.83,17.74-5.96,22.23
	c-6.43,3.71-14.34,2.53-19.43-2.39l-10.76,6.21l26.66,46.17l234.26-135.25L291.06,1582.7L56.8,1717.95z"/>
<path class="st5" d="M72.95,1684.41l17.08,46.93l11.68-4.25c-0.49-7.06,3.68-13.88,10.66-16.42c8.45-3.07,17.79,1.28,20.86,9.73
	c3.07,8.45-1.28,17.79-9.73,20.86c-6.98,2.54-14.56,0-18.72-5.73l-11.68,4.25l21.82,59.94l11.68-4.25
	c-0.49-7.06,3.68-13.88,10.66-16.42c8.45-3.07,17.79,1.28,20.86,9.73s-1.28,17.79-9.73,20.86c-6.98,2.54-14.56,0-18.72-5.73
	l-11.68,4.25l21.82,59.94l11.68-4.25c-0.49-7.06,3.68-13.88,10.66-16.42c8.45-3.07,17.79,1.28,20.86,9.73
	c3.07,8.45-1.28,17.79-9.73,20.86c-6.98,2.54-14.56,0-18.72-5.73l-11.68,4.25l21.82,59.94l11.68-4.25
	c-0.49-7.06,3.68-13.88,10.66-16.42c8.45-3.07,17.79,1.28,20.86,9.73c3.07,8.45-1.28,17.79-9.73,20.86
	c-6.98,2.54-14.56,0-18.72-5.73l-11.68,4.25l18.23,50.1l254.18-92.52l-113.05-310.61L72.95,1684.41z"/>
<path class="st5" d="M94.68,1654.18l8.67,49.19l12.24-2.16c0.74-7.04,6.03-13.03,13.35-14.32c8.85-1.56,17.29,4.35,18.85,13.2
	s-4.35,17.29-13.2,18.85c-7.32,1.29-14.34-2.53-17.44-8.89l-12.24,2.16l11.08,62.82l12.24-2.16c0.74-7.04,6.03-13.03,13.35-14.32
	c8.85-1.56,17.29,4.35,18.85,13.2s-4.35,17.29-13.2,18.85c-7.32,1.29-14.34-2.53-17.44-8.89l-12.24,2.16l11.08,62.82l12.24-2.16
	c0.74-7.04,6.03-13.03,13.35-14.32c8.85-1.56,17.29,4.35,18.85,13.2s-4.35,17.29-13.2,18.85c-7.32,1.29-14.34-2.53-17.44-8.89
	l-12.24,2.16l11.08,62.82l12.24-2.16c0.74-7.04,6.03-13.03,13.35-14.32c8.85-1.56,17.29,4.35,18.85,13.2s-4.35,17.29-13.2,18.85
	c-7.32,1.29-14.34-2.53-17.44-8.89l-12.24,2.16l9.26,52.5l266.39-46.97l-57.4-325.52L94.68,1654.18z"/>
<rect x="184.73" y="1656.23" transform="matrix(0.9848 -0.1736 0.1736 0.9848 -287.9322 59.0695)" class="st6" width="17.96" height="38.57"/>
<rect x="214.05" y="1651.06" transform="matrix(0.9848 -0.1736 0.1736 0.9848 -286.5895 64.081)" class="st6" width="17.96" height="38.57"/>
<rect x="243.36" y="1645.89" transform="matrix(0.9848 -0.1736 0.1736 0.9848 -285.2474 69.0908)" class="st6" width="17.96" height="38.57"/>
<rect x="272.68" y="1640.72" transform="matrix(0.9848 -0.1736 0.1736 0.9848 -283.9048 74.1023)" class="st6" width="17.96" height="38.57"/>
<line class="st7" x1="174.35" y1="1724.19" x2="342.68" y2="1694.51"/>
<line class="st8" x1="179.43" y1="1753.01" x2="347.76" y2="1723.33"/>
<line class="st8" x1="181.95" y1="1767.33" x2="350.28" y2="1737.65"/>
<line class="st8" x1="184.48" y1="1781.65" x2="352.81" y2="1751.97"/>
<line class="st8" x1="187" y1="1795.97" x2="355.33" y2="1766.29"/>
<line class="st8" x1="189.53" y1="1810.29" x2="357.86" y2="1780.61"/>
<line class="st8" x1="192.05" y1="1824.61" x2="360.38" y2="1794.93"/>
<line class="st8" x1="194.58" y1="1838.93" x2="362.91" y2="1809.25"/>
<line class="st8" x1="197.1" y1="1853.26" x2="365.43" y2="1823.57"/>
<line class="st8" x1="199.63" y1="1867.58" x2="367.96" y2="1837.89"/>
<line class="st8" x1="202.15" y1="1881.9" x2="370.48" y2="1852.21"/>
<line class="st8" x1="204.68" y1="1896.22" x2="373.01" y2="1866.53"/>
<line class="st8" x1="207.2" y1="1910.54" x2="315.93" y2="1891.36"/>
<g>
	<polygon class="st9" points="195.48,276.71 199.98,243.22 264.7,306.41 231.05,311.83 	"/>
	<path class="st9" d="M313.76,66.44c-69.03,0-124.98,55.96-124.98,124.98c0,69.03,55.96,124.98,124.98,124.98
		c69.03,0,124.98-55.96,124.98-124.98C438.74,122.39,382.78,66.44,313.76,66.44z M313.76,297.65
		c-58.67,0-106.23-47.56-106.23-106.23S255.08,85.19,313.76,85.19s106.23,47.56,106.23,106.23S372.43,297.65,313.76,297.65z"/>
	
		<linearGradient id="SVGID_1_" gradientUnits="userSpaceOnUse" x1="238.6376" y1="1931.697" x2="388.8738" y2="1781.4608" gradientTransform="matrix(1 0 0 -1 0 2048)">
		<stop  offset="0" style="stop-color:#A0C8EB"/>
		<stop  offset="1" style="stop-color:#DEF0F5"/>
	</linearGradient>
	<circle class="st10" cx="313.76" cy="191.42" r="106.23"/>
	<path class="st11" d="M231.12,195.2c0-47.38,38.41-85.79,85.79-85.79c23.97,0,45.63,9.83,61.2,25.67
		c-15.92-22.74-42.31-37.61-72.17-37.61c-48.62,0-88.04,39.42-88.04,88.04c0,33.81,19.07,63.17,47.03,77.92
		C244.39,247.76,231.12,223.02,231.12,195.2z"/>
	
		<ellipse transform="matrix(0.6163 -0.7875 0.7875 0.6163 -10.7553 250.7122)" class="st12" cx="251.91" cy="136.39" rx="28.84" ry="19.93"/>
	
		<linearGradient id="SVGID_00000169524132817094094340000003945060356394059684_" gradientUnits="userSpaceOnUse" x1="538.7377" y1="-618.7304" x2="538.7377" y2="-669.436" gradientTransform="matrix(0.7025 -0.7117 0.7117 0.7025 225.8139 1197.9044)">
		<stop  offset="0" style="stop-color:#818085"/>
		<stop  offset="1" style="stop-color:#FFFFFF"/>
	</linearGradient>
	
		<polygon style="fill:url(#SVGID_00000169524132817094094340000003945060356394059684_);stroke:#010202;stroke-miterlimit:10;" points="
		231.05,311.83 96.29,447.32 60.72,412.21 195.48,276.71 	"/>
	<path class="st14" d="M401.52,103c22.91,22.65,37.12,54.11,37.12,88.87c0,69.03-55.95,124.98-124.98,124.98
		c-17.41,0-33.99-3.56-49.05-10l0,0l-33.66,5.42L96.53,447.41l8.13,8.03l134.76-135.49l33.66-5.42l0,0c15.06,6.43,31.64,10,49.05,10
		c69.03,0,124.98-55.95,124.98-124.98C447.13,160.66,429.36,125.93,401.52,103z"/>
</g>
<g>
	<polygon class="st9" points="195.48,789.19 199.98,755.7 264.7,818.89 231.05,824.31 	"/>
	<path class="st9" d="M313.76,578.92c-69.03,0-124.98,55.96-124.98,124.98c0,69.03,55.96,124.98,124.98,124.98
		c69.03,0,124.98-55.96,124.98-124.98C438.74,634.87,382.78,578.92,313.76,578.92z M313.76,810.13
		c-58.67,0-106.23-47.56-106.23-106.23s47.56-106.23,106.23-106.23s106.23,47.56,106.23,106.23S372.43,810.13,313.76,810.13z"/>
	
		<linearGradient id="SVGID_00000123413666965281339780000017607667469896243355_" gradientUnits="userSpaceOnUse" x1="238.6376" y1="1419.2169" x2="388.8738" y2="1268.9807" gradientTransform="matrix(1 0 0 -1 0 2048)">
		<stop  offset="0" style="stop-color:#A0C8EB"/>
		<stop  offset="1" style="stop-color:#DEF0F5"/>
	</linearGradient>
	
		<circle style="opacity:0.5;fill:url(#SVGID_00000123413666965281339780000017607667469896243355_);" cx="313.76" cy="703.9" r="106.23"/>
	<path class="st11" d="M231.12,707.68c0-47.38,38.41-85.79,85.79-85.79c23.97,0,45.63,9.83,61.2,25.67
		c-15.92-22.74-42.31-37.61-72.17-37.61c-48.62,0-88.04,39.42-88.04,88.04c0,33.81,19.07,63.17,47.03,77.92
		C244.39,760.24,231.12,735.5,231.12,707.68z"/>
	
		<ellipse transform="matrix(0.6163 -0.7875 0.7875 0.6163 -414.337 447.3479)" class="st12" cx="251.91" cy="648.87" rx="28.84" ry="19.93"/>
	
		<linearGradient id="SVGID_00000038377076456946001740000003515862829677024685_" gradientUnits="userSpaceOnUse" x1="174.014" y1="-258.7215" x2="174.014" y2="-309.4271" gradientTransform="matrix(0.7025 -0.7117 0.7117 0.7025 225.8139 1197.9044)">
		<stop  offset="0" style="stop-color:#818085"/>
		<stop  offset="1" style="stop-color:#FFFFFF"/>
	</linearGradient>
	
		<polygon style="fill:url(#SVGID_00000038377076456946001740000003515862829677024685_);stroke:#010202;stroke-miterlimit:10;" points="
		231.05,824.31 96.29,959.8 60.72,924.69 195.48,789.19 	"/>
	<path class="st14" d="M401.52,615.48c22.91,22.65,37.12,54.11,37.12,88.87c0,69.03-55.95,124.98-124.98,124.98
		c-17.41,0-33.99-3.56-49.05-10l0,0l-33.66,5.42L96.53,959.89l8.13,8.03l134.76-135.49l33.66-5.42l0,0c15.06,6.43,31.64,10,49.05,10
		c69.03,0,124.98-55.95,124.98-124.98C447.13,673.14,429.36,638.41,401.52,615.48z"/>
</g>
<g>
	<polygon class="st9" points="195.5,1301.68 200,1268.19 264.73,1331.38 231.07,1336.8 	"/>
	<path class="st9" d="M313.78,1091.41c-69.03,0-124.98,55.96-124.98,124.98c0,69.03,55.96,124.98,124.98,124.98
		c69.03,0,124.98-55.96,124.98-124.98C438.76,1147.36,382.81,1091.41,313.78,1091.41z M313.78,1322.62
		c-58.67,0-106.23-47.56-106.23-106.23s47.56-106.23,106.23-106.23s106.23,47.56,106.23,106.23S372.45,1322.62,313.78,1322.62z"/>
	
		<linearGradient id="SVGID_00000115482115051607896330000010729219758803713693_" gradientUnits="userSpaceOnUse" x1="238.6606" y1="906.7269" x2="388.8968" y2="756.4907" gradientTransform="matrix(1 0 0 -1 0 2048)">
		<stop  offset="0" style="stop-color:#A0C8EB"/>
		<stop  offset="1" style="stop-color:#DEF0F5"/>
	</linearGradient>
	
		<circle style="opacity:0.5;fill:url(#SVGID_00000115482115051607896330000010729219758803713693_);" cx="313.78" cy="1216.39" r="106.23"/>
	<path class="st11" d="M231.15,1220.17c0-47.38,38.41-85.79,85.79-85.79c23.97,0,45.63,9.83,61.2,25.67
		c-15.92-22.74-42.31-37.61-72.17-37.61c-48.62,0-88.04,39.42-88.04,88.04c0,33.81,19.07,63.17,47.03,77.92
		C244.41,1272.73,231.15,1247.99,231.15,1220.17z"/>
	
		<ellipse transform="matrix(0.6163 -0.7875 0.7875 0.6163 -817.9177 644.0056)" class="st12" cx="251.93" cy="1161.36" rx="28.84" ry="19.93"/>
	
		<linearGradient id="SVGID_00000006690064058809167170000005074152863927763898_" gradientUnits="userSpaceOnUse" x1="-190.7006" y1="101.3108" x2="-190.7006" y2="50.6052" gradientTransform="matrix(0.7025 -0.7117 0.7117 0.7025 225.8139 1197.9044)">
		<stop  offset="0" style="stop-color:#818085"/>
		<stop  offset="1" style="stop-color:#FFFFFF"/>
	</linearGradient>
	
		<polygon style="fill:url(#SVGID_00000006690064058809167170000005074152863927763898_);stroke:#010202;stroke-miterlimit:10;" points="
		231.07,1336.8 96.31,1472.29 60.74,1437.18 195.5,1301.68 	"/>
	<path class="st14" d="M401.54,1127.97c22.91,22.65,37.12,54.11,37.12,88.87c0,69.03-55.95,124.98-124.98,124.98
		c-17.41,0-33.99-3.56-49.05-10l0,0l-33.66,5.42L96.56,1472.38l8.13,8.03l134.76-135.49l33.66-5.42l0,0
		c15.06,6.44,31.64,10,49.05,10c69.03,0,124.98-55.95,124.98-124.98C447.15,1185.63,429.39,1150.9,401.54,1127.97z"/>
</g>
<g>
	<polygon class="st19" points="195.48,1814.17 199.98,1780.68 264.7,1843.87 231.05,1849.29 	"/>
	<path class="st19" d="M313.76,1603.9c-69.03,0-124.98,55.96-124.98,124.98c0,69.03,55.96,124.98,124.98,124.98
		c69.03,0,124.98-55.96,124.98-124.98C438.74,1659.85,382.78,1603.9,313.76,1603.9z M313.76,1835.11
		c-58.67,0-106.23-47.56-106.23-106.23s47.56-106.23,106.23-106.23s106.23,47.56,106.23,106.23S372.43,1835.11,313.76,1835.11z"/>
	
		<linearGradient id="SVGID_00000123423527575806941540000001255668777568163725_" gradientUnits="userSpaceOnUse" x1="238.6376" y1="394.2368" x2="388.8738" y2="244.0006" gradientTransform="matrix(1 0 0 -1 0 2048)">
		<stop  offset="0" style="stop-color:#C0C0C0"/>
		<stop  offset="1" style="stop-color:#EBEBEB"/>
	</linearGradient>
	
		<circle style="opacity:0.5;fill:url(#SVGID_00000123423527575806941540000001255668777568163725_);" cx="313.76" cy="1728.88" r="106.23"/>
	<path class="st11" d="M231.12,1732.66c0-47.38,38.41-85.79,85.79-85.79c23.97,0,45.63,9.83,61.2,25.67
		c-15.92-22.74-42.31-37.61-72.17-37.61c-48.62,0-88.04,39.42-88.04,88.04c0,33.81,19.07,63.17,47.03,77.92
		C244.39,1785.22,231.12,1760.48,231.12,1732.66z"/>
	
		<ellipse transform="matrix(0.6163 -0.7875 0.7875 0.6163 -1221.516 840.627)" class="st12" cx="251.91" cy="1673.85" rx="28.84" ry="19.93"/>
	
		<linearGradient id="SVGID_00000031194621679578017040000000445395763898840730_" gradientUnits="userSpaceOnUse" x1="-555.4475" y1="461.3104" x2="-555.4475" y2="410.6048" gradientTransform="matrix(0.7025 -0.7117 0.7117 0.7025 225.8139 1197.9044)">
		<stop  offset="0" style="stop-color:#818181"/>
		<stop  offset="1" style="stop-color:#FFFFFF"/>
	</linearGradient>
	
		<polygon style="fill:url(#SVGID_00000031194621679578017040000000445395763898840730_);stroke:#020202;stroke-miterlimit:10;" points="
		231.05,1849.29 96.29,1984.78 60.72,1949.67 195.48,1814.17 	"/>
	<path class="st22" d="M401.52,1640.46c22.91,22.65,37.12,54.11,37.12,88.87c0,69.03-55.95,124.98-124.98,124.98
		c-17.41,0-33.99-3.56-49.05-10l0,0l-33.66,5.42L96.53,1984.87l8.13,8.03l134.76-135.49l33.66-5.42l0,0
		c15.06,6.43,31.64,10,49.05,10c69.03,0,124.98-55.95,124.98-124.98C447.13,1698.12,429.36,1663.39,401.52,1640.46z"/>
</g>
</svg>
