<?xml version="1.0" encoding="utf-8"?>
<!-- Generator: Adobe Illustrator 27.0.1, SVG Export Plug-In . SVG Version: 6.00 Build 0)  -->
<svg version="1.1" id="Calque_1" xmlns="http://www.w3.org/2000/svg" xmlns:xlink="http://www.w3.org/1999/xlink" x="0px" y="0px"
	 viewBox="0 0 512 2048" style="enable-background:new 0 0 512 2048;" xml:space="preserve">
<style type="text/css">
	.st0{fill:none;}
	.st1{fill:#72B452;}
	.st2{fill:#F6F6F6;}
	.st3{fill:#B4B4B4;}
	.st4{fill:#F6F6F6;stroke:#020203;stroke-width:2;stroke-miterlimit:10;}
	.st5{fill:url(#SVGID_1_);}
	.st6{opacity:0.8;fill:#676766;stroke:#DADADA;stroke-miterlimit:10;}
	.st7{fill:none;stroke:#020203;stroke-width:4;stroke-miterlimit:10;}
	.st8{opacity:0.5;fill:none;stroke:#DADADA;stroke-width:4;stroke-miterlimit:10;}
	.st9{opacity:0.5;fill:none;stroke:#A2A19F;stroke-width:10;stroke-miterlimit:10;}
	.st10{fill:url(#SVGID_00000041275822234428092370000015756532097588807592_);}
	.st11{fill:#EDC6A5;}
	.st12{fill:url(#SVGID_00000035524656887355850620000004688853806691706809_);}
	.st13{fill:url(#SVGID_00000174592158193234126720000006169497760969496963_);}
	.st14{fill:url(#SVGID_00000039828940763381074530000009138848380924039864_);}
	.st15{fill:url(#SVGID_00000030482843603889814530000014436168407564475526_);}
	.st16{fill:#F6F6F6;stroke:#000000;stroke-width:2;stroke-miterlimit:10;}
	.st17{fill:url(#SVGID_00000088847724616613036080000000619183917412578183_);}
	.st18{opacity:0.8;fill:#303030;stroke:#CCCCCC;stroke-miterlimit:10;}
	.st19{fill:none;stroke:#000000;stroke-width:4;stroke-miterlimit:10;}
	.st20{opacity:0.5;fill:none;stroke:#CCCCCC;stroke-width:4;stroke-miterlimit:10;}
	.st21{opacity:0.5;fill:none;stroke:#959595;stroke-width:10;stroke-miterlimit:10;}
	.st22{fill:url(#SVGID_00000170988034527391700160000018319487763604120470_);}
	.st23{fill:#C7C7C7;}
</style>
<pattern  width="245.42" height="100.06" patternUnits="userSpaceOnUse" id="pyjama" viewBox="0 -100.06 245.42 100.06" style="overflow:visible;">
	<g>
		<rect x="0" y="-100.06" class="st0" width="245.42" height="100.06"/>
		<g>
			<rect x="0" y="-10.25" class="st1" width="245.42" height="10.25"/>
			<rect x="0" y="-20.01" class="st2" width="245.42" height="9.96"/>
		</g>
		<g>
			<rect x="0" y="-30.26" class="st1" width="245.42" height="10.25"/>
			<rect x="0" y="-40.02" class="st2" width="245.42" height="9.96"/>
		</g>
		<g>
			<rect x="0" y="-50.27" class="st1" width="245.42" height="10.25"/>
			<rect x="0" y="-60.04" class="st2" width="245.42" height="9.96"/>
		</g>
		<g>
			<rect x="0" y="-70.28" class="st1" width="245.42" height="10.25"/>
			<rect x="0" y="-80.05" class="st2" width="245.42" height="9.96"/>
		</g>
		<g>
			<rect x="0" y="-90.3" class="st1" width="245.42" height="10.25"/>
			<rect x="0" y="-100.06" class="st2" width="245.42" height="9.96"/>
		</g>
	</g>
</pattern>
<pattern  width="245.42" height="100.06" patternUnits="userSpaceOnUse" id="pyjama_2" viewBox="0 -100.06 245.42 100.06" style="overflow:visible;">
	<g>
		<rect x="0" y="-100.06" class="st0" width="245.42" height="100.06"/>
		<g>
			<rect x="0" y="-10.25" class="st3" width="245.42" height="10.25"/>
			<rect x="0" y="-20.01" class="st2" width="245.42" height="9.96"/>
		</g>
		<g>
			<rect x="0" y="-30.26" class="st3" width="245.42" height="10.25"/>
			<rect x="0" y="-40.02" class="st2" width="245.42" height="9.96"/>
		</g>
		<g>
			<rect x="0" y="-50.27" class="st3" width="245.42" height="10.25"/>
			<rect x="0" y="-60.04" class="st2" width="245.42" height="9.96"/>
		</g>
		<g>
			<rect x="0" y="-70.28" class="st3" width="245.42" height="10.25"/>
			<rect x="0" y="-80.05" class="st2" width="245.42" height="9.96"/>
		</g>
		<g>
			<rect x="0" y="-90.3" class="st3" width="245.42" height="10.25"/>
			<rect x="0" y="-100.06" class="st2" width="245.42" height="9.96"/>
		</g>
	</g>
</pattern>
<g>
	<path class="st4" d="M66.35,120.05l137.88,364.8l259.71-98.16L326.06,21.89L66.35,120.05z M210.47,471.83
		c-2.36,0.89-5-0.3-5.89-2.66c-0.89-2.36,0.3-5,2.66-5.89c2.36-0.89,5,0.3,5.89,2.66C214.02,468.3,212.83,470.94,210.47,471.83z
		 M194.5,429.56c-2.36,0.89-5-0.3-5.89-2.66c-0.89-2.36,0.3-5,2.66-5.89c2.36-0.89,5,0.3,5.89,2.66
		C198.05,426.03,196.86,428.67,194.5,429.56z M178.52,387.29c-2.36,0.89-5-0.3-5.89-2.66c-0.89-2.36,0.3-5,2.66-5.89
		c2.36-0.89,5,0.3,5.89,2.66C182.07,383.76,180.88,386.4,178.52,387.29z M162.55,345.03c-2.36,0.89-5-0.3-5.89-2.66
		c-0.89-2.36,0.3-5,2.66-5.89c2.36-0.89,5,0.3,5.89,2.66C166.1,341.5,164.91,344.13,162.55,345.03z M146.57,302.76
		c-2.36,0.89-5-0.3-5.89-2.66c-0.89-2.36,0.3-5,2.66-5.89c2.36-0.89,5,0.3,5.89,2.66C150.12,299.23,148.93,301.87,146.57,302.76z
		 M130.6,260.49c-2.36,0.89-5-0.3-5.89-2.66c-0.89-2.36,0.3-5,2.66-5.89c2.36-0.89,5,0.3,5.89,2.66
		C134.15,256.96,132.96,259.6,130.6,260.49z M114.62,218.22c-2.36,0.89-5-0.3-5.89-2.66c-0.89-2.36,0.3-5,2.66-5.89
		c2.36-0.89,5,0.3,5.89,2.66C118.17,214.69,116.98,217.33,114.62,218.22z M98.64,175.96c-2.36,0.89-5-0.3-5.89-2.66
		c-0.89-2.36,0.3-5,2.66-5.89c2.36-0.89,5,0.3,5.89,2.66C102.2,172.43,101.01,175.06,98.64,175.96z M82.67,133.69
		c-2.36,0.89-5-0.3-5.89-2.66c-0.89-2.36,0.3-5,2.66-5.89c2.36-0.89,5,0.3,5.89,2.66C86.22,130.16,85.03,132.8,82.67,133.69z
		 M447.24,381.37c-2.36,0.89-5-0.3-5.89-2.66c-0.89-2.36,0.3-5,2.66-5.89c2.36-0.89,5,0.3,5.89,2.66
		C450.8,377.84,449.61,380.48,447.24,381.37z M431.27,339.1c-2.36,0.89-5-0.3-5.89-2.66c-0.89-2.36,0.3-5,2.66-5.89
		c2.36-0.89,5,0.3,5.89,2.66C434.82,335.57,433.63,338.21,431.27,339.1z M415.29,296.83c-2.36,0.89-5-0.3-5.89-2.66
		c-0.89-2.36,0.3-5,2.66-5.89c2.36-0.89,5,0.3,5.89,2.66C418.84,293.31,417.65,295.94,415.29,296.83z M399.32,254.57
		c-2.36,0.89-5-0.3-5.89-2.66c-0.89-2.36,0.3-5,2.66-5.89c2.36-0.89,5,0.3,5.89,2.66C402.87,251.04,401.68,253.68,399.32,254.57z
		 M383.34,212.3c-2.36,0.89-5-0.3-5.89-2.66c-0.89-2.36,0.3-5,2.66-5.89c2.36-0.89,5,0.3,5.89,2.66
		C386.89,208.77,385.7,211.41,383.34,212.3z M367.37,170.03c-2.36,0.89-5-0.3-5.89-2.66c-0.89-2.36,0.3-5,2.66-5.89
		c2.36-0.89,5,0.3,5.89,2.66C370.92,166.5,369.73,169.14,367.37,170.03z M351.39,127.77c-2.36,0.89-5-0.3-5.89-2.66
		c-0.89-2.36,0.3-5,2.66-5.89c2.36-0.89,5,0.3,5.89,2.66C354.94,124.24,353.75,126.87,351.39,127.77z M335.42,85.5
		c-2.36,0.89-5-0.3-5.89-2.66c-0.89-2.36,0.3-5,2.66-5.89c2.36-0.89,5,0.3,5.89,2.66C338.97,81.97,337.78,84.61,335.42,85.5z
		 M319.44,43.23c-2.36,0.89-5-0.3-5.89-2.66c-0.89-2.36,0.3-5,2.66-5.89c2.36-0.89,5,0.3,5.89,2.66
		C322.99,39.7,321.8,42.34,319.44,43.23z"/>
	<pattern  id="SVGID_1_" xlink:href="#pyjama" patternTransform="matrix(0.857 -0.3239 0.3192 0.8446 220.75 -3055.1519)">
	</pattern>
	<polygon class="st5" points="437.18,393.46 230.27,471.67 94.39,112.16 301.3,33.96 	"/>
</g>
<path class="st6" d="M38.25,345.52L353.5,440.7l95.18-315.24L38.25,345.52z M317.8,386.6l-156.03-47.11l203.14-108.92L317.8,386.6z"
	/>
<line class="st7" x1="340.03" y1="420.57" x2="335.58" y2="435.3"/>
<line class="st7" x1="321.29" y1="414.91" x2="316.84" y2="429.64"/>
<line class="st7" x1="302.54" y1="409.25" x2="298.09" y2="423.98"/>
<line class="st7" x1="283.79" y1="403.59" x2="279.35" y2="418.32"/>
<line class="st7" x1="265.05" y1="397.93" x2="260.6" y2="412.66"/>
<line class="st7" x1="246.3" y1="392.27" x2="241.86" y2="407"/>
<line class="st7" x1="227.56" y1="386.61" x2="223.11" y2="401.34"/>
<line class="st7" x1="208.81" y1="380.95" x2="204.37" y2="395.68"/>
<line class="st7" x1="190.07" y1="375.29" x2="185.62" y2="390.02"/>
<line class="st7" x1="171.32" y1="369.63" x2="166.87" y2="384.36"/>
<line class="st7" x1="152.58" y1="363.97" x2="148.13" y2="378.7"/>
<line class="st7" x1="133.83" y1="358.31" x2="129.38" y2="373.04"/>
<line class="st7" x1="115.08" y1="352.65" x2="110.64" y2="367.38"/>
<line class="st7" x1="96.34" y1="346.99" x2="91.89" y2="361.72"/>
<line class="st7" x1="77.59" y1="341.33" x2="73.15" y2="356.06"/>
<polyline class="st8" points="162.77,342.49 318.8,389.6 368.06,227.47 "/>
<line class="st8" x1="444.26" y1="129.95" x2="44.65" y2="344.22"/>
<polygon class="st9" points="244.98,225.65 72.84,53.52 38.28,88.08 210.42,260.21 257.63,272.86 "/>
<linearGradient id="SVGID_00000084492267669994727640000013081442258920395679_" gradientUnits="userSpaceOnUse" x1="305.6326" y1="326.297" x2="334.1582" y2="432.7558" gradientTransform="matrix(0.7071 0.7071 -0.7071 0.7071 180.0892 -345.4054)">
	<stop  offset="5.391270e-04" style="stop-color:#BEE2EF"/>
	<stop  offset="1" style="stop-color:#005D96"/>
</linearGradient>
<polygon style="fill:url(#SVGID_00000084492267669994727640000013081442258920395679_);" points="206.71,252.51 34.58,80.38 
	69.14,45.82 241.27,217.95 "/>
<polygon class="st11" points="253.92,265.16 241.27,217.95 206.71,252.51 "/>
<polygon points="251.12,254.7 243.46,262.35 253.92,265.16 "/>
<g>
	<path class="st4" d="M66.35,631.7l137.88,364.8l259.71-98.16l-137.88-364.8L66.35,631.7z M210.47,983.48
		c-2.36,0.89-5-0.3-5.89-2.66s0.3-5,2.66-5.89c2.36-0.89,5,0.3,5.89,2.66C214.02,979.95,212.83,982.58,210.47,983.48z M194.5,941.21
		c-2.36,0.89-5-0.3-5.89-2.66c-0.89-2.36,0.3-5,2.66-5.89c2.36-0.89,5,0.3,5.89,2.66C198.05,937.68,196.86,940.32,194.5,941.21z
		 M178.52,898.94c-2.36,0.89-5-0.3-5.89-2.66c-0.89-2.36,0.3-5,2.66-5.89c2.36-0.89,5,0.3,5.89,2.66
		C182.07,895.41,180.88,898.05,178.52,898.94z M162.55,856.67c-2.36,0.89-5-0.3-5.89-2.66c-0.89-2.36,0.3-5,2.66-5.89
		c2.36-0.89,5,0.3,5.89,2.66C166.1,853.14,164.91,855.78,162.55,856.67z M146.57,814.41c-2.36,0.89-5-0.3-5.89-2.66
		c-0.89-2.36,0.3-5,2.66-5.89c2.36-0.89,5,0.3,5.89,2.66C150.12,810.88,148.93,813.51,146.57,814.41z M130.6,772.14
		c-2.36,0.89-5-0.3-5.89-2.66c-0.89-2.36,0.3-5,2.66-5.89c2.36-0.89,5,0.3,5.89,2.66C134.15,768.61,132.96,771.25,130.6,772.14z
		 M114.62,729.87c-2.36,0.89-5-0.3-5.89-2.66c-0.89-2.36,0.3-5,2.66-5.89c2.36-0.89,5,0.3,5.89,2.66
		C118.17,726.34,116.98,728.98,114.62,729.87z M98.64,687.6c-2.36,0.89-5-0.3-5.89-2.66c-0.89-2.36,0.3-5,2.66-5.89
		c2.36-0.89,5,0.3,5.89,2.66C102.2,684.07,101.01,686.71,98.64,687.6z M82.67,645.34c-2.36,0.89-5-0.3-5.89-2.66
		c-0.89-2.36,0.3-5,2.66-5.89c2.36-0.89,5,0.3,5.89,2.66C86.22,641.81,85.03,644.44,82.67,645.34z M447.24,893.02
		c-2.36,0.89-5-0.3-5.89-2.66c-0.89-2.36,0.3-5,2.66-5.89c2.36-0.89,5,0.3,5.89,2.66C450.8,889.49,449.61,892.12,447.24,893.02z
		 M431.27,850.75c-2.36,0.89-5-0.3-5.89-2.66s0.3-5,2.66-5.89c2.36-0.89,5,0.3,5.89,2.66C434.82,847.22,433.63,849.86,431.27,850.75
		z M415.29,808.48c-2.36,0.89-5-0.3-5.89-2.66c-0.89-2.36,0.3-5,2.66-5.89c2.36-0.89,5,0.3,5.89,2.66
		C418.84,804.95,417.65,807.59,415.29,808.48z M399.32,766.22c-2.36,0.89-5-0.3-5.89-2.66c-0.89-2.36,0.3-5,2.66-5.89
		c2.36-0.89,5,0.3,5.89,2.66C402.87,762.69,401.68,765.32,399.32,766.22z M383.34,723.95c-2.36,0.89-5-0.3-5.89-2.66
		c-0.89-2.36,0.3-5,2.66-5.89c2.36-0.89,5,0.3,5.89,2.66C386.89,720.42,385.7,723.06,383.34,723.95z M367.37,681.68
		c-2.36,0.89-5-0.3-5.89-2.66c-0.89-2.36,0.3-5,2.66-5.89c2.36-0.89,5,0.3,5.89,2.66S369.73,680.79,367.37,681.68z M351.39,639.41
		c-2.36,0.89-5-0.3-5.89-2.66c-0.89-2.36,0.3-5,2.66-5.89c2.36-0.89,5,0.3,5.89,2.66C354.94,635.88,353.75,638.52,351.39,639.41z
		 M335.42,597.15c-2.36,0.89-5-0.3-5.89-2.66s0.3-5,2.66-5.89c2.36-0.89,5,0.3,5.89,2.66C338.97,593.62,337.78,596.25,335.42,597.15
		z M319.44,554.88c-2.36,0.89-5-0.3-5.89-2.66c-0.89-2.36,0.3-5,2.66-5.89c2.36-0.89,5,0.3,5.89,2.66
		C322.99,551.35,321.8,553.99,319.44,554.88z"/>
	
		<pattern  id="SVGID_00000090268528202826705930000014829552039518587810_" xlink:href="#pyjama" patternTransform="matrix(0.857 -0.3239 0.3192 0.8446 61.042 -2966.0554)">
	</pattern>
	<polygon style="fill:url(#SVGID_00000090268528202826705930000014829552039518587810_);" points="437.18,905.11 230.27,983.32 
		94.39,623.81 301.3,545.61 	"/>
</g>
<path class="st6" d="M38.25,857.17l315.24,95.18l95.18-315.24L38.25,857.17z M317.8,898.24l-156.03-47.11l203.14-108.92
	L317.8,898.24z"/>
<line class="st7" x1="340.03" y1="932.22" x2="335.58" y2="946.94"/>
<line class="st7" x1="321.29" y1="926.56" x2="316.84" y2="941.28"/>
<line class="st7" x1="302.54" y1="920.9" x2="298.09" y2="935.62"/>
<line class="st7" x1="283.79" y1="915.24" x2="279.35" y2="929.96"/>
<line class="st7" x1="265.05" y1="909.58" x2="260.6" y2="924.3"/>
<line class="st7" x1="246.3" y1="903.92" x2="241.86" y2="918.64"/>
<line class="st7" x1="227.56" y1="898.26" x2="223.11" y2="912.98"/>
<line class="st7" x1="208.81" y1="892.6" x2="204.37" y2="907.32"/>
<line class="st7" x1="190.07" y1="886.94" x2="185.62" y2="901.66"/>
<line class="st7" x1="171.32" y1="881.28" x2="166.87" y2="896.01"/>
<line class="st7" x1="152.58" y1="875.62" x2="148.13" y2="890.35"/>
<line class="st7" x1="133.83" y1="869.96" x2="129.38" y2="884.69"/>
<line class="st7" x1="115.08" y1="864.3" x2="110.64" y2="879.03"/>
<line class="st7" x1="96.34" y1="858.64" x2="91.89" y2="873.37"/>
<line class="st7" x1="77.59" y1="852.98" x2="73.15" y2="867.71"/>
<polyline class="st8" points="162.77,854.13 318.8,901.24 368.06,739.11 "/>
<line class="st8" x1="444.26" y1="641.6" x2="44.65" y2="855.86"/>
<polygon class="st9" points="244.98,737.3 72.84,565.17 38.28,599.73 210.42,771.86 257.63,784.51 "/>
<linearGradient id="SVGID_00000109024598260196888000000002898256605572465084_" gradientUnits="userSpaceOnUse" x1="667.4222" y1="688.0866" x2="695.9478" y2="794.5453" gradientTransform="matrix(0.7071 0.7071 -0.7071 0.7071 180.0892 -345.4054)">
	<stop  offset="0" style="stop-color:#FED908"/>
	<stop  offset="1" style="stop-color:#BE8110"/>
</linearGradient>
<polygon style="fill:url(#SVGID_00000109024598260196888000000002898256605572465084_);" points="206.71,764.15 34.58,592.02 
	69.14,557.46 241.27,729.59 "/>
<polygon class="st11" points="253.92,776.8 241.27,729.59 206.71,764.15 "/>
<polygon points="251.12,766.35 243.46,774 253.92,776.8 "/>
<g>
	<path class="st4" d="M66.35,1144.27l137.88,364.8l259.71-98.16l-137.88-364.8L66.35,1144.27z M210.47,1496.04
		c-2.36,0.89-5-0.3-5.89-2.66s0.3-5,2.66-5.89c2.36-0.89,5,0.3,5.89,2.66C214.02,1492.51,212.83,1495.15,210.47,1496.04z
		 M194.5,1453.78c-2.36,0.89-5-0.3-5.89-2.66c-0.89-2.36,0.3-5,2.66-5.89c2.36-0.89,5,0.3,5.89,2.66
		C198.05,1450.25,196.86,1452.88,194.5,1453.78z M178.52,1411.51c-2.36,0.89-5-0.3-5.89-2.66c-0.89-2.36,0.3-5,2.66-5.89
		c2.36-0.89,5,0.3,5.89,2.66C182.07,1407.98,180.88,1410.62,178.52,1411.51z M162.55,1369.24c-2.36,0.89-5-0.3-5.89-2.66
		c-0.89-2.36,0.3-5,2.66-5.89c2.36-0.89,5,0.3,5.89,2.66C166.1,1365.71,164.91,1368.35,162.55,1369.24z M146.57,1326.97
		c-2.36,0.89-5-0.3-5.89-2.66c-0.89-2.36,0.3-5,2.66-5.89c2.36-0.89,5,0.3,5.89,2.66C150.12,1323.44,148.93,1326.08,146.57,1326.97z
		 M130.6,1284.71c-2.36,0.89-5-0.3-5.89-2.66c-0.89-2.36,0.3-5,2.66-5.89c2.36-0.89,5,0.3,5.89,2.66
		C134.15,1281.18,132.96,1283.82,130.6,1284.71z M114.62,1242.44c-2.36,0.89-5-0.3-5.89-2.66c-0.89-2.36,0.3-5,2.66-5.89
		c2.36-0.89,5,0.3,5.89,2.66C118.17,1238.91,116.98,1241.55,114.62,1242.44z M98.64,1200.17c-2.36,0.89-5-0.3-5.89-2.66
		c-0.89-2.36,0.3-5,2.66-5.89c2.36-0.89,5,0.3,5.89,2.66C102.2,1196.64,101.01,1199.28,98.64,1200.17z M82.67,1157.91
		c-2.36,0.89-5-0.3-5.89-2.66c-0.89-2.36,0.3-5,2.66-5.89c2.36-0.89,5,0.3,5.89,2.66C86.22,1154.38,85.03,1157.01,82.67,1157.91z
		 M447.24,1405.59c-2.36,0.89-5-0.3-5.89-2.66s0.3-5,2.66-5.89c2.36-0.89,5,0.3,5.89,2.66
		C450.8,1402.06,449.61,1404.69,447.24,1405.59z M431.27,1363.32c-2.36,0.89-5-0.3-5.89-2.66s0.3-5,2.66-5.89
		c2.36-0.89,5,0.3,5.89,2.66C434.82,1359.79,433.63,1362.43,431.27,1363.32z M415.29,1321.05c-2.36,0.89-5-0.3-5.89-2.66
		c-0.89-2.36,0.3-5,2.66-5.89c2.36-0.89,5,0.3,5.89,2.66C418.84,1317.52,417.65,1320.16,415.29,1321.05z M399.32,1278.78
		c-2.36,0.89-5-0.3-5.89-2.66c-0.89-2.36,0.3-5,2.66-5.89c2.36-0.89,5,0.3,5.89,2.66C402.87,1275.25,401.68,1277.89,399.32,1278.78z
		 M383.34,1236.52c-2.36,0.89-5-0.3-5.89-2.66c-0.89-2.36,0.3-5,2.66-5.89c2.36-0.89,5,0.3,5.89,2.66
		C386.89,1232.99,385.7,1235.62,383.34,1236.52z M367.37,1194.25c-2.36,0.89-5-0.3-5.89-2.66c-0.89-2.36,0.3-5,2.66-5.89
		c2.36-0.89,5,0.3,5.89,2.66C370.92,1190.72,369.73,1193.36,367.37,1194.25z M351.39,1151.98c-2.36,0.89-5-0.3-5.89-2.66
		c-0.89-2.36,0.3-5,2.66-5.89c2.36-0.89,5,0.3,5.89,2.66C354.94,1148.45,353.75,1151.09,351.39,1151.98z M335.42,1109.71
		c-2.36,0.89-5-0.3-5.89-2.66c-0.89-2.36,0.3-5,2.66-5.89c2.36-0.89,5,0.3,5.89,2.66C338.97,1106.18,337.78,1108.82,335.42,1109.71z
		 M319.44,1067.45c-2.36,0.89-5-0.3-5.89-2.66c-0.89-2.36,0.3-5,2.66-5.89c2.36-0.89,5,0.3,5.89,2.66
		C322.99,1063.92,321.8,1066.55,319.44,1067.45z"/>
	
		<pattern  id="SVGID_00000169533211027278728600000017457483959953510047_" xlink:href="#pyjama" patternTransform="matrix(0.857 -0.3239 0.3192 0.8446 143.6061 -2871.0249)">
	</pattern>
	<polygon style="fill:url(#SVGID_00000169533211027278728600000017457483959953510047_);" points="437.18,1417.68 230.27,1495.89 
		94.39,1136.38 301.3,1058.17 	"/>
</g>
<path class="st6" d="M38.25,1369.74l315.24,95.18l95.18-315.24L38.25,1369.74z M317.8,1410.81l-156.03-47.11l203.14-108.92
	L317.8,1410.81z"/>
<line class="st7" x1="340.03" y1="1444.78" x2="335.58" y2="1459.51"/>
<line class="st7" x1="321.29" y1="1439.12" x2="316.84" y2="1453.85"/>
<line class="st7" x1="302.54" y1="1433.46" x2="298.09" y2="1448.19"/>
<line class="st7" x1="283.79" y1="1427.8" x2="279.35" y2="1442.53"/>
<line class="st7" x1="265.05" y1="1422.15" x2="260.6" y2="1436.87"/>
<line class="st7" x1="246.3" y1="1416.49" x2="241.86" y2="1431.21"/>
<line class="st7" x1="227.56" y1="1410.83" x2="223.11" y2="1425.55"/>
<line class="st7" x1="208.81" y1="1405.17" x2="204.37" y2="1419.89"/>
<line class="st7" x1="190.07" y1="1399.51" x2="185.62" y2="1414.23"/>
<line class="st7" x1="171.32" y1="1393.85" x2="166.87" y2="1408.57"/>
<line class="st7" x1="152.58" y1="1388.19" x2="148.13" y2="1402.91"/>
<line class="st7" x1="133.83" y1="1382.53" x2="129.38" y2="1397.25"/>
<line class="st7" x1="115.08" y1="1376.87" x2="110.64" y2="1391.59"/>
<line class="st7" x1="96.34" y1="1371.21" x2="91.89" y2="1385.93"/>
<line class="st7" x1="77.59" y1="1365.55" x2="73.15" y2="1380.27"/>
<polyline class="st8" points="162.77,1366.7 318.8,1413.81 368.06,1251.68 "/>
<line class="st8" x1="444.26" y1="1154.16" x2="44.65" y2="1368.43"/>
<polygon class="st9" points="244.98,1249.87 72.84,1077.74 38.28,1112.3 210.42,1284.43 257.63,1297.08 "/>
<linearGradient id="SVGID_00000182486363908764255140000012635665632623524244_" gradientUnits="userSpaceOnUse" x1="1029.8628" y1="1050.5272" x2="1058.3884" y2="1156.986" gradientTransform="matrix(0.7071 0.7071 -0.7071 0.7071 180.0892 -345.4054)">
	<stop  offset="0" style="stop-color:#9CCA86"/>
	<stop  offset="1" style="stop-color:#388F36"/>
</linearGradient>
<polygon style="fill:url(#SVGID_00000182486363908764255140000012635665632623524244_);" points="206.71,1276.72 34.58,1104.59 
	69.14,1070.03 241.27,1242.16 "/>
<polygon class="st11" points="253.92,1289.37 241.27,1242.16 206.71,1276.72 "/>
<polygon points="251.12,1278.92 243.46,1286.57 253.92,1289.37 "/>
<g>
	<path class="st16" d="M66.35,1657.31l137.88,364.8l259.71-98.16l-137.88-364.8L66.35,1657.31z M210.47,2009.08
		c-2.36,0.89-5-0.3-5.89-2.66s0.3-5,2.66-5.89c2.36-0.89,5,0.3,5.89,2.66C214.02,2005.55,212.83,2008.19,210.47,2009.08z
		 M194.5,1966.82c-2.36,0.89-5-0.3-5.89-2.66c-0.89-2.36,0.3-5,2.66-5.89c2.36-0.89,5,0.3,5.89,2.66
		C198.05,1963.29,196.86,1965.92,194.5,1966.82z M178.52,1924.55c-2.36,0.89-5-0.3-5.89-2.66c-0.89-2.36,0.3-5,2.66-5.89
		c2.36-0.89,5,0.3,5.89,2.66C182.07,1921.02,180.88,1923.66,178.52,1924.55z M162.55,1882.28c-2.36,0.89-5-0.3-5.89-2.66
		c-0.89-2.36,0.3-5,2.66-5.89c2.36-0.89,5,0.3,5.89,2.66C166.1,1878.75,164.91,1881.39,162.55,1882.28z M146.57,1840.01
		c-2.36,0.89-5-0.3-5.89-2.66c-0.89-2.36,0.3-5,2.66-5.89c2.36-0.89,5,0.3,5.89,2.66C150.12,1836.48,148.93,1839.12,146.57,1840.01z
		 M130.6,1797.75c-2.36,0.89-5-0.3-5.89-2.66c-0.89-2.36,0.3-5,2.66-5.89c2.36-0.89,5,0.3,5.89,2.66
		C134.15,1794.22,132.96,1796.85,130.6,1797.75z M114.62,1755.48c-2.36,0.89-5-0.3-5.89-2.66c-0.89-2.36,0.3-5,2.66-5.89
		c2.36-0.89,5,0.3,5.89,2.66C118.17,1751.95,116.98,1754.59,114.62,1755.48z M98.64,1713.21c-2.36,0.89-5-0.3-5.89-2.66
		c-0.89-2.36,0.3-5,2.66-5.89c2.36-0.89,5,0.3,5.89,2.66C102.2,1709.68,101.01,1712.32,98.64,1713.21z M82.67,1670.94
		c-2.36,0.89-5-0.3-5.89-2.66c-0.89-2.36,0.3-5,2.66-5.89c2.36-0.89,5,0.3,5.89,2.66C86.22,1667.42,85.03,1670.05,82.67,1670.94z
		 M447.24,1918.63c-2.36,0.89-5-0.3-5.89-2.66s0.3-5,2.66-5.89c2.36-0.89,5,0.3,5.89,2.66
		C450.8,1915.1,449.61,1917.73,447.24,1918.63z M431.27,1876.36c-2.36,0.89-5-0.3-5.89-2.66s0.3-5,2.66-5.89
		c2.36-0.89,5,0.3,5.89,2.66C434.82,1872.83,433.63,1875.47,431.27,1876.36z M415.29,1834.09c-2.36,0.89-5-0.3-5.89-2.66
		c-0.89-2.36,0.3-5,2.66-5.89c2.36-0.89,5,0.3,5.89,2.66C418.84,1830.56,417.65,1833.2,415.29,1834.09z M399.32,1791.82
		c-2.36,0.89-5-0.3-5.89-2.66c-0.89-2.36,0.3-5,2.66-5.89c2.36-0.89,5,0.3,5.89,2.66C402.87,1788.29,401.68,1790.93,399.32,1791.82z
		 M383.34,1749.56c-2.36,0.89-5-0.3-5.89-2.66c-0.89-2.36,0.3-5,2.66-5.89c2.36-0.89,5,0.3,5.89,2.66
		C386.89,1746.03,385.7,1748.66,383.34,1749.56z M367.37,1707.29c-2.36,0.89-5-0.3-5.89-2.66c-0.89-2.36,0.3-5,2.66-5.89
		c2.36-0.89,5,0.3,5.89,2.66C370.92,1703.76,369.73,1706.4,367.37,1707.29z M351.39,1665.02c-2.36,0.89-5-0.3-5.89-2.66
		c-0.89-2.36,0.3-5,2.66-5.89c2.36-0.89,5,0.3,5.89,2.66C354.94,1661.49,353.75,1664.13,351.39,1665.02z M335.42,1622.75
		c-2.36,0.89-5-0.3-5.89-2.66c-0.89-2.36,0.3-5,2.66-5.89c2.36-0.89,5,0.3,5.89,2.66C338.97,1619.22,337.78,1621.86,335.42,1622.75z
		 M319.44,1580.49c-2.36,0.89-5-0.3-5.89-2.66c-0.89-2.36,0.3-5,2.66-5.89c2.36-0.89,5,0.3,5.89,2.66
		C322.99,1576.96,321.8,1579.59,319.44,1580.49z"/>
	
		<pattern  id="SVGID_00000114047178297644072960000003594579510401638280_" xlink:href="#pyjama_2" patternTransform="matrix(0.857 -0.3239 0.3192 0.8446 -16.1018 -2780.5366)">
	</pattern>
	<polygon style="fill:url(#SVGID_00000114047178297644072960000003594579510401638280_);" points="437.18,1930.72 230.27,2008.92 
		94.39,1649.42 301.3,1571.21 	"/>
</g>
<path class="st18" d="M38.25,1882.78l315.24,95.18l95.18-315.24L38.25,1882.78z M317.8,1923.85l-156.03-47.11l203.14-108.92
	L317.8,1923.85z"/>
<line class="st19" x1="340.03" y1="1957.82" x2="335.58" y2="1972.55"/>
<line class="st19" x1="321.29" y1="1952.16" x2="316.84" y2="1966.89"/>
<line class="st19" x1="302.54" y1="1946.5" x2="298.09" y2="1961.23"/>
<line class="st19" x1="283.79" y1="1940.84" x2="279.35" y2="1955.57"/>
<line class="st19" x1="265.05" y1="1935.18" x2="260.6" y2="1949.91"/>
<line class="st19" x1="246.3" y1="1929.52" x2="241.86" y2="1944.25"/>
<line class="st19" x1="227.56" y1="1923.87" x2="223.11" y2="1938.59"/>
<line class="st19" x1="208.81" y1="1918.21" x2="204.37" y2="1932.93"/>
<line class="st19" x1="190.07" y1="1912.55" x2="185.62" y2="1927.27"/>
<line class="st19" x1="171.32" y1="1906.89" x2="166.87" y2="1921.61"/>
<line class="st19" x1="152.58" y1="1901.23" x2="148.13" y2="1915.95"/>
<line class="st19" x1="133.83" y1="1895.57" x2="129.38" y2="1910.29"/>
<line class="st19" x1="115.08" y1="1889.91" x2="110.64" y2="1904.63"/>
<line class="st19" x1="96.34" y1="1884.25" x2="91.89" y2="1898.97"/>
<line class="st19" x1="77.59" y1="1878.59" x2="73.15" y2="1893.31"/>
<polyline class="st20" points="162.77,1879.74 318.8,1926.85 368.06,1764.72 "/>
<line class="st20" x1="444.26" y1="1667.2" x2="44.65" y2="1881.47"/>
<polygon class="st21" points="244.98,1762.91 72.84,1590.78 38.28,1625.34 210.42,1797.47 257.63,1810.12 "/>
<linearGradient id="SVGID_00000072986041665781332350000006483662587264427398_" gradientUnits="userSpaceOnUse" x1="1392.6366" y1="1413.301" x2="1421.1621" y2="1519.7598" gradientTransform="matrix(0.7071 0.7071 -0.7071 0.7071 180.0892 -345.4054)">
	<stop  offset="5.391270e-04" style="stop-color:#E6E6E6"/>
	<stop  offset="1" style="stop-color:#505050"/>
</linearGradient>
<polygon style="fill:url(#SVGID_00000072986041665781332350000006483662587264427398_);" points="206.71,1789.76 34.58,1617.63 
	69.14,1583.07 241.27,1755.2 "/>
<polygon class="st23" points="253.92,1802.41 241.27,1755.2 206.71,1789.76 "/>
<polygon points="251.12,1791.96 243.46,1799.61 253.92,1802.41 "/>
</svg>
