<?xml version="1.0" encoding="utf-8"?>
<!-- Generator: Adobe Illustrator 27.0.1, SVG Export Plug-In . SVG Version: 6.00 Build 0)  -->
<svg version="1.1" id="Calque_1" xmlns="http://www.w3.org/2000/svg" xmlns:xlink="http://www.w3.org/1999/xlink" x="0px" y="0px"
	 viewBox="0 0 512 2048" style="enable-background:new 0 0 512 2048;" xml:space="preserve">
<style type="text/css">
	.st0{fill:#E8E8E6;stroke:#000000;stroke-width:4;stroke-miterlimit:10;}
	.st1{fill:none;stroke:#000000;stroke-width:16;stroke-miterlimit:10;}
	.st2{fill:none;stroke:#000000;stroke-width:4;stroke-miterlimit:10;}
	.st3{fill:#E8E8E8;stroke:#A2A19F;stroke-width:4;stroke-miterlimit:10;}
	.st4{fill:#A2A19F;}
	.st5{fill:none;stroke:#A2A19F;stroke-width:16;stroke-miterlimit:10;}
	.st6{fill:none;stroke:#A2A19F;stroke-width:4;stroke-miterlimit:10;}
	.st7{fill:none;stroke:#F39208;stroke-width:40;stroke-miterlimit:10;}
	.st8{fill:none;stroke:#3EB2E6;stroke-width:40;stroke-linecap:round;stroke-miterlimit:10;}
</style>
<path class="st0" d="M46.73,216.33l32.11,38.26l9.52-7.99c-2.88-6.46-1.29-14.3,4.4-19.08c6.89-5.78,17.15-4.88,22.93,2.01
	s4.88,17.15-2.01,22.93c-5.69,4.78-13.68,4.98-19.55,1.02l-9.52,7.99l41,48.87l9.52-7.99c-2.88-6.46-1.29-14.3,4.4-19.08
	c6.89-5.78,17.15-4.88,22.93,2.01s4.88,17.15-2.01,22.93c-5.69,4.78-13.68,4.98-19.55,1.02l-9.52,7.99l41,48.87l9.52-7.99
	c-2.88-6.46-1.29-14.3,4.4-19.08c6.89-5.78,17.15-4.88,22.93,2.01s4.88,17.15-2.01,22.93c-5.69,4.78-13.68,4.98-19.55,1.02
	l-9.52,7.99l41,48.87l9.52-7.99c-2.88-6.46-1.29-14.3,4.4-19.08c6.89-5.78,17.15-4.88,22.93,2.01s4.88,17.15-2.01,22.93
	c-5.69,4.78-13.68,4.98-19.55,1.02l-9.52,7.99l34.27,40.84L466.4,295.69L253.94,42.46L46.73,216.33z"/>
<path class="st0" d="M56.8,180.49l24.97,43.26l10.76-6.21c-1.71-6.87,1.21-14.31,7.65-18.02c7.78-4.49,17.74-1.83,22.23,5.96
	c4.49,7.78,1.83,17.74-5.96,22.23c-6.43,3.71-14.34,2.53-19.43-2.39l-10.76,6.21l31.89,55.24l10.76-6.21
	c-1.71-6.87,1.21-14.31,7.65-18.02c7.78-4.49,17.74-1.83,22.23,5.96c4.49,7.78,1.83,17.74-5.96,22.23
	c-6.43,3.71-14.34,2.53-19.43-2.39l-10.76,6.21l31.89,55.24l10.76-6.21c-1.71-6.87,1.21-14.31,7.65-18.02
	c7.78-4.49,17.74-1.83,22.23,5.96c4.49,7.78,1.83,17.74-5.96,22.23c-6.43,3.71-14.34,2.53-19.43-2.39l-10.76,6.21l31.89,55.24
	l10.76-6.21c-1.71-6.87,1.21-14.31,7.65-18.02c7.78-4.49,17.74-1.83,22.23,5.96c4.49,7.78,1.83,17.74-5.96,22.23
	c-6.43,3.71-14.34,2.53-19.43-2.39l-10.76,6.21l26.66,46.17l234.26-135.25L291.06,45.25L56.8,180.49z"/>
<path class="st0" d="M72.95,146.95l17.08,46.93l11.68-4.25c-0.49-7.06,3.68-13.88,10.66-16.42c8.45-3.07,17.79,1.28,20.86,9.73
	c3.07,8.45-1.28,17.79-9.73,20.86c-6.98,2.54-14.56,0-18.72-5.73l-11.68,4.25l21.82,59.94l11.68-4.25
	c-0.49-7.06,3.68-13.88,10.66-16.42c8.45-3.07,17.79,1.28,20.86,9.73c3.07,8.45-1.28,17.79-9.73,20.86
	c-6.98,2.54-14.56,0-18.72-5.73l-11.68,4.25l21.82,59.94l11.68-4.25c-0.49-7.06,3.68-13.88,10.66-16.42
	c8.45-3.07,17.79,1.28,20.86,9.73c3.07,8.45-1.28,17.79-9.73,20.86c-6.98,2.54-14.56,0-18.72-5.73l-11.68,4.25l21.82,59.94
	l11.68-4.25c-0.49-7.06,3.68-13.88,10.66-16.42c8.45-3.07,17.79,1.28,20.86,9.73c3.07,8.45-1.28,17.79-9.73,20.86
	c-6.98,2.54-14.56,0-18.72-5.73l-11.68,4.25l18.23,50.1l254.18-92.52L327.13,54.44L72.95,146.95z"/>
<path class="st0" d="M121.32,90.72l0,49.95l12.43,0c1.95-6.8,8.2-11.78,15.63-11.78c8.99,0,16.27,7.29,16.27,16.27
	c0,8.99-7.29,16.27-16.27,16.27c-7.43,0-13.68-4.98-15.63-11.78l-12.43,0l0,63.79l12.43,0c1.95-6.8,8.2-11.78,15.63-11.78
	c8.99,0,16.27,7.29,16.27,16.27c0,8.99-7.29,16.27-16.27,16.27c-7.43,0-13.68-4.98-15.63-11.78l-12.43,0l0,63.79l12.43,0
	c1.95-6.8,8.2-11.78,15.63-11.78c8.99,0,16.27,7.29,16.27,16.27s-7.29,16.27-16.27,16.27c-7.43,0-13.68-4.98-15.63-11.78l-12.43,0
	l0,63.79l12.43,0c1.95-6.8,8.2-11.78,15.63-11.78c8.99,0,16.27,7.29,16.27,16.27s-7.29,16.27-16.27,16.27
	c-7.43,0-13.68-4.98-15.63-11.78l-12.43,0l0,53.31l270.5,0l0-330.54L121.32,90.72z"/>
<rect x="206.23" y="109.67" width="17.96" height="38.57"/>
<rect x="236" y="109.67" width="17.96" height="38.57"/>
<rect x="265.77" y="109.67" width="17.96" height="38.57"/>
<rect x="295.54" y="109.68" width="17.96" height="38.57"/>
<line class="st1" x1="187.62" y1="173.51" x2="358.55" y2="173.51"/>
<line class="st2" x1="187.62" y1="202.78" x2="358.55" y2="202.77"/>
<line class="st2" x1="187.62" y1="217.32" x2="358.55" y2="217.31"/>
<line class="st2" x1="187.62" y1="231.86" x2="358.55" y2="231.85"/>
<line class="st2" x1="187.62" y1="246.4" x2="358.55" y2="246.39"/>
<line class="st2" x1="187.62" y1="260.94" x2="358.55" y2="260.94"/>
<line class="st2" x1="187.62" y1="275.48" x2="358.54" y2="275.48"/>
<line class="st2" x1="187.62" y1="290.02" x2="358.55" y2="290.02"/>
<line class="st2" x1="187.62" y1="304.56" x2="358.54" y2="304.56"/>
<line class="st2" x1="187.62" y1="319.1" x2="358.55" y2="319.11"/>
<line class="st2" x1="187.62" y1="333.64" x2="358.54" y2="333.65"/>
<line class="st2" x1="187.62" y1="348.19" x2="358.55" y2="348.19"/>
<line class="st2" x1="187.62" y1="362.73" x2="298.02" y2="362.73"/>
<path class="st0" d="M46.73,728.82l32.11,38.26l9.52-7.99c-2.88-6.46-1.29-14.3,4.4-19.08c6.89-5.78,17.15-4.88,22.93,2.01
	s4.88,17.15-2.01,22.93c-5.69,4.78-13.68,4.98-19.55,1.02l-9.52,7.99l41,48.87l9.52-7.99c-2.88-6.46-1.29-14.3,4.4-19.08
	c6.89-5.78,17.15-4.88,22.93,2.01s4.88,17.15-2.01,22.93c-5.69,4.78-13.68,4.98-19.55,1.02l-9.52,7.99l41,48.87l9.52-7.99
	c-2.88-6.46-1.29-14.3,4.4-19.08c6.89-5.78,17.15-4.88,22.93,2.01s4.88,17.15-2.01,22.93c-5.69,4.78-13.68,4.98-19.55,1.02
	l-9.52,7.99l41,48.87l9.52-7.99c-2.88-6.46-1.29-14.3,4.4-19.08c6.89-5.78,17.15-4.88,22.93,2.01s4.88,17.15-2.01,22.93
	c-5.69,4.78-13.68,4.98-19.55,1.02l-9.52,7.99l34.27,40.84L466.4,808.18L253.94,554.94L46.73,728.82z"/>
<path class="st0" d="M56.8,692.98l24.97,43.26l10.76-6.21c-1.71-6.87,1.21-14.31,7.65-18.02c7.78-4.49,17.74-1.83,22.23,5.96
	c4.49,7.78,1.83,17.74-5.96,22.23c-6.43,3.71-14.34,2.53-19.43-2.39l-10.76,6.21l31.89,55.24l10.76-6.21
	c-1.71-6.87,1.21-14.31,7.65-18.02c7.78-4.49,17.74-1.83,22.23,5.96c4.49,7.78,1.83,17.74-5.96,22.23
	c-6.43,3.71-14.34,2.53-19.43-2.39l-10.76,6.21l31.89,55.24l10.76-6.21c-1.71-6.87,1.21-14.31,7.65-18.02
	c7.78-4.49,17.74-1.83,22.23,5.96c4.49,7.78,1.83,17.74-5.96,22.23c-6.43,3.71-14.34,2.53-19.43-2.39l-10.76,6.21l31.89,55.24
	l10.76-6.21c-1.71-6.87,1.21-14.31,7.65-18.02c7.78-4.49,17.74-1.83,22.23,5.96c4.49,7.78,1.83,17.74-5.96,22.23
	c-6.43,3.71-14.34,2.53-19.43-2.39l-10.76,6.21l26.66,46.17L456.32,844L291.06,557.73L56.8,692.98z"/>
<path class="st0" d="M72.95,659.44l17.08,46.93l11.68-4.25c-0.49-7.06,3.68-13.88,10.66-16.42c8.45-3.07,17.79,1.28,20.86,9.73
	c3.07,8.45-1.28,17.79-9.73,20.86c-6.98,2.54-14.56,0-18.72-5.73l-11.68,4.25l21.82,59.94l11.68-4.25
	c-0.49-7.06,3.68-13.88,10.66-16.42c8.45-3.07,17.79,1.28,20.86,9.73c3.07,8.45-1.28,17.79-9.73,20.86
	c-6.98,2.54-14.56,0-18.72-5.73l-11.68,4.25l21.82,59.94l11.68-4.25c-0.49-7.06,3.68-13.88,10.66-16.42
	c8.45-3.07,17.79,1.28,20.86,9.73c3.07,8.45-1.28,17.79-9.73,20.86c-6.98,2.54-14.56,0-18.72-5.73l-11.68,4.25l21.82,59.94
	l11.68-4.25c-0.49-7.06,3.68-13.88,10.66-16.42c8.45-3.07,17.79,1.28,20.86,9.73c3.07,8.45-1.28,17.79-9.73,20.86
	c-6.98,2.54-14.56,0-18.72-5.73l-11.68,4.25l18.23,50.1l254.18-92.52L327.13,566.92L72.95,659.44z"/>
<path class="st0" d="M46.73,1241.3l32.11,38.26l9.52-7.99c-2.88-6.46-1.29-14.3,4.4-19.08c6.89-5.78,17.15-4.88,22.93,2.01
	s4.88,17.15-2.01,22.93c-5.69,4.78-13.68,4.98-19.55,1.02l-9.52,7.99l41,48.87l9.52-7.99c-2.88-6.46-1.29-14.3,4.4-19.08
	c6.89-5.78,17.15-4.88,22.93,2.01s4.88,17.15-2.01,22.93c-5.69,4.78-13.68,4.98-19.55,1.02l-9.52,7.99l41,48.87l9.52-7.99
	c-2.88-6.46-1.29-14.3,4.4-19.08c6.89-5.78,17.15-4.88,22.93,2.01s4.88,17.15-2.01,22.93c-5.69,4.78-13.68,4.98-19.55,1.02
	l-9.52,7.99l41,48.87l9.52-7.99c-2.88-6.46-1.29-14.3,4.4-19.08c6.89-5.78,17.15-4.88,22.93,2.01s4.88,17.15-2.01,22.93
	c-5.69,4.78-13.68,4.98-19.55,1.02l-9.52,7.99l34.27,40.84l207.21-173.87l-212.47-253.21L46.73,1241.3z"/>
<path class="st0" d="M56.8,1205.47l24.97,43.26l10.76-6.21c-1.71-6.87,1.21-14.31,7.65-18.02c7.78-4.49,17.74-1.83,22.23,5.96
	c4.49,7.78,1.83,17.74-5.96,22.23c-6.43,3.71-14.34,2.53-19.43-2.39l-10.76,6.21l31.89,55.24l10.76-6.21
	c-1.71-6.87,1.21-14.31,7.65-18.02c7.78-4.49,17.74-1.83,22.23,5.96c4.49,7.78,1.83,17.74-5.96,22.23
	c-6.43,3.71-14.34,2.53-19.43-2.39l-10.76,6.21l31.89,55.24l10.76-6.21c-1.71-6.87,1.21-14.31,7.65-18.02
	c7.78-4.49,17.74-1.83,22.23,5.96c4.49,7.78,1.83,17.74-5.96,22.23c-6.43,3.71-14.34,2.53-19.43-2.39l-10.76,6.21l31.89,55.24
	l10.76-6.21c-1.71-6.87,1.21-14.31,7.65-18.02c7.78-4.49,17.74-1.83,22.23,5.96c4.49,7.78,1.83,17.74-5.96,22.23
	c-6.43,3.71-14.34,2.53-19.43-2.39l-10.76,6.21l26.66,46.17l234.26-135.25l-165.27-286.26L56.8,1205.47z"/>
<path class="st0" d="M72.95,1171.92l17.08,46.93l11.68-4.25c-0.49-7.06,3.68-13.88,10.66-16.42c8.45-3.07,17.79,1.28,20.86,9.73
	c3.07,8.45-1.28,17.79-9.73,20.86c-6.98,2.54-14.56,0-18.72-5.73l-11.68,4.25l21.82,59.94l11.68-4.25
	c-0.49-7.06,3.68-13.88,10.66-16.42c8.45-3.07,17.79,1.28,20.86,9.73s-1.28,17.79-9.73,20.86c-6.98,2.54-14.56,0-18.72-5.73
	l-11.68,4.25l21.82,59.94l11.68-4.25c-0.49-7.06,3.68-13.88,10.66-16.42c8.45-3.07,17.79,1.28,20.86,9.73
	c3.07,8.45-1.28,17.79-9.73,20.86c-6.98,2.54-14.56,0-18.72-5.73l-11.68,4.25L164.7,1424l11.68-4.25
	c-0.49-7.06,3.68-13.88,10.66-16.42c8.45-3.07,17.79,1.28,20.86,9.73c3.07,8.45-1.28,17.79-9.73,20.86
	c-6.98,2.54-14.56,0-18.72-5.73l-11.68,4.25l18.23,50.1l254.18-92.52l-113.05-310.61L72.95,1171.92z"/>
<path class="st3" d="M46.73,1753.79l32.11,38.26l9.52-7.99c-2.88-6.46-1.29-14.3,4.4-19.08c6.89-5.78,17.15-4.88,22.93,2.01
	s4.88,17.15-2.01,22.93c-5.69,4.78-13.68,4.98-19.55,1.02l-9.52,7.99l41,48.87l9.52-7.99c-2.88-6.46-1.29-14.3,4.4-19.08
	c6.89-5.78,17.15-4.88,22.93,2.01s4.88,17.15-2.01,22.93c-5.69,4.78-13.68,4.98-19.55,1.02l-9.52,7.99l41,48.87l9.52-7.99
	c-2.88-6.46-1.29-14.3,4.4-19.08c6.89-5.78,17.15-4.88,22.93,2.01s4.88,17.15-2.01,22.93c-5.69,4.78-13.68,4.98-19.55,1.02
	l-9.52,7.99l41,48.87l9.52-7.99c-2.88-6.46-1.29-14.3,4.4-19.08c6.89-5.78,17.15-4.88,22.93,2.01s4.88,17.15-2.01,22.93
	c-5.69,4.78-13.68,4.98-19.55,1.02l-9.52,7.99L259.2,2007l207.21-173.87l-212.47-253.21L46.73,1753.79z"/>
<path class="st3" d="M56.8,1717.95l24.97,43.26l10.76-6.21c-1.71-6.87,1.21-14.31,7.65-18.02c7.78-4.49,17.74-1.83,22.23,5.96
	c4.49,7.78,1.83,17.74-5.96,22.23c-6.43,3.71-14.34,2.53-19.43-2.39l-10.76,6.21l31.89,55.24l10.76-6.21
	c-1.71-6.87,1.21-14.31,7.65-18.02c7.78-4.49,17.74-1.83,22.23,5.96c4.49,7.78,1.83,17.74-5.96,22.23
	c-6.43,3.71-14.34,2.53-19.43-2.39l-10.76,6.21l31.89,55.24l10.76-6.21c-1.71-6.87,1.21-14.31,7.65-18.02
	c7.78-4.49,17.74-1.83,22.23,5.96c4.49,7.78,1.83,17.74-5.96,22.23c-6.43,3.71-14.34,2.53-19.43-2.39l-10.76,6.21l31.89,55.24
	l10.76-6.21c-1.71-6.87,1.21-14.31,7.65-18.02c7.78-4.49,17.74-1.83,22.23,5.96c4.49,7.78,1.83,17.74-5.96,22.23
	c-6.43,3.71-14.34,2.53-19.43-2.39l-10.76,6.21l26.66,46.17l234.26-135.25L291.06,1582.7L56.8,1717.95z"/>
<path class="st3" d="M72.95,1684.41l17.08,46.93l11.68-4.25c-0.49-7.06,3.68-13.88,10.66-16.42c8.45-3.07,17.79,1.28,20.86,9.73
	c3.07,8.45-1.28,17.79-9.73,20.86c-6.98,2.54-14.56,0-18.72-5.73l-11.68,4.25l21.82,59.94l11.68-4.25
	c-0.49-7.06,3.68-13.88,10.66-16.42c8.45-3.07,17.79,1.28,20.86,9.73s-1.28,17.79-9.73,20.86c-6.98,2.54-14.56,0-18.72-5.73
	l-11.68,4.25l21.82,59.94l11.68-4.25c-0.49-7.06,3.68-13.88,10.66-16.42c8.45-3.07,17.79,1.28,20.86,9.73
	c3.07,8.45-1.28,17.79-9.73,20.86c-6.98,2.54-14.56,0-18.72-5.73l-11.68,4.25l21.82,59.94l11.68-4.25
	c-0.49-7.06,3.68-13.88,10.66-16.42c8.45-3.07,17.79,1.28,20.86,9.73c3.07,8.45-1.28,17.79-9.73,20.86
	c-6.98,2.54-14.56,0-18.72-5.73l-11.68,4.25l18.23,50.1l254.18-92.52l-113.05-310.61L72.95,1684.41z"/>
<path class="st3" d="M121.32,1628.18l0,49.95l12.43,0c1.95-6.8,8.2-11.78,15.63-11.78c8.99,0,16.27,7.29,16.27,16.27
	s-7.29,16.27-16.27,16.27c-7.43,0-13.68-4.98-15.63-11.78l-12.43,0l0,63.79l12.43,0c1.95-6.8,8.2-11.78,15.63-11.78
	c8.99,0,16.27,7.29,16.27,16.27c0,8.99-7.29,16.27-16.27,16.27c-7.43,0-13.68-4.98-15.63-11.78l-12.43,0l0,63.79l12.43,0
	c1.95-6.8,8.2-11.79,15.63-11.78c8.99,0,16.27,7.29,16.27,16.27c0,8.99-7.29,16.27-16.27,16.27c-7.43,0-13.68-4.98-15.63-11.78
	l-12.43,0l0,63.79l12.43,0c1.95-6.8,8.2-11.78,15.63-11.78c8.99,0,16.27,7.29,16.27,16.27s-7.29,16.27-16.27,16.27
	c-7.43,0-13.68-4.98-15.63-11.78l-12.43,0l0,53.31l270.5,0l0-330.54L121.32,1628.18z"/>
<rect x="206.16" y="1647.1" class="st4" width="17.96" height="38.57"/>
<rect x="235.93" y="1647.1" class="st4" width="17.96" height="38.57"/>
<rect x="265.7" y="1647.1" class="st4" width="17.96" height="38.57"/>
<rect x="295.47" y="1647.1" class="st4" width="17.96" height="38.57"/>
<line class="st5" x1="187.63" y1="1710.96" x2="358.55" y2="1710.96"/>
<line class="st6" x1="187.62" y1="1740.23" x2="358.55" y2="1740.23"/>
<line class="st6" x1="187.62" y1="1754.77" x2="358.55" y2="1754.77"/>
<line class="st6" x1="187.62" y1="1769.31" x2="358.55" y2="1769.31"/>
<line class="st6" x1="187.62" y1="1783.85" x2="358.55" y2="1783.85"/>
<line class="st6" x1="187.62" y1="1798.39" x2="358.55" y2="1798.39"/>
<line class="st6" x1="187.62" y1="1812.93" x2="358.55" y2="1812.93"/>
<line class="st6" x1="187.62" y1="1827.47" x2="358.55" y2="1827.47"/>
<line class="st6" x1="187.62" y1="1842.02" x2="358.55" y2="1842.01"/>
<line class="st6" x1="187.62" y1="1856.56" x2="358.55" y2="1856.56"/>
<line class="st6" x1="187.62" y1="1871.1" x2="358.55" y2="1871.1"/>
<line class="st6" x1="187.62" y1="1885.65" x2="358.55" y2="1885.64"/>
<line class="st6" x1="187.62" y1="1900.19" x2="298.03" y2="1900.18"/>
<rect x="121.32" y="605.9" class="st7" width="270.51" height="325.21"/>
<rect x="120.74" y="1116.98" class="st8" width="270.51" height="325.21"/>
<path class="st0" d="M121.32,603.21l0,49.95l12.43,0c1.95-6.8,8.2-11.78,15.63-11.78c8.99,0,16.27,7.29,16.27,16.27
	c0,8.99-7.29,16.27-16.27,16.27c-7.43,0-13.68-4.98-15.63-11.78l-12.43,0l0,63.79l12.43,0c1.95-6.8,8.2-11.78,15.63-11.78
	c8.99,0,16.27,7.29,16.27,16.27s-7.29,16.27-16.27,16.27c-7.43,0-13.68-4.98-15.63-11.78l-12.43,0l0,63.79l12.43,0
	c1.95-6.8,8.2-11.78,15.63-11.78c8.99,0,16.27,7.29,16.27,16.27c0,8.99-7.29,16.27-16.27,16.27c-7.43,0-13.68-4.98-15.63-11.78
	l-12.43,0l0,63.79l12.43,0c1.95-6.8,8.2-11.78,15.63-11.78c8.99,0,16.27,7.29,16.27,16.27c0,8.99-7.29,16.27-16.27,16.27
	c-7.43,0-13.68-4.98-15.63-11.78l-12.43,0l0,53.31l270.5,0l0-330.54L121.32,603.21z"/>
<rect x="206.21" y="622.15" width="17.96" height="38.57"/>
<rect x="235.98" y="622.15" width="17.96" height="38.57"/>
<rect x="265.74" y="622.15" width="17.96" height="38.57"/>
<rect x="295.52" y="622.15" width="17.96" height="38.57"/>
<line class="st1" x1="187.63" y1="685.99" x2="358.55" y2="685.99"/>
<line class="st2" x1="187.62" y1="715.26" x2="358.55" y2="715.26"/>
<line class="st2" x1="187.62" y1="729.8" x2="358.55" y2="729.8"/>
<line class="st2" x1="187.62" y1="744.34" x2="358.55" y2="744.34"/>
<line class="st2" x1="187.62" y1="758.88" x2="358.55" y2="758.88"/>
<line class="st2" x1="187.62" y1="773.42" x2="358.55" y2="773.42"/>
<line class="st2" x1="187.62" y1="787.96" x2="358.55" y2="787.96"/>
<line class="st2" x1="187.62" y1="802.5" x2="358.55" y2="802.5"/>
<line class="st2" x1="187.62" y1="817.04" x2="358.55" y2="817.04"/>
<line class="st2" x1="187.62" y1="831.58" x2="358.55" y2="831.59"/>
<line class="st2" x1="187.62" y1="846.12" x2="358.55" y2="846.13"/>
<line class="st2" x1="187.62" y1="860.67" x2="358.55" y2="860.67"/>
<line class="st2" x1="187.62" y1="875.21" x2="298.03" y2="875.21"/>
<path class="st0" d="M121.32,1115.7l0,49.95l12.43,0c1.95-6.8,8.2-11.78,15.63-11.78c8.99,0,16.27,7.29,16.27,16.27
	s-7.29,16.27-16.27,16.27c-7.43,0-13.68-4.98-15.63-11.78l-12.43,0l0,63.79l12.43,0c1.95-6.8,8.2-11.78,15.63-11.78
	c8.99,0,16.27,7.29,16.27,16.27c0,8.99-7.29,16.27-16.27,16.27c-7.43,0-13.68-4.98-15.63-11.78l-12.43,0l0,63.79l12.43,0
	c1.95-6.8,8.2-11.79,15.63-11.78c8.99,0,16.27,7.29,16.27,16.27c0,8.99-7.29,16.27-16.27,16.27c-7.43,0-13.68-4.98-15.63-11.78
	l-12.43,0l0,63.79l12.43,0c1.95-6.8,8.2-11.78,15.63-11.78c8.99,0,16.27,7.29,16.27,16.27s-7.29,16.27-16.27,16.27
	c-7.43,0-13.68-4.98-15.63-11.78l-12.43,0l0,53.31l270.5,0l0-330.54L121.32,1115.7z"/>
<rect x="206.19" y="1134.62" width="17.96" height="38.57"/>
<rect x="235.96" y="1134.63" width="17.96" height="38.57"/>
<rect x="265.72" y="1134.63" width="17.96" height="38.57"/>
<rect x="295.49" y="1134.63" width="17.96" height="38.57"/>
<line class="st1" x1="187.63" y1="1198.48" x2="358.55" y2="1198.48"/>
<line class="st2" x1="187.62" y1="1227.75" x2="358.55" y2="1227.75"/>
<line class="st2" x1="187.62" y1="1242.29" x2="358.55" y2="1242.29"/>
<line class="st2" x1="187.62" y1="1256.83" x2="358.55" y2="1256.83"/>
<line class="st2" x1="187.62" y1="1271.37" x2="358.55" y2="1271.37"/>
<line class="st2" x1="187.62" y1="1285.91" x2="358.55" y2="1285.91"/>
<line class="st2" x1="187.62" y1="1300.45" x2="358.55" y2="1300.45"/>
<line class="st2" x1="187.62" y1="1314.99" x2="358.55" y2="1314.99"/>
<line class="st2" x1="187.62" y1="1329.53" x2="358.55" y2="1329.53"/>
<line class="st2" x1="187.62" y1="1344.07" x2="358.55" y2="1344.08"/>
<line class="st2" x1="187.62" y1="1358.61" x2="358.55" y2="1358.62"/>
<line class="st2" x1="187.62" y1="1373.16" x2="358.55" y2="1373.16"/>
<line class="st2" x1="187.62" y1="1387.7" x2="298.03" y2="1387.7"/>
</svg>
