<?xml version="1.0" encoding="utf-8"?>
<!-- Generator: Adobe Illustrator 27.0.1, SVG Export Plug-In . SVG Version: 6.00 Build 0)  -->
<svg version="1.1" id="Calque_1" xmlns="http://www.w3.org/2000/svg" xmlns:xlink="http://www.w3.org/1999/xlink" x="0px" y="0px"
	 viewBox="0 0 512 2048" style="enable-background:new 0 0 512 2048;" xml:space="preserve">
<style type="text/css">
	.st0{fill:none;stroke:#3EB2E6;stroke-width:40;stroke-linecap:round;stroke-miterlimit:10;}
	.st1{fill:none;stroke:#F39208;stroke-width:40;stroke-miterlimit:10;}
	.st2{fill:#E8E8E6;stroke:#000000;stroke-width:4;stroke-miterlimit:10;}
	.st3{fill:none;stroke:#000000;stroke-width:16;stroke-miterlimit:10;}
	.st4{fill:none;stroke:#000000;stroke-width:4;stroke-miterlimit:10;}
	.st5{fill:#E8E8E8;stroke:#A2A19F;stroke-width:4;stroke-miterlimit:10;}
	.st6{fill:#A2A19F;}
	.st7{fill:none;stroke:#A2A19F;stroke-width:16;stroke-miterlimit:10;}
	.st8{fill:none;stroke:#A2A19F;stroke-width:4;stroke-miterlimit:10;}
</style>
<path class="st0" d="M441.54,1340.55l20.73-17.39l-82.94-98.85l-22.41-127.07l-26.64,4.7l-7.28-20.01l-25.42,9.25l-10.65-18.45
	l-23.43,13.53l-13.69-16.32l-69.68,58.47l-89.58,15.8l3.7,20.97l-25.42,9.25l7.28,20.01l-23.43,13.53l10.65,18.44l-20.73,17.39
	l78.88,94.01l15.65,70.57l1.56,8.84l9.26,52.5l26.64-4.7l7.28,20.01l25.42-9.25l10.65,18.44l23.43-13.53l13.69,16.32l69.68-58.47
	l89.58-15.8l-3.7-20.97l25.42-9.25l-7.28-20.01l23.43-13.53L441.54,1340.55z"/>
<path class="st1" d="M441.54,831.54l20.73-17.39l-82.94-98.85l-22.41-127.07l-26.64,4.7l-7.28-20.01l-25.42,9.25l-10.65-18.45
	l-23.43,13.53l-13.69-16.32l-69.68,58.47l-89.58,15.8l3.7,20.97l-25.42,9.25l7.28,20.01l-23.43,13.53l10.65,18.45l-20.73,17.39
	l78.88,94.01l15.65,70.57l1.56,8.84l9.26,52.5l26.64-4.7l7.28,20.01l25.42-9.25l10.65,18.44l23.43-13.53l13.69,16.32l69.68-58.47
	l89.58-15.8l-3.7-20.97l25.42-9.25l-7.28-20.01l23.43-13.53L441.54,831.54z"/>
<g>
	<path class="st2" d="M46.73,216.33l32.11,38.26l9.52-7.99c-2.88-6.46-1.29-14.3,4.4-19.08c6.89-5.78,17.15-4.88,22.93,2.01
		c5.78,6.89,4.88,17.15-2.01,22.93c-5.69,4.78-13.68,4.98-19.55,1.02l-9.52,7.99l41,48.87l9.52-7.99c-2.88-6.46-1.29-14.3,4.4-19.08
		c6.89-5.78,17.15-4.88,22.93,2.01c5.78,6.89,4.88,17.15-2.01,22.93c-5.69,4.78-13.68,4.98-19.55,1.02l-9.52,7.99l41,48.87
		l9.52-7.99c-2.88-6.46-1.29-14.3,4.4-19.08c6.89-5.78,17.15-4.88,22.93,2.01c5.78,6.89,4.88,17.15-2.01,22.93
		c-5.69,4.78-13.68,4.98-19.55,1.02l-9.52,7.99l41,48.87l9.52-7.99c-2.88-6.46-1.29-14.3,4.4-19.08c6.89-5.78,17.15-4.88,22.93,2.01
		c5.78,6.89,4.88,17.15-2.01,22.93c-5.69,4.78-13.68,4.98-19.55,1.02l-9.52,7.99l34.27,40.84l207.21-173.87L253.94,42.46
		L46.73,216.33z"/>
	<path class="st2" d="M56.8,180.49l24.97,43.26l10.76-6.21c-1.71-6.87,1.21-14.31,7.65-18.02c7.78-4.49,17.74-1.83,22.23,5.96
		c4.49,7.78,1.83,17.74-5.96,22.23c-6.43,3.71-14.34,2.53-19.43-2.39l-10.76,6.21l31.89,55.24l10.76-6.21
		c-1.71-6.87,1.21-14.31,7.65-18.02c7.78-4.49,17.74-1.83,22.23,5.96c4.49,7.78,1.83,17.74-5.96,22.23
		c-6.43,3.71-14.34,2.53-19.43-2.39l-10.76,6.21l31.89,55.24l10.76-6.21c-1.71-6.87,1.21-14.31,7.65-18.02
		c7.78-4.49,17.74-1.83,22.23,5.96c4.49,7.78,1.83,17.74-5.96,22.23c-6.43,3.71-14.34,2.53-19.43-2.39l-10.76,6.21l31.89,55.24
		l10.76-6.21c-1.71-6.87,1.21-14.31,7.65-18.02c7.78-4.49,17.74-1.83,22.23,5.96c4.49,7.78,1.83,17.74-5.96,22.23
		c-6.43,3.71-14.34,2.53-19.43-2.39l-10.76,6.21l26.66,46.17l234.26-135.25L291.06,45.25L56.8,180.49z"/>
	<path class="st2" d="M72.95,146.95l17.08,46.93l11.68-4.25c-0.49-7.06,3.68-13.88,10.66-16.42c8.45-3.07,17.79,1.28,20.86,9.73
		c3.07,8.45-1.28,17.79-9.73,20.86c-6.98,2.54-14.56,0-18.72-5.73l-11.68,4.25l21.82,59.94l11.68-4.25
		c-0.49-7.06,3.68-13.88,10.66-16.42c8.45-3.07,17.79,1.28,20.86,9.73c3.07,8.45-1.28,17.79-9.73,20.86
		c-6.98,2.54-14.56,0-18.72-5.73l-11.68,4.25l21.82,59.94l11.68-4.25c-0.49-7.06,3.68-13.88,10.66-16.42
		c8.45-3.07,17.79,1.28,20.86,9.73c3.07,8.45-1.28,17.79-9.73,20.86c-6.98,2.54-14.56,0-18.72-5.73l-11.68,4.25l21.82,59.94
		l11.68-4.25c-0.49-7.06,3.68-13.88,10.66-16.42c8.45-3.07,17.79,1.28,20.86,9.73c3.07,8.45-1.28,17.79-9.73,20.86
		c-6.98,2.54-14.56,0-18.72-5.73l-11.68,4.25l18.23,50.1l254.18-92.52L327.13,54.44L72.95,146.95z"/>
	<path class="st2" d="M94.68,116.72l8.67,49.19l12.24-2.16c0.74-7.04,6.03-13.03,13.35-14.32c8.85-1.56,17.29,4.35,18.85,13.2
		c1.56,8.85-4.35,17.29-13.2,18.85c-7.32,1.29-14.34-2.53-17.44-8.89l-12.24,2.16l11.08,62.82l12.24-2.16
		c0.74-7.04,6.03-13.03,13.35-14.32c8.85-1.56,17.29,4.35,18.85,13.2c1.56,8.85-4.35,17.29-13.2,18.85
		c-7.32,1.29-14.34-2.53-17.44-8.89l-12.24,2.16l11.08,62.82l12.24-2.16c0.74-7.04,6.03-13.03,13.35-14.32
		c8.85-1.56,17.29,4.35,18.85,13.2c1.56,8.85-4.35,17.29-13.2,18.85c-7.32,1.29-14.34-2.53-17.44-8.89l-12.24,2.16l11.08,62.82
		l12.24-2.16c0.74-7.04,6.03-13.03,13.35-14.32c8.85-1.56,17.29,4.35,18.85,13.2c1.56,8.85-4.35,17.29-13.2,18.85
		c-7.32,1.29-14.34-2.53-17.44-8.89l-12.24,2.16l9.26,52.5l266.39-46.97l-57.4-325.52L94.68,116.72z"/>
	<rect x="184.81" y="118.77" transform="matrix(0.9848 -0.1736 0.1736 0.9848 -21.0297 35.7488)" width="17.96" height="38.57"/>
	<rect x="214.13" y="113.6" transform="matrix(0.9848 -0.1736 0.1736 0.9848 -19.6868 40.7609)" width="17.96" height="38.57"/>
	<rect x="243.44" y="108.43" transform="matrix(0.9848 -0.1736 0.1736 0.9848 -18.3438 45.7729)" width="17.96" height="38.57"/>
	<rect x="272.76" y="103.27" transform="matrix(0.9848 -0.1736 0.1736 0.9848 -17.0008 50.7849)" width="17.96" height="38.57"/>
	<line class="st3" x1="174.35" y1="186.74" x2="342.68" y2="157.06"/>
	<line class="st4" x1="179.43" y1="215.56" x2="347.76" y2="185.87"/>
	<line class="st4" x1="181.95" y1="229.88" x2="350.28" y2="200.19"/>
	<line class="st4" x1="184.48" y1="244.2" x2="352.81" y2="214.51"/>
	<line class="st4" x1="187" y1="258.52" x2="355.33" y2="228.83"/>
	<line class="st4" x1="189.53" y1="272.84" x2="357.86" y2="243.16"/>
	<line class="st4" x1="192.05" y1="287.16" x2="360.38" y2="257.48"/>
	<line class="st4" x1="194.58" y1="301.48" x2="362.91" y2="271.8"/>
	<line class="st4" x1="197.1" y1="315.8" x2="365.43" y2="286.12"/>
	<line class="st4" x1="199.63" y1="330.12" x2="367.96" y2="300.44"/>
	<line class="st4" x1="202.15" y1="344.44" x2="370.48" y2="314.76"/>
	<line class="st4" x1="204.68" y1="358.76" x2="373.01" y2="329.08"/>
	<line class="st4" x1="207.2" y1="373.08" x2="315.93" y2="353.91"/>
</g>
<path class="st2" d="M46.73,728.82l32.11,38.26l9.52-7.99c-2.88-6.46-1.29-14.3,4.4-19.08c6.89-5.78,17.15-4.88,22.93,2.01
	c5.78,6.89,4.88,17.15-2.01,22.93c-5.69,4.78-13.68,4.98-19.55,1.02l-9.52,7.99l41,48.87l9.52-7.99c-2.88-6.46-1.29-14.3,4.4-19.08
	c6.89-5.78,17.15-4.88,22.93,2.01c5.78,6.89,4.88,17.15-2.01,22.93c-5.69,4.78-13.68,4.98-19.55,1.02l-9.52,7.99l41,48.87l9.52-7.99
	c-2.88-6.46-1.29-14.3,4.4-19.08c6.89-5.78,17.15-4.88,22.93,2.01c5.78,6.89,4.88,17.15-2.01,22.93
	c-5.69,4.78-13.68,4.98-19.55,1.02l-9.52,7.99l41,48.87l9.52-7.99c-2.88-6.46-1.29-14.3,4.4-19.08c6.89-5.78,17.15-4.88,22.93,2.01
	c5.78,6.89,4.88,17.15-2.01,22.93c-5.69,4.78-13.68,4.98-19.55,1.02l-9.52,7.99l34.27,40.84l207.21-173.87L253.94,554.94
	L46.73,728.82z"/>
<path class="st2" d="M56.8,692.98l24.97,43.26l10.76-6.21c-1.71-6.87,1.21-14.31,7.65-18.02c7.78-4.49,17.74-1.83,22.23,5.96
	c4.49,7.78,1.83,17.74-5.96,22.23c-6.43,3.71-14.34,2.53-19.43-2.39l-10.76,6.21l31.89,55.24l10.76-6.21
	c-1.71-6.87,1.21-14.31,7.65-18.02c7.78-4.49,17.74-1.83,22.23,5.96c4.49,7.78,1.83,17.74-5.96,22.23
	c-6.43,3.71-14.34,2.53-19.43-2.39l-10.76,6.21l31.89,55.24l10.76-6.21c-1.71-6.87,1.21-14.31,7.65-18.02
	c7.78-4.49,17.74-1.83,22.23,5.96c4.49,7.78,1.83,17.74-5.96,22.23c-6.43,3.71-14.34,2.53-19.43-2.39l-10.76,6.21l31.89,55.24
	l10.76-6.21c-1.71-6.87,1.21-14.31,7.65-18.02c7.78-4.49,17.74-1.83,22.23,5.96c4.49,7.78,1.83,17.74-5.96,22.23
	c-6.43,3.71-14.34,2.53-19.43-2.39l-10.76,6.21l26.66,46.17l234.26-135.25L291.06,557.73L56.8,692.98z"/>
<path class="st2" d="M72.95,659.44l17.08,46.93l11.68-4.25c-0.49-7.06,3.68-13.88,10.66-16.42c8.45-3.07,17.79,1.28,20.86,9.73
	c3.07,8.45-1.28,17.79-9.73,20.86c-6.98,2.54-14.56,0-18.72-5.73l-11.68,4.25l21.82,59.94l11.68-4.25
	c-0.49-7.06,3.68-13.88,10.66-16.42c8.45-3.07,17.79,1.28,20.86,9.73c3.07,8.45-1.28,17.79-9.73,20.86
	c-6.98,2.54-14.56,0-18.72-5.73l-11.68,4.25l21.82,59.94l11.68-4.25c-0.49-7.06,3.68-13.88,10.66-16.42
	c8.45-3.07,17.79,1.28,20.86,9.73c3.07,8.45-1.28,17.79-9.73,20.86c-6.98,2.54-14.56,0-18.72-5.73l-11.68,4.25l21.82,59.94
	l11.68-4.25c-0.49-7.06,3.68-13.88,10.66-16.42c8.45-3.07,17.79,1.28,20.86,9.73c3.07,8.45-1.28,17.79-9.73,20.86
	c-6.98,2.54-14.56,0-18.72-5.73l-11.68,4.25l18.23,50.1l254.18-92.52L327.13,566.92L72.95,659.44z"/>
<path class="st2" d="M94.68,629.21l8.67,49.19l12.24-2.16c0.74-7.04,6.03-13.03,13.35-14.32c8.85-1.56,17.29,4.35,18.85,13.2
	s-4.35,17.29-13.2,18.85c-7.32,1.29-14.34-2.53-17.44-8.89l-12.24,2.16l11.08,62.82l12.24-2.16c0.74-7.04,6.03-13.03,13.35-14.32
	c8.85-1.56,17.29,4.35,18.85,13.2c1.56,8.85-4.35,17.29-13.2,18.85c-7.32,1.29-14.34-2.53-17.44-8.89l-12.24,2.16l11.08,62.82
	l12.24-2.16c0.74-7.04,6.03-13.03,13.35-14.32c8.85-1.56,17.29,4.35,18.85,13.2c1.56,8.85-4.35,17.29-13.2,18.85
	c-7.32,1.29-14.34-2.53-17.44-8.89l-12.24,2.16l11.08,62.82l12.24-2.16c0.74-7.04,6.03-13.03,13.35-14.32
	c8.85-1.56,17.29,4.35,18.85,13.2c1.56,8.85-4.35,17.29-13.2,18.85c-7.32,1.29-14.34-2.53-17.44-8.89l-12.24,2.16l9.26,52.5
	l266.39-46.97l-57.4-325.52L94.68,629.21z"/>
<rect x="184.81" y="631.26" transform="matrix(0.9848 -0.1736 0.1736 0.9848 -110.022 43.5346)" width="17.96" height="38.57"/>
<rect x="214.13" y="626.09" transform="matrix(0.9848 -0.1736 0.1736 0.9848 -108.679 48.5467)" width="17.96" height="38.57"/>
<rect x="243.44" y="620.92" transform="matrix(0.9848 -0.1736 0.1736 0.9848 -107.3361 53.5587)" width="17.96" height="38.57"/>
<rect x="272.76" y="615.75" transform="matrix(0.9848 -0.1736 0.1736 0.9848 -105.9931 58.5707)" width="17.96" height="38.57"/>
<line class="st3" x1="174.35" y1="699.22" x2="342.68" y2="669.54"/>
<line class="st4" x1="179.43" y1="728.04" x2="347.76" y2="698.36"/>
<line class="st4" x1="181.95" y1="742.36" x2="350.28" y2="712.68"/>
<line class="st4" x1="184.48" y1="756.68" x2="352.81" y2="727"/>
<line class="st4" x1="187" y1="771" x2="355.33" y2="741.32"/>
<line class="st4" x1="189.53" y1="785.32" x2="357.86" y2="755.64"/>
<line class="st4" x1="192.05" y1="799.64" x2="360.38" y2="769.96"/>
<line class="st4" x1="194.58" y1="813.96" x2="362.91" y2="784.28"/>
<line class="st4" x1="197.1" y1="828.28" x2="365.43" y2="798.6"/>
<line class="st4" x1="199.63" y1="842.6" x2="367.96" y2="812.92"/>
<line class="st4" x1="202.15" y1="856.92" x2="370.48" y2="827.24"/>
<line class="st4" x1="204.68" y1="871.24" x2="373.01" y2="841.56"/>
<line class="st4" x1="207.2" y1="885.56" x2="315.93" y2="866.39"/>
<path class="st2" d="M46.73,1241.3l32.11,38.26l9.52-7.99c-2.88-6.46-1.29-14.3,4.4-19.08c6.89-5.78,17.15-4.88,22.93,2.01
	c5.78,6.89,4.88,17.15-2.01,22.93c-5.69,4.78-13.68,4.98-19.55,1.02l-9.52,7.99l41,48.87l9.52-7.99c-2.88-6.46-1.29-14.3,4.4-19.08
	c6.89-5.78,17.15-4.88,22.93,2.01c5.78,6.89,4.88,17.15-2.01,22.93c-5.69,4.78-13.68,4.98-19.55,1.02l-9.52,7.99l41,48.87l9.52-7.99
	c-2.88-6.46-1.29-14.3,4.4-19.08c6.89-5.78,17.15-4.88,22.93,2.01c5.78,6.89,4.88,17.15-2.01,22.93
	c-5.69,4.78-13.68,4.98-19.55,1.02l-9.52,7.99l41,48.87l9.52-7.99c-2.88-6.46-1.29-14.3,4.4-19.08c6.89-5.78,17.15-4.88,22.93,2.01
	c5.78,6.89,4.88,17.15-2.01,22.93c-5.69,4.78-13.68,4.98-19.55,1.02l-9.52,7.99l34.27,40.84l207.21-173.87l-212.47-253.21
	L46.73,1241.3z"/>
<path class="st2" d="M56.8,1205.47l24.97,43.26l10.76-6.21c-1.71-6.87,1.21-14.31,7.65-18.02c7.78-4.49,17.74-1.83,22.23,5.96
	c4.49,7.78,1.83,17.74-5.96,22.23c-6.43,3.71-14.34,2.53-19.43-2.39l-10.76,6.21l31.89,55.24l10.76-6.21
	c-1.71-6.87,1.21-14.31,7.65-18.02c7.78-4.49,17.74-1.83,22.23,5.96c4.49,7.78,1.83,17.74-5.96,22.23
	c-6.43,3.71-14.34,2.53-19.43-2.39l-10.76,6.21l31.89,55.24l10.76-6.21c-1.71-6.87,1.21-14.31,7.65-18.02
	c7.78-4.49,17.74-1.83,22.23,5.96c4.49,7.78,1.83,17.74-5.96,22.23c-6.43,3.71-14.34,2.53-19.43-2.39l-10.76,6.21l31.89,55.24
	l10.76-6.21c-1.71-6.87,1.21-14.31,7.65-18.02c7.78-4.49,17.74-1.83,22.23,5.96c4.49,7.78,1.83,17.74-5.96,22.23
	c-6.43,3.71-14.34,2.53-19.43-2.39l-10.76,6.21l26.66,46.17l234.26-135.25l-165.27-286.26L56.8,1205.47z"/>
<path class="st2" d="M72.95,1171.92l17.08,46.93l11.68-4.25c-0.49-7.06,3.68-13.88,10.66-16.42c8.45-3.07,17.79,1.28,20.86,9.73
	c3.07,8.45-1.28,17.79-9.73,20.86c-6.98,2.54-14.56,0-18.72-5.73l-11.68,4.25l21.82,59.94l11.68-4.25
	c-0.49-7.06,3.68-13.88,10.66-16.42c8.45-3.07,17.79,1.28,20.86,9.73c3.07,8.45-1.28,17.79-9.73,20.86
	c-6.98,2.54-14.56,0-18.72-5.73l-11.68,4.25l21.82,59.94l11.68-4.25c-0.49-7.06,3.68-13.88,10.66-16.42
	c8.45-3.07,17.79,1.28,20.86,9.73c3.07,8.45-1.28,17.79-9.73,20.86c-6.98,2.54-14.56,0-18.72-5.73l-11.68,4.25L164.7,1424
	l11.68-4.25c-0.49-7.06,3.68-13.88,10.66-16.42c8.45-3.07,17.79,1.28,20.86,9.73c3.07,8.45-1.28,17.79-9.73,20.86
	c-6.98,2.54-14.56,0-18.72-5.73l-11.68,4.25l18.23,50.1l254.18-92.52l-113.05-310.61L72.95,1171.92z"/>
<path class="st2" d="M94.68,1141.7l8.67,49.19l12.24-2.16c0.74-7.04,6.03-13.03,13.35-14.32c8.85-1.56,17.29,4.35,18.85,13.2
	s-4.35,17.29-13.2,18.85c-7.32,1.29-14.34-2.53-17.44-8.89l-12.24,2.16l11.08,62.82l12.24-2.16c0.74-7.04,6.03-13.03,13.35-14.32
	c8.85-1.56,17.29,4.35,18.85,13.2c1.56,8.85-4.35,17.29-13.2,18.85c-7.32,1.29-14.34-2.53-17.44-8.89l-12.24,2.16l11.08,62.82
	l12.24-2.16c0.74-7.04,6.03-13.03,13.35-14.32c8.85-1.56,17.29,4.35,18.85,13.2c1.56,8.85-4.35,17.29-13.2,18.85
	c-7.32,1.29-14.34-2.53-17.44-8.89l-12.24,2.16l11.08,62.82l12.24-2.16c0.74-7.04,6.03-13.03,13.35-14.32
	c8.85-1.56,17.29,4.35,18.85,13.2c1.56,8.85-4.35,17.29-13.2,18.85c-7.32,1.29-14.34-2.53-17.44-8.89l-12.24,2.16l9.26,52.5
	l266.39-46.97l-57.4-325.52L94.68,1141.7z"/>
<rect x="184.81" y="1143.74" transform="matrix(0.9848 -0.1736 0.1736 0.9848 -199.0143 51.3205)" width="17.96" height="38.57"/>
<rect x="214.13" y="1138.58" transform="matrix(0.9848 -0.1736 0.1736 0.9848 -197.6713 56.3325)" width="17.96" height="38.57"/>
<rect x="243.44" y="1133.41" transform="matrix(0.9848 -0.1736 0.1736 0.9848 -196.3284 61.3445)" width="17.96" height="38.57"/>
<rect x="272.76" y="1128.24" transform="matrix(0.9848 -0.1736 0.1736 0.9848 -194.9854 66.3565)" width="17.96" height="38.57"/>
<line class="st3" x1="174.35" y1="1211.71" x2="342.68" y2="1182.03"/>
<line class="st4" x1="179.43" y1="1240.53" x2="347.76" y2="1210.85"/>
<line class="st4" x1="181.95" y1="1254.85" x2="350.28" y2="1225.17"/>
<line class="st4" x1="184.48" y1="1269.17" x2="352.81" y2="1239.49"/>
<line class="st4" x1="187" y1="1283.49" x2="355.33" y2="1253.81"/>
<line class="st4" x1="189.53" y1="1297.81" x2="357.86" y2="1268.13"/>
<line class="st4" x1="192.05" y1="1312.13" x2="360.38" y2="1282.45"/>
<line class="st4" x1="194.58" y1="1326.45" x2="362.91" y2="1296.77"/>
<line class="st4" x1="197.1" y1="1340.77" x2="365.43" y2="1311.09"/>
<line class="st4" x1="199.63" y1="1355.09" x2="367.96" y2="1325.41"/>
<line class="st4" x1="202.15" y1="1369.41" x2="370.48" y2="1339.73"/>
<line class="st4" x1="204.68" y1="1383.73" x2="373.01" y2="1354.05"/>
<line class="st4" x1="207.2" y1="1398.05" x2="315.93" y2="1378.88"/>
<path class="st5" d="M46.73,1753.79l32.11,38.26l9.52-7.99c-2.88-6.46-1.29-14.3,4.4-19.08c6.89-5.78,17.15-4.88,22.93,2.01
	c5.78,6.89,4.88,17.15-2.01,22.93c-5.69,4.78-13.68,4.98-19.55,1.02l-9.52,7.99l41,48.87l9.52-7.99c-2.88-6.46-1.29-14.3,4.4-19.08
	c6.89-5.78,17.15-4.88,22.93,2.01c5.78,6.89,4.88,17.15-2.01,22.93c-5.69,4.78-13.68,4.98-19.55,1.02l-9.52,7.99l41,48.87l9.52-7.99
	c-2.88-6.46-1.29-14.3,4.4-19.08c6.89-5.78,17.15-4.88,22.93,2.01c5.78,6.89,4.88,17.15-2.01,22.93
	c-5.69,4.78-13.68,4.98-19.55,1.02l-9.52,7.99l41,48.87l9.52-7.99c-2.88-6.46-1.29-14.3,4.4-19.08c6.89-5.78,17.15-4.88,22.93,2.01
	c5.78,6.89,4.88,17.15-2.01,22.93c-5.69,4.78-13.68,4.98-19.55,1.02l-9.52,7.99L259.2,2007l207.21-173.87l-212.47-253.21
	L46.73,1753.79z"/>
<path class="st5" d="M56.8,1717.95l24.97,43.26l10.76-6.21c-1.71-6.87,1.21-14.31,7.65-18.02c7.78-4.49,17.74-1.83,22.23,5.96
	c4.49,7.78,1.83,17.74-5.96,22.23c-6.43,3.71-14.34,2.53-19.43-2.39l-10.76,6.21l31.89,55.24l10.76-6.21
	c-1.71-6.87,1.21-14.31,7.65-18.02c7.78-4.49,17.74-1.83,22.23,5.96c4.49,7.78,1.83,17.74-5.96,22.23
	c-6.43,3.71-14.34,2.53-19.43-2.39l-10.76,6.21l31.89,55.24l10.76-6.21c-1.71-6.87,1.21-14.31,7.65-18.02
	c7.78-4.49,17.74-1.83,22.23,5.96c4.49,7.78,1.83,17.74-5.96,22.23c-6.43,3.71-14.34,2.53-19.43-2.39l-10.76,6.21l31.89,55.24
	l10.76-6.21c-1.71-6.87,1.21-14.31,7.65-18.02c7.78-4.49,17.74-1.83,22.23,5.96c4.49,7.78,1.83,17.74-5.96,22.23
	c-6.43,3.71-14.34,2.53-19.43-2.39l-10.76,6.21l26.66,46.17l234.26-135.25L291.06,1582.7L56.8,1717.95z"/>
<path class="st5" d="M72.95,1684.41l17.08,46.93l11.68-4.25c-0.49-7.06,3.68-13.88,10.66-16.42c8.45-3.07,17.79,1.28,20.86,9.73
	c3.07,8.45-1.28,17.79-9.73,20.86c-6.98,2.54-14.56,0-18.72-5.73l-11.68,4.25l21.82,59.94l11.68-4.25
	c-0.49-7.06,3.68-13.88,10.66-16.42c8.45-3.07,17.79,1.28,20.86,9.73c3.07,8.45-1.28,17.79-9.73,20.86
	c-6.98,2.54-14.56,0-18.72-5.73l-11.68,4.25l21.82,59.94l11.68-4.25c-0.49-7.06,3.68-13.88,10.66-16.42
	c8.45-3.07,17.79,1.28,20.86,9.73c3.07,8.45-1.28,17.79-9.73,20.86c-6.98,2.54-14.56,0-18.72-5.73l-11.68,4.25l21.82,59.94
	l11.68-4.25c-0.49-7.06,3.68-13.88,10.66-16.42c8.45-3.07,17.79,1.28,20.86,9.73c3.07,8.45-1.28,17.79-9.73,20.86
	c-6.98,2.54-14.56,0-18.72-5.73l-11.68,4.25l18.23,50.1l254.18-92.52l-113.05-310.61L72.95,1684.41z"/>
<path class="st5" d="M94.68,1654.18l8.67,49.19l12.24-2.16c0.74-7.04,6.03-13.03,13.35-14.32c8.85-1.56,17.29,4.35,18.85,13.2
	c1.56,8.85-4.35,17.29-13.2,18.85c-7.32,1.29-14.34-2.53-17.44-8.89l-12.24,2.16l11.08,62.82l12.24-2.16
	c0.74-7.04,6.03-13.03,13.35-14.32c8.85-1.56,17.29,4.35,18.85,13.2c1.56,8.85-4.35,17.29-13.2,18.85
	c-7.32,1.29-14.34-2.53-17.44-8.89l-12.24,2.16l11.08,62.82l12.24-2.16c0.74-7.04,6.03-13.03,13.35-14.32
	c8.85-1.56,17.29,4.35,18.85,13.2c1.56,8.85-4.35,17.29-13.2,18.85c-7.32,1.29-14.34-2.53-17.44-8.89l-12.24,2.16l11.08,62.82
	l12.24-2.16c0.74-7.04,6.03-13.03,13.35-14.32c8.85-1.56,17.29,4.35,18.85,13.2c1.56,8.85-4.35,17.29-13.2,18.85
	c-7.32,1.29-14.34-2.53-17.44-8.89l-12.24,2.16l9.26,52.5l266.39-46.97l-57.4-325.52L94.68,1654.18z"/>
<rect x="184.81" y="1656.23" transform="matrix(0.9848 -0.1736 0.1736 0.9848 -288.0066 59.1063)" class="st6" width="17.96" height="38.57"/>
<rect x="214.13" y="1651.06" transform="matrix(0.9848 -0.1736 0.1736 0.9848 -286.6636 64.1183)" class="st6" width="17.96" height="38.57"/>
<rect x="243.44" y="1645.89" transform="matrix(0.9848 -0.1736 0.1736 0.9848 -285.3206 69.1303)" class="st6" width="17.96" height="38.57"/>
<rect x="272.76" y="1640.72" transform="matrix(0.9848 -0.1736 0.1736 0.9848 -283.9777 74.1424)" class="st6" width="17.96" height="38.57"/>
<line class="st7" x1="174.35" y1="1724.19" x2="342.68" y2="1694.51"/>
<line class="st8" x1="179.43" y1="1753.01" x2="347.76" y2="1723.33"/>
<line class="st8" x1="181.95" y1="1767.33" x2="350.28" y2="1737.65"/>
<line class="st8" x1="184.48" y1="1781.65" x2="352.81" y2="1751.97"/>
<line class="st8" x1="187" y1="1795.97" x2="355.33" y2="1766.29"/>
<line class="st8" x1="189.53" y1="1810.29" x2="357.86" y2="1780.61"/>
<line class="st8" x1="192.05" y1="1824.61" x2="360.38" y2="1794.93"/>
<line class="st8" x1="194.58" y1="1838.93" x2="362.91" y2="1809.25"/>
<line class="st8" x1="197.1" y1="1853.26" x2="365.43" y2="1823.57"/>
<line class="st8" x1="199.63" y1="1867.58" x2="367.96" y2="1837.89"/>
<line class="st8" x1="202.15" y1="1881.9" x2="370.48" y2="1852.21"/>
<line class="st8" x1="204.68" y1="1896.22" x2="373.01" y2="1866.53"/>
<line class="st8" x1="207.2" y1="1910.54" x2="315.93" y2="1891.36"/>
</svg>
