<?xml version="1.0" encoding="utf-8"?>
<!-- Generator: Adobe Illustrator 27.1.0, SVG Export Plug-In . SVG Version: 6.00 Build 0)  -->
<svg version="1.1" id="Calque_1" xmlns="http://www.w3.org/2000/svg" xmlns:xlink="http://www.w3.org/1999/xlink" x="0px" y="0px"
	 viewBox="0 0 512 2048" style="enable-background:new 0 0 512 2048;" xml:space="preserve">
<style type="text/css">
	.st0{fill:url(#SVGID_1_);stroke:#000000;stroke-width:4;stroke-miterlimit:10;}
	.st1{fill:url(#SVGID_00000031198462704060716840000009618059517150941348_);stroke:#000000;stroke-width:4;stroke-miterlimit:10;}
	.st2{fill:url(#SVGID_00000050653403696054740800000012553184240827495575_);stroke:#000000;stroke-width:4;stroke-miterlimit:10;}
	.st3{fill:url(#SVGID_00000102503108407280209870000002165671859331486640_);stroke:#000000;stroke-width:4;stroke-miterlimit:10;}
	.st4{fill:url(#SVGID_00000096027590012417129460000013103531058371458480_);stroke:#000000;stroke-width:4;stroke-miterlimit:10;}
	.st5{fill:url(#SVGID_00000089575045445872806300000017607706323421641651_);stroke:#000000;stroke-width:4;stroke-miterlimit:10;}
	.st6{fill:url(#SVGID_00000163033829732335650010000014239024306874117812_);stroke:#000000;stroke-width:4;stroke-miterlimit:10;}
	.st7{fill:url(#SVGID_00000086657518199376574650000005971961492980371106_);stroke:#000000;stroke-width:4;stroke-miterlimit:10;}
	.st8{fill:url(#SVGID_00000139252939274443139020000000551832173789496208_);stroke:#000000;stroke-width:4;stroke-miterlimit:10;}
	.st9{fill:url(#SVGID_00000153673540416972147730000016743120600447616674_);stroke:#000000;stroke-width:4;stroke-miterlimit:10;}
	.st10{fill:url(#SVGID_00000154408545930499117330000013022726192482163118_);stroke:#000000;stroke-width:4;stroke-miterlimit:10;}
	.st11{fill:url(#SVGID_00000045609298249230486960000016352536331075499929_);stroke:#000000;stroke-width:4;stroke-miterlimit:10;}
	.st12{fill:url(#SVGID_00000086660018523264117080000005507283922046124165_);stroke:#000000;stroke-width:4;stroke-miterlimit:10;}
	.st13{fill:url(#SVGID_00000141417400724842266650000018270778179329490566_);stroke:#000000;stroke-width:4;stroke-miterlimit:10;}
	.st14{fill:url(#SVGID_00000000183807378984719400000006281194752876813236_);stroke:#000000;stroke-width:4;stroke-miterlimit:10;}
	.st15{fill:url(#SVGID_00000000934465492444878600000014164626273821650588_);stroke:#000000;stroke-width:4;stroke-miterlimit:10;}
	.st16{opacity:0.5;fill:none;stroke:#3E3D3C;stroke-width:16;stroke-miterlimit:10;enable-background:new    ;}
	.st17{fill:url(#SVGID_00000062884391480485183040000001544058128504505767_);stroke:#030304;stroke-width:4;stroke-miterlimit:10;}
	.st18{fill:url(#SVGID_00000170972870895500513030000008456271486781404563_);stroke:#020203;stroke-width:4;stroke-miterlimit:10;}
	.st19{fill:url(#SVGID_00000134965095219447431070000014383097631992084102_);stroke:#020203;stroke-width:4;stroke-miterlimit:10;}
	.st20{fill:url(#SVGID_00000131348696905432902500000006451444166636462230_);stroke:#000000;stroke-width:4;stroke-miterlimit:10;}
</style>
<linearGradient id="SVGID_1_" gradientUnits="userSpaceOnUse" x1="91.3" y1="-1058.25" x2="420.7" y2="-1058.25" gradientTransform="matrix(1 0 0 1 0 1280)">
	<stop  offset="0" style="stop-color:#CFCDCD"/>
	<stop  offset="0.5004" style="stop-color:#A5ACAC"/>
	<stop  offset="1" style="stop-color:#656B6C"/>
</linearGradient>
<path class="st0" d="M91.3,215.2c0,0,0.4,83.2,164.7,83.2s164.7-83.2,164.7-83.2v-70.1c0,0-5.4,76.7-161.7,78.9
	c-157.6,2.2-167.7-78.9-167.7-78.9V215.2z"/>
<linearGradient id="SVGID_00000044893714872995553700000016946535043768337802_" gradientUnits="userSpaceOnUse" x1="256" y1="-1214" x2="256" y2="-1055.6" gradientTransform="matrix(1 0 0 1 0 1280)">
	<stop  offset="0" style="stop-color:#CFCDCD"/>
	<stop  offset="0.5004" style="stop-color:#A5ACAC"/>
	<stop  offset="1" style="stop-color:#656B6C"/>
</linearGradient>
<ellipse style="fill:url(#SVGID_00000044893714872995553700000016946535043768337802_);stroke:#000000;stroke-width:4;stroke-miterlimit:10;" cx="256" cy="145.2" rx="164.7" ry="79.2"/>
<linearGradient id="SVGID_00000008120486096188580840000010439020301945209993_" gradientUnits="userSpaceOnUse" x1="91.3" y1="-982.55" x2="420.7" y2="-982.55" gradientTransform="matrix(1 0 0 1 0 1280)">
	<stop  offset="0" style="stop-color:#CFCDCD"/>
	<stop  offset="0.5004" style="stop-color:#A5ACAC"/>
	<stop  offset="1" style="stop-color:#656B6C"/>
</linearGradient>
<path style="fill:url(#SVGID_00000008120486096188580840000010439020301945209993_);stroke:#000000;stroke-width:4;stroke-miterlimit:10;" d="
	M91.3,290.9c0,0,0.4,83.2,164.7,83.2s164.7-83.2,164.7-83.2v-70.1c0,0-5.4,76.7-161.7,78.9c-157.6,2.2-167.7-78.9-167.7-78.9V290.9z
	"/>
<linearGradient id="SVGID_00000133525116383197501530000018346361678754972340_" gradientUnits="userSpaceOnUse" x1="91.3" y1="-910.65" x2="420.7" y2="-910.65" gradientTransform="matrix(1 0 0 1 0 1280)">
	<stop  offset="0" style="stop-color:#CFCDCD"/>
	<stop  offset="0.5004" style="stop-color:#A5ACAC"/>
	<stop  offset="1" style="stop-color:#656B6C"/>
</linearGradient>
<path style="fill:url(#SVGID_00000133525116383197501530000018346361678754972340_);stroke:#000000;stroke-width:4;stroke-miterlimit:10;" d="
	M91.3,362.8c0,0,0.4,83.2,164.7,83.2s164.7-83.2,164.7-83.2v-70.1c0,0-5.4,76.7-161.7,78.9c-157.6,2.2-167.7-78.9-167.7-78.9V362.8z
	"/>
<linearGradient id="SVGID_00000009567330973110113930000010811421086867955386_" gradientUnits="userSpaceOnUse" x1="91.3" y1="-546.25" x2="420.7" y2="-546.25" gradientTransform="matrix(1 0 0 1 0 1280)">
	<stop  offset="0" style="stop-color:#CFCDCD"/>
	<stop  offset="0.5004" style="stop-color:#A5ACAC"/>
	<stop  offset="1" style="stop-color:#656B6C"/>
</linearGradient>
<path style="fill:url(#SVGID_00000009567330973110113930000010811421086867955386_);stroke:#000000;stroke-width:4;stroke-miterlimit:10;" d="
	M91.3,727.2c0,0,0.4,83.2,164.7,83.2s164.7-83.2,164.7-83.2v-70.1c0,0-5.4,76.7-161.7,78.9c-157.6,2.2-167.7-78.9-167.7-78.9V727.2z
	"/>
<linearGradient id="SVGID_00000033326827199539545760000001288965464562047375_" gradientUnits="userSpaceOnUse" x1="256" y1="-702" x2="256" y2="-543.6" gradientTransform="matrix(1 0 0 1 0 1280)">
	<stop  offset="0" style="stop-color:#CFCDCD"/>
	<stop  offset="0.5004" style="stop-color:#A5ACAC"/>
	<stop  offset="1" style="stop-color:#656B6C"/>
</linearGradient>
<ellipse style="fill:url(#SVGID_00000033326827199539545760000001288965464562047375_);stroke:#000000;stroke-width:4;stroke-miterlimit:10;" cx="256" cy="657.2" rx="164.7" ry="79.2"/>
<linearGradient id="SVGID_00000006694500441756842420000011944532066240544680_" gradientUnits="userSpaceOnUse" x1="91.3" y1="-470.55" x2="420.7" y2="-470.55" gradientTransform="matrix(1 0 0 1 0 1280)">
	<stop  offset="0" style="stop-color:#CFCDCD"/>
	<stop  offset="0.5004" style="stop-color:#A5ACAC"/>
	<stop  offset="1" style="stop-color:#656B6C"/>
</linearGradient>
<path style="fill:url(#SVGID_00000006694500441756842420000011944532066240544680_);stroke:#000000;stroke-width:4;stroke-miterlimit:10;" d="
	M91.3,802.9c0,0,0.4,83.2,164.7,83.2s164.7-83.2,164.7-83.2v-70.1c0,0-5.4,76.7-161.7,78.9c-157.6,2.2-167.7-78.9-167.7-78.9V802.9z
	"/>
<linearGradient id="SVGID_00000129191150789793167110000017031363864894949801_" gradientUnits="userSpaceOnUse" x1="91.3" y1="-398.65" x2="420.7" y2="-398.65" gradientTransform="matrix(1 0 0 1 0 1280)">
	<stop  offset="0" style="stop-color:#CFCDCD"/>
	<stop  offset="0.5004" style="stop-color:#A5ACAC"/>
	<stop  offset="1" style="stop-color:#656B6C"/>
</linearGradient>
<path style="fill:url(#SVGID_00000129191150789793167110000017031363864894949801_);stroke:#000000;stroke-width:4;stroke-miterlimit:10;" d="
	M91.3,874.8c0,0,0.4,83.2,164.7,83.2s164.7-83.2,164.7-83.2v-70.1c0,0-5.4,76.7-161.7,78.9c-157.6,2.2-167.7-78.9-167.7-78.9V874.8z
	"/>
<linearGradient id="SVGID_00000080169485178563786980000004316682868313434271_" gradientUnits="userSpaceOnUse" x1="91.3" y1="-34.2501" x2="420.7" y2="-34.2501" gradientTransform="matrix(1 0 0 1 0 1280)">
	<stop  offset="0" style="stop-color:#CFCDCD"/>
	<stop  offset="0.5004" style="stop-color:#A5ACAC"/>
	<stop  offset="1" style="stop-color:#656B6C"/>
</linearGradient>
<path style="fill:url(#SVGID_00000080169485178563786980000004316682868313434271_);stroke:#000000;stroke-width:4;stroke-miterlimit:10;" d="
	M91.3,1239.2c0,0,0.4,83.2,164.7,83.2s164.7-83.2,164.7-83.2v-70.1c0,0-5.4,76.7-161.7,78.9c-157.6,2.2-167.7-78.9-167.7-78.9
	V1239.2z"/>
<linearGradient id="SVGID_00000093155455214192990570000006847795085551478930_" gradientUnits="userSpaceOnUse" x1="256" y1="-190" x2="256" y2="-31.6001" gradientTransform="matrix(1 0 0 1 0 1280)">
	<stop  offset="0" style="stop-color:#CFCDCD"/>
	<stop  offset="0.5004" style="stop-color:#A5ACAC"/>
	<stop  offset="1" style="stop-color:#656B6C"/>
</linearGradient>
<ellipse style="fill:url(#SVGID_00000093155455214192990570000006847795085551478930_);stroke:#000000;stroke-width:4;stroke-miterlimit:10;" cx="256" cy="1169.2" rx="164.7" ry="79.2"/>
<linearGradient id="SVGID_00000113327383250560091640000018010607440641086908_" gradientUnits="userSpaceOnUse" x1="91.3" y1="41.45" x2="420.7" y2="41.45" gradientTransform="matrix(1 0 0 1 0 1280)">
	<stop  offset="0" style="stop-color:#CFCDCD"/>
	<stop  offset="0.5004" style="stop-color:#A5ACAC"/>
	<stop  offset="1" style="stop-color:#656B6C"/>
</linearGradient>
<path style="fill:url(#SVGID_00000113327383250560091640000018010607440641086908_);stroke:#000000;stroke-width:4;stroke-miterlimit:10;" d="
	M91.3,1314.9c0,0,0.4,83.2,164.7,83.2s164.7-83.2,164.7-83.2v-70.1c0,0-5.4,76.7-161.7,78.9c-157.6,2.2-167.7-78.9-167.7-78.9
	V1314.9z"/>
<linearGradient id="SVGID_00000107554471780647680650000008265356933246779536_" gradientUnits="userSpaceOnUse" x1="91.3" y1="113.35" x2="420.7" y2="113.35" gradientTransform="matrix(1 0 0 1 0 1280)">
	<stop  offset="0" style="stop-color:#CFCDCD"/>
	<stop  offset="0.5004" style="stop-color:#A5ACAC"/>
	<stop  offset="1" style="stop-color:#656B6C"/>
</linearGradient>
<path style="fill:url(#SVGID_00000107554471780647680650000008265356933246779536_);stroke:#000000;stroke-width:4;stroke-miterlimit:10;" d="
	M91.3,1386.8c0,0,0.4,83.2,164.7,83.2s164.7-83.2,164.7-83.2v-70.1c0,0-5.4,76.7-161.7,78.9c-157.6,2.2-167.7-78.9-167.7-78.9
	V1386.8z"/>
<linearGradient id="SVGID_00000080897861438810341150000010097293064133488825_" gradientUnits="userSpaceOnUse" x1="91.3" y1="477.7499" x2="420.7" y2="477.7499" gradientTransform="matrix(1 0 0 1 0 1280)">
	<stop  offset="0" style="stop-color:#CFCDCD"/>
	<stop  offset="0.5004" style="stop-color:#A5ACAC"/>
	<stop  offset="1" style="stop-color:#656B6C"/>
</linearGradient>
<path style="fill:url(#SVGID_00000080897861438810341150000010097293064133488825_);stroke:#000000;stroke-width:4;stroke-miterlimit:10;" d="
	M91.3,1751.2c0,0,0.4,83.2,164.7,83.2s164.7-83.2,164.7-83.2v-70.1c0,0-5.4,76.7-161.7,78.9c-157.6,2.2-167.7-78.9-167.7-78.9
	V1751.2z"/>
<linearGradient id="SVGID_00000169546637940104084490000011769174261540096395_" gradientUnits="userSpaceOnUse" x1="256" y1="322" x2="256" y2="480.3999" gradientTransform="matrix(1 0 0 1 0 1280)">
	<stop  offset="0" style="stop-color:#CFCDCD"/>
	<stop  offset="0.5004" style="stop-color:#A5ACAC"/>
	<stop  offset="1" style="stop-color:#656B6C"/>
</linearGradient>
<ellipse style="fill:url(#SVGID_00000169546637940104084490000011769174261540096395_);stroke:#000000;stroke-width:4;stroke-miterlimit:10;" cx="256" cy="1681.2" rx="164.7" ry="79.2"/>
<linearGradient id="SVGID_00000095326016184183619240000005391204110161578674_" gradientUnits="userSpaceOnUse" x1="91.3" y1="553.45" x2="420.7" y2="553.45" gradientTransform="matrix(1 0 0 1 0 1280)">
	<stop  offset="0" style="stop-color:#CFCDCD"/>
	<stop  offset="0.5004" style="stop-color:#A5ACAC"/>
	<stop  offset="1" style="stop-color:#656B6C"/>
</linearGradient>
<path style="fill:url(#SVGID_00000095326016184183619240000005391204110161578674_);stroke:#000000;stroke-width:4;stroke-miterlimit:10;" d="
	M91.3,1826.9c0,0,0.4,83.2,164.7,83.2s164.7-83.2,164.7-83.2v-70.1c0,0-5.4,76.7-161.7,78.9c-157.6,2.2-167.7-78.9-167.7-78.9
	V1826.9z"/>
<linearGradient id="SVGID_00000172435046782920039570000000739964808199025304_" gradientUnits="userSpaceOnUse" x1="91.3" y1="625.35" x2="420.7" y2="625.35" gradientTransform="matrix(1 0 0 1 0 1280)">
	<stop  offset="0" style="stop-color:#CFCDCD"/>
	<stop  offset="0.5004" style="stop-color:#A5ACAC"/>
	<stop  offset="1" style="stop-color:#656B6C"/>
</linearGradient>
<path style="fill:url(#SVGID_00000172435046782920039570000000739964808199025304_);stroke:#000000;stroke-width:4;stroke-miterlimit:10;" d="
	M91.3,1898.8c0,0,0.4,83.2,164.7,83.2s164.7-83.2,164.7-83.2v-70.1c0,0-5.4,76.7-161.7,78.9c-157.6,2.2-167.7-78.9-167.7-78.9
	V1898.8z"/>
<path class="st16" d="M204.1,1778.3l91.1,52.6v-34.1l0,0c86.6,0,156.8-70.2,156.8-156.8c0-8.4-0.7-16.6-1.9-24.6h-53
	c0.7,5.2,1.1,10.4,1.1,15.8c0,59.7-45,108.9-103,115.6v-21.1L204.1,1778.3z"/>
<path class="st16" d="M214.1,1266.3l91.1,52.6v-34.1l0,0c86.6,0,156.8-70.2,156.8-156.8c0-8.4-0.7-16.6-1.9-24.6h-53
	c0.7,5.2,1.1,10.4,1.1,15.8c0,59.7-45,108.9-103,115.6v-21.1L214.1,1266.3z"/>
<path class="st16" d="M214.1,754.3l91.1,52.6v-34.1l0,0c86.6,0,156.8-70.2,156.8-156.8c0-8.4-0.7-16.6-1.9-24.6h-53
	c0.7,5.2,1.1,10.4,1.1,15.8c0,59.7-45,108.9-103,115.6v-21.1L214.1,754.3z"/>
<path class="st16" d="M214.1,242.3l91.1,52.6v-34.1l0,0c86.6,0,156.8-70.2,156.8-156.8c0-8.4-0.7-16.6-1.9-24.6h-53
	c0.7,5.2,1.1,10.4,1.1,15.8c0,59.7-45,108.9-103,115.6v-21.1L214.1,242.3z"/>
<linearGradient id="SVGID_00000083775197689470458900000006438203444120503691_" gradientUnits="userSpaceOnUse" x1="208.5" y1="3151.25" x2="456.5" y2="3151.25" gradientTransform="matrix(-1 0 0 1 665 -2972.5)">
	<stop  offset="0" style="stop-color:#AAD9E9"/>
	<stop  offset="1" style="stop-color:#276DB4"/>
</linearGradient>
<path style="fill:url(#SVGID_00000083775197689470458900000006438203444120503691_);stroke:#030304;stroke-width:4;stroke-miterlimit:10;" d="
	M208.5,233.9l91.2,52.6v-34.1l0,0c86.6,0,156.8-70.2,156.8-156.8c0-8.4-0.7-16.6-1.9-24.6h-53c0.7,5.2,1.1,10.4,1.1,15.8
	c0,59.7-45,108.9-103,115.6v-21.1L208.5,233.9z"/>
<linearGradient id="SVGID_00000039841592272122476530000004687116951050789549_" gradientUnits="userSpaceOnUse" x1="208.5" y1="2639.25" x2="456.5" y2="2639.25" gradientTransform="matrix(-1 0 0 1 665 -1948.5001)">
	<stop  offset="0" style="stop-color:#FED908"/>
	<stop  offset="1" style="stop-color:#BF8010"/>
</linearGradient>
<path style="fill:url(#SVGID_00000039841592272122476530000004687116951050789549_);stroke:#020203;stroke-width:4;stroke-miterlimit:10;" d="
	M208.5,745.9l91.2,52.6v-34.1l0,0c86.6,0,156.8-70.2,156.8-156.8c0-8.4-0.7-16.6-1.9-24.6h-53c0.7,5.2,1.1,10.4,1.1,15.8
	c0,59.7-45,108.9-103,115.6v-21.1L208.5,745.9z"/>
<linearGradient id="SVGID_00000018235613881992100190000018114134393949470134_" gradientUnits="userSpaceOnUse" x1="208.6" y1="2127.25" x2="456.5" y2="2127.25" gradientTransform="matrix(-1 0 0 1 665.1 -924.5)">
	<stop  offset="0" style="stop-color:#9CCA85"/>
	<stop  offset="1" style="stop-color:#368E36"/>
</linearGradient>
<path style="fill:url(#SVGID_00000018235613881992100190000018114134393949470134_);stroke:#020203;stroke-width:4;stroke-miterlimit:10;" d="
	M208.6,1257.9l91.1,52.6v-34.1l0,0c86.6,0,156.8-70.2,156.8-156.8c0-8.4-0.7-16.6-1.9-24.6h-53c0.7,5.2,1.1,10.4,1.1,15.8
	c0,59.7-45,108.9-103,115.6v-21.1L208.6,1257.9z"/>
<linearGradient id="SVGID_00000117658802734498574520000012436081311301502142_" gradientUnits="userSpaceOnUse" x1="198.6" y1="1615.25" x2="446.5" y2="1615.25" gradientTransform="matrix(-1 0 0 1 645.1 99.5)">
	<stop  offset="0" style="stop-color:#DEDEDE"/>
	<stop  offset="1" style="stop-color:#6F6F6F"/>
</linearGradient>
<path style="fill:url(#SVGID_00000117658802734498574520000012436081311301502142_);stroke:#000000;stroke-width:4;stroke-miterlimit:10;" d="
	M198.6,1769.9l91.1,52.6v-34.1l0,0c86.6,0,156.8-70.2,156.8-156.8c0-8.4-0.7-16.6-1.9-24.6h-53c0.7,5.2,1.1,10.4,1.1,15.8
	c0,59.7-45,108.9-103,115.6v-21.1L198.6,1769.9z"/>
</svg>
