<?xml version="1.0" encoding="utf-8"?>
<!-- Generator: Adobe Illustrator 27.1.0, SVG Export Plug-In . SVG Version: 6.00 Build 0)  -->
<svg version="1.1" id="Calque_1" xmlns="http://www.w3.org/2000/svg" xmlns:xlink="http://www.w3.org/1999/xlink" x="0px" y="0px"
	 viewBox="0 0 512 2048" style="enable-background:new 0 0 512 2048;" xml:space="preserve">
<style type="text/css">
	.st0{fill:url(#SVGID_1_);stroke:#000000;stroke-width:4;stroke-miterlimit:10;}
	.st1{fill:url(#SVGID_00000162346865421890045990000018011972074886062725_);stroke:#000000;stroke-width:4;stroke-miterlimit:10;}
	.st2{fill:url(#SVGID_00000183934064340705091060000003248211318337206706_);stroke:#000000;stroke-width:4;stroke-miterlimit:10;}
	.st3{fill:url(#SVGID_00000091014398132583637340000000819967314980665790_);stroke:#000000;stroke-width:4;stroke-miterlimit:10;}
	.st4{fill:url(#SVGID_00000176752385376024039380000011897975646784001926_);stroke:#000000;stroke-width:4;stroke-miterlimit:10;}
	.st5{fill:url(#SVGID_00000126302843377569597990000012380966007036339846_);stroke:#000000;stroke-width:4;stroke-miterlimit:10;}
	.st6{fill:url(#SVGID_00000139284504289000418550000015948495754352872891_);stroke:#000000;stroke-width:4;stroke-miterlimit:10;}
	.st7{fill:url(#SVGID_00000082359946242607699900000004487895155836491907_);stroke:#000000;stroke-width:4;stroke-miterlimit:10;}
	.st8{fill:url(#SVGID_00000047030712974884020760000014046393744199319684_);stroke:#000000;stroke-width:4;stroke-miterlimit:10;}
	.st9{fill:url(#SVGID_00000173861908027033357510000011976335775915146662_);stroke:#000000;stroke-width:4;stroke-miterlimit:10;}
	.st10{fill:url(#SVGID_00000131361135664096376960000016443797823793649566_);stroke:#000000;stroke-width:4;stroke-miterlimit:10;}
	.st11{fill:url(#SVGID_00000156580764241761876400000003677298475606076069_);stroke:#000000;stroke-width:4;stroke-miterlimit:10;}
	.st12{fill:url(#SVGID_00000154404233007009014470000009812506438494649768_);stroke:#000000;stroke-width:4;stroke-miterlimit:10;}
	.st13{fill:url(#SVGID_00000015343513965210437350000002850609579400689844_);stroke:#000000;stroke-width:4;stroke-miterlimit:10;}
	.st14{fill:url(#SVGID_00000026153268080636293190000005041664043909843099_);stroke:#000000;stroke-width:4;stroke-miterlimit:10;}
	.st15{fill:url(#SVGID_00000052803190231568823470000004693714034542687114_);stroke:#000000;stroke-width:4;stroke-miterlimit:10;}
	.st16{opacity:0.5;fill:none;stroke:#3C3C3B;stroke-width:16;stroke-miterlimit:10;enable-background:new    ;}
	.st17{fill:url(#SVGID_00000023242902718314791810000005209293297603875478_);stroke:#000000;stroke-width:4;stroke-miterlimit:10;}
	.st18{opacity:0.5;fill:url(#SVGID_00000024696332862855361720000013288327354759553682_);enable-background:new    ;}
	.st19{fill:url(#SVGID_00000168810784131592844020000012047683003089018015_);stroke:#000000;stroke-width:4;stroke-miterlimit:10;}
	.st20{opacity:0.5;fill:url(#SVGID_00000059290949129666634030000008624496369118543544_);enable-background:new    ;}
	.st21{opacity:0.5;fill:none;stroke:#1A1A1A;stroke-width:16;stroke-miterlimit:10;enable-background:new    ;}
	.st22{fill:url(#SVGID_00000176037613581247883540000007007811296132511158_);stroke:#000000;stroke-width:4;stroke-miterlimit:10;}
	.st23{opacity:0.5;fill:url(#SVGID_00000091699977870048594100000018190142043343980206_);enable-background:new    ;}
	.st24{fill:url(#SVGID_00000080895575739453874100000017539439839194708908_);stroke:#000000;stroke-width:4;stroke-miterlimit:10;}
	.st25{opacity:0.5;fill:url(#SVGID_00000096747377542433571490000005569281296594999970_);enable-background:new    ;}
</style>
<linearGradient id="SVGID_1_" gradientUnits="userSpaceOnUse" x1="91.3" y1="1826.25" x2="420.7" y2="1826.25" gradientTransform="matrix(1 0 0 -1 0 2048)">
	<stop  offset="0" style="stop-color:#CFCDCD"/>
	<stop  offset="0.5004" style="stop-color:#A5ACAC"/>
	<stop  offset="1" style="stop-color:#656B6C"/>
</linearGradient>
<path class="st0" d="M91.3,215.2c0,0,0.4,83.2,164.7,83.2s164.7-83.2,164.7-83.2v-70.1c0,0-5.4,76.7-161.7,78.9
	c-157.6,2.2-167.7-78.9-167.7-78.9V215.2z"/>
<linearGradient id="SVGID_00000165193951577682684240000003799555656271569848_" gradientUnits="userSpaceOnUse" x1="256" y1="1982" x2="256" y2="1823.6" gradientTransform="matrix(1 0 0 -1 0 2048)">
	<stop  offset="0" style="stop-color:#CFCDCD"/>
	<stop  offset="0.5004" style="stop-color:#A5ACAC"/>
	<stop  offset="1" style="stop-color:#656B6C"/>
</linearGradient>
<ellipse style="fill:url(#SVGID_00000165193951577682684240000003799555656271569848_);stroke:#000000;stroke-width:4;stroke-miterlimit:10;" cx="256" cy="145.2" rx="164.7" ry="79.2"/>
<linearGradient id="SVGID_00000012467459660225359650000000488683291985736323_" gradientUnits="userSpaceOnUse" x1="91.3" y1="1750.55" x2="420.7" y2="1750.55" gradientTransform="matrix(1 0 0 -1 0 2048)">
	<stop  offset="0" style="stop-color:#CFCDCD"/>
	<stop  offset="0.5004" style="stop-color:#A5ACAC"/>
	<stop  offset="1" style="stop-color:#656B6C"/>
</linearGradient>
<path style="fill:url(#SVGID_00000012467459660225359650000000488683291985736323_);stroke:#000000;stroke-width:4;stroke-miterlimit:10;" d="
	M91.3,290.9c0,0,0.4,83.2,164.7,83.2s164.7-83.2,164.7-83.2v-70.1c0,0-5.4,76.7-161.7,78.9c-157.6,2.2-167.7-78.9-167.7-78.9V290.9z
	"/>
<linearGradient id="SVGID_00000157293999420560639610000018025176398867382661_" gradientUnits="userSpaceOnUse" x1="91.3" y1="1678.65" x2="420.7" y2="1678.65" gradientTransform="matrix(1 0 0 -1 0 2048)">
	<stop  offset="0" style="stop-color:#CFCDCD"/>
	<stop  offset="0.5004" style="stop-color:#A5ACAC"/>
	<stop  offset="1" style="stop-color:#656B6C"/>
</linearGradient>
<path style="fill:url(#SVGID_00000157293999420560639610000018025176398867382661_);stroke:#000000;stroke-width:4;stroke-miterlimit:10;" d="
	M91.3,362.8c0,0,0.4,83.2,164.7,83.2s164.7-83.2,164.7-83.2v-70.1c0,0-5.4,76.7-161.7,78.9c-157.6,2.2-167.7-78.9-167.7-78.9V362.8z
	"/>
<linearGradient id="SVGID_00000111188791916038343880000000958480164130611112_" gradientUnits="userSpaceOnUse" x1="91.3" y1="1314.25" x2="420.7" y2="1314.25" gradientTransform="matrix(1 0 0 -1 0 2048)">
	<stop  offset="0" style="stop-color:#CFCDCD"/>
	<stop  offset="0.5004" style="stop-color:#A5ACAC"/>
	<stop  offset="1" style="stop-color:#656B6C"/>
</linearGradient>
<path style="fill:url(#SVGID_00000111188791916038343880000000958480164130611112_);stroke:#000000;stroke-width:4;stroke-miterlimit:10;" d="
	M91.3,727.2c0,0,0.4,83.2,164.7,83.2s164.7-83.2,164.7-83.2v-70.1c0,0-5.4,76.7-161.7,78.9c-157.6,2.2-167.7-78.9-167.7-78.9V727.2z
	"/>
<linearGradient id="SVGID_00000021813166067567064790000009540458014402859142_" gradientUnits="userSpaceOnUse" x1="256" y1="1470" x2="256" y2="1311.6" gradientTransform="matrix(1 0 0 -1 0 2048)">
	<stop  offset="0" style="stop-color:#CFCDCD"/>
	<stop  offset="0.5004" style="stop-color:#A5ACAC"/>
	<stop  offset="1" style="stop-color:#656B6C"/>
</linearGradient>
<ellipse style="fill:url(#SVGID_00000021813166067567064790000009540458014402859142_);stroke:#000000;stroke-width:4;stroke-miterlimit:10;" cx="256" cy="657.2" rx="164.7" ry="79.2"/>
<linearGradient id="SVGID_00000001646098977701832190000010725185257415073720_" gradientUnits="userSpaceOnUse" x1="91.3" y1="1238.55" x2="420.7" y2="1238.55" gradientTransform="matrix(1 0 0 -1 0 2048)">
	<stop  offset="0" style="stop-color:#CFCDCD"/>
	<stop  offset="0.5004" style="stop-color:#A5ACAC"/>
	<stop  offset="1" style="stop-color:#656B6C"/>
</linearGradient>
<path style="fill:url(#SVGID_00000001646098977701832190000010725185257415073720_);stroke:#000000;stroke-width:4;stroke-miterlimit:10;" d="
	M91.3,802.9c0,0,0.4,83.2,164.7,83.2s164.7-83.2,164.7-83.2v-70.1c0,0-5.4,76.7-161.7,78.9c-157.6,2.2-167.7-78.9-167.7-78.9V802.9z
	"/>
<linearGradient id="SVGID_00000027604096291967381760000009160893926313168819_" gradientUnits="userSpaceOnUse" x1="91.3" y1="1166.65" x2="420.7" y2="1166.65" gradientTransform="matrix(1 0 0 -1 0 2048)">
	<stop  offset="0" style="stop-color:#CFCDCD"/>
	<stop  offset="0.5004" style="stop-color:#A5ACAC"/>
	<stop  offset="1" style="stop-color:#656B6C"/>
</linearGradient>
<path style="fill:url(#SVGID_00000027604096291967381760000009160893926313168819_);stroke:#000000;stroke-width:4;stroke-miterlimit:10;" d="
	M91.3,874.8c0,0,0.4,83.2,164.7,83.2s164.7-83.2,164.7-83.2v-70.1c0,0-5.4,76.7-161.7,78.9c-157.6,2.2-167.7-78.9-167.7-78.9V874.8z
	"/>
<linearGradient id="SVGID_00000078735022164963748590000011068357315449770679_" gradientUnits="userSpaceOnUse" x1="91.3" y1="802.25" x2="420.7" y2="802.25" gradientTransform="matrix(1 0 0 -1 0 2048)">
	<stop  offset="0" style="stop-color:#CFCDCD"/>
	<stop  offset="0.5004" style="stop-color:#A5ACAC"/>
	<stop  offset="1" style="stop-color:#656B6C"/>
</linearGradient>
<path style="fill:url(#SVGID_00000078735022164963748590000011068357315449770679_);stroke:#000000;stroke-width:4;stroke-miterlimit:10;" d="
	M91.3,1239.2c0,0,0.4,83.2,164.7,83.2s164.7-83.2,164.7-83.2v-70.1c0,0-5.4,76.7-161.7,78.9c-157.6,2.2-167.7-78.9-167.7-78.9
	V1239.2z"/>
<linearGradient id="SVGID_00000083076745844048837480000007040144968155558542_" gradientUnits="userSpaceOnUse" x1="256" y1="958" x2="256" y2="799.6" gradientTransform="matrix(1 0 0 -1 0 2048)">
	<stop  offset="0" style="stop-color:#CFCDCD"/>
	<stop  offset="0.5004" style="stop-color:#A5ACAC"/>
	<stop  offset="1" style="stop-color:#656B6C"/>
</linearGradient>
<ellipse style="fill:url(#SVGID_00000083076745844048837480000007040144968155558542_);stroke:#000000;stroke-width:4;stroke-miterlimit:10;" cx="256" cy="1169.2" rx="164.7" ry="79.2"/>
<linearGradient id="SVGID_00000064332060175443120470000001724211033344264601_" gradientUnits="userSpaceOnUse" x1="91.3" y1="726.55" x2="420.7" y2="726.55" gradientTransform="matrix(1 0 0 -1 0 2048)">
	<stop  offset="0" style="stop-color:#CFCDCD"/>
	<stop  offset="0.5004" style="stop-color:#A5ACAC"/>
	<stop  offset="1" style="stop-color:#656B6C"/>
</linearGradient>
<path style="fill:url(#SVGID_00000064332060175443120470000001724211033344264601_);stroke:#000000;stroke-width:4;stroke-miterlimit:10;" d="
	M91.3,1314.9c0,0,0.4,83.2,164.7,83.2s164.7-83.2,164.7-83.2v-70.1c0,0-5.4,76.7-161.7,78.9c-157.6,2.2-167.7-78.9-167.7-78.9
	V1314.9z"/>
<linearGradient id="SVGID_00000142140061681650724250000002367773006693719457_" gradientUnits="userSpaceOnUse" x1="91.3" y1="654.65" x2="420.7" y2="654.65" gradientTransform="matrix(1 0 0 -1 0 2048)">
	<stop  offset="0" style="stop-color:#CFCDCD"/>
	<stop  offset="0.5004" style="stop-color:#A5ACAC"/>
	<stop  offset="1" style="stop-color:#656B6C"/>
</linearGradient>
<path style="fill:url(#SVGID_00000142140061681650724250000002367773006693719457_);stroke:#000000;stroke-width:4;stroke-miterlimit:10;" d="
	M91.3,1386.8c0,0,0.4,83.2,164.7,83.2s164.7-83.2,164.7-83.2v-70.1c0,0-5.4,76.7-161.7,78.9c-157.6,2.2-167.7-78.9-167.7-78.9
	V1386.8z"/>
<linearGradient id="SVGID_00000014617036539772061170000014597498654266686626_" gradientUnits="userSpaceOnUse" x1="91.3" y1="290.25" x2="420.7" y2="290.25" gradientTransform="matrix(1 0 0 -1 0 2048)">
	<stop  offset="0" style="stop-color:#CFCDCD"/>
	<stop  offset="0.5004" style="stop-color:#A5ACAC"/>
	<stop  offset="1" style="stop-color:#656B6C"/>
</linearGradient>
<path style="fill:url(#SVGID_00000014617036539772061170000014597498654266686626_);stroke:#000000;stroke-width:4;stroke-miterlimit:10;" d="
	M91.3,1751.2c0,0,0.4,83.2,164.7,83.2s164.7-83.2,164.7-83.2v-70.1c0,0-5.4,76.7-161.7,78.9c-157.6,2.2-167.7-78.9-167.7-78.9
	V1751.2z"/>
<linearGradient id="SVGID_00000116223462702644967970000016225233893917910664_" gradientUnits="userSpaceOnUse" x1="256" y1="446" x2="256" y2="287.6" gradientTransform="matrix(1 0 0 -1 0 2048)">
	<stop  offset="0" style="stop-color:#CFCDCD"/>
	<stop  offset="0.5004" style="stop-color:#A5ACAC"/>
	<stop  offset="1" style="stop-color:#656B6C"/>
</linearGradient>
<ellipse style="fill:url(#SVGID_00000116223462702644967970000016225233893917910664_);stroke:#000000;stroke-width:4;stroke-miterlimit:10;" cx="256" cy="1681.2" rx="164.7" ry="79.2"/>
<linearGradient id="SVGID_00000170992803236306365800000003405393893547397045_" gradientUnits="userSpaceOnUse" x1="91.3" y1="214.55" x2="420.7" y2="214.55" gradientTransform="matrix(1 0 0 -1 0 2048)">
	<stop  offset="0" style="stop-color:#CFCDCD"/>
	<stop  offset="0.5004" style="stop-color:#A5ACAC"/>
	<stop  offset="1" style="stop-color:#656B6C"/>
</linearGradient>
<path style="fill:url(#SVGID_00000170992803236306365800000003405393893547397045_);stroke:#000000;stroke-width:4;stroke-miterlimit:10;" d="
	M91.3,1826.9c0,0,0.4,83.2,164.7,83.2s164.7-83.2,164.7-83.2v-70.1c0,0-5.4,76.7-161.7,78.9c-157.6,2.2-167.7-78.9-167.7-78.9
	V1826.9z"/>
<linearGradient id="SVGID_00000117660689006142958700000004053069121977154974_" gradientUnits="userSpaceOnUse" x1="91.3" y1="142.65" x2="420.7" y2="142.65" gradientTransform="matrix(1 0 0 -1 0 2048)">
	<stop  offset="0" style="stop-color:#CFCDCD"/>
	<stop  offset="0.5004" style="stop-color:#A5ACAC"/>
	<stop  offset="1" style="stop-color:#656B6C"/>
</linearGradient>
<path style="fill:url(#SVGID_00000117660689006142958700000004053069121977154974_);stroke:#000000;stroke-width:4;stroke-miterlimit:10;" d="
	M91.3,1898.8c0,0,0.4,83.2,164.7,83.2s164.7-83.2,164.7-83.2v-70.1c0,0-5.4,76.7-161.7,78.9c-157.6,2.2-167.7-78.9-167.7-78.9
	V1898.8z"/>
<polygon class="st16" points="337.5,119 263.4,193.1 189.3,119 119.6,188.8 193.7,262.9 119.6,337 189.3,406.7 263.4,332.6 
	337.5,406.7 407.3,337 333.2,262.9 407.3,188.8 "/>
<linearGradient id="SVGID_00000111872822448161170240000007646417342912062869_" gradientUnits="userSpaceOnUse" x1="256.55" y1="2928.2" x2="256.55" y2="3215.8" gradientTransform="matrix(1 0 0 -1 0 3328)">
	<stop  offset="0" style="stop-color:#A8D9EA"/>
	<stop  offset="1" style="stop-color:#236BB3"/>
</linearGradient>
<polygon style="fill:url(#SVGID_00000111872822448161170240000007646417342912062869_);stroke:#000000;stroke-width:4;stroke-miterlimit:10;" points="
	330.7,112.2 256.6,186.3 182.5,112.2 112.7,181.9 186.8,256 112.7,330.1 182.5,399.8 256.6,325.7 330.7,399.8 400.4,330.1 
	326.3,256 400.4,181.9 "/>
<linearGradient id="SVGID_00000145019353413151748770000017300164132697952653_" gradientUnits="userSpaceOnUse" x1="255.85" y1="2934.6001" x2="255.85" y2="3076.3" gradientTransform="matrix(1 0 0 -1 0 3328)">
	<stop  offset="0" style="stop-color:#FFFEF9"/>
	<stop  offset="1" style="stop-color:#1A63AB"/>
</linearGradient>
<path style="opacity:0.5;fill:url(#SVGID_00000145019353413151748770000017300164132697952653_);enable-background:new    ;" d="
	M192.6,258.8l-71,71.1l56.8,63.5l80.3-78.9l70.1,75.7l61.3-59.8l-75.7-78.7c0,0-27.5,18-41.4,18s-37.8-11-49.2-13.8
	C212.3,253.2,192.6,258.8,192.6,258.8z"/>
<polygon class="st16" points="338.7,1143 264.6,1217.1 190.5,1143 120.7,1212.8 194.8,1286.9 120.7,1361 190.5,1430.7 264.6,1356.6 
	338.7,1430.7 408.4,1361 334.3,1286.9 408.4,1212.8 "/>
<linearGradient id="SVGID_00000021820428259488826880000011487810788675660682_" gradientUnits="userSpaceOnUse" x1="257.7" y1="1904.2" x2="257.7" y2="2191.8" gradientTransform="matrix(1 0 0 -1 0 3328)">
	<stop  offset="0" style="stop-color:#9CCA84"/>
	<stop  offset="1" style="stop-color:#348E37"/>
</linearGradient>
<polygon style="fill:url(#SVGID_00000021820428259488826880000011487810788675660682_);stroke:#000000;stroke-width:4;stroke-miterlimit:10;" points="
	331.8,1136.2 257.7,1210.3 183.6,1136.2 113.9,1205.9 188,1280 113.9,1354.1 183.6,1423.8 257.7,1349.7 331.8,1423.8 401.5,1354.1 
	327.4,1280 401.5,1205.9 "/>
<linearGradient id="SVGID_00000147919179555765345760000012135578482458534079_" gradientUnits="userSpaceOnUse" x1="256.95" y1="1910.6" x2="256.95" y2="2052.3" gradientTransform="matrix(1 0 0 -1 0 3328)">
	<stop  offset="0" style="stop-color:#FFFEF9"/>
	<stop  offset="1" style="stop-color:#1A63AB"/>
</linearGradient>
<path style="opacity:0.5;fill:url(#SVGID_00000147919179555765345760000012135578482458534079_);enable-background:new    ;" d="
	M193.7,1282.8l-71,71.1l56.8,63.5l80.3-78.9l70.1,75.7l61.3-59.8l-75.7-78.7c0,0-27.5,18-41.4,18s-37.8-11-49.2-13.8
	S193.7,1282.8,193.7,1282.8z"/>
<polygon class="st21" points="338.5,1655 264.4,1729.1 190.3,1655 120.6,1724.8 194.7,1798.9 120.6,1873 190.3,1942.7 264.4,1868.6 
	338.5,1942.7 408.2,1873 334.1,1798.9 408.2,1724.8 "/>
<linearGradient id="SVGID_00000104687825152832021430000011560682062256516486_" gradientUnits="userSpaceOnUse" x1="257.55" y1="1392.2" x2="257.55" y2="1679.8" gradientTransform="matrix(1 0 0 -1 0 3328)">
	<stop  offset="0" style="stop-color:#DDDDDD"/>
	<stop  offset="1" style="stop-color:#6D6D6D"/>
</linearGradient>
<polygon style="fill:url(#SVGID_00000104687825152832021430000011560682062256516486_);stroke:#000000;stroke-width:4;stroke-miterlimit:10;" points="
	331.6,1648.2 257.6,1722.3 183.5,1648.2 113.7,1717.9 187.8,1792 113.7,1866.1 183.5,1935.8 257.6,1861.7 331.6,1935.8 
	401.4,1866.1 327.3,1792 401.4,1717.9 "/>
<linearGradient id="SVGID_00000134242306937499670220000013060247206785384840_" gradientUnits="userSpaceOnUse" x1="256.85" y1="1398.6" x2="256.85" y2="1540.3" gradientTransform="matrix(1 0 0 -1 0 3328)">
	<stop  offset="0" style="stop-color:#FEFEFE"/>
	<stop  offset="1" style="stop-color:#636363"/>
</linearGradient>
<path style="opacity:0.5;fill:url(#SVGID_00000134242306937499670220000013060247206785384840_);enable-background:new    ;" d="
	M193.6,1794.8l-71,71.1l56.8,63.5l80.3-78.9l70.1,75.7l61.3-59.8l-75.7-78.7c0,0-27.5,18-41.4,18s-37.8-11-49.2-13.8
	S193.6,1794.8,193.6,1794.8z"/>
<polygon class="st16" points="338.1,631 264,705.1 189.9,631 120.2,700.8 194.3,774.9 120.2,849 189.9,918.7 264,844.6 338.1,918.7 
	407.8,849 333.7,774.9 407.8,700.8 "/>
<linearGradient id="SVGID_00000113317826954390448080000006386111413348741545_" gradientUnits="userSpaceOnUse" x1="257.15" y1="2416.2" x2="257.15" y2="2703.8" gradientTransform="matrix(1 0 0 -1 0 3328)">
	<stop  offset="0" style="stop-color:#FED905"/>
	<stop  offset="1" style="stop-color:#C08010"/>
</linearGradient>
<polygon style="fill:url(#SVGID_00000113317826954390448080000006386111413348741545_);stroke:#000000;stroke-width:4;stroke-miterlimit:10;" points="
	331.2,624.2 257.1,698.3 183,624.2 113.3,693.9 187.4,768 113.3,842.1 183,911.8 257.1,837.7 331.2,911.8 401,842.1 326.9,768 
	401,693.9 "/>
<linearGradient id="SVGID_00000009549610334394331410000014618578715045565862_" gradientUnits="userSpaceOnUse" x1="256.45" y1="2422.6001" x2="256.45" y2="2564.3" gradientTransform="matrix(1 0 0 -1 0 3328)">
	<stop  offset="0" style="stop-color:#FFFEF9"/>
	<stop  offset="1" style="stop-color:#1A63AB"/>
</linearGradient>
<path style="opacity:0.5;fill:url(#SVGID_00000009549610334394331410000014618578715045565862_);enable-background:new    ;" d="
	M193.2,770.8l-71,71.1l56.8,63.5l80.3-78.9l70.1,75.7l61.3-59.8L315,763.7c0,0-27.5,18-41.4,18s-37.8-11-49.2-13.8
	S193.2,770.8,193.2,770.8z"/>
</svg>
