<?xml version="1.0" encoding="utf-8"?>
<!-- Generator: Adobe Illustrator 27.1.0, SVG Export Plug-In . SVG Version: 6.00 Build 0)  -->
<svg version="1.1" id="Calque_1" xmlns="http://www.w3.org/2000/svg" xmlns:xlink="http://www.w3.org/1999/xlink" x="0px" y="0px"
	 viewBox="0 0 512 2048" style="enable-background:new 0 0 512 2048;" xml:space="preserve">
<style type="text/css">
	.st0{fill:url(#SVGID_1_);stroke:#000000;stroke-width:4;stroke-miterlimit:10;}
	.st1{fill:url(#SVGID_00000133522958315440328720000003530854348612254138_);stroke:#000000;stroke-width:4;stroke-miterlimit:10;}
	.st2{fill:url(#SVGID_00000113353476125704130560000015540005943296200335_);stroke:#000000;stroke-width:4;stroke-miterlimit:10;}
	.st3{fill:url(#SVGID_00000160148957262571567320000004695983660687538594_);stroke:#000000;stroke-width:4;stroke-miterlimit:10;}
	.st4{fill:url(#SVGID_00000090292424121559497900000013233510825282720640_);stroke:#000000;stroke-width:4;stroke-miterlimit:10;}
	.st5{fill:url(#SVGID_00000176011835091353852880000009590358403770270350_);stroke:#000000;stroke-width:4;stroke-miterlimit:10;}
	.st6{fill:url(#SVGID_00000129900559821008750870000012215772438153117831_);stroke:#000000;stroke-width:4;stroke-miterlimit:10;}
	.st7{fill:url(#SVGID_00000150080254934544291790000018082275381158150820_);stroke:#000000;stroke-width:4;stroke-miterlimit:10;}
	.st8{fill:url(#SVGID_00000131338581565023811270000003216102017828303510_);stroke:#000000;stroke-width:4;stroke-miterlimit:10;}
	.st9{fill:url(#SVGID_00000032627667057084150490000008818228448522933642_);stroke:#000000;stroke-width:4;stroke-miterlimit:10;}
	.st10{fill:url(#SVGID_00000100362973553827924250000003668953644938475173_);stroke:#000000;stroke-width:4;stroke-miterlimit:10;}
	.st11{fill:url(#SVGID_00000061440327458248728910000012752066781245363881_);stroke:#000000;stroke-width:4;stroke-miterlimit:10;}
	.st12{fill:url(#SVGID_00000124870731547488609310000007323323798170031524_);stroke:#000000;stroke-width:4;stroke-miterlimit:10;}
	.st13{fill:url(#SVGID_00000070835259010152294020000014591900985690934444_);stroke:#000000;stroke-width:4;stroke-miterlimit:10;}
	.st14{fill:url(#SVGID_00000170263106144847509640000002430187086533686675_);stroke:#000000;stroke-width:4;stroke-miterlimit:10;}
	.st15{fill:url(#SVGID_00000078004989152675771850000018181769789432313773_);stroke:#000000;stroke-width:4;stroke-miterlimit:10;}
	.st16{opacity:0.5;fill:none;stroke:#3E3D3C;stroke-width:16;stroke-miterlimit:10;enable-background:new    ;}
	.st17{fill:url(#SVGID_00000173880637594250384960000017379213303037738144_);stroke:#030304;stroke-width:4;stroke-miterlimit:10;}
	.st18{fill:url(#SVGID_00000174594559864265596070000003149366197792382375_);stroke:#020203;stroke-width:4;stroke-miterlimit:10;}
	.st19{fill:url(#SVGID_00000065761852474288056930000010164739150111401647_);stroke:#020203;stroke-width:4;stroke-miterlimit:10;}
	.st20{fill:url(#SVGID_00000057837958216393472350000011995514349014924471_);stroke:#000000;stroke-width:4;stroke-miterlimit:10;}
</style>
<linearGradient id="SVGID_1_" gradientUnits="userSpaceOnUse" x1="91.3" y1="1826.25" x2="420.7" y2="1826.25" gradientTransform="matrix(1 0 0 -1 0 2048)">
	<stop  offset="0" style="stop-color:#CFCDCD"/>
	<stop  offset="0.5004" style="stop-color:#A5ACAC"/>
	<stop  offset="1" style="stop-color:#656B6C"/>
</linearGradient>
<path class="st0" d="M91.3,215.2c0,0,0.4,83.2,164.7,83.2s164.7-83.2,164.7-83.2v-70.1c0,0-5.4,76.7-161.7,78.9
	c-157.6,2.2-167.7-78.9-167.7-78.9V215.2z"/>
<linearGradient id="SVGID_00000000198921902980087950000015438804643666875292_" gradientUnits="userSpaceOnUse" x1="256" y1="1982" x2="256" y2="1823.6" gradientTransform="matrix(1 0 0 -1 0 2048)">
	<stop  offset="0" style="stop-color:#CFCDCD"/>
	<stop  offset="0.5004" style="stop-color:#A5ACAC"/>
	<stop  offset="1" style="stop-color:#656B6C"/>
</linearGradient>
<ellipse style="fill:url(#SVGID_00000000198921902980087950000015438804643666875292_);stroke:#000000;stroke-width:4;stroke-miterlimit:10;" cx="256" cy="145.2" rx="164.7" ry="79.2"/>
<linearGradient id="SVGID_00000147902606524773961680000012327661949162124459_" gradientUnits="userSpaceOnUse" x1="91.3" y1="1750.55" x2="420.7" y2="1750.55" gradientTransform="matrix(1 0 0 -1 0 2048)">
	<stop  offset="0" style="stop-color:#CFCDCD"/>
	<stop  offset="0.5004" style="stop-color:#A5ACAC"/>
	<stop  offset="1" style="stop-color:#656B6C"/>
</linearGradient>
<path style="fill:url(#SVGID_00000147902606524773961680000012327661949162124459_);stroke:#000000;stroke-width:4;stroke-miterlimit:10;" d="
	M91.3,290.9c0,0,0.4,83.2,164.7,83.2s164.7-83.2,164.7-83.2v-70.1c0,0-5.4,76.7-161.7,78.9c-157.6,2.2-167.7-78.9-167.7-78.9V290.9z
	"/>
<linearGradient id="SVGID_00000117634677757769426010000009399673487892899752_" gradientUnits="userSpaceOnUse" x1="91.3" y1="1678.65" x2="420.7" y2="1678.65" gradientTransform="matrix(1 0 0 -1 0 2048)">
	<stop  offset="0" style="stop-color:#CFCDCD"/>
	<stop  offset="0.5004" style="stop-color:#A5ACAC"/>
	<stop  offset="1" style="stop-color:#656B6C"/>
</linearGradient>
<path style="fill:url(#SVGID_00000117634677757769426010000009399673487892899752_);stroke:#000000;stroke-width:4;stroke-miterlimit:10;" d="
	M91.3,362.8c0,0,0.4,83.2,164.7,83.2s164.7-83.2,164.7-83.2v-70.1c0,0-5.4,76.7-161.7,78.9c-157.6,2.2-167.7-78.9-167.7-78.9V362.8z
	"/>
<linearGradient id="SVGID_00000037680561504357300540000018036300080557327516_" gradientUnits="userSpaceOnUse" x1="91.3" y1="1314.25" x2="420.7" y2="1314.25" gradientTransform="matrix(1 0 0 -1 0 2048)">
	<stop  offset="0" style="stop-color:#CFCDCD"/>
	<stop  offset="0.5004" style="stop-color:#A5ACAC"/>
	<stop  offset="1" style="stop-color:#656B6C"/>
</linearGradient>
<path style="fill:url(#SVGID_00000037680561504357300540000018036300080557327516_);stroke:#000000;stroke-width:4;stroke-miterlimit:10;" d="
	M91.3,727.2c0,0,0.4,83.2,164.7,83.2s164.7-83.2,164.7-83.2v-70.1c0,0-5.4,76.7-161.7,78.9c-157.6,2.2-167.7-78.9-167.7-78.9V727.2z
	"/>
<linearGradient id="SVGID_00000110435679463162739410000005474043416972170114_" gradientUnits="userSpaceOnUse" x1="256" y1="1470" x2="256" y2="1311.6" gradientTransform="matrix(1 0 0 -1 0 2048)">
	<stop  offset="0" style="stop-color:#CFCDCD"/>
	<stop  offset="0.5004" style="stop-color:#A5ACAC"/>
	<stop  offset="1" style="stop-color:#656B6C"/>
</linearGradient>
<ellipse style="fill:url(#SVGID_00000110435679463162739410000005474043416972170114_);stroke:#000000;stroke-width:4;stroke-miterlimit:10;" cx="256" cy="657.2" rx="164.7" ry="79.2"/>
<linearGradient id="SVGID_00000022522026751561497240000003436864039829164708_" gradientUnits="userSpaceOnUse" x1="91.3" y1="1238.55" x2="420.7" y2="1238.55" gradientTransform="matrix(1 0 0 -1 0 2048)">
	<stop  offset="0" style="stop-color:#CFCDCD"/>
	<stop  offset="0.5004" style="stop-color:#A5ACAC"/>
	<stop  offset="1" style="stop-color:#656B6C"/>
</linearGradient>
<path style="fill:url(#SVGID_00000022522026751561497240000003436864039829164708_);stroke:#000000;stroke-width:4;stroke-miterlimit:10;" d="
	M91.3,802.9c0,0,0.4,83.2,164.7,83.2s164.7-83.2,164.7-83.2v-70.1c0,0-5.4,76.7-161.7,78.9c-157.6,2.2-167.7-78.9-167.7-78.9V802.9z
	"/>
<linearGradient id="SVGID_00000174571149297535241850000001903727032627459251_" gradientUnits="userSpaceOnUse" x1="91.3" y1="1166.65" x2="420.7" y2="1166.65" gradientTransform="matrix(1 0 0 -1 0 2048)">
	<stop  offset="0" style="stop-color:#CFCDCD"/>
	<stop  offset="0.5004" style="stop-color:#A5ACAC"/>
	<stop  offset="1" style="stop-color:#656B6C"/>
</linearGradient>
<path style="fill:url(#SVGID_00000174571149297535241850000001903727032627459251_);stroke:#000000;stroke-width:4;stroke-miterlimit:10;" d="
	M91.3,874.8c0,0,0.4,83.2,164.7,83.2s164.7-83.2,164.7-83.2v-70.1c0,0-5.4,76.7-161.7,78.9c-157.6,2.2-167.7-78.9-167.7-78.9V874.8z
	"/>
<linearGradient id="SVGID_00000076581112270229683300000017288848183142032571_" gradientUnits="userSpaceOnUse" x1="91.3" y1="802.25" x2="420.7" y2="802.25" gradientTransform="matrix(1 0 0 -1 0 2048)">
	<stop  offset="0" style="stop-color:#CFCDCD"/>
	<stop  offset="0.5004" style="stop-color:#A5ACAC"/>
	<stop  offset="1" style="stop-color:#656B6C"/>
</linearGradient>
<path style="fill:url(#SVGID_00000076581112270229683300000017288848183142032571_);stroke:#000000;stroke-width:4;stroke-miterlimit:10;" d="
	M91.3,1239.2c0,0,0.4,83.2,164.7,83.2s164.7-83.2,164.7-83.2v-70.1c0,0-5.4,76.7-161.7,78.9c-157.6,2.2-167.7-78.9-167.7-78.9
	V1239.2z"/>
<linearGradient id="SVGID_00000168105403714442548150000015415337328681504446_" gradientUnits="userSpaceOnUse" x1="256" y1="958" x2="256" y2="799.6" gradientTransform="matrix(1 0 0 -1 0 2048)">
	<stop  offset="0" style="stop-color:#CFCDCD"/>
	<stop  offset="0.5004" style="stop-color:#A5ACAC"/>
	<stop  offset="1" style="stop-color:#656B6C"/>
</linearGradient>
<ellipse style="fill:url(#SVGID_00000168105403714442548150000015415337328681504446_);stroke:#000000;stroke-width:4;stroke-miterlimit:10;" cx="256" cy="1169.2" rx="164.7" ry="79.2"/>
<linearGradient id="SVGID_00000166661385992563922930000010457928545884041868_" gradientUnits="userSpaceOnUse" x1="91.3" y1="726.55" x2="420.7" y2="726.55" gradientTransform="matrix(1 0 0 -1 0 2048)">
	<stop  offset="0" style="stop-color:#CFCDCD"/>
	<stop  offset="0.5004" style="stop-color:#A5ACAC"/>
	<stop  offset="1" style="stop-color:#656B6C"/>
</linearGradient>
<path style="fill:url(#SVGID_00000166661385992563922930000010457928545884041868_);stroke:#000000;stroke-width:4;stroke-miterlimit:10;" d="
	M91.3,1314.9c0,0,0.4,83.2,164.7,83.2s164.7-83.2,164.7-83.2v-70.1c0,0-5.4,76.7-161.7,78.9c-157.6,2.2-167.7-78.9-167.7-78.9
	V1314.9z"/>
<linearGradient id="SVGID_00000053536690413209765620000007054710940142158006_" gradientUnits="userSpaceOnUse" x1="91.3" y1="654.65" x2="420.7" y2="654.65" gradientTransform="matrix(1 0 0 -1 0 2048)">
	<stop  offset="0" style="stop-color:#CFCDCD"/>
	<stop  offset="0.5004" style="stop-color:#A5ACAC"/>
	<stop  offset="1" style="stop-color:#656B6C"/>
</linearGradient>
<path style="fill:url(#SVGID_00000053536690413209765620000007054710940142158006_);stroke:#000000;stroke-width:4;stroke-miterlimit:10;" d="
	M91.3,1386.8c0,0,0.4,83.2,164.7,83.2s164.7-83.2,164.7-83.2v-70.1c0,0-5.4,76.7-161.7,78.9c-157.6,2.2-167.7-78.9-167.7-78.9
	V1386.8z"/>
<linearGradient id="SVGID_00000168833104345942349350000005694009557674020511_" gradientUnits="userSpaceOnUse" x1="91.3" y1="290.25" x2="420.7" y2="290.25" gradientTransform="matrix(1 0 0 -1 0 2048)">
	<stop  offset="0" style="stop-color:#CFCDCD"/>
	<stop  offset="0.5004" style="stop-color:#A5ACAC"/>
	<stop  offset="1" style="stop-color:#656B6C"/>
</linearGradient>
<path style="fill:url(#SVGID_00000168833104345942349350000005694009557674020511_);stroke:#000000;stroke-width:4;stroke-miterlimit:10;" d="
	M91.3,1751.2c0,0,0.4,83.2,164.7,83.2s164.7-83.2,164.7-83.2v-70.1c0,0-5.4,76.7-161.7,78.9c-157.6,2.2-167.7-78.9-167.7-78.9
	V1751.2z"/>
<linearGradient id="SVGID_00000139988614791494040570000012051605078144945831_" gradientUnits="userSpaceOnUse" x1="256" y1="446" x2="256" y2="287.6" gradientTransform="matrix(1 0 0 -1 0 2048)">
	<stop  offset="0" style="stop-color:#CFCDCD"/>
	<stop  offset="0.5004" style="stop-color:#A5ACAC"/>
	<stop  offset="1" style="stop-color:#656B6C"/>
</linearGradient>
<ellipse style="fill:url(#SVGID_00000139988614791494040570000012051605078144945831_);stroke:#000000;stroke-width:4;stroke-miterlimit:10;" cx="256" cy="1681.2" rx="164.7" ry="79.2"/>
<linearGradient id="SVGID_00000096775710124198133410000003866418235200325000_" gradientUnits="userSpaceOnUse" x1="91.3" y1="214.55" x2="420.7" y2="214.55" gradientTransform="matrix(1 0 0 -1 0 2048)">
	<stop  offset="0" style="stop-color:#CFCDCD"/>
	<stop  offset="0.5004" style="stop-color:#A5ACAC"/>
	<stop  offset="1" style="stop-color:#656B6C"/>
</linearGradient>
<path style="fill:url(#SVGID_00000096775710124198133410000003866418235200325000_);stroke:#000000;stroke-width:4;stroke-miterlimit:10;" d="
	M91.3,1826.9c0,0,0.4,83.2,164.7,83.2s164.7-83.2,164.7-83.2v-70.1c0,0-5.4,76.7-161.7,78.9c-157.6,2.2-167.7-78.9-167.7-78.9
	V1826.9z"/>
<linearGradient id="SVGID_00000116917144464216126000000000856659105984887442_" gradientUnits="userSpaceOnUse" x1="91.3" y1="142.65" x2="420.7" y2="142.65" gradientTransform="matrix(1 0 0 -1 0 2048)">
	<stop  offset="0" style="stop-color:#CFCDCD"/>
	<stop  offset="0.5004" style="stop-color:#A5ACAC"/>
	<stop  offset="1" style="stop-color:#656B6C"/>
</linearGradient>
<path style="fill:url(#SVGID_00000116917144464216126000000000856659105984887442_);stroke:#000000;stroke-width:4;stroke-miterlimit:10;" d="
	M91.3,1898.8c0,0,0.4,83.2,164.7,83.2s164.7-83.2,164.7-83.2v-70.1c0,0-5.4,76.7-161.7,78.9c-157.6,2.2-167.7-78.9-167.7-78.9
	V1898.8z"/>
<path class="st16" d="M459,132l-91.1-52.6v34.1l0,0c-86.6,0-156.8,70.2-156.8,156.8c0,8.4,0.7,16.6,1.9,24.6h53
	c-0.7-5.2-1.1-10.4-1.1-15.8c0-59.7,45-108.9,103-115.6v21.1L459,132z"/>
<path class="st16" d="M459,644l-91.1-52.6v34.1l0,0c-86.6,0-156.8,70.2-156.8,156.8c0,8.4,0.7,16.6,1.9,24.6h53
	c-0.7-5.2-1.1-10.4-1.1-15.8c0-59.7,45-108.9,103-115.6v21.1L459,644z"/>
<path class="st16" d="M459,1156l-91.1-52.6v34.1l0,0c-86.6,0-156.8,70.2-156.8,156.8c0,8.4,0.7,16.6,1.9,24.6h53
	c-0.7-5.2-1.1-10.4-1.1-15.8c0-59.7,45-108.9,103-115.6v21.1L459,1156z"/>
<path class="st16" d="M449,1668l-91.1-52.6v34.1l0,0c-86.6,0-156.8,70.2-156.8,156.8c0,8.4,0.7,16.6,1.9,24.6h53
	c-0.7-5.2-1.1-10.4-1.1-15.8c0-59.7,45-108.9,103-115.6v21.1L449,1668z"/>
<linearGradient id="SVGID_00000121272253335427410690000001323901800205697696_" gradientUnits="userSpaceOnUse" x1="208.5638" y1="-1103.2395" x2="456.4714" y2="-1103.2395" gradientTransform="matrix(1 0 0 1 0 1282)">
	<stop  offset="0" style="stop-color:#AAD9E9"/>
	<stop  offset="1" style="stop-color:#276DB4"/>
</linearGradient>
<path style="fill:url(#SVGID_00000121272253335427410690000001323901800205697696_);stroke:#030304;stroke-width:4;stroke-miterlimit:10;" d="
	M456.5,123.6L365.3,71v34.1l0,0c-86.6,0-156.8,70.2-156.8,156.8c0,8.4,0.7,16.6,1.9,24.6h53c-0.7-5.2-1.1-10.4-1.1-15.8
	c0-59.7,45-108.9,103-115.6v21.1L456.5,123.6z"/>
<linearGradient id="SVGID_00000157305316493339307800000018172844756557570729_" gradientUnits="userSpaceOnUse" x1="208.5638" y1="-591.2395" x2="456.4715" y2="-591.2395" gradientTransform="matrix(1 0 0 1 0 1282)">
	<stop  offset="0" style="stop-color:#FED908"/>
	<stop  offset="1" style="stop-color:#BF8010"/>
</linearGradient>
<path style="fill:url(#SVGID_00000157305316493339307800000018172844756557570729_);stroke:#020203;stroke-width:4;stroke-miterlimit:10;" d="
	M456.5,635.6L365.3,583v34.1l0,0c-86.6,0-156.8,70.2-156.8,156.8c0,8.4,0.7,16.6,1.9,24.6h53c-0.7-5.2-1.1-10.4-1.1-15.8
	c0-59.7,45-108.9,103-115.6v21.1L456.5,635.6z"/>
<linearGradient id="SVGID_00000040564652777904137090000008468695060036299429_" gradientUnits="userSpaceOnUse" x1="208.563" y1="-79.2395" x2="456.4707" y2="-79.2395" gradientTransform="matrix(1 0 0 1 0 1282)">
	<stop  offset="0" style="stop-color:#9CCA85"/>
	<stop  offset="1" style="stop-color:#368E36"/>
</linearGradient>
<path style="fill:url(#SVGID_00000040564652777904137090000008468695060036299429_);stroke:#020203;stroke-width:4;stroke-miterlimit:10;" d="
	M456.5,1147.6l-91.1-52.6v34.1l0,0c-86.6,0-156.8,70.2-156.8,156.8c0,8.4,0.7,16.6,1.9,24.6h53c-0.7-5.2-1.1-10.4-1.1-15.8
	c0-59.7,45-108.9,103-115.6v21.1L456.5,1147.6z"/>
<linearGradient id="SVGID_00000160900824790195752550000011589592535850914746_" gradientUnits="userSpaceOnUse" x1="198.563" y1="432.7605" x2="446.4707" y2="432.7605" gradientTransform="matrix(1 0 0 1 0 1282)">
	<stop  offset="0" style="stop-color:#DEDEDE"/>
	<stop  offset="1" style="stop-color:#6F6F6F"/>
</linearGradient>
<path style="fill:url(#SVGID_00000160900824790195752550000011589592535850914746_);stroke:#000000;stroke-width:4;stroke-miterlimit:10;" d="
	M446.5,1659.6l-91.1-52.6v34.1l0,0c-86.6,0-156.8,70.2-156.8,156.8c0,8.4,0.7,16.6,1.9,24.6h53c-0.7-5.2-1.1-10.4-1.1-15.8
	c0-59.7,45-108.9,103-115.6v21.1L446.5,1659.6z"/>
</svg>
