<?xml version="1.0" encoding="utf-8"?>
<!-- Generator: Adobe Illustrator 27.1.0, SVG Export Plug-In . SVG Version: 6.00 Build 0)  -->
<svg version="1.1" id="Calque_1" xmlns="http://www.w3.org/2000/svg" xmlns:xlink="http://www.w3.org/1999/xlink" x="0px" y="0px"
	 viewBox="0 0 512 2048" style="enable-background:new 0 0 512 2048;" xml:space="preserve">
<style type="text/css">
	.st0{fill:url(#SVGID_1_);stroke:#000000;stroke-width:4;stroke-miterlimit:10;}
	.st1{fill:url(#SVGID_00000148624129971581517590000009283487851351141796_);stroke:#000000;stroke-width:4;stroke-miterlimit:10;}
	.st2{fill:url(#SVGID_00000149375157468767290800000012869781774364299174_);stroke:#000000;stroke-width:4;stroke-miterlimit:10;}
	.st3{fill:url(#SVGID_00000015341495201533907640000007747400747233052863_);stroke:#000000;stroke-width:4;stroke-miterlimit:10;}
	.st4{fill:url(#SVGID_00000114773552975006397390000001761749213681928839_);stroke:#000000;stroke-width:4;stroke-miterlimit:10;}
	.st5{fill:url(#SVGID_00000021817446662131506760000011029492170364897972_);stroke:#000000;stroke-width:4;stroke-miterlimit:10;}
	.st6{fill:url(#SVGID_00000174602789985444954080000005725070268635641472_);stroke:#000000;stroke-width:4;stroke-miterlimit:10;}
	.st7{fill:url(#SVGID_00000132785839917263344770000010426203021576970657_);stroke:#000000;stroke-width:4;stroke-miterlimit:10;}
	.st8{fill:url(#SVGID_00000085947328632416949390000015692884535526372279_);stroke:#000000;stroke-width:4;stroke-miterlimit:10;}
	.st9{fill:url(#SVGID_00000137123228699494036370000011774131050320315265_);stroke:#000000;stroke-width:4;stroke-miterlimit:10;}
	.st10{fill:url(#SVGID_00000034047788692964095100000010401240128641765544_);stroke:#000000;stroke-width:4;stroke-miterlimit:10;}
	.st11{fill:url(#SVGID_00000129181134607191908080000011543586331376929198_);stroke:#000000;stroke-width:4;stroke-miterlimit:10;}
	.st12{fill:url(#SVGID_00000075132369850615006380000014914388299983413898_);stroke:#000000;stroke-width:4;stroke-miterlimit:10;}
	.st13{fill:url(#SVGID_00000112598461140697001580000002278509849628273575_);stroke:#000000;stroke-width:4;stroke-miterlimit:10;}
	.st14{fill:url(#SVGID_00000137846830552176732290000008012704848987870625_);stroke:#000000;stroke-width:4;stroke-miterlimit:10;}
	.st15{fill:url(#SVGID_00000093138394445717852150000015595934932156415134_);stroke:#000000;stroke-width:4;stroke-miterlimit:10;}
	.st16{fill:#FFFFFF;stroke:#000000;stroke-width:8;stroke-miterlimit:10;}
	.st17{fill:none;}
	.st18{fill:#F6A318;}
	.st19{fill:#3BB2E6;}
	.st20{fill:#FFFFFF;stroke:#A2A2A0;stroke-width:8;stroke-miterlimit:10;}
	.st21{fill:#A2A19F;}
	.st22{fill:#1D1D1B;stroke:#FFFFFF;stroke-width:15;stroke-miterlimit:10;}
	.st23{fill:#A2A2A0;stroke:#FFFFFF;stroke-width:15;stroke-miterlimit:10;}
</style>
<linearGradient id="SVGID_1_" gradientUnits="userSpaceOnUse" x1="91.3" y1="1826.25" x2="420.7" y2="1826.25" gradientTransform="matrix(1 0 0 -1 0 2048)">
	<stop  offset="0" style="stop-color:#CFCDCD"/>
	<stop  offset="0.5004" style="stop-color:#A5ACAC"/>
	<stop  offset="1" style="stop-color:#656B6C"/>
</linearGradient>
<path class="st0" d="M91.3,215.2c0,0,0.4,83.2,164.7,83.2s164.7-83.2,164.7-83.2v-70.1c0,0-5.4,76.7-161.7,78.9
	c-157.6,2.2-167.7-78.9-167.7-78.9V215.2z"/>
<linearGradient id="SVGID_00000047767532079534151810000007243140244765223830_" gradientUnits="userSpaceOnUse" x1="256" y1="1982" x2="256" y2="1823.6" gradientTransform="matrix(1 0 0 -1 0 2048)">
	<stop  offset="0" style="stop-color:#CFCDCD"/>
	<stop  offset="0.5004" style="stop-color:#A5ACAC"/>
	<stop  offset="1" style="stop-color:#656B6C"/>
</linearGradient>
<ellipse style="fill:url(#SVGID_00000047767532079534151810000007243140244765223830_);stroke:#000000;stroke-width:4;stroke-miterlimit:10;" cx="256" cy="145.2" rx="164.7" ry="79.2"/>
<linearGradient id="SVGID_00000005230338926340305550000002856214874879132294_" gradientUnits="userSpaceOnUse" x1="91.3" y1="1750.55" x2="420.7" y2="1750.55" gradientTransform="matrix(1 0 0 -1 0 2048)">
	<stop  offset="0" style="stop-color:#CFCDCD"/>
	<stop  offset="0.5004" style="stop-color:#A5ACAC"/>
	<stop  offset="1" style="stop-color:#656B6C"/>
</linearGradient>
<path style="fill:url(#SVGID_00000005230338926340305550000002856214874879132294_);stroke:#000000;stroke-width:4;stroke-miterlimit:10;" d="
	M91.3,290.9c0,0,0.4,83.2,164.7,83.2s164.7-83.2,164.7-83.2v-70.1c0,0-5.4,76.7-161.7,78.9c-157.6,2.2-167.7-78.9-167.7-78.9V290.9z
	"/>
<linearGradient id="SVGID_00000153676753369513655900000002012080983754476447_" gradientUnits="userSpaceOnUse" x1="91.3" y1="1678.65" x2="420.7" y2="1678.65" gradientTransform="matrix(1 0 0 -1 0 2048)">
	<stop  offset="0" style="stop-color:#CFCDCD"/>
	<stop  offset="0.5004" style="stop-color:#A5ACAC"/>
	<stop  offset="1" style="stop-color:#656B6C"/>
</linearGradient>
<path style="fill:url(#SVGID_00000153676753369513655900000002012080983754476447_);stroke:#000000;stroke-width:4;stroke-miterlimit:10;" d="
	M91.3,362.8c0,0,0.4,83.2,164.7,83.2s164.7-83.2,164.7-83.2v-70.1c0,0-5.4,76.7-161.7,78.9c-157.6,2.2-167.7-78.9-167.7-78.9V362.8z
	"/>
<linearGradient id="SVGID_00000067934214223717767950000000928889560848066231_" gradientUnits="userSpaceOnUse" x1="91.3" y1="1314.25" x2="420.7" y2="1314.25" gradientTransform="matrix(1 0 0 -1 0 2048)">
	<stop  offset="0" style="stop-color:#CFCDCD"/>
	<stop  offset="0.5004" style="stop-color:#A5ACAC"/>
	<stop  offset="1" style="stop-color:#656B6C"/>
</linearGradient>
<path style="fill:url(#SVGID_00000067934214223717767950000000928889560848066231_);stroke:#000000;stroke-width:4;stroke-miterlimit:10;" d="
	M91.3,727.2c0,0,0.4,83.2,164.7,83.2s164.7-83.2,164.7-83.2v-70.1c0,0-5.4,76.7-161.7,78.9c-157.6,2.2-167.7-78.9-167.7-78.9V727.2z
	"/>
<linearGradient id="SVGID_00000150819062310112530380000009758271484474661550_" gradientUnits="userSpaceOnUse" x1="256" y1="1470" x2="256" y2="1311.6" gradientTransform="matrix(1 0 0 -1 0 2048)">
	<stop  offset="0" style="stop-color:#CFCDCD"/>
	<stop  offset="0.5004" style="stop-color:#A5ACAC"/>
	<stop  offset="1" style="stop-color:#656B6C"/>
</linearGradient>
<ellipse style="fill:url(#SVGID_00000150819062310112530380000009758271484474661550_);stroke:#000000;stroke-width:4;stroke-miterlimit:10;" cx="256" cy="657.2" rx="164.7" ry="79.2"/>
<linearGradient id="SVGID_00000078723348492558840290000010234725154088572570_" gradientUnits="userSpaceOnUse" x1="91.3" y1="1238.55" x2="420.7" y2="1238.55" gradientTransform="matrix(1 0 0 -1 0 2048)">
	<stop  offset="0" style="stop-color:#CFCDCD"/>
	<stop  offset="0.5004" style="stop-color:#A5ACAC"/>
	<stop  offset="1" style="stop-color:#656B6C"/>
</linearGradient>
<path style="fill:url(#SVGID_00000078723348492558840290000010234725154088572570_);stroke:#000000;stroke-width:4;stroke-miterlimit:10;" d="
	M91.3,802.9c0,0,0.4,83.2,164.7,83.2s164.7-83.2,164.7-83.2v-70.1c0,0-5.4,76.7-161.7,78.9c-157.6,2.2-167.7-78.9-167.7-78.9V802.9z
	"/>
<linearGradient id="SVGID_00000071535403870342163540000013902236984975836085_" gradientUnits="userSpaceOnUse" x1="91.3" y1="1166.65" x2="420.7" y2="1166.65" gradientTransform="matrix(1 0 0 -1 0 2048)">
	<stop  offset="0" style="stop-color:#CFCDCD"/>
	<stop  offset="0.5004" style="stop-color:#A5ACAC"/>
	<stop  offset="1" style="stop-color:#656B6C"/>
</linearGradient>
<path style="fill:url(#SVGID_00000071535403870342163540000013902236984975836085_);stroke:#000000;stroke-width:4;stroke-miterlimit:10;" d="
	M91.3,874.8c0,0,0.4,83.2,164.7,83.2s164.7-83.2,164.7-83.2v-70.1c0,0-5.4,76.7-161.7,78.9c-157.6,2.2-167.7-78.9-167.7-78.9V874.8z
	"/>
<linearGradient id="SVGID_00000120532092146341931510000000180533695278288033_" gradientUnits="userSpaceOnUse" x1="91.3" y1="802.25" x2="420.7" y2="802.25" gradientTransform="matrix(1 0 0 -1 0 2048)">
	<stop  offset="0" style="stop-color:#CFCDCD"/>
	<stop  offset="0.5004" style="stop-color:#A5ACAC"/>
	<stop  offset="1" style="stop-color:#656B6C"/>
</linearGradient>
<path style="fill:url(#SVGID_00000120532092146341931510000000180533695278288033_);stroke:#000000;stroke-width:4;stroke-miterlimit:10;" d="
	M91.3,1239.2c0,0,0.4,83.2,164.7,83.2s164.7-83.2,164.7-83.2v-70.1c0,0-5.4,76.7-161.7,78.9c-157.6,2.2-167.7-78.9-167.7-78.9
	V1239.2z"/>
<linearGradient id="SVGID_00000141445100406967895000000008816584529563008691_" gradientUnits="userSpaceOnUse" x1="256" y1="958" x2="256" y2="799.6" gradientTransform="matrix(1 0 0 -1 0 2048)">
	<stop  offset="0" style="stop-color:#CFCDCD"/>
	<stop  offset="0.5004" style="stop-color:#A5ACAC"/>
	<stop  offset="1" style="stop-color:#656B6C"/>
</linearGradient>
<ellipse style="fill:url(#SVGID_00000141445100406967895000000008816584529563008691_);stroke:#000000;stroke-width:4;stroke-miterlimit:10;" cx="256" cy="1169.2" rx="164.7" ry="79.2"/>
<linearGradient id="SVGID_00000036971420229331203010000000561352192509679004_" gradientUnits="userSpaceOnUse" x1="91.3" y1="726.55" x2="420.7" y2="726.55" gradientTransform="matrix(1 0 0 -1 0 2048)">
	<stop  offset="0" style="stop-color:#CFCDCD"/>
	<stop  offset="0.5004" style="stop-color:#A5ACAC"/>
	<stop  offset="1" style="stop-color:#656B6C"/>
</linearGradient>
<path style="fill:url(#SVGID_00000036971420229331203010000000561352192509679004_);stroke:#000000;stroke-width:4;stroke-miterlimit:10;" d="
	M91.3,1314.9c0,0,0.4,83.2,164.7,83.2s164.7-83.2,164.7-83.2v-70.1c0,0-5.4,76.7-161.7,78.9c-157.6,2.2-167.7-78.9-167.7-78.9
	V1314.9z"/>
<linearGradient id="SVGID_00000027580814617996198060000001259063591416012169_" gradientUnits="userSpaceOnUse" x1="91.3" y1="654.65" x2="420.7" y2="654.65" gradientTransform="matrix(1 0 0 -1 0 2048)">
	<stop  offset="0" style="stop-color:#CFCDCD"/>
	<stop  offset="0.5004" style="stop-color:#A5ACAC"/>
	<stop  offset="1" style="stop-color:#656B6C"/>
</linearGradient>
<path style="fill:url(#SVGID_00000027580814617996198060000001259063591416012169_);stroke:#000000;stroke-width:4;stroke-miterlimit:10;" d="
	M91.3,1386.8c0,0,0.4,83.2,164.7,83.2s164.7-83.2,164.7-83.2v-70.1c0,0-5.4,76.7-161.7,78.9c-157.6,2.2-167.7-78.9-167.7-78.9
	V1386.8z"/>
<linearGradient id="SVGID_00000099636838202023226760000015583039917027016334_" gradientUnits="userSpaceOnUse" x1="91.3" y1="290.25" x2="420.7" y2="290.25" gradientTransform="matrix(1 0 0 -1 0 2048)">
	<stop  offset="0" style="stop-color:#CFCDCD"/>
	<stop  offset="0.5004" style="stop-color:#A5ACAC"/>
	<stop  offset="1" style="stop-color:#656B6C"/>
</linearGradient>
<path style="fill:url(#SVGID_00000099636838202023226760000015583039917027016334_);stroke:#000000;stroke-width:4;stroke-miterlimit:10;" d="
	M91.3,1751.2c0,0,0.4,83.2,164.7,83.2s164.7-83.2,164.7-83.2v-70.1c0,0-5.4,76.7-161.7,78.9c-157.6,2.2-167.7-78.9-167.7-78.9
	V1751.2z"/>
<linearGradient id="SVGID_00000163060835029858477980000016180119960682780549_" gradientUnits="userSpaceOnUse" x1="256" y1="446" x2="256" y2="287.6" gradientTransform="matrix(1 0 0 -1 0 2048)">
	<stop  offset="0" style="stop-color:#CFCDCD"/>
	<stop  offset="0.5004" style="stop-color:#A5ACAC"/>
	<stop  offset="1" style="stop-color:#656B6C"/>
</linearGradient>
<ellipse style="fill:url(#SVGID_00000163060835029858477980000016180119960682780549_);stroke:#000000;stroke-width:4;stroke-miterlimit:10;" cx="256" cy="1681.2" rx="164.7" ry="79.2"/>
<linearGradient id="SVGID_00000161603085169512883000000006249877048533723543_" gradientUnits="userSpaceOnUse" x1="91.3" y1="214.55" x2="420.7" y2="214.55" gradientTransform="matrix(1 0 0 -1 0 2048)">
	<stop  offset="0" style="stop-color:#CFCDCD"/>
	<stop  offset="0.5004" style="stop-color:#A5ACAC"/>
	<stop  offset="1" style="stop-color:#656B6C"/>
</linearGradient>
<path style="fill:url(#SVGID_00000161603085169512883000000006249877048533723543_);stroke:#000000;stroke-width:4;stroke-miterlimit:10;" d="
	M91.3,1826.9c0,0,0.4,83.2,164.7,83.2s164.7-83.2,164.7-83.2v-70.1c0,0-5.4,76.7-161.7,78.9c-157.6,2.2-167.7-78.9-167.7-78.9
	V1826.9z"/>
<linearGradient id="SVGID_00000084525080878550136870000010106042144446779300_" gradientUnits="userSpaceOnUse" x1="91.3" y1="142.65" x2="420.7" y2="142.65" gradientTransform="matrix(1 0 0 -1 0 2048)">
	<stop  offset="0" style="stop-color:#CFCDCD"/>
	<stop  offset="0.5004" style="stop-color:#A5ACAC"/>
	<stop  offset="1" style="stop-color:#656B6C"/>
</linearGradient>
<path style="fill:url(#SVGID_00000084525080878550136870000010106042144446779300_);stroke:#000000;stroke-width:4;stroke-miterlimit:10;" d="
	M91.3,1898.8c0,0,0.4,83.2,164.7,83.2s164.7-83.2,164.7-83.2v-70.1c0,0-5.4,76.7-161.7,78.9c-157.6,2.2-167.7-78.9-167.7-78.9
	V1898.8z"/>
<rect x="593" y="12" class="st16" width="492" height="492"/>
<g>
	<path class="st17" d="M6,2"/>
</g>
<polygon points="277.4,278.1 271.2,31.9 220.5,82.2 149.8,12 10,12 10,152.5 79.8,221.8 29.1,272 "/>
<g>
	<path class="st17" d="M-28.4,501.5"/>
</g>
<g>
	<path class="st17" d="M6,518"/>
</g>
<rect x="593" y="525" class="st16" width="492" height="492"/>
<polygon class="st18" points="277.4,791.1 271.2,544.9 220.5,595.2 149.8,525 10,525 10,665.5 79.8,734.8 29.1,785 "/>
<g>
	<path class="st17" d="M-28.4,1248.5"/>
</g>
<g>
	<path class="st17" d="M6,1265"/>
</g>
<g>
	<path class="st17" d="M-34.4,779.5"/>
</g>
<rect x="593" y="1037" class="st16" width="492" height="492"/>
<polygon class="st19" points="277.4,1303.1 271.2,1056.9 220.5,1107.2 149.8,1037 10,1037 10,1177.5 79.8,1246.8 29.1,1297 "/>
<g>
	<path class="st17" d="M-34.4,1281.5"/>
</g>
<rect x="593" y="1546" class="st20" width="492" height="492"/>
<polygon class="st21" points="277.4,1812.1 271.2,1565.9 220.5,1616.2 149.8,1546 10,1546 10,1686.5 79.8,1755.8 29.1,1806 "/>
<g>
	<path class="st17" d="M-34.4,1790.5"/>
</g>
<g>
	<path class="st17" d="M-34.4,1512"/>
</g>
<g>
	<path class="st17" d="M-34.4,2048.5"/>
</g>
<g>
	<path class="st17" d="M-15.2,2069"/>
</g>
<path class="st22" d="M249,235.8l94.9-94.9c6.6-6.6,6.6-17.3,0-23.9l0,0c-6.6-6.6-17.3-6.6-23.9,0l-94.9,94.9L130.2,117
	c-6.6-6.6-17.3-6.6-23.9,0l0,0c-6.6,6.6-6.6,17.3,0,23.9l94.9,94.9l-94.9,94.9c-6.6,6.6-6.6,17.3,0,23.9l0,0
	c6.6,6.6,17.3,6.6,23.9,0l94.9-94.9l94.9,94.9c6.6,6.6,17.3,6.6,23.9,0l0,0c6.6-6.6,6.6-17.3,0-23.9L249,235.8z"/>
<path class="st22" d="M249,749.3l94.9-94.9c6.6-6.6,6.6-17.3,0-23.9l0,0c-6.6-6.6-17.3-6.6-23.9,0l-94.9,94.9l-94.9-94.9
	c-6.6-6.6-17.3-6.6-23.9,0l0,0c-6.6,6.6-6.6,17.3,0,23.9l94.9,94.9l-94.9,94.9c-6.6,6.6-6.6,17.3,0,23.9l0,0
	c6.6,6.6,17.3,6.6,23.9,0l94.9-94.9l94.9,94.9c6.6,6.6,17.3,6.6,23.9,0l0,0c6.6-6.6,6.6-17.3,0-23.9L249,749.3z"/>
<path class="st22" d="M249,1260.8l94.9-94.9c6.6-6.6,6.6-17.3,0-23.9l0,0c-6.6-6.6-17.3-6.6-23.9,0l-94.9,94.9l-94.9-94.9
	c-6.6-6.6-17.3-6.6-23.9,0l0,0c-6.6,6.6-6.6,17.3,0,23.9l94.9,94.9l-94.9,94.9c-6.6,6.6-6.6,17.3,0,23.9l0,0
	c6.6,6.6,17.3,6.6,23.9,0l94.9-94.9l94.9,94.9c6.6,6.6,17.3,6.6,23.9,0l0,0c6.6-6.6,6.6-17.3,0-23.9L249,1260.8z"/>
<path class="st23" d="M249,1746.8l94.9-94.9c6.6-6.6,6.6-17.3,0-23.9l0,0c-6.6-6.6-17.3-6.6-23.9,0l-94.9,94.9l-94.9-94.9
	c-6.6-6.6-17.3-6.6-23.9,0l0,0c-6.6,6.6-6.6,17.3,0,23.9l94.9,94.9l-94.9,94.9c-6.6,6.6-6.6,17.3,0,23.9l0,0
	c6.6,6.6,17.3,6.6,23.9,0l94.9-94.9l94.9,94.9c6.6,6.6,17.3,6.6,23.9,0l0,0c6.6-6.6,6.6-17.3,0-23.9L249,1746.8z"/>
<rect x="706.8" y="130.7" class="st16" width="264.4" height="147.4"/>
</svg>
