<?xml version="1.0" encoding="utf-8"?>
<!-- Generator: Adobe Illustrator 27.1.0, SVG Export Plug-In . SVG Version: 6.00 Build 0)  -->
<svg version="1.1" id="Calque_1" xmlns="http://www.w3.org/2000/svg" xmlns:xlink="http://www.w3.org/1999/xlink" x="0px" y="0px"
	 viewBox="0 0 512 2048" style="enable-background:new 0 0 512 2048;" xml:space="preserve">
<style type="text/css">
	.st0{fill:url(#SVGID_1_);stroke:#000000;stroke-width:4;stroke-miterlimit:10;}
	.st1{fill:url(#SVGID_00000114048267866912506880000002950262627760394910_);stroke:#000000;stroke-width:4;stroke-miterlimit:10;}
	.st2{fill:url(#SVGID_00000043432375268077706320000013889869974448377501_);stroke:#000000;stroke-width:4;stroke-miterlimit:10;}
	.st3{fill:url(#SVGID_00000126295822862445690030000008349623839658481843_);stroke:#000000;stroke-width:4;stroke-miterlimit:10;}
	.st4{fill:url(#SVGID_00000006677795869027234710000001772507037485791126_);stroke:#000000;stroke-width:4;stroke-miterlimit:10;}
	.st5{fill:url(#SVGID_00000005252043329387334850000004004906549785518748_);stroke:#000000;stroke-width:4;stroke-miterlimit:10;}
	.st6{fill:url(#SVGID_00000003089250263572554290000014996504581295095187_);stroke:#000000;stroke-width:4;stroke-miterlimit:10;}
	.st7{fill:url(#SVGID_00000081638107735437386780000008301103521227552177_);stroke:#000000;stroke-width:4;stroke-miterlimit:10;}
	.st8{fill:url(#SVGID_00000040559803422069569940000012643065297114906280_);stroke:#000000;stroke-width:4;stroke-miterlimit:10;}
	.st9{fill:url(#SVGID_00000114754353059669715050000003620554469616205457_);stroke:#000000;stroke-width:4;stroke-miterlimit:10;}
	.st10{fill:url(#SVGID_00000117662039708239815020000008198419267095053231_);stroke:#000000;stroke-width:4;stroke-miterlimit:10;}
	.st11{fill:url(#SVGID_00000084511669911170861830000009515599536282390152_);stroke:#000000;stroke-width:4;stroke-miterlimit:10;}
	.st12{fill:url(#SVGID_00000180329226715133677120000011724580420451539345_);stroke:#000000;stroke-width:4;stroke-miterlimit:10;}
	.st13{fill:url(#SVGID_00000016050137677737928420000002369781066017119386_);stroke:#000000;stroke-width:4;stroke-miterlimit:10;}
	.st14{fill:url(#SVGID_00000183233202368019553120000002942713465724026761_);stroke:#000000;stroke-width:4;stroke-miterlimit:10;}
	.st15{fill:url(#SVGID_00000013178072271453771230000017128542551018441090_);stroke:#000000;stroke-width:4;stroke-miterlimit:10;}
	.st16{opacity:0.5;fill:none;stroke:#3E3D3C;stroke-width:16;stroke-miterlimit:10;enable-background:new    ;}
	.st17{fill:url(#SVGID_00000122704840279132739390000003598788884504741022_);stroke:#030304;stroke-width:4;stroke-miterlimit:10;}
	.st18{opacity:0.5;fill:url(#SVGID_00000111154847181361577390000005634015256863828107_);enable-background:new    ;}
	.st19{fill:url(#SVGID_00000165919736589230131790000015223103387628557207_);stroke:#020203;stroke-width:4;stroke-miterlimit:10;}
	.st20{opacity:0.5;fill:url(#SVGID_00000100350010114920938680000004231011874666804371_);enable-background:new    ;}
	.st21{fill:url(#SVGID_00000046314943662720760570000002317466185933206177_);stroke:#020203;stroke-width:4;stroke-miterlimit:10;}
	.st22{opacity:0.5;fill:url(#SVGID_00000077314004000036486130000010164513703230497933_);enable-background:new    ;}
	.st23{fill:url(#SVGID_00000064353206906577973120000012197120394531371199_);stroke:#000000;stroke-width:4;stroke-miterlimit:10;}
	.st24{opacity:0.5;fill:url(#SVGID_00000013896565178298201600000015062135373107019682_);enable-background:new    ;}
</style>
<linearGradient id="SVGID_1_" gradientUnits="userSpaceOnUse" x1="91.3" y1="1826.25" x2="420.7" y2="1826.25" gradientTransform="matrix(1 0 0 -1 0 2048)">
	<stop  offset="0" style="stop-color:#CFCDCD"/>
	<stop  offset="0.5004" style="stop-color:#A5ACAC"/>
	<stop  offset="1" style="stop-color:#656B6C"/>
</linearGradient>
<path class="st0" d="M91.3,215.2c0,0,0.4,83.2,164.7,83.2s164.7-83.2,164.7-83.2v-70.1c0,0-5.4,76.7-161.7,78.9
	c-157.6,2.2-167.7-78.9-167.7-78.9V215.2z"/>
<linearGradient id="SVGID_00000127004209107107466100000013106860408858799545_" gradientUnits="userSpaceOnUse" x1="256" y1="1982" x2="256" y2="1823.6" gradientTransform="matrix(1 0 0 -1 0 2048)">
	<stop  offset="0" style="stop-color:#CFCDCD"/>
	<stop  offset="0.5004" style="stop-color:#A5ACAC"/>
	<stop  offset="1" style="stop-color:#656B6C"/>
</linearGradient>
<ellipse style="fill:url(#SVGID_00000127004209107107466100000013106860408858799545_);stroke:#000000;stroke-width:4;stroke-miterlimit:10;" cx="256" cy="145.2" rx="164.7" ry="79.2"/>
<linearGradient id="SVGID_00000007397830181157625820000005413308703943139775_" gradientUnits="userSpaceOnUse" x1="91.3" y1="1750.55" x2="420.7" y2="1750.55" gradientTransform="matrix(1 0 0 -1 0 2048)">
	<stop  offset="0" style="stop-color:#CFCDCD"/>
	<stop  offset="0.5004" style="stop-color:#A5ACAC"/>
	<stop  offset="1" style="stop-color:#656B6C"/>
</linearGradient>
<path style="fill:url(#SVGID_00000007397830181157625820000005413308703943139775_);stroke:#000000;stroke-width:4;stroke-miterlimit:10;" d="
	M91.3,290.9c0,0,0.4,83.2,164.7,83.2s164.7-83.2,164.7-83.2v-70.1c0,0-5.4,76.7-161.7,78.9c-157.6,2.2-167.7-78.9-167.7-78.9V290.9z
	"/>
<linearGradient id="SVGID_00000129918507259449488550000000146233009113474700_" gradientUnits="userSpaceOnUse" x1="91.3" y1="1678.65" x2="420.7" y2="1678.65" gradientTransform="matrix(1 0 0 -1 0 2048)">
	<stop  offset="0" style="stop-color:#CFCDCD"/>
	<stop  offset="0.5004" style="stop-color:#A5ACAC"/>
	<stop  offset="1" style="stop-color:#656B6C"/>
</linearGradient>
<path style="fill:url(#SVGID_00000129918507259449488550000000146233009113474700_);stroke:#000000;stroke-width:4;stroke-miterlimit:10;" d="
	M91.3,362.8c0,0,0.4,83.2,164.7,83.2s164.7-83.2,164.7-83.2v-70.1c0,0-5.4,76.7-161.7,78.9c-157.6,2.2-167.7-78.9-167.7-78.9V362.8z
	"/>
<linearGradient id="SVGID_00000055691426458336262010000001281448885141163937_" gradientUnits="userSpaceOnUse" x1="91.3" y1="1314.25" x2="420.7" y2="1314.25" gradientTransform="matrix(1 0 0 -1 0 2048)">
	<stop  offset="0" style="stop-color:#CFCDCD"/>
	<stop  offset="0.5004" style="stop-color:#A5ACAC"/>
	<stop  offset="1" style="stop-color:#656B6C"/>
</linearGradient>
<path style="fill:url(#SVGID_00000055691426458336262010000001281448885141163937_);stroke:#000000;stroke-width:4;stroke-miterlimit:10;" d="
	M91.3,727.2c0,0,0.4,83.2,164.7,83.2s164.7-83.2,164.7-83.2v-70.1c0,0-5.4,76.7-161.7,78.9c-157.6,2.2-167.7-78.9-167.7-78.9V727.2z
	"/>
<linearGradient id="SVGID_00000098921886045936563380000010732963636553248399_" gradientUnits="userSpaceOnUse" x1="256" y1="1470" x2="256" y2="1311.6" gradientTransform="matrix(1 0 0 -1 0 2048)">
	<stop  offset="0" style="stop-color:#CFCDCD"/>
	<stop  offset="0.5004" style="stop-color:#A5ACAC"/>
	<stop  offset="1" style="stop-color:#656B6C"/>
</linearGradient>
<ellipse style="fill:url(#SVGID_00000098921886045936563380000010732963636553248399_);stroke:#000000;stroke-width:4;stroke-miterlimit:10;" cx="256" cy="657.2" rx="164.7" ry="79.2"/>
<linearGradient id="SVGID_00000007428459131803024090000005958435109298254260_" gradientUnits="userSpaceOnUse" x1="91.3" y1="1238.55" x2="420.7" y2="1238.55" gradientTransform="matrix(1 0 0 -1 0 2048)">
	<stop  offset="0" style="stop-color:#CFCDCD"/>
	<stop  offset="0.5004" style="stop-color:#A5ACAC"/>
	<stop  offset="1" style="stop-color:#656B6C"/>
</linearGradient>
<path style="fill:url(#SVGID_00000007428459131803024090000005958435109298254260_);stroke:#000000;stroke-width:4;stroke-miterlimit:10;" d="
	M91.3,802.9c0,0,0.4,83.2,164.7,83.2s164.7-83.2,164.7-83.2v-70.1c0,0-5.4,76.7-161.7,78.9c-157.6,2.2-167.7-78.9-167.7-78.9V802.9z
	"/>
<linearGradient id="SVGID_00000121264672239605748560000005313955429495835266_" gradientUnits="userSpaceOnUse" x1="91.3" y1="1166.65" x2="420.7" y2="1166.65" gradientTransform="matrix(1 0 0 -1 0 2048)">
	<stop  offset="0" style="stop-color:#CFCDCD"/>
	<stop  offset="0.5004" style="stop-color:#A5ACAC"/>
	<stop  offset="1" style="stop-color:#656B6C"/>
</linearGradient>
<path style="fill:url(#SVGID_00000121264672239605748560000005313955429495835266_);stroke:#000000;stroke-width:4;stroke-miterlimit:10;" d="
	M91.3,874.8c0,0,0.4,83.2,164.7,83.2s164.7-83.2,164.7-83.2v-70.1c0,0-5.4,76.7-161.7,78.9c-157.6,2.2-167.7-78.9-167.7-78.9V874.8z
	"/>
<linearGradient id="SVGID_00000077326633442808052800000015657691875975164093_" gradientUnits="userSpaceOnUse" x1="91.3" y1="802.25" x2="420.7" y2="802.25" gradientTransform="matrix(1 0 0 -1 0 2048)">
	<stop  offset="0" style="stop-color:#CFCDCD"/>
	<stop  offset="0.5004" style="stop-color:#A5ACAC"/>
	<stop  offset="1" style="stop-color:#656B6C"/>
</linearGradient>
<path style="fill:url(#SVGID_00000077326633442808052800000015657691875975164093_);stroke:#000000;stroke-width:4;stroke-miterlimit:10;" d="
	M91.3,1239.2c0,0,0.4,83.2,164.7,83.2s164.7-83.2,164.7-83.2v-70.1c0,0-5.4,76.7-161.7,78.9c-157.6,2.2-167.7-78.9-167.7-78.9
	V1239.2z"/>
<linearGradient id="SVGID_00000094605339984312674120000017862285322013100950_" gradientUnits="userSpaceOnUse" x1="256" y1="958" x2="256" y2="799.6" gradientTransform="matrix(1 0 0 -1 0 2048)">
	<stop  offset="0" style="stop-color:#CFCDCD"/>
	<stop  offset="0.5004" style="stop-color:#A5ACAC"/>
	<stop  offset="1" style="stop-color:#656B6C"/>
</linearGradient>
<ellipse style="fill:url(#SVGID_00000094605339984312674120000017862285322013100950_);stroke:#000000;stroke-width:4;stroke-miterlimit:10;" cx="256" cy="1169.2" rx="164.7" ry="79.2"/>
<linearGradient id="SVGID_00000137848878833059107550000008289583291871449519_" gradientUnits="userSpaceOnUse" x1="91.3" y1="726.55" x2="420.7" y2="726.55" gradientTransform="matrix(1 0 0 -1 0 2048)">
	<stop  offset="0" style="stop-color:#CFCDCD"/>
	<stop  offset="0.5004" style="stop-color:#A5ACAC"/>
	<stop  offset="1" style="stop-color:#656B6C"/>
</linearGradient>
<path style="fill:url(#SVGID_00000137848878833059107550000008289583291871449519_);stroke:#000000;stroke-width:4;stroke-miterlimit:10;" d="
	M91.3,1314.9c0,0,0.4,83.2,164.7,83.2s164.7-83.2,164.7-83.2v-70.1c0,0-5.4,76.7-161.7,78.9c-157.6,2.2-167.7-78.9-167.7-78.9
	V1314.9z"/>
<linearGradient id="SVGID_00000026885401204855956100000000510135362935392901_" gradientUnits="userSpaceOnUse" x1="91.3" y1="654.65" x2="420.7" y2="654.65" gradientTransform="matrix(1 0 0 -1 0 2048)">
	<stop  offset="0" style="stop-color:#CFCDCD"/>
	<stop  offset="0.5004" style="stop-color:#A5ACAC"/>
	<stop  offset="1" style="stop-color:#656B6C"/>
</linearGradient>
<path style="fill:url(#SVGID_00000026885401204855956100000000510135362935392901_);stroke:#000000;stroke-width:4;stroke-miterlimit:10;" d="
	M91.3,1386.8c0,0,0.4,83.2,164.7,83.2s164.7-83.2,164.7-83.2v-70.1c0,0-5.4,76.7-161.7,78.9c-157.6,2.2-167.7-78.9-167.7-78.9
	V1386.8z"/>
<linearGradient id="SVGID_00000065790984896074014180000015787903898720851605_" gradientUnits="userSpaceOnUse" x1="91.3" y1="290.25" x2="420.7" y2="290.25" gradientTransform="matrix(1 0 0 -1 0 2048)">
	<stop  offset="0" style="stop-color:#CFCDCD"/>
	<stop  offset="0.5004" style="stop-color:#A5ACAC"/>
	<stop  offset="1" style="stop-color:#656B6C"/>
</linearGradient>
<path style="fill:url(#SVGID_00000065790984896074014180000015787903898720851605_);stroke:#000000;stroke-width:4;stroke-miterlimit:10;" d="
	M91.3,1751.2c0,0,0.4,83.2,164.7,83.2s164.7-83.2,164.7-83.2v-70.1c0,0-5.4,76.7-161.7,78.9c-157.6,2.2-167.7-78.9-167.7-78.9
	V1751.2z"/>
<linearGradient id="SVGID_00000039134798092237445400000000124153699141836468_" gradientUnits="userSpaceOnUse" x1="256" y1="446" x2="256" y2="287.6" gradientTransform="matrix(1 0 0 -1 0 2048)">
	<stop  offset="0" style="stop-color:#CFCDCD"/>
	<stop  offset="0.5004" style="stop-color:#A5ACAC"/>
	<stop  offset="1" style="stop-color:#656B6C"/>
</linearGradient>
<ellipse style="fill:url(#SVGID_00000039134798092237445400000000124153699141836468_);stroke:#000000;stroke-width:4;stroke-miterlimit:10;" cx="256" cy="1681.2" rx="164.7" ry="79.2"/>
<linearGradient id="SVGID_00000033349431752368824090000014799748300390237618_" gradientUnits="userSpaceOnUse" x1="91.3" y1="214.55" x2="420.7" y2="214.55" gradientTransform="matrix(1 0 0 -1 0 2048)">
	<stop  offset="0" style="stop-color:#CFCDCD"/>
	<stop  offset="0.5004" style="stop-color:#A5ACAC"/>
	<stop  offset="1" style="stop-color:#656B6C"/>
</linearGradient>
<path style="fill:url(#SVGID_00000033349431752368824090000014799748300390237618_);stroke:#000000;stroke-width:4;stroke-miterlimit:10;" d="
	M91.3,1826.9c0,0,0.4,83.2,164.7,83.2s164.7-83.2,164.7-83.2v-70.1c0,0-5.4,76.7-161.7,78.9c-157.6,2.2-167.7-78.9-167.7-78.9
	V1826.9z"/>
<linearGradient id="SVGID_00000023273104205827216810000010686524968986178199_" gradientUnits="userSpaceOnUse" x1="91.3" y1="142.65" x2="420.7" y2="142.65" gradientTransform="matrix(1 0 0 -1 0 2048)">
	<stop  offset="0" style="stop-color:#CFCDCD"/>
	<stop  offset="0.5004" style="stop-color:#A5ACAC"/>
	<stop  offset="1" style="stop-color:#656B6C"/>
</linearGradient>
<path style="fill:url(#SVGID_00000023273104205827216810000010686524968986178199_);stroke:#000000;stroke-width:4;stroke-miterlimit:10;" d="
	M91.3,1898.8c0,0,0.4,83.2,164.7,83.2s164.7-83.2,164.7-83.2v-70.1c0,0-5.4,76.7-161.7,78.9c-157.6,2.2-167.7-78.9-167.7-78.9
	V1898.8z"/>
<path class="st16" d="M127.6,293.8c0,0,92.8-93.3,92.8-90s33.2,112.4,33.2,112.4l95.8-254.8l43.2,59.2L260.1,473.8l-91-188.2
	L127.6,293.8z"/>
<linearGradient id="SVGID_00000029723759832496464190000008043619192434036384_" gradientUnits="userSpaceOnUse" x1="123.49" y1="1789.48" x2="388.5" y2="1789.48" gradientTransform="matrix(1 0 0 -1 0 2048)">
	<stop  offset="0" style="stop-color:#AAD9E9"/>
	<stop  offset="1" style="stop-color:#276DB4"/>
</linearGradient>
<path style="fill:url(#SVGID_00000029723759832496464190000008043619192434036384_);stroke:#030304;stroke-width:4;stroke-miterlimit:10;" d="
	M123.5,284.7c0,0,92.8-93.3,92.8-90c0,3.3,33.2,112.4,33.2,112.4l95.8-254.8l43.2,59.2L256,464.7l-91-188.2L123.5,284.7z"/>
<linearGradient id="SVGID_00000012464875424577745400000017733563716759167392_" gradientUnits="userSpaceOnUse" x1="-251" y1="2874.1599" x2="-251" y2="3082.8137" gradientTransform="matrix(-1 0 0 -1 -2 3330)">
	<stop  offset="0" style="stop-color:#FFFFFB"/>
	<stop  offset="1" style="stop-color:#2065AD"/>
</linearGradient>
<path style="opacity:0.5;fill:url(#SVGID_00000012464875424577745400000017733563716759167392_);enable-background:new    ;" d="
	M169.9,280.1l85.9,175.7l72.4-196.4c0,0-6.2-13-26.5-12.2c-20.3,0.8-27.9,9.4-27.9,9.4l-25.1,67.2l-17.5-55.6
	c0,0-13.8,18.2-28.9,18.4C187,286.8,169.9,280.1,169.9,280.1z"/>
<path class="st16" d="M127.6,805.8c0,0,92.8-93.3,92.8-90s33.2,112.4,33.2,112.4l95.8-254.8l43.2,59.2L260.1,985.8l-91-188.2
	L127.6,805.8z"/>
<path class="st16" d="M128.2,1317.8c0,0,92.8-93.3,92.8-90s33.2,112.4,33.2,112.4l95.8-254.8l43.2,59.2l-132.5,353.1l-91-188.2
	L128.2,1317.8z"/>
<path class="st16" d="M127.6,1829.8c0,0,92.8-93.3,92.8-90s33.2,112.4,33.2,112.4l95.8-254.8l43.2,59.2l-132.5,353.1l-91-188.2
	L127.6,1829.8z"/>
<linearGradient id="SVGID_00000087388801389543608130000002162967150133361330_" gradientUnits="userSpaceOnUse" x1="123.49" y1="1277.48" x2="388.5" y2="1277.48" gradientTransform="matrix(1 0 0 -1 0 2048)">
	<stop  offset="0" style="stop-color:#FED908"/>
	<stop  offset="1" style="stop-color:#BF8010"/>
</linearGradient>
<path style="fill:url(#SVGID_00000087388801389543608130000002162967150133361330_);stroke:#020203;stroke-width:4;stroke-miterlimit:10;" d="
	M123.5,796.7c0,0,92.8-93.3,92.8-90s33.2,112.4,33.2,112.4l95.8-254.8l43.2,59.2L256,976.7l-91-188.2L123.5,796.7z"/>
<linearGradient id="SVGID_00000069355701644507523570000012863193027646691729_" gradientUnits="userSpaceOnUse" x1="-251" y1="2362.1599" x2="-251" y2="2570.8137" gradientTransform="matrix(-1 0 0 -1 -2 3330)">
	<stop  offset="0" style="stop-color:#FFFFFB"/>
	<stop  offset="1" style="stop-color:#2065AD"/>
</linearGradient>
<path style="opacity:0.5;fill:url(#SVGID_00000069355701644507523570000012863193027646691729_);enable-background:new    ;" d="
	M169.9,792.2l85.9,175.7l72.4-196.4c0,0-6.2-13-26.5-12.2c-20.3,0.8-27.9,9.4-27.9,9.4l-25.1,67.2l-17.5-55.7
	c0,0-13.8,18.2-28.9,18.4C187,798.8,169.9,792.2,169.9,792.2z"/>
<linearGradient id="SVGID_00000133529382292512574850000010119161507791536776_" gradientUnits="userSpaceOnUse" x1="124.06" y1="765.48" x2="389.07" y2="765.48" gradientTransform="matrix(1 0 0 -1 0 2048)">
	<stop  offset="0" style="stop-color:#9CCA85"/>
	<stop  offset="1" style="stop-color:#368E36"/>
</linearGradient>
<path style="fill:url(#SVGID_00000133529382292512574850000010119161507791536776_);stroke:#020203;stroke-width:4;stroke-miterlimit:10;" d="
	M124.1,1308.7c0,0,92.8-93.3,92.8-90s33.2,112.4,33.2,112.4l95.8-254.8l43.2,59.2l-132.5,353.1l-91-188.2L124.1,1308.7z"/>
<linearGradient id="SVGID_00000090985987626948584660000005218796260883256962_" gradientUnits="userSpaceOnUse" x1="-251.57" y1="1850.1599" x2="-251.57" y2="2058.8137" gradientTransform="matrix(-1 0 0 -1 -2 3330)">
	<stop  offset="0" style="stop-color:#FFFFFB"/>
	<stop  offset="1" style="stop-color:#2065AD"/>
</linearGradient>
<path style="opacity:0.5;fill:url(#SVGID_00000090985987626948584660000005218796260883256962_);enable-background:new    ;" d="
	M170.4,1304.2l85.9,175.7l72.4-196.4c0,0-6.2-13-26.5-12.2c-20.3,0.8-27.9,9.4-27.9,9.4l-25.1,67.2l-17.5-55.7
	c0,0-13.8,18.2-28.9,18.4S170.4,1304.2,170.4,1304.2z"/>
<linearGradient id="SVGID_00000031192478090091676960000002552742155355051153_" gradientUnits="userSpaceOnUse" x1="123.49" y1="253.48" x2="388.5" y2="253.48" gradientTransform="matrix(1 0 0 -1 0 2048)">
	<stop  offset="0" style="stop-color:#DEDEDE"/>
	<stop  offset="1" style="stop-color:#6F6F6F"/>
</linearGradient>
<path style="fill:url(#SVGID_00000031192478090091676960000002552742155355051153_);stroke:#000000;stroke-width:4;stroke-miterlimit:10;" d="
	M123.5,1820.7c0,0,92.8-93.3,92.8-90s33.2,112.4,33.2,112.4l95.8-254.8l43.2,59.2L256,2000.7l-91-188.2L123.5,1820.7z"/>
<linearGradient id="SVGID_00000163780689877535245270000015865903702570197901_" gradientUnits="userSpaceOnUse" x1="-251" y1="1338.1599" x2="-251" y2="1546.8136" gradientTransform="matrix(-1 0 0 -1 -2 3330)">
	<stop  offset="0" style="stop-color:#FEFEFE"/>
	<stop  offset="1" style="stop-color:#656565"/>
</linearGradient>
<path style="opacity:0.5;fill:url(#SVGID_00000163780689877535245270000015865903702570197901_);enable-background:new    ;" d="
	M169.9,1816.2l85.9,175.7l72.4-196.4c0,0-6.2-13-26.5-12.2c-20.3,0.8-27.9,9.4-27.9,9.4l-25.1,67.2l-17.5-55.7
	c0,0-13.8,18.2-28.9,18.4S169.9,1816.2,169.9,1816.2z"/>
</svg>
