<?xml version="1.0" encoding="utf-8"?>
<!-- Generator: Adobe Illustrator 27.1.0, SVG Export Plug-In . SVG Version: 6.00 Build 0)  -->
<svg version="1.1" id="Calque_1" xmlns="http://www.w3.org/2000/svg" xmlns:xlink="http://www.w3.org/1999/xlink" x="0px" y="0px"
	 viewBox="0 0 512 2048" style="enable-background:new 0 0 512 2048;" xml:space="preserve">
<style type="text/css">
	.st0{fill:url(#SVGID_1_);stroke:#000000;stroke-width:4;stroke-miterlimit:10;}
	.st1{fill:url(#SVGID_00000101796535498722058600000013127335927915232910_);stroke:#000000;stroke-width:4;stroke-miterlimit:10;}
	.st2{fill:url(#SVGID_00000160172161076691476860000005075423844176289957_);stroke:#000000;stroke-width:4;stroke-miterlimit:10;}
	.st3{fill:url(#SVGID_00000173858630451911268640000010911456898238701750_);stroke:#000000;stroke-width:4;stroke-miterlimit:10;}
	.st4{fill:url(#SVGID_00000031901321007850417420000006583590007498553738_);stroke:#000000;stroke-width:4;stroke-miterlimit:10;}
	.st5{fill:url(#SVGID_00000147208035212626698070000014979438489481771922_);stroke:#000000;stroke-width:4;stroke-miterlimit:10;}
	.st6{fill:url(#SVGID_00000137115295456922600170000018047721496659299760_);stroke:#000000;stroke-width:4;stroke-miterlimit:10;}
	.st7{fill:url(#SVGID_00000173133727855745348030000009151377637882572684_);stroke:#000000;stroke-width:4;stroke-miterlimit:10;}
	.st8{fill:url(#SVGID_00000055707427755683081020000010468654821070804910_);stroke:#000000;stroke-width:4;stroke-miterlimit:10;}
	.st9{fill:url(#SVGID_00000030477257302539050860000014352560800847812777_);stroke:#000000;stroke-width:4;stroke-miterlimit:10;}
	.st10{fill:url(#SVGID_00000160190128468690499960000016569175409576366242_);stroke:#000000;stroke-width:4;stroke-miterlimit:10;}
	.st11{fill:url(#SVGID_00000093166083381137741320000013075065286403561861_);stroke:#000000;stroke-width:4;stroke-miterlimit:10;}
	.st12{fill:url(#SVGID_00000065784616842239768880000001352287025415895476_);stroke:#000000;stroke-width:4;stroke-miterlimit:10;}
	.st13{fill:url(#SVGID_00000139982483759880488890000002631148508013555842_);stroke:#000000;stroke-width:4;stroke-miterlimit:10;}
	.st14{fill:url(#SVGID_00000061442449497998063710000015462516007531611575_);stroke:#000000;stroke-width:4;stroke-miterlimit:10;}
	.st15{fill:url(#SVGID_00000036951286170855090400000018088749097711958698_);stroke:#000000;stroke-width:4;stroke-miterlimit:10;}
	.st16{opacity:0.5;fill:none;stroke:#3E3D3C;stroke-width:16;stroke-miterlimit:10;enable-background:new    ;}
	.st17{fill:url(#SVGID_00000005972997976557401540000014055754677099336120_);stroke:#030304;stroke-width:4;stroke-miterlimit:10;}
	.st18{fill:url(#SVGID_00000129903506632199588710000009242348027445096857_);stroke:#030304;stroke-width:4;stroke-miterlimit:10;}
	.st19{opacity:0.5;fill:url(#SVGID_00000023983337368591128000000006656831068755729310_);enable-background:new    ;}
	.st20{fill:url(#SVGID_00000031198373081986883470000014845460105790219681_);stroke:#020203;stroke-width:4;stroke-miterlimit:10;}
	.st21{fill:url(#SVGID_00000183945178832030722830000004618633482854260148_);stroke:#020203;stroke-width:4;stroke-miterlimit:10;}
	.st22{opacity:0.5;fill:url(#SVGID_00000078734137726350963530000004799754478199474849_);enable-background:new    ;}
	.st23{fill:url(#SVGID_00000065789293832260871980000017228732213778631816_);stroke:#020203;stroke-width:4;stroke-miterlimit:10;}
	.st24{fill:url(#SVGID_00000024002016230543899160000003661007445202109836_);stroke:#020203;stroke-width:4;stroke-miterlimit:10;}
	.st25{opacity:0.5;fill:url(#SVGID_00000111152562553192494470000000778513759423506057_);enable-background:new    ;}
	.st26{fill:url(#SVGID_00000122686886498461488810000003450394087104085167_);stroke:#000000;stroke-width:4;stroke-miterlimit:10;}
	.st27{fill:url(#SVGID_00000121281262771184109520000010561173279147358618_);stroke:#000000;stroke-width:4;stroke-miterlimit:10;}
	.st28{opacity:0.5;fill:url(#SVGID_00000167359833987465443060000007504029819036699553_);enable-background:new    ;}
</style>
<linearGradient id="SVGID_1_" gradientUnits="userSpaceOnUse" x1="91.3" y1="1826.25" x2="420.7" y2="1826.25" gradientTransform="matrix(1 0 0 -1 0 2048)">
	<stop  offset="0" style="stop-color:#CFCDCD"/>
	<stop  offset="0.5004" style="stop-color:#A5ACAC"/>
	<stop  offset="1" style="stop-color:#656B6C"/>
</linearGradient>
<path class="st0" d="M91.3,215.2c0,0,0.4,83.2,164.7,83.2s164.7-83.2,164.7-83.2v-70.1c0,0-5.4,76.7-161.7,78.9
	c-157.6,2.2-167.7-78.9-167.7-78.9V215.2z"/>
<linearGradient id="SVGID_00000057865412630646545960000011321674264310342061_" gradientUnits="userSpaceOnUse" x1="256" y1="1982" x2="256" y2="1823.6" gradientTransform="matrix(1 0 0 -1 0 2048)">
	<stop  offset="0" style="stop-color:#CFCDCD"/>
	<stop  offset="0.5004" style="stop-color:#A5ACAC"/>
	<stop  offset="1" style="stop-color:#656B6C"/>
</linearGradient>
<ellipse style="fill:url(#SVGID_00000057865412630646545960000011321674264310342061_);stroke:#000000;stroke-width:4;stroke-miterlimit:10;" cx="256" cy="145.2" rx="164.7" ry="79.2"/>
<linearGradient id="SVGID_00000077316250736857513750000015204677068731038653_" gradientUnits="userSpaceOnUse" x1="91.3" y1="1750.55" x2="420.7" y2="1750.55" gradientTransform="matrix(1 0 0 -1 0 2048)">
	<stop  offset="0" style="stop-color:#CFCDCD"/>
	<stop  offset="0.5004" style="stop-color:#A5ACAC"/>
	<stop  offset="1" style="stop-color:#656B6C"/>
</linearGradient>
<path style="fill:url(#SVGID_00000077316250736857513750000015204677068731038653_);stroke:#000000;stroke-width:4;stroke-miterlimit:10;" d="
	M91.3,290.9c0,0,0.4,83.2,164.7,83.2s164.7-83.2,164.7-83.2v-70.1c0,0-5.4,76.7-161.7,78.9c-157.6,2.2-167.7-78.9-167.7-78.9V290.9z
	"/>
<linearGradient id="SVGID_00000005988356067134084330000005619383212770071960_" gradientUnits="userSpaceOnUse" x1="91.3" y1="1678.65" x2="420.7" y2="1678.65" gradientTransform="matrix(1 0 0 -1 0 2048)">
	<stop  offset="0" style="stop-color:#CFCDCD"/>
	<stop  offset="0.5004" style="stop-color:#A5ACAC"/>
	<stop  offset="1" style="stop-color:#656B6C"/>
</linearGradient>
<path style="fill:url(#SVGID_00000005988356067134084330000005619383212770071960_);stroke:#000000;stroke-width:4;stroke-miterlimit:10;" d="
	M91.3,362.8c0,0,0.4,83.2,164.7,83.2s164.7-83.2,164.7-83.2v-70.1c0,0-5.4,76.7-161.7,78.9c-157.6,2.2-167.7-78.9-167.7-78.9V362.8z
	"/>
<linearGradient id="SVGID_00000101802060085522284730000006489595455462491052_" gradientUnits="userSpaceOnUse" x1="91.3" y1="1314.25" x2="420.7" y2="1314.25" gradientTransform="matrix(1 0 0 -1 0 2048)">
	<stop  offset="0" style="stop-color:#CFCDCD"/>
	<stop  offset="0.5004" style="stop-color:#A5ACAC"/>
	<stop  offset="1" style="stop-color:#656B6C"/>
</linearGradient>
<path style="fill:url(#SVGID_00000101802060085522284730000006489595455462491052_);stroke:#000000;stroke-width:4;stroke-miterlimit:10;" d="
	M91.3,727.2c0,0,0.4,83.2,164.7,83.2s164.7-83.2,164.7-83.2v-70.1c0,0-5.4,76.7-161.7,78.9c-157.6,2.2-167.7-78.9-167.7-78.9V727.2z
	"/>
<linearGradient id="SVGID_00000120559873204951233960000008714847286344603313_" gradientUnits="userSpaceOnUse" x1="256" y1="1470" x2="256" y2="1311.6" gradientTransform="matrix(1 0 0 -1 0 2048)">
	<stop  offset="0" style="stop-color:#CFCDCD"/>
	<stop  offset="0.5004" style="stop-color:#A5ACAC"/>
	<stop  offset="1" style="stop-color:#656B6C"/>
</linearGradient>
<ellipse style="fill:url(#SVGID_00000120559873204951233960000008714847286344603313_);stroke:#000000;stroke-width:4;stroke-miterlimit:10;" cx="256" cy="657.2" rx="164.7" ry="79.2"/>
<linearGradient id="SVGID_00000091699023207731502030000006723206663426467989_" gradientUnits="userSpaceOnUse" x1="91.3" y1="1238.55" x2="420.7" y2="1238.55" gradientTransform="matrix(1 0 0 -1 0 2048)">
	<stop  offset="0" style="stop-color:#CFCDCD"/>
	<stop  offset="0.5004" style="stop-color:#A5ACAC"/>
	<stop  offset="1" style="stop-color:#656B6C"/>
</linearGradient>
<path style="fill:url(#SVGID_00000091699023207731502030000006723206663426467989_);stroke:#000000;stroke-width:4;stroke-miterlimit:10;" d="
	M91.3,802.9c0,0,0.4,83.2,164.7,83.2s164.7-83.2,164.7-83.2v-70.1c0,0-5.4,76.7-161.7,78.9c-157.6,2.2-167.7-78.9-167.7-78.9V802.9z
	"/>
<linearGradient id="SVGID_00000139282650524934629830000012269340078342301858_" gradientUnits="userSpaceOnUse" x1="91.3" y1="1166.65" x2="420.7" y2="1166.65" gradientTransform="matrix(1 0 0 -1 0 2048)">
	<stop  offset="0" style="stop-color:#CFCDCD"/>
	<stop  offset="0.5004" style="stop-color:#A5ACAC"/>
	<stop  offset="1" style="stop-color:#656B6C"/>
</linearGradient>
<path style="fill:url(#SVGID_00000139282650524934629830000012269340078342301858_);stroke:#000000;stroke-width:4;stroke-miterlimit:10;" d="
	M91.3,874.8c0,0,0.4,83.2,164.7,83.2s164.7-83.2,164.7-83.2v-70.1c0,0-5.4,76.7-161.7,78.9c-157.6,2.2-167.7-78.9-167.7-78.9V874.8z
	"/>
<linearGradient id="SVGID_00000026857483787533450760000001447798813223910304_" gradientUnits="userSpaceOnUse" x1="91.3" y1="802.25" x2="420.7" y2="802.25" gradientTransform="matrix(1 0 0 -1 0 2048)">
	<stop  offset="0" style="stop-color:#CFCDCD"/>
	<stop  offset="0.5004" style="stop-color:#A5ACAC"/>
	<stop  offset="1" style="stop-color:#656B6C"/>
</linearGradient>
<path style="fill:url(#SVGID_00000026857483787533450760000001447798813223910304_);stroke:#000000;stroke-width:4;stroke-miterlimit:10;" d="
	M91.3,1239.2c0,0,0.4,83.2,164.7,83.2s164.7-83.2,164.7-83.2v-70.1c0,0-5.4,76.7-161.7,78.9c-157.6,2.2-167.7-78.9-167.7-78.9
	V1239.2z"/>
<linearGradient id="SVGID_00000128450384528688498600000014376586763720245170_" gradientUnits="userSpaceOnUse" x1="256" y1="958" x2="256" y2="799.6" gradientTransform="matrix(1 0 0 -1 0 2048)">
	<stop  offset="0" style="stop-color:#CFCDCD"/>
	<stop  offset="0.5004" style="stop-color:#A5ACAC"/>
	<stop  offset="1" style="stop-color:#656B6C"/>
</linearGradient>
<ellipse style="fill:url(#SVGID_00000128450384528688498600000014376586763720245170_);stroke:#000000;stroke-width:4;stroke-miterlimit:10;" cx="256" cy="1169.2" rx="164.7" ry="79.2"/>
<linearGradient id="SVGID_00000052809314921578988970000004419942921816571298_" gradientUnits="userSpaceOnUse" x1="91.3" y1="726.55" x2="420.7" y2="726.55" gradientTransform="matrix(1 0 0 -1 0 2048)">
	<stop  offset="0" style="stop-color:#CFCDCD"/>
	<stop  offset="0.5004" style="stop-color:#A5ACAC"/>
	<stop  offset="1" style="stop-color:#656B6C"/>
</linearGradient>
<path style="fill:url(#SVGID_00000052809314921578988970000004419942921816571298_);stroke:#000000;stroke-width:4;stroke-miterlimit:10;" d="
	M91.3,1314.9c0,0,0.4,83.2,164.7,83.2s164.7-83.2,164.7-83.2v-70.1c0,0-5.4,76.7-161.7,78.9c-157.6,2.2-167.7-78.9-167.7-78.9
	V1314.9z"/>
<linearGradient id="SVGID_00000100348592777471731050000005603837845619364278_" gradientUnits="userSpaceOnUse" x1="91.3" y1="654.65" x2="420.7" y2="654.65" gradientTransform="matrix(1 0 0 -1 0 2048)">
	<stop  offset="0" style="stop-color:#CFCDCD"/>
	<stop  offset="0.5004" style="stop-color:#A5ACAC"/>
	<stop  offset="1" style="stop-color:#656B6C"/>
</linearGradient>
<path style="fill:url(#SVGID_00000100348592777471731050000005603837845619364278_);stroke:#000000;stroke-width:4;stroke-miterlimit:10;" d="
	M91.3,1386.8c0,0,0.4,83.2,164.7,83.2s164.7-83.2,164.7-83.2v-70.1c0,0-5.4,76.7-161.7,78.9c-157.6,2.2-167.7-78.9-167.7-78.9
	V1386.8z"/>
<linearGradient id="SVGID_00000013893478467503910840000013949632462703963548_" gradientUnits="userSpaceOnUse" x1="91.3" y1="290.25" x2="420.7" y2="290.25" gradientTransform="matrix(1 0 0 -1 0 2048)">
	<stop  offset="0" style="stop-color:#CFCDCD"/>
	<stop  offset="0.5004" style="stop-color:#A5ACAC"/>
	<stop  offset="1" style="stop-color:#656B6C"/>
</linearGradient>
<path style="fill:url(#SVGID_00000013893478467503910840000013949632462703963548_);stroke:#000000;stroke-width:4;stroke-miterlimit:10;" d="
	M91.3,1751.2c0,0,0.4,83.2,164.7,83.2s164.7-83.2,164.7-83.2v-70.1c0,0-5.4,76.7-161.7,78.9c-157.6,2.2-167.7-78.9-167.7-78.9
	V1751.2z"/>
<linearGradient id="SVGID_00000129206763128544589150000017705011879715159733_" gradientUnits="userSpaceOnUse" x1="256" y1="446" x2="256" y2="287.6" gradientTransform="matrix(1 0 0 -1 0 2048)">
	<stop  offset="0" style="stop-color:#CFCDCD"/>
	<stop  offset="0.5004" style="stop-color:#A5ACAC"/>
	<stop  offset="1" style="stop-color:#656B6C"/>
</linearGradient>
<ellipse style="fill:url(#SVGID_00000129206763128544589150000017705011879715159733_);stroke:#000000;stroke-width:4;stroke-miterlimit:10;" cx="256" cy="1681.2" rx="164.7" ry="79.2"/>
<linearGradient id="SVGID_00000003818861244886495360000010028106886858686111_" gradientUnits="userSpaceOnUse" x1="91.3" y1="214.55" x2="420.7" y2="214.55" gradientTransform="matrix(1 0 0 -1 0 2048)">
	<stop  offset="0" style="stop-color:#CFCDCD"/>
	<stop  offset="0.5004" style="stop-color:#A5ACAC"/>
	<stop  offset="1" style="stop-color:#656B6C"/>
</linearGradient>
<path style="fill:url(#SVGID_00000003818861244886495360000010028106886858686111_);stroke:#000000;stroke-width:4;stroke-miterlimit:10;" d="
	M91.3,1826.9c0,0,0.4,83.2,164.7,83.2s164.7-83.2,164.7-83.2v-70.1c0,0-5.4,76.7-161.7,78.9c-157.6,2.2-167.7-78.9-167.7-78.9
	V1826.9z"/>
<linearGradient id="SVGID_00000032618472575849207520000007934145555605221278_" gradientUnits="userSpaceOnUse" x1="91.3" y1="142.65" x2="420.7" y2="142.65" gradientTransform="matrix(1 0 0 -1 0 2048)">
	<stop  offset="0" style="stop-color:#CFCDCD"/>
	<stop  offset="0.5004" style="stop-color:#A5ACAC"/>
	<stop  offset="1" style="stop-color:#656B6C"/>
</linearGradient>
<path style="fill:url(#SVGID_00000032618472575849207520000007934145555605221278_);stroke:#000000;stroke-width:4;stroke-miterlimit:10;" d="
	M91.3,1898.8c0,0,0.4,83.2,164.7,83.2s164.7-83.2,164.7-83.2v-70.1c0,0-5.4,76.7-161.7,78.9c-157.6,2.2-167.7-78.9-167.7-78.9
	V1898.8z"/>
<path class="st16" d="M349,132l-91.1-52.6v34.1l0,0c-86.6,0-156.8,70.2-156.8,156.8c0,8.4,0.7,16.6,1.9,24.6h53
	c-0.7-5.2-1.1-10.4-1.1-15.8c0-59.7,45-108.9,103-115.6v21.1L349,132z"/>
<path class="st16" d="M414.5,235.5h-53c0.7,5.2,1.1,10.4,1.1,15.8c0,59.7-45,108.9-103,115.6v-21.1l-91.1,52.6l91.1,52.6v-34.1l0,0
	c86.6,0,156.8-70.2,156.8-156.8C416.4,251.7,415.8,243.5,414.5,235.5z"/>
<path class="st16" d="M349,644l-91.1-52.6v34.1l0,0c-86.6,0-156.8,70.2-156.8,156.8c0,8.4,0.7,16.6,1.9,24.6h53
	c-0.7-5.2-1.1-10.4-1.1-15.8c0-59.7,45-108.9,103-115.6v21.1L349,644z"/>
<path class="st16" d="M414.5,747.5h-53c0.7,5.2,1.1,10.4,1.1,15.8c0,59.7-45,108.9-103,115.6v-21.1l-91.1,52.6l91.1,52.6v-34.1l0,0
	c86.6,0,156.8-70.2,156.8-156.8C416.4,763.7,415.8,755.5,414.5,747.5z"/>
<path class="st16" d="M349,1156l-91.1-52.6v34.1l0,0c-86.6,0-156.8,70.2-156.8,156.8c0,8.4,0.7,16.6,1.9,24.6h53
	c-0.7-5.2-1.1-10.4-1.1-15.8c0-59.7,45-108.9,103-115.6v21.1L349,1156z"/>
<path class="st16" d="M414.5,1259.5h-53c0.7,5.2,1.1,10.4,1.1,15.8c0,59.7-45,108.9-103,115.6v-21.1l-91.1,52.6l91.1,52.6v-34.1l0,0
	c86.6,0,156.8-70.2,156.8-156.8C416.4,1275.7,415.8,1267.5,414.5,1259.5z"/>
<path class="st16" d="M339,1668l-91.1-52.6v34.1l0,0c-86.6,0-156.8,70.2-156.8,156.8c0,8.4,0.7,16.6,1.9,24.6h53
	c-0.7-5.2-1.1-10.4-1.1-15.8c0-59.7,45-108.9,103-115.6v21.1L339,1668z"/>
<path class="st16" d="M404.5,1771.5h-53c0.7,5.2,1.1,10.4,1.1,15.8c0,59.7-45,108.9-103,115.6v-21.1l-91.1,52.6l91.1,52.6v-34.1l0,0
	c86.6,0,156.8-70.2,156.8-156.8C406.4,1787.7,405.8,1779.5,404.5,1771.5z"/>
<linearGradient id="SVGID_00000132794893590269886790000015152189860439625912_" gradientUnits="userSpaceOnUse" x1="98.5638" y1="-1103.2395" x2="346.4714" y2="-1103.2395" gradientTransform="matrix(1 0 0 1 0 1282)">
	<stop  offset="0" style="stop-color:#AAD9E9"/>
	<stop  offset="1" style="stop-color:#276DB4"/>
</linearGradient>
<path style="fill:url(#SVGID_00000132794893590269886790000015152189860439625912_);stroke:#030304;stroke-width:4;stroke-miterlimit:10;" d="
	M346.5,123.6L255.3,71v34.1l0,0c-86.6,0-156.8,70.2-156.8,156.8c0,8.4,0.7,16.6,1.9,24.6h53c-0.7-5.2-1.1-10.4-1.1-15.8
	c0-59.7,45-108.9,103-115.6v21.1L346.5,123.6z"/>
<linearGradient id="SVGID_00000115479900625099984360000016927729593688360605_" gradientUnits="userSpaceOnUse" x1="166.0167" y1="-947.1292" x2="413.9243" y2="-947.1292" gradientTransform="matrix(1 0 0 1 0 1282)">
	<stop  offset="0" style="stop-color:#AAD9E9"/>
	<stop  offset="1" style="stop-color:#276DB4"/>
</linearGradient>
<path style="fill:url(#SVGID_00000115479900625099984360000016927729593688360605_);stroke:#030304;stroke-width:4;stroke-miterlimit:10;" d="
	M412,227.1h-53c0.7,5.2,1.1,10.4,1.1,15.8c0,59.7-45,108.9-103,115.6v-21.1L166,390l91.1,52.6v-34.1l0,0
	c86.6,0,156.8-70.2,156.8-156.8C413.9,243.4,413.3,235.1,412,227.1z"/>
<linearGradient id="SVGID_00000137130095492171426660000008154890223201539006_" gradientUnits="userSpaceOnUse" x1="-290.6685" y1="2895.0007" x2="-290.6685" y2="3035.9851" gradientTransform="matrix(-1 0 0 -1 -2 3330)">
	<stop  offset="0" style="stop-color:#FFFFFB"/>
	<stop  offset="1" style="stop-color:#2065AD"/>
</linearGradient>
<path style="opacity:0.5;fill:url(#SVGID_00000137130095492171426660000008154890223201539006_);enable-background:new    ;" d="
	M173.8,390.1l79.5,44.9v-29.7c0,0,46.9,1.4,86.2-24.5c39.3-26,64.2-85,64.2-85l-25.3-1.8l-28.3,7c0,0-18.4,28.9-33.3,39.7
	c-28,20.4-63.5,24.7-63.5,24.7v-20.6L173.8,390.1z"/>
<linearGradient id="SVGID_00000093873212361774201450000004775309385634331832_" gradientUnits="userSpaceOnUse" x1="98.5638" y1="-591.2395" x2="346.4715" y2="-591.2395" gradientTransform="matrix(1 0 0 1 0 1282)">
	<stop  offset="0" style="stop-color:#FED908"/>
	<stop  offset="1" style="stop-color:#BF8010"/>
</linearGradient>
<path style="fill:url(#SVGID_00000093873212361774201450000004775309385634331832_);stroke:#020203;stroke-width:4;stroke-miterlimit:10;" d="
	M346.5,635.6L255.3,583v34.1l0,0c-86.6,0-156.8,70.2-156.8,156.8c0,8.4,0.7,16.6,1.9,24.6h53c-0.7-5.2-1.1-10.4-1.1-15.8
	c0-59.7,45-108.9,103-115.6v21.1L346.5,635.6z"/>
<linearGradient id="SVGID_00000026147895533144424830000018338341850938420638_" gradientUnits="userSpaceOnUse" x1="166.0167" y1="-435.1292" x2="413.9243" y2="-435.1292" gradientTransform="matrix(1 0 0 1 0 1282)">
	<stop  offset="0" style="stop-color:#FED908"/>
	<stop  offset="1" style="stop-color:#BF8010"/>
</linearGradient>
<path style="fill:url(#SVGID_00000026147895533144424830000018338341850938420638_);stroke:#020203;stroke-width:4;stroke-miterlimit:10;" d="
	M412,739.1h-53c0.7,5.2,1.1,10.4,1.1,15.8c0,59.7-45,108.9-103,115.6v-21.1L166,902l91.1,52.6v-34.1l0,0
	c86.6,0,156.8-70.2,156.8-156.8C413.9,755.4,413.3,747.1,412,739.1z"/>
<linearGradient id="SVGID_00000127731416115641636450000011349275617521567905_" gradientUnits="userSpaceOnUse" x1="-290.6685" y1="2383.0007" x2="-290.6685" y2="2523.9854" gradientTransform="matrix(-1 0 0 -1 -2 3330)">
	<stop  offset="0" style="stop-color:#FFFFFB"/>
	<stop  offset="1" style="stop-color:#2065AD"/>
</linearGradient>
<path style="opacity:0.5;fill:url(#SVGID_00000127731416115641636450000011349275617521567905_);enable-background:new    ;" d="
	M173.8,902.1l79.5,44.9v-29.7c0,0,46.9,1.4,86.2-24.5s64.2-85,64.2-85l-25.3-1.8l-28.3,7c0,0-18.4,28.9-33.3,39.7
	c-28,20.4-63.5,24.7-63.5,24.7v-20.6L173.8,902.1z"/>
<linearGradient id="SVGID_00000093883344568808708030000011348316289243982213_" gradientUnits="userSpaceOnUse" x1="98.563" y1="-79.2395" x2="346.4707" y2="-79.2395" gradientTransform="matrix(1 0 0 1 0 1282)">
	<stop  offset="0" style="stop-color:#9CCA85"/>
	<stop  offset="1" style="stop-color:#368E36"/>
</linearGradient>
<path style="fill:url(#SVGID_00000093883344568808708030000011348316289243982213_);stroke:#020203;stroke-width:4;stroke-miterlimit:10;" d="
	M346.5,1147.6l-91.1-52.6v34.1l0,0c-86.6,0-156.8,70.2-156.8,156.8c0,8.4,0.7,16.6,1.9,24.6h53c-0.7-5.2-1.1-10.4-1.1-15.8
	c0-59.7,45-108.9,103-115.6v21.1L346.5,1147.6z"/>
<linearGradient id="SVGID_00000122700865118726060610000004259914921946013878_" gradientUnits="userSpaceOnUse" x1="166.0074" y1="76.8708" x2="413.9153" y2="76.8708" gradientTransform="matrix(1 0 0 1 0 1282)">
	<stop  offset="0" style="stop-color:#9CCA85"/>
	<stop  offset="1" style="stop-color:#368E36"/>
</linearGradient>
<path style="fill:url(#SVGID_00000122700865118726060610000004259914921946013878_);stroke:#020203;stroke-width:4;stroke-miterlimit:10;" d="
	M412,1251.1h-53c0.7,5.2,1.1,10.4,1.1,15.8c0,59.7-45,108.9-103,115.6v-21.1L166,1414l91.1,52.6v-34.1l0,0
	c86.6,0,156.8-70.2,156.8-156.8C413.9,1267.4,413.3,1259.1,412,1251.1z"/>
<linearGradient id="SVGID_00000112594061078952035370000002518255149983109264_" gradientUnits="userSpaceOnUse" x1="-290.6677" y1="1871.0006" x2="-290.6677" y2="2011.9852" gradientTransform="matrix(-1 0 0 -1 -2 3330)">
	<stop  offset="0" style="stop-color:#FFFFFB"/>
	<stop  offset="1" style="stop-color:#2065AD"/>
</linearGradient>
<path style="opacity:0.5;fill:url(#SVGID_00000112594061078952035370000002518255149983109264_);enable-background:new    ;" d="
	M173.8,1414.1l79.5,44.9v-29.7c0,0,46.9,1.4,86.2-24.5s64.2-85,64.2-85l-25.3-1.8l-28.3,7c0,0-18.4,28.9-33.3,39.7
	c-28,20.4-63.5,24.7-63.5,24.7v-20.6L173.8,1414.1z"/>
<linearGradient id="SVGID_00000118389650858473780560000001845602508223785112_" gradientUnits="userSpaceOnUse" x1="88.563" y1="432.7605" x2="336.4707" y2="432.7605" gradientTransform="matrix(1 0 0 1 0 1282)">
	<stop  offset="0" style="stop-color:#DEDEDE"/>
	<stop  offset="1" style="stop-color:#6F6F6F"/>
</linearGradient>
<path style="fill:url(#SVGID_00000118389650858473780560000001845602508223785112_);stroke:#000000;stroke-width:4;stroke-miterlimit:10;" d="
	M336.5,1659.6l-91.1-52.6v34.1l0,0c-86.6,0-156.8,70.2-156.8,156.8c0,8.4,0.7,16.6,1.9,24.6h53c-0.7-5.2-1.1-10.4-1.1-15.8
	c0-59.7,45-108.9,103-115.6v21.1L336.5,1659.6z"/>
<linearGradient id="SVGID_00000119116578815117397070000005899146585496406405_" gradientUnits="userSpaceOnUse" x1="156.0074" y1="588.8708" x2="403.9153" y2="588.8708" gradientTransform="matrix(1 0 0 1 0 1282)">
	<stop  offset="0" style="stop-color:#DEDEDE"/>
	<stop  offset="1" style="stop-color:#6F6F6F"/>
</linearGradient>
<path style="fill:url(#SVGID_00000119116578815117397070000005899146585496406405_);stroke:#000000;stroke-width:4;stroke-miterlimit:10;" d="
	M402,1763.1h-53c0.7,5.2,1.1,10.4,1.1,15.8c0,59.7-45,108.9-103,115.6v-21.1L156,1926l91.1,52.6v-34.1l0,0
	c86.6,0,156.8-70.2,156.8-156.8C403.9,1779.4,403.3,1771.1,402,1763.1z"/>
<linearGradient id="SVGID_00000155865436252410384840000002834053601125275536_" gradientUnits="userSpaceOnUse" x1="-280.6677" y1="1359.0006" x2="-280.6677" y2="1499.9852" gradientTransform="matrix(-1 0 0 -1 -2 3330)">
	<stop  offset="0" style="stop-color:#FEFEFE"/>
	<stop  offset="1" style="stop-color:#656565"/>
</linearGradient>
<path style="opacity:0.5;fill:url(#SVGID_00000155865436252410384840000002834053601125275536_);enable-background:new    ;" d="
	M163.8,1926.1l79.5,44.9v-29.7c0,0,46.9,1.4,86.2-24.5s64.2-85,64.2-85l-25.3-1.8l-28.3,7c0,0-18.4,28.9-33.3,39.7
	c-28,20.4-63.5,24.7-63.5,24.7v-20.6L163.8,1926.1z"/>
</svg>
