<?xml version="1.0" encoding="utf-8"?>
<!-- Generator: Adobe Illustrator 27.2.0, SVG Export Plug-In . SVG Version: 6.00 Build 0)  -->
<svg version="1.1" id="Calque_1" xmlns="http://www.w3.org/2000/svg" xmlns:xlink="http://www.w3.org/1999/xlink" x="0px" y="0px"
	 viewBox="0 0 512 512" style="enable-background:new 0 0 512 512;" xml:space="preserve">
<style type="text/css">
	.st0{fill:#FECD38;stroke:#000000;stroke-width:10.4302;stroke-miterlimit:10;}
</style>
<path class="st0" d="M221.7,73.9L34.3,398.4c-15.3,26.4,3.8,59.4,34.3,59.4h374.7c30.5,0,49.6-33,34.3-59.4L290.3,73.9
	C275.1,47.5,236.9,47.5,221.7,73.9z"/>
<g>
	<path d="M223.7,401.2c0-20.1,13.7-34.1,32.4-34.1c19.3,0,32.2,13.9,32.3,34.1c0,19.2-12.5,33.6-32.3,33.6
		C237,434.8,223.6,420.4,223.7,401.2z M234.8,325.6l-6.6-180.8c-0.4-9.7,7.4-17.8,17.2-17.8h21.2c9.7,0,17.5,8.1,17.2,17.8
		l-6.6,180.8c-0.2,6.3-5.4,11.4-11.8,11.4h-18.9C240.2,336.9,235,331.9,234.8,325.6z"/>
</g>
</svg>
