<?xml version="1.0" encoding="utf-8"?>
<!-- Generator: Adobe Illustrator 27.2.0, SVG Export Plug-In . SVG Version: 6.00 Build 0)  -->
<svg version="1.1" id="Calque_1" xmlns="http://www.w3.org/2000/svg" xmlns:xlink="http://www.w3.org/1999/xlink" x="0px" y="0px"
	 viewBox="0 0 512 512" style="enable-background:new 0 0 512 512;" xml:space="preserve">
<style type="text/css">
	.st0{fill:#FECD38;stroke:#000000;stroke-width:10.4302;stroke-miterlimit:10;}
</style>
<path class="st0" d="M221.7,73.9L34.3,398.4c-15.3,26.4,3.8,59.4,34.3,59.4h374.7c30.5,0,49.6-33,34.3-59.4L290.3,73.9
	C275.1,47.5,236.9,47.5,221.7,73.9z"/>
<circle cx="251" cy="218" r="24.7"/>
<path d="M447.4,421.4l-60.8-91.2l-31.3,27.3l-17.3,6.3l-63.7-30.9L256,290.2l0-36.6l-36.7-26l-62.9,19.3l-1.4,31.4L135.2,267
	l-6.3,10.4l37.1,22.1c-5.8,11-2.9,24.5,6.2,39.6c6.9,26-7.5,51.4-28.2,76.6l15.9,10.6c25.4-26.1,41.2-56.3,43.6-92
	c29.4,22.7,18.1,55.4-1.4,92h21.7c20.7-28.2,34.5-58.8,0-105.7l33.2,16.4c5.2,14.8,13.1,18.2,23.3,11.5l50.6,25l-55.2,48H447.4z
	 M177.6,287.9l-5.3-29.1c0,0,23.1-2.3,24.1-1.9L177.6,287.9z M223.7,306l6.7-14.9l17.2,29.4L223.7,306z"/>
</svg>
