<?xml version="1.0" encoding="utf-8"?>
<!-- Generator: Adobe Illustrator 26.3.1, SVG Export Plug-In . SVG Version: 6.00 Build 0)  -->
<svg version="1.1" id="Calque_1" xmlns="http://www.w3.org/2000/svg" xmlns:xlink="http://www.w3.org/1999/xlink" x="0px" y="0px"
	 viewBox="0 0 512 512" style="enable-background:new 0 0 512 512;" xml:space="preserve">
<style type="text/css">
	.st0{fill:#004192;}
</style>
<path class="st0" d="M323.2,56.7h-87.5c0,0-4.7-6.3-11.8-6.3s-12.9,8-12.9,8L15.1,290.8c0,0-3.7,5.4-2,11.6c1.6,6.2,10.5,6,10.5,6
	h145.3l-0.5-40.8l-97,0.9l105.1-123.1l-0.4,218.7c0,0-1.2,6.6-4.7,10.2c-3.5,3.6-10.2,3.9-10.2,3.9l-24.5,1.4c0,0-7.5,0-7,8.1
	s6.8,9.8,6.8,9.8s47.5-3.1,75-2.4c27.5,0.9,97.7,4.1,97.7,4.1s177.2,2.2,189.5-161.4C511.3,50.3,323.2,56.7,323.2,56.7z
	 M332.1,370.3c0,0-64.7,3.1-78-4.4c-13.2-7.5-16.3-19.9-16.3-19.9l-1.4-37.9l34.1,0.5c0,0,2.9,3.5,11.6-15.7
	c8.7-19.2,5.4-29.4,2.7-30.4c-4.2-1.5-11.6,4.2-11.6,4.2l-36.7,0.9V87.3c0,0,183-37.2,196.3,137.2
	C448.8,359.5,332.1,370.3,332.1,370.3z"/>
</svg>
