<?xml version="1.0" encoding="utf-8"?>
<!-- Generator: Adobe Illustrator 27.0.1, SVG Export Plug-In . SVG Version: 6.00 Build 0)  -->
<svg version="1.1"
	 id="svg2" xmlns:sodipodi="http://sodipodi.sourceforge.net/DTD/sodipodi-0.dtd" xmlns:dc="http://purl.org/dc/elements/1.1/" xmlns:svg="http://www.w3.org/2000/svg" xmlns:rdf="http://www.w3.org/1999/02/22-rdf-syntax-ns#" xmlns:inkscape="http://www.inkscape.org/namespaces/inkscape" xmlns:cc="http://creativecommons.org/ns#" inkscape:version="0.92.2 5c3e80d, 2017-08-06" sodipodi:docname="Label.svg"
	 xmlns="http://www.w3.org/2000/svg" xmlns:xlink="http://www.w3.org/1999/xlink" x="0px" y="0px" viewBox="0 0 48 192"
	 style="enable-background:new 0 0 48 192;" xml:space="preserve">
<style type="text/css">
	.st0{fill:#FFFFFF;stroke:#000000;stroke-width:2;stroke-linejoin:round;}
	.st1{fill:#FFFFFF;stroke:#A0A09F;stroke-width:2;stroke-linejoin:round;}
	.st2{stroke:#A0A09F;stroke-miterlimit:10;}
	.st3{fill:#FFFFFF;stroke:#4AB7E9;stroke-width:2;stroke-linejoin:round;stroke-opacity:0.9922;}
	.st4{fill:#4AB7E9;fill-opacity:0.9922;}
	.st5{fill:#FFFFFF;stroke:#FFA500;stroke-width:2;stroke-linejoin:round;stroke-opacity:0.9059;}
	.st6{fill:#FFA500;fill-opacity:0.6157;}
</style>
<sodipodi:namedview  bordercolor="#666666" borderopacity="1" gridtolerance="10" guidetolerance="10" id="namedview4" inkscape:current-layer="svg2" inkscape:cx="-54.912141" inkscape:cy="81.559351" inkscape:pageopacity="0" inkscape:pageshadow="2" inkscape:window-height="1036" inkscape:window-maximized="0" inkscape:window-width="1619" inkscape:window-x="762" inkscape:window-y="38" inkscape:zoom="3.0763395" objecttolerance="10" pagecolor="#ffffff" showgrid="false">
	</sodipodi:namedview>
<g id="g831">
	<path id="path817" inkscape:connector-curvature="0" class="st0" d="M15.1,16.3l7.3-0.3l10.3,11l-7,7l-11-10.8L15.1,16.3z"/>
	<ellipse id="path819" cx="18.9" cy="19.9" rx="1" ry="1"/>
</g>
<g id="g832" transform="translate(0,144)">
	<path id="path9" inkscape:connector-curvature="0" class="st1" d="M15.1,16.3l7.3-0.3l10.3,11l-7,7l-11-10.8L15.1,16.3z"/>
	<ellipse id="ellipse11" class="st2" cx="18.9" cy="19.9" rx="1" ry="1"/>
</g>
<g id="g833" transform="translate(0,96)">
	<path id="path14" inkscape:connector-curvature="0" class="st3" d="M15.1,16.3l7.3-0.3l10.3,11l-7,7l-11-10.8L15.1,16.3z"/>
	<ellipse id="ellipse16" class="st4" cx="18.9" cy="19.9" rx="1" ry="1"/>
</g>
<g id="g834" transform="translate(0,48)">
	<path id="path19" inkscape:connector-curvature="0" class="st5" d="M15.1,16.3l7.3-0.3l10.3,11l-7,7l-11-10.8L15.1,16.3z"/>
	<ellipse id="ellipse21" class="st6" cx="18.9" cy="19.9" rx="1" ry="1"/>
</g>
</svg>
