<?xml version="1.0" encoding="utf-8"?>
<!-- Generator: Adobe Illustrator 27.0.1, SVG Export Plug-In . SVG Version: 6.00 Build 0)  -->
<svg version="1.1"
	 id="svg2" xmlns:sodipodi="http://sodipodi.sourceforge.net/DTD/sodipodi-0.dtd" xmlns:dc="http://purl.org/dc/elements/1.1/" xmlns:svg="http://www.w3.org/2000/svg" xmlns:rdf="http://www.w3.org/1999/02/22-rdf-syntax-ns#" xmlns:inkscape="http://www.inkscape.org/namespaces/inkscape" xmlns:cc="http://creativecommons.org/ns#" inkscape:version="0.92.2 5c3e80d, 2017-08-06" sodipodi:docname="FirstPage.svg"
	 xmlns="http://www.w3.org/2000/svg" xmlns:xlink="http://www.w3.org/1999/xlink" x="0px" y="0px" viewBox="0 0 48 192"
	 style="enable-background:new 0 0 48 192;" xml:space="preserve">
<style type="text/css">
	.st0{fill:#FFFFFF;stroke:#000000;stroke-width:2;stroke-linejoin:round;}
	.st1{fill:none;stroke:#000000;}
	.st2{fill:#FFFFFF;stroke:#FFA500;stroke-width:2;stroke-linejoin:round;}
	.st3{fill:none;stroke:#FFA500;}
	.st4{fill:#FFFFFF;stroke:#39B1E5;stroke-width:2;stroke-linejoin:round;}
	.st5{fill:none;stroke:#39B1E5;}
	.st6{fill:#FFFFFF;stroke:#A0A09F;stroke-width:2;stroke-linejoin:round;}
	.st7{fill:none;stroke:#A0A09F;}
	.st8{fill:none;stroke:#000000;stroke-width:1.5;stroke-linecap:round;}
	.st9{fill:none;stroke:#000000;stroke-width:1.5;stroke-linecap:round;stroke-linejoin:round;}
	.st10{fill:none;stroke:#FFA500;stroke-width:1.5;stroke-linecap:round;}
	.st11{fill:none;stroke:#FFA500;stroke-width:1.5;stroke-linecap:round;stroke-linejoin:round;}
	.st12{fill:none;stroke:#39B1E5;stroke-width:1.5;stroke-linecap:round;}
	.st13{fill:none;stroke:#39B1E5;stroke-width:1.5;stroke-linecap:round;stroke-linejoin:round;}
	.st14{fill:none;stroke:#A0A09F;stroke-width:1.5;stroke-linecap:round;enable-background:new    ;}
	.st15{fill:none;stroke:#A0A09F;stroke-width:1.5;stroke-linecap:round;stroke-linejoin:round;enable-background:new    ;}
</style>
<sodipodi:namedview  bordercolor="#666666" borderopacity="1" gridtolerance="10" guidetolerance="10" id="namedview17" inkscape:current-layer="svg2" inkscape:cx="-39.612276" inkscape:cy="124.5" inkscape:pageopacity="0" inkscape:pageshadow="2" inkscape:window-height="845" inkscape:window-maximized="0" inkscape:window-width="1336" inkscape:window-x="631" inkscape:window-y="436" inkscape:zoom="3.1069767" objecttolerance="10" pagecolor="#ffffff" showgrid="false">
	</sodipodi:namedview>
<g id="g825">
	<path id="path817" class="st0" d="M25.9,13.2L16.3,13L16,36l16.8,0.1l0.3-15.7L25.9,13.2z"/>
	<path id="path821" class="st1" d="M25.9,13.2L26,20l7,0.4"/>
</g>
<g id="g831" transform="translate(0,48)">
	<path id="path827" class="st2" d="M25.9,13.2L16.3,13L16,36l16.8,0.1l0.3-15.7L25.9,13.2z"/>
	<path id="path829" class="st3" d="M25.9,13.2L26,20l7,0.4"/>
</g>
<g id="g837" transform="translate(0,96)">
	<path id="path833" class="st4" d="M25.9,13.2L16.3,13L16,36l16.8,0.1l0.3-15.7L25.9,13.2z"/>
	<path id="path835" class="st5" d="M25.9,13.2L26,20l7,0.4"/>
</g>
<g id="g843" transform="translate(0,144)">
	<path id="path839" class="st6" d="M25.9,13.2L16.3,13L16,36l16.8,0.1l0.3-15.7L25.9,13.2z"/>
	<path id="path841" class="st7" d="M25.9,13.2L26,20l7,0.4"/>
</g>
<path id="path823" inkscape:connector-curvature="0" class="st8" d="M21,22.5v9.2"/>
<path id="path825" inkscape:connector-curvature="0" class="st9" d="M27.4,23.2l-4,4l3.8,3.8"/>
<path id="path828" inkscape:connector-curvature="0" class="st10" d="M21,70.5v9.2"/>
<path id="path830" inkscape:connector-curvature="0" class="st11" d="M27.4,71.2l-4,4l3.8,3.8"/>
<path id="path832" inkscape:connector-curvature="0" class="st12" d="M21,118.5v9.2"/>
<path id="path834" inkscape:connector-curvature="0" class="st13" d="M27.4,119.2l-4,4l3.8,3.8"/>
<path id="path836" inkscape:connector-curvature="0" class="st14" d="M21,166.5v9.2"/>
<path id="path838" inkscape:connector-curvature="0" class="st15" d="M27.4,167.2l-4,4l3.8,3.8"/>
</svg>
