<?xml version="1.0" encoding="utf-8"?>
<!-- Generator: Adobe Illustrator 27.0.1, SVG Export Plug-In . SVG Version: 6.00 Build 0)  -->
<svg version="1.1"
	 id="svg2" xmlns:sodipodi="http://sodipodi.sourceforge.net/DTD/sodipodi-0.dtd" xmlns:dc="http://purl.org/dc/elements/1.1/" xmlns:svg="http://www.w3.org/2000/svg" xmlns:rdf="http://www.w3.org/1999/02/22-rdf-syntax-ns#" xmlns:inkscape="http://www.inkscape.org/namespaces/inkscape" xmlns:cc="http://creativecommons.org/ns#" inkscape:version="0.92.2 5c3e80d, 2017-08-06" sodipodi:docname="Report.svg"
	 xmlns="http://www.w3.org/2000/svg" xmlns:xlink="http://www.w3.org/1999/xlink" x="0px" y="0px" viewBox="0 0 48 192"
	 style="enable-background:new 0 0 48 192;" xml:space="preserve">
<style type="text/css">
	.st0{fill:#FEFFFF;stroke:#000000;stroke-width:2;stroke-linejoin:round;}
	.st1{fill:none;stroke:#000000;}
	.st2{fill:#FEFFFF;stroke:#FFA500;stroke-width:2;stroke-linejoin:round;}
	.st3{fill:none;stroke:#FFA500;}
	.st4{fill:#FEFFFF;stroke:#39B1E5;stroke-width:2;stroke-linejoin:round;}
	.st5{fill:none;stroke:#39B1E5;}
	.st6{fill:#FEFFFF;stroke:#A0A09F;stroke-width:2;stroke-linejoin:round;}
	.st7{fill:none;stroke:#A0A09F;}
</style>
<sodipodi:namedview  bordercolor="#666666" borderopacity="1" gridtolerance="10" guidetolerance="10" id="namedview17" inkscape:current-layer="svg2" inkscape:cx="25.220339" inkscape:cy="95.59322" inkscape:pageopacity="0" inkscape:pageshadow="2" inkscape:window-height="797" inkscape:window-maximized="0" inkscape:window-width="1192" inkscape:window-x="598" inkscape:window-y="423" inkscape:zoom="2.8976553" objecttolerance="10" pagecolor="#ffffff" showgrid="false">
	</sodipodi:namedview>
<g id="g825">
	<path id="path817" class="st0" d="M25.9,13.2L16.3,13L16,36l16.8,0.1l0.3-15.7L25.9,13.2z"/>
	<path id="path821" class="st1" d="M25.9,13.2L26,20l7,0.4"/>
</g>
<g id="g831" transform="translate(0,48)">
	<path id="path827" class="st2" d="M25.9,13.2L16.3,13L16,36l16.8,0.1l0.3-15.7L25.9,13.2z"/>
	<path id="path829" class="st3" d="M25.9,13.2L26,20l7,0.4"/>
</g>
<g id="g837" transform="translate(0,96)">
	<path id="path833" class="st4" d="M25.9,13.2L16.3,13L16,36l16.8,0.1l0.3-15.7L25.9,13.2z"/>
	<path id="path835" class="st5" d="M25.9,13.2L26,20l7,0.4"/>
</g>
<g id="g843" transform="translate(0,144)">
	<path id="path839" class="st6" d="M25.9,13.2L16.3,13L16,36l16.8,0.1l0.3-15.7L25.9,13.2z"/>
	<path id="path841" class="st7" d="M25.9,13.2L26,20l7,0.4"/>
</g>
</svg>
