<?xml version="1.0" encoding="utf-8"?>
<!-- Generator: Adobe Illustrator 27.2.0, SVG Export Plug-In . SVG Version: 6.00 Build 0)  -->
<svg version="1.1" id="Calque_1" xmlns="http://www.w3.org/2000/svg" xmlns:xlink="http://www.w3.org/1999/xlink" x="0px" y="0px"
	 viewBox="0 0 256 1024" style="enable-background:new 0 0 256 1024;" xml:space="preserve">
<style type="text/css">
	.st0{fill:#FFDB0E;stroke:#000000;stroke-width:5;stroke-miterlimit:10;}
	.st1{fill:#FFA500;stroke:#000000;stroke-width:5;stroke-miterlimit:10;}
	.st2{fill:#3AB2E5;stroke:#000000;stroke-width:5;stroke-miterlimit:10;}
	.st3{fill:#CFCFCF;stroke:#000000;stroke-width:5;stroke-miterlimit:10;}
</style>
<circle class="st0" cx="156" cy="55" r="37"/>
<path class="st0" d="M125.5,89.5c0,0-18,10-25,23s-10.1,38.9-9,50c1.3,14.2-41.5,38.9-47.5,42.1c-3.1,2.8-3.6,7.5-1.1,10.8l11.1,15
	c2.5,3.4,9.4,5.6,12.9,3.3c25.7-12.3,48-21.8,68.6-47.2c21.7,5.1,37.6,22.2,51.1,44.4c3.6,3.1,8.9,2.8,12.2-0.6l13.7-14.5
	c3.3-3.5,3.2-9.1-0.3-12.4c-15.4-25.5-30.5-42.3-58.7-58.9c33.6,1.9,48.9-5.2,58.1-14.9c3-3.2,3.2-8.1,0.4-11.5l-11.1-13.3
	c-2.4-2.9-6.5-3.9-10-2.4C172.4,110.2,149.2,105.6,125.5,89.5z"/>
<circle class="st1" cx="156" cy="310.5" r="37"/>
<path class="st1" d="M125.5,345c0,0-18,10-25,23s-10.1,38.9-9,50c1.3,14.2-41.5,38.9-47.5,42.1c-3.1,2.8-3.6,7.5-1.1,10.8l11.1,15
	c2.5,3.4,9.4,5.6,12.9,3.3c25.7-12.3,48-21.8,68.6-47.2c21.7,5.1,37.6,22.2,51.1,44.4c3.6,3.1,8.9,2.8,12.2-0.6l13.7-14.5
	c3.3-3.5,3.2-9.1-0.3-12.4c-15.4-25.5-30.5-42.3-58.7-58.9c33.6,1.9,48.9-5.2,58.1-14.9c3-3.2,3.2-8.1,0.4-11.5l-11.1-13.3
	c-2.4-2.9-6.5-3.9-10-2.4C172.4,365.7,149.2,361.1,125.5,345z"/>
<circle class="st2" cx="156" cy="566" r="37"/>
<path class="st2" d="M125.5,600.5c0,0-18,10-25,23s-10.1,38.9-9,50c1.3,14.2-41.5,38.9-47.5,42.1c-3.1,2.8-3.6,7.5-1.1,10.8l11.1,15
	c2.5,3.4,9.4,5.6,12.9,3.3c25.7-12.3,48-21.8,68.6-47.2c21.7,5.1,37.6,22.2,51.1,44.4c3.6,3.1,8.9,2.8,12.2-0.6l13.7-14.5
	c3.3-3.5,3.2-9.1-0.3-12.4c-15.4-25.5-30.5-42.3-58.7-58.9c33.6,1.9,48.9-5.2,58.1-14.9c3-3.2,3.2-8.1,0.4-11.5l-11.1-13.3
	c-2.4-2.9-6.5-3.9-10-2.4C172.4,621.2,149.2,616.6,125.5,600.5z"/>
<circle class="st3" cx="156.1" cy="821.5" r="37"/>
<path class="st3" d="M125.6,856c0,0-18,10-25,23s-10.1,38.9-9,50c1.3,14.2-41.5,38.9-47.5,42.1c-3.1,2.8-3.6,7.5-1.1,10.8l11.1,15
	c2.5,3.4,9.4,5.6,12.9,3.3c25.7-12.3,48-21.8,68.6-47.2c21.7,5.1,37.6,22.2,51.1,44.4c3.6,3.1,8.9,2.8,12.2-0.6l13.7-14.5
	c3.3-3.5,3.2-9.1-0.3-12.4c-15.4-25.5-30.5-42.3-58.7-58.9c33.6,1.9,48.9-5.2,58.1-14.9c3-3.2,3.2-8.1,0.4-11.5L201,871.3
	c-2.4-2.9-6.5-3.9-10-2.4C172.5,876.7,149.3,872.1,125.6,856z"/>
</svg>
