<?xml version="1.0" encoding="utf-8"?>
<!-- Generator: Adobe Illustrator 27.2.0, SVG Export Plug-In . SVG Version: 6.00 Build 0)  -->
<svg version="1.1" id="Calque_1" xmlns="http://www.w3.org/2000/svg" xmlns:xlink="http://www.w3.org/1999/xlink" x="0px" y="0px"
	 viewBox="0 0 256 1024" style="enable-background:new 0 0 256 1024;" xml:space="preserve">
<style type="text/css">
	.st0{fill:url(#SVGID_1_);}
	.st1{fill:url(#SVGID_00000034074862646741568300000000280215041460904634_);}
	.st2{fill:url(#SVGID_00000059988477238870294350000017703233188734605224_);}
	.st3{fill:none;stroke:#000000;stroke-width:5;stroke-miterlimit:10;}
	.st4{fill:url(#SVGID_00000088132697733687971780000004623850110125769100_);}
	.st5{fill:url(#SVGID_00000065793217723523856330000001795981617165978283_);}
	.st6{fill:url(#SVGID_00000110456240071648761910000014482566126987561901_);}
	.st7{fill:#FFDB0E;}
	.st8{fill:url(#SVGID_00000065782547801192046620000002853304757742135680_);}
	.st9{fill:url(#SVGID_00000119806335552918865320000018086588421391282342_);}
	.st10{opacity:0.3;enable-background:new    ;}
	.st11{fill:url(#SVGID_00000003106632857272576430000011337217544951301817_);}
	.st12{fill:url(#SVGID_00000129912822857602798920000007980900825944827317_);}
	.st13{fill:url(#SVGID_00000119812947013932554650000013838384975858890924_);}
	.st14{fill:none;stroke:#FFA500;stroke-width:5;stroke-miterlimit:10;}
	.st15{fill:url(#SVGID_00000175298195129555728070000010720959601538736268_);}
	.st16{fill:url(#SVGID_00000009568167584931565240000012463961848869096891_);}
	.st17{fill:url(#SVGID_00000121252260567458354470000010445184093813089974_);}
	.st18{fill:url(#SVGID_00000173154231339089544500000011311484908438447541_);}
	.st19{fill:url(#SVGID_00000052793638734664797540000016934227583073363596_);}
	.st20{fill:url(#SVGID_00000082370083963722563820000011284951741484698502_);}
	.st21{fill:url(#SVGID_00000062912160568114915630000006385958523456852100_);}
	.st22{fill:url(#SVGID_00000177465936375126518510000014414090448900779137_);}
	.st23{fill:none;stroke:#A0A09F;stroke-width:5;stroke-miterlimit:10;}
	.st24{fill:url(#SVGID_00000145769111642569578200000000682678099218684827_);}
	.st25{fill:url(#SVGID_00000173140698063701884830000010381052534978792588_);}
	.st26{fill:url(#SVGID_00000105408098338561907810000010266843302162768301_);}
	.st27{fill:#CFCFCF;}
	.st28{fill:url(#SVGID_00000044866364777551611350000017561378108144675760_);}
	.st29{fill:url(#SVGID_00000023270638716976855230000008748955403051856008_);}
	.st30{fill:url(#SVGID_00000154402697714222605560000001997278163389688994_);}
	.st31{fill:url(#SVGID_00000049925691382146502670000012394815150540154012_);}
	.st32{fill:url(#SVGID_00000050626979492670213510000016394047178945748137_);}
	.st33{fill:none;stroke:#3AB2E5;stroke-width:5;stroke-miterlimit:10;}
	.st34{fill:url(#SVGID_00000116934299708662036830000006257897787187752576_);}
	.st35{fill:url(#SVGID_00000181051094176243181600000018017939959285948810_);}
	.st36{fill:url(#SVGID_00000009578595811490780990000017277336292171776676_);}
	.st37{fill:url(#SVGID_00000052075966866609029150000016090668903142046858_);}
	.st38{fill:url(#SVGID_00000003812543292303212320000010225044588953236153_);}
</style>
<linearGradient id="SVGID_1_" gradientUnits="userSpaceOnUse" x1="10.1" y1="843.4" x2="74.3256" y2="843.4" gradientTransform="matrix(1 0 0 -1 0 1024)">
	<stop  offset="0" style="stop-color:#D1CCFF"/>
	<stop  offset="1" style="stop-color:#B0A9EC"/>
</linearGradient>
<polygon class="st0" points="10.1,196.6 74.4,228.8 74.4,164.5 10.1,132.4 "/>
<linearGradient id="SVGID_00000064314983935665313760000015684747389213489539_" gradientUnits="userSpaceOnUse" x1="35.95" y1="865.75" x2="97.05" y2="926.85" gradientTransform="matrix(1 0 0 -1 0 1024)">
	<stop  offset="0" style="stop-color:#F0ECFF"/>
	<stop  offset="1" style="stop-color:#CFC4E6"/>
</linearGradient>
<polygon style="fill:url(#SVGID_00000064314983935665313760000015684747389213489539_);" points="10.1,132.4 74.4,164.5 122.9,123 
	58.7,90.9 "/>
<linearGradient id="SVGID_00000077313135964903913600000016846533348427045809_" gradientUnits="userSpaceOnUse" x1="74.4" y1="848.1" x2="122.9838" y2="848.1" gradientTransform="matrix(1 0 0 -1 0 1024)">
	<stop  offset="0" style="stop-color:#39468C"/>
	<stop  offset="1" style="stop-color:#1E155C"/>
</linearGradient>
<polygon style="fill:url(#SVGID_00000077313135964903913600000016846533348427045809_);" points="74.4,228.8 122.9,187.3 122.9,123 
	74.4,164.5 "/>
<polygon class="st3" points="58.7,90.9 10.1,132.4 10.1,196.6 74.4,228.8 122.9,187.3 122.9,123 "/>
<linearGradient id="SVGID_00000042009748106180566200000004065390457789209749_" gradientUnits="userSpaceOnUse" x1="119.6" y1="845.4" x2="183.8256" y2="845.4" gradientTransform="matrix(1 0 0 -1 0 1024)">
	<stop  offset="0" style="stop-color:#FF7184"/>
	<stop  offset="1" style="stop-color:#D1131B"/>
</linearGradient>
<polygon style="fill:url(#SVGID_00000042009748106180566200000004065390457789209749_);" points="119.6,194.7 183.9,226.8 
	183.9,162.5 119.6,130.4 "/>
<linearGradient id="SVGID_00000146498053232725045380000012670760129867232397_" gradientUnits="userSpaceOnUse" x1="145.4749" y1="867.725" x2="206.525" y2="928.775" gradientTransform="matrix(1 0 0 -1 0 1024)">
	<stop  offset="0" style="stop-color:#FFA69C"/>
	<stop  offset="1" style="stop-color:#DD917A"/>
</linearGradient>
<polygon style="fill:url(#SVGID_00000146498053232725045380000012670760129867232397_);" points="119.6,130.4 183.9,162.5 
	232.4,121.1 168.2,88.9 "/>
<linearGradient id="SVGID_00000159438883333856934450000013356117455633633183_" gradientUnits="userSpaceOnUse" x1="183.9" y1="850.05" x2="232.4838" y2="850.05" gradientTransform="matrix(1 0 0 -1 0 1024)">
	<stop  offset="0" style="stop-color:#BF0000"/>
	<stop  offset="1" style="stop-color:#5E0103"/>
</linearGradient>
<polygon style="fill:url(#SVGID_00000159438883333856934450000013356117455633633183_);" points="183.9,226.8 232.4,185.3 
	232.4,121.1 183.9,162.5 "/>
<polygon class="st3" points="168.2,88.9 119.6,130.4 119.6,194.7 183.9,226.8 232.4,185.3 232.4,121.1 "/>
<polygon class="st7" points="71.2,125.7 135.4,157.9 135.4,93.6 71.2,61.5 "/>
<linearGradient id="SVGID_00000005266660592106541670000001857694281204968851_" gradientUnits="userSpaceOnUse" x1="97.05" y1="936.65" x2="158.15" y2="997.75" gradientTransform="matrix(1 0 0 -1 0 1024)">
	<stop  offset="0" style="stop-color:#FFF3AD"/>
	<stop  offset="1" style="stop-color:#FFE95A"/>
</linearGradient>
<polygon style="fill:url(#SVGID_00000005266660592106541670000001857694281204968851_);" points="71.2,61.5 135.4,93.6 184,52.1 
	119.8,20 "/>
<linearGradient id="SVGID_00000073705882428304537790000003936492930171059080_" gradientUnits="userSpaceOnUse" x1="135.4" y1="919" x2="184" y2="919" gradientTransform="matrix(1 0 0 -1 0 1024)">
	<stop  offset="0" style="stop-color:#FFA80F"/>
	<stop  offset="1" style="stop-color:#A36E00"/>
</linearGradient>
<polygon style="fill:url(#SVGID_00000073705882428304537790000003936492930171059080_);" points="135.4,157.9 184,116.4 184,52.1 
	135.4,93.6 "/>
<polygon class="st3" points="119.8,20 71.2,61.5 71.2,125.7 135.4,157.9 184,116.4 184,52.1 "/>
<polygon class="st10" points="101.1,143.3 135.8,160.8 150.5,148.5 117.3,188.9 76.8,164.2 "/>
<polygon class="st10" points="74.2,231.7 97.3,231.4 130.6,202 116.6,195 "/>
<polygon class="st10" points="184.3,229.8 207.4,229.5 253,184.9 239,177.9 233.5,175.1 233.3,183.3 "/>
<linearGradient id="SVGID_00000038397510490660684550000001498304106840979102_" gradientUnits="userSpaceOnUse" x1="10.1" y1="587.4" x2="74.3256" y2="587.4" gradientTransform="matrix(1 0 0 -1 0 1024)">
	<stop  offset="0" style="stop-color:#D1CCFF"/>
	<stop  offset="1" style="stop-color:#B0A9EC"/>
</linearGradient>
<polygon style="fill:url(#SVGID_00000038397510490660684550000001498304106840979102_);" points="10.1,452.6 74.4,484.8 74.4,420.5 
	10.1,388.4 "/>
<linearGradient id="SVGID_00000080205959315915999390000000705563304848065940_" gradientUnits="userSpaceOnUse" x1="35.95" y1="609.75" x2="97.05" y2="670.85" gradientTransform="matrix(1 0 0 -1 0 1024)">
	<stop  offset="0" style="stop-color:#F0ECFF"/>
	<stop  offset="1" style="stop-color:#CFC4E6"/>
</linearGradient>
<polygon style="fill:url(#SVGID_00000080205959315915999390000000705563304848065940_);" points="10.1,388.4 74.4,420.5 122.9,379 
	58.7,346.9 "/>
<linearGradient id="SVGID_00000009552030898104766370000010399550266733424786_" gradientUnits="userSpaceOnUse" x1="74.4" y1="592.1" x2="122.9838" y2="592.1" gradientTransform="matrix(1 0 0 -1 0 1024)">
	<stop  offset="0" style="stop-color:#39468C"/>
	<stop  offset="1" style="stop-color:#1E155C"/>
</linearGradient>
<polygon style="fill:url(#SVGID_00000009552030898104766370000010399550266733424786_);" points="74.4,484.8 122.9,443.3 122.9,379 
	74.4,420.5 "/>
<polygon class="st14" points="58.7,346.9 10.1,388.4 10.1,452.6 74.4,484.8 122.9,443.3 122.9,379 "/>
<linearGradient id="SVGID_00000059991552931945539060000016926957512473861050_" gradientUnits="userSpaceOnUse" x1="119.6" y1="589.4" x2="183.8256" y2="589.4" gradientTransform="matrix(1 0 0 -1 0 1024)">
	<stop  offset="0" style="stop-color:#FF7184"/>
	<stop  offset="1" style="stop-color:#D1131B"/>
</linearGradient>
<polygon style="fill:url(#SVGID_00000059991552931945539060000016926957512473861050_);" points="119.6,450.7 183.9,482.8 
	183.9,418.5 119.6,386.4 "/>
<linearGradient id="SVGID_00000174584245187035392690000004514189800557617829_" gradientUnits="userSpaceOnUse" x1="145.475" y1="611.725" x2="206.525" y2="672.775" gradientTransform="matrix(1 0 0 -1 0 1024)">
	<stop  offset="0" style="stop-color:#FFA69C"/>
	<stop  offset="1" style="stop-color:#DD917A"/>
</linearGradient>
<polygon style="fill:url(#SVGID_00000174584245187035392690000004514189800557617829_);" points="119.6,386.4 183.9,418.5 
	232.4,377.1 168.2,344.9 "/>
<linearGradient id="SVGID_00000049915527074796108360000006091467267924407711_" gradientUnits="userSpaceOnUse" x1="183.9" y1="594.05" x2="232.4838" y2="594.05" gradientTransform="matrix(1 0 0 -1 0 1024)">
	<stop  offset="0" style="stop-color:#BF0000"/>
	<stop  offset="1" style="stop-color:#5E0103"/>
</linearGradient>
<polygon style="fill:url(#SVGID_00000049915527074796108360000006091467267924407711_);" points="183.9,482.8 232.4,441.3 
	232.4,377.1 183.9,418.5 "/>
<polygon class="st14" points="168.2,344.9 119.6,386.4 119.6,450.7 183.9,482.8 232.4,441.3 232.4,377.1 "/>
<polygon class="st7" points="71.2,381.7 135.4,413.9 135.4,349.6 71.2,317.5 "/>
<linearGradient id="SVGID_00000011002820432769883000000007846128584435881600_" gradientUnits="userSpaceOnUse" x1="97.05" y1="680.65" x2="158.15" y2="741.75" gradientTransform="matrix(1 0 0 -1 0 1024)">
	<stop  offset="0" style="stop-color:#FFF3AD"/>
	<stop  offset="1" style="stop-color:#FFE95A"/>
</linearGradient>
<polygon style="fill:url(#SVGID_00000011002820432769883000000007846128584435881600_);" points="71.2,317.5 135.4,349.6 184,308.1 
	119.8,276 "/>
<linearGradient id="SVGID_00000025419470621821423940000015185664704591290288_" gradientUnits="userSpaceOnUse" x1="135.4" y1="663" x2="184" y2="663" gradientTransform="matrix(1 0 0 -1 0 1024)">
	<stop  offset="0" style="stop-color:#FFA80F"/>
	<stop  offset="1" style="stop-color:#A36E00"/>
</linearGradient>
<polygon style="fill:url(#SVGID_00000025419470621821423940000015185664704591290288_);" points="135.4,413.9 184,372.4 184,308.1 
	135.4,349.6 "/>
<polygon class="st14" points="119.8,276 71.2,317.5 71.2,381.7 135.4,413.9 184,372.4 184,308.1 "/>
<polygon class="st10" points="101.1,399.3 135.8,416.8 150.5,404.5 117.3,444.9 76.8,420.2 "/>
<polygon class="st10" points="74.2,487.7 97.3,487.4 130.6,458 116.6,451 "/>
<polygon class="st10" points="184.3,485.8 207.4,485.5 253,440.9 239,433.9 233.5,431.1 233.3,439.3 "/>
<linearGradient id="SVGID_00000048492947976154039830000004128712495785140111_" gradientUnits="userSpaceOnUse" x1="10.3" y1="76.25" x2="74.5256" y2="76.25" gradientTransform="matrix(1 0 0 -1 0 1024)">
	<stop  offset="0" style="stop-color:#D3D3D3"/>
	<stop  offset="1" style="stop-color:#B2B2B2"/>
</linearGradient>
<polygon style="fill:url(#SVGID_00000048492947976154039830000004128712495785140111_);" points="10.3,963.8 74.6,995.9 74.6,931.7 
	10.3,899.6 "/>
<linearGradient id="SVGID_00000160167874618570653020000001230189869407558576_" gradientUnits="userSpaceOnUse" x1="36.15" y1="98.55" x2="97.25" y2="159.65" gradientTransform="matrix(1 0 0 -1 0 1024)">
	<stop  offset="0" style="stop-color:#EFEFEF"/>
	<stop  offset="1" style="stop-color:#CBCBCB"/>
</linearGradient>
<polygon style="fill:url(#SVGID_00000160167874618570653020000001230189869407558576_);" points="10.3,899.6 74.6,931.7 
	123.1,890.2 58.9,858.1 "/>
<linearGradient id="SVGID_00000056401598855213363680000015124676570897781899_" gradientUnits="userSpaceOnUse" x1="74.6" y1="80.95" x2="123.1838" y2="80.95" gradientTransform="matrix(1 0 0 -1 0 1024)">
	<stop  offset="0" style="stop-color:#4A4A4A"/>
	<stop  offset="1" style="stop-color:#202020"/>
</linearGradient>
<polygon style="fill:url(#SVGID_00000056401598855213363680000015124676570897781899_);" points="74.6,995.9 123.1,954.4 
	123.1,890.2 74.6,931.7 "/>
<polygon class="st23" points="58.9,858.1 10.3,899.6 10.3,963.8 74.6,995.9 123.1,954.4 123.1,890.2 "/>
<linearGradient id="SVGID_00000047021492282931024340000000047834524087467704_" gradientUnits="userSpaceOnUse" x1="119.8" y1="78.25" x2="184.0256" y2="78.25" gradientTransform="matrix(1 0 0 -1 0 1024)">
	<stop  offset="0" style="stop-color:#9E9E9E"/>
	<stop  offset="1" style="stop-color:#4D4D4D"/>
</linearGradient>
<polygon style="fill:url(#SVGID_00000047021492282931024340000000047834524087467704_);" points="119.8,961.8 184.1,993.9 
	184.1,929.7 119.8,897.6 "/>
<linearGradient id="SVGID_00000011737876180674417770000008025176171035791769_" gradientUnits="userSpaceOnUse" x1="145.65" y1="100.55" x2="206.75" y2="161.65" gradientTransform="matrix(1 0 0 -1 0 1024)">
	<stop  offset="0" style="stop-color:#C0C0C0"/>
	<stop  offset="1" style="stop-color:#A5A5A5"/>
</linearGradient>
<polygon style="fill:url(#SVGID_00000011737876180674417770000008025176171035791769_);" points="119.8,897.6 184.1,929.7 
	232.6,888.2 168.4,856.1 "/>
<linearGradient id="SVGID_00000047029153023823664220000012337282428245835949_" gradientUnits="userSpaceOnUse" x1="184.1" y1="82.95" x2="232.6838" y2="82.95" gradientTransform="matrix(1 0 0 -1 0 1024)">
	<stop  offset="0" style="stop-color:#393939"/>
	<stop  offset="1" style="stop-color:#1D1D1D"/>
</linearGradient>
<polygon style="fill:url(#SVGID_00000047029153023823664220000012337282428245835949_);" points="184.1,993.9 232.6,952.4 
	232.6,888.2 184.1,929.7 "/>
<polygon class="st23" points="168.4,856.1 119.8,897.6 119.8,961.8 184.1,993.9 232.6,952.4 232.6,888.2 "/>
<polygon class="st27" points="71.4,892.9 135.6,925 135.6,860.8 71.4,828.7 "/>
<linearGradient id="SVGID_00000101817444828519412220000015099796372129389209_" gradientUnits="userSpaceOnUse" x1="97.2499" y1="169.45" x2="158.3501" y2="230.55" gradientTransform="matrix(1 0 0 -1 0 1024)">
	<stop  offset="0" style="stop-color:#EFEFEF"/>
	<stop  offset="1" style="stop-color:#E0E0E0"/>
</linearGradient>
<polygon style="fill:url(#SVGID_00000101817444828519412220000015099796372129389209_);" points="71.4,828.7 135.6,860.8 
	184.2,819.3 120,787.2 "/>
<linearGradient id="SVGID_00000148640234032699818340000002142795135853474706_" gradientUnits="userSpaceOnUse" x1="135.6" y1="151.85" x2="184.2" y2="151.85" gradientTransform="matrix(1 0 0 -1 0 1024)">
	<stop  offset="0" style="stop-color:#B1B1B1"/>
	<stop  offset="1" style="stop-color:#727272"/>
</linearGradient>
<polygon style="fill:url(#SVGID_00000148640234032699818340000002142795135853474706_);" points="135.6,925 184.2,883.5 
	184.2,819.3 135.6,860.8 "/>
<polygon class="st23" points="120,787.2 71.4,828.7 71.4,892.9 135.6,925 184.2,883.5 184.2,819.3 "/>
<polygon class="st10" points="101.3,910.4 136,928 150.7,915.6 117.5,956 77,931.4 "/>
<polygon class="st10" points="74.4,998.8 97.5,998.5 130.8,969.1 116.8,962.1 "/>
<polygon class="st10" points="184.5,996.9 207.6,996.6 253.2,952.1 239.2,945.1 233.7,942.2 233.5,950.5 "/>
<linearGradient id="SVGID_00000176758611626534802260000011649788145752368033_" gradientUnits="userSpaceOnUse" x1="10.3" y1="332.4" x2="74.5256" y2="332.4" gradientTransform="matrix(1 0 0 -1 0 1024)">
	<stop  offset="0" style="stop-color:#D1CCFF"/>
	<stop  offset="1" style="stop-color:#B0A9EC"/>
</linearGradient>
<polygon style="fill:url(#SVGID_00000176758611626534802260000011649788145752368033_);" points="10.3,707.7 74.6,739.8 74.6,675.6 
	10.3,643.4 "/>
<linearGradient id="SVGID_00000097464419958868720580000011889878264160430238_" gradientUnits="userSpaceOnUse" x1="36.175" y1="354.725" x2="97.225" y2="415.775" gradientTransform="matrix(1 0 0 -1 0 1024)">
	<stop  offset="0" style="stop-color:#F0ECFF"/>
	<stop  offset="1" style="stop-color:#CFC4E6"/>
</linearGradient>
<polygon style="fill:url(#SVGID_00000097464419958868720580000011889878264160430238_);" points="10.3,643.4 74.6,675.6 
	123.1,634.1 58.9,602 "/>
<linearGradient id="SVGID_00000041983449452412229070000013262895192122965133_" gradientUnits="userSpaceOnUse" x1="74.6" y1="337.05" x2="123.1838" y2="337.05" gradientTransform="matrix(1 0 0 -1 0 1024)">
	<stop  offset="0" style="stop-color:#39468C"/>
	<stop  offset="1" style="stop-color:#1E155C"/>
</linearGradient>
<polygon style="fill:url(#SVGID_00000041983449452412229070000013262895192122965133_);" points="74.6,739.8 123.1,698.3 
	123.1,634.1 74.6,675.6 "/>
<polygon class="st33" points="58.9,602 10.3,643.4 10.3,707.7 74.6,739.8 123.1,698.3 123.1,634.1 "/>
<linearGradient id="SVGID_00000114031907794046374380000010046253346672652469_" gradientUnits="userSpaceOnUse" x1="119.8" y1="334.35" x2="184.0256" y2="334.35" gradientTransform="matrix(1 0 0 -1 0 1024)">
	<stop  offset="0" style="stop-color:#FF7184"/>
	<stop  offset="1" style="stop-color:#D1131B"/>
</linearGradient>
<polygon style="fill:url(#SVGID_00000114031907794046374380000010046253346672652469_);" points="119.8,705.7 184.1,737.8 
	184.1,673.6 119.8,641.5 "/>
<linearGradient id="SVGID_00000134966909819836691390000007389847035846372755_" gradientUnits="userSpaceOnUse" x1="145.65" y1="356.65" x2="206.75" y2="417.75" gradientTransform="matrix(1 0 0 -1 0 1024)">
	<stop  offset="0" style="stop-color:#FFA69C"/>
	<stop  offset="1" style="stop-color:#DD917A"/>
</linearGradient>
<polygon style="fill:url(#SVGID_00000134966909819836691390000007389847035846372755_);" points="119.8,641.5 184.1,673.6 
	232.6,632.1 168.4,600 "/>
<linearGradient id="SVGID_00000034078400311117691580000001395711000608403845_" gradientUnits="userSpaceOnUse" x1="184.1" y1="339.05" x2="232.6838" y2="339.05" gradientTransform="matrix(1 0 0 -1 0 1024)">
	<stop  offset="0" style="stop-color:#BF0000"/>
	<stop  offset="1" style="stop-color:#5E0103"/>
</linearGradient>
<polygon style="fill:url(#SVGID_00000034078400311117691580000001395711000608403845_);" points="184.1,737.8 232.6,696.3 
	232.6,632.1 184.1,673.6 "/>
<polygon class="st33" points="168.4,600 119.8,641.5 119.8,705.7 184.1,737.8 232.6,696.3 232.6,632.1 "/>
<polygon class="st7" points="71.4,636.8 135.6,668.9 135.6,604.7 71.4,572.5 "/>
<linearGradient id="SVGID_00000062189656617535994410000009667612599294355113_" gradientUnits="userSpaceOnUse" x1="97.2749" y1="425.625" x2="158.3251" y2="486.675" gradientTransform="matrix(1 0 0 -1 0 1024)">
	<stop  offset="0" style="stop-color:#FFF3AD"/>
	<stop  offset="1" style="stop-color:#FFE95A"/>
</linearGradient>
<polygon style="fill:url(#SVGID_00000062189656617535994410000009667612599294355113_);" points="71.4,572.5 135.6,604.7 
	184.2,563.2 120,531.1 "/>
<linearGradient id="SVGID_00000050659855900121872820000005820337702527064499_" gradientUnits="userSpaceOnUse" x1="135.6" y1="407.95" x2="184.2" y2="407.95" gradientTransform="matrix(1 0 0 -1 0 1024)">
	<stop  offset="0" style="stop-color:#FFA80F"/>
	<stop  offset="1" style="stop-color:#A36E00"/>
</linearGradient>
<polygon style="fill:url(#SVGID_00000050659855900121872820000005820337702527064499_);" points="135.6,668.9 184.2,627.4 
	184.2,563.2 135.6,604.7 "/>
<polygon class="st33" points="120,531.1 71.4,572.5 71.4,636.8 135.6,668.9 184.2,627.4 184.2,563.2 "/>
<polygon class="st10" points="101.3,654.3 136,671.9 150.7,659.5 117.5,699.9 77,675.2 "/>
<polygon class="st10" points="74.4,742.7 97.5,742.4 130.8,713 116.8,706 "/>
<polygon class="st10" points="184.5,740.8 207.6,740.5 253.2,696 239.2,688.9 233.7,686.1 233.5,694.3 "/>
</svg>
