<?xml version="1.0" encoding="utf-8"?>
<!-- Generator: Adobe Illustrator 27.2.0, SVG Export Plug-In . SVG Version: 6.00 Build 0)  -->
<svg version="1.1" id="Calque_1" xmlns="http://www.w3.org/2000/svg" xmlns:xlink="http://www.w3.org/1999/xlink" x="0px" y="0px"
	 viewBox="0 0 256 1024" style="enable-background:new 0 0 256 1024;" xml:space="preserve">
<style type="text/css">
	.st0{fill:#FFFFFF;stroke:#000000;stroke-width:14;stroke-miterlimit:10;}
	.st1{fill:none;stroke:#000000;stroke-width:14;stroke-miterlimit:10;}
	.st2{fill:#FFFFFF;stroke:#FFA500;stroke-width:14;stroke-miterlimit:10;}
	.st3{fill:none;stroke:#FFA500;stroke-width:14;stroke-miterlimit:10;}
	.st4{fill:#FFA500;}
	.st5{fill:#FFFFFF;stroke:#3AB2E5;stroke-width:14;stroke-miterlimit:10;}
	.st6{fill:none;stroke:#3AB2E5;stroke-width:14;stroke-miterlimit:10;}
	.st7{fill:#3AB2E5;}
	.st8{fill:#FFFFFF;stroke:#A0A09F;stroke-width:14;stroke-miterlimit:10;}
	.st9{fill:none;stroke:#A0A09F;stroke-width:14;stroke-miterlimit:10;}
	.st10{fill:#A0A09F;}
</style>
<circle class="st0" cx="128" cy="127" r="50"/>
<path class="st1" d="M25.7,127c0,0,55.3-57,102.3-57s107.2,58,107.2,58S191,184,128,184S25.7,127,25.7,127z"/>
<path d="M128,99c-6.7,0-12.9,2.4-17.8,6.3l16.9,23.7L102,116.5c-1.3,3.2-2,6.8-2,10.5c0,15.5,12.5,28,28,28s28-12.5,28-28
	S143.5,99,128,99z"/>
<circle class="st2" cx="128" cy="383" r="50"/>
<path class="st3" d="M25.7,383c0,0,55.3-57,102.3-57s107.2,58,107.2,58S191,440,128,440S25.7,383,25.7,383z"/>
<path class="st4" d="M128,355c-6.7,0-12.9,2.4-17.8,6.3l16.9,23.7L102,372.5c-1.3,3.2-2,6.8-2,10.5c0,15.5,12.5,28,28,28
	s28-12.5,28-28S143.5,355,128,355z"/>
<circle class="st5" cx="128" cy="639" r="50"/>
<path class="st6" d="M25.7,639c0,0,55.3-57,102.3-57s107.2,58,107.2,58S191,696,128,696S25.7,639,25.7,639z"/>
<path class="st7" d="M128,611c-6.7,0-12.9,2.4-17.8,6.3l16.9,23.7L102,628.5c-1.3,3.2-2,6.8-2,10.5c0,15.5,12.5,28,28,28
	s28-12.5,28-28S143.5,611,128,611z"/>
<circle class="st8" cx="128" cy="895" r="50"/>
<path class="st9" d="M25.7,895c0,0,55.3-57,102.3-57s107.2,58,107.2,58S191,952,128,952S25.7,895,25.7,895z"/>
<path class="st10" d="M128,867c-6.7,0-12.9,2.4-17.8,6.3l16.9,23.7L102,884.5c-1.3,3.2-2,6.8-2,10.5c0,15.5,12.5,28,28,28
	s28-12.5,28-28S143.5,867,128,867z"/>
</svg>
