<?xml version="1.0" encoding="utf-8"?>
<!-- Generator: Adobe Illustrator 26.3.1, SVG Export Plug-In . SVG Version: 6.00 Build 0)  -->
<svg version="1.1" id="Calque_1" xmlns="http://www.w3.org/2000/svg" xmlns:xlink="http://www.w3.org/1999/xlink" x="0px" y="0px"
	 viewBox="0 0 512 512" style="enable-background:new 0 0 512 512;" xml:space="preserve">
<style type="text/css">
	.st0{fill:#CCCCCC;stroke:#000000;stroke-width:8;stroke-miterlimit:10;}
	.st1{fill:url(#SVGID_1_);stroke:#000000;stroke-width:8;stroke-miterlimit:10;}
	.st2{fill:none;stroke:#000000;stroke-width:15;stroke-miterlimit:10;}
	.st3{fill:none;stroke:#00BF00;stroke-width:20;stroke-miterlimit:10;}
	.st4{fill:#CCCBFF;}
	.st5{fill:none;stroke:#000000;stroke-width:20;stroke-miterlimit:10;}
	.st6{fill:none;stroke:#000000;stroke-width:8;stroke-miterlimit:10;}
	.st7{fill:none;stroke:#F00000;stroke-width:20;stroke-miterlimit:10;}
	.st8{fill:none;stroke:#FFFFFF;stroke-width:15;stroke-miterlimit:10;}
	.st9{fill:none;stroke:#444444;stroke-width:15;stroke-miterlimit:10;}
</style>
<path class="st0" d="M436.3,428h-370V28.2c0-6.2,5-11.2,11.2-11.2h345c7.6,0,13.8,6.2,13.8,13.8L436.3,428L436.3,428z"/>
<linearGradient id="SVGID_1_" gradientUnits="userSpaceOnUse" x1="92.135" y1="480.0218" x2="410.1349" y2="438.0218">
	<stop  offset="0" style="stop-color:#888888"/>
	<stop  offset="1" style="stop-color:#000000"/>
</linearGradient>
<rect x="87.3" y="430.5" class="st1" width="328" height="57"/>
<line class="st2" x1="276" y1="351.5" x2="390.5" y2="351.5"/>
<line class="st3" x1="111.5" y1="357.5" x2="147" y2="357.5"/>
<rect x="112.8" y="67.5" class="st4" width="277" height="212"/>
<line class="st5" x1="195.5" y1="118" x2="195.5" y2="148.5"/>
<line class="st5" x1="300.5" y1="118" x2="300.5" y2="148.5"/>
<polyline class="st6" points="206.5,214 223.5,233 279.5,233 296.6,213.3 "/>
<polyline class="st6" points="234.5,187.5 257,187.5 257,118 "/>
<line class="st7" x1="111.8" y1="378" x2="147.2" y2="378"/>
<line class="st8" x1="276" y1="367" x2="390.5" y2="367"/>
<line class="st9" x1="389.5" y1="59" x2="112.5" y2="59"/>
<line class="st9" x1="104.9" y1="67.5" x2="104.9" y2="280.5"/>
<line class="st8" x1="397.1" y1="67.5" x2="397.1" y2="279.5"/>
<line class="st8" x1="113.5" y1="288.1" x2="389.5" y2="288.1"/>
</svg>
