<?xml version="1.0" encoding="utf-8"?>
<!-- Generator: Adobe Illustrator 26.3.1, SVG Export Plug-In . SVG Version: 6.00 Build 0)  -->
<svg version="1.1" id="Calque_1" xmlns="http://www.w3.org/2000/svg" xmlns:xlink="http://www.w3.org/1999/xlink" x="0px" y="0px"
	 viewBox="0 0 512 512" style="enable-background:new 0 0 512 512;" xml:space="preserve">
<style type="text/css">
	.st0{fill:#A8A9BC;}
</style>
<path class="st0" d="M250,167c0,0,55-34,103-28s70,43,70,43s-56,33-52,100s64,86,64,86s-7,44-36,80c-13.2,16.4-48,44-66,44
	s-63-26-77-26s-56,26-75,26S68,416,63,307s66-160,100-168S250,167,250,167z"/>
<path class="st0" d="M248.9,122c4.1-7,2.5-43.5,28.1-74s66-34,66-34s7.5,32.5-14,67S248.9,122,248.9,122z"/>
</svg>
