<?xml version="1.0" encoding="utf-8"?>
<!-- Generator: Adobe Illustrator 26.3.1, SVG Export Plug-In . SVG Version: 6.00 Build 0)  -->
<svg version="1.1" id="Calque_1" xmlns="http://www.w3.org/2000/svg" xmlns:xlink="http://www.w3.org/1999/xlink" x="0px" y="0px"
	 viewBox="0 0 512 512" style="enable-background:new 0 0 512 512;" xml:space="preserve">
<style type="text/css">
	.st0{fill:#FD0F00;}
	.st1{fill:#433CF0;}
	.st2{fill:#64CB00;}
	.st3{fill:#FFC500;}
</style>
<path class="st0" d="M112,63c0,0,34.4-20.2,87-22s93,29,93,29l-46,164c0,0-36.8-30.2-83-32s-95,20-95,20L112,63z"/>
<path class="st1" d="M61,249.4c0,0,34.4-20.2,87-22c52.6-1.8,93,29,93,29l-46,164c0,0-36.8-30.2-83-32s-95,20-95,20L61,249.4z"/>
<path class="st2" d="M309.5,86.4c1.8,0.9,28.4,30.2,83.4,31.9s102.4-20,102.4-20L450,261.6c0,0-48.3,20-98.4,18.2
	c-50.1-1.8-87.3-31.5-87.3-31.5L309.5,86.4z"/>
<path class="st3" d="M260.7,265.6c1.8,0.9,28.4,30.2,83.4,31.9s102.4-20,102.4-20l-45.2,163.2c0,0-48.3,20-98.4,18.2
	s-87.3-31.5-87.3-31.5L260.7,265.6z"/>
</svg>
