<?xml version="1.0" encoding="utf-8"?>
<!-- Generator: Adobe Illustrator 26.3.1, SVG Export Plug-In . SVG Version: 6.00 Build 0)  -->
<svg version="1.1" id="Calque_1" xmlns="http://www.w3.org/2000/svg" xmlns:xlink="http://www.w3.org/1999/xlink" x="0px" y="0px"
	 viewBox="0 0 512 512" style="enable-background:new 0 0 512 512;" xml:space="preserve">
<style type="text/css">
	.st0{fill:#FF3300;}
	.st1{fill:#02A5FF;}
	.st2{fill:#66CC33;}
	.st3{fill:#FFCC00;}
</style>
<path d="M381.7,459.3l106.9-257.4c-46.9-52-105.3-77.3-175.3-76.1L205.7,385.6C271.3,376.9,329.7,401.6,381.7,459.3z"/>
<path d="M307.2,125.8l-39.6,2.3L254.2,161l39.6-3.7L307.2,125.8z"/>
<path d="M291.5,163l-39.2,2.7l-13.7,32.9l39.9-3.7L291.5,163z"/>
<path d="M276,200.6l-39.2,2.3l-13.8,32.6l39.9-3L276,200.6z"/>
<path d="M260.6,238.1l-39.6,2.3l-13.4,32.5l39.6-3.3L260.6,238.1z"/>
<path d="M245.2,274.9l-39.6,2.3l-13.4,32.5l39.9-3.4L245.2,274.9z"/>
<path d="M229.5,313.2l-39.6,2.4l-13.4,32.8L216,345L229.5,313.2z"/>
<path d="M213.7,350.7l-39.2,2.3l-13.7,32.8l39.9-3.7L213.7,350.7z"/>
<path d="M226.1,124.1l-12.4,29.9l36.5-3l12.4-29.5L226.1,124.1z"/>
<path class="st0" d="M234.8,188.8l12.1-29.5l-36.5,2.7l-12.4,29.8L234.8,188.8z"/>
<path class="st0" d="M219.7,225l12.4-29.9l-36.9,3l-12.1,29.5L219.7,225z"/>
<path d="M179.8,235.7l-12.7,29.8l37.2-3l12.1-29.8L179.8,235.7z"/>
<path class="st1" d="M163.7,273.6l-12.1,29.8l36.9-2.9l12.1-29.9L163.7,273.6z"/>
<path class="st1" d="M148.6,309.8l-12.1,29.8l36.9-3l12.4-29.8L148.6,309.8z"/>
<path d="M157.7,374.2l12.4-29.5l-36.5,2.7l-12.4,29.5L157.7,374.2z"/>
<path d="M224.4,107.7l-30.8,1.3l-11,26.5l31.2-1.7L224.4,107.7z"/>
<path class="st0" d="M177.8,147.2l-11.1,26.2l31.2-1.7l10.8-25.8L177.8,147.2z"/>
<path class="st0" d="M162.7,183.1L152,209.6l31.2-1.7l10.7-25.8L162.7,183.1z"/>
<path d="M178.2,219.6l-31.2,1l-10.8,26.5l31.2-1.6L178.2,219.6z"/>
<path class="st1" d="M131.2,258.9l-11.1,26.5l31.5-1.7l10.7-26.1L131.2,258.9z"/>
<path class="st1" d="M116.5,295.1l-10.7,25.8l30.8-1.3l11.1-26.1L116.5,295.1z"/>
<path d="M121.2,357.1l10.7-26.2l-30.8,1.3L90,358.4L121.2,357.1z"/>
<path d="M162.7,97.9l-7.7,18.8l24.8-1l8.1-19.1L162.7,97.9z"/>
<path class="st0" d="M147,135.8l-7.7,18.8l24.8-1l8-19.1L147,135.8z"/>
<path class="st0" d="M131.9,171.7l-7.7,18.8l25.2-0.7l8-19.7L131.9,171.7z"/>
<path d="M141.6,207.9l-25.2,1.3l-8,18.8l25.2-0.6L141.6,207.9z"/>
<path class="st1" d="M100.7,247.1l-8,19.1l25.5-1l7.7-19.5L100.7,247.1z"/>
<path class="st1" d="M85.7,283.4l-7.7,19.1l25.2-1l7.7-19.5L85.7,283.4z"/>
<path d="M69.9,320.9L62.2,340l25.1-1l8.1-19.4L69.9,320.9z"/>
<path d="M151.7,86.9l6.7-16.1l-19.1,2.7l-6.4,15.7L151.7,86.9z"/>
<path class="st0" d="M123.5,111.4l-6.7,15.8l19.1-2.3l6.7-16.4L123.5,111.4z"/>
<path class="st0" d="M108.4,147.6l-6.7,15.7l19.1-2.3l7-16.4L108.4,147.6z"/>
<path d="M93,185.1l-6.7,15.8l18.8-2.3l7-16.5L93,185.1z"/>
<path class="st1" d="M77.3,223l-6.3,15.7l18.8-2.3l6.7-16.1L77.3,223z"/>
<path class="st1" d="M62.2,259.2l-6.3,15.7l18.8-2.3l6.7-16.4L62.2,259.2z"/>
<path d="M46.4,296.7l-6,15.4l18.8-2.1l6.7-16.4L46.4,296.7z"/>
<path d="M116.5,54l-4.7,10.7l14.4-0.4l5.1-11.7L116.5,54z"/>
<path class="st0" d="M101.1,91.6l-4.7,11.1l14.1-0.3l4.7-11.7L101.1,91.6z"/>
<path class="st0" d="M86,127.4l-4.4,11.1h13.7l4.7-11.7L86,127.4z"/>
<path d="M70.5,165l-4.7,11h14.1l5-11.7L70.5,165z"/>
<path class="st1" d="M54.8,203.2l-4.7,10.7l14.1-0.3l4.7-11.1L54.8,203.2z"/>
<path class="st1" d="M39.7,239.4L35,250.5l14.1-0.3l5-11.4L39.7,239.4z"/>
<path d="M23.9,277l-4.4,11.1l14.1-0.4l4.7-11.7L23.9,277z"/>
<path class="st0" d="M330.5,251.5l34.2-82.1c-16.7-5.7-38.9-8-66.4-7.4l-33.9,81.8C289.5,242.8,311.7,245.5,330.5,251.5L330.5,251.5
	z"/>
<path class="st2" d="M408.8,291.4l34.2-82.8c-15.1-15.5-33.7-27-54.3-33.5c-11.6,28.1-23.2,56.1-34.9,84.2c7.8,1.6,20.5,6.8,33,14.6
	C397.4,280.3,404,285.8,408.8,291.4z"/>
<path class="st3" d="M398.7,314.9c-15.4-15.5-33.9-25.8-55-31.5l-33.5,80.8c19.4,6.7,37.6,17.8,55,32.5L398.7,314.9z"/>
<path class="st1" d="M287.4,355.4l32.5-78.4c-20.5-6.7-42.5-9.4-66-7.7l-32.9,79.5C240.7,347.7,262.6,350,287.4,355.4z"/>
</svg>
