<?xml version="1.0" encoding="utf-8"?>
<!-- Generator: Adobe Illustrator 26.5.1, SVG Export Plug-In . SVG Version: 6.00 Build 0)  -->
<svg version="1.1"
	 id="svg833" xmlns:svg="http://www.w3.org/2000/svg" xmlns:dc="http://purl.org/dc/elements/1.1/" xmlns:rdf="http://www.w3.org/1999/02/22-rdf-syntax-ns#" xmlns:cc="http://creativecommons.org/ns#"
	 xmlns="http://www.w3.org/2000/svg" xmlns:xlink="http://www.w3.org/1999/xlink" x="0px" y="0px" viewBox="0 0 16 16"
	 style="enable-background:new 0 0 16 16;" xml:space="preserve">
<style type="text/css">
	.st0{fill:#FFFFFF;stroke:#000000;stroke-width:0.5;stroke-miterlimit:10;}
	.st1{fill:#FFFFFF;stroke:#000000;stroke-width:0.5;stroke-linecap:round;stroke-miterlimit:10;}
</style>
<path class="st0" d="M11.8,15.4H4.6c-0.5,0-0.8-0.4-0.8-0.8V4.1h8.9v10.4C12.6,15,12.3,15.4,11.8,15.4z"/>
<path class="st0" d="M13.2,4.1H3.2V2.6c0-0.3,0.2-0.5,0.5-0.5h9c0.3,0,0.5,0.2,0.5,0.5V4.1z"/>
<path class="st0" d="M9.8,2.1H6.7V1.4c0-0.5,0.4-0.9,0.9-0.9h1.4c0.5,0,0.9,0.4,0.9,0.9V2.1z"/>
<line class="st1" x1="6.3" y1="6.2" x2="6.3" y2="13.3"/>
<line class="st1" x1="8.2" y1="6.2" x2="8.2" y2="13.3"/>
<line class="st1" x1="10.1" y1="6.2" x2="10.1" y2="13.3"/>
</svg>
