<?xml version="1.0" encoding="utf-8"?>
<!-- Generator: Adobe Illustrator 27.2.0, SVG Export Plug-In . SVG Version: 6.00 Build 0)  -->
<svg version="1.1" id="Calque_1" xmlns="http://www.w3.org/2000/svg" xmlns:xlink="http://www.w3.org/1999/xlink" x="0px" y="0px"
	 viewBox="0 0 16 16" style="enable-background:new 0 0 16 16;" xml:space="preserve">
<style type="text/css">
	.st0{opacity:0.8;fill:#CECECE;enable-background:new    ;}
	.st1{fill:#FAFAFA;stroke:#000000;stroke-width:0.4;stroke-miterlimit:10;}
	.st2{fill:#FFFFFF;}
	.st3{fill:#F0EFE2;}
	.st4{fill:url(#SVGID_1_);}
	.st5{fill:#EE6A5E;}
	.st6{fill:#F5BE4F;}
	.st7{fill:#5FC454;}
</style>
<path class="st0" d="M14.5,14.1h-12c-0.4,0-0.8-0.3-0.8-0.8v-10c0-0.4,0.3-0.8,0.8-0.8h12c0.4,0,0.8,0.3,0.8,0.8v10
	C15.3,13.8,14.9,14.1,14.5,14.1z"/>
<path class="st1" d="M13.8,13.6h-12c-0.4,0-0.8-0.3-0.8-0.8v-10C1,2.4,1.3,2,1.8,2h12c0.4,0,0.8,0.3,0.8,0.8v10
	C14.6,13.3,14.2,13.6,13.8,13.6z"/>
<path class="st2" d="M13.9,13.4H1.8c-0.3,0-0.6-0.3-0.6-0.6V4.9h13.3v7.9C14.5,13.1,14.2,13.4,13.9,13.4z"/>
<rect x="1.2" y="3.5" class="st3" width="13.3" height="1.4"/>
<linearGradient id="SVGID_1_" gradientUnits="userSpaceOnUse" x1="7.8276" y1="1009.5852" x2="7.8276" y2="1008.1994" gradientTransform="matrix(1 0 0 1 0 -1006)">
	<stop  offset="0" style="stop-color:#0153E5"/>
	<stop  offset="0.5046" style="stop-color:#0183E5"/>
	<stop  offset="1" style="stop-color:#0153E5"/>
</linearGradient>
<path class="st4" d="M13.9,2.2H1.7c-0.3,0-0.5,0.2-0.5,0.5v0.8h13.3V2.8C14.5,2.5,14.2,2.2,13.9,2.2z"/>
<rect x="13.2" y="2.5" class="st5" width="0.7" height="0.7"/>
<rect x="12.3" y="2.5" class="st6" width="0.7" height="0.7"/>
<rect x="11.3" y="2.5" class="st7" width="0.7" height="0.7"/>
</svg>
