<?xml version="1.0" encoding="utf-8"?>
<!-- Generator: Adobe Illustrator 27.6.1, SVG Export Plug-In . SVG Version: 6.00 Build 0)  -->
<svg version="1.1"
	 id="svg833" xmlns:rdf="http://www.w3.org/1999/02/22-rdf-syntax-ns#" xmlns:svg="http://www.w3.org/2000/svg" xmlns:dc="http://purl.org/dc/elements/1.1/" xmlns:cc="http://creativecommons.org/ns#"
	 xmlns="http://www.w3.org/2000/svg" xmlns:xlink="http://www.w3.org/1999/xlink" x="0px" y="0px" viewBox="0 0 16 16"
	 style="enable-background:new 0 0 16 16;" xml:space="preserve">
<style type="text/css">
	.st0{fill:#D1AF71;stroke:#000000;stroke-width:0.5;stroke-miterlimit:10;}
	.st1{fill:#FFFFFF;}
	.st2{fill:#FFFFFF;stroke:#000000;stroke-width:0.5;stroke-miterlimit:10;}
</style>
<g id="g841">
</g>
<path class="st0" d="M12.8,15.5H3.4c-0.5,0-1-0.4-1-1V4.1c0-0.5,0.4-1,1-1h9.3c0.5,0,1,0.4,1,1v10.4C13.7,15.1,13.3,15.5,12.8,15.5z
	"/>
<rect x="3.6" y="4" class="st1" width="8.9" height="10.7"/>
<path class="st2" d="M9.9,2.1C9.1,0,7.1,0,6.3,2.1C4.8,2.5,4.7,3.5,4.9,4.6h6.4C11.6,3.4,11.2,2.5,9.9,2.1z M8.1,2.2
	C8,2.2,7.9,2.1,7.9,2S8,1.7,8.1,1.7S8.3,1.8,8.3,2S8.2,2.2,8.1,2.2z"/>
<line class="st2" x1="5" y1="6.5" x2="11.4" y2="6.5"/>
<line class="st2" x1="5" y1="7.6" x2="11.4" y2="7.6"/>
<line class="st2" x1="5" y1="8.7" x2="11.4" y2="8.7"/>
<line class="st2" x1="5" y1="9.8" x2="11.4" y2="9.8"/>
<line class="st2" x1="7.7" y1="10.9" x2="11.4" y2="10.9"/>
</svg>
