<?xml version="1.0" encoding="utf-8"?>
<!-- Generator: Adobe Illustrator 27.2.0, SVG Export Plug-In . SVG Version: 6.00 Build 0)  -->
<svg version="1.1" id="Calque_1" xmlns="http://www.w3.org/2000/svg" xmlns:xlink="http://www.w3.org/1999/xlink" x="0px" y="0px"
	 viewBox="0 0 16 16" style="enable-background:new 0 0 16 16;" xml:space="preserve">
<style type="text/css">
	.st0{fill:#3C82F3;stroke:#000000;stroke-width:0.2;stroke-miterlimit:10;}
	.st1{fill:#FFFFFF;}
</style>
<path class="st0" d="M14,14.7H2.2c-0.6,0-1.1-0.5-1.1-1.1v0c0-0.6,0.5-1.1,1.1-1.1H14c0.6,0,1.1,0.5,1.1,1.1v0
	C15.1,14.2,14.6,14.7,14,14.7z"/>
<polygon class="st0" points="3.1,12.5 8,0.7 13.2,4.8 9.6,4.1 13.7,12.5 "/>
<path class="st1" d="M11.5,8.2l-0.3-0.6c-1.1,0.1-2.1,1-2.1,2.2c0,1.1,0.8,2,1.9,2.2c-0.5-0.4-0.8-1-0.8-1.7
	C10.2,9.3,10.7,8.5,11.5,8.2z"/>
<polygon class="st1" points="5.7,10.2 6.5,9.3 6.5,10.3 7.5,10.6 6.5,10.9 6.4,12 5.7,11.1 4.6,11.7 5.3,10.6 4.5,10 "/>
<polygon class="st1" points="8.5,5.9 9.3,5 9.3,6 10.2,6.2 9.3,6.6 9.1,7.7 8.5,6.8 7.3,7.3 8.1,6.3 7.2,5.7 "/>
</svg>
