<?xml version="1.0" encoding="utf-8"?>
<!-- Generator: Adobe Illustrator 27.2.0, SVG Export Plug-In . SVG Version: 6.00 Build 0)  -->
<svg version="1.1" id="Calque_1" xmlns="http://www.w3.org/2000/svg" xmlns:xlink="http://www.w3.org/1999/xlink" x="0px" y="0px"
	 viewBox="0 0 16 16" style="enable-background:new 0 0 16 16;" xml:space="preserve">
<style type="text/css">
	.st0{opacity:0.8;fill:#CECECE;enable-background:new    ;}
	.st1{fill:#FAFAFA;stroke:#000000;stroke-width:0.4;stroke-miterlimit:10;}
	.st2{fill:url(#SVGID_1_);}
	.st3{fill:none;stroke:#000000;stroke-width:0.4;stroke-miterlimit:10;}
	.st4{fill:#EE6A5E;}
	.st5{fill:#F5BE4F;}
	.st6{fill:#5FC454;}
</style>
<path class="st0" d="M14.5,14.1h-12c-0.4,0-0.8-0.3-0.8-0.8v-10c0-0.4,0.3-0.8,0.8-0.8h12c0.4,0,0.8,0.3,0.8,0.8v10
	C15.3,13.8,14.9,14.1,14.5,14.1z"/>
<path class="st1" d="M13.8,13.6h-12c-0.4,0-0.8-0.3-0.8-0.8v-10C1,2.4,1.3,2,1.8,2h12c0.4,0,0.8,0.3,0.8,0.8v10
	C14.6,13.3,14.2,13.6,13.8,13.6z"/>
<linearGradient id="SVGID_1_" gradientUnits="userSpaceOnUse" x1="7.8053" y1="14.1445" x2="7.8053" y2="4.584" gradientTransform="matrix(1 0 0 -1 0 18)">
	<stop  offset="0" style="stop-color:#2D2D58"/>
	<stop  offset="1" style="stop-color:#9898FB"/>
</linearGradient>
<path class="st2" d="M13.9,13.4H1.7c-0.3,0-0.6-0.3-0.6-0.6v-9h13.4v9C14.5,13.1,14.2,13.4,13.9,13.4z"/>
<line class="st3" x1="1.1" y1="3.9" x2="14.6" y2="3.9"/>
<circle class="st4" cx="2.1" cy="2.9" r="0.3"/>
<circle class="st5" cx="3" cy="2.9" r="0.3"/>
<circle class="st6" cx="3.9" cy="2.9" r="0.3"/>
</svg>
