<?xml version="1.0" encoding="utf-8"?>
<!-- Generator: Adobe Illustrator 26.5.1, SVG Export Plug-In . SVG Version: 6.00 Build 0)  -->
<svg version="1.1"
	 id="svg833" xmlns:cc="http://creativecommons.org/ns#" xmlns:rdf="http://www.w3.org/1999/02/22-rdf-syntax-ns#" xmlns:svg="http://www.w3.org/2000/svg" xmlns:dc="http://purl.org/dc/elements/1.1/"
	 xmlns="http://www.w3.org/2000/svg" xmlns:xlink="http://www.w3.org/1999/xlink" x="0px" y="0px" viewBox="0 0 16 16"
	 style="enable-background:new 0 0 16 16;" xml:space="preserve">
<style type="text/css">
	.st0{fill:url(#SVGID_1_);stroke:#207704;stroke-width:0.5;stroke-miterlimit:10;}
	
		.st1{fill:url(#SVGID_00000098196178539364044390000011669415596294356627_);stroke:#207704;stroke-width:0.5;stroke-miterlimit:10;}
</style>
<linearGradient id="SVGID_1_" gradientUnits="userSpaceOnUse" x1="7.6343" y1="8.4994" x2="7.7627" y2="1.0506">
	<stop  offset="0" style="stop-color:#3FFF56;stop-opacity:0.99"/>
	<stop  offset="1" style="stop-color:#136A00;stop-opacity:0.9843"/>
</linearGradient>
<path class="st0" d="M1.8,8.4c-0.3,0-0.6-0.3-0.6-0.6C1.3,6.4,2,3.4,5,2c3.2-1.5,6-0.1,6.8,0.4c0.2,0.1,0.4,0.1,0.5,0l1.4-1.2
	l0.5,4.6c0,0.3-0.2,0.5-0.5,0.5l-5-0.3L10,4.6c0.2-0.2,0.2-0.6-0.1-0.7C9.1,3.6,7.5,3.1,5.7,4.1C3.6,5.3,3.4,7.1,3.4,8
	c0,0.2-0.2,0.4-0.4,0.4H1.8z"/>
<linearGradient id="SVGID_00000034078346290416783440000002021944825558438303_" gradientUnits="userSpaceOnUse" x1="8.3368" y1="14.8475" x2="8.3368" y2="7.6021">
	<stop  offset="0" style="stop-color:#3FFF56;stop-opacity:0.99"/>
	<stop  offset="1" style="stop-color:#136A00;stop-opacity:0.9843"/>
</linearGradient>
<path style="fill:url(#SVGID_00000034078346290416783440000002021944825558438303_);stroke:#207704;stroke-width:0.5;stroke-miterlimit:10;" d="
	M14.2,7.6c0.3,0,0.6,0.3,0.6,0.6C14.7,9.6,14,12.6,11,14c-3.2,1.5-6,0.1-6.8-0.4c-0.2-0.1-0.4-0.1-0.5,0l-1.4,1.2l-0.5-4.6
	C1.8,10,2,9.7,2.3,9.7l5,0.3L6,11.4c-0.2,0.2-0.2,0.6,0.1,0.7c0.8,0.4,2.4,0.9,4.2-0.2c2.1-1.2,2.4-3,2.3-3.9c0-0.2,0.2-0.4,0.4-0.4
	H14.2z"/>
</svg>
