<?xml version="1.0" encoding="utf-8"?>
<!-- Generator: Adobe Illustrator 26.2.1, SVG Export Plug-In . SVG Version: 6.00 Build 0)  -->
<svg version="1.1"
	 id="svg833" xmlns:cc="http://creativecommons.org/ns#" xmlns:dc="http://purl.org/dc/elements/1.1/" xmlns:rdf="http://www.w3.org/1999/02/22-rdf-syntax-ns#" xmlns:svg="http://www.w3.org/2000/svg"
	 xmlns="http://www.w3.org/2000/svg" xmlns:xlink="http://www.w3.org/1999/xlink" x="0px" y="0px" viewBox="0 0 16 16"
	 style="enable-background:new 0 0 16 16;" xml:space="preserve">
<style type="text/css">
	.st0{fill:#FFFFFF;}
</style>
<g id="g841">
</g>
<ellipse class="st0" cx="8" cy="8.1" rx="7.7" ry="7.7"/>
<path d="M8,0.4c-4.3,0-7.7,3.5-7.7,7.7c0,3.5,2.4,6.5,5.6,7.4c0-0.1,0.1-0.2,0.1-0.3c0.1-0.3,0.1-1.5,0.1-1.5S5,14,4.2,13.7
	c-0.7-0.2-1.1-1.3-1.1-1.5c-0.2-0.2-0.8-0.9-0.8-0.9s0.7-0.2,1.1,0.2c0.5,0.3,0.7,1.3,1.2,1.3c0.5,0.1,1,0.2,1.3-0.2
	c0.2-0.1,0.2-0.5,0.3-0.7c0.1-0.3,0.3-0.4,0.3-0.4s-3-0.3-3.4-2.7C2.7,6.6,3.8,5.7,3.8,5.7S3.3,4,3.9,3.6c0.6-0.3,2,0.7,2,0.7
	s0.9-0.2,2-0.2s2,0.3,2,0.3s1.5-1.1,2.1-0.9c0.6,0.2,0.2,2.1,0.2,2.1S13.3,6.5,13,9c-0.2,2.4-3.5,2.6-3.5,2.6s0.2,0.2,0.3,0.5
	c0.2,0.3,0.2,0.9,0.2,0.9s-0.1,2.1,0,2.3c0,0.1,0.1,0.2,0.1,0.2c3.3-0.9,5.7-3.9,5.7-7.5C15.7,3.9,12.3,0.4,8,0.4z"/>
</svg>
