<?xml version="1.0" encoding="utf-8"?>
<!-- Generator: Adobe Illustrator 27.0.1, SVG Export Plug-In . SVG Version: 6.00 Build 0)  -->
<svg version="1.1" id="Calque_1" xmlns="http://www.w3.org/2000/svg" xmlns:xlink="http://www.w3.org/1999/xlink" x="0px" y="0px"
	 viewBox="0 0 512 2048" style="enable-background:new 0 0 512 2048;" xml:space="preserve">
<style type="text/css">
	.st0{opacity:0.5;fill:none;stroke:#A1A09F;stroke-width:8;stroke-miterlimit:10;enable-background:new    ;}
	.st1{fill:url(#SVGID_1_);}
	.st2{fill:url(#SVGID_00000047751123098311309200000006097939168689769133_);}
	.st3{fill:none;stroke:#020203;stroke-miterlimit:10;}
	.st4{fill:none;stroke:#828380;stroke-width:8;stroke-miterlimit:10;}
	.st5{fill:url(#SVGID_00000147938478985031551730000005059931780602917802_);stroke:#828380;stroke-width:8;stroke-miterlimit:10;}
	.st6{fill:url(#SVGID_00000109002003717206627820000017088543269636887713_);stroke:#448B50;stroke-width:4;stroke-miterlimit:10;}
	.st7{fill:url(#SVGID_00000118384315100120589120000010700653493965526402_);stroke:#828380;stroke-width:8;stroke-miterlimit:10;}
	.st8{fill:url(#SVGID_00000024724286545053410310000001157481837281557392_);stroke:#030405;stroke-width:8;stroke-miterlimit:10;}
	.st9{fill:url(#SVGID_00000142875028320856155650000005822941987709605025_);}
	.st10{fill:url(#SVGID_00000161613445864215652990000003422206892262180777_);}
	.st11{fill:url(#SVGID_00000097489735203996954250000000519431417884467084_);stroke:#828380;stroke-width:8;stroke-miterlimit:10;}
	.st12{fill:url(#SVGID_00000133501502570180427630000013770363954264813994_);stroke:#448B50;stroke-width:4;stroke-miterlimit:10;}
	.st13{fill:url(#SVGID_00000168837426079372057090000013688798617879125386_);stroke:#828380;stroke-width:8;stroke-miterlimit:10;}
	.st14{fill:url(#SVGID_00000066493729310904009410000004222082265992356489_);stroke:#030405;stroke-width:8;stroke-miterlimit:10;}
	.st15{fill:url(#SVGID_00000053524267638070518840000014954482856847853989_);}
	.st16{fill:url(#SVGID_00000087383211427129262000000008806705941748560029_);}
	.st17{fill:url(#SVGID_00000040554710821293292700000004428999737118889126_);stroke:#828380;stroke-width:8;stroke-miterlimit:10;}
	.st18{fill:url(#SVGID_00000163762059100431881170000009870432261971120277_);stroke:#448B50;stroke-width:4;stroke-miterlimit:10;}
	.st19{fill:url(#SVGID_00000145760559202559793000000000939923044763258803_);stroke:#828380;stroke-width:8;stroke-miterlimit:10;}
	.st20{fill:url(#SVGID_00000000936846374885307710000007282330632115563686_);stroke:#030405;stroke-width:8;stroke-miterlimit:10;}
	.st21{opacity:0.5;fill:none;stroke:#949494;stroke-width:8;stroke-miterlimit:10;enable-background:new    ;}
	.st22{fill:url(#SVGID_00000137843932752172151370000007115285170682668202_);}
	.st23{fill:url(#SVGID_00000154395752063440886240000002345190278136159887_);}
	.st24{fill:none;stroke:#000000;stroke-miterlimit:10;}
	.st25{fill:none;stroke:#646464;stroke-width:8;stroke-miterlimit:10;}
	.st26{fill:url(#SVGID_00000147904144315493514980000012860251591337875129_);stroke:#646464;stroke-width:8;stroke-miterlimit:10;}
	.st27{fill:url(#SVGID_00000079477362130766519000000004961208229098713782_);stroke:#787878;stroke-width:4;stroke-miterlimit:10;}
	.st28{fill:url(#SVGID_00000021083267549887365790000008366360904086916760_);stroke:#646464;stroke-width:8;stroke-miterlimit:10;}
	.st29{fill:url(#SVGID_00000009591520996828342000000010436845645916437668_);stroke:#000000;stroke-width:8;stroke-miterlimit:10;}
</style>
<polyline class="st0" points="26.63,360.96 262.64,473.01 490.41,372.55 "/>
<linearGradient id="SVGID_1_" gradientUnits="userSpaceOnUse" x1="257.69" y1="1851.715" x2="257.69" y2="1677.455" gradientTransform="matrix(1 0 0 -1 0 2050)">
	<stop  offset="0" style="stop-color:#8F8FBC"/>
	<stop  offset="1" style="stop-color:#EBEAE7"/>
</linearGradient>
<polygon class="st1" points="28.04,272.87 246.78,198.29 487.34,283.37 262.64,372.55 "/>
<linearGradient id="SVGID_00000183938572112213260770000008593681226137466251_" gradientUnits="userSpaceOnUse" x1="144.21" y1="1777.725" x2="144.21" y2="1584.1851" gradientTransform="matrix(1 0 0 -1 0 2050)">
	<stop  offset="0" style="stop-color:#8F8FBC"/>
	<stop  offset="1" style="stop-color:#EBEAE7"/>
</linearGradient>
<polygon style="fill:url(#SVGID_00000183938572112213260770000008593681226137466251_);" points="26.63,272.27 261.79,372.11 
	261.79,465.81 26.63,355.5 "/>
<path class="st3" d="M366.71,456.99"/>
<polygon class="st4" points="26.63,355.5 26.63,272.27 245.94,201.6 487.34,283.37 484.39,363.43 261.79,465.81 "/>
<linearGradient id="SVGID_00000158028865467251306550000016930856181543058100_" gradientUnits="userSpaceOnUse" x1="262.64" y1="1675.3201" x2="487.35" y2="1675.3201" gradientTransform="matrix(1 0 0 -1 0 2050)">
	<stop  offset="0" style="stop-color:#A4A4A1"/>
	<stop  offset="1" style="stop-color:#7E7E8F"/>
</linearGradient>
<path style="fill:url(#SVGID_00000158028865467251306550000016930856181543058100_);stroke:#828380;stroke-width:8;stroke-miterlimit:10;" d="
	M262.64,462.5c0-1.98,0-89.97,0-89.97l224.71-85.68l-2.95,82.37L262.64,462.5z"/>
<polyline class="st4" points="219.23,447.7 219.24,354.55 448.37,271.5 "/>
<linearGradient id="SVGID_00000097485997985196208750000011539765349177815978_" gradientUnits="userSpaceOnUse" x1="281.94" y1="1677.455" x2="460.94" y2="1677.455" gradientTransform="matrix(1 0 0 -1 0 2050)">
	<stop  offset="0" style="stop-color:#50A657"/>
	<stop  offset="1" style="stop-color:#C4D9BE"/>
</linearGradient>
<polygon style="fill:url(#SVGID_00000097485997985196208750000011539765349177815978_);stroke:#448B50;stroke-width:4;stroke-miterlimit:10;" points="
	281.94,391.69 460.94,322.35 460.2,348.12 281.94,422.74 "/>
<linearGradient id="SVGID_00000022545196586386396470000014193483863918753462_" gradientUnits="userSpaceOnUse" x1="176.76" y1="1753.015" x2="409.1" y2="1753.015" gradientTransform="matrix(1 0 0 -1 0 2050)">
	<stop  offset="0" style="stop-color:#DFEFF4"/>
	<stop  offset="1" style="stop-color:#78BFD5"/>
</linearGradient>
<polygon style="fill:url(#SVGID_00000022545196586386396470000014193483863918753462_);stroke:#828380;stroke-width:8;stroke-miterlimit:10;" points="
	176.76,305.31 320.56,254.75 409.1,284.54 261.79,339.21 "/>
<linearGradient id="SVGID_00000062194328230720288740000004723473061232235406_" gradientUnits="userSpaceOnUse" x1="168.5526" y1="165.1156" x2="418.5526" y2="165.1156">
	<stop  offset="0" style="stop-color:#ED7E87"/>
	<stop  offset="1" style="stop-color:#E62631"/>
</linearGradient>
<path style="fill:url(#SVGID_00000062194328230720288740000004723473061232235406_);stroke:#030405;stroke-width:8;stroke-miterlimit:10;" d="
	M414.34,258.31l-96.25-96.25l64.81-65.24c2.62-2.64,3.05-6.74,1.03-9.86v0c-2.46-3.82-7.63-4.78-11.3-2.1l-76.24,55.51l-85.81-85.81
	c-9.96-9.96-26.23-9.55-35.68,0.9l0,0c-9.25,10.23-8.29,26.07,2.13,35.11l85.68,74.31l-67,48.78c-13.04,9.49-14.03,28.57-2.05,39.37
	l0,0c10.06,9.06,25.45,8.64,34.99-0.97l62.29-62.7l103.77,89.99c5.71,4.95,14.27,4.64,19.61-0.7v0
	C419.96,273.05,419.96,263.93,414.34,258.31z"/>
<polyline class="st0" points="26.63,872.97 262.64,985.02 490.41,884.55 "/>
<linearGradient id="SVGID_00000132064276970785449680000012968616099360917436_" gradientUnits="userSpaceOnUse" x1="257.69" y1="1339.715" x2="257.69" y2="1165.455" gradientTransform="matrix(1 0 0 -1 0 2050)">
	<stop  offset="0" style="stop-color:#8F8FBC"/>
	<stop  offset="1" style="stop-color:#EBEAE7"/>
</linearGradient>
<polygon style="fill:url(#SVGID_00000132064276970785449680000012968616099360917436_);" points="28.04,784.87 246.78,710.29 
	487.34,795.37 262.64,884.55 "/>
<linearGradient id="SVGID_00000071532230132484911950000010111885430749363860_" gradientUnits="userSpaceOnUse" x1="144.21" y1="1265.725" x2="144.21" y2="1072.1851" gradientTransform="matrix(1 0 0 -1 0 2050)">
	<stop  offset="0" style="stop-color:#8F8FBC"/>
	<stop  offset="1" style="stop-color:#EBEAE7"/>
</linearGradient>
<polygon style="fill:url(#SVGID_00000071532230132484911950000010111885430749363860_);" points="26.63,784.28 261.79,884.11 
	261.79,977.82 26.63,867.51 "/>
<path class="st3" d="M366.71,968.99"/>
<polygon class="st4" points="26.63,867.51 26.63,784.28 245.94,713.6 487.34,795.37 484.39,875.43 261.79,977.82 "/>
<linearGradient id="SVGID_00000142894287848756069940000013809609529409214890_" gradientUnits="userSpaceOnUse" x1="262.64" y1="1163.3201" x2="487.35" y2="1163.3201" gradientTransform="matrix(1 0 0 -1 0 2050)">
	<stop  offset="0" style="stop-color:#A4A4A1"/>
	<stop  offset="1" style="stop-color:#7E7E8F"/>
</linearGradient>
<path style="fill:url(#SVGID_00000142894287848756069940000013809609529409214890_);stroke:#828380;stroke-width:8;stroke-miterlimit:10;" d="
	M262.64,974.51c0-1.98,0-89.97,0-89.97l224.71-85.68l-2.95,82.37L262.64,974.51z"/>
<polyline class="st4" points="219.23,959.71 219.24,866.55 448.37,783.51 "/>
<linearGradient id="SVGID_00000145044118496697753380000014144284254552079516_" gradientUnits="userSpaceOnUse" x1="281.94" y1="1165.455" x2="460.94" y2="1165.455" gradientTransform="matrix(1 0 0 -1 0 2050)">
	<stop  offset="0" style="stop-color:#50A657"/>
	<stop  offset="1" style="stop-color:#C4D9BE"/>
</linearGradient>
<polygon style="fill:url(#SVGID_00000145044118496697753380000014144284254552079516_);stroke:#448B50;stroke-width:4;stroke-miterlimit:10;" points="
	281.94,903.7 460.94,834.35 460.2,860.12 281.94,934.74 "/>
<linearGradient id="SVGID_00000013913931282570405380000018231630162889243042_" gradientUnits="userSpaceOnUse" x1="176.76" y1="1241.015" x2="409.1" y2="1241.015" gradientTransform="matrix(1 0 0 -1 0 2050)">
	<stop  offset="0" style="stop-color:#DFEFF4"/>
	<stop  offset="1" style="stop-color:#78BFD5"/>
</linearGradient>
<polygon style="fill:url(#SVGID_00000013913931282570405380000018231630162889243042_);stroke:#828380;stroke-width:8;stroke-miterlimit:10;" points="
	176.76,817.32 320.56,766.76 409.1,796.54 261.79,851.22 "/>
<linearGradient id="SVGID_00000142137854568520579150000009312815193393910145_" gradientUnits="userSpaceOnUse" x1="168.5526" y1="677.1156" x2="418.5526" y2="677.1156">
	<stop  offset="0" style="stop-color:#FFDD0D"/>
	<stop  offset="1" style="stop-color:#F8A921"/>
</linearGradient>
<path style="fill:url(#SVGID_00000142137854568520579150000009312815193393910145_);stroke:#030405;stroke-width:8;stroke-miterlimit:10;" d="
	M414.34,770.31l-96.25-96.25l64.81-65.24c2.62-2.64,3.05-6.74,1.03-9.86v0c-2.46-3.82-7.63-4.78-11.3-2.1l-76.24,55.51l-85.81-85.81
	c-9.96-9.96-26.23-9.55-35.68,0.9l0,0c-9.25,10.23-8.29,26.07,2.13,35.11l85.68,74.31l-67,48.78c-13.04,9.49-14.03,28.57-2.05,39.37
	h0c10.06,9.06,25.45,8.64,34.99-0.97l62.29-62.7l103.77,89.99c5.71,4.95,14.27,4.64,19.61-0.7l0,0
	C419.96,785.05,419.96,775.93,414.34,770.31z"/>
<polyline class="st0" points="26.63,1386.21 262.64,1498.26 490.41,1397.79 "/>
<linearGradient id="SVGID_00000001646231372009452210000006926780423014859148_" gradientUnits="userSpaceOnUse" x1="257.69" y1="826.47" x2="257.69" y2="652.21" gradientTransform="matrix(1 0 0 -1 0 2050)">
	<stop  offset="0" style="stop-color:#8F8FBC"/>
	<stop  offset="1" style="stop-color:#EBEAE7"/>
</linearGradient>
<polygon style="fill:url(#SVGID_00000001646231372009452210000006926780423014859148_);" points="28.04,1298.11 246.78,1223.53 
	487.34,1308.61 262.64,1397.79 "/>
<linearGradient id="SVGID_00000083782936376623059540000016416462497725643698_" gradientUnits="userSpaceOnUse" x1="144.21" y1="752.48" x2="144.21" y2="558.94" gradientTransform="matrix(1 0 0 -1 0 2050)">
	<stop  offset="0" style="stop-color:#8F8FBC"/>
	<stop  offset="1" style="stop-color:#EBEAE7"/>
</linearGradient>
<polygon style="fill:url(#SVGID_00000083782936376623059540000016416462497725643698_);" points="26.63,1297.52 261.79,1397.35 
	261.79,1491.06 26.63,1380.75 "/>
<path class="st3" d="M366.71,1482.23"/>
<polygon class="st4" points="26.63,1380.75 26.63,1297.52 245.94,1226.84 487.34,1308.61 484.39,1388.67 261.79,1491.06 "/>
<linearGradient id="SVGID_00000055679611090850602840000017010970537585683338_" gradientUnits="userSpaceOnUse" x1="262.64" y1="650.075" x2="487.35" y2="650.075" gradientTransform="matrix(1 0 0 -1 0 2050)">
	<stop  offset="0" style="stop-color:#A4A4A1"/>
	<stop  offset="1" style="stop-color:#7E7E8F"/>
</linearGradient>
<path style="fill:url(#SVGID_00000055679611090850602840000017010970537585683338_);stroke:#828380;stroke-width:8;stroke-miterlimit:10;" d="
	M262.64,1487.75c0-1.98,0-89.97,0-89.97l224.71-85.68l-2.95,82.37L262.64,1487.75z"/>
<polyline class="st4" points="219.23,1472.95 219.24,1379.79 448.37,1296.75 "/>
<linearGradient id="SVGID_00000002377646003961107740000006373709322589365925_" gradientUnits="userSpaceOnUse" x1="281.94" y1="652.21" x2="460.94" y2="652.21" gradientTransform="matrix(1 0 0 -1 0 2050)">
	<stop  offset="0" style="stop-color:#50A657"/>
	<stop  offset="1" style="stop-color:#C4D9BE"/>
</linearGradient>
<polygon style="fill:url(#SVGID_00000002377646003961107740000006373709322589365925_);stroke:#448B50;stroke-width:4;stroke-miterlimit:10;" points="
	281.94,1416.94 460.94,1347.59 460.2,1373.36 281.94,1447.99 "/>
<linearGradient id="SVGID_00000142891693157081247140000009557045226152058031_" gradientUnits="userSpaceOnUse" x1="176.76" y1="727.77" x2="409.1" y2="727.77" gradientTransform="matrix(1 0 0 -1 0 2050)">
	<stop  offset="0" style="stop-color:#DFEFF4"/>
	<stop  offset="1" style="stop-color:#78BFD5"/>
</linearGradient>
<polygon style="fill:url(#SVGID_00000142891693157081247140000009557045226152058031_);stroke:#828380;stroke-width:8;stroke-miterlimit:10;" points="
	176.76,1330.56 320.56,1280 409.1,1309.78 261.79,1364.46 "/>
<linearGradient id="SVGID_00000083076111012694868170000006061519902372564352_" gradientUnits="userSpaceOnUse" x1="168.5526" y1="1190.3606" x2="418.5526" y2="1190.3606">
	<stop  offset="0" style="stop-color:#AED2EE"/>
	<stop  offset="1" style="stop-color:#3EB2E6"/>
</linearGradient>
<path style="fill:url(#SVGID_00000083076111012694868170000006061519902372564352_);stroke:#030405;stroke-width:8;stroke-miterlimit:10;" d="
	M414.34,1283.56l-96.25-96.25l64.81-65.24c2.62-2.64,3.05-6.74,1.03-9.86v0c-2.46-3.82-7.63-4.78-11.3-2.1l-76.24,55.51
	l-85.81-85.81c-9.96-9.96-26.23-9.55-35.68,0.9h0c-9.25,10.23-8.29,26.07,2.13,35.11l85.68,74.31l-67,48.78
	c-13.04,9.49-14.03,28.57-2.05,39.37h0c10.06,9.06,25.45,8.64,34.99-0.97l62.29-62.7l103.77,89.99c5.71,4.95,14.27,4.64,19.61-0.7
	l0,0C419.96,1298.29,419.96,1289.18,414.34,1283.56z"/>
<polyline class="st21" points="26.63,1898.21 262.64,2010.26 490.41,1909.79 "/>
<linearGradient id="SVGID_00000070091524971097188060000018116107524240870798_" gradientUnits="userSpaceOnUse" x1="257.69" y1="314.47" x2="257.69" y2="140.21" gradientTransform="matrix(1 0 0 -1 0 2050)">
	<stop  offset="0" style="stop-color:#959595"/>
	<stop  offset="1" style="stop-color:#EBEBEB"/>
</linearGradient>
<polygon style="fill:url(#SVGID_00000070091524971097188060000018116107524240870798_);" points="28.04,1810.11 246.78,1735.53 
	487.34,1820.61 262.64,1909.79 "/>
<linearGradient id="SVGID_00000013156016014823345280000016770603223513356205_" gradientUnits="userSpaceOnUse" x1="144.21" y1="240.48" x2="144.21" y2="46.94" gradientTransform="matrix(1 0 0 -1 0 2050)">
	<stop  offset="0" style="stop-color:#959595"/>
	<stop  offset="1" style="stop-color:#EBEBEB"/>
</linearGradient>
<polygon style="fill:url(#SVGID_00000013156016014823345280000016770603223513356205_);" points="26.63,1809.52 261.79,1909.35 
	261.79,2003.06 26.63,1892.75 "/>
<path class="st24" d="M366.71,1994.23"/>
<polygon class="st25" points="26.63,1892.75 26.63,1809.52 245.94,1738.84 487.34,1820.61 484.39,1900.67 261.79,2003.06 "/>
<linearGradient id="SVGID_00000069391938079691983950000002461850055947486894_" gradientUnits="userSpaceOnUse" x1="262.64" y1="138.075" x2="487.35" y2="138.075" gradientTransform="matrix(1 0 0 -1 0 2050)">
	<stop  offset="0" style="stop-color:#9A9A9A"/>
	<stop  offset="1" style="stop-color:#6A6A6A"/>
</linearGradient>
<path style="fill:url(#SVGID_00000069391938079691983950000002461850055947486894_);stroke:#646464;stroke-width:8;stroke-miterlimit:10;" d="
	M262.64,1999.75c0-1.98,0-89.97,0-89.97l224.71-85.68l-2.95,82.37L262.64,1999.75z"/>
<polyline class="st25" points="219.23,1984.95 219.24,1891.79 448.37,1808.75 "/>
<linearGradient id="SVGID_00000000904442115082009660000016973089093804187303_" gradientUnits="userSpaceOnUse" x1="281.94" y1="140.21" x2="460.94" y2="140.21" gradientTransform="matrix(1 0 0 -1 0 2050)">
	<stop  offset="0" style="stop-color:#A6A6A6"/>
	<stop  offset="1" style="stop-color:#D9D9D9"/>
</linearGradient>
<polygon style="fill:url(#SVGID_00000000904442115082009660000016973089093804187303_);stroke:#787878;stroke-width:4;stroke-miterlimit:10;" points="
	281.94,1928.94 460.94,1859.59 460.2,1885.36 281.94,1959.99 "/>
<linearGradient id="SVGID_00000153686419203832954760000002246973852801789342_" gradientUnits="userSpaceOnUse" x1="176.76" y1="215.77" x2="409.1" y2="215.77" gradientTransform="matrix(1 0 0 -1 0 2050)">
	<stop  offset="0" style="stop-color:#F0F0F0"/>
	<stop  offset="1" style="stop-color:#C6C6C6"/>
</linearGradient>
<polygon style="fill:url(#SVGID_00000153686419203832954760000002246973852801789342_);stroke:#646464;stroke-width:8;stroke-miterlimit:10;" points="
	176.76,1842.56 320.56,1792 409.1,1821.78 261.79,1876.46 "/>
<linearGradient id="SVGID_00000149355933839390672480000011103902044054614418_" gradientUnits="userSpaceOnUse" x1="168.5526" y1="1702.3606" x2="418.5526" y2="1702.3606">
	<stop  offset="0" style="stop-color:#969696"/>
	<stop  offset="1" style="stop-color:#5B5B5B"/>
</linearGradient>
<path style="fill:url(#SVGID_00000149355933839390672480000011103902044054614418_);stroke:#000000;stroke-width:8;stroke-miterlimit:10;" d="
	M414.34,1795.56l-96.25-96.25l64.81-65.24c2.62-2.64,3.05-6.74,1.03-9.86v0c-2.46-3.82-7.63-4.78-11.3-2.1l-76.24,55.51
	l-85.81-85.81c-9.96-9.96-26.23-9.55-35.68,0.9h0c-9.25,10.23-8.29,26.07,2.13,35.11l85.68,74.31l-67,48.78
	c-13.04,9.49-14.03,28.57-2.05,39.37h0c10.06,9.06,25.45,8.64,34.99-0.97l62.29-62.7l103.77,89.99c5.71,4.95,14.27,4.64,19.61-0.7
	l0,0C419.96,1810.29,419.96,1801.18,414.34,1795.56z"/>
</svg>
