<?xml version="1.0" encoding="utf-8"?>
<!-- Generator: Adobe Illustrator 27.0.1, SVG Export Plug-In . SVG Version: 6.00 Build 0)  -->
<svg version="1.1" id="Calque_1" xmlns="http://www.w3.org/2000/svg" xmlns:xlink="http://www.w3.org/1999/xlink" x="0px" y="0px"
	 viewBox="0 0 512 2048" style="enable-background:new 0 0 512 2048;" xml:space="preserve">
<style type="text/css">
	.st0{opacity:0.5;fill:none;stroke:#A1A09F;stroke-width:8;stroke-miterlimit:10;enable-background:new    ;}
	.st1{fill:url(#SVGID_1_);}
	.st2{fill:url(#SVGID_00000060028691610082896380000003975979033084269710_);}
	.st3{fill:none;stroke:#020203;stroke-miterlimit:10;}
	.st4{fill:none;stroke:#828380;stroke-width:8;stroke-miterlimit:10;}
	.st5{fill:url(#SVGID_00000090996086167630929330000006260322750641783701_);stroke:#828380;stroke-width:8;stroke-miterlimit:10;}
	.st6{fill:url(#SVGID_00000084510226701545901260000018053565051341845387_);stroke:#448B50;stroke-width:4;stroke-miterlimit:10;}
	.st7{fill:url(#SVGID_00000095313069747504311150000004625434013879687562_);stroke:#828380;stroke-width:8;stroke-miterlimit:10;}
	.st8{fill:url(#SVGID_00000000917802630631305410000004587109985981637557_);stroke:#030405;stroke-width:8;stroke-miterlimit:10;}
	.st9{fill:url(#SVGID_00000086680876195366379410000004657829235927979192_);}
	.st10{fill:url(#SVGID_00000011749376070640364880000000191897518423602828_);}
	.st11{fill:url(#SVGID_00000083770708620247903970000013749728015221412270_);stroke:#828380;stroke-width:8;stroke-miterlimit:10;}
	.st12{fill:url(#SVGID_00000089558870389303359170000007170784085000695946_);stroke:#448B50;stroke-width:4;stroke-miterlimit:10;}
	.st13{fill:url(#SVGID_00000045577344642957203280000008773893857033835680_);stroke:#828380;stroke-width:8;stroke-miterlimit:10;}
	.st14{fill:url(#SVGID_00000091734788069936432600000001773865333256381341_);stroke:#030405;stroke-width:8;stroke-miterlimit:10;}
	.st15{fill:url(#SVGID_00000075163900107644419310000007352191703759188620_);}
	.st16{fill:url(#SVGID_00000165215730424686970920000001184419569017215384_);}
	.st17{fill:url(#SVGID_00000061456927905434460290000012292621516060177566_);stroke:#828380;stroke-width:8;stroke-miterlimit:10;}
	.st18{fill:url(#SVGID_00000144327544692091015810000000611314544847316671_);stroke:#448B50;stroke-width:4;stroke-miterlimit:10;}
	.st19{fill:url(#SVGID_00000096773483727289941440000007134016474131961751_);stroke:#828380;stroke-width:8;stroke-miterlimit:10;}
	.st20{fill:url(#SVGID_00000066512344783709628080000001679129200014262206_);stroke:#030405;stroke-width:8;stroke-miterlimit:10;}
	.st21{opacity:0.5;fill:none;stroke:#949494;stroke-width:8;stroke-miterlimit:10;enable-background:new    ;}
	.st22{fill:url(#SVGID_00000165192921545898391060000002652982467059774386_);}
	.st23{fill:url(#SVGID_00000129193115286328184900000017696044619862970557_);}
	.st24{fill:none;stroke:#000000;stroke-miterlimit:10;}
	.st25{fill:none;stroke:#646464;stroke-width:8;stroke-miterlimit:10;}
	.st26{fill:url(#SVGID_00000062186118067320926640000001340978467092244105_);stroke:#646464;stroke-width:8;stroke-miterlimit:10;}
	.st27{fill:url(#SVGID_00000129175967565140761230000003117606601461614724_);stroke:#787878;stroke-width:4;stroke-miterlimit:10;}
	.st28{fill:url(#SVGID_00000158004567799514406600000007692281069679807109_);stroke:#646464;stroke-width:8;stroke-miterlimit:10;}
	.st29{fill:url(#SVGID_00000090268649135690446350000000600941593356238979_);stroke:#000000;stroke-width:8;stroke-miterlimit:10;}
</style>
<polyline class="st0" points="26.63,360.96 262.64,473.01 490.41,372.55 "/>
<linearGradient id="SVGID_1_" gradientUnits="userSpaceOnUse" x1="257.69" y1="-1083.71" x2="257.69" y2="-909.45" gradientTransform="matrix(1 0 0 1 0 1282)">
	<stop  offset="0" style="stop-color:#8F8FBC"/>
	<stop  offset="1" style="stop-color:#EBEAE7"/>
</linearGradient>
<polygon class="st1" points="28.04,272.87 246.78,198.29 487.34,283.37 262.64,372.55 "/>
<linearGradient id="SVGID_00000124128168204868138890000009291308561366797732_" gradientUnits="userSpaceOnUse" x1="144.21" y1="-1009.73" x2="144.21" y2="-816.19" gradientTransform="matrix(1 0 0 1 0 1282)">
	<stop  offset="0" style="stop-color:#8F8FBC"/>
	<stop  offset="1" style="stop-color:#EBEAE7"/>
</linearGradient>
<polygon style="fill:url(#SVGID_00000124128168204868138890000009291308561366797732_);" points="26.63,272.27 261.79,372.11 
	261.79,465.81 26.63,355.5 "/>
<path class="st3" d="M366.71,456.99"/>
<polygon class="st4" points="26.63,355.5 26.63,272.27 245.94,201.6 487.34,283.37 484.39,363.43 261.79,465.81 "/>
<linearGradient id="SVGID_00000007406775209277257650000007933286929622696124_" gradientUnits="userSpaceOnUse" x1="262.64" y1="-907.325" x2="487.35" y2="-907.325" gradientTransform="matrix(1 0 0 1 0 1282)">
	<stop  offset="0" style="stop-color:#A4A4A1"/>
	<stop  offset="1" style="stop-color:#7E7E8F"/>
</linearGradient>
<path style="fill:url(#SVGID_00000007406775209277257650000007933286929622696124_);stroke:#828380;stroke-width:8;stroke-miterlimit:10;" d="
	M262.64,462.5c0-1.98,0-89.97,0-89.97l224.71-85.68l-2.95,82.37L262.64,462.5z"/>
<polyline class="st4" points="219.23,447.7 219.24,354.55 448.37,271.5 "/>
<linearGradient id="SVGID_00000006684992065697926620000002537032533449523093_" gradientUnits="userSpaceOnUse" x1="281.94" y1="-909.455" x2="460.94" y2="-909.455" gradientTransform="matrix(1 0 0 1 0 1282)">
	<stop  offset="0" style="stop-color:#50A657"/>
	<stop  offset="1" style="stop-color:#C4D9BE"/>
</linearGradient>
<polygon style="fill:url(#SVGID_00000006684992065697926620000002537032533449523093_);stroke:#448B50;stroke-width:4;stroke-miterlimit:10;" points="
	281.94,391.69 460.94,322.35 460.2,348.12 281.94,422.74 "/>
<linearGradient id="SVGID_00000110435231119754162310000016942980747525739152_" gradientUnits="userSpaceOnUse" x1="176.76" y1="-985.02" x2="409.1" y2="-985.02" gradientTransform="matrix(1 0 0 1 0 1282)">
	<stop  offset="0" style="stop-color:#DFEFF4"/>
	<stop  offset="1" style="stop-color:#78BFD5"/>
</linearGradient>
<polygon style="fill:url(#SVGID_00000110435231119754162310000016942980747525739152_);stroke:#828380;stroke-width:8;stroke-miterlimit:10;" points="
	176.76,305.31 320.56,254.75 409.1,284.54 261.79,339.21 "/>
<linearGradient id="SVGID_00000139275009354065000980000003111374606623013272_" gradientUnits="userSpaceOnUse" x1="168.5433" y1="1882.8918" x2="418.5525" y2="1882.8918" gradientTransform="matrix(1 0 0 -1 0 2048)">
	<stop  offset="0" style="stop-color:#ED7E87"/>
	<stop  offset="1" style="stop-color:#E62631"/>
</linearGradient>
<path style="fill:url(#SVGID_00000139275009354065000980000003111374606623013272_);stroke:#030405;stroke-width:8;stroke-miterlimit:10;" d="
	M414.34,258.31l-96.25-96.25l64.81-65.24c2.62-2.64,3.05-6.74,1.03-9.86l0,0c-2.46-3.82-7.63-4.78-11.3-2.1l-76.24,55.51
	l-85.81-85.81c-9.96-9.96-26.23-9.55-35.68,0.9l0,0c-9.25,10.23-8.29,26.07,2.13,35.11l85.68,74.31l-67,48.78
	c-13.04,9.49-14.03,28.57-2.05,39.37l0,0c10.06,9.06,25.45,8.64,34.99-0.97l62.29-62.7l103.77,89.99c5.71,4.95,14.27,4.64,19.61-0.7
	l0,0C419.96,273.05,419.96,263.93,414.34,258.31z"/>
<polyline class="st0" points="36.63,882.97 272.64,995.02 500.41,894.55 "/>
<linearGradient id="SVGID_00000036229162637463661510000002327653923356764552_" gradientUnits="userSpaceOnUse" x1="267.69" y1="-561.71" x2="267.69" y2="-387.45" gradientTransform="matrix(1 0 0 1 0 1282)">
	<stop  offset="0" style="stop-color:#8F8FBC"/>
	<stop  offset="1" style="stop-color:#EBEAE7"/>
</linearGradient>
<polygon style="fill:url(#SVGID_00000036229162637463661510000002327653923356764552_);" points="38.04,794.87 256.78,720.29 
	497.34,805.37 272.64,894.55 "/>
<linearGradient id="SVGID_00000093863195525836883660000003362889471409506987_" gradientUnits="userSpaceOnUse" x1="154.21" y1="-487.72" x2="154.21" y2="-294.18" gradientTransform="matrix(1 0 0 1 0 1282)">
	<stop  offset="0" style="stop-color:#8F8FBC"/>
	<stop  offset="1" style="stop-color:#EBEAE7"/>
</linearGradient>
<polygon style="fill:url(#SVGID_00000093863195525836883660000003362889471409506987_);" points="36.63,794.28 271.79,894.11 
	271.79,987.82 36.63,877.51 "/>
<path class="st3" d="M376.71,978.99"/>
<polygon class="st4" points="36.63,877.51 36.63,794.28 255.94,723.6 497.34,805.37 494.39,885.43 271.79,987.82 "/>
<linearGradient id="SVGID_00000067918890716413556010000010439947433263955121_" gradientUnits="userSpaceOnUse" x1="272.64" y1="-385.315" x2="497.35" y2="-385.315" gradientTransform="matrix(1 0 0 1 0 1282)">
	<stop  offset="0" style="stop-color:#A4A4A1"/>
	<stop  offset="1" style="stop-color:#7E7E8F"/>
</linearGradient>
<path style="fill:url(#SVGID_00000067918890716413556010000010439947433263955121_);stroke:#828380;stroke-width:8;stroke-miterlimit:10;" d="
	M272.64,984.51c0-1.98,0-89.97,0-89.97l224.71-85.68l-2.95,82.37L272.64,984.51z"/>
<polyline class="st4" points="229.23,969.71 229.24,876.55 458.37,793.51 "/>
<linearGradient id="SVGID_00000137107930654716545110000015250917117252166035_" gradientUnits="userSpaceOnUse" x1="291.94" y1="-387.455" x2="470.94" y2="-387.455" gradientTransform="matrix(1 0 0 1 0 1282)">
	<stop  offset="0" style="stop-color:#50A657"/>
	<stop  offset="1" style="stop-color:#C4D9BE"/>
</linearGradient>
<polygon style="fill:url(#SVGID_00000137107930654716545110000015250917117252166035_);stroke:#448B50;stroke-width:4;stroke-miterlimit:10;" points="
	291.94,913.7 470.94,844.35 470.2,870.12 291.94,944.74 "/>
<linearGradient id="SVGID_00000051343331869336395830000015746001698236802949_" gradientUnits="userSpaceOnUse" x1="186.76" y1="-463.01" x2="419.1" y2="-463.01" gradientTransform="matrix(1 0 0 1 0 1282)">
	<stop  offset="0" style="stop-color:#DFEFF4"/>
	<stop  offset="1" style="stop-color:#78BFD5"/>
</linearGradient>
<polygon style="fill:url(#SVGID_00000051343331869336395830000015746001698236802949_);stroke:#828380;stroke-width:8;stroke-miterlimit:10;" points="
	186.76,827.32 330.56,776.76 419.1,806.54 271.79,861.22 "/>
<linearGradient id="SVGID_00000140712818743983930920000016532843825211499934_" gradientUnits="userSpaceOnUse" x1="178.5433" y1="1360.8917" x2="428.5525" y2="1360.8917" gradientTransform="matrix(1 0 0 -1 0 2048)">
	<stop  offset="0" style="stop-color:#FFDD0D"/>
	<stop  offset="1" style="stop-color:#F8A921"/>
</linearGradient>
<path style="fill:url(#SVGID_00000140712818743983930920000016532843825211499934_);stroke:#030405;stroke-width:8;stroke-miterlimit:10;" d="
	M424.34,780.31l-96.25-96.25l64.81-65.24c2.62-2.64,3.05-6.74,1.03-9.86l0,0c-2.46-3.82-7.63-4.78-11.3-2.1l-76.24,55.51
	l-85.81-85.81c-9.96-9.96-26.23-9.55-35.68,0.9l0,0c-9.25,10.23-8.29,26.07,2.13,35.11l85.68,74.31l-67,48.78
	c-13.04,9.49-14.03,28.57-2.05,39.37l0,0c10.06,9.06,25.45,8.64,34.99-0.97l62.29-62.7l103.77,89.99c5.71,4.95,14.27,4.64,19.61-0.7
	l0,0C429.96,795.05,429.96,785.93,424.34,780.31z"/>
<polyline class="st0" points="26.63,1386.21 262.64,1498.26 490.41,1397.79 "/>
<linearGradient id="SVGID_00000003805326978753875480000003990921716050675645_" gradientUnits="userSpaceOnUse" x1="257.69" y1="-58.47" x2="257.69" y2="115.79" gradientTransform="matrix(1 0 0 1 0 1282)">
	<stop  offset="0" style="stop-color:#8F8FBC"/>
	<stop  offset="1" style="stop-color:#EBEAE7"/>
</linearGradient>
<polygon style="fill:url(#SVGID_00000003805326978753875480000003990921716050675645_);" points="28.04,1298.11 246.78,1223.53 
	487.34,1308.61 262.64,1397.79 "/>
<linearGradient id="SVGID_00000025433613856197630240000009049122420959275921_" gradientUnits="userSpaceOnUse" x1="144.21" y1="15.52" x2="144.21" y2="209.0601" gradientTransform="matrix(1 0 0 1 0 1282)">
	<stop  offset="0" style="stop-color:#8F8FBC"/>
	<stop  offset="1" style="stop-color:#EBEAE7"/>
</linearGradient>
<polygon style="fill:url(#SVGID_00000025433613856197630240000009049122420959275921_);" points="26.63,1297.52 261.79,1397.35 
	261.79,1491.06 26.63,1380.75 "/>
<path class="st3" d="M366.71,1482.23"/>
<polygon class="st4" points="26.63,1380.75 26.63,1297.52 245.94,1226.84 487.34,1308.61 484.39,1388.67 261.79,1491.06 "/>
<linearGradient id="SVGID_00000147193224426147480630000005622173035126554241_" gradientUnits="userSpaceOnUse" x1="262.64" y1="117.925" x2="487.35" y2="117.925" gradientTransform="matrix(1 0 0 1 0 1282)">
	<stop  offset="0" style="stop-color:#A4A4A1"/>
	<stop  offset="1" style="stop-color:#7E7E8F"/>
</linearGradient>
<path style="fill:url(#SVGID_00000147193224426147480630000005622173035126554241_);stroke:#828380;stroke-width:8;stroke-miterlimit:10;" d="
	M262.64,1487.75c0-1.98,0-89.97,0-89.97l224.71-85.68l-2.95,82.37L262.64,1487.75z"/>
<polyline class="st4" points="219.23,1472.95 219.24,1379.79 448.37,1296.75 "/>
<linearGradient id="SVGID_00000022545627967123658710000016885299606117458565_" gradientUnits="userSpaceOnUse" x1="281.94" y1="115.79" x2="460.94" y2="115.79" gradientTransform="matrix(1 0 0 1 0 1282)">
	<stop  offset="0" style="stop-color:#50A657"/>
	<stop  offset="1" style="stop-color:#C4D9BE"/>
</linearGradient>
<polygon style="fill:url(#SVGID_00000022545627967123658710000016885299606117458565_);stroke:#448B50;stroke-width:4;stroke-miterlimit:10;" points="
	281.94,1416.94 460.94,1347.59 460.2,1373.36 281.94,1447.99 "/>
<linearGradient id="SVGID_00000053542296447258758430000004420877128344190093_" gradientUnits="userSpaceOnUse" x1="176.76" y1="40.23" x2="409.1" y2="40.23" gradientTransform="matrix(1 0 0 1 0 1282)">
	<stop  offset="0" style="stop-color:#DFEFF4"/>
	<stop  offset="1" style="stop-color:#78BFD5"/>
</linearGradient>
<polygon style="fill:url(#SVGID_00000053542296447258758430000004420877128344190093_);stroke:#828380;stroke-width:8;stroke-miterlimit:10;" points="
	176.76,1330.56 320.56,1280 409.1,1309.78 261.79,1364.46 "/>
<linearGradient id="SVGID_00000001656591228332190290000000848197727337406631_" gradientUnits="userSpaceOnUse" x1="168.5433" y1="857.6417" x2="418.5525" y2="857.6417" gradientTransform="matrix(1 0 0 -1 0 2048)">
	<stop  offset="0" style="stop-color:#AED2EE"/>
	<stop  offset="1" style="stop-color:#3EB2E6"/>
</linearGradient>
<path style="fill:url(#SVGID_00000001656591228332190290000000848197727337406631_);stroke:#030405;stroke-width:8;stroke-miterlimit:10;" d="
	M414.34,1283.56l-96.25-96.25l64.81-65.24c2.62-2.64,3.05-6.74,1.03-9.86l0,0c-2.46-3.82-7.63-4.78-11.3-2.1l-76.24,55.51
	l-85.81-85.81c-9.96-9.96-26.23-9.55-35.68,0.9l0,0c-9.25,10.23-8.29,26.07,2.13,35.11l85.68,74.31l-67,48.78
	c-13.04,9.49-14.03,28.57-2.05,39.37l0,0c10.06,9.06,25.45,8.64,34.99-0.97l62.29-62.7l103.77,89.99c5.71,4.95,14.27,4.64,19.61-0.7
	l0,0C419.96,1298.29,419.96,1289.18,414.34,1283.56z"/>
<polyline class="st21" points="26.63,1898.21 262.64,2010.26 490.41,1909.79 "/>
<linearGradient id="SVGID_00000003817415826352362690000010831827982549289621_" gradientUnits="userSpaceOnUse" x1="257.69" y1="453.53" x2="257.69" y2="627.79" gradientTransform="matrix(1 0 0 1 0 1282)">
	<stop  offset="0" style="stop-color:#959595"/>
	<stop  offset="1" style="stop-color:#EBEBEB"/>
</linearGradient>
<polygon style="fill:url(#SVGID_00000003817415826352362690000010831827982549289621_);" points="28.04,1810.11 246.78,1735.53 
	487.34,1820.61 262.64,1909.79 "/>
<linearGradient id="SVGID_00000033350550988467540160000010303762677146144163_" gradientUnits="userSpaceOnUse" x1="144.21" y1="527.52" x2="144.21" y2="721.0601" gradientTransform="matrix(1 0 0 1 0 1282)">
	<stop  offset="0" style="stop-color:#959595"/>
	<stop  offset="1" style="stop-color:#EBEBEB"/>
</linearGradient>
<polygon style="fill:url(#SVGID_00000033350550988467540160000010303762677146144163_);" points="26.63,1809.52 261.79,1909.35 
	261.79,2003.06 26.63,1892.75 "/>
<path class="st24" d="M366.71,1994.23"/>
<polygon class="st25" points="26.63,1892.75 26.63,1809.52 245.94,1738.84 487.34,1820.61 484.39,1900.67 261.79,2003.06 "/>
<linearGradient id="SVGID_00000039835815734757163390000017146845857171931297_" gradientUnits="userSpaceOnUse" x1="262.64" y1="629.925" x2="487.35" y2="629.925" gradientTransform="matrix(1 0 0 1 0 1282)">
	<stop  offset="0" style="stop-color:#9A9A9A"/>
	<stop  offset="1" style="stop-color:#6A6A6A"/>
</linearGradient>
<path style="fill:url(#SVGID_00000039835815734757163390000017146845857171931297_);stroke:#646464;stroke-width:8;stroke-miterlimit:10;" d="
	M262.64,1999.75c0-1.98,0-89.97,0-89.97l224.71-85.68l-2.95,82.37L262.64,1999.75z"/>
<polyline class="st25" points="219.23,1984.95 219.24,1891.79 448.37,1808.75 "/>
<linearGradient id="SVGID_00000133530924034237675220000008649157108516227513_" gradientUnits="userSpaceOnUse" x1="281.94" y1="627.79" x2="460.94" y2="627.79" gradientTransform="matrix(1 0 0 1 0 1282)">
	<stop  offset="0" style="stop-color:#A6A6A6"/>
	<stop  offset="1" style="stop-color:#D9D9D9"/>
</linearGradient>
<polygon style="fill:url(#SVGID_00000133530924034237675220000008649157108516227513_);stroke:#787878;stroke-width:4;stroke-miterlimit:10;" points="
	281.94,1928.94 460.94,1859.59 460.2,1885.36 281.94,1959.99 "/>
<linearGradient id="SVGID_00000162328067990609098290000004754136869897989001_" gradientUnits="userSpaceOnUse" x1="176.76" y1="552.23" x2="409.1" y2="552.23" gradientTransform="matrix(1 0 0 1 0 1282)">
	<stop  offset="0" style="stop-color:#F0F0F0"/>
	<stop  offset="1" style="stop-color:#C6C6C6"/>
</linearGradient>
<polygon style="fill:url(#SVGID_00000162328067990609098290000004754136869897989001_);stroke:#646464;stroke-width:8;stroke-miterlimit:10;" points="
	176.76,1842.56 320.56,1792 409.1,1821.78 261.79,1876.46 "/>
<linearGradient id="SVGID_00000044166888089432300720000008643036969351391137_" gradientUnits="userSpaceOnUse" x1="168.5433" y1="345.6417" x2="418.5525" y2="345.6417" gradientTransform="matrix(1 0 0 -1 0 2048)">
	<stop  offset="0" style="stop-color:#969696"/>
	<stop  offset="1" style="stop-color:#5B5B5B"/>
</linearGradient>
<path style="fill:url(#SVGID_00000044166888089432300720000008643036969351391137_);stroke:#000000;stroke-width:8;stroke-miterlimit:10;" d="
	M414.34,1795.56l-96.25-96.25l64.81-65.24c2.62-2.64,3.05-6.74,1.03-9.86l0,0c-2.46-3.82-7.63-4.78-11.3-2.1l-76.24,55.51
	l-85.81-85.81c-9.96-9.96-26.23-9.55-35.68,0.9l0,0c-9.25,10.23-8.29,26.07,2.13,35.11l85.68,74.31l-67,48.78
	c-13.04,9.49-14.03,28.57-2.05,39.37l0,0c10.06,9.06,25.45,8.64,34.99-0.97l62.29-62.7l103.77,89.99c5.71,4.95,14.27,4.64,19.61-0.7
	l0,0C419.96,1810.29,419.96,1801.18,414.34,1795.56z"/>
</svg>
