<?xml version="1.0" encoding="utf-8"?>
<!-- Generator: Adobe Illustrator 27.0.1, SVG Export Plug-In . SVG Version: 6.00 Build 0)  -->
<svg version="1.1" id="Calque_1" xmlns="http://www.w3.org/2000/svg" xmlns:xlink="http://www.w3.org/1999/xlink" x="0px" y="0px"
	 viewBox="0 0 512 2048" style="enable-background:new 0 0 512 2048;" xml:space="preserve">
<style type="text/css">
	.st0{fill:url(#SVGID_1_);}
	.st1{fill:#685421;}
	.st2{opacity:0.8;fill:url(#SVGID_00000091729199117966215990000008762806212339394969_);enable-background:new    ;}
	.st3{fill:none;stroke:#685421;stroke-width:8;stroke-miterlimit:10;}
	.st4{fill:none;stroke:#685421;stroke-width:4;stroke-linecap:square;stroke-miterlimit:10;}
	.st5{fill:#2CA337;}
	.st6{fill:none;stroke:#C7A953;stroke-width:8;stroke-miterlimit:10;}
	.st7{fill:url(#SVGID_00000096044400071821294920000003121031261986091957_);}
	.st8{opacity:0.8;fill:url(#SVGID_00000029735465819171151920000014927240929309138818_);enable-background:new    ;}
	.st9{fill:#F39208;}
	.st10{fill:url(#SVGID_00000029020361070551008730000007149234885181270972_);}
	.st11{opacity:0.8;fill:url(#SVGID_00000115509520468410314500000006548243128282767286_);enable-background:new    ;}
	.st12{fill:#3EB2E6;}
	.st13{fill:url(#SVGID_00000041293268855873134070000013901857258619050922_);}
	.st14{fill:#010101;}
	.st15{opacity:0.8;fill:url(#SVGID_00000074415579143049926170000002429796748553655229_);enable-background:new    ;}
	.st16{fill:none;stroke:#010101;stroke-width:8;stroke-miterlimit:10;}
	.st17{fill:none;stroke:#010101;stroke-width:4;stroke-linecap:square;stroke-miterlimit:10;}
	.st18{fill:#A1A1A1;}
	.st19{fill:none;stroke:#9C9C9C;stroke-width:8;stroke-miterlimit:10;}
</style>
<linearGradient id="SVGID_1_" gradientUnits="userSpaceOnUse" x1="47.63" y1="1830.885" x2="471.72" y2="1830.885" gradientTransform="matrix(1 0 0 -1 0 2048)">
	<stop  offset="0" style="stop-color:#EBC761"/>
	<stop  offset="0.9994" style="stop-color:#F4F3F0"/>
</linearGradient>
<path class="st0" d="M471.72,129.04c0,27.31-49.17,269.85-49.17,269.85s-45.76-59.91-169.98-62.44
	c-113.17-2.3-162.83,59.79-162.83,59.79s-42.11-239.21-42.11-267.2c0-51.75,94.94-93.7,212.05-93.7S471.72,77.29,471.72,129.04z"/>
<ellipse class="st1" cx="257.2" cy="410.45" rx="167.46" ry="74"/>
<linearGradient id="SVGID_00000170998295906814137890000014059015308580051626_" gradientUnits="userSpaceOnUse" x1="45.16" y1="1745.3065" x2="474.21" y2="1745.3065" gradientTransform="matrix(1 0 0 -1 0 2048)">
	<stop  offset="0" style="stop-color:#EBC761"/>
	<stop  offset="0.9994" style="stop-color:#F4F3F0"/>
</linearGradient>
<path style="opacity:0.8;fill:url(#SVGID_00000170998295906814137890000014059015308580051626_);enable-background:new    ;" d="
	M420.97,416.03c-43.88,71.35-262.89,87.51-321.65,4L45.16,129.04c31.39,125.41,379.5,113.52,429.05,0l-49.54,286.94"/>
<line class="st3" x1="47.16" y1="133.04" x2="94.6" y2="415.98"/>
<line class="st4" x1="472.28" y1="133.39" x2="421.47" y2="418.6"/>
<g>
	<path class="st5" d="M410.5,337.07c0.11-0.4,0.16-0.62,0.16-0.62C410.61,336.66,410.55,336.87,410.5,337.07z"/>
	<path class="st5" d="M371.91,393.17c-40.07,17.29-56.33-8.99-56.33-8.99l21.54-29.32l-68.26,2.64c0,0-0.88,88.51,0,90.28L285.6,425
		l51.52,8.69c47.46-4.7,61-49.96,73.38-96.61C408.97,342.71,396.58,385.56,371.91,393.17z"/>
</g>
<path class="st5" d="M380.79,252.87l2.23-3.13c0,0-23.78-17.75-65.23-7.62s-65.23,84.55-65.23,84.55s39.63-42.28,71.78-45.8
	s28.18,11.59,28.18,11.59l-25.98,36.41l73.54-2.64v-100.4L380.79,252.87z"/>
<ellipse class="st6" cx="259.2" cy="129.04" rx="212.05" ry="93.7"/>
<linearGradient id="SVGID_00000129184896348792486500000017158295401712943788_" gradientUnits="userSpaceOnUse" x1="57.63" y1="1308.885" x2="481.72" y2="1308.885" gradientTransform="matrix(1 0 0 -1 0 2048)">
	<stop  offset="0" style="stop-color:#EBC761"/>
	<stop  offset="0.9994" style="stop-color:#F4F3F0"/>
</linearGradient>
<path style="fill:url(#SVGID_00000129184896348792486500000017158295401712943788_);" d="M481.72,651.04
	c0,27.31-49.17,269.85-49.17,269.85s-45.76-59.91-169.98-62.44c-113.17-2.3-162.83,59.79-162.83,59.79s-42.11-239.21-42.11-267.2
	c0-51.75,94.94-93.7,212.05-93.7S481.72,599.29,481.72,651.04z"/>
<ellipse class="st1" cx="267.2" cy="932.45" rx="167.46" ry="74"/>
<linearGradient id="SVGID_00000175324039696308132660000017058470837762744230_" gradientUnits="userSpaceOnUse" x1="55.16" y1="1223.3065" x2="484.21" y2="1223.3065" gradientTransform="matrix(1 0 0 -1 0 2048)">
	<stop  offset="0" style="stop-color:#EBC761"/>
	<stop  offset="0.9994" style="stop-color:#F4F3F0"/>
</linearGradient>
<path style="opacity:0.8;fill:url(#SVGID_00000175324039696308132660000017058470837762744230_);enable-background:new    ;" d="
	M430.97,938.03c-43.88,71.35-262.89,87.51-321.65,4L55.16,651.04c31.39,125.41,379.5,113.52,429.05,0l-49.54,286.94"/>
<line class="st3" x1="57.16" y1="655.04" x2="104.6" y2="937.98"/>
<line class="st4" x1="482.28" y1="655.39" x2="431.47" y2="940.6"/>
<g>
	<path class="st9" d="M420.5,859.07c0.11-0.4,0.16-0.62,0.16-0.62C420.61,858.66,420.55,858.87,420.5,859.07z"/>
	<path class="st9" d="M381.91,915.17c-40.07,17.29-56.33-8.99-56.33-8.99l21.54-29.32l-68.26,2.64c0,0-0.88,88.51,0,90.28L295.6,947
		l51.52,8.69c47.46-4.7,61-49.96,73.38-96.61C418.97,864.71,406.58,907.56,381.91,915.17z"/>
</g>
<path class="st9" d="M390.79,774.87l2.23-3.13c0,0-23.78-17.75-65.23-7.62s-65.23,84.55-65.23,84.55s39.63-42.28,71.78-45.8
	s28.18,11.59,28.18,11.59l-25.98,36.41l73.54-2.64v-100.4L390.79,774.87z"/>
<ellipse class="st6" cx="269.2" cy="651.04" rx="212.05" ry="93.7"/>
<linearGradient id="SVGID_00000102533837281124222430000004220264654087481733_" gradientUnits="userSpaceOnUse" x1="47.63" y1="805.6399" x2="471.72" y2="805.6399" gradientTransform="matrix(1 0 0 -1 0 2048)">
	<stop  offset="0" style="stop-color:#EBC761"/>
	<stop  offset="0.9994" style="stop-color:#F4F3F0"/>
</linearGradient>
<path style="fill:url(#SVGID_00000102533837281124222430000004220264654087481733_);" d="M471.72,1154.29
	c0,27.31-49.17,269.85-49.17,269.85s-45.76-59.91-169.98-62.44c-113.17-2.3-162.83,59.79-162.83,59.79s-42.11-239.22-42.11-267.21
	c0-51.75,94.94-93.7,212.05-93.7S471.72,1102.54,471.72,1154.29z"/>
<ellipse class="st1" cx="257.2" cy="1435.7" rx="167.46" ry="74"/>
<linearGradient id="SVGID_00000161591365529655926240000009000178709925094558_" gradientUnits="userSpaceOnUse" x1="45.15" y1="720.0565" x2="474.2" y2="720.0565" gradientTransform="matrix(1 0 0 -1 0 2048)">
	<stop  offset="0" style="stop-color:#EBC761"/>
	<stop  offset="0.9994" style="stop-color:#F4F3F0"/>
</linearGradient>
<path style="opacity:0.8;fill:url(#SVGID_00000161591365529655926240000009000178709925094558_);enable-background:new    ;" d="
	M420.97,1441.28c-43.88,71.35-262.89,87.51-321.65,4l-54.17-290.99c31.39,125.41,379.5,113.52,429.05,0l-49.54,286.94"/>
<line class="st3" x1="47.16" y1="1158.29" x2="94.6" y2="1441.23"/>
<line class="st4" x1="472.28" y1="1158.63" x2="421.47" y2="1443.84"/>
<g>
	<path class="st12" d="M410.5,1362.32c0.11-0.4,0.16-0.62,0.16-0.62C410.61,1361.9,410.55,1362.11,410.5,1362.32z"/>
	<path class="st12" d="M371.91,1418.41c-40.07,17.29-56.33-8.99-56.33-8.99l21.54-29.32l-68.26,2.64c0,0-0.88,88.51,0,90.28
		l16.74-22.78l51.52,8.69c47.46-4.7,61-49.96,73.38-96.61C408.97,1367.95,396.58,1410.8,371.91,1418.41z"/>
</g>
<path class="st12" d="M380.79,1278.11l2.23-3.13c0,0-23.78-17.75-65.23-7.62s-65.23,84.55-65.23,84.55s39.63-42.28,71.78-45.8
	s28.18,11.59,28.18,11.59l-25.98,36.41l73.54-2.64v-100.4L380.79,1278.11z"/>
<ellipse class="st6" cx="259.2" cy="1154.29" rx="212.05" ry="93.7"/>
<linearGradient id="SVGID_00000079447640237835997830000001771400551701311403_" gradientUnits="userSpaceOnUse" x1="47.63" y1="293.6399" x2="471.72" y2="293.6399" gradientTransform="matrix(1 0 0 -1 0 2048)">
	<stop  offset="0" style="stop-color:#C3C3C3"/>
	<stop  offset="0.9994" style="stop-color:#F3F3F3"/>
</linearGradient>
<path style="fill:url(#SVGID_00000079447640237835997830000001771400551701311403_);" d="M471.72,1666.29
	c0,27.31-49.17,269.85-49.17,269.85s-45.76-59.91-169.98-62.44c-113.17-2.3-162.83,59.79-162.83,59.79s-42.11-239.22-42.11-267.21
	c0-51.75,94.94-93.7,212.05-93.7S471.72,1614.54,471.72,1666.29z"/>
<ellipse class="st14" cx="257.2" cy="1947.7" rx="167.46" ry="74"/>
<linearGradient id="SVGID_00000121982130768593102580000006035018548691693991_" gradientUnits="userSpaceOnUse" x1="45.15" y1="208.0565" x2="474.2" y2="208.0565" gradientTransform="matrix(1 0 0 -1 0 2048)">
	<stop  offset="0" style="stop-color:#C3C3C3"/>
	<stop  offset="0.9994" style="stop-color:#F3F3F3"/>
</linearGradient>
<path style="opacity:0.8;fill:url(#SVGID_00000121982130768593102580000006035018548691693991_);enable-background:new    ;" d="
	M420.97,1953.28c-43.88,71.35-262.89,87.51-321.65,4l-54.17-290.99c31.39,125.41,379.5,113.52,429.05,0l-49.54,286.94"/>
<line class="st16" x1="47.16" y1="1670.29" x2="94.6" y2="1953.23"/>
<line class="st17" x1="472.28" y1="1670.63" x2="421.47" y2="1955.84"/>
<g>
	<path class="st18" d="M410.5,1874.32c0.11-0.4,0.16-0.62,0.16-0.62C410.61,1873.9,410.55,1874.11,410.5,1874.32z"/>
	<path class="st18" d="M371.91,1930.41c-40.07,17.29-56.33-8.99-56.33-8.99l21.54-29.32l-68.26,2.64c0,0-0.88,88.51,0,90.28
		l16.74-22.78l51.52,8.69c47.46-4.7,61-49.96,73.38-96.61C408.97,1879.95,396.58,1922.8,371.91,1930.41z"/>
</g>
<path class="st18" d="M380.79,1790.11l2.23-3.13c0,0-23.78-17.75-65.23-7.62s-65.23,84.55-65.23,84.55s39.63-42.28,71.78-45.8
	s28.18,11.59,28.18,11.59l-25.98,36.41l73.54-2.64v-100.4L380.79,1790.11z"/>
<ellipse class="st19" cx="259.2" cy="1666.29" rx="212.05" ry="93.7"/>
</svg>
