<?xml version="1.0" encoding="utf-8"?>
<!-- Generator: Adobe Illustrator 27.0.1, SVG Export Plug-In . SVG Version: 6.00 Build 0)  -->
<svg version="1.1" id="Calque_1" xmlns="http://www.w3.org/2000/svg" xmlns:xlink="http://www.w3.org/1999/xlink" x="0px" y="0px"
	 viewBox="0 0 512 2048" style="enable-background:new 0 0 512 2048;" xml:space="preserve">
<style type="text/css">
	.st0{fill:url(#SVGID_1_);}
	.st1{fill:#685421;}
	.st2{opacity:0.8;fill:url(#SVGID_00000121268817700313756770000017132910405116417169_);}
	.st3{fill:none;stroke:#685421;stroke-width:8;stroke-miterlimit:10;}
	.st4{fill:none;stroke:#685421;stroke-width:4;stroke-linecap:square;stroke-miterlimit:10;}
	.st5{fill:#2CA337;}
	.st6{fill:none;stroke:#C7A953;stroke-width:8;stroke-miterlimit:10;}
	.st7{fill:url(#SVGID_00000171719614578574445990000012871815089044566915_);}
	.st8{opacity:0.8;fill:url(#SVGID_00000005975897252566730960000012119251172086426771_);}
	.st9{fill:#F39208;}
	.st10{fill:url(#SVGID_00000065051771523030232190000012208613804026198687_);}
	.st11{opacity:0.8;fill:url(#SVGID_00000049942900329301577880000014036388800196167355_);}
	.st12{fill:#3EB2E6;}
	.st13{fill:url(#SVGID_00000080192700194593959470000000374662081420819355_);}
	.st14{fill:#010101;}
	.st15{opacity:0.8;fill:url(#SVGID_00000080896937217663354310000000851325678446215307_);}
	.st16{fill:none;stroke:#010101;stroke-width:8;stroke-miterlimit:10;}
	.st17{fill:none;stroke:#010101;stroke-width:4;stroke-linecap:square;stroke-miterlimit:10;}
	.st18{fill:#A1A1A1;}
	.st19{fill:none;stroke:#9C9C9C;stroke-width:8;stroke-miterlimit:10;}
</style>
<linearGradient id="SVGID_1_" gradientUnits="userSpaceOnUse" x1="47.633" y1="217.1142" x2="471.7248" y2="217.1142">
	<stop  offset="0" style="stop-color:#EBC761"/>
	<stop  offset="0.9994" style="stop-color:#F4F3F0"/>
</linearGradient>
<path class="st0" d="M471.72,129.04c0,27.31-49.17,269.85-49.17,269.85s-45.76-59.91-169.98-62.44
	c-113.17-2.3-162.83,59.79-162.83,59.79S47.63,157.03,47.63,129.04c0-51.75,94.94-93.7,212.05-93.7S471.72,77.29,471.72,129.04z"/>
<ellipse class="st1" cx="257.2" cy="410.45" rx="167.46" ry="74"/>
<linearGradient id="SVGID_00000051347525749718881420000004608318870457786275_" gradientUnits="userSpaceOnUse" x1="45.156" y1="302.6928" x2="474.2018" y2="302.6928">
	<stop  offset="0" style="stop-color:#EBC761"/>
	<stop  offset="0.9994" style="stop-color:#F4F3F0"/>
</linearGradient>
<path style="opacity:0.8;fill:url(#SVGID_00000051347525749718881420000004608318870457786275_);" d="M420.97,416.03
	c-43.88,71.35-262.89,87.51-321.65,4L45.16,129.04c31.39,125.41,379.5,113.52,429.05,0l-49.54,286.94"/>
<line class="st3" x1="47.16" y1="133.04" x2="94.6" y2="415.98"/>
<line class="st4" x1="472.28" y1="133.39" x2="421.47" y2="418.6"/>
<g>
	<path class="st5" d="M410.5,337.07c0.11-0.4,0.16-0.62,0.16-0.62C410.61,336.66,410.55,336.87,410.5,337.07z"/>
	<path class="st5" d="M371.91,393.17c-40.07,17.29-56.33-8.99-56.33-8.99l21.54-29.32l-68.26,2.64c0,0-0.88,88.51,0,90.28
		l16.74-22.78l51.52,8.69c47.46-4.7,61-49.96,73.38-96.61C408.97,342.71,396.58,385.56,371.91,393.17z"/>
</g>
<path class="st5" d="M380.79,252.87l2.23-3.13c0,0-23.78-17.75-65.23-7.62c-41.45,10.13-65.23,84.55-65.23,84.55
	s39.63-42.28,71.78-45.8c32.15-3.52,28.18,11.59,28.18,11.59l-25.98,36.41l73.54-2.64v-100.4L380.79,252.87z"/>
<ellipse class="st6" cx="259.2" cy="129.04" rx="212.05" ry="93.7"/>
<linearGradient id="SVGID_00000059276613768004150340000018445037257919655049_" gradientUnits="userSpaceOnUse" x1="47.633" y1="729.1141" x2="471.7248" y2="729.1141">
	<stop  offset="0" style="stop-color:#EBC761"/>
	<stop  offset="0.9994" style="stop-color:#F4F3F0"/>
</linearGradient>
<path style="fill:url(#SVGID_00000059276613768004150340000018445037257919655049_);" d="M471.72,641.04
	c0,27.31-49.17,269.85-49.17,269.85s-45.76-59.91-169.98-62.44c-113.17-2.3-162.83,59.79-162.83,59.79S47.63,669.03,47.63,641.04
	c0-51.75,94.94-93.7,212.05-93.7S471.72,589.29,471.72,641.04z"/>
<ellipse class="st1" cx="257.2" cy="922.45" rx="167.46" ry="74"/>
<linearGradient id="SVGID_00000057836854150774792380000015364421674582740369_" gradientUnits="userSpaceOnUse" x1="45.156" y1="814.6929" x2="474.2018" y2="814.6929">
	<stop  offset="0" style="stop-color:#EBC761"/>
	<stop  offset="0.9994" style="stop-color:#F4F3F0"/>
</linearGradient>
<path style="opacity:0.8;fill:url(#SVGID_00000057836854150774792380000015364421674582740369_);" d="M420.97,928.03
	c-43.88,71.35-262.89,87.51-321.65,4L45.16,641.04c31.39,125.41,379.5,113.52,429.05,0l-49.54,286.94"/>
<line class="st3" x1="47.16" y1="645.04" x2="94.6" y2="927.98"/>
<line class="st4" x1="472.28" y1="645.39" x2="421.47" y2="930.6"/>
<g>
	<path class="st9" d="M410.5,849.07c0.11-0.4,0.16-0.62,0.16-0.62C410.61,848.66,410.55,848.87,410.5,849.07z"/>
	<path class="st9" d="M371.91,905.17c-40.07,17.29-56.33-8.99-56.33-8.99l21.54-29.32l-68.26,2.64c0,0-0.88,88.51,0,90.28
		l16.74-22.78l51.52,8.69c47.46-4.7,61-49.96,73.38-96.61C408.97,854.71,396.58,897.56,371.91,905.17z"/>
</g>
<path class="st9" d="M380.79,764.87l2.23-3.13c0,0-23.78-17.75-65.23-7.62c-41.45,10.13-65.23,84.55-65.23,84.55
	s39.63-42.28,71.78-45.8c32.15-3.52,28.18,11.59,28.18,11.59l-25.98,36.41l73.54-2.64v-100.4L380.79,764.87z"/>
<ellipse class="st6" cx="259.2" cy="641.04" rx="212.05" ry="93.7"/>
<linearGradient id="SVGID_00000077323842245166181670000013943966759640876446_" gradientUnits="userSpaceOnUse" x1="47.633" y1="1242.3591" x2="471.7248" y2="1242.3591">
	<stop  offset="0" style="stop-color:#EBC761"/>
	<stop  offset="0.9994" style="stop-color:#F4F3F0"/>
</linearGradient>
<path style="fill:url(#SVGID_00000077323842245166181670000013943966759640876446_);" d="M471.72,1154.29
	c0,27.31-49.17,269.85-49.17,269.85s-45.76-59.91-169.98-62.44c-113.17-2.3-162.83,59.79-162.83,59.79s-42.11-239.22-42.11-267.21
	c0-51.75,94.94-93.7,212.05-93.7S471.72,1102.54,471.72,1154.29z"/>
<ellipse class="st1" cx="257.2" cy="1435.7" rx="167.46" ry="74"/>
<linearGradient id="SVGID_00000174593710608485348720000011032512459605278900_" gradientUnits="userSpaceOnUse" x1="45.156" y1="1327.9379" x2="474.2018" y2="1327.9379">
	<stop  offset="0" style="stop-color:#EBC761"/>
	<stop  offset="0.9994" style="stop-color:#F4F3F0"/>
</linearGradient>
<path style="opacity:0.8;fill:url(#SVGID_00000174593710608485348720000011032512459605278900_);" d="M420.97,1441.28
	c-43.88,71.35-262.89,87.51-321.65,4l-54.17-290.99c31.39,125.41,379.5,113.52,429.05,0l-49.54,286.94"/>
<line class="st3" x1="47.16" y1="1158.29" x2="94.6" y2="1441.23"/>
<line class="st4" x1="472.28" y1="1158.63" x2="421.47" y2="1443.84"/>
<g>
	<path class="st12" d="M410.5,1362.32c0.11-0.4,0.16-0.62,0.16-0.62C410.61,1361.9,410.55,1362.11,410.5,1362.32z"/>
	<path class="st12" d="M371.91,1418.41c-40.07,17.29-56.33-8.99-56.33-8.99l21.54-29.32l-68.26,2.64c0,0-0.88,88.51,0,90.28
		l16.74-22.78l51.52,8.69c47.46-4.7,61-49.96,73.38-96.61C408.97,1367.95,396.58,1410.8,371.91,1418.41z"/>
</g>
<path class="st12" d="M380.79,1278.11l2.23-3.13c0,0-23.78-17.75-65.23-7.62s-65.23,84.55-65.23,84.55s39.63-42.28,71.78-45.8
	c32.15-3.52,28.18,11.59,28.18,11.59l-25.98,36.41l73.54-2.64v-100.4L380.79,1278.11z"/>
<ellipse class="st6" cx="259.2" cy="1154.29" rx="212.05" ry="93.7"/>
<linearGradient id="SVGID_00000152239228634780501410000009092067789782110346_" gradientUnits="userSpaceOnUse" x1="47.633" y1="1754.3591" x2="471.7248" y2="1754.3591">
	<stop  offset="0" style="stop-color:#C3C3C3"/>
	<stop  offset="0.9994" style="stop-color:#F3F3F3"/>
</linearGradient>
<path style="fill:url(#SVGID_00000152239228634780501410000009092067789782110346_);" d="M471.72,1666.29
	c0,27.31-49.17,269.85-49.17,269.85s-45.76-59.91-169.98-62.44c-113.17-2.3-162.83,59.79-162.83,59.79s-42.11-239.22-42.11-267.21
	c0-51.75,94.94-93.7,212.05-93.7S471.72,1614.54,471.72,1666.29z"/>
<ellipse class="st14" cx="257.2" cy="1947.7" rx="167.46" ry="74"/>
<linearGradient id="SVGID_00000054987686968488816330000000349890931394485427_" gradientUnits="userSpaceOnUse" x1="45.156" y1="1839.9379" x2="474.2018" y2="1839.9379">
	<stop  offset="0" style="stop-color:#C3C3C3"/>
	<stop  offset="0.9994" style="stop-color:#F3F3F3"/>
</linearGradient>
<path style="opacity:0.8;fill:url(#SVGID_00000054987686968488816330000000349890931394485427_);" d="M420.97,1953.28
	c-43.88,71.35-262.89,87.51-321.65,4l-54.17-290.99c31.39,125.41,379.5,113.52,429.05,0l-49.54,286.94"/>
<line class="st16" x1="47.16" y1="1670.29" x2="94.6" y2="1953.23"/>
<line class="st17" x1="472.28" y1="1670.63" x2="421.47" y2="1955.84"/>
<g>
	<path class="st18" d="M410.5,1874.32c0.11-0.4,0.16-0.62,0.16-0.62C410.61,1873.9,410.55,1874.11,410.5,1874.32z"/>
	<path class="st18" d="M371.91,1930.41c-40.07,17.29-56.33-8.99-56.33-8.99l21.54-29.32l-68.26,2.64c0,0-0.88,88.51,0,90.28
		l16.74-22.78l51.52,8.69c47.46-4.7,61-49.96,73.38-96.61C408.97,1879.95,396.58,1922.8,371.91,1930.41z"/>
</g>
<path class="st18" d="M380.79,1790.11l2.23-3.13c0,0-23.78-17.75-65.23-7.62s-65.23,84.55-65.23,84.55s39.63-42.28,71.78-45.8
	c32.15-3.52,28.18,11.59,28.18,11.59l-25.98,36.41l73.54-2.64v-100.4L380.79,1790.11z"/>
<ellipse class="st19" cx="259.2" cy="1666.29" rx="212.05" ry="93.7"/>
</svg>
