<?xml version="1.0" encoding="utf-8"?>
<!-- Generator: Adobe Illustrator 27.0.1, SVG Export Plug-In . SVG Version: 6.00 Build 0)  -->
<svg version="1.1" id="Calque_1" xmlns="http://www.w3.org/2000/svg" xmlns:xlink="http://www.w3.org/1999/xlink" x="0px" y="0px"
	 viewBox="0 0 512 2048" style="enable-background:new 0 0 512 2048;" xml:space="preserve">
<style type="text/css">
	.st0{opacity:0.5;fill:none;stroke:#949494;stroke-width:8;stroke-miterlimit:10;enable-background:new    ;}
	.st1{fill:url(#SVGID_1_);}
	.st2{fill:url(#SVGID_00000026883529013755255870000008307485463582784407_);}
	.st3{fill:none;stroke:#000000;stroke-miterlimit:10;}
	.st4{fill:none;stroke:#636363;stroke-width:8;stroke-miterlimit:10;}
	.st5{fill:url(#SVGID_00000028316573985322581700000007185224586829148308_);stroke:#636363;stroke-width:8;stroke-miterlimit:10;}
	.st6{fill:url(#SVGID_00000173160675876940508260000009658558589540866703_);stroke:#787878;stroke-width:4;stroke-miterlimit:10;}
	.st7{fill:url(#SVGID_00000040540703277445189150000011648191612068524204_);stroke:#636363;stroke-width:8;stroke-miterlimit:10;}
	.st8{opacity:0.5;fill:none;stroke:#A0A09F;stroke-width:8;stroke-miterlimit:10;enable-background:new    ;}
	.st9{fill:url(#SVGID_00000054976803977926971260000018138355850395138987_);}
	.st10{fill:url(#SVGID_00000042732414724906568680000000455936210283728574_);}
	.st11{fill:none;stroke:#82827F;stroke-width:8;stroke-miterlimit:10;}
	.st12{fill:url(#SVGID_00000086662553683474845850000000978705433433700542_);stroke:#82827F;stroke-width:8;stroke-miterlimit:10;}
	.st13{fill:url(#SVGID_00000114059256373513301620000009283050290045586325_);stroke:#448A4F;stroke-width:4;stroke-miterlimit:10;}
	.st14{fill:url(#SVGID_00000172405962918283532150000015148463955230704796_);stroke:#82827F;stroke-width:8;stroke-miterlimit:10;}
	.st15{fill:url(#SVGID_00000149364128793605790500000003976488583449600662_);}
	.st16{fill:url(#SVGID_00000142873611375730616260000006341740998621333911_);}
	.st17{fill:url(#SVGID_00000008855358502693649740000000552996286022616466_);stroke:#82827F;stroke-width:8;stroke-miterlimit:10;}
	.st18{fill:url(#SVGID_00000029024448000526159120000008707177519561508284_);stroke:#448A4F;stroke-width:4;stroke-miterlimit:10;}
	.st19{fill:url(#SVGID_00000123432843962103074630000012452342884596592811_);stroke:#82827F;stroke-width:8;stroke-miterlimit:10;}
	.st20{fill:url(#SVGID_00000140012868253332757540000009544259357796346504_);}
	.st21{fill:url(#SVGID_00000078751423631269122290000000606249200115543224_);}
	.st22{fill:url(#SVGID_00000039123450834273817150000016570955524335987605_);stroke:#82827F;stroke-width:8;stroke-miterlimit:10;}
	.st23{fill:url(#SVGID_00000116231195587205790380000005131153479775300496_);stroke:#82827F;stroke-width:8;stroke-miterlimit:10;}
	.st24{fill:url(#SVGID_00000077300531082311421040000008613713761016821939_);stroke:#448A4F;stroke-width:4;stroke-miterlimit:10;}
	.st25{fill:url(#SVGID_00000036951621181449518350000015990712672376445606_);stroke:#82827F;stroke-width:8;stroke-miterlimit:10;}
	.st26{fill:url(#SVGID_00000069380476837969798250000011381561050585362822_);stroke:#030304;stroke-width:8;stroke-miterlimit:10;}
	.st27{fill:url(#SVGID_00000018232335861653568830000009492542584748291743_);stroke:#030304;stroke-width:8;stroke-miterlimit:10;}
	.st28{fill:url(#SVGID_00000097490872355272466500000008130467492497036710_);stroke:#030304;stroke-width:8;stroke-miterlimit:10;}
	.st29{fill:url(#SVGID_00000044140437859417754260000009654352824127872430_);stroke:#030304;stroke-width:8;stroke-miterlimit:10;}
	.st30{fill:url(#SVGID_00000165235212733728644080000016678989047251081350_);stroke:#030304;stroke-width:8;stroke-miterlimit:10;}
	.st31{fill:url(#SVGID_00000018210857851081536090000016572102947087832203_);stroke:#030304;stroke-width:8;stroke-miterlimit:10;}
	.st32{fill:url(#SVGID_00000067918682189206883820000015069774907633020340_);stroke:#020203;stroke-width:8;stroke-miterlimit:10;}
	.st33{fill:url(#SVGID_00000129888979858470174440000018210565483195959457_);stroke:#020203;stroke-width:8;stroke-miterlimit:10;}
</style>
<polyline class="st0" points="26.63,1895.96 262.64,2008.01 490.41,1907.54 "/>
<linearGradient id="SVGID_1_" gradientUnits="userSpaceOnUse" x1="257.69" y1="314.71" x2="257.69" y2="140.46" gradientTransform="matrix(1 0 0 -1 0 2048)">
	<stop  offset="0" style="stop-color:#949494"/>
	<stop  offset="1" style="stop-color:#EBEBEB"/>
</linearGradient>
<polygon class="st1" points="28.04,1807.87 246.78,1733.29 487.34,1818.36 262.64,1907.54 "/>
<linearGradient id="SVGID_00000162339774044646102760000014374343548295702714_" gradientUnits="userSpaceOnUse" x1="144.21" y1="240.73" x2="144.21" y2="47.1899" gradientTransform="matrix(1 0 0 -1 0 2048)">
	<stop  offset="0" style="stop-color:#949494"/>
	<stop  offset="1" style="stop-color:#EBEBEB"/>
</linearGradient>
<polygon style="fill:url(#SVGID_00000162339774044646102760000014374343548295702714_);" points="26.63,1807.27 261.79,1907.1 
	261.79,2000.81 26.63,1890.5 "/>
<path class="st3" d="M366.71,1991.99"/>
<polygon class="st4" points="26.63,1890.5 26.63,1807.27 245.94,1736.59 487.34,1818.36 484.39,1898.42 261.79,2000.81 "/>
<linearGradient id="SVGID_00000132073546846588392660000001958338730894215590_" gradientUnits="userSpaceOnUse" x1="262.64" y1="138.315" x2="487.35" y2="138.315" gradientTransform="matrix(1 0 0 -1 0 2048)">
	<stop  offset="0" style="stop-color:#999999"/>
	<stop  offset="1" style="stop-color:#6A6A6A"/>
</linearGradient>
<path style="fill:url(#SVGID_00000132073546846588392660000001958338730894215590_);stroke:#636363;stroke-width:8;stroke-miterlimit:10;" d="
	M262.64,1997.51c0-1.98,0-89.97,0-89.97l224.71-85.68l-2.95,82.37L262.64,1997.51z"/>
<polyline class="st4" points="219.23,1982.7 219.24,1889.54 448.37,1806.51 "/>
<linearGradient id="SVGID_00000072242220439135387540000005500622759697714304_" gradientUnits="userSpaceOnUse" x1="281.94" y1="140.46" x2="460.94" y2="140.46" gradientTransform="matrix(1 0 0 -1 0 2048)">
	<stop  offset="0" style="stop-color:#A5A5A5"/>
	<stop  offset="1" style="stop-color:#D9D9D9"/>
</linearGradient>
<polygon style="fill:url(#SVGID_00000072242220439135387540000005500622759697714304_);stroke:#787878;stroke-width:4;stroke-miterlimit:10;" points="
	281.94,1926.69 460.94,1857.34 460.2,1883.12 281.94,1957.74 "/>
<linearGradient id="SVGID_00000091016385465505902660000016610209549138208435_" gradientUnits="userSpaceOnUse" x1="176.76" y1="216.02" x2="409.1" y2="216.02" gradientTransform="matrix(1 0 0 -1 0 2048)">
	<stop  offset="0" style="stop-color:#EFEFEF"/>
	<stop  offset="1" style="stop-color:#C5C5C5"/>
</linearGradient>
<polygon style="fill:url(#SVGID_00000091016385465505902660000016610209549138208435_);stroke:#636363;stroke-width:8;stroke-miterlimit:10;" points="
	176.76,1840.31 320.56,1789.75 409.1,1819.53 261.79,1874.21 "/>
<polyline class="st8" points="26.63,1384.96 262.64,1497.01 490.41,1396.54 "/>
<linearGradient id="SVGID_00000048497817369722098080000015238796700352801926_" gradientUnits="userSpaceOnUse" x1="257.69" y1="825.71" x2="257.69" y2="651.46" gradientTransform="matrix(1 0 0 -1 0 2048)">
	<stop  offset="0" style="stop-color:#8F8FBC"/>
	<stop  offset="1" style="stop-color:#EAEAE7"/>
</linearGradient>
<polygon style="fill:url(#SVGID_00000048497817369722098080000015238796700352801926_);" points="28.04,1296.87 246.78,1222.29 
	487.34,1307.36 262.64,1396.54 "/>
<linearGradient id="SVGID_00000033348339258979033570000005377754199599869872_" gradientUnits="userSpaceOnUse" x1="144.21" y1="751.73" x2="144.21" y2="558.1899" gradientTransform="matrix(1 0 0 -1 0 2048)">
	<stop  offset="0" style="stop-color:#8F8FBC"/>
	<stop  offset="1" style="stop-color:#EAEAE7"/>
</linearGradient>
<polygon style="fill:url(#SVGID_00000033348339258979033570000005377754199599869872_);" points="26.63,1296.27 261.79,1396.1 
	261.79,1489.81 26.63,1379.5 "/>
<path class="st3" d="M366.71,1480.99"/>
<polygon class="st11" points="26.63,1379.5 26.63,1296.27 245.94,1225.59 487.34,1307.36 484.39,1387.42 261.79,1489.81 "/>
<linearGradient id="SVGID_00000163753488608012881980000008154454673962503818_" gradientUnits="userSpaceOnUse" x1="262.64" y1="649.315" x2="487.35" y2="649.315" gradientTransform="matrix(1 0 0 -1 0 2048)">
	<stop  offset="0" style="stop-color:#A4A4A1"/>
	<stop  offset="1" style="stop-color:#7E7E8F"/>
</linearGradient>
<path style="fill:url(#SVGID_00000163753488608012881980000008154454673962503818_);stroke:#82827F;stroke-width:8;stroke-miterlimit:10;" d="
	M262.64,1486.51c0-1.98,0-89.97,0-89.97l224.71-85.68l-2.95,82.37L262.64,1486.51z"/>
<polyline class="st11" points="219.23,1471.7 219.24,1378.54 448.37,1295.51 "/>
<linearGradient id="SVGID_00000101065635231772562970000000692745283863024566_" gradientUnits="userSpaceOnUse" x1="281.94" y1="651.46" x2="460.94" y2="651.46" gradientTransform="matrix(1 0 0 -1 0 2048)">
	<stop  offset="0" style="stop-color:#51A656"/>
	<stop  offset="1" style="stop-color:#C4D9BE"/>
</linearGradient>
<polygon style="fill:url(#SVGID_00000101065635231772562970000000692745283863024566_);stroke:#448A4F;stroke-width:4;stroke-miterlimit:10;" points="
	281.94,1415.69 460.94,1346.34 460.2,1372.12 281.94,1446.74 "/>
<linearGradient id="SVGID_00000031192249090473492940000005595480605104813463_" gradientUnits="userSpaceOnUse" x1="176.76" y1="727.02" x2="409.1" y2="727.02" gradientTransform="matrix(1 0 0 -1 0 2048)">
	<stop  offset="0" style="stop-color:#DFEEF3"/>
	<stop  offset="1" style="stop-color:#77BFD5"/>
</linearGradient>
<polygon style="fill:url(#SVGID_00000031192249090473492940000005595480605104813463_);stroke:#82827F;stroke-width:8;stroke-miterlimit:10;" points="
	176.76,1329.31 320.56,1278.75 409.1,1308.53 261.79,1363.21 "/>
<polyline class="st8" points="36.63,882.63 272.64,994.68 500.41,894.21 "/>
<linearGradient id="SVGID_00000039106647082292473840000009564764752280611479_" gradientUnits="userSpaceOnUse" x1="267.69" y1="1328.05" x2="267.69" y2="1153.79" gradientTransform="matrix(1 0 0 -1 0 2048)">
	<stop  offset="0" style="stop-color:#8F8FBC"/>
	<stop  offset="1" style="stop-color:#EAEAE7"/>
</linearGradient>
<polygon style="fill:url(#SVGID_00000039106647082292473840000009564764752280611479_);" points="38.04,794.53 256.78,719.95 
	497.34,805.03 272.64,894.21 "/>
<linearGradient id="SVGID_00000067200075192206692540000017417974323983164322_" gradientUnits="userSpaceOnUse" x1="154.21" y1="1254.0601" x2="154.21" y2="1060.52" gradientTransform="matrix(1 0 0 -1 0 2048)">
	<stop  offset="0" style="stop-color:#8F8FBC"/>
	<stop  offset="1" style="stop-color:#EAEAE7"/>
</linearGradient>
<polygon style="fill:url(#SVGID_00000067200075192206692540000017417974323983164322_);" points="36.63,793.94 271.79,893.77 
	271.79,987.48 36.63,877.17 "/>
<path class="st3" d="M376.71,978.65"/>
<polygon class="st11" points="36.63,877.17 36.63,793.94 255.94,723.26 497.34,805.03 494.39,885.09 271.79,987.48 "/>
<linearGradient id="SVGID_00000137835178063636944510000012335456224128111790_" gradientUnits="userSpaceOnUse" x1="272.64" y1="1151.655" x2="497.35" y2="1151.655" gradientTransform="matrix(1 0 0 -1 0 2048)">
	<stop  offset="0" style="stop-color:#A4A4A1"/>
	<stop  offset="1" style="stop-color:#7E7E8F"/>
</linearGradient>
<path style="fill:url(#SVGID_00000137835178063636944510000012335456224128111790_);stroke:#82827F;stroke-width:8;stroke-miterlimit:10;" d="
	M272.64,984.17c0-1.98,0-89.97,0-89.97l224.71-85.68l-2.95,82.37L272.64,984.17z"/>
<polyline class="st11" points="229.23,969.37 229.24,876.21 458.37,793.17 "/>
<linearGradient id="SVGID_00000078018432568676576480000000015228814274279854_" gradientUnits="userSpaceOnUse" x1="291.94" y1="1153.79" x2="470.94" y2="1153.79" gradientTransform="matrix(1 0 0 -1 0 2048)">
	<stop  offset="0" style="stop-color:#51A656"/>
	<stop  offset="1" style="stop-color:#C4D9BE"/>
</linearGradient>
<polygon style="fill:url(#SVGID_00000078018432568676576480000000015228814274279854_);stroke:#448A4F;stroke-width:4;stroke-miterlimit:10;" points="
	291.94,913.36 470.94,844.01 470.2,869.78 291.94,944.41 "/>
<linearGradient id="SVGID_00000170270295323256392360000012799987987539916964_" gradientUnits="userSpaceOnUse" x1="186.76" y1="1229.35" x2="419.1" y2="1229.35" gradientTransform="matrix(1 0 0 -1 0 2048)">
	<stop  offset="0" style="stop-color:#DFEEF3"/>
	<stop  offset="1" style="stop-color:#77BFD5"/>
</linearGradient>
<polygon style="fill:url(#SVGID_00000170270295323256392360000012799987987539916964_);stroke:#82827F;stroke-width:8;stroke-miterlimit:10;" points="
	186.76,826.98 330.56,776.42 419.1,806.2 271.79,860.88 "/>
<polyline class="st8" points="26.63,360.96 262.64,473.01 490.41,372.54 "/>
<linearGradient id="SVGID_00000141447559691947982830000006903565583110146453_" gradientUnits="userSpaceOnUse" x1="257.69" y1="1849.71" x2="257.69" y2="1675.46" gradientTransform="matrix(1 0 0 -1 0 2048)">
	<stop  offset="0" style="stop-color:#8F8FBC"/>
	<stop  offset="1" style="stop-color:#EAEAE7"/>
</linearGradient>
<polygon style="fill:url(#SVGID_00000141447559691947982830000006903565583110146453_);" points="28.04,272.87 246.78,198.29 
	487.34,283.36 262.64,372.54 "/>
<linearGradient id="SVGID_00000117653113751777888450000005226697024069038008_" gradientUnits="userSpaceOnUse" x1="144.21" y1="1775.73" x2="144.21" y2="1582.1899" gradientTransform="matrix(1 0 0 -1 0 2048)">
	<stop  offset="0" style="stop-color:#8F8FBC"/>
	<stop  offset="1" style="stop-color:#EAEAE7"/>
</linearGradient>
<polygon style="fill:url(#SVGID_00000117653113751777888450000005226697024069038008_);" points="26.63,272.27 261.79,372.1 
	261.79,465.81 26.63,355.5 "/>
<path class="st3" d="M366.71,456.99"/>
<polygon class="st11" points="26.63,355.5 26.63,272.27 245.94,201.59 487.34,283.36 484.39,363.42 261.79,465.81 "/>
<linearGradient id="SVGID_00000179628724836413006090000016715330980063835318_" gradientUnits="userSpaceOnUse" x1="262.64" y1="1673.3149" x2="487.35" y2="1673.3149" gradientTransform="matrix(1 0 0 -1 0 2048)">
	<stop  offset="0" style="stop-color:#A4A4A1"/>
	<stop  offset="1" style="stop-color:#7E7E8F"/>
</linearGradient>
<path style="fill:url(#SVGID_00000179628724836413006090000016715330980063835318_);stroke:#82827F;stroke-width:8;stroke-miterlimit:10;" d="
	M262.64,462.51c0-1.98,0-89.97,0-89.97l224.71-85.68l-2.95,82.37L262.64,462.51z"/>
<polyline class="st11" points="219.23,447.7 219.24,354.54 448.37,271.51 "/>
<linearGradient id="SVGID_00000100362884457387220830000018285301673625533327_" gradientUnits="userSpaceOnUse" x1="256" y1="2085.02" x2="256" y2="2085.02" gradientTransform="matrix(1 0 0 -1 0 2048)">
	<stop  offset="0" style="stop-color:#A4A4A1"/>
	<stop  offset="1" style="stop-color:#7E7E8F"/>
</linearGradient>
<path style="fill:url(#SVGID_00000100362884457387220830000018285301673625533327_);stroke:#82827F;stroke-width:8;stroke-miterlimit:10;" d="
	M256-37.02"/>
<linearGradient id="SVGID_00000149363093448331694740000012524341562707072952_" gradientUnits="userSpaceOnUse" x1="281.94" y1="1675.46" x2="460.94" y2="1675.46" gradientTransform="matrix(1 0 0 -1 0 2048)">
	<stop  offset="0" style="stop-color:#51A656"/>
	<stop  offset="1" style="stop-color:#C4D9BE"/>
</linearGradient>
<polygon style="fill:url(#SVGID_00000149363093448331694740000012524341562707072952_);stroke:#448A4F;stroke-width:4;stroke-miterlimit:10;" points="
	281.94,391.69 460.94,322.34 460.2,348.12 281.94,422.74 "/>
<linearGradient id="SVGID_00000055702907521226343450000012746632639463299258_" gradientUnits="userSpaceOnUse" x1="176.76" y1="1751.02" x2="409.1" y2="1751.02" gradientTransform="matrix(1 0 0 -1 0 2048)">
	<stop  offset="0" style="stop-color:#DFEEF3"/>
	<stop  offset="1" style="stop-color:#77BFD5"/>
</linearGradient>
<polygon style="fill:url(#SVGID_00000055702907521226343450000012746632639463299258_);stroke:#82827F;stroke-width:8;stroke-miterlimit:10;" points="
	176.76,305.31 320.56,254.75 409.1,284.53 261.79,339.21 "/>
<linearGradient id="SVGID_00000121269867843993732930000010521200934829263498_" gradientUnits="userSpaceOnUse" x1="40.0992" y1="-1243.67" x2="40.0992" y2="-1027" gradientTransform="matrix(-1 0 0 1 202.6542 1282)">
	<stop  offset="0" style="stop-color:#BCDAAC"/>
	<stop  offset="1" style="stop-color:#44AC37"/>
</linearGradient>
<path style="fill:url(#SVGID_00000121269867843993732930000010521200934829263498_);stroke:#030304;stroke-width:8;stroke-miterlimit:10;" d="
	M161.72,255h1.67c13.85,0,25.07-11.22,25.07-25.07V63.4c0-13.85-11.22-25.07-25.07-25.07h-1.67c-13.85,0-25.07,11.22-25.07,25.07
	v166.53C136.65,243.78,147.88,255,161.72,255z"/>
<linearGradient id="SVGID_00000051377877834890002080000006892507263497713797_" gradientUnits="userSpaceOnUse" x1="-92.7076" y1="-1234.2693" x2="-92.7076" y2="-1030.2401" gradientTransform="matrix(-1 0 0 1 202.6542 1282)">
	<stop  offset="0" style="stop-color:#BCDAAC"/>
	<stop  offset="1" style="stop-color:#44AC37"/>
</linearGradient>
<path style="fill:url(#SVGID_00000051377877834890002080000006892507263497713797_);stroke:#030304;stroke-width:8;stroke-miterlimit:10;" d="
	M335.81,52.38L215.6,132.62c-4.4,2.94-4.85,9.24-0.91,12.77l110.92,99.33c11.23,10.06,28.46,9.24,38.69-1.83l4.37-4.74
	c10.82-11.71,9.5-30.12-2.88-40.16l-61.9-50.24c-4.39-3.56-3.87-10.41,1-13.27l60.2-35.33c13.51-7.93,17.72-25.5,9.28-38.69l0,0
	C366.05,47.44,348.66,43.8,335.81,52.38z"/>
<linearGradient id="SVGID_00000179644184292046887130000012936625058476319667_" gradientUnits="userSpaceOnUse" x1="30.0992" y1="-721.67" x2="30.0992" y2="-505" gradientTransform="matrix(-1 0 0 1 202.6542 1282)">
	<stop  offset="0" style="stop-color:#FFDD08"/>
	<stop  offset="1" style="stop-color:#F7A81E"/>
</linearGradient>
<path style="fill:url(#SVGID_00000179644184292046887130000012936625058476319667_);stroke:#030304;stroke-width:8;stroke-miterlimit:10;" d="
	M171.72,777h1.67c13.85,0,25.07-11.22,25.07-25.07V585.4c0-13.85-11.22-25.07-25.07-25.07h-1.67c-13.85,0-25.07,11.22-25.07,25.07
	v166.53C146.65,765.78,157.88,777,171.72,777z"/>
<linearGradient id="SVGID_00000067923661649190802330000010897338350948263076_" gradientUnits="userSpaceOnUse" x1="-102.7076" y1="-712.2693" x2="-102.7076" y2="-508.2401" gradientTransform="matrix(-1 0 0 1 202.6542 1282)">
	<stop  offset="0" style="stop-color:#FFDD08"/>
	<stop  offset="1" style="stop-color:#F7A81E"/>
</linearGradient>
<path style="fill:url(#SVGID_00000067923661649190802330000010897338350948263076_);stroke:#030304;stroke-width:8;stroke-miterlimit:10;" d="
	M345.81,574.38L225.6,654.62c-4.4,2.94-4.85,9.24-0.91,12.77l110.92,99.33c11.23,10.06,28.46,9.24,38.69-1.83l4.37-4.74
	c10.82-11.71,9.5-30.12-2.88-40.16l-61.9-50.24c-4.39-3.56-3.87-10.41,1-13.27l60.2-35.33c13.51-7.93,17.72-25.5,9.28-38.69l0,0
	C376.05,569.44,358.66,565.8,345.81,574.38z"/>
<linearGradient id="SVGID_00000181768440471532046660000016968717504075963043_" gradientUnits="userSpaceOnUse" x1="40.0992" y1="-219.6699" x2="40.0992" y2="-3" gradientTransform="matrix(-1 0 0 1 202.6542 1282)">
	<stop  offset="0" style="stop-color:#AED2EE"/>
	<stop  offset="1" style="stop-color:#3CB2E6"/>
</linearGradient>
<path style="fill:url(#SVGID_00000181768440471532046660000016968717504075963043_);stroke:#030304;stroke-width:8;stroke-miterlimit:10;" d="
	M161.72,1279h1.67c13.85,0,25.07-11.22,25.07-25.07V1087.4c0-13.85-11.22-25.07-25.07-25.07h-1.67c-13.85,0-25.07,11.22-25.07,25.07
	v166.53C136.65,1267.78,147.88,1279,161.72,1279z"/>
<linearGradient id="SVGID_00000154388364792331534830000010804562242763548842_" gradientUnits="userSpaceOnUse" x1="-92.7076" y1="-210.2693" x2="-92.7076" y2="-6.2401" gradientTransform="matrix(-1 0 0 1 202.6542 1282)">
	<stop  offset="0" style="stop-color:#AED2EE"/>
	<stop  offset="1" style="stop-color:#3CB2E6"/>
</linearGradient>
<path style="fill:url(#SVGID_00000154388364792331534830000010804562242763548842_);stroke:#030304;stroke-width:8;stroke-miterlimit:10;" d="
	M335.81,1076.38l-120.21,80.24c-4.4,2.94-4.85,9.24-0.91,12.77l110.92,99.33c11.23,10.06,28.46,9.24,38.69-1.83l4.37-4.74
	c10.82-11.71,9.5-30.12-2.88-40.16l-61.9-50.24c-4.39-3.56-3.87-10.41,1-13.27l60.2-35.33c13.51-7.93,17.72-25.5,9.28-38.69l0,0
	C366.05,1071.44,348.66,1067.8,335.81,1076.38z"/>
<linearGradient id="SVGID_00000021807787308561791240000018348247613848674712_" gradientUnits="userSpaceOnUse" x1="40.0992" y1="292.3301" x2="40.0992" y2="509" gradientTransform="matrix(-1 0 0 1 202.6542 1282)">
	<stop  offset="0" style="stop-color:#DADADA"/>
	<stop  offset="1" style="stop-color:#A9A9AA"/>
</linearGradient>
<path style="fill:url(#SVGID_00000021807787308561791240000018348247613848674712_);stroke:#020203;stroke-width:8;stroke-miterlimit:10;" d="
	M161.72,1791h1.67c13.85,0,25.07-11.22,25.07-25.07V1599.4c0-13.85-11.22-25.07-25.07-25.07h-1.67c-13.85,0-25.07,11.22-25.07,25.07
	v166.53C136.65,1779.78,147.88,1791,161.72,1791z"/>
<linearGradient id="SVGID_00000153706648623454858700000004748241559275231675_" gradientUnits="userSpaceOnUse" x1="-93.3059" y1="301.7303" x2="-93.3059" y2="505.7599" gradientTransform="matrix(-1 0 0 1 202.6542 1282)">
	<stop  offset="0" style="stop-color:#DADADA"/>
	<stop  offset="1" style="stop-color:#A9A9AA"/>
</linearGradient>
<path style="fill:url(#SVGID_00000153706648623454858700000004748241559275231675_);stroke:#020203;stroke-width:8;stroke-miterlimit:10;" d="
	M335.81,1588.38l-118.19,78.9c-5.42,3.62-5.97,11.38-1.12,15.73l109.12,97.71c11.23,10.06,28.46,9.24,38.69-1.83l4.37-4.74
	c10.82-11.71,9.5-30.12-2.88-40.16l-59.8-48.54c-5.41-4.39-4.77-12.82,1.24-16.35l57.86-33.96c13.51-7.93,17.72-25.5,9.28-38.69l0,0
	C366.05,1583.44,348.66,1579.8,335.81,1588.38z"/>
</svg>
