<?xml version="1.0" encoding="utf-8"?>
<!-- Generator: Adobe Illustrator 27.0.1, SVG Export Plug-In . SVG Version: 6.00 Build 0)  -->
<svg version="1.1" id="Calque_1" xmlns="http://www.w3.org/2000/svg" xmlns:xlink="http://www.w3.org/1999/xlink" x="0px" y="0px"
	 viewBox="0 0 512 2048" style="enable-background:new 0 0 512 2048;" xml:space="preserve">
<style type="text/css">
	.st0{fill:#B47634;stroke:#000000;stroke-miterlimit:10;}
	.st1{opacity:0.5;fill:#A0A09F;}
	.st2{fill:#FFFFFF;}
	.st3{fill:url(#SVGID_1_);}
	.st4{fill:url(#SVGID_00000010999092948164857880000000501593206585727379_);}
	.st5{fill:url(#SVGID_00000024721696612362582090000001074681738899828661_);stroke:#020203;stroke-width:8;stroke-miterlimit:10;}
	.st6{fill:url(#SVGID_00000041281164130171431440000013325249900583624382_);stroke:#020203;stroke-width:8;stroke-miterlimit:10;}
	.st7{fill:url(#SVGID_00000076589790329537907160000018238103382836641700_);}
	.st8{fill:url(#SVGID_00000020389597766573535740000006242423309870265219_);}
	.st9{fill:url(#SVGID_00000149382880835095736920000015691682685243249037_);stroke:#020203;stroke-width:8;stroke-miterlimit:10;}
	.st10{fill:url(#SVGID_00000050627751006995834880000015361664482890514356_);stroke:#020203;stroke-width:8;stroke-miterlimit:10;}
	.st11{fill:url(#SVGID_00000085214790949801683290000015214707264702134964_);}
	.st12{fill:url(#SVGID_00000101077010088526823430000009660870666343209624_);}
	.st13{fill:url(#SVGID_00000000184850230663596180000014080228258941712818_);stroke:#020203;stroke-width:8;stroke-miterlimit:10;}
	.st14{fill:url(#SVGID_00000058587208646150482940000012929898514731070594_);stroke:#020203;stroke-width:8;stroke-miterlimit:10;}
	.st15{fill:#4D4D4D;stroke:#000000;stroke-miterlimit:10;}
	.st16{opacity:0.5;fill:#949494;}
	.st17{fill:url(#SVGID_00000132774658402563165010000007488735478618764178_);}
	.st18{fill:url(#SVGID_00000146478172078453917070000011652639368986232472_);}
	.st19{fill:url(#SVGID_00000000927524654317248680000013705950273194816645_);stroke:#000000;stroke-width:8;stroke-miterlimit:10;}
	.st20{fill:url(#SVGID_00000002361151483534206660000005596413070072307346_);stroke:#000000;stroke-width:8;stroke-miterlimit:10;}
</style>
<path class="st0" d="M34.81,136.13l183.69,54.74L351.82,71.74c3.26-2.91,8.38-2.02,10.46,1.83l127.97,237.12
	c1.57,2.91,0.81,6.52-1.79,8.55l-157,122.31c0,0-15.74,12.88-32.7,12.88s-34.68-9.91-34.68-9.91l-146.03-36.75
	c-2.23-0.56-4.03-2.22-4.76-4.41l-86.82-258.6C24.73,139.57,29.56,134.57,34.81,136.13z"/>
<path class="st1" d="M500.33,321.78L372.36,84.66c-1.25-2.32-3.62-3.56-6.02-3.54l123.91,229.6c1.57,2.91,0.81,6.52-1.79,8.55
	L331.47,441.59c0,0-15.74,12.88-32.7,12.88c-16.95,0-34.68-9.91-34.68-9.91l-142.67-35.9l1.95,5.8c0.73,2.18,2.53,3.84,4.76,4.41
	l146.03,36.75c0,0,17.72,9.91,34.68,9.91c16.95,0,32.7-12.88,32.7-12.88l156.99-122.32C501.14,328.29,501.9,324.68,500.33,321.78z"
	/>
<path class="st2" d="M51,165.64L130.32,393c49.59,4.17,99.49,19.42,149.61,42.61c13.77-10.41,28.33-12.41,43.6-6.94
	c40.66-44.19,89.92-83.46,145.77-118.98L358.21,100.71l-17.83-6.94c-44.7,37.3-83.51,76.36-113.94,117.91
	c-46.78-24.33-95.69-43.28-147.63-54.5L51,165.64z"/>
<linearGradient id="SVGID_1_" gradientUnits="userSpaceOnUse" x1="78.8" y1="290.615" x2="299.43" y2="290.615">
	<stop  offset="0" style="stop-color:#FFFFFF"/>
	<stop  offset="1" style="stop-color:#C9E5F1"/>
</linearGradient>
<path class="st3" d="M78.8,157.18l78.22,212.88c50.31,6.56,94.27,24.28,142.41,53.99l-72.99-212.37
	C181.61,187.72,132.51,169.4,78.8,157.18z"/>
<linearGradient id="SVGID_00000022547334233361042530000018077001640132478370_" gradientUnits="userSpaceOnUse" x1="226.43" y1="258.905" x2="448.48" y2="258.905">
	<stop  offset="0" style="stop-color:#FFFFFF"/>
	<stop  offset="1" style="stop-color:#C9E5F1"/>
</linearGradient>
<path style="fill:url(#SVGID_00000022547334233361042530000018077001640132478370_);" d="M226.43,211.68
	c31.52-42.26,69.69-81.48,113.94-117.91l108.11,209.71c-44.82,24.16-93.76,67.12-149.07,120.56l-72.22-210.5"/>
<linearGradient id="SVGID_00000026875013121638143480000005342170625749508540_" gradientUnits="userSpaceOnUse" x1="640.4692" y1="264.69" x2="640.4692" y2="481.36" gradientTransform="matrix(-1 0 0 1 710.6542 0)">
	<stop  offset="0" style="stop-color:#BCDAAB"/>
	<stop  offset="1" style="stop-color:#3FAB35"/>
</linearGradient>
<path style="fill:url(#SVGID_00000026875013121638143480000005342170625749508540_);stroke:#020203;stroke-width:8;stroke-miterlimit:10;" d="
	M69.35,481.36h1.67c13.85,0,25.07-11.22,25.07-25.07V289.76c0-13.85-11.22-25.07-25.07-25.07h-1.67
	c-13.85,0-25.07,11.22-25.07,25.07v166.53C44.28,470.14,55.51,481.36,69.35,481.36z"/>
<linearGradient id="SVGID_00000025416581884934536270000018053060164145298816_" gradientUnits="userSpaceOnUse" x1="507.6624" y1="274.0907" x2="507.6624" y2="478.1198" gradientTransform="matrix(-1 0 0 1 710.6542 0)">
	<stop  offset="0" style="stop-color:#BCDAAB"/>
	<stop  offset="1" style="stop-color:#3FAB35"/>
</linearGradient>
<path style="fill:url(#SVGID_00000025416581884934536270000018053060164145298816_);stroke:#020203;stroke-width:8;stroke-miterlimit:10;" d="
	M243.44,278.74l-120.21,80.24c-4.4,2.94-4.85,9.24-0.91,12.77l110.92,99.33c11.23,10.06,28.46,9.24,38.69-1.83l4.37-4.74
	c10.82-11.71,9.5-30.12-2.88-40.16l-61.9-50.24c-4.39-3.56-3.87-10.41,1-13.27l60.2-35.33c13.51-7.93,17.72-25.5,9.28-38.69l0,0
	C273.68,273.8,256.29,270.16,243.44,278.74z"/>
<path class="st0" d="M34.81,648.13l183.69,54.74l133.32-119.14c3.26-2.91,8.38-2.02,10.46,1.83l127.97,237.12
	c1.57,2.91,0.81,6.52-1.79,8.55l-157,122.32c0,0-15.74,12.88-32.7,12.88s-34.68-9.91-34.68-9.91l-146.03-36.75
	c-2.23-0.56-4.03-2.22-4.76-4.41l-86.82-258.6C24.73,651.57,29.56,646.57,34.81,648.13z"/>
<path class="st1" d="M500.33,833.78L372.36,596.66c-1.25-2.32-3.62-3.56-6.02-3.54l123.91,229.6c1.57,2.91,0.81,6.52-1.79,8.55
	L331.47,953.59c0,0-15.74,12.88-32.7,12.88c-16.95,0-34.68-9.91-34.68-9.91l-142.67-35.9l1.95,5.8c0.73,2.18,2.53,3.84,4.76,4.41
	l146.03,36.75c0,0,17.72,9.91,34.68,9.91c16.95,0,32.7-12.88,32.7-12.88l156.99-122.32C501.14,840.29,501.9,836.68,500.33,833.78z"
	/>
<path class="st2" d="M51,677.64L130.32,905c49.59,4.17,99.49,19.42,149.61,42.61c13.77-10.41,28.33-12.41,43.6-6.94
	c40.66-44.19,89.92-83.46,145.77-118.98L358.21,612.71l-17.83-6.94c-44.7,37.3-83.51,76.36-113.94,117.91
	c-46.78-24.33-95.69-43.28-147.63-54.5L51,677.64z"/>
<linearGradient id="SVGID_00000057831872280534639320000010274074695799120057_" gradientUnits="userSpaceOnUse" x1="78.8" y1="802.615" x2="299.43" y2="802.615">
	<stop  offset="0" style="stop-color:#FFFFFF"/>
	<stop  offset="1" style="stop-color:#C9E5F1"/>
</linearGradient>
<path style="fill:url(#SVGID_00000057831872280534639320000010274074695799120057_);" d="M78.8,669.18l78.22,212.88
	c50.31,6.56,94.27,24.28,142.41,53.99l-72.99-212.37C181.61,699.72,132.51,681.4,78.8,669.18z"/>
<linearGradient id="SVGID_00000041283457617863384250000015063818580688963504_" gradientUnits="userSpaceOnUse" x1="226.43" y1="770.905" x2="448.48" y2="770.905">
	<stop  offset="0" style="stop-color:#FFFFFF"/>
	<stop  offset="1" style="stop-color:#C9E5F1"/>
</linearGradient>
<path style="fill:url(#SVGID_00000041283457617863384250000015063818580688963504_);" d="M226.43,723.68
	c31.52-42.26,69.69-81.48,113.94-117.91l108.11,209.71c-44.82,24.16-93.76,67.12-149.07,120.56l-72.22-210.5"/>
<linearGradient id="SVGID_00000111192757541773100970000013495340682065077890_" gradientUnits="userSpaceOnUse" x1="640.4692" y1="776.69" x2="640.4692" y2="993.36" gradientTransform="matrix(-1 0 0 1 710.6542 0)">
	<stop  offset="0" style="stop-color:#FFDD00"/>
	<stop  offset="1" style="stop-color:#F6A71C"/>
</linearGradient>
<path style="fill:url(#SVGID_00000111192757541773100970000013495340682065077890_);stroke:#020203;stroke-width:8;stroke-miterlimit:10;" d="
	M69.35,993.36h1.67c13.85,0,25.07-11.22,25.07-25.07V801.76c0-13.85-11.22-25.07-25.07-25.07h-1.67
	c-13.85,0-25.07,11.22-25.07,25.07v166.53C44.28,982.14,55.51,993.36,69.35,993.36z"/>
<linearGradient id="SVGID_00000121987847747772060040000001512716651362220461_" gradientUnits="userSpaceOnUse" x1="507.6624" y1="786.0907" x2="507.6624" y2="990.1199" gradientTransform="matrix(-1 0 0 1 710.6542 0)">
	<stop  offset="0" style="stop-color:#FFDD00"/>
	<stop  offset="1" style="stop-color:#F6A71C"/>
</linearGradient>
<path style="fill:url(#SVGID_00000121987847747772060040000001512716651362220461_);stroke:#020203;stroke-width:8;stroke-miterlimit:10;" d="
	M243.44,790.74l-120.21,80.24c-4.4,2.94-4.85,9.24-0.91,12.77l110.92,99.33c11.23,10.06,28.46,9.24,38.69-1.83l4.37-4.74
	c10.82-11.71,9.5-30.12-2.88-40.16l-61.9-50.24c-4.39-3.56-3.87-10.41,1-13.27l60.2-35.33c13.51-7.93,17.72-25.5,9.28-38.69l0,0
	C273.68,785.8,256.29,782.16,243.44,790.74z"/>
<path class="st0" d="M34.81,1160.13l183.69,54.74l133.32-119.14c3.26-2.91,8.38-2.02,10.46,1.83l127.97,237.12
	c1.57,2.91,0.81,6.52-1.79,8.55l-156.99,122.32c0,0-15.74,12.88-32.7,12.88s-34.68-9.91-34.68-9.91l-146.03-36.75
	c-2.23-0.56-4.03-2.22-4.76-4.41l-86.82-258.6C24.73,1163.57,29.56,1158.57,34.81,1160.13z"/>
<path class="st1" d="M500.33,1345.78l-127.97-237.12c-1.25-2.32-3.62-3.56-6.02-3.54l123.91,229.6c1.57,2.91,0.81,6.52-1.79,8.55
	l-156.99,122.32c0,0-15.74,12.88-32.7,12.88c-16.95,0-34.68-9.91-34.68-9.91l-142.67-35.9l1.95,5.8c0.73,2.18,2.53,3.84,4.76,4.41
	l146.03,36.75c0,0,17.72,9.91,34.68,9.91c16.95,0,32.7-12.88,32.7-12.88l156.99-122.32C501.14,1352.29,501.9,1348.68,500.33,1345.78
	z"/>
<path class="st2" d="M51,1189.64L130.32,1417c49.59,4.17,99.49,19.42,149.61,42.61c13.77-10.41,28.33-12.41,43.6-6.94
	c40.66-44.19,89.92-83.46,145.77-118.98L358.21,1124.7l-17.83-6.94c-44.7,37.3-83.51,76.36-113.94,117.91
	c-46.78-24.33-95.69-43.28-147.63-54.5L51,1189.64z"/>
<linearGradient id="SVGID_00000159448536897370921360000016868829816610667947_" gradientUnits="userSpaceOnUse" x1="78.8" y1="1314.615" x2="299.43" y2="1314.615">
	<stop  offset="0" style="stop-color:#FFFFFF"/>
	<stop  offset="1" style="stop-color:#C9E5F1"/>
</linearGradient>
<path style="fill:url(#SVGID_00000159448536897370921360000016868829816610667947_);" d="M78.8,1181.18l78.22,212.88
	c50.31,6.56,94.27,24.28,142.41,53.99l-72.99-212.37C181.61,1211.72,132.51,1193.4,78.8,1181.18z"/>
<linearGradient id="SVGID_00000016787433287159133250000015973662688557200813_" gradientUnits="userSpaceOnUse" x1="226.43" y1="1282.905" x2="448.48" y2="1282.905">
	<stop  offset="0" style="stop-color:#FFFFFF"/>
	<stop  offset="1" style="stop-color:#C9E5F1"/>
</linearGradient>
<path style="fill:url(#SVGID_00000016787433287159133250000015973662688557200813_);" d="M226.43,1235.68
	c31.52-42.26,69.69-81.48,113.94-117.91l108.11,209.71c-44.82,24.16-93.76,67.12-149.07,120.56l-72.22-210.5"/>
<linearGradient id="SVGID_00000075884195038909806100000000770141267386574249_" gradientUnits="userSpaceOnUse" x1="640.4692" y1="1288.6901" x2="640.4692" y2="1505.36" gradientTransform="matrix(-1 0 0 1 710.6542 0)">
	<stop  offset="0" style="stop-color:#ADD2EF"/>
	<stop  offset="1" style="stop-color:#3AB2E7"/>
</linearGradient>
<path style="fill:url(#SVGID_00000075884195038909806100000000770141267386574249_);stroke:#020203;stroke-width:8;stroke-miterlimit:10;" d="
	M69.35,1505.36h1.67c13.85,0,25.07-11.22,25.07-25.07v-166.53c0-13.85-11.22-25.07-25.07-25.07h-1.67
	c-13.85,0-25.07,11.22-25.07,25.07v166.53C44.28,1494.14,55.51,1505.36,69.35,1505.36z"/>
<linearGradient id="SVGID_00000122681497928568426180000000212666314545763252_" gradientUnits="userSpaceOnUse" x1="507.6624" y1="1298.0908" x2="507.6624" y2="1502.1199" gradientTransform="matrix(-1 0 0 1 710.6542 0)">
	<stop  offset="0" style="stop-color:#ADD2EF"/>
	<stop  offset="1" style="stop-color:#3AB2E7"/>
</linearGradient>
<path style="fill:url(#SVGID_00000122681497928568426180000000212666314545763252_);stroke:#020203;stroke-width:8;stroke-miterlimit:10;" d="
	M243.44,1302.74l-120.21,80.24c-4.4,2.94-4.85,9.24-0.91,12.77l110.92,99.33c11.23,10.06,28.46,9.24,38.69-1.83l4.37-4.74
	c10.82-11.71,9.5-30.12-2.88-40.16l-61.9-50.24c-4.39-3.56-3.87-10.41,1-13.27l60.2-35.33c13.51-7.93,17.72-25.5,9.28-38.69l0,0
	C273.68,1297.8,256.29,1294.16,243.44,1302.74z"/>
<path class="st15" d="M34.81,1672.13l183.69,54.74l133.32-119.14c3.26-2.91,8.38-2.02,10.46,1.83l127.97,237.12
	c1.57,2.91,0.81,6.52-1.79,8.55l-156.99,122.32c0,0-15.74,12.88-32.7,12.88s-34.68-9.91-34.68-9.91l-146.03-36.75
	c-2.23-0.56-4.03-2.22-4.76-4.41l-86.82-258.6C24.73,1675.57,29.56,1670.57,34.81,1672.13z"/>
<path class="st16" d="M500.33,1857.78l-127.97-237.12c-1.25-2.32-3.62-3.56-6.02-3.54l123.91,229.6c1.57,2.91,0.81,6.52-1.79,8.55
	l-156.99,122.32c0,0-15.74,12.88-32.7,12.88c-16.95,0-34.68-9.91-34.68-9.91l-142.67-35.9l1.95,5.8c0.73,2.18,2.53,3.84,4.76,4.41
	l146.03,36.75c0,0,17.72,9.91,34.68,9.91c16.95,0,32.7-12.88,32.7-12.88l156.99-122.32C501.14,1864.29,501.9,1860.68,500.33,1857.78
	z"/>
<path class="st2" d="M51,1701.64L130.32,1929c49.59,4.17,99.49,19.42,149.61,42.61c13.77-10.41,28.33-12.41,43.6-6.94
	c40.66-44.19,89.92-83.46,145.77-118.98L358.21,1636.7l-17.83-6.94c-44.7,37.3-83.51,76.36-113.94,117.91
	c-46.78-24.33-95.69-43.28-147.63-54.5L51,1701.64z"/>
<linearGradient id="SVGID_00000034063658561146786780000015720202369983202699_" gradientUnits="userSpaceOnUse" x1="78.8" y1="1826.615" x2="299.43" y2="1826.615">
	<stop  offset="0" style="stop-color:#FFFFFF"/>
	<stop  offset="1" style="stop-color:#E7E7E7"/>
</linearGradient>
<path style="fill:url(#SVGID_00000034063658561146786780000015720202369983202699_);" d="M78.8,1693.18l78.22,212.88
	c50.31,6.56,94.27,24.28,142.41,53.99l-72.99-212.37C181.61,1723.72,132.51,1705.4,78.8,1693.18z"/>
<linearGradient id="SVGID_00000098197943085814214430000007306369947812441769_" gradientUnits="userSpaceOnUse" x1="226.43" y1="1794.905" x2="448.48" y2="1794.905">
	<stop  offset="0" style="stop-color:#FFFFFF"/>
	<stop  offset="1" style="stop-color:#E7E7E7"/>
</linearGradient>
<path style="fill:url(#SVGID_00000098197943085814214430000007306369947812441769_);" d="M226.43,1747.68
	c31.52-42.26,69.69-81.48,113.94-117.91l108.11,209.71c-44.82,24.16-93.76,67.12-149.07,120.56l-72.22-210.5"/>
<linearGradient id="SVGID_00000011725683922248645220000007541025496230636960_" gradientUnits="userSpaceOnUse" x1="640.4692" y1="1800.6901" x2="640.4692" y2="2017.36" gradientTransform="matrix(-1 0 0 1 710.6542 0)">
	<stop  offset="0" style="stop-color:#DADADA"/>
	<stop  offset="1" style="stop-color:#AAAAAA"/>
</linearGradient>
<path style="fill:url(#SVGID_00000011725683922248645220000007541025496230636960_);stroke:#000000;stroke-width:8;stroke-miterlimit:10;" d="
	M69.35,2017.36h1.67c13.85,0,25.07-11.22,25.07-25.07v-166.53c0-13.85-11.22-25.07-25.07-25.07h-1.67
	c-13.85,0-25.07,11.22-25.07,25.07v166.53C44.28,2006.14,55.51,2017.36,69.35,2017.36z"/>
<linearGradient id="SVGID_00000113338402832550373000000002330773531869854629_" gradientUnits="userSpaceOnUse" x1="507.0641" y1="1810.0902" x2="507.0641" y2="2014.1199" gradientTransform="matrix(-1 0 0 1 710.6542 0)">
	<stop  offset="0" style="stop-color:#DADADA"/>
	<stop  offset="1" style="stop-color:#AAAAAA"/>
</linearGradient>
<path style="fill:url(#SVGID_00000113338402832550373000000002330773531869854629_);stroke:#000000;stroke-width:8;stroke-miterlimit:10;" d="
	M243.44,1814.74l-118.19,78.9c-5.42,3.62-5.97,11.38-1.12,15.73l109.12,97.71c11.23,10.06,28.46,9.24,38.69-1.83l4.37-4.74
	c10.82-11.71,9.5-30.12-2.88-40.16l-59.8-48.54c-5.41-4.39-4.77-12.82,1.24-16.35l57.86-33.96c13.51-7.93,17.72-25.5,9.28-38.69l0,0
	C273.68,1809.8,256.29,1806.16,243.44,1814.74z"/>
</svg>
