<?xml version="1.0" encoding="utf-8"?>
<!-- Generator: Adobe Illustrator 27.0.1, SVG Export Plug-In . SVG Version: 6.00 Build 0)  -->
<svg version="1.1" id="Calque_1" xmlns="http://www.w3.org/2000/svg" xmlns:xlink="http://www.w3.org/1999/xlink" x="0px" y="0px"
	 viewBox="0 0 512 2048" style="enable-background:new 0 0 512 2048;" xml:space="preserve">
<style type="text/css">
	.st0{opacity:0.5;fill:none;stroke:#949494;stroke-width:8;stroke-miterlimit:10;}
	.st1{fill:url(#SVGID_1_);}
	.st2{fill:url(#SVGID_00000044166477849298299120000006635059096763306665_);}
	.st3{fill:none;stroke:#000000;stroke-miterlimit:10;}
	.st4{fill:none;stroke:#636363;stroke-width:8;stroke-miterlimit:10;}
	.st5{fill:url(#SVGID_00000005954173719225256710000003143185881189687432_);stroke:#636363;stroke-width:8;stroke-miterlimit:10;}
	.st6{fill:url(#SVGID_00000124125926407775393290000018386951751826311595_);stroke:#787878;stroke-width:4;stroke-miterlimit:10;}
	.st7{fill:url(#SVGID_00000165924018382911826750000017723536246975298971_);stroke:#636363;stroke-width:8;stroke-miterlimit:10;}
	.st8{opacity:0.5;fill:none;stroke:#A0A09F;stroke-width:8;stroke-miterlimit:10;}
	.st9{fill:url(#SVGID_00000140715939360205995800000011652034333641103753_);}
	.st10{fill:url(#SVGID_00000123432038286799098180000004397640814867096477_);}
	.st11{fill:none;stroke:#82827F;stroke-width:8;stroke-miterlimit:10;}
	.st12{fill:url(#SVGID_00000090275612944341684390000004078683115643998655_);stroke:#82827F;stroke-width:8;stroke-miterlimit:10;}
	.st13{fill:url(#SVGID_00000065795821850781283900000003429854551865268134_);stroke:#448A4F;stroke-width:4;stroke-miterlimit:10;}
	.st14{fill:url(#SVGID_00000076575285678627295690000017248825156743751828_);stroke:#82827F;stroke-width:8;stroke-miterlimit:10;}
	.st15{fill:url(#SVGID_00000033369117040659238130000018427681647345037440_);}
	.st16{fill:url(#SVGID_00000143602508642432340450000001126586853446273711_);}
	.st17{fill:url(#SVGID_00000011011355806742080900000016058847215728220051_);stroke:#82827F;stroke-width:8;stroke-miterlimit:10;}
	.st18{fill:url(#SVGID_00000045590640052515922080000010859120089469266835_);stroke:#448A4F;stroke-width:4;stroke-miterlimit:10;}
	.st19{fill:url(#SVGID_00000108996943422944880420000014098402421361902476_);stroke:#82827F;stroke-width:8;stroke-miterlimit:10;}
	.st20{fill:url(#SVGID_00000071533261743529585260000014440499680332194742_);}
	.st21{fill:url(#SVGID_00000160175522625277131810000018181899669435489690_);}
	.st22{fill:url(#SVGID_00000047034929568872655210000005671461826197106324_);stroke:#82827F;stroke-width:8;stroke-miterlimit:10;}
	.st23{fill:url(#SVGID_00000085244351498599018790000005665685107669656999_);stroke:#82827F;stroke-width:8;stroke-miterlimit:10;}
	.st24{fill:url(#SVGID_00000085951153994409635300000004204357546915591078_);stroke:#448A4F;stroke-width:4;stroke-miterlimit:10;}
	.st25{fill:url(#SVGID_00000082342005878651248590000014273129357971982729_);stroke:#82827F;stroke-width:8;stroke-miterlimit:10;}
	.st26{fill:url(#SVGID_00000010992534997196124610000014411141174376417961_);stroke:#030304;stroke-width:8;stroke-miterlimit:10;}
	.st27{fill:url(#SVGID_00000005244669314099307470000009115814044553012921_);stroke:#030304;stroke-width:8;stroke-miterlimit:10;}
	.st28{fill:url(#SVGID_00000154383614067138280990000000240719947479641743_);stroke:#030304;stroke-width:8;stroke-miterlimit:10;}
	.st29{fill:url(#SVGID_00000163063239361405353810000007978940320082516148_);stroke:#030304;stroke-width:8;stroke-miterlimit:10;}
	.st30{fill:url(#SVGID_00000127008027096117973180000009491551136073542546_);stroke:#030304;stroke-width:8;stroke-miterlimit:10;}
	.st31{fill:url(#SVGID_00000040550734481626859890000006401649609223027640_);stroke:#030304;stroke-width:8;stroke-miterlimit:10;}
	.st32{fill:url(#SVGID_00000003794268838878898970000009657748501761491104_);stroke:#020203;stroke-width:8;stroke-miterlimit:10;}
	.st33{fill:url(#SVGID_00000091012921200736509600000004635406674022020277_);stroke:#020203;stroke-width:8;stroke-miterlimit:10;}
</style>
<polyline class="st0" points="26.63,1895.96 262.64,2008.01 490.41,1907.54 "/>
<linearGradient id="SVGID_1_" gradientUnits="userSpaceOnUse" x1="257.6929" y1="1733.285" x2="257.6929" y2="1907.5385">
	<stop  offset="0" style="stop-color:#949494"/>
	<stop  offset="1" style="stop-color:#EBEBEB"/>
</linearGradient>
<polygon class="st1" points="28.04,1807.87 246.78,1733.29 487.34,1818.36 262.64,1907.54 "/>
<linearGradient id="SVGID_00000070796602542268360660000011594058324316483213_" gradientUnits="userSpaceOnUse" x1="144.2103" y1="1807.2667" x2="144.2103" y2="2000.808">
	<stop  offset="0" style="stop-color:#949494"/>
	<stop  offset="1" style="stop-color:#EBEBEB"/>
</linearGradient>
<polygon style="fill:url(#SVGID_00000070796602542268360660000011594058324316483213_);" points="26.63,1807.27 261.79,1907.1 
	261.79,2000.81 26.63,1890.5 "/>
<path class="st3" d="M366.71,1991.99"/>
<polygon class="st4" points="26.63,1890.5 26.63,1807.27 245.94,1736.59 487.34,1818.36 484.39,1898.42 261.79,2000.81 "/>
<linearGradient id="SVGID_00000059278294036190339070000003361917729893956999_" gradientUnits="userSpaceOnUse" x1="262.6376" y1="1909.6842" x2="487.344" y2="1909.6842">
	<stop  offset="0" style="stop-color:#999999"/>
	<stop  offset="1" style="stop-color:#6A6A6A"/>
</linearGradient>
<path style="fill:url(#SVGID_00000059278294036190339070000003361917729893956999_);stroke:#636363;stroke-width:8;stroke-miterlimit:10;" d="
	M262.64,1997.51c0-1.98,0-89.97,0-89.97l224.71-85.68l-2.95,82.37L262.64,1997.51z"/>
<polyline class="st4" points="219.23,1982.7 219.24,1889.54 448.37,1806.51 "/>
<linearGradient id="SVGID_00000000938743964130848450000017991260879448882082_" gradientUnits="userSpaceOnUse" x1="281.935" y1="1907.5385" x2="460.9442" y2="1907.5385">
	<stop  offset="0" style="stop-color:#A5A5A5"/>
	<stop  offset="1" style="stop-color:#D9D9D9"/>
</linearGradient>
<polygon style="fill:url(#SVGID_00000000938743964130848450000017991260879448882082_);stroke:#787878;stroke-width:4;stroke-miterlimit:10;" points="
	281.94,1926.69 460.94,1857.34 460.2,1883.12 281.94,1957.74 "/>
<linearGradient id="SVGID_00000152243842267969552050000010389575449522749824_" gradientUnits="userSpaceOnUse" x1="176.7604" y1="1831.9814" x2="409.095" y2="1831.9814">
	<stop  offset="0" style="stop-color:#EFEFEF"/>
	<stop  offset="1" style="stop-color:#C5C5C5"/>
</linearGradient>
<polygon style="fill:url(#SVGID_00000152243842267969552050000010389575449522749824_);stroke:#636363;stroke-width:8;stroke-miterlimit:10;" points="
	176.76,1840.31 320.56,1789.75 409.1,1819.53 261.79,1874.21 "/>
<polyline class="st8" points="26.63,1384.96 262.64,1497.01 490.41,1396.54 "/>
<linearGradient id="SVGID_00000009586227307668444400000016803656927532916354_" gradientUnits="userSpaceOnUse" x1="257.6929" y1="1222.285" x2="257.6929" y2="1396.5385">
	<stop  offset="0" style="stop-color:#8F8FBC"/>
	<stop  offset="1" style="stop-color:#EAEAE7"/>
</linearGradient>
<polygon style="fill:url(#SVGID_00000009586227307668444400000016803656927532916354_);" points="28.04,1296.87 246.78,1222.29 
	487.34,1307.36 262.64,1396.54 "/>
<linearGradient id="SVGID_00000029747632584800535600000018335110311005942152_" gradientUnits="userSpaceOnUse" x1="144.2103" y1="1296.2667" x2="144.2103" y2="1489.808">
	<stop  offset="0" style="stop-color:#8F8FBC"/>
	<stop  offset="1" style="stop-color:#EAEAE7"/>
</linearGradient>
<polygon style="fill:url(#SVGID_00000029747632584800535600000018335110311005942152_);" points="26.63,1296.27 261.79,1396.1 
	261.79,1489.81 26.63,1379.5 "/>
<path class="st3" d="M366.71,1480.99"/>
<polygon class="st11" points="26.63,1379.5 26.63,1296.27 245.94,1225.59 487.34,1307.36 484.39,1387.42 261.79,1489.81 "/>
<linearGradient id="SVGID_00000004545598643797448420000006360491913284732321_" gradientUnits="userSpaceOnUse" x1="262.6376" y1="1398.6842" x2="487.344" y2="1398.6842">
	<stop  offset="0" style="stop-color:#A4A4A1"/>
	<stop  offset="1" style="stop-color:#7E7E8F"/>
</linearGradient>
<path style="fill:url(#SVGID_00000004545598643797448420000006360491913284732321_);stroke:#82827F;stroke-width:8;stroke-miterlimit:10;" d="
	M262.64,1486.51c0-1.98,0-89.97,0-89.97l224.71-85.68l-2.95,82.37L262.64,1486.51z"/>
<polyline class="st11" points="219.23,1471.7 219.24,1378.54 448.37,1295.51 "/>
<linearGradient id="SVGID_00000070114116732737753110000006443416363192323974_" gradientUnits="userSpaceOnUse" x1="281.935" y1="1396.5385" x2="460.9442" y2="1396.5385">
	<stop  offset="0" style="stop-color:#51A656"/>
	<stop  offset="1" style="stop-color:#C4D9BE"/>
</linearGradient>
<polygon style="fill:url(#SVGID_00000070114116732737753110000006443416363192323974_);stroke:#448A4F;stroke-width:4;stroke-miterlimit:10;" points="
	281.94,1415.69 460.94,1346.34 460.2,1372.12 281.94,1446.74 "/>
<linearGradient id="SVGID_00000028323808037458888850000003834700622974645407_" gradientUnits="userSpaceOnUse" x1="176.7604" y1="1320.9814" x2="409.095" y2="1320.9814">
	<stop  offset="0" style="stop-color:#DFEEF3"/>
	<stop  offset="1" style="stop-color:#77BFD5"/>
</linearGradient>
<polygon style="fill:url(#SVGID_00000028323808037458888850000003834700622974645407_);stroke:#82827F;stroke-width:8;stroke-miterlimit:10;" points="
	176.76,1329.31 320.56,1278.75 409.1,1308.53 261.79,1363.21 "/>
<polyline class="st8" points="26.63,872.63 262.64,984.68 490.41,884.21 "/>
<linearGradient id="SVGID_00000044168502658206948720000008261550109853096584_" gradientUnits="userSpaceOnUse" x1="257.6929" y1="709.9542" x2="257.6929" y2="884.2076">
	<stop  offset="0" style="stop-color:#8F8FBC"/>
	<stop  offset="1" style="stop-color:#EAEAE7"/>
</linearGradient>
<polygon style="fill:url(#SVGID_00000044168502658206948720000008261550109853096584_);" points="28.04,784.53 246.78,709.95 
	487.34,795.03 262.64,884.21 "/>
<linearGradient id="SVGID_00000129178507921421632840000012961991050885835939_" gradientUnits="userSpaceOnUse" x1="144.2103" y1="783.9358" x2="144.2103" y2="977.4771">
	<stop  offset="0" style="stop-color:#8F8FBC"/>
	<stop  offset="1" style="stop-color:#EAEAE7"/>
</linearGradient>
<polygon style="fill:url(#SVGID_00000129178507921421632840000012961991050885835939_);" points="26.63,783.94 261.79,883.77 
	261.79,977.48 26.63,867.17 "/>
<path class="st3" d="M366.71,968.65"/>
<polygon class="st11" points="26.63,867.17 26.63,783.94 245.94,713.26 487.34,795.03 484.39,875.09 261.79,977.48 "/>
<linearGradient id="SVGID_00000099650615190005017360000015205099799301758363_" gradientUnits="userSpaceOnUse" x1="262.6376" y1="886.3533" x2="487.344" y2="886.3533">
	<stop  offset="0" style="stop-color:#A4A4A1"/>
	<stop  offset="1" style="stop-color:#7E7E8F"/>
</linearGradient>
<path style="fill:url(#SVGID_00000099650615190005017360000015205099799301758363_);stroke:#82827F;stroke-width:8;stroke-miterlimit:10;" d="
	M262.64,974.17c0-1.98,0-89.97,0-89.97l224.71-85.68l-2.95,82.37L262.64,974.17z"/>
<polyline class="st11" points="219.23,959.37 219.24,866.21 448.37,783.17 "/>
<linearGradient id="SVGID_00000152943884894186905500000009631003160437625497_" gradientUnits="userSpaceOnUse" x1="281.935" y1="884.2076" x2="460.9442" y2="884.2076">
	<stop  offset="0" style="stop-color:#51A656"/>
	<stop  offset="1" style="stop-color:#C4D9BE"/>
</linearGradient>
<polygon style="fill:url(#SVGID_00000152943884894186905500000009631003160437625497_);stroke:#448A4F;stroke-width:4;stroke-miterlimit:10;" points="
	281.94,903.36 460.94,834.01 460.2,859.78 281.94,934.41 "/>
<linearGradient id="SVGID_00000022537694477751473360000007919374912055486100_" gradientUnits="userSpaceOnUse" x1="176.7604" y1="808.6506" x2="409.095" y2="808.6506">
	<stop  offset="0" style="stop-color:#DFEEF3"/>
	<stop  offset="1" style="stop-color:#77BFD5"/>
</linearGradient>
<polygon style="fill:url(#SVGID_00000022537694477751473360000007919374912055486100_);stroke:#82827F;stroke-width:8;stroke-miterlimit:10;" points="
	176.76,816.98 320.56,766.42 409.1,796.2 261.79,850.88 "/>
<polyline class="st8" points="26.63,360.96 262.64,473.01 490.41,372.54 "/>
<linearGradient id="SVGID_00000001622602429352950710000017991005679067638920_" gradientUnits="userSpaceOnUse" x1="257.6929" y1="198.285" x2="257.6929" y2="372.5384">
	<stop  offset="0" style="stop-color:#8F8FBC"/>
	<stop  offset="1" style="stop-color:#EAEAE7"/>
</linearGradient>
<polygon style="fill:url(#SVGID_00000001622602429352950710000017991005679067638920_);" points="28.04,272.87 246.78,198.29 
	487.34,283.36 262.64,372.54 "/>
<linearGradient id="SVGID_00000117665114897201403450000016463626575980483230_" gradientUnits="userSpaceOnUse" x1="144.2103" y1="272.2667" x2="144.2103" y2="465.808">
	<stop  offset="0" style="stop-color:#8F8FBC"/>
	<stop  offset="1" style="stop-color:#EAEAE7"/>
</linearGradient>
<polygon style="fill:url(#SVGID_00000117665114897201403450000016463626575980483230_);" points="26.63,272.27 261.79,372.1 
	261.79,465.81 26.63,355.5 "/>
<path class="st3" d="M366.71,456.99"/>
<polygon class="st11" points="26.63,355.5 26.63,272.27 245.94,201.59 487.34,283.36 484.39,363.42 261.79,465.81 "/>
<linearGradient id="SVGID_00000093895750953371330920000011603922239734421897_" gradientUnits="userSpaceOnUse" x1="262.6376" y1="374.6842" x2="487.344" y2="374.6842">
	<stop  offset="0" style="stop-color:#A4A4A1"/>
	<stop  offset="1" style="stop-color:#7E7E8F"/>
</linearGradient>
<path style="fill:url(#SVGID_00000093895750953371330920000011603922239734421897_);stroke:#82827F;stroke-width:8;stroke-miterlimit:10;" d="
	M262.64,462.51c0-1.98,0-89.97,0-89.97l224.71-85.68l-2.95,82.37L262.64,462.51z"/>
<polyline class="st11" points="219.23,447.7 219.24,354.54 448.37,271.51 "/>
<linearGradient id="SVGID_00000049940895549870828040000018133848516051138221_" gradientUnits="userSpaceOnUse" x1="256" y1="-37.0183" x2="256" y2="-37.0183">
	<stop  offset="0" style="stop-color:#A4A4A1"/>
	<stop  offset="1" style="stop-color:#7E7E8F"/>
</linearGradient>
<path style="fill:url(#SVGID_00000049940895549870828040000018133848516051138221_);stroke:#82827F;stroke-width:8;stroke-miterlimit:10;" d="
	M256-37.02"/>
<linearGradient id="SVGID_00000145740963681133515130000013286913493518262968_" gradientUnits="userSpaceOnUse" x1="281.935" y1="372.5384" x2="460.9442" y2="372.5384">
	<stop  offset="0" style="stop-color:#51A656"/>
	<stop  offset="1" style="stop-color:#C4D9BE"/>
</linearGradient>
<polygon style="fill:url(#SVGID_00000145740963681133515130000013286913493518262968_);stroke:#448A4F;stroke-width:4;stroke-miterlimit:10;" points="
	281.94,391.69 460.94,322.34 460.2,348.12 281.94,422.74 "/>
<linearGradient id="SVGID_00000124159838040422140070000010140789107858511272_" gradientUnits="userSpaceOnUse" x1="176.7604" y1="296.9814" x2="409.095" y2="296.9814">
	<stop  offset="0" style="stop-color:#DFEEF3"/>
	<stop  offset="1" style="stop-color:#77BFD5"/>
</linearGradient>
<polygon style="fill:url(#SVGID_00000124159838040422140070000010140789107858511272_);stroke:#82827F;stroke-width:8;stroke-miterlimit:10;" points="
	176.76,305.31 320.56,254.75 409.1,284.53 261.79,339.21 "/>
<linearGradient id="SVGID_00000120561300301797297470000012750616155441321652_" gradientUnits="userSpaceOnUse" x1="550.0996" y1="2011.6699" x2="550.0996" y2="1795" gradientTransform="matrix(-1 0 0 -1 712.6542 2050)">
	<stop  offset="0" style="stop-color:#BCDAAC"/>
	<stop  offset="1" style="stop-color:#44AC37"/>
</linearGradient>
<path style="fill:url(#SVGID_00000120561300301797297470000012750616155441321652_);stroke:#030304;stroke-width:8;stroke-miterlimit:10;" d="
	M161.72,255h1.67c13.85,0,25.07-11.22,25.07-25.07V63.4c0-13.85-11.22-25.07-25.07-25.07h-1.67c-13.85,0-25.07,11.22-25.07,25.07
	v166.53C136.65,243.78,147.88,255,161.72,255z"/>
<linearGradient id="SVGID_00000181061142815092018830000004453645541866541718_" gradientUnits="userSpaceOnUse" x1="417.2929" y1="2002.2693" x2="417.2929" y2="1798.2401" gradientTransform="matrix(-1 0 0 -1 712.6542 2050)">
	<stop  offset="0" style="stop-color:#BCDAAC"/>
	<stop  offset="1" style="stop-color:#44AC37"/>
</linearGradient>
<path style="fill:url(#SVGID_00000181061142815092018830000004453645541866541718_);stroke:#030304;stroke-width:8;stroke-miterlimit:10;" d="
	M335.81,52.38L215.6,132.62c-4.4,2.94-4.85,9.24-0.91,12.77l110.92,99.33c11.23,10.06,28.46,9.24,38.69-1.83l4.37-4.74
	c10.82-11.71,9.5-30.12-2.88-40.16l-61.9-50.24c-4.39-3.56-3.87-10.41,1-13.27l60.2-35.33c13.51-7.93,17.72-25.5,9.28-38.69l0,0
	C366.05,47.44,348.66,43.8,335.81,52.38z"/>
<linearGradient id="SVGID_00000152252373933732651560000015437846378929159569_" gradientUnits="userSpaceOnUse" x1="550.0996" y1="1499.6699" x2="550.0996" y2="1283" gradientTransform="matrix(-1 0 0 -1 712.6542 2050)">
	<stop  offset="0" style="stop-color:#FFDD08"/>
	<stop  offset="1" style="stop-color:#F7A81E"/>
</linearGradient>
<path style="fill:url(#SVGID_00000152252373933732651560000015437846378929159569_);stroke:#030304;stroke-width:8;stroke-miterlimit:10;" d="
	M161.72,767h1.67c13.85,0,25.07-11.22,25.07-25.07V575.4c0-13.85-11.22-25.07-25.07-25.07h-1.67c-13.85,0-25.07,11.22-25.07,25.07
	v166.53C136.65,755.78,147.88,767,161.72,767z"/>
<linearGradient id="SVGID_00000034081538719261805440000009747524244482655919_" gradientUnits="userSpaceOnUse" x1="417.2929" y1="1490.2693" x2="417.2929" y2="1286.2401" gradientTransform="matrix(-1 0 0 -1 712.6542 2050)">
	<stop  offset="0" style="stop-color:#FFDD08"/>
	<stop  offset="1" style="stop-color:#F7A81E"/>
</linearGradient>
<path style="fill:url(#SVGID_00000034081538719261805440000009747524244482655919_);stroke:#030304;stroke-width:8;stroke-miterlimit:10;" d="
	M335.81,564.38L215.6,644.62c-4.4,2.94-4.85,9.24-0.91,12.77l110.92,99.33c11.23,10.06,28.46,9.24,38.69-1.83l4.37-4.74
	c10.82-11.71,9.5-30.12-2.88-40.16l-61.9-50.24c-4.39-3.56-3.87-10.41,1-13.27l60.2-35.33c13.51-7.93,17.72-25.5,9.28-38.69l0,0
	C366.05,559.44,348.66,555.8,335.81,564.38z"/>
<linearGradient id="SVGID_00000152226050092164402410000002075436628961208724_" gradientUnits="userSpaceOnUse" x1="550.0996" y1="987.6699" x2="550.0996" y2="771" gradientTransform="matrix(-1 0 0 -1 712.6542 2050)">
	<stop  offset="0" style="stop-color:#AED2EE"/>
	<stop  offset="1" style="stop-color:#3CB2E6"/>
</linearGradient>
<path style="fill:url(#SVGID_00000152226050092164402410000002075436628961208724_);stroke:#030304;stroke-width:8;stroke-miterlimit:10;" d="
	M161.72,1279h1.67c13.85,0,25.07-11.22,25.07-25.07V1087.4c0-13.85-11.22-25.07-25.07-25.07h-1.67c-13.85,0-25.07,11.22-25.07,25.07
	v166.53C136.65,1267.78,147.88,1279,161.72,1279z"/>
<linearGradient id="SVGID_00000136392392743145175500000014709009071745645223_" gradientUnits="userSpaceOnUse" x1="417.2929" y1="978.2692" x2="417.2929" y2="774.2401" gradientTransform="matrix(-1 0 0 -1 712.6542 2050)">
	<stop  offset="0" style="stop-color:#AED2EE"/>
	<stop  offset="1" style="stop-color:#3CB2E6"/>
</linearGradient>
<path style="fill:url(#SVGID_00000136392392743145175500000014709009071745645223_);stroke:#030304;stroke-width:8;stroke-miterlimit:10;" d="
	M335.81,1076.38l-120.21,80.24c-4.4,2.94-4.85,9.24-0.91,12.77l110.92,99.33c11.23,10.06,28.46,9.24,38.69-1.83l4.37-4.74
	c10.82-11.71,9.5-30.12-2.88-40.16l-61.9-50.24c-4.39-3.56-3.87-10.41,1-13.27l60.2-35.33c13.51-7.93,17.72-25.5,9.28-38.69l0,0
	C366.05,1071.44,348.66,1067.8,335.81,1076.38z"/>
<linearGradient id="SVGID_00000174587910428378762290000006265597380633915816_" gradientUnits="userSpaceOnUse" x1="550.0996" y1="475.6699" x2="550.0996" y2="259" gradientTransform="matrix(-1 0 0 -1 712.6542 2050)">
	<stop  offset="0" style="stop-color:#DADADA"/>
	<stop  offset="1" style="stop-color:#A9A9AA"/>
</linearGradient>
<path style="fill:url(#SVGID_00000174587910428378762290000006265597380633915816_);stroke:#020203;stroke-width:8;stroke-miterlimit:10;" d="
	M161.72,1791h1.67c13.85,0,25.07-11.22,25.07-25.07V1599.4c0-13.85-11.22-25.07-25.07-25.07h-1.67c-13.85,0-25.07,11.22-25.07,25.07
	v166.53C136.65,1779.78,147.88,1791,161.72,1791z"/>
<linearGradient id="SVGID_00000121241612844935339520000011979394742644470925_" gradientUnits="userSpaceOnUse" x1="416.6946" y1="466.2697" x2="416.6946" y2="262.2401" gradientTransform="matrix(-1 0 0 -1 712.6542 2050)">
	<stop  offset="0" style="stop-color:#DADADA"/>
	<stop  offset="1" style="stop-color:#A9A9AA"/>
</linearGradient>
<path style="fill:url(#SVGID_00000121241612844935339520000011979394742644470925_);stroke:#020203;stroke-width:8;stroke-miterlimit:10;" d="
	M335.81,1588.38l-118.19,78.9c-5.42,3.62-5.97,11.38-1.12,15.73l109.12,97.71c11.23,10.06,28.46,9.24,38.69-1.83l4.37-4.74
	c10.82-11.71,9.5-30.12-2.88-40.16l-59.8-48.54c-5.41-4.39-4.77-12.82,1.24-16.35l57.86-33.96c13.51-7.93,17.72-25.5,9.28-38.69l0,0
	C366.05,1583.44,348.66,1579.8,335.81,1588.38z"/>
</svg>
