<?xml version="1.0" encoding="utf-8"?>
<!-- Generator: Adobe Illustrator 27.0.1, SVG Export Plug-In . SVG Version: 6.00 Build 0)  -->
<svg version="1.1" id="Calque_1" xmlns="http://www.w3.org/2000/svg" xmlns:xlink="http://www.w3.org/1999/xlink" x="0px" y="0px"
	 viewBox="0 0 512 2048" style="enable-background:new 0 0 512 2048;" xml:space="preserve">
<style type="text/css">
	.st0{fill:#B47634;stroke:#000000;stroke-miterlimit:10;}
	.st1{opacity:0.5;fill:#A0A09F;enable-background:new    ;}
	.st2{fill:#FFFFFF;}
	.st3{fill:url(#SVGID_1_);}
	.st4{fill:url(#SVGID_00000082339703802730974110000002269019980219463307_);}
	.st5{fill:url(#SVGID_00000136412092822722264940000008991435940079384747_);stroke:#020203;stroke-width:8;stroke-miterlimit:10;}
	.st6{fill:url(#SVGID_00000181803258615000107430000006828680136058582448_);stroke:#020203;stroke-width:8;stroke-miterlimit:10;}
	.st7{fill:url(#SVGID_00000092416369818752741090000012894013150579050662_);}
	.st8{fill:url(#SVGID_00000096756213409571178090000005047503280605830031_);}
	.st9{fill:url(#SVGID_00000121253744469547424470000007744693689986128262_);stroke:#020203;stroke-width:8;stroke-miterlimit:10;}
	.st10{fill:url(#SVGID_00000045583189024888915060000005034721466030442668_);stroke:#020203;stroke-width:8;stroke-miterlimit:10;}
	.st11{fill:url(#SVGID_00000150795080768708778920000015763955553633703856_);}
	.st12{fill:url(#SVGID_00000181802595063584687640000003281567970890560409_);}
	.st13{fill:url(#SVGID_00000111169962749921588110000001696727035045003193_);stroke:#020203;stroke-width:8;stroke-miterlimit:10;}
	.st14{fill:url(#SVGID_00000017495095701303124460000011346565075265921411_);stroke:#020203;stroke-width:8;stroke-miterlimit:10;}
	.st15{fill:#4D4D4D;stroke:#000000;stroke-miterlimit:10;}
	.st16{opacity:0.5;fill:#949494;enable-background:new    ;}
	.st17{fill:url(#SVGID_00000169535766960982101740000002298375340857990070_);}
	.st18{fill:url(#SVGID_00000181060908079658627460000006820645492664926352_);}
	.st19{fill:url(#SVGID_00000009549433361900428310000009072670935422024866_);stroke:#000000;stroke-width:8;stroke-miterlimit:10;}
	.st20{fill:url(#SVGID_00000040542467738888565300000002874785019024011447_);stroke:#000000;stroke-width:8;stroke-miterlimit:10;}
</style>
<path class="st0" d="M34.81,136.13l183.69,54.74L351.82,71.74c3.26-2.91,8.38-2.02,10.46,1.83l127.97,237.12
	c1.57,2.91,0.81,6.52-1.79,8.55l-157,122.31c0,0-15.74,12.88-32.7,12.88s-34.68-9.91-34.68-9.91l-146.03-36.75
	c-2.23-0.56-4.03-2.22-4.76-4.41l-86.82-258.6C24.73,139.57,29.56,134.57,34.81,136.13z"/>
<path class="st1" d="M500.33,321.78L372.36,84.66c-1.25-2.32-3.62-3.56-6.02-3.54l123.91,229.6c1.57,2.91,0.81,6.52-1.79,8.55
	L331.47,441.59c0,0-15.74,12.88-32.7,12.88c-16.95,0-34.68-9.91-34.68-9.91l-142.67-35.9l1.95,5.8c0.73,2.18,2.53,3.84,4.76,4.41
	l146.03,36.75c0,0,17.72,9.91,34.68,9.91c16.95,0,32.7-12.88,32.7-12.88l156.99-122.32C501.14,328.29,501.9,324.68,500.33,321.78z"
	/>
<path class="st2" d="M51,165.64L130.32,393c49.59,4.17,99.49,19.42,149.61,42.61c13.77-10.41,28.33-12.41,43.6-6.94
	c40.66-44.19,89.92-83.46,145.77-118.98L358.21,100.71l-17.83-6.94c-44.7,37.3-83.51,76.36-113.94,117.91
	c-46.78-24.33-95.69-43.28-147.63-54.5L51,165.64z"/>
<linearGradient id="SVGID_1_" gradientUnits="userSpaceOnUse" x1="78.8" y1="1757.385" x2="299.43" y2="1757.385" gradientTransform="matrix(1 0 0 -1 0 2048)">
	<stop  offset="0" style="stop-color:#FFFFFF"/>
	<stop  offset="1" style="stop-color:#C9E5F1"/>
</linearGradient>
<path class="st3" d="M78.8,157.18l78.22,212.88c50.31,6.56,94.27,24.28,142.41,53.99l-72.99-212.37
	C181.61,187.72,132.51,169.4,78.8,157.18z"/>
<linearGradient id="SVGID_00000068643453675150027370000007306173570631220384_" gradientUnits="userSpaceOnUse" x1="226.43" y1="1789.095" x2="448.48" y2="1789.095" gradientTransform="matrix(1 0 0 -1 0 2048)">
	<stop  offset="0" style="stop-color:#FFFFFF"/>
	<stop  offset="1" style="stop-color:#C9E5F1"/>
</linearGradient>
<path style="fill:url(#SVGID_00000068643453675150027370000007306173570631220384_);" d="M226.43,211.68
	c31.52-42.26,69.69-81.48,113.94-117.91l108.11,209.71c-44.82,24.16-93.76,67.12-149.07,120.56l-72.22-210.5"/>
<linearGradient id="SVGID_00000155127127783409009740000017511069268035382432_" gradientUnits="userSpaceOnUse" x1="130.4692" y1="1783.3101" x2="130.4692" y2="1566.64" gradientTransform="matrix(-1 0 0 -1 200.6542 2048)">
	<stop  offset="0" style="stop-color:#BCDAAB"/>
	<stop  offset="1" style="stop-color:#3FAB35"/>
</linearGradient>
<path style="fill:url(#SVGID_00000155127127783409009740000017511069268035382432_);stroke:#020203;stroke-width:8;stroke-miterlimit:10;" d="
	M69.35,481.36h1.67c13.85,0,25.07-11.22,25.07-25.07V289.76c0-13.85-11.22-25.07-25.07-25.07h-1.67
	c-13.85,0-25.07,11.22-25.07,25.07v166.53C44.28,470.14,55.51,481.36,69.35,481.36z"/>
<linearGradient id="SVGID_00000137811977665514617270000000663036847293114018_" gradientUnits="userSpaceOnUse" x1="-2.3376" y1="1773.9093" x2="-2.3376" y2="1569.8801" gradientTransform="matrix(-1 0 0 -1 200.6542 2048)">
	<stop  offset="0" style="stop-color:#BCDAAB"/>
	<stop  offset="1" style="stop-color:#3FAB35"/>
</linearGradient>
<path style="fill:url(#SVGID_00000137811977665514617270000000663036847293114018_);stroke:#020203;stroke-width:8;stroke-miterlimit:10;" d="
	M243.44,278.74l-120.21,80.24c-4.4,2.94-4.85,9.24-0.91,12.77l110.92,99.33c11.23,10.06,28.46,9.24,38.69-1.83l4.37-4.74
	c10.82-11.71,9.5-30.12-2.88-40.16l-61.9-50.24c-4.39-3.56-3.87-10.41,1-13.27l60.2-35.33c13.51-7.93,17.72-25.5,9.28-38.69l0,0
	C273.68,273.8,256.29,270.16,243.44,278.74z"/>
<path class="st0" d="M44.81,658.13l183.69,54.74l133.32-119.14c3.26-2.91,8.38-2.02,10.46,1.83l127.97,237.12
	c1.57,2.91,0.81,6.52-1.79,8.55l-157,122.32c0,0-15.74,12.88-32.7,12.88s-34.68-9.91-34.68-9.91l-146.03-36.75
	c-2.23-0.56-4.03-2.22-4.76-4.41l-86.82-258.6C34.73,661.57,39.56,656.57,44.81,658.13z"/>
<path class="st1" d="M510.33,843.78L382.36,606.66c-1.25-2.32-3.62-3.56-6.02-3.54l123.91,229.6c1.57,2.91,0.81,6.52-1.79,8.55
	L341.47,963.59c0,0-15.74,12.88-32.7,12.88c-16.95,0-34.68-9.91-34.68-9.91l-142.67-35.9l1.95,5.8c0.73,2.18,2.53,3.84,4.76,4.41
	l146.03,36.75c0,0,17.72,9.91,34.68,9.91c16.95,0,32.7-12.88,32.7-12.88l156.99-122.32C511.14,850.29,511.9,846.68,510.33,843.78z"
	/>
<path class="st2" d="M61,687.64L140.32,915c49.59,4.17,99.49,19.42,149.61,42.61c13.77-10.41,28.33-12.41,43.6-6.94
	c40.66-44.19,89.92-83.46,145.77-118.98L368.21,622.71l-17.83-6.94c-44.7,37.3-83.51,76.36-113.94,117.91
	c-46.78-24.33-95.69-43.28-147.63-54.5L61,687.64z"/>
<linearGradient id="SVGID_00000069364252219973490470000008806906990593661093_" gradientUnits="userSpaceOnUse" x1="88.8" y1="1235.385" x2="309.43" y2="1235.385" gradientTransform="matrix(1 0 0 -1 0 2048)">
	<stop  offset="0" style="stop-color:#FFFFFF"/>
	<stop  offset="1" style="stop-color:#C9E5F1"/>
</linearGradient>
<path style="fill:url(#SVGID_00000069364252219973490470000008806906990593661093_);" d="M88.8,679.18l78.22,212.88
	c50.31,6.56,94.27,24.28,142.41,53.99l-72.99-212.37C191.61,709.72,142.51,691.4,88.8,679.18z"/>
<linearGradient id="SVGID_00000142874274611915266220000004057138614231756723_" gradientUnits="userSpaceOnUse" x1="236.43" y1="1267.095" x2="458.48" y2="1267.095" gradientTransform="matrix(1 0 0 -1 0 2048)">
	<stop  offset="0" style="stop-color:#FFFFFF"/>
	<stop  offset="1" style="stop-color:#C9E5F1"/>
</linearGradient>
<path style="fill:url(#SVGID_00000142874274611915266220000004057138614231756723_);" d="M236.43,733.68
	c31.52-42.26,69.69-81.48,113.94-117.91l108.11,209.71c-44.82,24.16-93.76,67.12-149.07,120.56l-72.22-210.5"/>
<linearGradient id="SVGID_00000054968872121752360180000003613841065438470582_" gradientUnits="userSpaceOnUse" x1="120.4692" y1="1261.3101" x2="120.4692" y2="1044.64" gradientTransform="matrix(-1 0 0 -1 200.6542 2048)">
	<stop  offset="0" style="stop-color:#FFDD00"/>
	<stop  offset="1" style="stop-color:#F6A71C"/>
</linearGradient>
<path style="fill:url(#SVGID_00000054968872121752360180000003613841065438470582_);stroke:#020203;stroke-width:8;stroke-miterlimit:10;" d="
	M79.35,1003.36h1.67c13.85,0,25.07-11.22,25.07-25.07V811.76c0-13.85-11.22-25.07-25.07-25.07h-1.67
	c-13.85,0-25.07,11.22-25.07,25.07v166.53C54.28,992.14,65.51,1003.36,79.35,1003.36z"/>
<linearGradient id="SVGID_00000031179480844984124770000012851414769087500949_" gradientUnits="userSpaceOnUse" x1="-12.3376" y1="1251.9093" x2="-12.3376" y2="1047.8801" gradientTransform="matrix(-1 0 0 -1 200.6542 2048)">
	<stop  offset="0" style="stop-color:#FFDD00"/>
	<stop  offset="1" style="stop-color:#F6A71C"/>
</linearGradient>
<path style="fill:url(#SVGID_00000031179480844984124770000012851414769087500949_);stroke:#020203;stroke-width:8;stroke-miterlimit:10;" d="
	M253.44,800.74l-120.21,80.24c-4.4,2.94-4.85,9.24-0.91,12.77l110.92,99.33c11.23,10.06,28.46,9.24,38.69-1.83l4.37-4.74
	c10.82-11.71,9.5-30.12-2.88-40.16l-61.9-50.24c-4.39-3.56-3.87-10.41,1-13.27l60.2-35.33c13.51-7.93,17.72-25.5,9.28-38.69l0,0
	C283.68,795.8,266.29,792.16,253.44,800.74z"/>
<path class="st0" d="M34.81,1160.13l183.69,54.74l133.32-119.14c3.26-2.91,8.38-2.02,10.46,1.83l127.97,237.12
	c1.57,2.91,0.81,6.52-1.79,8.55l-156.99,122.32c0,0-15.74,12.88-32.7,12.88s-34.68-9.91-34.68-9.91l-146.03-36.75
	c-2.23-0.56-4.03-2.22-4.76-4.41l-86.82-258.6C24.73,1163.57,29.56,1158.57,34.81,1160.13z"/>
<path class="st1" d="M500.33,1345.78l-127.97-237.12c-1.25-2.32-3.62-3.56-6.02-3.54l123.91,229.6c1.57,2.91,0.81,6.52-1.79,8.55
	l-156.99,122.32c0,0-15.74,12.88-32.7,12.88c-16.95,0-34.68-9.91-34.68-9.91l-142.67-35.9l1.95,5.8c0.73,2.18,2.53,3.84,4.76,4.41
	l146.03,36.75c0,0,17.72,9.91,34.68,9.91c16.95,0,32.7-12.88,32.7-12.88l156.99-122.32C501.14,1352.29,501.9,1348.68,500.33,1345.78
	z"/>
<path class="st2" d="M51,1189.64L130.32,1417c49.59,4.17,99.49,19.42,149.61,42.61c13.77-10.41,28.33-12.41,43.6-6.94
	c40.66-44.19,89.92-83.46,145.77-118.98L358.21,1124.7l-17.83-6.94c-44.7,37.3-83.51,76.36-113.94,117.91
	c-46.78-24.33-95.69-43.28-147.63-54.5L51,1189.64z"/>
<linearGradient id="SVGID_00000040559476118495106640000000009993674503314850_" gradientUnits="userSpaceOnUse" x1="78.8" y1="733.3849" x2="299.43" y2="733.3849" gradientTransform="matrix(1 0 0 -1 0 2048)">
	<stop  offset="0" style="stop-color:#FFFFFF"/>
	<stop  offset="1" style="stop-color:#C9E5F1"/>
</linearGradient>
<path style="fill:url(#SVGID_00000040559476118495106640000000009993674503314850_);" d="M78.8,1181.18l78.22,212.88
	c50.31,6.56,94.27,24.28,142.41,53.99l-72.99-212.37C181.61,1211.72,132.51,1193.4,78.8,1181.18z"/>
<linearGradient id="SVGID_00000015354179231751728720000018027241849707815588_" gradientUnits="userSpaceOnUse" x1="226.43" y1="765.095" x2="448.48" y2="765.095" gradientTransform="matrix(1 0 0 -1 0 2048)">
	<stop  offset="0" style="stop-color:#FFFFFF"/>
	<stop  offset="1" style="stop-color:#C9E5F1"/>
</linearGradient>
<path style="fill:url(#SVGID_00000015354179231751728720000018027241849707815588_);" d="M226.43,1235.68
	c31.52-42.26,69.69-81.48,113.94-117.91l108.11,209.71c-44.82,24.16-93.76,67.12-149.07,120.56l-72.22-210.5"/>
<linearGradient id="SVGID_00000160891153328646147950000017887328627631509941_" gradientUnits="userSpaceOnUse" x1="130.4692" y1="759.3099" x2="130.4692" y2="542.64" gradientTransform="matrix(-1 0 0 -1 200.6542 2048)">
	<stop  offset="0" style="stop-color:#ADD2EF"/>
	<stop  offset="1" style="stop-color:#3AB2E7"/>
</linearGradient>
<path style="fill:url(#SVGID_00000160891153328646147950000017887328627631509941_);stroke:#020203;stroke-width:8;stroke-miterlimit:10;" d="
	M69.35,1505.36h1.67c13.85,0,25.07-11.22,25.07-25.07v-166.53c0-13.85-11.22-25.07-25.07-25.07h-1.67
	c-13.85,0-25.07,11.22-25.07,25.07v166.53C44.28,1494.14,55.51,1505.36,69.35,1505.36z"/>
<linearGradient id="SVGID_00000138551404737646011230000004980521096524018609_" gradientUnits="userSpaceOnUse" x1="-2.3376" y1="749.9092" x2="-2.3376" y2="545.8801" gradientTransform="matrix(-1 0 0 -1 200.6542 2048)">
	<stop  offset="0" style="stop-color:#ADD2EF"/>
	<stop  offset="1" style="stop-color:#3AB2E7"/>
</linearGradient>
<path style="fill:url(#SVGID_00000138551404737646011230000004980521096524018609_);stroke:#020203;stroke-width:8;stroke-miterlimit:10;" d="
	M243.44,1302.74l-120.21,80.24c-4.4,2.94-4.85,9.24-0.91,12.77l110.92,99.33c11.23,10.06,28.46,9.24,38.69-1.83l4.37-4.74
	c10.82-11.71,9.5-30.12-2.88-40.16l-61.9-50.24c-4.39-3.56-3.87-10.41,1-13.27l60.2-35.33c13.51-7.93,17.72-25.5,9.28-38.69l0,0
	C273.68,1297.8,256.29,1294.16,243.44,1302.74z"/>
<path class="st15" d="M34.81,1672.13l183.69,54.74l133.32-119.14c3.26-2.91,8.38-2.02,10.46,1.83l127.97,237.12
	c1.57,2.91,0.81,6.52-1.79,8.55l-156.99,122.32c0,0-15.74,12.88-32.7,12.88s-34.68-9.91-34.68-9.91l-146.03-36.75
	c-2.23-0.56-4.03-2.22-4.76-4.41l-86.82-258.6C24.73,1675.57,29.56,1670.57,34.81,1672.13z"/>
<path class="st16" d="M500.33,1857.78l-127.97-237.12c-1.25-2.32-3.62-3.56-6.02-3.54l123.91,229.6c1.57,2.91,0.81,6.52-1.79,8.55
	l-156.99,122.32c0,0-15.74,12.88-32.7,12.88c-16.95,0-34.68-9.91-34.68-9.91l-142.67-35.9l1.95,5.8c0.73,2.18,2.53,3.84,4.76,4.41
	l146.03,36.75c0,0,17.72,9.91,34.68,9.91c16.95,0,32.7-12.88,32.7-12.88l156.99-122.32C501.14,1864.29,501.9,1860.68,500.33,1857.78
	z"/>
<path class="st2" d="M51,1701.64L130.32,1929c49.59,4.17,99.49,19.42,149.61,42.61c13.77-10.41,28.33-12.41,43.6-6.94
	c40.66-44.19,89.92-83.46,145.77-118.98L358.21,1636.7l-17.83-6.94c-44.7,37.3-83.51,76.36-113.94,117.91
	c-46.78-24.33-95.69-43.28-147.63-54.5L51,1701.64z"/>
<linearGradient id="SVGID_00000171718245631771648600000010992858845634106289_" gradientUnits="userSpaceOnUse" x1="78.8" y1="221.3849" x2="299.43" y2="221.3849" gradientTransform="matrix(1 0 0 -1 0 2048)">
	<stop  offset="0" style="stop-color:#FFFFFF"/>
	<stop  offset="1" style="stop-color:#E7E7E7"/>
</linearGradient>
<path style="fill:url(#SVGID_00000171718245631771648600000010992858845634106289_);" d="M78.8,1693.18l78.22,212.88
	c50.31,6.56,94.27,24.28,142.41,53.99l-72.99-212.37C181.61,1723.72,132.51,1705.4,78.8,1693.18z"/>
<linearGradient id="SVGID_00000049203920900554629990000002657457866697310099_" gradientUnits="userSpaceOnUse" x1="226.43" y1="253.095" x2="448.48" y2="253.095" gradientTransform="matrix(1 0 0 -1 0 2048)">
	<stop  offset="0" style="stop-color:#FFFFFF"/>
	<stop  offset="1" style="stop-color:#E7E7E7"/>
</linearGradient>
<path style="fill:url(#SVGID_00000049203920900554629990000002657457866697310099_);" d="M226.43,1747.68
	c31.52-42.26,69.69-81.48,113.94-117.91l108.11,209.71c-44.82,24.16-93.76,67.12-149.07,120.56l-72.22-210.5"/>
<linearGradient id="SVGID_00000106836533700169356420000017154963250401136061_" gradientUnits="userSpaceOnUse" x1="130.4692" y1="247.3099" x2="130.4692" y2="30.64" gradientTransform="matrix(-1 0 0 -1 200.6542 2048)">
	<stop  offset="0" style="stop-color:#DADADA"/>
	<stop  offset="1" style="stop-color:#AAAAAA"/>
</linearGradient>
<path style="fill:url(#SVGID_00000106836533700169356420000017154963250401136061_);stroke:#000000;stroke-width:8;stroke-miterlimit:10;" d="
	M69.35,2017.36h1.67c13.85,0,25.07-11.22,25.07-25.07v-166.53c0-13.85-11.22-25.07-25.07-25.07h-1.67
	c-13.85,0-25.07,11.22-25.07,25.07v166.53C44.28,2006.14,55.51,2017.36,69.35,2017.36z"/>
<linearGradient id="SVGID_00000085972555768576501750000011264590459970370714_" gradientUnits="userSpaceOnUse" x1="-2.9359" y1="237.9097" x2="-2.9359" y2="33.8801" gradientTransform="matrix(-1 0 0 -1 200.6542 2048)">
	<stop  offset="0" style="stop-color:#DADADA"/>
	<stop  offset="1" style="stop-color:#AAAAAA"/>
</linearGradient>
<path style="fill:url(#SVGID_00000085972555768576501750000011264590459970370714_);stroke:#000000;stroke-width:8;stroke-miterlimit:10;" d="
	M243.44,1814.74l-118.19,78.9c-5.42,3.62-5.97,11.38-1.12,15.73l109.12,97.71c11.23,10.06,28.46,9.24,38.69-1.83l4.37-4.74
	c10.82-11.71,9.5-30.12-2.88-40.16l-59.8-48.54c-5.41-4.39-4.77-12.82,1.24-16.35l57.86-33.96c13.51-7.93,17.72-25.5,9.28-38.69l0,0
	C273.68,1809.8,256.29,1806.16,243.44,1814.74z"/>
</svg>
