<?xml version="1.0" encoding="utf-8"?>
<!-- Generator: Adobe Illustrator 27.0.1, SVG Export Plug-In . SVG Version: 6.00 Build 0)  -->
<svg version="1.1" id="Calque_1" xmlns="http://www.w3.org/2000/svg" xmlns:xlink="http://www.w3.org/1999/xlink" x="0px" y="0px"
	 viewBox="0 0 512 2048" style="enable-background:new 0 0 512 2048;" xml:space="preserve">
<style type="text/css">
	.st0{opacity:0.5;fill:#A0A09F;enable-background:new    ;}
	
		.st1{fill:url(#SVGID_1_);stroke:url(#SVGID_00000049202719952227455240000006178088021802639248_);stroke-width:8;stroke-miterlimit:10;}
	.st2{fill:none;stroke:#000000;stroke-width:8;stroke-linecap:round;stroke-miterlimit:10;}
	.st3{fill:#5691CC;stroke:url(#SVGID_00000149354038416079141510000006182981348787252156_);stroke-width:8;stroke-miterlimit:10;}
	.st4{fill:#5691CC;stroke:url(#SVGID_00000034793108372319847650000014121082619199308982_);stroke-width:8;stroke-miterlimit:10;}
	.st5{fill:#D3DDDD;stroke:#000000;stroke-width:8;stroke-miterlimit:10;}
	
		.st6{fill:url(#SVGID_00000127739423869969662330000003501776469129957532_);stroke:url(#SVGID_00000044162049178233752880000009058276762788063408_);stroke-width:8;stroke-miterlimit:10;}
	.st7{fill:#5691CC;stroke:url(#SVGID_00000158017920583166652360000014691224082099725208_);stroke-width:8;stroke-miterlimit:10;}
	.st8{fill:#5691CC;stroke:url(#SVGID_00000098193186965373110430000007661837985994131095_);stroke-width:8;stroke-miterlimit:10;}
	.st9{fill:#D3DDDD;stroke:#F7A51E;stroke-width:8;stroke-miterlimit:10;}
	
		.st10{fill:url(#SVGID_00000043438905328911267920000003458802599498998663_);stroke:url(#SVGID_00000157268771586027713410000007682770002999276455_);stroke-width:8;stroke-miterlimit:10;}
	.st11{fill:#5691CC;stroke:url(#SVGID_00000037687645023714290560000016328534201652167308_);stroke-width:8;stroke-miterlimit:10;}
	.st12{fill:#5691CC;stroke:url(#SVGID_00000097498406561075408330000010780944639227747482_);stroke-width:8;stroke-miterlimit:10;}
	.st13{fill:#D3DDDD;stroke:#3BB1E6;stroke-width:8;stroke-miterlimit:10;}
	.st14{opacity:0.5;fill:#949494;enable-background:new    ;}
	
		.st15{fill:url(#SVGID_00000171711108484911311880000008683729003058207924_);stroke:url(#SVGID_00000034079638770133857400000004397558806743288215_);stroke-width:8;stroke-miterlimit:10;}
	.st16{fill:#969696;stroke:url(#SVGID_00000016074371664918728310000008693010809231798928_);stroke-width:8;stroke-miterlimit:10;}
	.st17{fill:#969696;stroke:url(#SVGID_00000058553330766803550280000013528077110286435980_);stroke-width:8;stroke-miterlimit:10;}
	.st18{fill:#DFDFDF;stroke:#000000;stroke-width:8;stroke-miterlimit:10;}
</style>
<polygon class="st0" points="434.83,107.68 434.83,459.06 119.81,459.06 119.81,478.23 450.74,478.23 450.74,124.17 "/>
<linearGradient id="SVGID_1_" gradientUnits="userSpaceOnUse" x1="61.4575" y1="-1203.8975" x2="441.2725" y2="-824.0825" gradientTransform="matrix(1 0 0 1 0 1280)">
	<stop  offset="0" style="stop-color:#FBF9F4"/>
	<stop  offset="1" style="stop-color:#C8E3F0"/>
</linearGradient>
<linearGradient id="SVGID_00000061457155810905493970000012378621425550313365_" gradientUnits="userSpaceOnUse" x1="38.4303" y1="-1143.8713" x2="481.7245" y2="-887.9355" gradientTransform="matrix(1 0 0 1 0 1280)">
	<stop  offset="0" style="stop-color:#A4C6EA"/>
	<stop  offset="1" style="stop-color:#606086"/>
</linearGradient>
<polygon style="fill:url(#SVGID_1_);stroke:url(#SVGID_00000061457155810905493970000012378621425550313365_);stroke-width:8;stroke-miterlimit:10;" points="
	434.83,462.36 103.9,462.36 103.9,33.66 362.83,33.66 434.83,108.3 "/>
<line class="st2" x1="363.66" y1="33.66" x2="435.42" y2="109.11"/>
<linearGradient id="SVGID_00000082330943968238690580000006751878168174942911_" gradientUnits="userSpaceOnUse" x1="339.1183" y1="-1220.0908" x2="438.1948" y2="-1162.8892" gradientTransform="matrix(1 0 0 1 0 1280)">
	<stop  offset="0" style="stop-color:#A4C6EA"/>
	<stop  offset="1" style="stop-color:#606086"/>
</linearGradient>
<polyline style="fill:#5691CC;stroke:url(#SVGID_00000082330943968238690580000006751878168174942911_);stroke-width:8;stroke-miterlimit:10;" points="
	360.66,29.53 360.58,111.11 439.35,111.11 "/>
<linearGradient id="SVGID_00000033356070104675224140000009191689118168521123_" gradientUnits="userSpaceOnUse" x1="360.66" y1="-1246.34" x2="360.66" y2="-1246.34" gradientTransform="matrix(1 0 0 1 0 1280)">
	<stop  offset="0" style="stop-color:#A4C6EA"/>
	<stop  offset="1" style="stop-color:#606086"/>
</linearGradient>
<path style="fill:#5691CC;stroke:url(#SVGID_00000033356070104675224140000009191689118168521123_);stroke-width:8;stroke-miterlimit:10;" d="
	M360.66,33.66"/>
<path class="st5" d="M234.78,192.28H167.4c-11.72,0-21.22-9.5-21.22-21.22v-19.64c0-11.72,9.5-21.22,21.22-21.22h67.38
	c11.72,0,21.22,9.5,21.22,21.22v19.64C256,182.78,246.5,192.28,234.78,192.28z"/>
<path class="st5" d="M365.56,192.28h-67.38c-11.72,0-21.22-9.5-21.22-21.22v-19.64c0-11.72,9.5-21.22,21.22-21.22h67.38
	c11.72,0,21.22,9.5,21.22,21.22v19.64C386.79,182.78,377.29,192.28,365.56,192.28z"/>
<path class="st5" d="M234.78,303.53H167.4c-11.72,0-21.22-9.5-21.22-21.22v-19.64c0-11.72,9.5-21.22,21.22-21.22h67.38
	c11.72,0,21.22,9.5,21.22,21.22v19.64C256,294.03,246.5,303.53,234.78,303.53z"/>
<path class="st5" d="M365.56,303.53h-67.38c-11.72,0-21.22-9.5-21.22-21.22v-19.64c0-11.72,9.5-21.22,21.22-21.22h67.38
	c11.72,0,21.22,9.5,21.22,21.22v19.64C386.79,294.03,377.29,303.53,365.56,303.53z"/>
<path class="st5" d="M237.66,404.78h-67.38c-11.72,0-21.22-9.5-21.22-21.22v-19.64c0-11.72,9.5-21.22,21.22-21.22h67.38
	c11.72,0,21.22,9.5,21.22,21.22v19.64C258.89,395.28,249.38,404.78,237.66,404.78z"/>
<path class="st5" d="M368.45,404.78h-67.38c-11.72,0-21.22-9.5-21.22-21.22v-19.64c0-11.72,9.5-21.22,21.22-21.22h67.38
	c11.72,0,21.22,9.5,21.22,21.22v19.64C389.67,395.28,380.17,404.78,368.45,404.78z"/>
<polygon class="st0" points="444.83,628.99 444.83,980.37 129.81,980.37 129.81,999.54 460.74,999.54 460.74,645.49 "/>
<linearGradient id="SVGID_00000111892413721115428030000001776279046623243947_" gradientUnits="userSpaceOnUse" x1="71.4575" y1="-682.5875" x2="451.2725" y2="-302.7725" gradientTransform="matrix(1 0 0 1 0 1280)">
	<stop  offset="0" style="stop-color:#FBF9F4"/>
	<stop  offset="1" style="stop-color:#C8E3F0"/>
</linearGradient>
<linearGradient id="SVGID_00000146475119450780862670000007374741947908466599_" gradientUnits="userSpaceOnUse" x1="48.4303" y1="-622.5614" x2="491.7245" y2="-366.6255" gradientTransform="matrix(1 0 0 1 0 1280)">
	<stop  offset="0" style="stop-color:#A4C6EA"/>
	<stop  offset="1" style="stop-color:#606086"/>
</linearGradient>
<polygon style="fill:url(#SVGID_00000111892413721115428030000001776279046623243947_);stroke:url(#SVGID_00000146475119450780862670000007374741947908466599_);stroke-width:8;stroke-miterlimit:10;" points="
	444.83,983.67 113.9,983.67 113.9,554.97 372.83,554.97 444.83,629.61 "/>
<line class="st2" x1="373.66" y1="554.97" x2="445.42" y2="630.42"/>
<linearGradient id="SVGID_00000134939139849089213730000012379596020402860472_" gradientUnits="userSpaceOnUse" x1="349.1183" y1="-698.7809" x2="448.1948" y2="-641.5791" gradientTransform="matrix(1 0 0 1 0 1280)">
	<stop  offset="0" style="stop-color:#A4C6EA"/>
	<stop  offset="1" style="stop-color:#606086"/>
</linearGradient>
<polyline style="fill:#5691CC;stroke:url(#SVGID_00000134939139849089213730000012379596020402860472_);stroke-width:8;stroke-miterlimit:10;" points="
	370.66,550.84 370.58,632.42 449.35,632.42 "/>
<linearGradient id="SVGID_00000029740431323714115170000006807541611874821041_" gradientUnits="userSpaceOnUse" x1="370.66" y1="-725.03" x2="370.66" y2="-725.03" gradientTransform="matrix(1 0 0 1 0 1280)">
	<stop  offset="0" style="stop-color:#A4C6EA"/>
	<stop  offset="1" style="stop-color:#606086"/>
</linearGradient>
<path style="fill:#5691CC;stroke:url(#SVGID_00000029740431323714115170000006807541611874821041_);stroke-width:8;stroke-miterlimit:10;" d="
	M370.66,554.97"/>
<path class="st9" d="M244.78,713.6H177.4c-11.72,0-21.22-9.5-21.22-21.22v-19.64c0-11.72,9.5-21.22,21.22-21.22h67.38
	c11.72,0,21.22,9.5,21.22,21.22v19.64C266,704.09,256.5,713.6,244.78,713.6z"/>
<path class="st9" d="M375.56,713.6h-67.38c-11.72,0-21.22-9.5-21.22-21.22v-19.64c0-11.72,9.5-21.22,21.22-21.22h67.38
	c11.72,0,21.22,9.5,21.22,21.22v19.64C396.79,704.09,387.29,713.6,375.56,713.6z"/>
<path class="st9" d="M244.78,824.84H177.4c-11.72,0-21.22-9.5-21.22-21.22v-19.64c0-11.72,9.5-21.22,21.22-21.22h67.38
	c11.72,0,21.22,9.5,21.22,21.22v19.64C266,815.34,256.5,824.84,244.78,824.84z"/>
<path class="st9" d="M375.56,824.84h-67.38c-11.72,0-21.22-9.5-21.22-21.22v-19.64c0-11.72,9.5-21.22,21.22-21.22h67.38
	c11.72,0,21.22,9.5,21.22,21.22v19.64C396.79,815.34,387.29,824.84,375.56,824.84z"/>
<path class="st9" d="M247.66,926.09h-67.38c-11.72,0-21.22-9.5-21.22-21.22v-19.64c0-11.72,9.5-21.22,21.22-21.22h67.38
	c11.72,0,21.22,9.5,21.22,21.22v19.64C268.89,916.59,259.38,926.09,247.66,926.09z"/>
<path class="st9" d="M378.45,926.09h-67.38c-11.72,0-21.22-9.5-21.22-21.22v-19.64c0-11.72,9.5-21.22,21.22-21.22h67.38
	c11.72,0,21.22,9.5,21.22,21.22v19.64C399.67,916.59,390.17,926.09,378.45,926.09z"/>
<polygon class="st0" points="434.83,1131.68 434.83,1483.06 119.81,1483.06 119.81,1502.23 450.74,1502.23 450.74,1148.17 "/>
<linearGradient id="SVGID_00000046329192466245569590000002834325123617427584_" gradientUnits="userSpaceOnUse" x1="61.4575" y1="-179.8975" x2="441.2725" y2="199.9175" gradientTransform="matrix(1 0 0 1 0 1280)">
	<stop  offset="0" style="stop-color:#FBF9F4"/>
	<stop  offset="1" style="stop-color:#C8E3F0"/>
</linearGradient>
<linearGradient id="SVGID_00000073683913804578542700000006951589008599632792_" gradientUnits="userSpaceOnUse" x1="38.4303" y1="-119.8713" x2="481.7245" y2="136.0645" gradientTransform="matrix(1 0 0 1 0 1280)">
	<stop  offset="0" style="stop-color:#A4C6EA"/>
	<stop  offset="1" style="stop-color:#606086"/>
</linearGradient>
<polygon style="fill:url(#SVGID_00000046329192466245569590000002834325123617427584_);stroke:url(#SVGID_00000073683913804578542700000006951589008599632792_);stroke-width:8;stroke-miterlimit:10;" points="
	434.83,1486.36 103.9,1486.36 103.9,1057.66 362.83,1057.66 434.83,1132.3 "/>
<line class="st2" x1="363.66" y1="1057.66" x2="435.42" y2="1133.11"/>
<linearGradient id="SVGID_00000163062509864593683440000013611773394798669468_" gradientUnits="userSpaceOnUse" x1="339.1183" y1="-196.0909" x2="438.1947" y2="-138.8891" gradientTransform="matrix(1 0 0 1 0 1280)">
	<stop  offset="0" style="stop-color:#A4C6EA"/>
	<stop  offset="1" style="stop-color:#606086"/>
</linearGradient>
<polyline style="fill:#5691CC;stroke:url(#SVGID_00000163062509864593683440000013611773394798669468_);stroke-width:8;stroke-miterlimit:10;" points="
	360.66,1053.53 360.58,1135.11 439.35,1135.11 "/>
<linearGradient id="SVGID_00000080204381683928210510000017871665201683805612_" gradientUnits="userSpaceOnUse" x1="360.66" y1="-222.34" x2="360.66" y2="-222.34" gradientTransform="matrix(1 0 0 1 0 1280)">
	<stop  offset="0" style="stop-color:#A4C6EA"/>
	<stop  offset="1" style="stop-color:#606086"/>
</linearGradient>
<path style="fill:#5691CC;stroke:url(#SVGID_00000080204381683928210510000017871665201683805612_);stroke-width:8;stroke-miterlimit:10;" d="
	M360.66,1057.66"/>
<path class="st13" d="M234.78,1216.28H167.4c-11.72,0-21.22-9.5-21.22-21.22v-19.64c0-11.72,9.5-21.22,21.22-21.22h67.38
	c11.72,0,21.22,9.5,21.22,21.22v19.64C256,1206.78,246.5,1216.28,234.78,1216.28z"/>
<path class="st13" d="M365.56,1216.28h-67.38c-11.72,0-21.22-9.5-21.22-21.22v-19.64c0-11.72,9.5-21.22,21.22-21.22h67.38
	c11.72,0,21.22,9.5,21.22,21.22v19.64C386.79,1206.78,377.29,1216.28,365.56,1216.28z"/>
<path class="st13" d="M234.78,1327.53H167.4c-11.72,0-21.22-9.5-21.22-21.22v-19.64c0-11.72,9.5-21.22,21.22-21.22h67.38
	c11.72,0,21.22,9.5,21.22,21.22v19.64C256,1318.03,246.5,1327.53,234.78,1327.53z"/>
<path class="st13" d="M365.56,1327.53h-67.38c-11.72,0-21.22-9.5-21.22-21.22v-19.64c0-11.72,9.5-21.22,21.22-21.22h67.38
	c11.72,0,21.22,9.5,21.22,21.22v19.64C386.79,1318.03,377.29,1327.53,365.56,1327.53z"/>
<path class="st13" d="M237.66,1428.78h-67.38c-11.72,0-21.22-9.5-21.22-21.22v-19.64c0-11.72,9.5-21.22,21.22-21.22h67.38
	c11.72,0,21.22,9.5,21.22,21.22v19.64C258.89,1419.28,249.38,1428.78,237.66,1428.78z"/>
<path class="st13" d="M368.45,1428.78h-67.38c-11.72,0-21.22-9.5-21.22-21.22v-19.64c0-11.72,9.5-21.22,21.22-21.22h67.38
	c11.72,0,21.22,9.5,21.22,21.22v19.64C389.67,1419.28,380.17,1428.78,368.45,1428.78z"/>
<polygon class="st14" points="434.83,1644.37 434.83,1995.74 119.81,1995.74 119.81,2014.92 450.74,2014.92 450.74,1660.86 "/>
<linearGradient id="SVGID_00000042728562603007835680000000973054280973433733_" gradientUnits="userSpaceOnUse" x1="61.4575" y1="332.7925" x2="441.2725" y2="712.6075" gradientTransform="matrix(1 0 0 1 0 1280)">
	<stop  offset="0" style="stop-color:#F8F8F8"/>
	<stop  offset="1" style="stop-color:#E6E6E6"/>
</linearGradient>
<linearGradient id="SVGID_00000153695621526248561430000005173798713661865884_" gradientUnits="userSpaceOnUse" x1="38.4303" y1="392.8186" x2="481.7245" y2="648.7546" gradientTransform="matrix(1 0 0 1 0 1280)">
	<stop  offset="0" style="stop-color:#CCCCCC"/>
	<stop  offset="1" style="stop-color:#4E4E4E"/>
</linearGradient>
<polygon style="fill:url(#SVGID_00000042728562603007835680000000973054280973433733_);stroke:url(#SVGID_00000153695621526248561430000005173798713661865884_);stroke-width:8;stroke-miterlimit:10;" points="
	434.83,1999.05 103.9,1999.05 103.9,1570.35 362.83,1570.35 434.83,1644.99 "/>
<line class="st2" x1="363.66" y1="1570.35" x2="435.42" y2="1645.8"/>
<linearGradient id="SVGID_00000016788528066129776910000017961143364732942269_" gradientUnits="userSpaceOnUse" x1="339.1183" y1="316.5991" x2="438.1948" y2="373.801" gradientTransform="matrix(1 0 0 1 0 1280)">
	<stop  offset="0" style="stop-color:#CCCCCC"/>
	<stop  offset="1" style="stop-color:#4E4E4E"/>
</linearGradient>
<polyline style="fill:#969696;stroke:url(#SVGID_00000016788528066129776910000017961143364732942269_);stroke-width:8;stroke-miterlimit:10;" points="
	360.66,1566.22 360.58,1647.8 439.35,1647.8 "/>
<linearGradient id="SVGID_00000021813628232508469590000008799156846502345859_" gradientUnits="userSpaceOnUse" x1="360.66" y1="290.35" x2="360.66" y2="290.35" gradientTransform="matrix(1 0 0 1 0 1280)">
	<stop  offset="0" style="stop-color:#CCCCCC"/>
	<stop  offset="1" style="stop-color:#4E4E4E"/>
</linearGradient>
<path style="fill:#969696;stroke:url(#SVGID_00000021813628232508469590000008799156846502345859_);stroke-width:8;stroke-miterlimit:10;" d="
	M360.66,1570.35"/>
<path class="st18" d="M234.78,1728.97H167.4c-11.72,0-21.22-9.5-21.22-21.22v-19.64c0-11.72,9.5-21.22,21.22-21.22h67.38
	c11.72,0,21.22,9.5,21.22,21.22v19.64C256,1719.47,246.5,1728.97,234.78,1728.97z"/>
<path class="st18" d="M365.56,1728.97h-67.38c-11.72,0-21.22-9.5-21.22-21.22v-19.64c0-11.72,9.5-21.22,21.22-21.22h67.38
	c11.72,0,21.22,9.5,21.22,21.22v19.64C386.79,1719.47,377.29,1728.97,365.56,1728.97z"/>
<path class="st18" d="M234.78,1840.22H167.4c-11.72,0-21.22-9.5-21.22-21.22v-19.64c0-11.72,9.5-21.22,21.22-21.22h67.38
	c11.72,0,21.22,9.5,21.22,21.22V1819C256,1830.72,246.5,1840.22,234.78,1840.22z"/>
<path class="st18" d="M365.56,1840.22h-67.38c-11.72,0-21.22-9.5-21.22-21.22v-19.64c0-11.72,9.5-21.22,21.22-21.22h67.38
	c11.72,0,21.22,9.5,21.22,21.22V1819C386.79,1830.72,377.29,1840.22,365.56,1840.22z"/>
<path class="st18" d="M237.66,1941.47h-67.38c-11.72,0-21.22-9.5-21.22-21.22v-19.64c0-11.72,9.5-21.22,21.22-21.22h67.38
	c11.72,0,21.22,9.5,21.22,21.22v19.64C258.89,1931.97,249.38,1941.47,237.66,1941.47z"/>
<path class="st18" d="M368.45,1941.47h-67.38c-11.72,0-21.22-9.5-21.22-21.22v-19.64c0-11.72,9.5-21.22,21.22-21.22h67.38
	c11.72,0,21.22,9.5,21.22,21.22v19.64C389.67,1931.97,380.17,1941.47,368.45,1941.47z"/>
</svg>
