<?xml version="1.0" encoding="utf-8"?>
<!-- Generator: Adobe Illustrator 27.0.1, SVG Export Plug-In . SVG Version: 6.00 Build 0)  -->
<svg version="1.1" id="Calque_1" xmlns="http://www.w3.org/2000/svg" xmlns:xlink="http://www.w3.org/1999/xlink" x="0px" y="0px"
	 viewBox="0 0 512 2048" style="enable-background:new 0 0 512 2048;" xml:space="preserve">
<style type="text/css">
	.st0{opacity:0.5;fill:#A0A09F;}
	
		.st1{fill:url(#SVGID_1_);stroke:url(#SVGID_00000081616297291752904870000009674185739176770714_);stroke-width:8;stroke-miterlimit:10;}
	.st2{fill:none;stroke:#000000;stroke-width:8;stroke-linecap:round;stroke-miterlimit:10;}
	.st3{fill:#5691CC;stroke:url(#SVGID_00000019669623427456795040000005412503817052226692_);stroke-width:8;stroke-miterlimit:10;}
	.st4{fill:#5691CC;stroke:url(#SVGID_00000093855055409864120120000015667586244656551353_);stroke-width:8;stroke-miterlimit:10;}
	.st5{fill:#D3DDDD;stroke:#000000;stroke-width:8;stroke-miterlimit:10;}
	
		.st6{fill:url(#SVGID_00000078765835898711162290000005326226704521443222_);stroke:url(#SVGID_00000003090872497010505890000017371583906176196246_);stroke-width:8;stroke-miterlimit:10;}
	.st7{fill:#5691CC;stroke:url(#SVGID_00000154423850060063846630000008599310567508897440_);stroke-width:8;stroke-miterlimit:10;}
	.st8{fill:#5691CC;stroke:url(#SVGID_00000168822296870200104560000013534197066575668107_);stroke-width:8;stroke-miterlimit:10;}
	.st9{fill:#D3DDDD;stroke:#F7A51E;stroke-width:8;stroke-miterlimit:10;}
	
		.st10{fill:url(#SVGID_00000068658111368720515820000004781891705592336526_);stroke:url(#SVGID_00000114074159753001880330000008069607193951800219_);stroke-width:8;stroke-miterlimit:10;}
	.st11{fill:#5691CC;stroke:url(#SVGID_00000183966138950327003780000001767458415835188391_);stroke-width:8;stroke-miterlimit:10;}
	.st12{fill:#5691CC;stroke:url(#SVGID_00000132767574867812227950000002225067189830117011_);stroke-width:8;stroke-miterlimit:10;}
	.st13{fill:#D3DDDD;stroke:#3BB1E6;stroke-width:8;stroke-miterlimit:10;}
	.st14{opacity:0.5;fill:#949494;}
	
		.st15{fill:url(#SVGID_00000140725655516413775490000014510668361983954604_);stroke:url(#SVGID_00000028284402852158249780000018077080182589543296_);stroke-width:8;stroke-miterlimit:10;}
	.st16{fill:#969696;stroke:url(#SVGID_00000070816573898719042190000000126248602518683824_);stroke-width:8;stroke-miterlimit:10;}
	.st17{fill:#969696;stroke:url(#SVGID_00000051366691725757472200000013763373384710310294_);stroke-width:8;stroke-miterlimit:10;}
	.st18{fill:#DFDFDF;stroke:#000000;stroke-width:8;stroke-miterlimit:10;}
</style>
<polygon class="st0" points="434.83,107.68 434.83,459.06 119.81,459.06 119.81,478.23 450.74,478.23 450.74,124.17 "/>
<linearGradient id="SVGID_1_" gradientUnits="userSpaceOnUse" x1="61.4575" y1="1971.8975" x2="441.2725" y2="1592.0825" gradientTransform="matrix(1 0 0 -1 0 2048)">
	<stop  offset="0" style="stop-color:#FBF9F4"/>
	<stop  offset="1" style="stop-color:#C8E3F0"/>
</linearGradient>
<linearGradient id="SVGID_00000044145095221320400450000013744126462649201581_" gradientUnits="userSpaceOnUse" x1="38.4303" y1="1911.8713" x2="481.7245" y2="1655.9354" gradientTransform="matrix(1 0 0 -1 0 2048)">
	<stop  offset="0" style="stop-color:#A4C6EA"/>
	<stop  offset="1" style="stop-color:#606086"/>
</linearGradient>
<polygon style="fill:url(#SVGID_1_);stroke:url(#SVGID_00000044145095221320400450000013744126462649201581_);stroke-width:8;stroke-miterlimit:10;" points="
	434.83,462.36 103.9,462.36 103.9,33.66 362.83,33.66 434.83,108.3 "/>
<line class="st2" x1="363.66" y1="33.66" x2="435.42" y2="109.11"/>
<linearGradient id="SVGID_00000036950772666733147010000016191399563778108840_" gradientUnits="userSpaceOnUse" x1="339.1183" y1="1988.0908" x2="438.1948" y2="1930.889" gradientTransform="matrix(1 0 0 -1 0 2048)">
	<stop  offset="0" style="stop-color:#A4C6EA"/>
	<stop  offset="1" style="stop-color:#606086"/>
</linearGradient>
<polyline style="fill:#5691CC;stroke:url(#SVGID_00000036950772666733147010000016191399563778108840_);stroke-width:8;stroke-miterlimit:10;" points="
	360.66,29.53 360.58,111.11 439.35,111.11 "/>
<linearGradient id="SVGID_00000078738526513771201820000005047772772575816108_" gradientUnits="userSpaceOnUse" x1="360.66" y1="2014.34" x2="360.66" y2="2014.34" gradientTransform="matrix(1 0 0 -1 0 2048)">
	<stop  offset="0" style="stop-color:#A4C6EA"/>
	<stop  offset="1" style="stop-color:#606086"/>
</linearGradient>
<path style="fill:#5691CC;stroke:url(#SVGID_00000078738526513771201820000005047772772575816108_);stroke-width:8;stroke-miterlimit:10;" d="
	M360.66,33.66"/>
<path class="st5" d="M234.78,192.28H167.4c-11.72,0-21.22-9.5-21.22-21.22v-19.64c0-11.72,9.5-21.22,21.22-21.22h67.38
	c11.72,0,21.22,9.5,21.22,21.22v19.64C256,182.78,246.5,192.28,234.78,192.28z"/>
<path class="st5" d="M365.56,192.28h-67.38c-11.72,0-21.22-9.5-21.22-21.22v-19.64c0-11.72,9.5-21.22,21.22-21.22h67.38
	c11.72,0,21.22,9.5,21.22,21.22v19.64C386.79,182.78,377.29,192.28,365.56,192.28z"/>
<path class="st5" d="M234.78,303.53H167.4c-11.72,0-21.22-9.5-21.22-21.22v-19.64c0-11.72,9.5-21.22,21.22-21.22h67.38
	c11.72,0,21.22,9.5,21.22,21.22v19.64C256,294.03,246.5,303.53,234.78,303.53z"/>
<path class="st5" d="M365.56,303.53h-67.38c-11.72,0-21.22-9.5-21.22-21.22v-19.64c0-11.72,9.5-21.22,21.22-21.22h67.38
	c11.72,0,21.22,9.5,21.22,21.22v19.64C386.79,294.03,377.29,303.53,365.56,303.53z"/>
<path class="st5" d="M237.66,404.78h-67.38c-11.72,0-21.22-9.5-21.22-21.22v-19.64c0-11.72,9.5-21.22,21.22-21.22h67.38
	c11.72,0,21.22,9.5,21.22,21.22v19.64C258.89,395.28,249.38,404.78,237.66,404.78z"/>
<path class="st5" d="M368.45,404.78h-67.38c-11.72,0-21.22-9.5-21.22-21.22v-19.64c0-11.72,9.5-21.22,21.22-21.22h67.38
	c11.72,0,21.22,9.5,21.22,21.22v19.64C389.67,395.28,380.17,404.78,368.45,404.78z"/>
<polygon class="st0" points="434.83,618.99 434.83,970.37 119.81,970.37 119.81,989.54 450.74,989.54 450.74,635.49 "/>
<linearGradient id="SVGID_00000088133990186096694850000006024107017351404190_" gradientUnits="userSpaceOnUse" x1="61.4575" y1="1460.5875" x2="441.2725" y2="1080.7725" gradientTransform="matrix(1 0 0 -1 0 2048)">
	<stop  offset="0" style="stop-color:#FBF9F4"/>
	<stop  offset="1" style="stop-color:#C8E3F0"/>
</linearGradient>
<linearGradient id="SVGID_00000033349623024565892290000008657202451978744212_" gradientUnits="userSpaceOnUse" x1="38.4303" y1="1400.5614" x2="481.7245" y2="1144.6255" gradientTransform="matrix(1 0 0 -1 0 2048)">
	<stop  offset="0" style="stop-color:#A4C6EA"/>
	<stop  offset="1" style="stop-color:#606086"/>
</linearGradient>
<polygon style="fill:url(#SVGID_00000088133990186096694850000006024107017351404190_);stroke:url(#SVGID_00000033349623024565892290000008657202451978744212_);stroke-width:8;stroke-miterlimit:10;" points="
	434.83,973.67 103.9,973.67 103.9,544.97 362.83,544.97 434.83,619.61 "/>
<line class="st2" x1="363.66" y1="544.97" x2="435.42" y2="620.42"/>
<linearGradient id="SVGID_00000116200565425763488790000005581623020787041678_" gradientUnits="userSpaceOnUse" x1="339.1184" y1="1476.7809" x2="438.1948" y2="1419.5791" gradientTransform="matrix(1 0 0 -1 0 2048)">
	<stop  offset="0" style="stop-color:#A4C6EA"/>
	<stop  offset="1" style="stop-color:#606086"/>
</linearGradient>
<polyline style="fill:#5691CC;stroke:url(#SVGID_00000116200565425763488790000005581623020787041678_);stroke-width:8;stroke-miterlimit:10;" points="
	360.66,540.84 360.58,622.42 439.35,622.42 "/>
<linearGradient id="SVGID_00000121241431026226717530000012014639062423449005_" gradientUnits="userSpaceOnUse" x1="360.66" y1="1503.03" x2="360.66" y2="1503.03" gradientTransform="matrix(1 0 0 -1 0 2048)">
	<stop  offset="0" style="stop-color:#A4C6EA"/>
	<stop  offset="1" style="stop-color:#606086"/>
</linearGradient>
<path style="fill:#5691CC;stroke:url(#SVGID_00000121241431026226717530000012014639062423449005_);stroke-width:8;stroke-miterlimit:10;" d="
	M360.66,544.97"/>
<path class="st9" d="M234.78,703.6H167.4c-11.72,0-21.22-9.5-21.22-21.22v-19.64c0-11.72,9.5-21.22,21.22-21.22h67.38
	c11.72,0,21.22,9.5,21.22,21.22v19.64C256,694.09,246.5,703.6,234.78,703.6z"/>
<path class="st9" d="M365.56,703.6h-67.38c-11.72,0-21.22-9.5-21.22-21.22v-19.64c0-11.72,9.5-21.22,21.22-21.22h67.38
	c11.72,0,21.22,9.5,21.22,21.22v19.64C386.79,694.09,377.29,703.6,365.56,703.6z"/>
<path class="st9" d="M234.78,814.84H167.4c-11.72,0-21.22-9.5-21.22-21.22v-19.64c0-11.72,9.5-21.22,21.22-21.22h67.38
	c11.72,0,21.22,9.5,21.22,21.22v19.64C256,805.34,246.5,814.84,234.78,814.84z"/>
<path class="st9" d="M365.56,814.84h-67.38c-11.72,0-21.22-9.5-21.22-21.22v-19.64c0-11.72,9.5-21.22,21.22-21.22h67.38
	c11.72,0,21.22,9.5,21.22,21.22v19.64C386.79,805.34,377.29,814.84,365.56,814.84z"/>
<path class="st9" d="M237.66,916.09h-67.38c-11.72,0-21.22-9.5-21.22-21.22v-19.64c0-11.72,9.5-21.22,21.22-21.22h67.38
	c11.72,0,21.22,9.5,21.22,21.22v19.64C258.89,906.59,249.38,916.09,237.66,916.09z"/>
<path class="st9" d="M368.45,916.09h-67.38c-11.72,0-21.22-9.5-21.22-21.22v-19.64c0-11.72,9.5-21.22,21.22-21.22h67.38
	c11.72,0,21.22,9.5,21.22,21.22v19.64C389.67,906.59,380.17,916.09,368.45,916.09z"/>
<polygon class="st0" points="434.83,1131.68 434.83,1483.06 119.81,1483.06 119.81,1502.23 450.74,1502.23 450.74,1148.17 "/>
<linearGradient id="SVGID_00000119810561288536170630000012502537629067412156_" gradientUnits="userSpaceOnUse" x1="61.4575" y1="947.8975" x2="441.2725" y2="568.0825" gradientTransform="matrix(1 0 0 -1 0 2048)">
	<stop  offset="0" style="stop-color:#FBF9F4"/>
	<stop  offset="1" style="stop-color:#C8E3F0"/>
</linearGradient>
<linearGradient id="SVGID_00000047040832474669522110000008586377134416547983_" gradientUnits="userSpaceOnUse" x1="38.4303" y1="887.8713" x2="481.7245" y2="631.9354" gradientTransform="matrix(1 0 0 -1 0 2048)">
	<stop  offset="0" style="stop-color:#A4C6EA"/>
	<stop  offset="1" style="stop-color:#606086"/>
</linearGradient>
<polygon style="fill:url(#SVGID_00000119810561288536170630000012502537629067412156_);stroke:url(#SVGID_00000047040832474669522110000008586377134416547983_);stroke-width:8;stroke-miterlimit:10;" points="
	434.83,1486.36 103.9,1486.36 103.9,1057.66 362.83,1057.66 434.83,1132.3 "/>
<line class="st2" x1="363.66" y1="1057.66" x2="435.42" y2="1133.11"/>
<linearGradient id="SVGID_00000078005958402140765030000006597352995556564357_" gradientUnits="userSpaceOnUse" x1="339.1183" y1="964.0909" x2="438.1948" y2="906.889" gradientTransform="matrix(1 0 0 -1 0 2048)">
	<stop  offset="0" style="stop-color:#A4C6EA"/>
	<stop  offset="1" style="stop-color:#606086"/>
</linearGradient>
<polyline style="fill:#5691CC;stroke:url(#SVGID_00000078005958402140765030000006597352995556564357_);stroke-width:8;stroke-miterlimit:10;" points="
	360.66,1053.53 360.58,1135.11 439.35,1135.11 "/>
<linearGradient id="SVGID_00000089551400213421663100000001988848445127187846_" gradientUnits="userSpaceOnUse" x1="360.66" y1="990.34" x2="360.66" y2="990.34" gradientTransform="matrix(1 0 0 -1 0 2048)">
	<stop  offset="0" style="stop-color:#A4C6EA"/>
	<stop  offset="1" style="stop-color:#606086"/>
</linearGradient>
<path style="fill:#5691CC;stroke:url(#SVGID_00000089551400213421663100000001988848445127187846_);stroke-width:8;stroke-miterlimit:10;" d="
	M360.66,1057.66"/>
<path class="st13" d="M234.78,1216.28H167.4c-11.72,0-21.22-9.5-21.22-21.22v-19.64c0-11.72,9.5-21.22,21.22-21.22h67.38
	c11.72,0,21.22,9.5,21.22,21.22v19.64C256,1206.78,246.5,1216.28,234.78,1216.28z"/>
<path class="st13" d="M365.56,1216.28h-67.38c-11.72,0-21.22-9.5-21.22-21.22v-19.64c0-11.72,9.5-21.22,21.22-21.22h67.38
	c11.72,0,21.22,9.5,21.22,21.22v19.64C386.79,1206.78,377.29,1216.28,365.56,1216.28z"/>
<path class="st13" d="M234.78,1327.53H167.4c-11.72,0-21.22-9.5-21.22-21.22v-19.64c0-11.72,9.5-21.22,21.22-21.22h67.38
	c11.72,0,21.22,9.5,21.22,21.22v19.64C256,1318.03,246.5,1327.53,234.78,1327.53z"/>
<path class="st13" d="M365.56,1327.53h-67.38c-11.72,0-21.22-9.5-21.22-21.22v-19.64c0-11.72,9.5-21.22,21.22-21.22h67.38
	c11.72,0,21.22,9.5,21.22,21.22v19.64C386.79,1318.03,377.29,1327.53,365.56,1327.53z"/>
<path class="st13" d="M237.66,1428.78h-67.38c-11.72,0-21.22-9.5-21.22-21.22v-19.64c0-11.72,9.5-21.22,21.22-21.22h67.38
	c11.72,0,21.22,9.5,21.22,21.22v19.64C258.89,1419.28,249.38,1428.78,237.66,1428.78z"/>
<path class="st13" d="M368.45,1428.78h-67.38c-11.72,0-21.22-9.5-21.22-21.22v-19.64c0-11.72,9.5-21.22,21.22-21.22h67.38
	c11.72,0,21.22,9.5,21.22,21.22v19.64C389.67,1419.28,380.17,1428.78,368.45,1428.78z"/>
<polygon class="st14" points="434.83,1644.37 434.83,1995.74 119.81,1995.74 119.81,2014.92 450.74,2014.92 450.74,1660.86 "/>
<linearGradient id="SVGID_00000168107541438558748960000011365675982657405372_" gradientUnits="userSpaceOnUse" x1="61.4575" y1="435.2075" x2="441.2725" y2="55.3925" gradientTransform="matrix(1 0 0 -1 0 2048)">
	<stop  offset="0" style="stop-color:#F8F8F8"/>
	<stop  offset="1" style="stop-color:#E6E6E6"/>
</linearGradient>
<linearGradient id="SVGID_00000155145154056203941840000011815145536998385580_" gradientUnits="userSpaceOnUse" x1="38.4303" y1="375.1814" x2="481.7245" y2="119.2454" gradientTransform="matrix(1 0 0 -1 0 2048)">
	<stop  offset="0" style="stop-color:#CCCCCC"/>
	<stop  offset="1" style="stop-color:#4E4E4E"/>
</linearGradient>
<polygon style="fill:url(#SVGID_00000168107541438558748960000011365675982657405372_);stroke:url(#SVGID_00000155145154056203941840000011815145536998385580_);stroke-width:8;stroke-miterlimit:10;" points="
	434.83,1999.05 103.9,1999.05 103.9,1570.35 362.83,1570.35 434.83,1644.99 "/>
<line class="st2" x1="363.66" y1="1570.35" x2="435.42" y2="1645.8"/>
<linearGradient id="SVGID_00000020389430331244389430000008560417839626821273_" gradientUnits="userSpaceOnUse" x1="339.1183" y1="451.4009" x2="438.1948" y2="394.199" gradientTransform="matrix(1 0 0 -1 0 2048)">
	<stop  offset="0" style="stop-color:#CCCCCC"/>
	<stop  offset="1" style="stop-color:#4E4E4E"/>
</linearGradient>
<polyline style="fill:#969696;stroke:url(#SVGID_00000020389430331244389430000008560417839626821273_);stroke-width:8;stroke-miterlimit:10;" points="
	360.66,1566.22 360.58,1647.8 439.35,1647.8 "/>
<linearGradient id="SVGID_00000150104272358436498190000008113888686159432596_" gradientUnits="userSpaceOnUse" x1="360.66" y1="477.65" x2="360.66" y2="477.65" gradientTransform="matrix(1 0 0 -1 0 2048)">
	<stop  offset="0" style="stop-color:#CCCCCC"/>
	<stop  offset="1" style="stop-color:#4E4E4E"/>
</linearGradient>
<path style="fill:#969696;stroke:url(#SVGID_00000150104272358436498190000008113888686159432596_);stroke-width:8;stroke-miterlimit:10;" d="
	M360.66,1570.35"/>
<path class="st18" d="M234.78,1728.97H167.4c-11.72,0-21.22-9.5-21.22-21.22v-19.64c0-11.72,9.5-21.22,21.22-21.22h67.38
	c11.72,0,21.22,9.5,21.22,21.22v19.64C256,1719.47,246.5,1728.97,234.78,1728.97z"/>
<path class="st18" d="M365.56,1728.97h-67.38c-11.72,0-21.22-9.5-21.22-21.22v-19.64c0-11.72,9.5-21.22,21.22-21.22h67.38
	c11.72,0,21.22,9.5,21.22,21.22v19.64C386.79,1719.47,377.29,1728.97,365.56,1728.97z"/>
<path class="st18" d="M234.78,1840.22H167.4c-11.72,0-21.22-9.5-21.22-21.22v-19.64c0-11.72,9.5-21.22,21.22-21.22h67.38
	c11.72,0,21.22,9.5,21.22,21.22V1819C256,1830.72,246.5,1840.22,234.78,1840.22z"/>
<path class="st18" d="M365.56,1840.22h-67.38c-11.72,0-21.22-9.5-21.22-21.22v-19.64c0-11.72,9.5-21.22,21.22-21.22h67.38
	c11.72,0,21.22,9.5,21.22,21.22V1819C386.79,1830.72,377.29,1840.22,365.56,1840.22z"/>
<path class="st18" d="M237.66,1941.47h-67.38c-11.72,0-21.22-9.5-21.22-21.22v-19.64c0-11.72,9.5-21.22,21.22-21.22h67.38
	c11.72,0,21.22,9.5,21.22,21.22v19.64C258.89,1931.97,249.38,1941.47,237.66,1941.47z"/>
<path class="st18" d="M368.45,1941.47h-67.38c-11.72,0-21.22-9.5-21.22-21.22v-19.64c0-11.72,9.5-21.22,21.22-21.22h67.38
	c11.72,0,21.22,9.5,21.22,21.22v19.64C389.67,1931.97,380.17,1941.47,368.45,1941.47z"/>
</svg>
