<?xml version="1.0" encoding="utf-8"?>
<!-- Generator: Adobe Illustrator 27.0.1, SVG Export Plug-In . SVG Version: 6.00 Build 0)  -->
<svg version="1.1" id="Calque_1" xmlns="http://www.w3.org/2000/svg" xmlns:xlink="http://www.w3.org/1999/xlink" x="0px" y="0px"
	 viewBox="0 0 512 2048" style="enable-background:new 0 0 512 2048;" xml:space="preserve">
<style type="text/css">
	.st0{opacity:0.5;fill:none;stroke:#949494;stroke-width:8;stroke-miterlimit:10;enable-background:new    ;}
	.st1{fill:url(#SVGID_1_);}
	.st2{fill:url(#SVGID_00000122679671850475966100000007474595516634185396_);}
	.st3{fill:none;stroke:#000000;stroke-miterlimit:10;}
	.st4{fill:none;stroke:#636363;stroke-width:8;stroke-miterlimit:10;}
	.st5{fill:url(#SVGID_00000170246768194702637830000012118087981980395928_);stroke:#636363;stroke-width:8;stroke-miterlimit:10;}
	.st6{fill:url(#SVGID_00000013910860319575740850000015979406951692512928_);stroke:#787878;stroke-width:4;stroke-miterlimit:10;}
	.st7{fill:url(#SVGID_00000132779153851743847150000013742674721890666419_);stroke:#636363;stroke-width:8;stroke-miterlimit:10;}
	.st8{opacity:0.5;fill:none;stroke:#A0A09F;stroke-width:8;stroke-miterlimit:10;enable-background:new    ;}
	.st9{fill:url(#SVGID_00000013160026605547968420000000060818949910060734_);}
	.st10{fill:url(#SVGID_00000070817190099378296420000002650288667273510577_);}
	.st11{fill:none;stroke:#82827F;stroke-width:8;stroke-miterlimit:10;}
	.st12{fill:url(#SVGID_00000121256315663583893680000003438822805300211849_);stroke:#82827F;stroke-width:8;stroke-miterlimit:10;}
	.st13{fill:url(#SVGID_00000001621310016912654180000004633662847300577468_);stroke:#448A4F;stroke-width:4;stroke-miterlimit:10;}
	.st14{fill:url(#SVGID_00000065035855780738691250000008752217177611681711_);stroke:#82827F;stroke-width:8;stroke-miterlimit:10;}
	.st15{fill:url(#SVGID_00000124863282506286438750000007455059597714462854_);}
	.st16{fill:url(#SVGID_00000098915495336952819760000003221528700558067861_);}
	.st17{fill:url(#SVGID_00000104665656431181147500000008305609994425631163_);stroke:#82827F;stroke-width:8;stroke-miterlimit:10;}
	.st18{fill:url(#SVGID_00000087389841855055371840000002368875751247814823_);stroke:#448A4F;stroke-width:4;stroke-miterlimit:10;}
	.st19{fill:url(#SVGID_00000146459206458149046450000000851413484986153917_);stroke:#82827F;stroke-width:8;stroke-miterlimit:10;}
	.st20{fill:url(#SVGID_00000173882248693272580780000016280717623250986630_);}
	.st21{fill:url(#SVGID_00000170958946330092322670000017647598910207733645_);}
	.st22{fill:url(#SVGID_00000045610741067909381270000012338404593080936068_);stroke:#82827F;stroke-width:8;stroke-miterlimit:10;}
	.st23{fill:url(#SVGID_00000065780854728476230350000004483901142651940765_);stroke:#82827F;stroke-width:8;stroke-miterlimit:10;}
	.st24{fill:url(#SVGID_00000039103245910429068030000016413038694467722133_);stroke:#448A4F;stroke-width:4;stroke-miterlimit:10;}
	.st25{fill:url(#SVGID_00000158027582046811198550000004110238316458339717_);stroke:#82827F;stroke-width:8;stroke-miterlimit:10;}
	.st26{fill:url(#SVGID_00000169540361820952405120000016960011673764681149_);stroke:#030304;stroke-width:8;stroke-miterlimit:10;}
	.st27{fill:url(#SVGID_00000121269492221393614500000014734248142336787109_);stroke:#030304;stroke-width:8;stroke-miterlimit:10;}
	.st28{fill:url(#SVGID_00000045582491859125590200000010927230186395806854_);stroke:#030304;stroke-width:8;stroke-miterlimit:10;}
	.st29{fill:url(#SVGID_00000103256359777408020350000007150154455624993925_);stroke:#030304;stroke-width:8;stroke-miterlimit:10;}
	.st30{fill:url(#SVGID_00000101789712297936054670000001293557792946317478_);stroke:#030304;stroke-width:8;stroke-miterlimit:10;}
	.st31{fill:url(#SVGID_00000008844738570105962920000005799348816712411526_);stroke:#030304;stroke-width:8;stroke-miterlimit:10;}
	.st32{fill:url(#SVGID_00000030451882174422978680000012058915828087633822_);stroke:#020203;stroke-width:8;stroke-miterlimit:10;}
	.st33{fill:url(#SVGID_00000173862788130279485100000016683392982625915546_);stroke:#020203;stroke-width:8;stroke-miterlimit:10;}
</style>
<polyline class="st0" points="26.63,1895.96 262.64,2008.01 490.41,1907.54 "/>
<linearGradient id="SVGID_1_" gradientUnits="userSpaceOnUse" x1="257.69" y1="314.71" x2="257.69" y2="140.46" gradientTransform="matrix(1 0 0 -1 0 2048)">
	<stop  offset="0" style="stop-color:#949494"/>
	<stop  offset="1" style="stop-color:#EBEBEB"/>
</linearGradient>
<polygon class="st1" points="28.04,1807.87 246.78,1733.29 487.34,1818.36 262.64,1907.54 "/>
<linearGradient id="SVGID_00000041269576322573223380000000814229415599284401_" gradientUnits="userSpaceOnUse" x1="144.21" y1="240.73" x2="144.21" y2="47.1899" gradientTransform="matrix(1 0 0 -1 0 2048)">
	<stop  offset="0" style="stop-color:#949494"/>
	<stop  offset="1" style="stop-color:#EBEBEB"/>
</linearGradient>
<polygon style="fill:url(#SVGID_00000041269576322573223380000000814229415599284401_);" points="26.63,1807.27 261.79,1907.1 
	261.79,2000.81 26.63,1890.5 "/>
<path class="st3" d="M366.71,1991.99"/>
<polygon class="st4" points="26.63,1890.5 26.63,1807.27 245.94,1736.59 487.34,1818.36 484.39,1898.42 261.79,2000.81 "/>
<linearGradient id="SVGID_00000107578071879035687600000006155551326611575965_" gradientUnits="userSpaceOnUse" x1="262.64" y1="138.315" x2="487.35" y2="138.315" gradientTransform="matrix(1 0 0 -1 0 2048)">
	<stop  offset="0" style="stop-color:#999999"/>
	<stop  offset="1" style="stop-color:#6A6A6A"/>
</linearGradient>
<path style="fill:url(#SVGID_00000107578071879035687600000006155551326611575965_);stroke:#636363;stroke-width:8;stroke-miterlimit:10;" d="
	M262.64,1997.51c0-1.98,0-89.97,0-89.97l224.71-85.68l-2.95,82.37L262.64,1997.51z"/>
<polyline class="st4" points="219.23,1982.7 219.24,1889.54 448.37,1806.51 "/>
<linearGradient id="SVGID_00000086666451447838029300000016250031407983856537_" gradientUnits="userSpaceOnUse" x1="281.94" y1="140.46" x2="460.94" y2="140.46" gradientTransform="matrix(1 0 0 -1 0 2048)">
	<stop  offset="0" style="stop-color:#A5A5A5"/>
	<stop  offset="1" style="stop-color:#D9D9D9"/>
</linearGradient>
<polygon style="fill:url(#SVGID_00000086666451447838029300000016250031407983856537_);stroke:#787878;stroke-width:4;stroke-miterlimit:10;" points="
	281.94,1926.69 460.94,1857.34 460.2,1883.12 281.94,1957.74 "/>
<linearGradient id="SVGID_00000181059869148907921310000013618290378099350916_" gradientUnits="userSpaceOnUse" x1="176.76" y1="216.02" x2="409.1" y2="216.02" gradientTransform="matrix(1 0 0 -1 0 2048)">
	<stop  offset="0" style="stop-color:#EFEFEF"/>
	<stop  offset="1" style="stop-color:#C5C5C5"/>
</linearGradient>
<polygon style="fill:url(#SVGID_00000181059869148907921310000013618290378099350916_);stroke:#636363;stroke-width:8;stroke-miterlimit:10;" points="
	176.76,1840.31 320.56,1789.75 409.1,1819.53 261.79,1874.21 "/>
<polyline class="st8" points="26.63,1384.96 262.64,1497.01 490.41,1396.54 "/>
<linearGradient id="SVGID_00000017483012331668275630000009950624562486290074_" gradientUnits="userSpaceOnUse" x1="257.69" y1="825.71" x2="257.69" y2="651.46" gradientTransform="matrix(1 0 0 -1 0 2048)">
	<stop  offset="0" style="stop-color:#8F8FBC"/>
	<stop  offset="1" style="stop-color:#EAEAE7"/>
</linearGradient>
<polygon style="fill:url(#SVGID_00000017483012331668275630000009950624562486290074_);" points="28.04,1296.87 246.78,1222.29 
	487.34,1307.36 262.64,1396.54 "/>
<linearGradient id="SVGID_00000144307661697205030310000006975024395213258369_" gradientUnits="userSpaceOnUse" x1="144.21" y1="751.73" x2="144.21" y2="558.1899" gradientTransform="matrix(1 0 0 -1 0 2048)">
	<stop  offset="0" style="stop-color:#8F8FBC"/>
	<stop  offset="1" style="stop-color:#EAEAE7"/>
</linearGradient>
<polygon style="fill:url(#SVGID_00000144307661697205030310000006975024395213258369_);" points="26.63,1296.27 261.79,1396.1 
	261.79,1489.81 26.63,1379.5 "/>
<path class="st3" d="M366.71,1480.99"/>
<polygon class="st11" points="26.63,1379.5 26.63,1296.27 245.94,1225.59 487.34,1307.36 484.39,1387.42 261.79,1489.81 "/>
<linearGradient id="SVGID_00000051361641338505378000000011431028719615035297_" gradientUnits="userSpaceOnUse" x1="262.64" y1="649.315" x2="487.35" y2="649.315" gradientTransform="matrix(1 0 0 -1 0 2048)">
	<stop  offset="0" style="stop-color:#A4A4A1"/>
	<stop  offset="1" style="stop-color:#7E7E8F"/>
</linearGradient>
<path style="fill:url(#SVGID_00000051361641338505378000000011431028719615035297_);stroke:#82827F;stroke-width:8;stroke-miterlimit:10;" d="
	M262.64,1486.51c0-1.98,0-89.97,0-89.97l224.71-85.68l-2.95,82.37L262.64,1486.51z"/>
<polyline class="st11" points="219.23,1471.7 219.24,1378.54 448.37,1295.51 "/>
<linearGradient id="SVGID_00000041266436251046112990000017937123120628545409_" gradientUnits="userSpaceOnUse" x1="281.94" y1="651.46" x2="460.94" y2="651.46" gradientTransform="matrix(1 0 0 -1 0 2048)">
	<stop  offset="0" style="stop-color:#51A656"/>
	<stop  offset="1" style="stop-color:#C4D9BE"/>
</linearGradient>
<polygon style="fill:url(#SVGID_00000041266436251046112990000017937123120628545409_);stroke:#448A4F;stroke-width:4;stroke-miterlimit:10;" points="
	281.94,1415.69 460.94,1346.34 460.2,1372.12 281.94,1446.74 "/>
<linearGradient id="SVGID_00000092440740197646215730000008516939442474313619_" gradientUnits="userSpaceOnUse" x1="176.76" y1="727.02" x2="409.1" y2="727.02" gradientTransform="matrix(1 0 0 -1 0 2048)">
	<stop  offset="0" style="stop-color:#DFEEF3"/>
	<stop  offset="1" style="stop-color:#77BFD5"/>
</linearGradient>
<polygon style="fill:url(#SVGID_00000092440740197646215730000008516939442474313619_);stroke:#82827F;stroke-width:8;stroke-miterlimit:10;" points="
	176.76,1329.31 320.56,1278.75 409.1,1308.53 261.79,1363.21 "/>
<polyline class="st8" points="36.63,882.63 272.64,994.68 500.41,894.21 "/>
<linearGradient id="SVGID_00000129193172231155998580000016328300175397864620_" gradientUnits="userSpaceOnUse" x1="267.69" y1="1328.05" x2="267.69" y2="1153.79" gradientTransform="matrix(1 0 0 -1 0 2048)">
	<stop  offset="0" style="stop-color:#8F8FBC"/>
	<stop  offset="1" style="stop-color:#EAEAE7"/>
</linearGradient>
<polygon style="fill:url(#SVGID_00000129193172231155998580000016328300175397864620_);" points="38.04,794.53 256.78,719.95 
	497.34,805.03 272.64,894.21 "/>
<linearGradient id="SVGID_00000121986102733308274390000002699162621997563038_" gradientUnits="userSpaceOnUse" x1="154.21" y1="1254.0601" x2="154.21" y2="1060.52" gradientTransform="matrix(1 0 0 -1 0 2048)">
	<stop  offset="0" style="stop-color:#8F8FBC"/>
	<stop  offset="1" style="stop-color:#EAEAE7"/>
</linearGradient>
<polygon style="fill:url(#SVGID_00000121986102733308274390000002699162621997563038_);" points="36.63,793.94 271.79,893.77 
	271.79,987.48 36.63,877.17 "/>
<path class="st3" d="M366.71,968.65"/>
<polygon class="st11" points="36.63,877.17 36.63,793.94 255.94,723.26 497.34,805.03 494.39,885.09 271.79,987.48 "/>
<linearGradient id="SVGID_00000132766288289144826950000002574160243402502304_" gradientUnits="userSpaceOnUse" x1="272.64" y1="1151.655" x2="497.35" y2="1151.655" gradientTransform="matrix(1 0 0 -1 0 2048)">
	<stop  offset="0" style="stop-color:#A4A4A1"/>
	<stop  offset="1" style="stop-color:#7E7E8F"/>
</linearGradient>
<path style="fill:url(#SVGID_00000132766288289144826950000002574160243402502304_);stroke:#82827F;stroke-width:8;stroke-miterlimit:10;" d="
	M272.64,984.17c0-1.98,0-89.97,0-89.97l224.71-85.68l-2.95,82.37L272.64,984.17z"/>
<polyline class="st11" points="229.23,969.37 229.24,876.21 458.37,793.17 "/>
<linearGradient id="SVGID_00000163789302983006444860000008630696127041591181_" gradientUnits="userSpaceOnUse" x1="291.94" y1="1153.79" x2="470.94" y2="1153.79" gradientTransform="matrix(1 0 0 -1 0 2048)">
	<stop  offset="0" style="stop-color:#51A656"/>
	<stop  offset="1" style="stop-color:#C4D9BE"/>
</linearGradient>
<polygon style="fill:url(#SVGID_00000163789302983006444860000008630696127041591181_);stroke:#448A4F;stroke-width:4;stroke-miterlimit:10;" points="
	291.94,913.36 470.94,844.01 470.2,869.78 291.94,944.41 "/>
<linearGradient id="SVGID_00000123398636997451270230000005609703713661542305_" gradientUnits="userSpaceOnUse" x1="186.76" y1="1229.35" x2="419.1" y2="1229.35" gradientTransform="matrix(1 0 0 -1 0 2048)">
	<stop  offset="0" style="stop-color:#DFEEF3"/>
	<stop  offset="1" style="stop-color:#77BFD5"/>
</linearGradient>
<polygon style="fill:url(#SVGID_00000123398636997451270230000005609703713661542305_);stroke:#82827F;stroke-width:8;stroke-miterlimit:10;" points="
	186.76,826.98 330.56,776.42 419.1,806.2 271.79,860.88 "/>
<polyline class="st8" points="26.63,360.96 262.64,473.01 490.41,372.54 "/>
<linearGradient id="SVGID_00000068670396390246412220000017588437486931041448_" gradientUnits="userSpaceOnUse" x1="257.69" y1="1849.71" x2="257.69" y2="1675.46" gradientTransform="matrix(1 0 0 -1 0 2048)">
	<stop  offset="0" style="stop-color:#8F8FBC"/>
	<stop  offset="1" style="stop-color:#EAEAE7"/>
</linearGradient>
<polygon style="fill:url(#SVGID_00000068670396390246412220000017588437486931041448_);" points="28.04,272.87 246.78,198.29 
	487.34,283.36 262.64,372.54 "/>
<linearGradient id="SVGID_00000000933010389578066770000009186061952223461533_" gradientUnits="userSpaceOnUse" x1="144.21" y1="1775.73" x2="144.21" y2="1582.1899" gradientTransform="matrix(1 0 0 -1 0 2048)">
	<stop  offset="0" style="stop-color:#8F8FBC"/>
	<stop  offset="1" style="stop-color:#EAEAE7"/>
</linearGradient>
<polygon style="fill:url(#SVGID_00000000933010389578066770000009186061952223461533_);" points="26.63,272.27 261.79,372.1 
	261.79,465.81 26.63,355.5 "/>
<path class="st3" d="M366.71,456.99"/>
<polygon class="st11" points="26.63,355.5 26.63,272.27 245.94,201.59 487.34,283.36 484.39,363.42 261.79,465.81 "/>
<linearGradient id="SVGID_00000098210530504676355460000000410314456293007500_" gradientUnits="userSpaceOnUse" x1="262.64" y1="1673.3149" x2="487.35" y2="1673.3149" gradientTransform="matrix(1 0 0 -1 0 2048)">
	<stop  offset="0" style="stop-color:#A4A4A1"/>
	<stop  offset="1" style="stop-color:#7E7E8F"/>
</linearGradient>
<path style="fill:url(#SVGID_00000098210530504676355460000000410314456293007500_);stroke:#82827F;stroke-width:8;stroke-miterlimit:10;" d="
	M262.64,462.51c0-1.98,0-89.97,0-89.97l224.71-85.68l-2.95,82.37L262.64,462.51z"/>
<polyline class="st11" points="219.23,447.7 219.24,354.54 448.37,271.51 "/>
<linearGradient id="SVGID_00000082349361833527662150000016141894852410496657_" gradientUnits="userSpaceOnUse" x1="256" y1="2085.02" x2="256" y2="2085.02" gradientTransform="matrix(1 0 0 -1 0 2048)">
	<stop  offset="0" style="stop-color:#A4A4A1"/>
	<stop  offset="1" style="stop-color:#7E7E8F"/>
</linearGradient>
<path style="fill:url(#SVGID_00000082349361833527662150000016141894852410496657_);stroke:#82827F;stroke-width:8;stroke-miterlimit:10;" d="
	M256-37.02"/>
<linearGradient id="SVGID_00000102504062222107037700000017731994960508946077_" gradientUnits="userSpaceOnUse" x1="281.94" y1="1675.46" x2="460.94" y2="1675.46" gradientTransform="matrix(1 0 0 -1 0 2048)">
	<stop  offset="0" style="stop-color:#51A656"/>
	<stop  offset="1" style="stop-color:#C4D9BE"/>
</linearGradient>
<polygon style="fill:url(#SVGID_00000102504062222107037700000017731994960508946077_);stroke:#448A4F;stroke-width:4;stroke-miterlimit:10;" points="
	281.94,391.69 460.94,322.34 460.2,348.12 281.94,422.74 "/>
<linearGradient id="SVGID_00000073712254067713705080000000975549441340719769_" gradientUnits="userSpaceOnUse" x1="176.76" y1="1751.02" x2="409.1" y2="1751.02" gradientTransform="matrix(1 0 0 -1 0 2048)">
	<stop  offset="0" style="stop-color:#DFEEF3"/>
	<stop  offset="1" style="stop-color:#77BFD5"/>
</linearGradient>
<polygon style="fill:url(#SVGID_00000073712254067713705080000000975549441340719769_);stroke:#82827F;stroke-width:8;stroke-miterlimit:10;" points="
	176.76,305.31 320.56,254.75 409.1,284.53 261.79,339.21 "/>
<linearGradient id="SVGID_00000163776355332692048600000010022082923990880191_" gradientUnits="userSpaceOnUse" x1="550.1033" y1="-1243.67" x2="550.1033" y2="-1027" gradientTransform="matrix(1 0 0 1 -197.2683 1282)">
	<stop  offset="0" style="stop-color:#BCDAAC"/>
	<stop  offset="1" style="stop-color:#44AC37"/>
</linearGradient>
<path style="fill:url(#SVGID_00000163776355332692048600000010022082923990880191_);stroke:#030304;stroke-width:8;stroke-miterlimit:10;" d="
	M378.74,229.93V63.4c0-13.85-11.22-25.07-25.07-25.07H352c-13.85,0-25.07,11.22-25.07,25.07v166.53c0,13.85,11.22,25.07,25.07,25.07
	h1.67C367.51,255,378.74,243.78,378.74,229.93z"/>
<linearGradient id="SVGID_00000059303464708862698000000016087743813326131619_" gradientUnits="userSpaceOnUse" x1="417.2965" y1="-1234.2693" x2="417.2965" y2="-1030.2401" gradientTransform="matrix(1 0 0 1 -197.2683 1282)">
	<stop  offset="0" style="stop-color:#BCDAAC"/>
	<stop  offset="1" style="stop-color:#44AC37"/>
</linearGradient>
<path style="fill:url(#SVGID_00000059303464708862698000000016087743813326131619_);stroke:#030304;stroke-width:8;stroke-miterlimit:10;" d="
	M141.02,60.46L141.02,60.46c-8.44,13.19-4.23,30.76,9.28,38.69l60.2,35.33c4.87,2.86,5.39,9.71,1,13.27l-61.9,50.24
	c-12.38,10.04-13.7,28.45-2.88,40.16l4.37,4.74c10.23,11.07,27.46,11.89,38.69,1.83l110.92-99.33c3.94-3.53,3.49-9.83-0.91-12.77
	L179.58,52.38C166.73,43.8,149.34,47.44,141.02,60.46z"/>
<linearGradient id="SVGID_00000120543840602492938320000011026960790082100617_" gradientUnits="userSpaceOnUse" x1="560.1033" y1="-721.67" x2="560.1033" y2="-504.9999" gradientTransform="matrix(1 0 0 1 -197.2683 1282)">
	<stop  offset="0" style="stop-color:#FFDD08"/>
	<stop  offset="1" style="stop-color:#F7A81E"/>
</linearGradient>
<path style="fill:url(#SVGID_00000120543840602492938320000011026960790082100617_);stroke:#030304;stroke-width:8;stroke-miterlimit:10;" d="
	M388.74,751.93V585.4c0-13.85-11.22-25.07-25.07-25.07H362c-13.85,0-25.07,11.22-25.07,25.07v166.53
	c0,13.85,11.22,25.07,25.07,25.07h1.67C377.51,777,388.74,765.78,388.74,751.93z"/>
<linearGradient id="SVGID_00000173123082506613922260000004126085100185878182_" gradientUnits="userSpaceOnUse" x1="427.2965" y1="-712.2693" x2="427.2965" y2="-508.2401" gradientTransform="matrix(1 0 0 1 -197.2683 1282)">
	<stop  offset="0" style="stop-color:#FFDD08"/>
	<stop  offset="1" style="stop-color:#F7A81E"/>
</linearGradient>
<path style="fill:url(#SVGID_00000173123082506613922260000004126085100185878182_);stroke:#030304;stroke-width:8;stroke-miterlimit:10;" d="
	M151.02,582.46L151.02,582.46c-8.44,13.19-4.23,30.76,9.28,38.69l60.2,35.33c4.87,2.86,5.39,9.71,1,13.27l-61.9,50.24
	c-12.38,10.04-13.7,28.45-2.88,40.16l4.37,4.74c10.23,11.07,27.46,11.89,38.69,1.83l110.92-99.33c3.94-3.53,3.49-9.83-0.91-12.77
	l-120.21-80.24C176.73,565.8,159.34,569.44,151.02,582.46z"/>
<linearGradient id="SVGID_00000152944907830152778410000010612578216244042132_" gradientUnits="userSpaceOnUse" x1="550.1033" y1="-219.6699" x2="550.1033" y2="-3" gradientTransform="matrix(1 0 0 1 -197.2683 1282)">
	<stop  offset="0" style="stop-color:#AED2EE"/>
	<stop  offset="1" style="stop-color:#3CB2E6"/>
</linearGradient>
<path style="fill:url(#SVGID_00000152944907830152778410000010612578216244042132_);stroke:#030304;stroke-width:8;stroke-miterlimit:10;" d="
	M378.74,1253.93V1087.4c0-13.85-11.22-25.07-25.07-25.07H352c-13.85,0-25.07,11.22-25.07,25.07v166.53
	c0,13.85,11.22,25.07,25.07,25.07h1.67C367.51,1279,378.74,1267.78,378.74,1253.93z"/>
<linearGradient id="SVGID_00000107590779294000172480000004894944490941101220_" gradientUnits="userSpaceOnUse" x1="417.2965" y1="-210.2693" x2="417.2965" y2="-6.2402" gradientTransform="matrix(1 0 0 1 -197.2683 1282)">
	<stop  offset="0" style="stop-color:#AED2EE"/>
	<stop  offset="1" style="stop-color:#3CB2E6"/>
</linearGradient>
<path style="fill:url(#SVGID_00000107590779294000172480000004894944490941101220_);stroke:#030304;stroke-width:8;stroke-miterlimit:10;" d="
	M141.02,1084.46L141.02,1084.46c-8.44,13.19-4.23,30.76,9.28,38.69l60.2,35.33c4.87,2.86,5.39,9.71,1,13.27l-61.9,50.24
	c-12.38,10.04-13.7,28.45-2.88,40.16l4.37,4.74c10.23,11.07,27.46,11.89,38.69,1.83l110.92-99.33c3.94-3.53,3.49-9.83-0.91-12.77
	l-120.21-80.24C166.73,1067.8,149.34,1071.44,141.02,1084.46z"/>
<linearGradient id="SVGID_00000132067890246338169900000016243787972476575910_" gradientUnits="userSpaceOnUse" x1="550.1033" y1="292.3301" x2="550.1033" y2="509" gradientTransform="matrix(1 0 0 1 -197.2683 1282)">
	<stop  offset="0" style="stop-color:#DADADA"/>
	<stop  offset="1" style="stop-color:#A9A9AA"/>
</linearGradient>
<path style="fill:url(#SVGID_00000132067890246338169900000016243787972476575910_);stroke:#020203;stroke-width:8;stroke-miterlimit:10;" d="
	M378.74,1765.93V1599.4c0-13.85-11.22-25.07-25.07-25.07H352c-13.85,0-25.07,11.22-25.07,25.07v166.53
	c0,13.85,11.22,25.07,25.07,25.07h1.67C367.51,1791,378.74,1779.78,378.74,1765.93z"/>
<linearGradient id="SVGID_00000004543454859415160670000001941850062471531680_" gradientUnits="userSpaceOnUse" x1="416.6982" y1="301.7302" x2="416.6982" y2="505.7598" gradientTransform="matrix(1 0 0 1 -197.2683 1282)">
	<stop  offset="0" style="stop-color:#DADADA"/>
	<stop  offset="1" style="stop-color:#A9A9AA"/>
</linearGradient>
<path style="fill:url(#SVGID_00000004543454859415160670000001941850062471531680_);stroke:#020203;stroke-width:8;stroke-miterlimit:10;" d="
	M141.01,1596.45L141.01,1596.45c-8.44,13.19-4.23,30.76,9.28,38.69l57.86,33.96c6.01,3.53,6.65,11.96,1.24,16.35l-59.8,48.54
	c-12.38,10.04-13.7,28.45-2.88,40.16l4.37,4.74c10.23,11.07,27.46,11.89,38.69,1.83l109.12-97.71c4.85-4.35,4.3-12.11-1.12-15.73
	l-118.19-78.9C166.73,1579.8,149.34,1583.44,141.01,1596.45z"/>
</svg>
