<?xml version="1.0" encoding="utf-8"?>
<!-- Generator: Adobe Illustrator 27.0.1, SVG Export Plug-In . SVG Version: 6.00 Build 0)  -->
<svg version="1.1" id="Calque_1" xmlns="http://www.w3.org/2000/svg" xmlns:xlink="http://www.w3.org/1999/xlink" x="0px" y="0px"
	 viewBox="0 0 512 2048" style="enable-background:new 0 0 512 2048;" xml:space="preserve">
<style type="text/css">
	.st0{fill:#B47634;stroke:#000000;stroke-miterlimit:10;}
	.st1{opacity:0.5;fill:#A0A09F;enable-background:new    ;}
	.st2{fill:#FFFFFF;}
	.st3{fill:url(#SVGID_1_);}
	.st4{fill:url(#SVGID_00000121275913244569280490000011393795570951897756_);}
	.st5{fill:url(#SVGID_00000116204718631479593320000000301671217310583209_);stroke:#020203;stroke-width:8;stroke-miterlimit:10;}
	.st6{fill:url(#SVGID_00000052076741801964967170000005996932501310255786_);stroke:#020203;stroke-width:8;stroke-miterlimit:10;}
	.st7{fill:url(#SVGID_00000039097875063705638970000006512340291194984365_);}
	.st8{fill:url(#SVGID_00000094577397250223147320000006453816811038152884_);}
	.st9{fill:url(#SVGID_00000155141436686686446940000005761377748920762792_);stroke:#020203;stroke-width:8;stroke-miterlimit:10;}
	.st10{fill:url(#SVGID_00000029013262406556550320000015666515760492319108_);stroke:#020203;stroke-width:8;stroke-miterlimit:10;}
	.st11{fill:url(#SVGID_00000106837666583520373500000009130983216829382058_);}
	.st12{fill:url(#SVGID_00000071532785397868604070000011684657372693890184_);}
	.st13{fill:url(#SVGID_00000158005595991684515580000013104315166569774738_);stroke:#020203;stroke-width:8;stroke-miterlimit:10;}
	.st14{fill:url(#SVGID_00000178194113078933350280000013426551698069974428_);stroke:#020203;stroke-width:8;stroke-miterlimit:10;}
	.st15{fill:#4D4D4D;stroke:#000000;stroke-miterlimit:10;}
	.st16{opacity:0.5;fill:#949494;enable-background:new    ;}
	.st17{fill:url(#SVGID_00000182521057558868516200000001882759130997898942_);}
	.st18{fill:url(#SVGID_00000170237755165636185360000009818558586517378996_);}
	.st19{fill:url(#SVGID_00000180354455163842364830000004857252940107164855_);stroke:#000000;stroke-width:8;stroke-miterlimit:10;}
	.st20{fill:url(#SVGID_00000134934688338521333330000017494418099938888070_);stroke:#000000;stroke-width:8;stroke-miterlimit:10;}
</style>
<path class="st0" d="M34.81,136.13l183.69,54.74L351.82,71.74c3.26-2.91,8.38-2.02,10.46,1.83l127.97,237.12
	c1.57,2.91,0.81,6.52-1.79,8.55l-157,122.31c0,0-15.74,12.88-32.7,12.88s-34.68-9.91-34.68-9.91l-146.03-36.75
	c-2.23-0.56-4.03-2.22-4.76-4.41l-86.82-258.6C24.73,139.57,29.56,134.57,34.81,136.13z"/>
<path class="st1" d="M500.33,321.78L372.36,84.66c-1.25-2.32-3.62-3.56-6.02-3.54l123.91,229.6c1.57,2.91,0.81,6.52-1.79,8.55
	L331.47,441.59c0,0-15.74,12.88-32.7,12.88c-16.95,0-34.68-9.91-34.68-9.91l-142.67-35.9l1.95,5.8c0.73,2.18,2.53,3.84,4.76,4.41
	l146.03,36.75c0,0,17.72,9.91,34.68,9.91c16.95,0,32.7-12.88,32.7-12.88l156.99-122.32C501.14,328.29,501.9,324.68,500.33,321.78z"
	/>
<path class="st2" d="M51,165.64L130.32,393c49.59,4.17,99.49,19.42,149.61,42.61c13.77-10.41,28.33-12.41,43.6-6.94
	c40.66-44.19,89.92-83.46,145.77-118.98L358.21,100.71l-17.83-6.94c-44.7,37.3-83.51,76.36-113.94,117.91
	c-46.78-24.33-95.69-43.28-147.63-54.5L51,165.64z"/>
<linearGradient id="SVGID_1_" gradientUnits="userSpaceOnUse" x1="78.8" y1="-989.385" x2="299.43" y2="-989.385" gradientTransform="matrix(1 0 0 1 0 1280)">
	<stop  offset="0" style="stop-color:#FFFFFF"/>
	<stop  offset="1" style="stop-color:#C9E5F1"/>
</linearGradient>
<path class="st3" d="M78.8,157.18l78.22,212.88c50.31,6.56,94.27,24.28,142.41,53.99l-72.99-212.37
	C181.61,187.72,132.51,169.4,78.8,157.18z"/>
<linearGradient id="SVGID_00000008130470342679460840000013163068949941851311_" gradientUnits="userSpaceOnUse" x1="226.43" y1="-1021.095" x2="448.48" y2="-1021.095" gradientTransform="matrix(1 0 0 1 0 1280)">
	<stop  offset="0" style="stop-color:#FFFFFF"/>
	<stop  offset="1" style="stop-color:#C9E5F1"/>
</linearGradient>
<path style="fill:url(#SVGID_00000008130470342679460840000013163068949941851311_);" d="M226.43,211.68
	c31.52-42.26,69.69-81.48,113.94-117.91l108.11,209.71c-44.82,24.16-93.76,67.12-149.07,120.56l-72.22-210.5"/>
<linearGradient id="SVGID_00000175300382672357955760000014762449498750087078_" gradientUnits="userSpaceOnUse" x1="440.465" y1="-1015.31" x2="440.465" y2="-798.64" gradientTransform="matrix(1 0 0 1 0 1280)">
	<stop  offset="0" style="stop-color:#BCDAAB"/>
	<stop  offset="1" style="stop-color:#3FAB35"/>
</linearGradient>
<path style="fill:url(#SVGID_00000175300382672357955760000014762449498750087078_);stroke:#020203;stroke-width:8;stroke-miterlimit:10;" d="
	M441.3,481.36h-1.67c-13.85,0-25.07-11.22-25.07-25.07V289.76c0-13.85,11.22-25.07,25.07-25.07h1.67
	c13.85,0,25.07,11.22,25.07,25.07v166.53C466.37,470.14,455.15,481.36,441.3,481.36z"/>
<linearGradient id="SVGID_00000031196731803237426730000007627741248697510332_" gradientUnits="userSpaceOnUse" x1="307.6682" y1="-1005.9093" x2="307.6682" y2="-801.8802" gradientTransform="matrix(1 0 0 1 0 1280)">
	<stop  offset="0" style="stop-color:#BCDAAB"/>
	<stop  offset="1" style="stop-color:#3FAB35"/>
</linearGradient>
<path style="fill:url(#SVGID_00000031196731803237426730000007627741248697510332_);stroke:#020203;stroke-width:8;stroke-miterlimit:10;" d="
	M267.22,278.74l120.21,80.24c4.4,2.94,4.85,9.24,0.91,12.77l-110.92,99.33c-11.23,10.06-28.46,9.24-38.69-1.83l-4.37-4.74
	c-10.82-11.71-9.5-30.12,2.88-40.16l61.9-50.24c4.39-3.56,3.87-10.41-1-13.27l-60.2-35.33c-13.51-7.93-17.72-25.5-9.28-38.69l0,0
	C236.97,273.8,254.36,270.16,267.22,278.74z"/>
<path class="st0" d="M44.81,658.13l183.69,54.74l133.32-119.14c3.26-2.91,8.38-2.02,10.46,1.83l127.97,237.12
	c1.57,2.91,0.81,6.52-1.79,8.55l-157,122.32c0,0-15.74,12.88-32.7,12.88s-34.68-9.91-34.68-9.91l-146.03-36.75
	c-2.23-0.56-4.03-2.22-4.76-4.41l-86.82-258.6C34.73,661.57,39.56,656.57,44.81,658.13z"/>
<path class="st1" d="M510.33,843.78L382.36,606.66c-1.25-2.32-3.62-3.56-6.02-3.54l123.91,229.6c1.57,2.91,0.81,6.52-1.79,8.55
	L341.47,963.59c0,0-15.74,12.88-32.7,12.88c-16.95,0-34.68-9.91-34.68-9.91l-142.67-35.9l1.95,5.8c0.73,2.18,2.53,3.84,4.76,4.41
	l146.03,36.75c0,0,17.72,9.91,34.68,9.91c16.95,0,32.7-12.88,32.7-12.88l156.99-122.32C511.14,850.29,511.9,846.68,510.33,843.78z"
	/>
<path class="st2" d="M61,687.64L140.32,915c49.59,4.17,99.49,19.42,149.61,42.61c13.77-10.41,28.33-12.41,43.6-6.94
	c40.66-44.19,89.92-83.46,145.77-118.98L368.21,622.71l-17.83-6.94c-44.7,37.3-83.51,76.36-113.94,117.91
	c-46.78-24.33-95.69-43.28-147.63-54.5L61,687.64z"/>
<linearGradient id="SVGID_00000009582054125113845700000007297965059635189656_" gradientUnits="userSpaceOnUse" x1="88.8" y1="-467.385" x2="309.43" y2="-467.385" gradientTransform="matrix(1 0 0 1 0 1280)">
	<stop  offset="0" style="stop-color:#FFFFFF"/>
	<stop  offset="1" style="stop-color:#C9E5F1"/>
</linearGradient>
<path style="fill:url(#SVGID_00000009582054125113845700000007297965059635189656_);" d="M88.8,679.18l78.22,212.88
	c50.31,6.56,94.27,24.28,142.41,53.99l-72.99-212.37C191.61,709.72,142.51,691.4,88.8,679.18z"/>
<linearGradient id="SVGID_00000027606574117088391780000015785151858935476139_" gradientUnits="userSpaceOnUse" x1="236.43" y1="-499.095" x2="458.48" y2="-499.095" gradientTransform="matrix(1 0 0 1 0 1280)">
	<stop  offset="0" style="stop-color:#FFFFFF"/>
	<stop  offset="1" style="stop-color:#C9E5F1"/>
</linearGradient>
<path style="fill:url(#SVGID_00000027606574117088391780000015785151858935476139_);" d="M236.43,733.68
	c31.52-42.26,69.69-81.48,113.94-117.91l108.11,209.71c-44.82,24.16-93.76,67.12-149.07,120.56l-72.22-210.5"/>
<linearGradient id="SVGID_00000047745363017098784450000006986649435386994365_" gradientUnits="userSpaceOnUse" x1="450.465" y1="-493.31" x2="450.465" y2="-276.64" gradientTransform="matrix(1 0 0 1 0 1280)">
	<stop  offset="0" style="stop-color:#FFDD00"/>
	<stop  offset="1" style="stop-color:#F6A71C"/>
</linearGradient>
<path style="fill:url(#SVGID_00000047745363017098784450000006986649435386994365_);stroke:#020203;stroke-width:8;stroke-miterlimit:10;" d="
	M451.3,1003.36h-1.67c-13.85,0-25.07-11.22-25.07-25.07V811.76c0-13.85,11.22-25.07,25.07-25.07h1.67
	c13.85,0,25.07,11.22,25.07,25.07v166.53C476.37,992.14,465.15,1003.36,451.3,1003.36z"/>
<linearGradient id="SVGID_00000109724468539524926710000000562975799361722804_" gradientUnits="userSpaceOnUse" x1="317.6682" y1="-483.9093" x2="317.6682" y2="-279.8801" gradientTransform="matrix(1 0 0 1 0 1280)">
	<stop  offset="0" style="stop-color:#FFDD00"/>
	<stop  offset="1" style="stop-color:#F6A71C"/>
</linearGradient>
<path style="fill:url(#SVGID_00000109724468539524926710000000562975799361722804_);stroke:#020203;stroke-width:8;stroke-miterlimit:10;" d="
	M277.22,800.74l120.21,80.24c4.4,2.94,4.85,9.24,0.91,12.77l-110.92,99.33c-11.23,10.06-28.46,9.24-38.69-1.83l-4.37-4.74
	c-10.82-11.71-9.5-30.12,2.88-40.16l61.9-50.24c4.39-3.56,3.87-10.41-1-13.27l-60.2-35.33c-13.51-7.93-17.72-25.5-9.28-38.69l0,0
	C246.97,795.8,264.36,792.16,277.22,800.74z"/>
<path class="st0" d="M34.81,1160.13l183.69,54.74l133.32-119.14c3.26-2.91,8.38-2.02,10.46,1.83l127.97,237.12
	c1.57,2.91,0.81,6.52-1.79,8.55l-156.99,122.32c0,0-15.74,12.88-32.7,12.88s-34.68-9.91-34.68-9.91l-146.03-36.75
	c-2.23-0.56-4.03-2.22-4.76-4.41l-86.82-258.6C24.73,1163.57,29.56,1158.57,34.81,1160.13z"/>
<path class="st1" d="M500.33,1345.78l-127.97-237.12c-1.25-2.32-3.62-3.56-6.02-3.54l123.91,229.6c1.57,2.91,0.81,6.52-1.79,8.55
	l-156.99,122.32c0,0-15.74,12.88-32.7,12.88c-16.95,0-34.68-9.91-34.68-9.91l-142.67-35.9l1.95,5.8c0.73,2.18,2.53,3.84,4.76,4.41
	l146.03,36.75c0,0,17.72,9.91,34.68,9.91c16.95,0,32.7-12.88,32.7-12.88l156.99-122.32C501.14,1352.29,501.9,1348.68,500.33,1345.78
	z"/>
<path class="st2" d="M51,1189.64L130.32,1417c49.59,4.17,99.49,19.42,149.61,42.61c13.77-10.41,28.33-12.41,43.6-6.94
	c40.66-44.19,89.92-83.46,145.77-118.98L358.21,1124.7l-17.83-6.94c-44.7,37.3-83.51,76.36-113.94,117.91
	c-46.78-24.33-95.69-43.28-147.63-54.5L51,1189.64z"/>
<linearGradient id="SVGID_00000031901895744463883240000000468217797108754069_" gradientUnits="userSpaceOnUse" x1="78.8" y1="34.6151" x2="299.43" y2="34.6151" gradientTransform="matrix(1 0 0 1 0 1280)">
	<stop  offset="0" style="stop-color:#FFFFFF"/>
	<stop  offset="1" style="stop-color:#C9E5F1"/>
</linearGradient>
<path style="fill:url(#SVGID_00000031901895744463883240000000468217797108754069_);" d="M78.8,1181.18l78.22,212.88
	c50.31,6.56,94.27,24.28,142.41,53.99l-72.99-212.37C181.61,1211.72,132.51,1193.4,78.8,1181.18z"/>
<linearGradient id="SVGID_00000114044524902392351130000010042568707010733482_" gradientUnits="userSpaceOnUse" x1="226.43" y1="2.905" x2="448.48" y2="2.905" gradientTransform="matrix(1 0 0 1 0 1280)">
	<stop  offset="0" style="stop-color:#FFFFFF"/>
	<stop  offset="1" style="stop-color:#C9E5F1"/>
</linearGradient>
<path style="fill:url(#SVGID_00000114044524902392351130000010042568707010733482_);" d="M226.43,1235.68
	c31.52-42.26,69.69-81.48,113.94-117.91l108.11,209.71c-44.82,24.16-93.76,67.12-149.07,120.56l-72.22-210.5"/>
<linearGradient id="SVGID_00000132766711217692987070000011600542095150964409_" gradientUnits="userSpaceOnUse" x1="440.465" y1="8.6901" x2="440.465" y2="225.36" gradientTransform="matrix(1 0 0 1 0 1280)">
	<stop  offset="0" style="stop-color:#ADD2EF"/>
	<stop  offset="1" style="stop-color:#3AB2E7"/>
</linearGradient>
<path style="fill:url(#SVGID_00000132766711217692987070000011600542095150964409_);stroke:#020203;stroke-width:8;stroke-miterlimit:10;" d="
	M441.3,1505.36h-1.67c-13.85,0-25.07-11.22-25.07-25.07v-166.53c0-13.85,11.22-25.07,25.07-25.07h1.67
	c13.85,0,25.07,11.22,25.07,25.07v166.53C466.37,1494.14,455.15,1505.36,441.3,1505.36z"/>
<linearGradient id="SVGID_00000108298277681202375550000007840816240647551620_" gradientUnits="userSpaceOnUse" x1="307.6682" y1="18.0908" x2="307.6682" y2="222.1199" gradientTransform="matrix(1 0 0 1 0 1280)">
	<stop  offset="0" style="stop-color:#ADD2EF"/>
	<stop  offset="1" style="stop-color:#3AB2E7"/>
</linearGradient>
<path style="fill:url(#SVGID_00000108298277681202375550000007840816240647551620_);stroke:#020203;stroke-width:8;stroke-miterlimit:10;" d="
	M267.22,1302.74l120.21,80.24c4.4,2.94,4.85,9.24,0.91,12.77l-110.92,99.33c-11.23,10.06-28.46,9.24-38.69-1.83l-4.37-4.74
	c-10.82-11.71-9.5-30.12,2.88-40.16l61.9-50.24c4.39-3.56,3.87-10.41-1-13.27l-60.2-35.33c-13.51-7.93-17.72-25.5-9.28-38.69l0,0
	C236.97,1297.8,254.36,1294.16,267.22,1302.74z"/>
<path class="st15" d="M34.81,1672.13l183.69,54.74l133.32-119.14c3.26-2.91,8.38-2.02,10.46,1.83l127.97,237.12
	c1.57,2.91,0.81,6.52-1.79,8.55l-156.99,122.32c0,0-15.74,12.88-32.7,12.88s-34.68-9.91-34.68-9.91l-146.03-36.75
	c-2.23-0.56-4.03-2.22-4.76-4.41l-86.82-258.6C24.73,1675.57,29.56,1670.57,34.81,1672.13z"/>
<path class="st16" d="M500.33,1857.78l-127.97-237.12c-1.25-2.32-3.62-3.56-6.02-3.54l123.91,229.6c1.57,2.91,0.81,6.52-1.79,8.55
	l-156.99,122.32c0,0-15.74,12.88-32.7,12.88c-16.95,0-34.68-9.91-34.68-9.91l-142.67-35.9l1.95,5.8c0.73,2.18,2.53,3.84,4.76,4.41
	l146.03,36.75c0,0,17.72,9.91,34.68,9.91c16.95,0,32.7-12.88,32.7-12.88l156.99-122.32C501.14,1864.29,501.9,1860.68,500.33,1857.78
	z"/>
<path class="st2" d="M51,1701.64L130.32,1929c49.59,4.17,99.49,19.42,149.61,42.61c13.77-10.41,28.33-12.41,43.6-6.94
	c40.66-44.19,89.92-83.46,145.77-118.98L358.21,1636.7l-17.83-6.94c-44.7,37.3-83.51,76.36-113.94,117.91
	c-46.78-24.33-95.69-43.28-147.63-54.5L51,1701.64z"/>
<linearGradient id="SVGID_00000158008252901603734350000016465076274548142987_" gradientUnits="userSpaceOnUse" x1="78.8" y1="546.6151" x2="299.43" y2="546.6151" gradientTransform="matrix(1 0 0 1 0 1280)">
	<stop  offset="0" style="stop-color:#FFFFFF"/>
	<stop  offset="1" style="stop-color:#E7E7E7"/>
</linearGradient>
<path style="fill:url(#SVGID_00000158008252901603734350000016465076274548142987_);" d="M78.8,1693.18l78.22,212.88
	c50.31,6.56,94.27,24.28,142.41,53.99l-72.99-212.37C181.61,1723.72,132.51,1705.4,78.8,1693.18z"/>
<linearGradient id="SVGID_00000113314762083484610400000007941356783835802517_" gradientUnits="userSpaceOnUse" x1="226.43" y1="514.905" x2="448.48" y2="514.905" gradientTransform="matrix(1 0 0 1 0 1280)">
	<stop  offset="0" style="stop-color:#FFFFFF"/>
	<stop  offset="1" style="stop-color:#E7E7E7"/>
</linearGradient>
<path style="fill:url(#SVGID_00000113314762083484610400000007941356783835802517_);" d="M226.43,1747.68
	c31.52-42.26,69.69-81.48,113.94-117.91l108.11,209.71c-44.82,24.16-93.76,67.12-149.07,120.56l-72.22-210.5"/>
<linearGradient id="SVGID_00000124859267072123824530000010554726740382660230_" gradientUnits="userSpaceOnUse" x1="440.465" y1="520.6901" x2="440.465" y2="737.36" gradientTransform="matrix(1 0 0 1 0 1280)">
	<stop  offset="0" style="stop-color:#DADADA"/>
	<stop  offset="1" style="stop-color:#AAAAAA"/>
</linearGradient>
<path style="fill:url(#SVGID_00000124859267072123824530000010554726740382660230_);stroke:#000000;stroke-width:8;stroke-miterlimit:10;" d="
	M441.3,2017.36h-1.67c-13.85,0-25.07-11.22-25.07-25.07v-166.53c0-13.85,11.22-25.07,25.07-25.07h1.67
	c13.85,0,25.07,11.22,25.07,25.07v166.53C466.37,2006.14,455.15,2017.36,441.3,2017.36z"/>
<linearGradient id="SVGID_00000130638076798301604100000009191785165106420669_" gradientUnits="userSpaceOnUse" x1="307.07" y1="530.0903" x2="307.07" y2="734.1199" gradientTransform="matrix(1 0 0 1 0 1280)">
	<stop  offset="0" style="stop-color:#DADADA"/>
	<stop  offset="1" style="stop-color:#AAAAAA"/>
</linearGradient>
<path style="fill:url(#SVGID_00000130638076798301604100000009191785165106420669_);stroke:#000000;stroke-width:8;stroke-miterlimit:10;" d="
	M267.22,1814.74l118.19,78.9c5.42,3.62,5.97,11.38,1.12,15.73l-109.12,97.71c-11.23,10.06-28.46,9.24-38.69-1.83l-4.37-4.74
	c-10.82-11.71-9.5-30.12,2.88-40.16l59.8-48.54c5.41-4.39,4.77-12.82-1.24-16.35l-57.86-33.96c-13.51-7.93-17.72-25.5-9.28-38.69
	l0,0C236.97,1809.8,254.36,1806.16,267.22,1814.74z"/>
</svg>
