<?xml version="1.0" encoding="utf-8"?>
<!-- Generator: Adobe Illustrator 27.0.1, SVG Export Plug-In . SVG Version: 6.00 Build 0)  -->
<svg version="1.1" id="Calque_1" xmlns="http://www.w3.org/2000/svg" xmlns:xlink="http://www.w3.org/1999/xlink" x="0px" y="0px"
	 viewBox="0 0 512 2048" style="enable-background:new 0 0 512 2048;" xml:space="preserve">
<style type="text/css">
	.st0{fill:#B47634;stroke:#000000;stroke-miterlimit:10;}
	.st1{opacity:0.5;fill:#A0A09F;}
	.st2{fill:#FFFFFF;}
	.st3{fill:url(#SVGID_1_);}
	.st4{fill:url(#SVGID_00000124163598202685238620000006416542387998912931_);}
	.st5{fill:url(#SVGID_00000042008547813438768050000005077836165444638360_);stroke:#020203;stroke-width:8;stroke-miterlimit:10;}
	.st6{fill:url(#SVGID_00000101822944204055704030000004430508677420471680_);stroke:#020203;stroke-width:8;stroke-miterlimit:10;}
	.st7{fill:url(#SVGID_00000059296225978110537850000014692277374510404511_);}
	.st8{fill:url(#SVGID_00000178186621640900674670000011661370587807769728_);}
	.st9{fill:url(#SVGID_00000101811152786104429500000014914342964758909323_);stroke:#020203;stroke-width:8;stroke-miterlimit:10;}
	.st10{fill:url(#SVGID_00000051355333511976122260000004743830377472288169_);stroke:#020203;stroke-width:8;stroke-miterlimit:10;}
	.st11{fill:url(#SVGID_00000044151773320894684520000017757272216843264927_);}
	.st12{fill:url(#SVGID_00000138562686001617625480000016497034391165331900_);}
	.st13{fill:url(#SVGID_00000139980727523134231730000018185764455393031608_);stroke:#020203;stroke-width:8;stroke-miterlimit:10;}
	.st14{fill:url(#SVGID_00000154405819880898860850000008322496877093729212_);stroke:#020203;stroke-width:8;stroke-miterlimit:10;}
	.st15{fill:#4D4D4D;stroke:#000000;stroke-miterlimit:10;}
	.st16{opacity:0.5;fill:#949494;}
	.st17{fill:url(#SVGID_00000019649435045104344750000002437507817616216452_);}
	.st18{fill:url(#SVGID_00000075120521239657052520000008377540675378451369_);}
	.st19{fill:url(#SVGID_00000070101590063666067450000009353368861470933643_);stroke:#000000;stroke-width:8;stroke-miterlimit:10;}
	.st20{fill:url(#SVGID_00000178170605852909206090000003964508707199706034_);stroke:#000000;stroke-width:8;stroke-miterlimit:10;}
</style>
<path class="st0" d="M34.81,136.13l183.69,54.74L351.82,71.74c3.26-2.91,8.38-2.02,10.46,1.83l127.97,237.12
	c1.57,2.91,0.81,6.52-1.79,8.55l-157,122.31c0,0-15.74,12.88-32.7,12.88s-34.68-9.91-34.68-9.91l-146.03-36.75
	c-2.23-0.56-4.03-2.22-4.76-4.41l-86.82-258.6C24.73,139.57,29.56,134.57,34.81,136.13z"/>
<path class="st1" d="M500.33,321.78L372.36,84.66c-1.25-2.32-3.62-3.56-6.02-3.54l123.91,229.6c1.57,2.91,0.81,6.52-1.79,8.55
	L331.47,441.59c0,0-15.74,12.88-32.7,12.88c-16.95,0-34.68-9.91-34.68-9.91l-142.67-35.9l1.95,5.8c0.73,2.18,2.53,3.84,4.76,4.41
	l146.03,36.75c0,0,17.72,9.91,34.68,9.91c16.95,0,32.7-12.88,32.7-12.88l156.99-122.32C501.14,328.29,501.9,324.68,500.33,321.78z"
	/>
<path class="st2" d="M51,165.64L130.32,393c49.59,4.17,99.49,19.42,149.61,42.61c13.77-10.41,28.33-12.41,43.6-6.94
	c40.66-44.19,89.92-83.46,145.77-118.98L358.21,100.71l-17.83-6.94c-44.7,37.3-83.51,76.36-113.94,117.91
	c-46.78-24.33-95.69-43.28-147.63-54.5L51,165.64z"/>
<linearGradient id="SVGID_1_" gradientUnits="userSpaceOnUse" x1="78.8" y1="1757.385" x2="299.43" y2="1757.385" gradientTransform="matrix(1 0 0 -1 0 2048)">
	<stop  offset="0" style="stop-color:#FFFFFF"/>
	<stop  offset="1" style="stop-color:#C9E5F1"/>
</linearGradient>
<path class="st3" d="M78.8,157.18l78.22,212.88c50.31,6.56,94.27,24.28,142.41,53.99l-72.99-212.37
	C181.61,187.72,132.51,169.4,78.8,157.18z"/>
<linearGradient id="SVGID_00000110435362117280584000000000731273403704244126_" gradientUnits="userSpaceOnUse" x1="226.43" y1="1789.095" x2="448.48" y2="1789.095" gradientTransform="matrix(1 0 0 -1 0 2048)">
	<stop  offset="0" style="stop-color:#FFFFFF"/>
	<stop  offset="1" style="stop-color:#C9E5F1"/>
</linearGradient>
<path style="fill:url(#SVGID_00000110435362117280584000000000731273403704244126_);" d="M226.43,211.68
	c31.52-42.26,69.69-81.48,113.94-117.91l108.11,209.71c-44.82,24.16-93.76,67.12-149.07,120.56l-72.22-210.5"/>
<linearGradient id="SVGID_00000148657746905765885830000005077491085063926952_" gradientUnits="userSpaceOnUse" x1="440.465" y1="1783.3101" x2="440.465" y2="1566.64" gradientTransform="matrix(1 0 0 -1 0 2048)">
	<stop  offset="0" style="stop-color:#BCDAAB"/>
	<stop  offset="1" style="stop-color:#3FAB35"/>
</linearGradient>
<path style="fill:url(#SVGID_00000148657746905765885830000005077491085063926952_);stroke:#020203;stroke-width:8;stroke-miterlimit:10;" d="
	M441.3,481.36h-1.67c-13.85,0-25.07-11.22-25.07-25.07V289.76c0-13.85,11.22-25.07,25.07-25.07h1.67
	c13.85,0,25.07,11.22,25.07,25.07v166.53C466.37,470.14,455.15,481.36,441.3,481.36z"/>
<linearGradient id="SVGID_00000047763400837330800520000000238357679158650506_" gradientUnits="userSpaceOnUse" x1="307.6682" y1="1773.9093" x2="307.6682" y2="1569.8801" gradientTransform="matrix(1 0 0 -1 0 2048)">
	<stop  offset="0" style="stop-color:#BCDAAB"/>
	<stop  offset="1" style="stop-color:#3FAB35"/>
</linearGradient>
<path style="fill:url(#SVGID_00000047763400837330800520000000238357679158650506_);stroke:#020203;stroke-width:8;stroke-miterlimit:10;" d="
	M267.22,278.74l120.21,80.24c4.4,2.94,4.85,9.24,0.91,12.77l-110.92,99.33c-11.23,10.06-28.46,9.24-38.69-1.83l-4.37-4.74
	c-10.82-11.71-9.5-30.12,2.88-40.16l61.9-50.24c4.39-3.56,3.87-10.41-1-13.27l-60.2-35.33c-13.51-7.93-17.72-25.5-9.28-38.69l0,0
	C236.97,273.8,254.36,270.16,267.22,278.74z"/>
<path class="st0" d="M34.81,648.13l183.69,54.74l133.32-119.14c3.26-2.91,8.38-2.02,10.46,1.83l127.97,237.12
	c1.57,2.91,0.81,6.52-1.79,8.55l-157,122.32c0,0-15.74,12.88-32.7,12.88s-34.68-9.91-34.68-9.91l-146.03-36.75
	c-2.23-0.56-4.03-2.22-4.76-4.41l-86.82-258.6C24.73,651.57,29.56,646.57,34.81,648.13z"/>
<path class="st1" d="M500.33,833.78L372.36,596.66c-1.25-2.32-3.62-3.56-6.02-3.54l123.91,229.6c1.57,2.91,0.81,6.52-1.79,8.55
	L331.47,953.59c0,0-15.74,12.88-32.7,12.88c-16.95,0-34.68-9.91-34.68-9.91l-142.67-35.9l1.95,5.8c0.73,2.18,2.53,3.84,4.76,4.41
	l146.03,36.75c0,0,17.72,9.91,34.68,9.91c16.95,0,32.7-12.88,32.7-12.88l156.99-122.32C501.14,840.29,501.9,836.68,500.33,833.78z"
	/>
<path class="st2" d="M51,677.64L130.32,905c49.59,4.17,99.49,19.42,149.61,42.61c13.77-10.41,28.33-12.41,43.6-6.94
	c40.66-44.19,89.92-83.46,145.77-118.98L358.21,612.71l-17.83-6.94c-44.7,37.3-83.51,76.36-113.94,117.91
	c-46.78-24.33-95.69-43.28-147.63-54.5L51,677.64z"/>
<linearGradient id="SVGID_00000183208782687187282370000007819650032605984180_" gradientUnits="userSpaceOnUse" x1="78.8" y1="1245.385" x2="299.43" y2="1245.385" gradientTransform="matrix(1 0 0 -1 0 2048)">
	<stop  offset="0" style="stop-color:#FFFFFF"/>
	<stop  offset="1" style="stop-color:#C9E5F1"/>
</linearGradient>
<path style="fill:url(#SVGID_00000183208782687187282370000007819650032605984180_);" d="M78.8,669.18l78.22,212.88
	c50.31,6.56,94.27,24.28,142.41,53.99l-72.99-212.37C181.61,699.72,132.51,681.4,78.8,669.18z"/>
<linearGradient id="SVGID_00000090976892619335289160000007893101231651929473_" gradientUnits="userSpaceOnUse" x1="226.43" y1="1277.095" x2="448.48" y2="1277.095" gradientTransform="matrix(1 0 0 -1 0 2048)">
	<stop  offset="0" style="stop-color:#FFFFFF"/>
	<stop  offset="1" style="stop-color:#C9E5F1"/>
</linearGradient>
<path style="fill:url(#SVGID_00000090976892619335289160000007893101231651929473_);" d="M226.43,723.68
	c31.52-42.26,69.69-81.48,113.94-117.91l108.11,209.71c-44.82,24.16-93.76,67.12-149.07,120.56l-72.22-210.5"/>
<linearGradient id="SVGID_00000033370887805082024100000002440657662347440517_" gradientUnits="userSpaceOnUse" x1="440.465" y1="1271.3101" x2="440.465" y2="1054.64" gradientTransform="matrix(1 0 0 -1 0 2048)">
	<stop  offset="0" style="stop-color:#FFDD00"/>
	<stop  offset="1" style="stop-color:#F6A71C"/>
</linearGradient>
<path style="fill:url(#SVGID_00000033370887805082024100000002440657662347440517_);stroke:#020203;stroke-width:8;stroke-miterlimit:10;" d="
	M441.3,993.36h-1.67c-13.85,0-25.07-11.22-25.07-25.07V801.76c0-13.85,11.22-25.07,25.07-25.07h1.67
	c13.85,0,25.07,11.22,25.07,25.07v166.53C466.37,982.14,455.15,993.36,441.3,993.36z"/>
<linearGradient id="SVGID_00000171719778049253093010000004505912609410566060_" gradientUnits="userSpaceOnUse" x1="307.6682" y1="1261.9093" x2="307.6682" y2="1057.8801" gradientTransform="matrix(1 0 0 -1 0 2048)">
	<stop  offset="0" style="stop-color:#FFDD00"/>
	<stop  offset="1" style="stop-color:#F6A71C"/>
</linearGradient>
<path style="fill:url(#SVGID_00000171719778049253093010000004505912609410566060_);stroke:#020203;stroke-width:8;stroke-miterlimit:10;" d="
	M267.22,790.74l120.21,80.24c4.4,2.94,4.85,9.24,0.91,12.77l-110.92,99.33c-11.23,10.06-28.46,9.24-38.69-1.83l-4.37-4.74
	c-10.82-11.71-9.5-30.12,2.88-40.16l61.9-50.24c4.39-3.56,3.87-10.41-1-13.27l-60.2-35.33c-13.51-7.93-17.72-25.5-9.28-38.69l0,0
	C236.97,785.8,254.36,782.16,267.22,790.74z"/>
<path class="st0" d="M34.81,1160.13l183.69,54.74l133.32-119.14c3.26-2.91,8.38-2.02,10.46,1.83l127.97,237.12
	c1.57,2.91,0.81,6.52-1.79,8.55l-156.99,122.32c0,0-15.74,12.88-32.7,12.88s-34.68-9.91-34.68-9.91l-146.03-36.75
	c-2.23-0.56-4.03-2.22-4.76-4.41l-86.82-258.6C24.73,1163.57,29.56,1158.57,34.81,1160.13z"/>
<path class="st1" d="M500.33,1345.78l-127.97-237.12c-1.25-2.32-3.62-3.56-6.02-3.54l123.91,229.6c1.57,2.91,0.81,6.52-1.79,8.55
	l-156.99,122.32c0,0-15.74,12.88-32.7,12.88c-16.95,0-34.68-9.91-34.68-9.91l-142.67-35.9l1.95,5.8c0.73,2.18,2.53,3.84,4.76,4.41
	l146.03,36.75c0,0,17.72,9.91,34.68,9.91c16.95,0,32.7-12.88,32.7-12.88l156.99-122.32C501.14,1352.29,501.9,1348.68,500.33,1345.78
	z"/>
<path class="st2" d="M51,1189.64L130.32,1417c49.59,4.17,99.49,19.42,149.61,42.61c13.77-10.41,28.33-12.41,43.6-6.94
	c40.66-44.19,89.92-83.46,145.77-118.98L358.21,1124.7l-17.83-6.94c-44.7,37.3-83.51,76.36-113.94,117.91
	c-46.78-24.33-95.69-43.28-147.63-54.5L51,1189.64z"/>
<linearGradient id="SVGID_00000084494694176133707710000010852875422630924210_" gradientUnits="userSpaceOnUse" x1="78.8" y1="733.3849" x2="299.43" y2="733.3849" gradientTransform="matrix(1 0 0 -1 0 2048)">
	<stop  offset="0" style="stop-color:#FFFFFF"/>
	<stop  offset="1" style="stop-color:#C9E5F1"/>
</linearGradient>
<path style="fill:url(#SVGID_00000084494694176133707710000010852875422630924210_);" d="M78.8,1181.18l78.22,212.88
	c50.31,6.56,94.27,24.28,142.41,53.99l-72.99-212.37C181.61,1211.72,132.51,1193.4,78.8,1181.18z"/>
<linearGradient id="SVGID_00000003784513831411162610000003022859607600273074_" gradientUnits="userSpaceOnUse" x1="226.43" y1="765.095" x2="448.48" y2="765.095" gradientTransform="matrix(1 0 0 -1 0 2048)">
	<stop  offset="0" style="stop-color:#FFFFFF"/>
	<stop  offset="1" style="stop-color:#C9E5F1"/>
</linearGradient>
<path style="fill:url(#SVGID_00000003784513831411162610000003022859607600273074_);" d="M226.43,1235.68
	c31.52-42.26,69.69-81.48,113.94-117.91l108.11,209.71c-44.82,24.16-93.76,67.12-149.07,120.56l-72.22-210.5"/>
<linearGradient id="SVGID_00000117656796427455178060000009451284544222964146_" gradientUnits="userSpaceOnUse" x1="440.465" y1="759.3099" x2="440.465" y2="542.64" gradientTransform="matrix(1 0 0 -1 0 2048)">
	<stop  offset="0" style="stop-color:#ADD2EF"/>
	<stop  offset="1" style="stop-color:#3AB2E7"/>
</linearGradient>
<path style="fill:url(#SVGID_00000117656796427455178060000009451284544222964146_);stroke:#020203;stroke-width:8;stroke-miterlimit:10;" d="
	M441.3,1505.36h-1.67c-13.85,0-25.07-11.22-25.07-25.07v-166.53c0-13.85,11.22-25.07,25.07-25.07h1.67
	c13.85,0,25.07,11.22,25.07,25.07v166.53C466.37,1494.14,455.15,1505.36,441.3,1505.36z"/>
<linearGradient id="SVGID_00000008137500364049102950000006855275695257171642_" gradientUnits="userSpaceOnUse" x1="307.6682" y1="749.9092" x2="307.6682" y2="545.8801" gradientTransform="matrix(1 0 0 -1 0 2048)">
	<stop  offset="0" style="stop-color:#ADD2EF"/>
	<stop  offset="1" style="stop-color:#3AB2E7"/>
</linearGradient>
<path style="fill:url(#SVGID_00000008137500364049102950000006855275695257171642_);stroke:#020203;stroke-width:8;stroke-miterlimit:10;" d="
	M267.22,1302.74l120.21,80.24c4.4,2.94,4.85,9.24,0.91,12.77l-110.92,99.33c-11.23,10.06-28.46,9.24-38.69-1.83l-4.37-4.74
	c-10.82-11.71-9.5-30.12,2.88-40.16l61.9-50.24c4.39-3.56,3.87-10.41-1-13.27l-60.2-35.33c-13.51-7.93-17.72-25.5-9.28-38.69l0,0
	C236.97,1297.8,254.36,1294.16,267.22,1302.74z"/>
<path class="st15" d="M34.81,1672.13l183.69,54.74l133.32-119.14c3.26-2.91,8.38-2.02,10.46,1.83l127.97,237.12
	c1.57,2.91,0.81,6.52-1.79,8.55l-156.99,122.32c0,0-15.74,12.88-32.7,12.88s-34.68-9.91-34.68-9.91l-146.03-36.75
	c-2.23-0.56-4.03-2.22-4.76-4.41l-86.82-258.6C24.73,1675.57,29.56,1670.57,34.81,1672.13z"/>
<path class="st16" d="M500.33,1857.78l-127.97-237.12c-1.25-2.32-3.62-3.56-6.02-3.54l123.91,229.6c1.57,2.91,0.81,6.52-1.79,8.55
	l-156.99,122.32c0,0-15.74,12.88-32.7,12.88c-16.95,0-34.68-9.91-34.68-9.91l-142.67-35.9l1.95,5.8c0.73,2.18,2.53,3.84,4.76,4.41
	l146.03,36.75c0,0,17.72,9.91,34.68,9.91c16.95,0,32.7-12.88,32.7-12.88l156.99-122.32C501.14,1864.29,501.9,1860.68,500.33,1857.78
	z"/>
<path class="st2" d="M51,1701.64L130.32,1929c49.59,4.17,99.49,19.42,149.61,42.61c13.77-10.41,28.33-12.41,43.6-6.94
	c40.66-44.19,89.92-83.46,145.77-118.98L358.21,1636.7l-17.83-6.94c-44.7,37.3-83.51,76.36-113.94,117.91
	c-46.78-24.33-95.69-43.28-147.63-54.5L51,1701.64z"/>
<linearGradient id="SVGID_00000017499226296431371930000014367909043737718171_" gradientUnits="userSpaceOnUse" x1="78.8" y1="221.3849" x2="299.43" y2="221.3849" gradientTransform="matrix(1 0 0 -1 0 2048)">
	<stop  offset="0" style="stop-color:#FFFFFF"/>
	<stop  offset="1" style="stop-color:#E7E7E7"/>
</linearGradient>
<path style="fill:url(#SVGID_00000017499226296431371930000014367909043737718171_);" d="M78.8,1693.18l78.22,212.88
	c50.31,6.56,94.27,24.28,142.41,53.99l-72.99-212.37C181.61,1723.72,132.51,1705.4,78.8,1693.18z"/>
<linearGradient id="SVGID_00000004544400513365828050000009829832388383195828_" gradientUnits="userSpaceOnUse" x1="226.43" y1="253.095" x2="448.48" y2="253.095" gradientTransform="matrix(1 0 0 -1 0 2048)">
	<stop  offset="0" style="stop-color:#FFFFFF"/>
	<stop  offset="1" style="stop-color:#E7E7E7"/>
</linearGradient>
<path style="fill:url(#SVGID_00000004544400513365828050000009829832388383195828_);" d="M226.43,1747.68
	c31.52-42.26,69.69-81.48,113.94-117.91l108.11,209.71c-44.82,24.16-93.76,67.12-149.07,120.56l-72.22-210.5"/>
<linearGradient id="SVGID_00000183934071106652003430000012903559330064403592_" gradientUnits="userSpaceOnUse" x1="440.465" y1="247.3099" x2="440.465" y2="30.64" gradientTransform="matrix(1 0 0 -1 0 2048)">
	<stop  offset="0" style="stop-color:#DADADA"/>
	<stop  offset="1" style="stop-color:#AAAAAA"/>
</linearGradient>
<path style="fill:url(#SVGID_00000183934071106652003430000012903559330064403592_);stroke:#000000;stroke-width:8;stroke-miterlimit:10;" d="
	M441.3,2017.36h-1.67c-13.85,0-25.07-11.22-25.07-25.07v-166.53c0-13.85,11.22-25.07,25.07-25.07h1.67
	c13.85,0,25.07,11.22,25.07,25.07v166.53C466.37,2006.14,455.15,2017.36,441.3,2017.36z"/>
<linearGradient id="SVGID_00000003079827509245567120000004590950469630451603_" gradientUnits="userSpaceOnUse" x1="307.07" y1="237.9097" x2="307.07" y2="33.8801" gradientTransform="matrix(1 0 0 -1 0 2048)">
	<stop  offset="0" style="stop-color:#DADADA"/>
	<stop  offset="1" style="stop-color:#AAAAAA"/>
</linearGradient>
<path style="fill:url(#SVGID_00000003079827509245567120000004590950469630451603_);stroke:#000000;stroke-width:8;stroke-miterlimit:10;" d="
	M267.22,1814.74l118.19,78.9c5.42,3.62,5.97,11.38,1.12,15.73l-109.12,97.71c-11.23,10.06-28.46,9.24-38.69-1.83l-4.37-4.74
	c-10.82-11.71-9.5-30.12,2.88-40.16l59.8-48.54c5.41-4.39,4.77-12.82-1.24-16.35l-57.86-33.96c-13.51-7.93-17.72-25.5-9.28-38.69
	l0,0C236.97,1809.8,254.36,1806.16,267.22,1814.74z"/>
</svg>
