<?xml version="1.0" encoding="utf-8"?>
<!-- Generator: Adobe Illustrator 27.0.1, SVG Export Plug-In . SVG Version: 6.00 Build 0)  -->
<svg version="1.1" id="Calque_1" xmlns="http://www.w3.org/2000/svg" xmlns:xlink="http://www.w3.org/1999/xlink" x="0px" y="0px"
	 viewBox="0 0 512 2048" style="enable-background:new 0 0 512 2048;" xml:space="preserve">
<style type="text/css">
	.st0{opacity:0.5;fill:none;stroke:#949494;stroke-width:8;stroke-miterlimit:10;}
	.st1{fill:url(#SVGID_1_);}
	.st2{fill:url(#SVGID_00000153697939600343387900000014778780225009841080_);}
	.st3{fill:none;stroke:#000000;stroke-miterlimit:10;}
	.st4{fill:none;stroke:#636363;stroke-width:8;stroke-miterlimit:10;}
	.st5{fill:url(#SVGID_00000153695942522039645840000010952898809098702522_);stroke:#636363;stroke-width:8;stroke-miterlimit:10;}
	.st6{fill:url(#SVGID_00000027595099435320709380000006387374013867424901_);stroke:#787878;stroke-width:4;stroke-miterlimit:10;}
	.st7{fill:url(#SVGID_00000031897803296315931760000006878146146257584270_);stroke:#636363;stroke-width:8;stroke-miterlimit:10;}
	.st8{opacity:0.5;fill:none;stroke:#A0A09F;stroke-width:8;stroke-miterlimit:10;}
	.st9{fill:url(#SVGID_00000165227878546307097780000017160767601481107619_);}
	.st10{fill:url(#SVGID_00000140728058333423554950000000144224474926139808_);}
	.st11{fill:none;stroke:#82827F;stroke-width:8;stroke-miterlimit:10;}
	.st12{fill:url(#SVGID_00000134209653835666146420000008923390209242941595_);stroke:#82827F;stroke-width:8;stroke-miterlimit:10;}
	.st13{fill:url(#SVGID_00000133489284666401823700000007730312227680033173_);stroke:#448A4F;stroke-width:4;stroke-miterlimit:10;}
	.st14{fill:url(#SVGID_00000115478290275103026670000009710361521697816466_);stroke:#82827F;stroke-width:8;stroke-miterlimit:10;}
	.st15{fill:url(#SVGID_00000127029477325574399550000005629160766321578402_);}
	.st16{fill:url(#SVGID_00000154391269868607911330000014146944582039815069_);}
	.st17{fill:url(#SVGID_00000038379556057023789580000009959366289132300947_);stroke:#82827F;stroke-width:8;stroke-miterlimit:10;}
	.st18{fill:url(#SVGID_00000010994964642700229750000012127395910715324546_);stroke:#448A4F;stroke-width:4;stroke-miterlimit:10;}
	.st19{fill:url(#SVGID_00000033332005809974368490000009337161372281077400_);stroke:#82827F;stroke-width:8;stroke-miterlimit:10;}
	.st20{fill:url(#SVGID_00000119081911918135479630000002805259821799678593_);}
	.st21{fill:url(#SVGID_00000126323122888522006590000010101839246826659765_);}
	.st22{fill:url(#SVGID_00000078725466183128479050000007200237415786405291_);stroke:#82827F;stroke-width:8;stroke-miterlimit:10;}
	.st23{fill:url(#SVGID_00000148638378968229069960000005396759603175077527_);stroke:#82827F;stroke-width:8;stroke-miterlimit:10;}
	.st24{fill:url(#SVGID_00000043458216960365935610000001361592612285336221_);stroke:#448A4F;stroke-width:4;stroke-miterlimit:10;}
	.st25{fill:url(#SVGID_00000096020655079797149950000004919425801743279786_);stroke:#82827F;stroke-width:8;stroke-miterlimit:10;}
	.st26{fill:url(#SVGID_00000018205604431511414310000013015343286632041359_);stroke:#030304;stroke-width:8;stroke-miterlimit:10;}
	.st27{fill:url(#SVGID_00000094579537137567177420000015722513884660986250_);stroke:#030304;stroke-width:8;stroke-miterlimit:10;}
	.st28{fill:url(#SVGID_00000025412793288382573130000002514980842487351680_);stroke:#030304;stroke-width:8;stroke-miterlimit:10;}
	.st29{fill:url(#SVGID_00000109729252905438900610000009605041530882379964_);stroke:#030304;stroke-width:8;stroke-miterlimit:10;}
	.st30{fill:url(#SVGID_00000054225158106809914330000001039520979257039021_);stroke:#030304;stroke-width:8;stroke-miterlimit:10;}
	.st31{fill:url(#SVGID_00000142885096782511184590000013700918894670315428_);stroke:#030304;stroke-width:8;stroke-miterlimit:10;}
	.st32{fill:url(#SVGID_00000049934790581125618920000011781487153681167769_);stroke:#020203;stroke-width:8;stroke-miterlimit:10;}
	.st33{fill:url(#SVGID_00000073720761528608031000000002906959409188694920_);stroke:#020203;stroke-width:8;stroke-miterlimit:10;}
</style>
<polyline class="st0" points="26.63,1895.96 262.64,2008.01 490.41,1907.54 "/>
<linearGradient id="SVGID_1_" gradientUnits="userSpaceOnUse" x1="257.6929" y1="1733.285" x2="257.6929" y2="1907.5385">
	<stop  offset="0" style="stop-color:#949494"/>
	<stop  offset="1" style="stop-color:#EBEBEB"/>
</linearGradient>
<polygon class="st1" points="28.04,1807.87 246.78,1733.29 487.34,1818.36 262.64,1907.54 "/>
<linearGradient id="SVGID_00000161606565511155037490000018407592716445125004_" gradientUnits="userSpaceOnUse" x1="144.2103" y1="1807.2667" x2="144.2103" y2="2000.808">
	<stop  offset="0" style="stop-color:#949494"/>
	<stop  offset="1" style="stop-color:#EBEBEB"/>
</linearGradient>
<polygon style="fill:url(#SVGID_00000161606565511155037490000018407592716445125004_);" points="26.63,1807.27 261.79,1907.1 
	261.79,2000.81 26.63,1890.5 "/>
<path class="st3" d="M366.71,1991.99"/>
<polygon class="st4" points="26.63,1890.5 26.63,1807.27 245.94,1736.59 487.34,1818.36 484.39,1898.42 261.79,2000.81 "/>
<linearGradient id="SVGID_00000040565040905026273750000000060817546830089915_" gradientUnits="userSpaceOnUse" x1="262.6376" y1="1909.6842" x2="487.344" y2="1909.6842">
	<stop  offset="0" style="stop-color:#999999"/>
	<stop  offset="1" style="stop-color:#6A6A6A"/>
</linearGradient>
<path style="fill:url(#SVGID_00000040565040905026273750000000060817546830089915_);stroke:#636363;stroke-width:8;stroke-miterlimit:10;" d="
	M262.64,1997.51c0-1.98,0-89.97,0-89.97l224.71-85.68l-2.95,82.37L262.64,1997.51z"/>
<polyline class="st4" points="219.23,1982.7 219.24,1889.54 448.37,1806.51 "/>
<linearGradient id="SVGID_00000052065551934669386200000012560955509632227757_" gradientUnits="userSpaceOnUse" x1="281.935" y1="1907.5385" x2="460.9442" y2="1907.5385">
	<stop  offset="0" style="stop-color:#A5A5A5"/>
	<stop  offset="1" style="stop-color:#D9D9D9"/>
</linearGradient>
<polygon style="fill:url(#SVGID_00000052065551934669386200000012560955509632227757_);stroke:#787878;stroke-width:4;stroke-miterlimit:10;" points="
	281.94,1926.69 460.94,1857.34 460.2,1883.12 281.94,1957.74 "/>
<linearGradient id="SVGID_00000100341388496278147190000016518267835283578248_" gradientUnits="userSpaceOnUse" x1="176.7604" y1="1831.9814" x2="409.095" y2="1831.9814">
	<stop  offset="0" style="stop-color:#EFEFEF"/>
	<stop  offset="1" style="stop-color:#C5C5C5"/>
</linearGradient>
<polygon style="fill:url(#SVGID_00000100341388496278147190000016518267835283578248_);stroke:#636363;stroke-width:8;stroke-miterlimit:10;" points="
	176.76,1840.31 320.56,1789.75 409.1,1819.53 261.79,1874.21 "/>
<polyline class="st8" points="26.63,1384.96 262.64,1497.01 490.41,1396.54 "/>
<linearGradient id="SVGID_00000182504283167786475900000018051222338223933063_" gradientUnits="userSpaceOnUse" x1="257.6929" y1="1222.285" x2="257.6929" y2="1396.5385">
	<stop  offset="0" style="stop-color:#8F8FBC"/>
	<stop  offset="1" style="stop-color:#EAEAE7"/>
</linearGradient>
<polygon style="fill:url(#SVGID_00000182504283167786475900000018051222338223933063_);" points="28.04,1296.87 246.78,1222.29 
	487.34,1307.36 262.64,1396.54 "/>
<linearGradient id="SVGID_00000060714882644803391820000005965700492314517168_" gradientUnits="userSpaceOnUse" x1="144.2103" y1="1296.2667" x2="144.2103" y2="1489.808">
	<stop  offset="0" style="stop-color:#8F8FBC"/>
	<stop  offset="1" style="stop-color:#EAEAE7"/>
</linearGradient>
<polygon style="fill:url(#SVGID_00000060714882644803391820000005965700492314517168_);" points="26.63,1296.27 261.79,1396.1 
	261.79,1489.81 26.63,1379.5 "/>
<path class="st3" d="M366.71,1480.99"/>
<polygon class="st11" points="26.63,1379.5 26.63,1296.27 245.94,1225.59 487.34,1307.36 484.39,1387.42 261.79,1489.81 "/>
<linearGradient id="SVGID_00000155835849672508574310000001887037773644695429_" gradientUnits="userSpaceOnUse" x1="262.6376" y1="1398.6842" x2="487.344" y2="1398.6842">
	<stop  offset="0" style="stop-color:#A4A4A1"/>
	<stop  offset="1" style="stop-color:#7E7E8F"/>
</linearGradient>
<path style="fill:url(#SVGID_00000155835849672508574310000001887037773644695429_);stroke:#82827F;stroke-width:8;stroke-miterlimit:10;" d="
	M262.64,1486.51c0-1.98,0-89.97,0-89.97l224.71-85.68l-2.95,82.37L262.64,1486.51z"/>
<polyline class="st11" points="219.23,1471.7 219.24,1378.54 448.37,1295.51 "/>
<linearGradient id="SVGID_00000026871086843194360920000004094476121692494490_" gradientUnits="userSpaceOnUse" x1="281.935" y1="1396.5385" x2="460.9442" y2="1396.5385">
	<stop  offset="0" style="stop-color:#51A656"/>
	<stop  offset="1" style="stop-color:#C4D9BE"/>
</linearGradient>
<polygon style="fill:url(#SVGID_00000026871086843194360920000004094476121692494490_);stroke:#448A4F;stroke-width:4;stroke-miterlimit:10;" points="
	281.94,1415.69 460.94,1346.34 460.2,1372.12 281.94,1446.74 "/>
<linearGradient id="SVGID_00000054243532029350903800000011178015284221970333_" gradientUnits="userSpaceOnUse" x1="176.7604" y1="1320.9814" x2="409.095" y2="1320.9814">
	<stop  offset="0" style="stop-color:#DFEEF3"/>
	<stop  offset="1" style="stop-color:#77BFD5"/>
</linearGradient>
<polygon style="fill:url(#SVGID_00000054243532029350903800000011178015284221970333_);stroke:#82827F;stroke-width:8;stroke-miterlimit:10;" points="
	176.76,1329.31 320.56,1278.75 409.1,1308.53 261.79,1363.21 "/>
<polyline class="st8" points="26.63,872.63 262.64,984.68 490.41,884.21 "/>
<linearGradient id="SVGID_00000020361917543059936170000008290455614121280394_" gradientUnits="userSpaceOnUse" x1="257.6929" y1="709.9542" x2="257.6929" y2="884.2076">
	<stop  offset="0" style="stop-color:#8F8FBC"/>
	<stop  offset="1" style="stop-color:#EAEAE7"/>
</linearGradient>
<polygon style="fill:url(#SVGID_00000020361917543059936170000008290455614121280394_);" points="28.04,784.53 246.78,709.95 
	487.34,795.03 262.64,884.21 "/>
<linearGradient id="SVGID_00000058566444873482951550000014907832921217378688_" gradientUnits="userSpaceOnUse" x1="144.2103" y1="783.9358" x2="144.2103" y2="977.4771">
	<stop  offset="0" style="stop-color:#8F8FBC"/>
	<stop  offset="1" style="stop-color:#EAEAE7"/>
</linearGradient>
<polygon style="fill:url(#SVGID_00000058566444873482951550000014907832921217378688_);" points="26.63,783.94 261.79,883.77 
	261.79,977.48 26.63,867.17 "/>
<path class="st3" d="M366.71,968.65"/>
<polygon class="st11" points="26.63,867.17 26.63,783.94 245.94,713.26 487.34,795.03 484.39,875.09 261.79,977.48 "/>
<linearGradient id="SVGID_00000106129354049512547360000004989594540230342310_" gradientUnits="userSpaceOnUse" x1="262.6376" y1="886.3533" x2="487.344" y2="886.3533">
	<stop  offset="0" style="stop-color:#A4A4A1"/>
	<stop  offset="1" style="stop-color:#7E7E8F"/>
</linearGradient>
<path style="fill:url(#SVGID_00000106129354049512547360000004989594540230342310_);stroke:#82827F;stroke-width:8;stroke-miterlimit:10;" d="
	M262.64,974.17c0-1.98,0-89.97,0-89.97l224.71-85.68l-2.95,82.37L262.64,974.17z"/>
<polyline class="st11" points="219.23,959.37 219.24,866.21 448.37,783.17 "/>
<linearGradient id="SVGID_00000151507433930042104630000011458523314707191205_" gradientUnits="userSpaceOnUse" x1="281.935" y1="884.2076" x2="460.9442" y2="884.2076">
	<stop  offset="0" style="stop-color:#51A656"/>
	<stop  offset="1" style="stop-color:#C4D9BE"/>
</linearGradient>
<polygon style="fill:url(#SVGID_00000151507433930042104630000011458523314707191205_);stroke:#448A4F;stroke-width:4;stroke-miterlimit:10;" points="
	281.94,903.36 460.94,834.01 460.2,859.78 281.94,934.41 "/>
<linearGradient id="SVGID_00000106134382578112929740000015440343355257432221_" gradientUnits="userSpaceOnUse" x1="176.7604" y1="808.6506" x2="409.095" y2="808.6506">
	<stop  offset="0" style="stop-color:#DFEEF3"/>
	<stop  offset="1" style="stop-color:#77BFD5"/>
</linearGradient>
<polygon style="fill:url(#SVGID_00000106134382578112929740000015440343355257432221_);stroke:#82827F;stroke-width:8;stroke-miterlimit:10;" points="
	176.76,816.98 320.56,766.42 409.1,796.2 261.79,850.88 "/>
<polyline class="st8" points="26.63,360.96 262.64,473.01 490.41,372.54 "/>
<linearGradient id="SVGID_00000065752634466790128920000002989189148446480570_" gradientUnits="userSpaceOnUse" x1="257.6929" y1="198.285" x2="257.6929" y2="372.5384">
	<stop  offset="0" style="stop-color:#8F8FBC"/>
	<stop  offset="1" style="stop-color:#EAEAE7"/>
</linearGradient>
<polygon style="fill:url(#SVGID_00000065752634466790128920000002989189148446480570_);" points="28.04,272.87 246.78,198.29 
	487.34,283.36 262.64,372.54 "/>
<linearGradient id="SVGID_00000032615783519245440050000011917716217847805321_" gradientUnits="userSpaceOnUse" x1="144.2103" y1="272.2667" x2="144.2103" y2="465.808">
	<stop  offset="0" style="stop-color:#8F8FBC"/>
	<stop  offset="1" style="stop-color:#EAEAE7"/>
</linearGradient>
<polygon style="fill:url(#SVGID_00000032615783519245440050000011917716217847805321_);" points="26.63,272.27 261.79,372.1 
	261.79,465.81 26.63,355.5 "/>
<path class="st3" d="M366.71,456.99"/>
<polygon class="st11" points="26.63,355.5 26.63,272.27 245.94,201.59 487.34,283.36 484.39,363.42 261.79,465.81 "/>
<linearGradient id="SVGID_00000035514840148450503570000000297517043875823805_" gradientUnits="userSpaceOnUse" x1="262.6376" y1="374.6842" x2="487.344" y2="374.6842">
	<stop  offset="0" style="stop-color:#A4A4A1"/>
	<stop  offset="1" style="stop-color:#7E7E8F"/>
</linearGradient>
<path style="fill:url(#SVGID_00000035514840148450503570000000297517043875823805_);stroke:#82827F;stroke-width:8;stroke-miterlimit:10;" d="
	M262.64,462.51c0-1.98,0-89.97,0-89.97l224.71-85.68l-2.95,82.37L262.64,462.51z"/>
<polyline class="st11" points="219.23,447.7 219.24,354.54 448.37,271.51 "/>
<linearGradient id="SVGID_00000087408166533053391900000010067044563775870907_" gradientUnits="userSpaceOnUse" x1="256" y1="-37.0183" x2="256" y2="-37.0183">
	<stop  offset="0" style="stop-color:#A4A4A1"/>
	<stop  offset="1" style="stop-color:#7E7E8F"/>
</linearGradient>
<path style="fill:url(#SVGID_00000087408166533053391900000010067044563775870907_);stroke:#82827F;stroke-width:8;stroke-miterlimit:10;" d="
	M256-37.02"/>
<linearGradient id="SVGID_00000019678636911499927140000000206644019097675655_" gradientUnits="userSpaceOnUse" x1="281.935" y1="372.5384" x2="460.9442" y2="372.5384">
	<stop  offset="0" style="stop-color:#51A656"/>
	<stop  offset="1" style="stop-color:#C4D9BE"/>
</linearGradient>
<polygon style="fill:url(#SVGID_00000019678636911499927140000000206644019097675655_);stroke:#448A4F;stroke-width:4;stroke-miterlimit:10;" points="
	281.94,391.69 460.94,322.34 460.2,348.12 281.94,422.74 "/>
<linearGradient id="SVGID_00000023241493943882266610000014531462133602773150_" gradientUnits="userSpaceOnUse" x1="176.7604" y1="296.9814" x2="409.095" y2="296.9814">
	<stop  offset="0" style="stop-color:#DFEEF3"/>
	<stop  offset="1" style="stop-color:#77BFD5"/>
</linearGradient>
<polygon style="fill:url(#SVGID_00000023241493943882266610000014531462133602773150_);stroke:#82827F;stroke-width:8;stroke-miterlimit:10;" points="
	176.76,305.31 320.56,254.75 409.1,284.53 261.79,339.21 "/>
<linearGradient id="SVGID_00000052092584351124510400000015464709736813426569_" gradientUnits="userSpaceOnUse" x1="550.0996" y1="2011.6699" x2="550.0996" y2="1795" gradientTransform="matrix(1 0 0 -1 -197.2683 2050)">
	<stop  offset="0" style="stop-color:#BCDAAC"/>
	<stop  offset="1" style="stop-color:#44AC37"/>
</linearGradient>
<path style="fill:url(#SVGID_00000052092584351124510400000015464709736813426569_);stroke:#030304;stroke-width:8;stroke-miterlimit:10;" d="
	M378.74,229.93V63.4c0-13.85-11.22-25.07-25.07-25.07H352c-13.85,0-25.07,11.22-25.07,25.07v166.53c0,13.85,11.22,25.07,25.07,25.07
	h1.67C367.51,255,378.74,243.78,378.74,229.93z"/>
<linearGradient id="SVGID_00000147910977728324340040000012191394247391130517_" gradientUnits="userSpaceOnUse" x1="417.2929" y1="2002.2693" x2="417.2929" y2="1798.2401" gradientTransform="matrix(1 0 0 -1 -197.2683 2050)">
	<stop  offset="0" style="stop-color:#BCDAAC"/>
	<stop  offset="1" style="stop-color:#44AC37"/>
</linearGradient>
<path style="fill:url(#SVGID_00000147910977728324340040000012191394247391130517_);stroke:#030304;stroke-width:8;stroke-miterlimit:10;" d="
	M141.02,60.46L141.02,60.46c-8.44,13.19-4.23,30.76,9.28,38.69l60.2,35.33c4.87,2.86,5.39,9.71,1,13.27l-61.9,50.24
	c-12.38,10.04-13.7,28.45-2.88,40.16l4.37,4.74c10.23,11.07,27.46,11.89,38.69,1.83l110.92-99.33c3.94-3.53,3.49-9.83-0.91-12.77
	L179.58,52.38C166.73,43.8,149.34,47.44,141.02,60.46z"/>
<linearGradient id="SVGID_00000103238306408901722020000005332289563465508264_" gradientUnits="userSpaceOnUse" x1="550.0996" y1="1499.6699" x2="550.0996" y2="1283" gradientTransform="matrix(1 0 0 -1 -197.2683 2050)">
	<stop  offset="0" style="stop-color:#FFDD08"/>
	<stop  offset="1" style="stop-color:#F7A81E"/>
</linearGradient>
<path style="fill:url(#SVGID_00000103238306408901722020000005332289563465508264_);stroke:#030304;stroke-width:8;stroke-miterlimit:10;" d="
	M378.74,741.93V575.4c0-13.85-11.22-25.07-25.07-25.07H352c-13.85,0-25.07,11.22-25.07,25.07v166.53
	c0,13.85,11.22,25.07,25.07,25.07h1.67C367.51,767,378.74,755.78,378.74,741.93z"/>
<linearGradient id="SVGID_00000072262817833151424900000004613354567577162641_" gradientUnits="userSpaceOnUse" x1="417.2929" y1="1490.2693" x2="417.2929" y2="1286.2401" gradientTransform="matrix(1 0 0 -1 -197.2683 2050)">
	<stop  offset="0" style="stop-color:#FFDD08"/>
	<stop  offset="1" style="stop-color:#F7A81E"/>
</linearGradient>
<path style="fill:url(#SVGID_00000072262817833151424900000004613354567577162641_);stroke:#030304;stroke-width:8;stroke-miterlimit:10;" d="
	M141.02,572.46L141.02,572.46c-8.44,13.19-4.23,30.76,9.28,38.69l60.2,35.33c4.87,2.86,5.39,9.71,1,13.27l-61.9,50.24
	c-12.38,10.04-13.7,28.45-2.88,40.16l4.37,4.74c10.23,11.07,27.46,11.89,38.69,1.83l110.92-99.33c3.94-3.53,3.49-9.83-0.91-12.77
	l-120.21-80.24C166.73,555.8,149.34,559.44,141.02,572.46z"/>
<linearGradient id="SVGID_00000093872747958699245350000009458549603065629602_" gradientUnits="userSpaceOnUse" x1="550.0996" y1="987.6699" x2="550.0996" y2="771" gradientTransform="matrix(1 0 0 -1 -197.2683 2050)">
	<stop  offset="0" style="stop-color:#AED2EE"/>
	<stop  offset="1" style="stop-color:#3CB2E6"/>
</linearGradient>
<path style="fill:url(#SVGID_00000093872747958699245350000009458549603065629602_);stroke:#030304;stroke-width:8;stroke-miterlimit:10;" d="
	M378.74,1253.93V1087.4c0-13.85-11.22-25.07-25.07-25.07H352c-13.85,0-25.07,11.22-25.07,25.07v166.53
	c0,13.85,11.22,25.07,25.07,25.07h1.67C367.51,1279,378.74,1267.78,378.74,1253.93z"/>
<linearGradient id="SVGID_00000145035918383393456020000004365978109184335263_" gradientUnits="userSpaceOnUse" x1="417.2929" y1="978.2692" x2="417.2929" y2="774.2401" gradientTransform="matrix(1 0 0 -1 -197.2683 2050)">
	<stop  offset="0" style="stop-color:#AED2EE"/>
	<stop  offset="1" style="stop-color:#3CB2E6"/>
</linearGradient>
<path style="fill:url(#SVGID_00000145035918383393456020000004365978109184335263_);stroke:#030304;stroke-width:8;stroke-miterlimit:10;" d="
	M141.02,1084.46L141.02,1084.46c-8.44,13.19-4.23,30.76,9.28,38.69l60.2,35.33c4.87,2.86,5.39,9.71,1,13.27l-61.9,50.24
	c-12.38,10.04-13.7,28.45-2.88,40.16l4.37,4.74c10.23,11.07,27.46,11.89,38.69,1.83l110.92-99.33c3.94-3.53,3.49-9.83-0.91-12.77
	l-120.21-80.24C166.73,1067.8,149.34,1071.44,141.02,1084.46z"/>
<linearGradient id="SVGID_00000067950057691701837130000018222196812537760168_" gradientUnits="userSpaceOnUse" x1="550.0996" y1="475.6699" x2="550.0996" y2="259" gradientTransform="matrix(1 0 0 -1 -197.2683 2050)">
	<stop  offset="0" style="stop-color:#DADADA"/>
	<stop  offset="1" style="stop-color:#A9A9AA"/>
</linearGradient>
<path style="fill:url(#SVGID_00000067950057691701837130000018222196812537760168_);stroke:#020203;stroke-width:8;stroke-miterlimit:10;" d="
	M378.74,1765.93V1599.4c0-13.85-11.22-25.07-25.07-25.07H352c-13.85,0-25.07,11.22-25.07,25.07v166.53
	c0,13.85,11.22,25.07,25.07,25.07h1.67C367.51,1791,378.74,1779.78,378.74,1765.93z"/>
<linearGradient id="SVGID_00000095313898475440179680000002237453386488786582_" gradientUnits="userSpaceOnUse" x1="416.6946" y1="466.2697" x2="416.6946" y2="262.2401" gradientTransform="matrix(1 0 0 -1 -197.2683 2050)">
	<stop  offset="0" style="stop-color:#DADADA"/>
	<stop  offset="1" style="stop-color:#A9A9AA"/>
</linearGradient>
<path style="fill:url(#SVGID_00000095313898475440179680000002237453386488786582_);stroke:#020203;stroke-width:8;stroke-miterlimit:10;" d="
	M141.01,1596.45L141.01,1596.45c-8.44,13.19-4.23,30.76,9.28,38.69l57.86,33.96c6.01,3.53,6.65,11.96,1.24,16.35l-59.8,48.54
	c-12.38,10.04-13.7,28.45-2.88,40.16l4.37,4.74c10.23,11.07,27.46,11.89,38.69,1.83l109.12-97.71c4.85-4.35,4.3-12.11-1.12-15.73
	l-118.19-78.9C166.73,1579.8,149.34,1583.44,141.01,1596.45z"/>
</svg>
