<?xml version="1.0" encoding="utf-8"?>
<!-- Generator: Adobe Illustrator 27.0.1, SVG Export Plug-In . SVG Version: 6.00 Build 0)  -->
<svg version="1.1" id="Calque_1" xmlns="http://www.w3.org/2000/svg" xmlns:xlink="http://www.w3.org/1999/xlink" x="0px" y="0px"
	 viewBox="0 0 512 2048" style="enable-background:new 0 0 512 2048;" xml:space="preserve">
<style type="text/css">
	.st0{opacity:0.5;fill:none;stroke:#A1A09F;stroke-width:8;stroke-miterlimit:10;enable-background:new    ;}
	.st1{fill:url(#SVGID_1_);}
	.st2{fill:url(#SVGID_00000111161692160470505320000001392989284256210833_);}
	.st3{fill:none;stroke:#020203;stroke-miterlimit:10;}
	.st4{fill:none;stroke:#828380;stroke-width:8;stroke-miterlimit:10;}
	.st5{fill:url(#SVGID_00000152967185126288957200000017435102853656124829_);stroke:#828380;stroke-width:8;stroke-miterlimit:10;}
	.st6{fill:url(#SVGID_00000147193912445056921380000012421040535704558221_);stroke:#448B50;stroke-width:4;stroke-miterlimit:10;}
	.st7{fill:url(#SVGID_00000158751540892003095200000014898085615370869395_);stroke:#828380;stroke-width:8;stroke-miterlimit:10;}
	.st8{fill:url(#SVGID_00000121280558789753897090000004732721124835044763_);stroke:#000000;stroke-miterlimit:10;}
	.st9{fill:url(#SVGID_00000115477580483273445630000008060853545597763730_);stroke:#000000;stroke-miterlimit:10;}
	.st10{fill:url(#SVGID_00000048486897337248807800000013141370472395031692_);}
	.st11{fill:url(#SVGID_00000165916030194359093820000002345104750292712838_);}
	.st12{fill:url(#SVGID_00000057850244769054830590000001120043242118066078_);stroke:#828380;stroke-width:8;stroke-miterlimit:10;}
	.st13{fill:url(#SVGID_00000069378275252480317430000007136945787973249930_);stroke:#448B50;stroke-width:4;stroke-miterlimit:10;}
	.st14{fill:url(#SVGID_00000034053311313736287730000014385190431453658006_);stroke:#828380;stroke-width:8;stroke-miterlimit:10;}
	.st15{fill:url(#SVGID_00000078759238506306010240000014417253925414929538_);stroke:#000000;stroke-miterlimit:10;}
	.st16{fill:url(#SVGID_00000169547682270970392980000010665836041225284274_);stroke:#000000;stroke-miterlimit:10;}
	.st17{fill:url(#SVGID_00000137832714605522275660000003564019988454709180_);}
	.st18{fill:url(#SVGID_00000150811020125194035490000010907595730514058896_);}
	.st19{fill:url(#SVGID_00000012432868985799861490000000121819248095294875_);stroke:#828380;stroke-width:8;stroke-miterlimit:10;}
	.st20{fill:url(#SVGID_00000034781570417813517690000011910507186513739178_);stroke:#448B50;stroke-width:4;stroke-miterlimit:10;}
	.st21{fill:url(#SVGID_00000165918133420668588950000006036690370697407661_);stroke:#828380;stroke-width:8;stroke-miterlimit:10;}
	.st22{fill:url(#SVGID_00000009549154188853232160000000459432224544565898_);stroke:#000000;stroke-miterlimit:10;}
	.st23{fill:url(#SVGID_00000145045763625164328260000007178556921116596127_);stroke:#000000;stroke-miterlimit:10;}
	.st24{opacity:0.5;fill:none;stroke:#949494;stroke-width:8;stroke-miterlimit:10;enable-background:new    ;}
	.st25{fill:url(#SVGID_00000106839111212644180640000005638071956092270219_);}
	.st26{fill:url(#SVGID_00000039828708788581024220000011591207369265490070_);}
	.st27{fill:none;stroke:#646464;stroke-width:8;stroke-miterlimit:10;}
	.st28{fill:url(#SVGID_00000013174772793142275950000000313649954948048806_);stroke:#646464;stroke-width:8;stroke-miterlimit:10;}
	.st29{fill:url(#SVGID_00000103251431490434381100000017718861278553100200_);stroke:#787878;stroke-width:4;stroke-miterlimit:10;}
	.st30{fill:url(#SVGID_00000154423368186306079660000000231965961173475216_);stroke:#646464;stroke-width:8;stroke-miterlimit:10;}
	.st31{fill:url(#SVGID_00000088105526941363715430000008150221115381739397_);stroke:#000000;stroke-miterlimit:10;}
	.st32{fill:url(#SVGID_00000155847979533837911150000006568393335178830265_);stroke:#000000;stroke-miterlimit:10;}
</style>
<polyline class="st0" points="26.63,360.96 262.64,473.01 490.41,372.55 "/>
<linearGradient id="SVGID_1_" gradientUnits="userSpaceOnUse" x1="257.69" y1="1851.715" x2="257.69" y2="1677.455" gradientTransform="matrix(1 0 0 -1 0 2050)">
	<stop  offset="0" style="stop-color:#8F8FBC"/>
	<stop  offset="1" style="stop-color:#EBEAE7"/>
</linearGradient>
<polygon class="st1" points="28.04,272.87 246.78,198.29 487.34,283.37 262.64,372.55 "/>
<linearGradient id="SVGID_00000135663137544641533330000001732729030466124697_" gradientUnits="userSpaceOnUse" x1="144.21" y1="1777.725" x2="144.21" y2="1584.1851" gradientTransform="matrix(1 0 0 -1 0 2050)">
	<stop  offset="0" style="stop-color:#8F8FBC"/>
	<stop  offset="1" style="stop-color:#EBEAE7"/>
</linearGradient>
<polygon style="fill:url(#SVGID_00000135663137544641533330000001732729030466124697_);" points="26.63,272.27 261.79,372.11 
	261.79,465.81 26.63,355.5 "/>
<path class="st3" d="M366.71,456.99"/>
<polygon class="st4" points="26.63,355.5 26.63,272.27 245.94,201.6 487.34,283.37 484.39,363.43 261.79,465.81 "/>
<linearGradient id="SVGID_00000084511941081716122960000015362953858306396334_" gradientUnits="userSpaceOnUse" x1="262.64" y1="1675.3201" x2="487.35" y2="1675.3201" gradientTransform="matrix(1 0 0 -1 0 2050)">
	<stop  offset="0" style="stop-color:#A4A4A1"/>
	<stop  offset="1" style="stop-color:#7E7E8F"/>
</linearGradient>
<path style="fill:url(#SVGID_00000084511941081716122960000015362953858306396334_);stroke:#828380;stroke-width:8;stroke-miterlimit:10;" d="
	M262.64,462.5c0-1.98,0-89.97,0-89.97l224.71-85.68l-2.95,82.37L262.64,462.5z"/>
<polyline class="st4" points="219.23,447.7 219.24,354.55 448.37,271.5 "/>
<linearGradient id="SVGID_00000149345296100052495050000017350868197555431557_" gradientUnits="userSpaceOnUse" x1="281.94" y1="1677.455" x2="460.94" y2="1677.455" gradientTransform="matrix(1 0 0 -1 0 2050)">
	<stop  offset="0" style="stop-color:#50A657"/>
	<stop  offset="1" style="stop-color:#C4D9BE"/>
</linearGradient>
<polygon style="fill:url(#SVGID_00000149345296100052495050000017350868197555431557_);stroke:#448B50;stroke-width:4;stroke-miterlimit:10;" points="
	281.94,391.69 460.94,322.35 460.2,348.12 281.94,422.74 "/>
<linearGradient id="SVGID_00000128470594217281278570000006153433686202356917_" gradientUnits="userSpaceOnUse" x1="176.76" y1="1753.015" x2="409.1" y2="1753.015" gradientTransform="matrix(1 0 0 -1 0 2050)">
	<stop  offset="0" style="stop-color:#DFEFF4"/>
	<stop  offset="1" style="stop-color:#78BFD5"/>
</linearGradient>
<polygon style="fill:url(#SVGID_00000128470594217281278570000006153433686202356917_);stroke:#828380;stroke-width:8;stroke-miterlimit:10;" points="
	176.76,305.31 320.56,254.75 409.1,284.54 261.79,339.21 "/>
<linearGradient id="SVGID_00000153689011256598232610000004880241633167075750_" gradientUnits="userSpaceOnUse" x1="181.4921" y1="200.2157" x2="331.4921" y2="200.2157">
	<stop  offset="0" style="stop-color:#FAF2BF"/>
	<stop  offset="0.4899" style="stop-color:#BAAB6F"/>
	<stop  offset="1" style="stop-color:#977E3A"/>
</linearGradient>
<rect x="181.49" y="133.82" style="fill:url(#SVGID_00000153689011256598232610000004880241633167075750_);stroke:#000000;stroke-miterlimit:10;" width="150" height="132.79"/>
<linearGradient id="SVGID_00000072982776944936868720000000989534393919778470_" gradientUnits="userSpaceOnUse" x1="192.1542" y1="77.7604" x2="323.4237" y2="77.7604">
	<stop  offset="0" style="stop-color:#C6C6C6"/>
	<stop  offset="1" style="stop-color:#878787"/>
</linearGradient>
<path style="fill:url(#SVGID_00000072982776944936868720000000989534393919778470_);stroke:#000000;stroke-miterlimit:10;" d="
	M257.79,23.02c-35.78,0-64.86,28.62-65.63,64.21v45.27h24.73V87.23h0c0.77-21.94,18.78-39.49,40.91-39.49
	c22.12,0,40.14,17.55,40.91,39.49v45.27h24.44l0.29-45.27C322.65,51.64,293.57,23.02,257.79,23.02z"/>
<path d="M272.36,218.92l-9.3-16.1h0.38v-11.4c3.75-2.32,6.25-6.47,6.25-11.21c0-7.29-5.91-13.19-13.19-13.19
	c-7.29,0-13.19,5.91-13.19,13.19c0,4.41,2.17,8.3,5.49,10.69v11.92h0.02l-9.3,16.1H272.36z"/>
<polyline class="st0" points="26.66,873.59 262.67,985.64 490.44,885.17 "/>
<linearGradient id="SVGID_00000036227844163883627230000007104072721017856434_" gradientUnits="userSpaceOnUse" x1="257.7179" y1="1339.0879" x2="257.7179" y2="1164.8279" gradientTransform="matrix(1 0 0 -1 0 2050)">
	<stop  offset="0" style="stop-color:#8F8FBC"/>
	<stop  offset="1" style="stop-color:#EBEAE7"/>
</linearGradient>
<polygon style="fill:url(#SVGID_00000036227844163883627230000007104072721017856434_);" points="28.07,785.49 246.81,710.91 
	487.37,795.99 262.67,885.17 "/>
<linearGradient id="SVGID_00000130623715841909104510000005624277970447686798_" gradientUnits="userSpaceOnUse" x1="144.2379" y1="1265.0979" x2="144.2379" y2="1071.558" gradientTransform="matrix(1 0 0 -1 0 2050)">
	<stop  offset="0" style="stop-color:#8F8FBC"/>
	<stop  offset="1" style="stop-color:#EBEAE7"/>
</linearGradient>
<polygon style="fill:url(#SVGID_00000130623715841909104510000005624277970447686798_);" points="26.66,784.9 261.82,884.73 
	261.82,978.44 26.66,868.13 "/>
<path class="st3" d="M368.74,970.61"/>
<polygon class="st4" points="26.66,868.13 26.66,784.9 245.97,714.22 487.37,795.99 484.42,876.05 261.82,978.44 "/>
<linearGradient id="SVGID_00000129192627438578347930000000336802872035404222_" gradientUnits="userSpaceOnUse" x1="262.6679" y1="1162.693" x2="487.378" y2="1162.693" gradientTransform="matrix(1 0 0 -1 0 2050)">
	<stop  offset="0" style="stop-color:#A4A4A1"/>
	<stop  offset="1" style="stop-color:#7E7E8F"/>
</linearGradient>
<path style="fill:url(#SVGID_00000129192627438578347930000000336802872035404222_);stroke:#828380;stroke-width:8;stroke-miterlimit:10;" d="
	M262.67,975.13c0-1.98,0-89.97,0-89.97l224.71-85.68l-2.95,82.37L262.67,975.13z"/>
<polyline class="st4" points="219.26,960.33 219.27,867.17 448.4,784.13 "/>
<linearGradient id="SVGID_00000114774164491484201190000004569713968228751772_" gradientUnits="userSpaceOnUse" x1="281.9679" y1="1164.8279" x2="460.9679" y2="1164.8279" gradientTransform="matrix(1 0 0 -1 0 2050)">
	<stop  offset="0" style="stop-color:#50A657"/>
	<stop  offset="1" style="stop-color:#C4D9BE"/>
</linearGradient>
<polygon style="fill:url(#SVGID_00000114774164491484201190000004569713968228751772_);stroke:#448B50;stroke-width:4;stroke-miterlimit:10;" points="
	281.97,904.32 460.97,834.97 460.23,860.74 281.97,935.37 "/>
<linearGradient id="SVGID_00000059311062325266089720000006459387898915508892_" gradientUnits="userSpaceOnUse" x1="176.7879" y1="1240.3879" x2="409.1279" y2="1240.3879" gradientTransform="matrix(1 0 0 -1 0 2050)">
	<stop  offset="0" style="stop-color:#DFEFF4"/>
	<stop  offset="1" style="stop-color:#78BFD5"/>
</linearGradient>
<polygon style="fill:url(#SVGID_00000059311062325266089720000006459387898915508892_);stroke:#828380;stroke-width:8;stroke-miterlimit:10;" points="
	176.79,817.94 320.59,767.38 409.13,797.16 261.82,851.84 "/>
<linearGradient id="SVGID_00000021815606414275891680000014909605648219528585_" gradientUnits="userSpaceOnUse" x1="176.2283" y1="712.7074" x2="325.8617" y2="712.7074">
	<stop  offset="0" style="stop-color:#FAF2BF"/>
	<stop  offset="0.4899" style="stop-color:#BAAB6F"/>
	<stop  offset="1" style="stop-color:#977E3A"/>
</linearGradient>
<rect x="176.23" y="646.47" style="fill:url(#SVGID_00000021815606414275891680000014909605648219528585_);stroke:#000000;stroke-miterlimit:10;" width="149.63" height="132.47"/>
<linearGradient id="SVGID_00000016792793040645622390000006622030126077927567_" gradientUnits="userSpaceOnUse" x1="292.0793" y1="590.5513" x2="423.028" y2="590.5513">
	<stop  offset="0" style="stop-color:#C6C6C6"/>
	<stop  offset="1" style="stop-color:#878787"/>
</linearGradient>
<path style="fill:url(#SVGID_00000016792793040645622390000006622030126077927567_);stroke:#000000;stroke-miterlimit:10;" d="
	M357.55,535.94c-35.69,0-64.7,28.55-65.47,64.06v45.16h24.67V600h0c0.77-21.88,18.74-39.39,40.81-39.39
	c22.07,0,40.04,17.51,40.81,39.39v45.16h24.38l0.29-45.16C422.25,564.49,393.25,535.94,357.55,535.94z"/>
<path d="M270.56,723.03l-8.23-14.25h0.33v-10.09c3.32-2.06,5.53-5.73,5.53-9.92c0-6.45-5.23-11.68-11.68-11.68
	c-6.45,0-11.68,5.23-11.68,11.68c0,3.9,1.92,7.34,4.86,9.46v10.55h0.02l-8.23,14.25H270.56z"/>
<polyline class="st0" points="26.66,1386.22 262.67,1498.27 490.44,1397.8 "/>
<linearGradient id="SVGID_00000010304447765126214330000001814500495800684964_" gradientUnits="userSpaceOnUse" x1="257.7179" y1="826.4608" x2="257.7179" y2="652.2008" gradientTransform="matrix(1 0 0 -1 0 2050)">
	<stop  offset="0" style="stop-color:#8F8FBC"/>
	<stop  offset="1" style="stop-color:#EBEAE7"/>
</linearGradient>
<polygon style="fill:url(#SVGID_00000010304447765126214330000001814500495800684964_);" points="28.07,1298.12 246.81,1223.54 
	487.37,1308.62 262.67,1397.8 "/>
<linearGradient id="SVGID_00000103962805966772657180000017420059065051126661_" gradientUnits="userSpaceOnUse" x1="144.2379" y1="752.4708" x2="144.2379" y2="558.9308" gradientTransform="matrix(1 0 0 -1 0 2050)">
	<stop  offset="0" style="stop-color:#8F8FBC"/>
	<stop  offset="1" style="stop-color:#EBEAE7"/>
</linearGradient>
<polygon style="fill:url(#SVGID_00000103962805966772657180000017420059065051126661_);" points="26.66,1297.53 261.82,1397.36 
	261.82,1491.07 26.66,1380.76 "/>
<path class="st3" d="M366.74,1484.24"/>
<polygon class="st4" points="26.66,1380.76 26.66,1297.53 245.97,1226.85 487.37,1308.62 484.42,1388.68 261.82,1491.07 "/>
<linearGradient id="SVGID_00000145747592800619690540000006462827988507767737_" gradientUnits="userSpaceOnUse" x1="262.6679" y1="650.0659" x2="487.378" y2="650.0659" gradientTransform="matrix(1 0 0 -1 0 2050)">
	<stop  offset="0" style="stop-color:#A4A4A1"/>
	<stop  offset="1" style="stop-color:#7E7E8F"/>
</linearGradient>
<path style="fill:url(#SVGID_00000145747592800619690540000006462827988507767737_);stroke:#828380;stroke-width:8;stroke-miterlimit:10;" d="
	M262.67,1487.76c0-1.98,0-89.97,0-89.97l224.71-85.68l-2.95,82.37L262.67,1487.76z"/>
<polyline class="st4" points="219.26,1472.96 219.27,1379.8 448.4,1296.76 "/>
<linearGradient id="SVGID_00000083089935938873634750000014399910703058645919_" gradientUnits="userSpaceOnUse" x1="281.9679" y1="652.2008" x2="460.9679" y2="652.2008" gradientTransform="matrix(1 0 0 -1 0 2050)">
	<stop  offset="0" style="stop-color:#50A657"/>
	<stop  offset="1" style="stop-color:#C4D9BE"/>
</linearGradient>
<polygon style="fill:url(#SVGID_00000083089935938873634750000014399910703058645919_);stroke:#448B50;stroke-width:4;stroke-miterlimit:10;" points="
	281.97,1416.95 460.97,1347.6 460.23,1373.37 281.97,1448 "/>
<linearGradient id="SVGID_00000076567996804995520870000007764554773422521017_" gradientUnits="userSpaceOnUse" x1="176.7879" y1="727.7608" x2="409.1279" y2="727.7608" gradientTransform="matrix(1 0 0 -1 0 2050)">
	<stop  offset="0" style="stop-color:#DFEFF4"/>
	<stop  offset="1" style="stop-color:#78BFD5"/>
</linearGradient>
<polygon style="fill:url(#SVGID_00000076567996804995520870000007764554773422521017_);stroke:#828380;stroke-width:8;stroke-miterlimit:10;" points="
	176.79,1330.57 320.59,1280.01 409.13,1309.79 261.82,1364.47 "/>
<linearGradient id="SVGID_00000173141740832360994490000002872625034426872764_" gradientUnits="userSpaceOnUse" x1="188.0541" y1="1220.9568" x2="324.9859" y2="1220.9568">
	<stop  offset="0" style="stop-color:#FAF2BF"/>
	<stop  offset="0.4899" style="stop-color:#BAAB6F"/>
	<stop  offset="1" style="stop-color:#977E3A"/>
</linearGradient>
<rect x="188.05" y="1160.34" style="fill:url(#SVGID_00000173141740832360994490000002872625034426872764_);stroke:#000000;stroke-miterlimit:10;" width="136.93" height="121.23"/>
<linearGradient id="SVGID_00000019671269357767183340000009001084423150807986_" gradientUnits="userSpaceOnUse" x1="197.7873" y1="1088.543" x2="317.6205" y2="1088.543">
	<stop  offset="0" style="stop-color:#C6C6C6"/>
	<stop  offset="1" style="stop-color:#878787"/>
</linearGradient>
<path style="fill:url(#SVGID_00000019671269357767183340000009001084423150807986_);stroke:#000000;stroke-miterlimit:10;" d="
	M257.7,1038.57c-32.66,0-59.21,26.13-59.92,58.62v41.33h22.57v-41.33h0c0.7-20.03,17.15-36.05,37.35-36.05
	c20.2,0,36.64,16.02,37.35,36.05v41.33h22.31l0.26-41.33C316.91,1064.7,290.37,1038.57,257.7,1038.57z"/>
<path d="M271,1238.03l-8.49-14.7h0.35v-10.41c3.42-2.12,5.7-5.91,5.7-10.23c0-6.65-5.39-12.04-12.04-12.04
	c-6.65,0-12.04,5.39-12.04,12.04c0,4.02,1.98,7.57,5.01,9.76v10.88h0.02l-8.49,14.7H271z"/>
<polyline class="st24" points="26.14,1898.85 262.15,2010.9 489.92,1910.43 "/>
<linearGradient id="SVGID_00000075878736061383780460000006230053178648745107_" gradientUnits="userSpaceOnUse" x1="257.1979" y1="313.8337" x2="257.1979" y2="139.5737" gradientTransform="matrix(1 0 0 -1 0 2050)">
	<stop  offset="0" style="stop-color:#959595"/>
	<stop  offset="1" style="stop-color:#EBEBEB"/>
</linearGradient>
<polygon style="fill:url(#SVGID_00000075878736061383780460000006230053178648745107_);" points="27.55,1810.75 246.29,1736.17 
	486.85,1821.25 262.15,1910.43 "/>
<linearGradient id="SVGID_00000179629043131413733980000001859531839134540724_" gradientUnits="userSpaceOnUse" x1="143.7179" y1="239.8437" x2="143.7179" y2="46.3037" gradientTransform="matrix(1 0 0 -1 0 2050)">
	<stop  offset="0" style="stop-color:#959595"/>
	<stop  offset="1" style="stop-color:#EBEBEB"/>
</linearGradient>
<polygon style="fill:url(#SVGID_00000179629043131413733980000001859531839134540724_);" points="26.14,1810.16 261.3,1909.99 
	261.3,2003.7 26.14,1893.39 "/>
<path class="st3" d="M366.22,1994.87"/>
<polygon class="st27" points="26.14,1893.39 26.14,1810.16 245.45,1739.48 486.85,1821.25 483.9,1901.31 261.3,2003.7 "/>
<linearGradient id="SVGID_00000129897025775342258140000015628335621656717964_" gradientUnits="userSpaceOnUse" x1="262.1479" y1="137.4387" x2="486.8579" y2="137.4387" gradientTransform="matrix(1 0 0 -1 0 2050)">
	<stop  offset="0" style="stop-color:#9A9A9A"/>
	<stop  offset="1" style="stop-color:#6A6A6A"/>
</linearGradient>
<path style="fill:url(#SVGID_00000129897025775342258140000015628335621656717964_);stroke:#646464;stroke-width:8;stroke-miterlimit:10;" d="
	M262.15,2000.39c0-1.98,0-89.97,0-89.97l224.71-85.68l-2.95,82.37L262.15,2000.39z"/>
<polyline class="st27" points="218.74,1985.59 218.75,1892.43 447.88,1809.39 "/>
<linearGradient id="SVGID_00000008859607597852707200000005133804445315077280_" gradientUnits="userSpaceOnUse" x1="281.4479" y1="139.5737" x2="460.4479" y2="139.5737" gradientTransform="matrix(1 0 0 -1 0 2050)">
	<stop  offset="0" style="stop-color:#A6A6A6"/>
	<stop  offset="1" style="stop-color:#D9D9D9"/>
</linearGradient>
<polygon style="fill:url(#SVGID_00000008859607597852707200000005133804445315077280_);stroke:#787878;stroke-width:4;stroke-miterlimit:10;" points="
	281.45,1929.58 460.45,1860.23 459.71,1886 281.45,1960.63 "/>
<linearGradient id="SVGID_00000142873021074821918910000012312633114984194468_" gradientUnits="userSpaceOnUse" x1="176.2679" y1="215.1337" x2="408.6079" y2="215.1337" gradientTransform="matrix(1 0 0 -1 0 2050)">
	<stop  offset="0" style="stop-color:#F0F0F0"/>
	<stop  offset="1" style="stop-color:#C6C6C6"/>
</linearGradient>
<polygon style="fill:url(#SVGID_00000142873021074821918910000012312633114984194468_);stroke:#646464;stroke-width:8;stroke-miterlimit:10;" points="
	176.27,1843.2 320.07,1792.64 408.61,1822.42 261.3,1877.1 "/>
<linearGradient id="SVGID_00000021818426723184986260000011776878045464837009_" gradientUnits="userSpaceOnUse" x1="181" y1="1738.097" x2="331" y2="1738.097">
	<stop  offset="0" style="stop-color:#EFEFEF"/>
	<stop  offset="0.4899" style="stop-color:#9D9D9D"/>
	<stop  offset="1" style="stop-color:#565656"/>
</linearGradient>
<rect x="181" y="1671.7" style="fill:url(#SVGID_00000021818426723184986260000011776878045464837009_);stroke:#000000;stroke-miterlimit:10;" width="150" height="132.79"/>
<linearGradient id="SVGID_00000048467120446227151760000015430620057844187828_" gradientUnits="userSpaceOnUse" x1="191.6621" y1="1615.6416" x2="322.9316" y2="1615.6416">
	<stop  offset="0" style="stop-color:#B3B3B3"/>
	<stop  offset="1" style="stop-color:#666666"/>
</linearGradient>
<path style="fill:url(#SVGID_00000048467120446227151760000015430620057844187828_);stroke:#000000;stroke-miterlimit:10;" d="
	M257.3,1560.9c-35.78,0-64.86,28.62-65.63,64.21v45.27h24.73v-45.27h0c0.77-21.94,18.78-39.49,40.91-39.49
	c22.12,0,40.14,17.55,40.91,39.49v45.27h24.44l0.29-45.27C322.15,1589.52,293.08,1560.9,257.3,1560.9z"/>
<path d="M271.86,1756.8l-9.3-16.1h0.38v-11.4c3.75-2.32,6.25-6.47,6.25-11.21c0-7.29-5.91-13.19-13.19-13.19
	c-7.29,0-13.19,5.91-13.19,13.19c0,4.41,2.17,8.3,5.49,10.69v11.92h0.02l-9.3,16.1H271.86z"/>
</svg>
