<?xml version="1.0" encoding="utf-8"?>
<!-- Generator: Adobe Illustrator 27.0.1, SVG Export Plug-In . SVG Version: 6.00 Build 0)  -->
<svg version="1.1" id="Calque_1" xmlns="http://www.w3.org/2000/svg" xmlns:xlink="http://www.w3.org/1999/xlink" x="0px" y="0px"
	 viewBox="0 0 512 2048" style="enable-background:new 0 0 512 2048;" xml:space="preserve">
<style type="text/css">
	.st0{opacity:0.5;fill:none;stroke:#A1A09F;stroke-width:8;stroke-miterlimit:10;enable-background:new    ;}
	.st1{fill:url(#SVGID_1_);}
	.st2{fill:url(#SVGID_00000144296826757501906270000011747205113089268159_);}
	.st3{fill:none;stroke:#020203;stroke-miterlimit:10;}
	.st4{fill:none;stroke:#828380;stroke-width:8;stroke-miterlimit:10;}
	.st5{fill:url(#SVGID_00000079461825090013454640000008091242744770721159_);stroke:#828380;stroke-width:8;stroke-miterlimit:10;}
	.st6{fill:url(#SVGID_00000126310415483526119380000012957892027082316715_);stroke:#448B50;stroke-width:4;stroke-miterlimit:10;}
	.st7{fill:url(#SVGID_00000121980281510844988890000005721430626254370695_);stroke:#828380;stroke-width:8;stroke-miterlimit:10;}
	.st8{fill:url(#SVGID_00000116924518212744558340000014414920489611860137_);stroke:#030405;stroke-width:8;stroke-miterlimit:10;}
	.st9{fill:url(#SVGID_00000172421013548525367680000013448302327874855312_);}
	.st10{fill:url(#SVGID_00000012450750783211704310000006088621792259670947_);}
	.st11{fill:url(#SVGID_00000091723927970516811690000003903560062250846102_);stroke:#828380;stroke-width:8;stroke-miterlimit:10;}
	.st12{fill:url(#SVGID_00000159431540122933731940000004670570952440219300_);stroke:#448B50;stroke-width:4;stroke-miterlimit:10;}
	.st13{fill:url(#SVGID_00000153705733036826280980000015165073815643966874_);stroke:#828380;stroke-width:8;stroke-miterlimit:10;}
	.st14{fill:url(#SVGID_00000042721379552310970540000010256005577850293904_);stroke:#030405;stroke-width:8;stroke-miterlimit:10;}
	.st15{fill:url(#SVGID_00000161618780458557648310000011562021240435387294_);}
	.st16{fill:url(#SVGID_00000035525014657227238040000011726397966908183743_);}
	.st17{fill:url(#SVGID_00000024690941362491997270000003611673560772348848_);stroke:#828380;stroke-width:8;stroke-miterlimit:10;}
	.st18{fill:url(#SVGID_00000096742689292276152250000011224394526447860890_);stroke:#448B50;stroke-width:4;stroke-miterlimit:10;}
	.st19{fill:url(#SVGID_00000179625521275272959960000011197687662007969718_);stroke:#828380;stroke-width:8;stroke-miterlimit:10;}
	.st20{fill:url(#SVGID_00000072238046943215497440000000936261686151618998_);stroke:#030405;stroke-width:8;stroke-miterlimit:10;}
	.st21{opacity:0.5;fill:none;stroke:#949494;stroke-width:8;stroke-miterlimit:10;enable-background:new    ;}
	.st22{fill:url(#SVGID_00000051344508591645509800000015131342723575552158_);}
	.st23{fill:url(#SVGID_00000127760724813958896300000017710009900112929702_);}
	.st24{fill:none;stroke:#000000;stroke-miterlimit:10;}
	.st25{fill:none;stroke:#646464;stroke-width:8;stroke-miterlimit:10;}
	.st26{fill:url(#SVGID_00000071528768405859806760000017047694903455558055_);stroke:#646464;stroke-width:8;stroke-miterlimit:10;}
	.st27{fill:url(#SVGID_00000101803951524632327390000004284955722164836489_);stroke:#787878;stroke-width:4;stroke-miterlimit:10;}
	.st28{fill:url(#SVGID_00000134967806474986017260000004453389649572333448_);stroke:#646464;stroke-width:8;stroke-miterlimit:10;}
	.st29{fill:url(#SVGID_00000017495181758824895490000001961524774938742414_);stroke:#000000;stroke-width:8;stroke-miterlimit:10;}
</style>
<polyline class="st0" points="26.6,361 262.6,473 490.4,372.5 "/>
<linearGradient id="SVGID_1_" gradientUnits="userSpaceOnUse" x1="257.65" y1="3131.7" x2="257.65" y2="2957.5" gradientTransform="matrix(1 0 0 -1 0 3330)">
	<stop  offset="0" style="stop-color:#8F8FBC"/>
	<stop  offset="1" style="stop-color:#EBEAE7"/>
</linearGradient>
<polygon class="st1" points="28,272.9 246.8,198.3 487.3,283.4 262.6,372.5 "/>
<linearGradient id="SVGID_00000163794591526121434710000013207710145140852100_" gradientUnits="userSpaceOnUse" x1="144.2" y1="3057.7" x2="144.2" y2="2864.2" gradientTransform="matrix(1 0 0 -1 0 3330)">
	<stop  offset="0" style="stop-color:#8F8FBC"/>
	<stop  offset="1" style="stop-color:#EBEAE7"/>
</linearGradient>
<polygon style="fill:url(#SVGID_00000163794591526121434710000013207710145140852100_);" points="26.6,272.3 261.8,372.1 
	261.8,465.8 26.6,355.5 "/>
<path class="st3" d="M366.7,457"/>
<polygon class="st4" points="26.6,355.5 26.6,272.3 245.9,201.6 487.3,283.4 484.4,363.4 261.8,465.8 "/>
<linearGradient id="SVGID_00000083059805484164973290000017881383365769270683_" gradientUnits="userSpaceOnUse" x1="262.6" y1="2955.3501" x2="487.3" y2="2955.3501" gradientTransform="matrix(1 0 0 -1 0 3330)">
	<stop  offset="0" style="stop-color:#A4A4A1"/>
	<stop  offset="1" style="stop-color:#7E7E8F"/>
</linearGradient>
<path style="fill:url(#SVGID_00000083059805484164973290000017881383365769270683_);stroke:#828380;stroke-width:8;stroke-miterlimit:10;" d="
	M262.6,462.5c0-2,0-90,0-90l224.7-85.7l-3,82.4L262.6,462.5z"/>
<polyline class="st4" points="219.2,447.7 219.2,354.5 448.4,271.5 "/>
<linearGradient id="SVGID_00000169554977225222491850000008218331739899785868_" gradientUnits="userSpaceOnUse" x1="281.9" y1="2957.45" x2="460.9" y2="2957.45" gradientTransform="matrix(1 0 0 -1 0 3330)">
	<stop  offset="0" style="stop-color:#50A657"/>
	<stop  offset="1" style="stop-color:#C4D9BE"/>
</linearGradient>
<polygon style="fill:url(#SVGID_00000169554977225222491850000008218331739899785868_);stroke:#448B50;stroke-width:4;stroke-miterlimit:10;" points="
	281.9,391.7 460.9,322.4 460.2,348.1 281.9,422.7 "/>
<linearGradient id="SVGID_00000047029259672959625490000001128068054652938883_" gradientUnits="userSpaceOnUse" x1="176.8" y1="3033" x2="409.1" y2="3033" gradientTransform="matrix(1 0 0 -1 0 3330)">
	<stop  offset="0" style="stop-color:#DFEFF4"/>
	<stop  offset="1" style="stop-color:#78BFD5"/>
</linearGradient>
<polygon style="fill:url(#SVGID_00000047029259672959625490000001128068054652938883_);stroke:#828380;stroke-width:8;stroke-miterlimit:10;" points="
	176.8,305.3 320.6,254.8 409.1,284.5 261.8,339.2 "/>
<linearGradient id="SVGID_00000149360744406218358710000015138372983533513600_" gradientUnits="userSpaceOnUse" x1="213.6" y1="-1134.7" x2="448.4" y2="-1134.7" gradientTransform="matrix(1 0 0 1 0 1280)">
	<stop  offset="0" style="stop-color:#BCDAAC"/>
	<stop  offset="1" style="stop-color:#47AD39"/>
</linearGradient>
<path style="fill:url(#SVGID_00000149360744406218358710000015138372983533513600_);stroke:#030405;stroke-width:8;stroke-miterlimit:10;" d="
	M437,111.6h-72.3V39.3c0-6.3-5.1-11.4-11.4-11.4h-44.6c-6.3,0-11.4,5.1-11.4,11.4v72.3H225c-6.3,0-11.4,5.1-11.4,11.4v44.6
	c0,6.3,5.1,11.4,11.4,11.4h72.3v72.3c0,6.3,5.1,11.4,11.4,11.4h44.6c6.3,0,11.4-5.1,11.4-11.4V179H437c6.3,0,11.4-5.1,11.4-11.4V123
	C448.4,116.7,443.3,111.6,437,111.6z"/>
<polyline class="st0" points="36.6,883 272.6,995 500.4,894.5 "/>
<linearGradient id="SVGID_00000053503061280288201920000015567740386974649728_" gradientUnits="userSpaceOnUse" x1="267.65" y1="2609.7" x2="267.65" y2="2435.5" gradientTransform="matrix(1 0 0 -1 0 3330)">
	<stop  offset="0" style="stop-color:#8F8FBC"/>
	<stop  offset="1" style="stop-color:#EBEAE7"/>
</linearGradient>
<polygon style="fill:url(#SVGID_00000053503061280288201920000015567740386974649728_);" points="38,794.9 256.8,720.3 497.3,805.4 
	272.6,894.5 "/>
<linearGradient id="SVGID_00000165931755815248517650000016493630004594055848_" gradientUnits="userSpaceOnUse" x1="154.2" y1="2535.7" x2="154.2" y2="2342.2" gradientTransform="matrix(1 0 0 -1 0 3330)">
	<stop  offset="0" style="stop-color:#8F8FBC"/>
	<stop  offset="1" style="stop-color:#EBEAE7"/>
</linearGradient>
<polygon style="fill:url(#SVGID_00000165931755815248517650000016493630004594055848_);" points="36.6,794.3 271.8,894.1 
	271.8,987.8 36.6,877.5 "/>
<path class="st3" d="M369.2,969"/>
<polygon class="st4" points="36.6,877.5 36.6,794.3 255.9,723.6 497.3,805.4 494.4,885.4 271.8,987.8 "/>
<linearGradient id="SVGID_00000134972564003677646890000017845572510220313481_" gradientUnits="userSpaceOnUse" x1="272.6" y1="2433.3501" x2="497.3" y2="2433.3501" gradientTransform="matrix(1 0 0 -1 0 3330)">
	<stop  offset="0" style="stop-color:#A4A4A1"/>
	<stop  offset="1" style="stop-color:#7E7E8F"/>
</linearGradient>
<path style="fill:url(#SVGID_00000134972564003677646890000017845572510220313481_);stroke:#828380;stroke-width:8;stroke-miterlimit:10;" d="
	M272.6,984.5c0-2,0-90,0-90l224.7-85.7l-3,82.4L272.6,984.5z"/>
<polyline class="st4" points="229.2,969.7 229.2,876.5 458.4,793.5 "/>
<linearGradient id="SVGID_00000146474006927248546740000002501771579358031513_" gradientUnits="userSpaceOnUse" x1="291.9" y1="2435.5" x2="470.9" y2="2435.5" gradientTransform="matrix(1 0 0 -1 0 3330)">
	<stop  offset="0" style="stop-color:#50A657"/>
	<stop  offset="1" style="stop-color:#C4D9BE"/>
</linearGradient>
<polygon style="fill:url(#SVGID_00000146474006927248546740000002501771579358031513_);stroke:#448B50;stroke-width:4;stroke-miterlimit:10;" points="
	291.9,913.7 470.9,844.3 470.2,870.1 291.9,944.7 "/>
<linearGradient id="SVGID_00000176031695903527377850000008145884468883809724_" gradientUnits="userSpaceOnUse" x1="186.8" y1="2511" x2="419.1" y2="2511" gradientTransform="matrix(1 0 0 -1 0 3330)">
	<stop  offset="0" style="stop-color:#DFEFF4"/>
	<stop  offset="1" style="stop-color:#78BFD5"/>
</linearGradient>
<polygon style="fill:url(#SVGID_00000176031695903527377850000008145884468883809724_);stroke:#828380;stroke-width:8;stroke-miterlimit:10;" points="
	186.8,827.3 330.6,776.8 419.1,806.5 271.8,861.2 "/>
<linearGradient id="SVGID_00000067943018365136527420000009585095546232648837_" gradientUnits="userSpaceOnUse" x1="223.6" y1="-612.7" x2="458.4" y2="-612.7" gradientTransform="matrix(1 0 0 1 0 1280)">
	<stop  offset="0" style="stop-color:#FFDD0D"/>
	<stop  offset="1" style="stop-color:#F8A921"/>
</linearGradient>
<path style="fill:url(#SVGID_00000067943018365136527420000009585095546232648837_);stroke:#030405;stroke-width:8;stroke-miterlimit:10;" d="
	M447,633.6h-72.3v-72.3c0-6.3-5.1-11.4-11.4-11.4h-44.6c-6.3,0-11.4,5.1-11.4,11.4v72.3H235c-6.3,0-11.4,5.1-11.4,11.4v44.6
	c0,6.3,5.1,11.4,11.4,11.4h72.3v72.3c0,6.3,5.1,11.4,11.4,11.4h44.6c6.3,0,11.4-5.1,11.4-11.4V701H447c6.3,0,11.4-5.1,11.4-11.4V645
	C458.4,638.7,453.3,633.6,447,633.6z"/>
<polyline class="st0" points="26.6,1385 262.6,1497 490.4,1396.6 "/>
<linearGradient id="SVGID_00000127018526688215919540000009225341825105827727_" gradientUnits="userSpaceOnUse" x1="257.65" y1="2107.7" x2="257.65" y2="1933.4" gradientTransform="matrix(1 0 0 -1 0 3330)">
	<stop  offset="0" style="stop-color:#8F8FBC"/>
	<stop  offset="1" style="stop-color:#EBEAE7"/>
</linearGradient>
<polygon style="fill:url(#SVGID_00000127018526688215919540000009225341825105827727_);" points="28,1296.9 246.8,1222.3 
	487.3,1307.4 262.6,1396.6 "/>
<linearGradient id="SVGID_00000171699635313834034870000002478723533910335623_" gradientUnits="userSpaceOnUse" x1="144.2" y1="2033.7" x2="144.2" y2="1840.2" gradientTransform="matrix(1 0 0 -1 0 3330)">
	<stop  offset="0" style="stop-color:#8F8FBC"/>
	<stop  offset="1" style="stop-color:#EBEAE7"/>
</linearGradient>
<polygon style="fill:url(#SVGID_00000171699635313834034870000002478723533910335623_);" points="26.6,1296.3 261.8,1396.1 
	261.8,1489.8 26.6,1379.5 "/>
<path class="st3" d="M366.7,1481"/>
<polygon class="st4" points="26.6,1379.5 26.6,1296.3 245.9,1225.6 487.3,1307.4 484.4,1387.4 261.8,1489.8 "/>
<linearGradient id="SVGID_00000166661412240374862400000001020561297040420762_" gradientUnits="userSpaceOnUse" x1="262.6" y1="1931.35" x2="487.3" y2="1931.35" gradientTransform="matrix(1 0 0 -1 0 3330)">
	<stop  offset="0" style="stop-color:#A4A4A1"/>
	<stop  offset="1" style="stop-color:#7E7E8F"/>
</linearGradient>
<path style="fill:url(#SVGID_00000166661412240374862400000001020561297040420762_);stroke:#828380;stroke-width:8;stroke-miterlimit:10;" d="
	M262.6,1486.5c0-2,0-90,0-90l224.7-85.7l-3,82.4L262.6,1486.5z"/>
<polyline class="st4" points="219.2,1471.7 219.2,1378.6 448.4,1295.5 "/>
<linearGradient id="SVGID_00000148635867247570078400000006974712322446854322_" gradientUnits="userSpaceOnUse" x1="281.9" y1="1933.5" x2="460.9" y2="1933.5" gradientTransform="matrix(1 0 0 -1 0 3330)">
	<stop  offset="0" style="stop-color:#50A657"/>
	<stop  offset="1" style="stop-color:#C4D9BE"/>
</linearGradient>
<polygon style="fill:url(#SVGID_00000148635867247570078400000006974712322446854322_);stroke:#448B50;stroke-width:4;stroke-miterlimit:10;" points="
	281.9,1415.7 460.9,1346.3 460.2,1372.1 281.9,1446.7 "/>
<linearGradient id="SVGID_00000057149662283540361830000006334685083928983452_" gradientUnits="userSpaceOnUse" x1="176.8" y1="2009" x2="409.1" y2="2009" gradientTransform="matrix(1 0 0 -1 0 3330)">
	<stop  offset="0" style="stop-color:#DFEFF4"/>
	<stop  offset="1" style="stop-color:#78BFD5"/>
</linearGradient>
<polygon style="fill:url(#SVGID_00000057149662283540361830000006334685083928983452_);stroke:#828380;stroke-width:8;stroke-miterlimit:10;" points="
	176.8,1329.3 320.6,1278.8 409.1,1308.5 261.8,1363.2 "/>
<linearGradient id="SVGID_00000060021632932768649600000016804843373716254360_" gradientUnits="userSpaceOnUse" x1="213.6" y1="-110.7" x2="448.4" y2="-110.7" gradientTransform="matrix(1 0 0 1 0 1280)">
	<stop  offset="0" style="stop-color:#AED2EE"/>
	<stop  offset="1" style="stop-color:#3EB2E6"/>
</linearGradient>
<path style="fill:url(#SVGID_00000060021632932768649600000016804843373716254360_);stroke:#030405;stroke-width:8;stroke-miterlimit:10;" d="
	M437,1135.6h-72.3v-72.3c0-6.3-5.1-11.4-11.4-11.4h-44.6c-6.3,0-11.4,5.1-11.4,11.4v72.3H225c-6.3,0-11.4,5.1-11.4,11.4v44.6
	c0,6.3,5.1,11.4,11.4,11.4h72.3v72.3c0,6.3,5.1,11.4,11.4,11.4h44.6c6.3,0,11.4-5.1,11.4-11.4V1203H437c6.3,0,11.4-5.1,11.4-11.4
	V1147C448.4,1140.7,443.3,1135.6,437,1135.6z"/>
<polyline class="st21" points="26.6,1897 262.6,2009 490.4,1908.6 "/>
<linearGradient id="SVGID_00000075126339822058638930000000359315293972029080_" gradientUnits="userSpaceOnUse" x1="257.65" y1="1595.7" x2="257.65" y2="1421.4" gradientTransform="matrix(1 0 0 -1 0 3330)">
	<stop  offset="0" style="stop-color:#959595"/>
	<stop  offset="1" style="stop-color:#EBEBEB"/>
</linearGradient>
<polygon style="fill:url(#SVGID_00000075126339822058638930000000359315293972029080_);" points="28,1808.9 246.8,1734.3 
	487.3,1819.4 262.6,1908.6 "/>
<linearGradient id="SVGID_00000073723790465203468320000015912240976065895087_" gradientUnits="userSpaceOnUse" x1="144.2" y1="1521.7" x2="144.2" y2="1328.2" gradientTransform="matrix(1 0 0 -1 0 3330)">
	<stop  offset="0" style="stop-color:#959595"/>
	<stop  offset="1" style="stop-color:#EBEBEB"/>
</linearGradient>
<polygon style="fill:url(#SVGID_00000073723790465203468320000015912240976065895087_);" points="26.6,1808.3 261.8,1908.1 
	261.8,2001.8 26.6,1891.5 "/>
<path class="st24" d="M366.7,1993"/>
<polygon class="st25" points="26.6,1891.5 26.6,1808.3 245.9,1737.6 487.3,1819.4 484.4,1899.4 261.8,2001.8 "/>
<linearGradient id="SVGID_00000098198664533896523510000017456608549534293121_" gradientUnits="userSpaceOnUse" x1="262.6" y1="1419.35" x2="487.3" y2="1419.35" gradientTransform="matrix(1 0 0 -1 0 3330)">
	<stop  offset="0" style="stop-color:#9A9A9A"/>
	<stop  offset="1" style="stop-color:#6A6A6A"/>
</linearGradient>
<path style="fill:url(#SVGID_00000098198664533896523510000017456608549534293121_);stroke:#646464;stroke-width:8;stroke-miterlimit:10;" d="
	M262.6,1998.5c0-2,0-90,0-90l224.7-85.7l-3,82.4L262.6,1998.5z"/>
<polyline class="st25" points="219.2,1983.7 219.2,1890.6 448.4,1807.5 "/>
<linearGradient id="SVGID_00000089572451217429856610000007087320541489463456_" gradientUnits="userSpaceOnUse" x1="281.9" y1="1421.5" x2="460.9" y2="1421.5" gradientTransform="matrix(1 0 0 -1 0 3330)">
	<stop  offset="0" style="stop-color:#A6A6A6"/>
	<stop  offset="1" style="stop-color:#D9D9D9"/>
</linearGradient>
<polygon style="fill:url(#SVGID_00000089572451217429856610000007087320541489463456_);stroke:#787878;stroke-width:4;stroke-miterlimit:10;" points="
	281.9,1927.7 460.9,1858.3 460.2,1884.1 281.9,1958.7 "/>
<linearGradient id="SVGID_00000027595611211495363650000001928558991390297510_" gradientUnits="userSpaceOnUse" x1="176.8" y1="1497" x2="409.1" y2="1497" gradientTransform="matrix(1 0 0 -1 0 3330)">
	<stop  offset="0" style="stop-color:#F0F0F0"/>
	<stop  offset="1" style="stop-color:#C6C6C6"/>
</linearGradient>
<polygon style="fill:url(#SVGID_00000027595611211495363650000001928558991390297510_);stroke:#646464;stroke-width:8;stroke-miterlimit:10;" points="
	176.8,1841.3 320.6,1790.8 409.1,1820.5 261.8,1875.2 "/>
<linearGradient id="SVGID_00000166660878496396301090000014927852857276310681_" gradientUnits="userSpaceOnUse" x1="213.6" y1="401.3" x2="448.4" y2="401.3" gradientTransform="matrix(1 0 0 1 0 1280)">
	<stop  offset="0" style="stop-color:#DADADA"/>
	<stop  offset="1" style="stop-color:#ACACAC"/>
</linearGradient>
<path style="fill:url(#SVGID_00000166660878496396301090000014927852857276310681_);stroke:#000000;stroke-width:8;stroke-miterlimit:10;" d="
	M437,1647.6h-72.3v-72.3c0-6.3-5.1-11.4-11.4-11.4h-44.6c-6.3,0-11.4,5.1-11.4,11.4v72.3H225c-6.3,0-11.4,5.1-11.4,11.4v44.6
	c0,6.3,5.1,11.4,11.4,11.4h72.3v72.3c0,6.3,5.1,11.4,11.4,11.4h44.6c6.3,0,11.4-5.1,11.4-11.4V1715H437c6.3,0,11.4-5.1,11.4-11.4
	V1659C448.4,1652.7,443.3,1647.6,437,1647.6z"/>
</svg>
