<?xml version="1.0" encoding="utf-8"?>
<!-- Generator: Adobe Illustrator 27.0.1, SVG Export Plug-In . SVG Version: 6.00 Build 0)  -->
<svg version="1.1" id="Calque_1" xmlns="http://www.w3.org/2000/svg" xmlns:xlink="http://www.w3.org/1999/xlink" x="0px" y="0px"
	 viewBox="0 0 512 2048" style="enable-background:new 0 0 512 2048;" xml:space="preserve">
<style type="text/css">
	.st0{opacity:0.5;fill:none;stroke:#A1A09F;stroke-width:8;stroke-miterlimit:10;enable-background:new    ;}
	.st1{fill:url(#SVGID_1_);}
	.st2{fill:url(#SVGID_00000108267485518771559540000003031212434402893746_);}
	.st3{fill:none;stroke:#020203;stroke-miterlimit:10;}
	.st4{fill:none;stroke:#828380;stroke-width:8;stroke-miterlimit:10;}
	.st5{fill:url(#SVGID_00000060745372147114438130000015367099990961704324_);stroke:#828380;stroke-width:8;stroke-miterlimit:10;}
	.st6{fill:url(#SVGID_00000003098197473532403530000009113755389512268423_);stroke:#448B50;stroke-width:4;stroke-miterlimit:10;}
	.st7{fill:url(#SVGID_00000155107738098388680850000016035540670258911630_);stroke:#828380;stroke-width:8;stroke-miterlimit:10;}
	.st8{fill:url(#SVGID_00000018200731590543117170000003442506027895648403_);stroke:#030405;stroke-width:8;stroke-miterlimit:10;}
	.st9{fill:url(#SVGID_00000008864285424047098100000003970261880898400954_);}
	.st10{fill:url(#SVGID_00000111187689561290718120000003630568052896540091_);}
	.st11{fill:url(#SVGID_00000024682941403029855590000001864244732315568558_);stroke:#828380;stroke-width:8;stroke-miterlimit:10;}
	.st12{fill:url(#SVGID_00000155142064504023974260000010132721799094124180_);stroke:#448B50;stroke-width:4;stroke-miterlimit:10;}
	.st13{fill:url(#SVGID_00000121253610760799788070000001588514499238736025_);stroke:#828380;stroke-width:8;stroke-miterlimit:10;}
	.st14{fill:url(#SVGID_00000051381072035512353800000007185587427115010467_);stroke:#030405;stroke-width:8;stroke-miterlimit:10;}
	.st15{fill:url(#SVGID_00000101819844236798228140000005678591087471901372_);}
	.st16{fill:url(#SVGID_00000054973237850029147150000008596293637712984473_);}
	.st17{fill:url(#SVGID_00000038384761375199983210000006896022764496696247_);stroke:#828380;stroke-width:8;stroke-miterlimit:10;}
	.st18{fill:url(#SVGID_00000149352468233794441670000004690901896999369387_);stroke:#448B50;stroke-width:4;stroke-miterlimit:10;}
	.st19{fill:url(#SVGID_00000120553219767647907210000008296864475590912146_);stroke:#828380;stroke-width:8;stroke-miterlimit:10;}
	.st20{fill:url(#SVGID_00000091009173090159286790000014420371522174438832_);stroke:#030405;stroke-width:8;stroke-miterlimit:10;}
	.st21{opacity:0.5;fill:none;stroke:#949494;stroke-width:8;stroke-miterlimit:10;enable-background:new    ;}
	.st22{fill:url(#SVGID_00000115510190637813153310000001597394400646264724_);}
	.st23{fill:url(#SVGID_00000138534516805684260760000007160904365042931348_);}
	.st24{fill:none;stroke:#000000;stroke-miterlimit:10;}
	.st25{fill:none;stroke:#646464;stroke-width:8;stroke-miterlimit:10;}
	.st26{fill:url(#SVGID_00000121988142499402085090000018208470492695201173_);stroke:#646464;stroke-width:8;stroke-miterlimit:10;}
	.st27{fill:url(#SVGID_00000173136653070012963330000016561344380989146284_);stroke:#787878;stroke-width:4;stroke-miterlimit:10;}
	.st28{fill:url(#SVGID_00000059299735898436289150000001906086424209597607_);stroke:#646464;stroke-width:8;stroke-miterlimit:10;}
	.st29{fill:url(#SVGID_00000015355310271814189420000015695114938192386211_);stroke:#000000;stroke-width:8;stroke-miterlimit:10;}
</style>
<polyline class="st0" points="26.6,361 262.6,473 490.4,372.5 "/>
<linearGradient id="SVGID_1_" gradientUnits="userSpaceOnUse" x1="257.69" y1="-1083.71" x2="257.69" y2="-909.45" gradientTransform="matrix(1 0 0 1 0 1282)">
	<stop  offset="0" style="stop-color:#8F8FBC"/>
	<stop  offset="1" style="stop-color:#EBEAE7"/>
</linearGradient>
<polygon class="st1" points="28,272.9 246.8,198.3 487.3,283.4 262.6,372.5 "/>
<linearGradient id="SVGID_00000070097334407252324940000014408775963448334008_" gradientUnits="userSpaceOnUse" x1="144.21" y1="-1009.73" x2="144.21" y2="-816.19" gradientTransform="matrix(1 0 0 1 0 1282)">
	<stop  offset="0" style="stop-color:#8F8FBC"/>
	<stop  offset="1" style="stop-color:#EBEAE7"/>
</linearGradient>
<polygon style="fill:url(#SVGID_00000070097334407252324940000014408775963448334008_);" points="26.6,272.3 261.8,372.1 
	261.8,465.8 26.6,355.5 "/>
<path class="st3" d="M366.7,457"/>
<polygon class="st4" points="26.6,355.5 26.6,272.3 245.9,201.6 487.3,283.4 484.4,363.4 261.8,465.8 "/>
<linearGradient id="SVGID_00000137816505340508751330000000814410159305157538_" gradientUnits="userSpaceOnUse" x1="262.64" y1="-907.325" x2="487.35" y2="-907.325" gradientTransform="matrix(1 0 0 1 0 1282)">
	<stop  offset="0" style="stop-color:#A4A4A1"/>
	<stop  offset="1" style="stop-color:#7E7E8F"/>
</linearGradient>
<path style="fill:url(#SVGID_00000137816505340508751330000000814410159305157538_);stroke:#828380;stroke-width:8;stroke-miterlimit:10;" d="
	M262.6,462.5c0-2,0-90,0-90l224.7-85.7l-3,82.4L262.6,462.5z"/>
<polyline class="st4" points="219.2,447.7 219.2,354.5 448.4,271.5 "/>
<linearGradient id="SVGID_00000179622422663621279880000009290104173356155269_" gradientUnits="userSpaceOnUse" x1="281.94" y1="-909.455" x2="460.94" y2="-909.455" gradientTransform="matrix(1 0 0 1 0 1282)">
	<stop  offset="0" style="stop-color:#50A657"/>
	<stop  offset="1" style="stop-color:#C4D9BE"/>
</linearGradient>
<polygon style="fill:url(#SVGID_00000179622422663621279880000009290104173356155269_);stroke:#448B50;stroke-width:4;stroke-miterlimit:10;" points="
	281.9,391.7 460.9,322.4 460.2,348.1 281.9,422.7 "/>
<linearGradient id="SVGID_00000144330390859056326370000015262246121722300564_" gradientUnits="userSpaceOnUse" x1="176.76" y1="-985.02" x2="409.1" y2="-985.02" gradientTransform="matrix(1 0 0 1 0 1282)">
	<stop  offset="0" style="stop-color:#DFEFF4"/>
	<stop  offset="1" style="stop-color:#78BFD5"/>
</linearGradient>
<polygon style="fill:url(#SVGID_00000144330390859056326370000015262246121722300564_);stroke:#828380;stroke-width:8;stroke-miterlimit:10;" points="
	176.8,305.3 320.6,254.8 409.1,284.5 261.8,339.2 "/>
<linearGradient id="SVGID_00000119078930823042402170000014746723658080019375_" gradientUnits="userSpaceOnUse" x1="213.56" y1="1902.705" x2="448.3701" y2="1902.705" gradientTransform="matrix(1 0 0 -1 0 2048)">
	<stop  offset="0" style="stop-color:#BCDAAC"/>
	<stop  offset="1" style="stop-color:#47AD39"/>
</linearGradient>
<path style="fill:url(#SVGID_00000119078930823042402170000014746723658080019375_);stroke:#030405;stroke-width:8;stroke-miterlimit:10;" d="
	M437,111.6h-72.3V39.3c0-6.3-5.1-11.4-11.4-11.4h-44.6c-6.3,0-11.4,5.1-11.4,11.4v72.3h-72.3c-6.3,0-11.4,5.1-11.4,11.4v44.6
	c0,6.3,5.1,11.4,11.4,11.4h72.3v72.3c0,6.3,5.1,11.4,11.4,11.4h44.6c6.3,0,11.4-5.1,11.4-11.4V179H437c6.3,0,11.4-5.1,11.4-11.4V123
	C448.4,116.7,443.3,111.6,437,111.6z"/>
<polyline class="st0" points="26.6,873 262.6,985 490.4,884.5 "/>
<linearGradient id="SVGID_00000164474444227792188390000014387026781633351296_" gradientUnits="userSpaceOnUse" x1="257.69" y1="-571.71" x2="257.69" y2="-397.45" gradientTransform="matrix(1 0 0 1 0 1282)">
	<stop  offset="0" style="stop-color:#8F8FBC"/>
	<stop  offset="1" style="stop-color:#EBEAE7"/>
</linearGradient>
<polygon style="fill:url(#SVGID_00000164474444227792188390000014387026781633351296_);" points="28,784.9 246.8,710.3 487.3,795.4 
	262.6,884.5 "/>
<linearGradient id="SVGID_00000130648718864560938050000017009460807243650467_" gradientUnits="userSpaceOnUse" x1="144.21" y1="-497.72" x2="144.21" y2="-304.18" gradientTransform="matrix(1 0 0 1 0 1282)">
	<stop  offset="0" style="stop-color:#8F8FBC"/>
	<stop  offset="1" style="stop-color:#EBEAE7"/>
</linearGradient>
<polygon style="fill:url(#SVGID_00000130648718864560938050000017009460807243650467_);" points="26.6,784.3 261.8,884.1 
	261.8,977.8 26.6,867.5 "/>
<path class="st3" d="M369.2,969"/>
<polygon class="st4" points="26.6,867.5 26.6,784.3 245.9,713.6 487.3,795.4 484.4,875.4 261.8,977.8 "/>
<linearGradient id="SVGID_00000013914982383178971510000017654777146256389294_" gradientUnits="userSpaceOnUse" x1="262.64" y1="-395.315" x2="487.35" y2="-395.315" gradientTransform="matrix(1 0 0 1 0 1282)">
	<stop  offset="0" style="stop-color:#A4A4A1"/>
	<stop  offset="1" style="stop-color:#7E7E8F"/>
</linearGradient>
<path style="fill:url(#SVGID_00000013914982383178971510000017654777146256389294_);stroke:#828380;stroke-width:8;stroke-miterlimit:10;" d="
	M262.6,974.5c0-2,0-90,0-90l224.7-85.7l-3,82.4L262.6,974.5z"/>
<polyline class="st4" points="219.2,959.7 219.2,866.5 448.4,783.5 "/>
<linearGradient id="SVGID_00000047049529773659904570000005320893528541893765_" gradientUnits="userSpaceOnUse" x1="281.94" y1="-397.455" x2="460.94" y2="-397.455" gradientTransform="matrix(1 0 0 1 0 1282)">
	<stop  offset="0" style="stop-color:#50A657"/>
	<stop  offset="1" style="stop-color:#C4D9BE"/>
</linearGradient>
<polygon style="fill:url(#SVGID_00000047049529773659904570000005320893528541893765_);stroke:#448B50;stroke-width:4;stroke-miterlimit:10;" points="
	281.9,903.7 460.9,834.3 460.2,860.1 281.9,934.7 "/>
<linearGradient id="SVGID_00000017479395531159758860000004624093707517355395_" gradientUnits="userSpaceOnUse" x1="176.76" y1="-473.01" x2="409.1" y2="-473.01" gradientTransform="matrix(1 0 0 1 0 1282)">
	<stop  offset="0" style="stop-color:#DFEFF4"/>
	<stop  offset="1" style="stop-color:#78BFD5"/>
</linearGradient>
<polygon style="fill:url(#SVGID_00000017479395531159758860000004624093707517355395_);stroke:#828380;stroke-width:8;stroke-miterlimit:10;" points="
	176.8,817.3 320.6,766.8 409.1,796.5 261.8,851.2 "/>
<linearGradient id="SVGID_00000165212839876242120710000001399151278007168167_" gradientUnits="userSpaceOnUse" x1="213.56" y1="1390.705" x2="448.37" y2="1390.705" gradientTransform="matrix(1 0 0 -1 0 2048)">
	<stop  offset="0" style="stop-color:#FFDD0D"/>
	<stop  offset="1" style="stop-color:#F8A921"/>
</linearGradient>
<path style="fill:url(#SVGID_00000165212839876242120710000001399151278007168167_);stroke:#030405;stroke-width:8;stroke-miterlimit:10;" d="
	M437,623.6h-72.3v-72.3c0-6.3-5.1-11.4-11.4-11.4h-44.6c-6.3,0-11.4,5.1-11.4,11.4v72.3h-72.3c-6.3,0-11.4,5.1-11.4,11.4v44.6
	c0,6.3,5.1,11.4,11.4,11.4h72.3v72.3c0,6.3,5.1,11.4,11.4,11.4h44.6c6.3,0,11.4-5.1,11.4-11.4V691H437c6.3,0,11.4-5.1,11.4-11.4V635
	C448.4,628.7,443.3,623.6,437,623.6z"/>
<polyline class="st0" points="26.6,1385 262.6,1497 490.4,1396.6 "/>
<linearGradient id="SVGID_00000097486636413243018760000009157291065659810198_" gradientUnits="userSpaceOnUse" x1="257.69" y1="-59.71" x2="257.69" y2="114.55" gradientTransform="matrix(1 0 0 1 0 1282)">
	<stop  offset="0" style="stop-color:#8F8FBC"/>
	<stop  offset="1" style="stop-color:#EBEAE7"/>
</linearGradient>
<polygon style="fill:url(#SVGID_00000097486636413243018760000009157291065659810198_);" points="28,1296.9 246.8,1222.3 
	487.3,1307.4 262.6,1396.6 "/>
<linearGradient id="SVGID_00000078035909077605111710000009026485899403499176_" gradientUnits="userSpaceOnUse" x1="144.21" y1="14.28" x2="144.21" y2="207.8101" gradientTransform="matrix(1 0 0 1 0 1282)">
	<stop  offset="0" style="stop-color:#8F8FBC"/>
	<stop  offset="1" style="stop-color:#EBEAE7"/>
</linearGradient>
<polygon style="fill:url(#SVGID_00000078035909077605111710000009026485899403499176_);" points="26.6,1296.3 261.8,1396.1 
	261.8,1489.8 26.6,1379.5 "/>
<path class="st3" d="M366.7,1481"/>
<polygon class="st4" points="26.6,1379.5 26.6,1296.3 245.9,1225.6 487.3,1307.4 484.4,1387.4 261.8,1489.8 "/>
<linearGradient id="SVGID_00000102532479270330389700000011379336137705648002_" gradientUnits="userSpaceOnUse" x1="262.64" y1="116.685" x2="487.35" y2="116.685" gradientTransform="matrix(1 0 0 1 0 1282)">
	<stop  offset="0" style="stop-color:#A4A4A1"/>
	<stop  offset="1" style="stop-color:#7E7E8F"/>
</linearGradient>
<path style="fill:url(#SVGID_00000102532479270330389700000011379336137705648002_);stroke:#828380;stroke-width:8;stroke-miterlimit:10;" d="
	M262.6,1486.5c0-2,0-90,0-90l224.7-85.7l-3,82.4L262.6,1486.5z"/>
<polyline class="st4" points="219.2,1471.7 219.2,1378.6 448.4,1295.5 "/>
<linearGradient id="SVGID_00000010282150293197043390000014353000886570789051_" gradientUnits="userSpaceOnUse" x1="281.94" y1="114.54" x2="460.94" y2="114.54" gradientTransform="matrix(1 0 0 1 0 1282)">
	<stop  offset="0" style="stop-color:#50A657"/>
	<stop  offset="1" style="stop-color:#C4D9BE"/>
</linearGradient>
<polygon style="fill:url(#SVGID_00000010282150293197043390000014353000886570789051_);stroke:#448B50;stroke-width:4;stroke-miterlimit:10;" points="
	281.9,1415.7 460.9,1346.3 460.2,1372.1 281.9,1446.7 "/>
<linearGradient id="SVGID_00000154407977291902511100000016233413202004297612_" gradientUnits="userSpaceOnUse" x1="176.76" y1="38.985" x2="409.1" y2="38.985" gradientTransform="matrix(1 0 0 1 0 1282)">
	<stop  offset="0" style="stop-color:#DFEFF4"/>
	<stop  offset="1" style="stop-color:#78BFD5"/>
</linearGradient>
<polygon style="fill:url(#SVGID_00000154407977291902511100000016233413202004297612_);stroke:#828380;stroke-width:8;stroke-miterlimit:10;" points="
	176.8,1329.3 320.6,1278.8 409.1,1308.5 261.8,1363.2 "/>
<linearGradient id="SVGID_00000057859358457515215850000012738162795685314219_" gradientUnits="userSpaceOnUse" x1="213.56" y1="878.705" x2="448.3701" y2="878.705" gradientTransform="matrix(1 0 0 -1 0 2048)">
	<stop  offset="0" style="stop-color:#AED2EE"/>
	<stop  offset="1" style="stop-color:#3EB2E6"/>
</linearGradient>
<path style="fill:url(#SVGID_00000057859358457515215850000012738162795685314219_);stroke:#030405;stroke-width:8;stroke-miterlimit:10;" d="
	M437,1135.6h-72.3v-72.3c0-6.3-5.1-11.4-11.4-11.4h-44.6c-6.3,0-11.4,5.1-11.4,11.4v72.3h-72.3c-6.3,0-11.4,5.1-11.4,11.4v44.6
	c0,6.3,5.1,11.4,11.4,11.4h72.3v72.3c0,6.3,5.1,11.4,11.4,11.4h44.6c6.3,0,11.4-5.1,11.4-11.4V1203H437c6.3,0,11.4-5.1,11.4-11.4
	V1147C448.4,1140.7,443.3,1135.6,437,1135.6z"/>
<polyline class="st21" points="26.6,1897 262.6,2009 490.4,1908.6 "/>
<linearGradient id="SVGID_00000013176033590199702050000010714506876588876448_" gradientUnits="userSpaceOnUse" x1="257.69" y1="452.29" x2="257.69" y2="626.55" gradientTransform="matrix(1 0 0 1 0 1282)">
	<stop  offset="0" style="stop-color:#959595"/>
	<stop  offset="1" style="stop-color:#EBEBEB"/>
</linearGradient>
<polygon style="fill:url(#SVGID_00000013176033590199702050000010714506876588876448_);" points="28,1808.9 246.8,1734.3 
	487.3,1819.4 262.6,1908.6 "/>
<linearGradient id="SVGID_00000106132721464545738240000008191899323987555735_" gradientUnits="userSpaceOnUse" x1="144.21" y1="526.28" x2="144.21" y2="719.8101" gradientTransform="matrix(1 0 0 1 0 1282)">
	<stop  offset="0" style="stop-color:#959595"/>
	<stop  offset="1" style="stop-color:#EBEBEB"/>
</linearGradient>
<polygon style="fill:url(#SVGID_00000106132721464545738240000008191899323987555735_);" points="26.6,1808.3 261.8,1908.1 
	261.8,2001.8 26.6,1891.5 "/>
<path class="st24" d="M366.7,1993"/>
<polygon class="st25" points="26.6,1891.5 26.6,1808.3 245.9,1737.6 487.3,1819.4 484.4,1899.4 261.8,2001.8 "/>
<linearGradient id="SVGID_00000145739437260780365630000016638344333378848924_" gradientUnits="userSpaceOnUse" x1="262.64" y1="628.685" x2="487.35" y2="628.685" gradientTransform="matrix(1 0 0 1 0 1282)">
	<stop  offset="0" style="stop-color:#9A9A9A"/>
	<stop  offset="1" style="stop-color:#6A6A6A"/>
</linearGradient>
<path style="fill:url(#SVGID_00000145739437260780365630000016638344333378848924_);stroke:#646464;stroke-width:8;stroke-miterlimit:10;" d="
	M262.6,1998.5c0-2,0-90,0-90l224.7-85.7l-3,82.4L262.6,1998.5z"/>
<polyline class="st25" points="219.2,1983.7 219.2,1890.6 448.4,1807.5 "/>
<linearGradient id="SVGID_00000158739361846984058490000008879239855065378996_" gradientUnits="userSpaceOnUse" x1="281.94" y1="626.54" x2="460.94" y2="626.54" gradientTransform="matrix(1 0 0 1 0 1282)">
	<stop  offset="0" style="stop-color:#A6A6A6"/>
	<stop  offset="1" style="stop-color:#D9D9D9"/>
</linearGradient>
<polygon style="fill:url(#SVGID_00000158739361846984058490000008879239855065378996_);stroke:#787878;stroke-width:4;stroke-miterlimit:10;" points="
	281.9,1927.7 460.9,1858.3 460.2,1884.1 281.9,1958.7 "/>
<linearGradient id="SVGID_00000019673980997005151500000004706661140344827009_" gradientUnits="userSpaceOnUse" x1="176.76" y1="550.985" x2="409.1" y2="550.985" gradientTransform="matrix(1 0 0 1 0 1282)">
	<stop  offset="0" style="stop-color:#F0F0F0"/>
	<stop  offset="1" style="stop-color:#C6C6C6"/>
</linearGradient>
<polygon style="fill:url(#SVGID_00000019673980997005151500000004706661140344827009_);stroke:#646464;stroke-width:8;stroke-miterlimit:10;" points="
	176.8,1841.3 320.6,1790.8 409.1,1820.5 261.8,1875.2 "/>
<linearGradient id="SVGID_00000024689078155885658420000006230441908904500409_" gradientUnits="userSpaceOnUse" x1="213.56" y1="366.705" x2="448.3701" y2="366.705" gradientTransform="matrix(1 0 0 -1 0 2048)">
	<stop  offset="0" style="stop-color:#DADADA"/>
	<stop  offset="1" style="stop-color:#ACACAC"/>
</linearGradient>
<path style="fill:url(#SVGID_00000024689078155885658420000006230441908904500409_);stroke:#000000;stroke-width:8;stroke-miterlimit:10;" d="
	M437,1647.6h-72.3v-72.3c0-6.3-5.1-11.4-11.4-11.4h-44.6c-6.3,0-11.4,5.1-11.4,11.4v72.3h-72.3c-6.3,0-11.4,5.1-11.4,11.4v44.6
	c0,6.3,5.1,11.4,11.4,11.4h72.3v72.3c0,6.3,5.1,11.4,11.4,11.4h44.6c6.3,0,11.4-5.1,11.4-11.4V1715H437c6.3,0,11.4-5.1,11.4-11.4
	V1659C448.4,1652.7,443.3,1647.6,437,1647.6z"/>
</svg>
