<?xml version="1.0" encoding="utf-8"?>
<!-- Generator: Adobe Illustrator 27.0.1, SVG Export Plug-In . SVG Version: 6.00 Build 0)  -->
<svg version="1.1" id="Calque_1" xmlns="http://www.w3.org/2000/svg" xmlns:xlink="http://www.w3.org/1999/xlink" x="0px" y="0px"
	 viewBox="0 0 512 2048" style="enable-background:new 0 0 512 2048;" xml:space="preserve">
<style type="text/css">
	.st0{fill:#B47634;stroke:#000000;stroke-miterlimit:10;}
	.st1{opacity:0.5;fill:#A0A09F;}
	.st2{fill:#FFFFFF;}
	.st3{fill:url(#SVGID_1_);}
	.st4{fill:url(#SVGID_00000000211969058399838170000015695897806004960387_);}
	.st5{fill:url(#SVGID_00000019674402697624222100000002034234455352284595_);stroke:#020203;stroke-width:8;stroke-miterlimit:10;}
	.st6{fill:url(#SVGID_00000008831454905349556770000009649469430048961930_);}
	.st7{fill:url(#SVGID_00000057834486433825597540000007146015626951147199_);}
	.st8{fill:url(#SVGID_00000011014008434199645800000006170300761107451562_);stroke:#020203;stroke-width:8;stroke-miterlimit:10;}
	.st9{fill:url(#SVGID_00000078756511703578104460000016584144550063612565_);}
	.st10{fill:url(#SVGID_00000083804443562646084130000010594020442587379112_);}
	.st11{fill:url(#SVGID_00000047756891846042424660000015329437979681813903_);stroke:#020203;stroke-width:8;stroke-miterlimit:10;}
	.st12{fill:#4D4D4D;stroke:#000000;stroke-miterlimit:10;}
	.st13{opacity:0.5;fill:#949494;}
	.st14{fill:url(#SVGID_00000081633730878459813750000007034649915301411476_);}
	.st15{fill:url(#SVGID_00000016040594700257316270000013685812555111062156_);}
	.st16{fill:url(#SVGID_00000094619178520847807810000018419582300435235512_);stroke:#000000;stroke-width:8;stroke-miterlimit:10;}
</style>
<path class="st0" d="M34.81,136.13l183.69,54.74L351.82,71.74c3.26-2.91,8.38-2.02,10.46,1.83l127.97,237.12
	c1.57,2.91,0.81,6.52-1.79,8.55l-157,122.31c0,0-15.74,12.88-32.7,12.88s-34.68-9.91-34.68-9.91l-146.03-36.75
	c-2.23-0.56-4.03-2.22-4.76-4.41l-86.82-258.6C24.73,139.57,29.56,134.57,34.81,136.13z"/>
<path class="st1" d="M500.33,321.78L372.36,84.66c-1.25-2.32-3.62-3.56-6.02-3.54l123.91,229.6c1.57,2.91,0.81,6.52-1.79,8.55
	L331.47,441.59c0,0-15.74,12.88-32.7,12.88c-16.95,0-34.68-9.91-34.68-9.91l-142.67-35.9l1.95,5.8c0.73,2.18,2.53,3.84,4.76,4.41
	l146.03,36.75c0,0,17.72,9.91,34.68,9.91c16.95,0,32.7-12.88,32.7-12.88l156.99-122.32C501.14,328.29,501.9,324.68,500.33,321.78z"
	/>
<path class="st2" d="M51,165.64L130.32,393c49.59,4.17,99.49,19.42,149.61,42.61c13.77-10.41,28.33-12.41,43.6-6.94
	c40.66-44.19,89.92-83.46,145.77-118.98L358.21,100.71l-17.83-6.94c-44.7,37.3-83.51,76.36-113.94,117.91
	c-46.78-24.33-95.69-43.28-147.63-54.5L51,165.64z"/>
<linearGradient id="SVGID_1_" gradientUnits="userSpaceOnUse" x1="78.8" y1="1757.385" x2="299.43" y2="1757.385" gradientTransform="matrix(1 0 0 -1 0 2048)">
	<stop  offset="0" style="stop-color:#FFFFFF"/>
	<stop  offset="1" style="stop-color:#C9E5F1"/>
</linearGradient>
<path class="st3" d="M78.8,157.18l78.22,212.88c50.31,6.56,94.27,24.28,142.41,53.99l-72.99-212.37
	C181.61,187.72,132.51,169.4,78.8,157.18z"/>
<linearGradient id="SVGID_00000125583108878544743840000015637955088120744846_" gradientUnits="userSpaceOnUse" x1="226.43" y1="1789.095" x2="448.48" y2="1789.095" gradientTransform="matrix(1 0 0 -1 0 2048)">
	<stop  offset="0" style="stop-color:#FFFFFF"/>
	<stop  offset="1" style="stop-color:#C9E5F1"/>
</linearGradient>
<path style="fill:url(#SVGID_00000125583108878544743840000015637955088120744846_);" d="M226.43,211.68
	c31.52-42.26,69.69-81.48,113.94-117.91l108.11,209.71c-44.82,24.16-93.76,67.12-149.07,120.56l-72.22-210.5"/>
<linearGradient id="SVGID_00000085969120238705776040000007700511822983859096_" gradientUnits="userSpaceOnUse" x1="386.6682" y1="1773.9093" x2="386.6682" y2="1569.8801" gradientTransform="matrix(1 0 0 -1 0 2048)">
	<stop  offset="0" style="stop-color:#BCDAAB"/>
	<stop  offset="1" style="stop-color:#3FAB35"/>
</linearGradient>
<path style="fill:url(#SVGID_00000085969120238705776040000007700511822983859096_);stroke:#020203;stroke-width:8;stroke-miterlimit:10;" d="
	M346.22,278.74l120.21,80.24c4.4,2.94,4.85,9.24,0.91,12.77l-110.92,99.33c-11.23,10.06-28.46,9.24-38.69-1.83l-4.37-4.74
	c-10.82-11.71-9.5-30.12,2.88-40.16l61.9-50.24c4.39-3.56,3.87-10.41-1-13.27l-60.2-35.33c-13.51-7.93-17.72-25.5-9.28-38.69l0,0
	C315.97,273.8,333.36,270.16,346.22,278.74z"/>
<path class="st0" d="M34.81,648.13l183.69,54.74l133.32-119.14c3.26-2.91,8.38-2.02,10.46,1.83l127.97,237.12
	c1.57,2.91,0.81,6.52-1.79,8.55l-157,122.32c0,0-15.74,12.88-32.7,12.88s-34.68-9.91-34.68-9.91l-146.03-36.75
	c-2.23-0.56-4.03-2.22-4.76-4.41l-86.82-258.6C24.73,651.57,29.56,646.57,34.81,648.13z"/>
<path class="st1" d="M500.33,833.78L372.36,596.66c-1.25-2.32-3.62-3.56-6.02-3.54l123.91,229.6c1.57,2.91,0.81,6.52-1.79,8.55
	L331.47,953.59c0,0-15.74,12.88-32.7,12.88c-16.95,0-34.68-9.91-34.68-9.91l-142.67-35.9l1.95,5.8c0.73,2.18,2.53,3.84,4.76,4.41
	l146.03,36.75c0,0,17.72,9.91,34.68,9.91c16.95,0,32.7-12.88,32.7-12.88l156.99-122.32C501.14,840.29,501.9,836.68,500.33,833.78z"
	/>
<path class="st2" d="M51,677.64L130.32,905c49.59,4.17,99.49,19.42,149.61,42.61c13.77-10.41,28.33-12.41,43.6-6.94
	c40.66-44.19,89.92-83.46,145.77-118.98L358.21,612.71l-17.83-6.94c-44.7,37.3-83.51,76.36-113.94,117.91
	c-46.78-24.33-95.69-43.28-147.63-54.5L51,677.64z"/>
<linearGradient id="SVGID_00000145036519659825299510000016401560285265964164_" gradientUnits="userSpaceOnUse" x1="78.8" y1="1245.385" x2="299.43" y2="1245.385" gradientTransform="matrix(1 0 0 -1 0 2048)">
	<stop  offset="0" style="stop-color:#FFFFFF"/>
	<stop  offset="1" style="stop-color:#C9E5F1"/>
</linearGradient>
<path style="fill:url(#SVGID_00000145036519659825299510000016401560285265964164_);" d="M78.8,669.18l78.22,212.88
	c50.31,6.56,94.27,24.28,142.41,53.99l-72.99-212.37C181.61,699.72,132.51,681.4,78.8,669.18z"/>
<linearGradient id="SVGID_00000055708624167235765730000012702642468755903368_" gradientUnits="userSpaceOnUse" x1="226.43" y1="1277.095" x2="448.48" y2="1277.095" gradientTransform="matrix(1 0 0 -1 0 2048)">
	<stop  offset="0" style="stop-color:#FFFFFF"/>
	<stop  offset="1" style="stop-color:#C9E5F1"/>
</linearGradient>
<path style="fill:url(#SVGID_00000055708624167235765730000012702642468755903368_);" d="M226.43,723.68
	c31.52-42.26,69.69-81.48,113.94-117.91l108.11,209.71c-44.82,24.16-93.76,67.12-149.07,120.56l-72.22-210.5"/>
<linearGradient id="SVGID_00000023239449443401228710000007916530923137423007_" gradientUnits="userSpaceOnUse" x1="386.6682" y1="1261.9093" x2="386.6682" y2="1057.8801" gradientTransform="matrix(1 0 0 -1 0 2048)">
	<stop  offset="0" style="stop-color:#FFDD00"/>
	<stop  offset="1" style="stop-color:#F6A71C"/>
</linearGradient>
<path style="fill:url(#SVGID_00000023239449443401228710000007916530923137423007_);stroke:#020203;stroke-width:8;stroke-miterlimit:10;" d="
	M346.22,790.74l120.21,80.24c4.4,2.94,4.85,9.24,0.91,12.77l-110.92,99.33c-11.23,10.06-28.46,9.24-38.69-1.83l-4.37-4.74
	c-10.82-11.71-9.5-30.12,2.88-40.16l61.9-50.24c4.39-3.56,3.87-10.41-1-13.27l-60.2-35.33c-13.51-7.93-17.72-25.5-9.28-38.69l0,0
	C315.97,785.8,333.36,782.16,346.22,790.74z"/>
<path class="st0" d="M34.81,1160.13l183.69,54.74l133.32-119.14c3.26-2.91,8.38-2.02,10.46,1.83l127.97,237.12
	c1.57,2.91,0.81,6.52-1.79,8.55l-156.99,122.32c0,0-15.74,12.88-32.7,12.88s-34.68-9.91-34.68-9.91l-146.03-36.75
	c-2.23-0.56-4.03-2.22-4.76-4.41l-86.82-258.6C24.73,1163.57,29.56,1158.57,34.81,1160.13z"/>
<path class="st1" d="M500.33,1345.78l-127.97-237.12c-1.25-2.32-3.62-3.56-6.02-3.54l123.91,229.6c1.57,2.91,0.81,6.52-1.79,8.55
	l-156.99,122.32c0,0-15.74,12.88-32.7,12.88c-16.95,0-34.68-9.91-34.68-9.91l-142.67-35.9l1.95,5.8c0.73,2.18,2.53,3.84,4.76,4.41
	l146.03,36.75c0,0,17.72,9.91,34.68,9.91c16.95,0,32.7-12.88,32.7-12.88l156.99-122.32C501.14,1352.29,501.9,1348.68,500.33,1345.78
	z"/>
<path class="st2" d="M51,1189.64L130.32,1417c49.59,4.17,99.49,19.42,149.61,42.61c13.77-10.41,28.33-12.41,43.6-6.94
	c40.66-44.19,89.92-83.46,145.77-118.98L358.21,1124.7l-17.83-6.94c-44.7,37.3-83.51,76.36-113.94,117.91
	c-46.78-24.33-95.69-43.28-147.63-54.5L51,1189.64z"/>
<linearGradient id="SVGID_00000049184270697320799250000000386484773377378464_" gradientUnits="userSpaceOnUse" x1="78.8" y1="733.3849" x2="299.43" y2="733.3849" gradientTransform="matrix(1 0 0 -1 0 2048)">
	<stop  offset="0" style="stop-color:#FFFFFF"/>
	<stop  offset="1" style="stop-color:#C9E5F1"/>
</linearGradient>
<path style="fill:url(#SVGID_00000049184270697320799250000000386484773377378464_);" d="M78.8,1181.18l78.22,212.88
	c50.31,6.56,94.27,24.28,142.41,53.99l-72.99-212.37C181.61,1211.72,132.51,1193.4,78.8,1181.18z"/>
<linearGradient id="SVGID_00000181806659179771765810000016457921653966246054_" gradientUnits="userSpaceOnUse" x1="226.43" y1="765.095" x2="448.48" y2="765.095" gradientTransform="matrix(1 0 0 -1 0 2048)">
	<stop  offset="0" style="stop-color:#FFFFFF"/>
	<stop  offset="1" style="stop-color:#C9E5F1"/>
</linearGradient>
<path style="fill:url(#SVGID_00000181806659179771765810000016457921653966246054_);" d="M226.43,1235.68
	c31.52-42.26,69.69-81.48,113.94-117.91l108.11,209.71c-44.82,24.16-93.76,67.12-149.07,120.56l-72.22-210.5"/>
<linearGradient id="SVGID_00000087384530899762691420000004864340462005534354_" gradientUnits="userSpaceOnUse" x1="386.6682" y1="749.9092" x2="386.6682" y2="545.8801" gradientTransform="matrix(1 0 0 -1 0 2048)">
	<stop  offset="0" style="stop-color:#ADD2EF"/>
	<stop  offset="1" style="stop-color:#3AB2E7"/>
</linearGradient>
<path style="fill:url(#SVGID_00000087384530899762691420000004864340462005534354_);stroke:#020203;stroke-width:8;stroke-miterlimit:10;" d="
	M346.22,1302.74l120.21,80.24c4.4,2.94,4.85,9.24,0.91,12.77l-110.92,99.33c-11.23,10.06-28.46,9.24-38.69-1.83l-4.37-4.74
	c-10.82-11.71-9.5-30.12,2.88-40.16l61.9-50.24c4.39-3.56,3.87-10.41-1-13.27l-60.2-35.33c-13.51-7.93-17.72-25.5-9.28-38.69l0,0
	C315.97,1297.8,333.36,1294.16,346.22,1302.74z"/>
<path class="st12" d="M34.81,1672.13l183.69,54.74l133.32-119.14c3.26-2.91,8.38-2.02,10.46,1.83l127.97,237.12
	c1.57,2.91,0.81,6.52-1.79,8.55l-156.99,122.32c0,0-15.74,12.88-32.7,12.88s-34.68-9.91-34.68-9.91l-146.03-36.75
	c-2.23-0.56-4.03-2.22-4.76-4.41l-86.82-258.6C24.73,1675.57,29.56,1670.57,34.81,1672.13z"/>
<path class="st13" d="M500.33,1857.78l-127.97-237.12c-1.25-2.32-3.62-3.56-6.02-3.54l123.91,229.6c1.57,2.91,0.81,6.52-1.79,8.55
	l-156.99,122.32c0,0-15.74,12.88-32.7,12.88c-16.95,0-34.68-9.91-34.68-9.91l-142.67-35.9l1.95,5.8c0.73,2.18,2.53,3.84,4.76,4.41
	l146.03,36.75c0,0,17.72,9.91,34.68,9.91c16.95,0,32.7-12.88,32.7-12.88l156.99-122.32C501.14,1864.29,501.9,1860.68,500.33,1857.78
	z"/>
<path class="st2" d="M51,1701.64L130.32,1929c49.59,4.17,99.49,19.42,149.61,42.61c13.77-10.41,28.33-12.41,43.6-6.94
	c40.66-44.19,89.92-83.46,145.77-118.98L358.21,1636.7l-17.83-6.94c-44.7,37.3-83.51,76.36-113.94,117.91
	c-46.78-24.33-95.69-43.28-147.63-54.5L51,1701.64z"/>
<linearGradient id="SVGID_00000157293940273509566620000016760413030298774424_" gradientUnits="userSpaceOnUse" x1="78.8" y1="221.3849" x2="299.43" y2="221.3849" gradientTransform="matrix(1 0 0 -1 0 2048)">
	<stop  offset="0" style="stop-color:#FFFFFF"/>
	<stop  offset="1" style="stop-color:#E7E7E7"/>
</linearGradient>
<path style="fill:url(#SVGID_00000157293940273509566620000016760413030298774424_);" d="M78.8,1693.18l78.22,212.88
	c50.31,6.56,94.27,24.28,142.41,53.99l-72.99-212.37C181.61,1723.72,132.51,1705.4,78.8,1693.18z"/>
<linearGradient id="SVGID_00000103240999245299142700000005959132717100759954_" gradientUnits="userSpaceOnUse" x1="226.43" y1="253.095" x2="448.48" y2="253.095" gradientTransform="matrix(1 0 0 -1 0 2048)">
	<stop  offset="0" style="stop-color:#FFFFFF"/>
	<stop  offset="1" style="stop-color:#E7E7E7"/>
</linearGradient>
<path style="fill:url(#SVGID_00000103240999245299142700000005959132717100759954_);" d="M226.43,1747.68
	c31.52-42.26,69.69-81.48,113.94-117.91l108.11,209.71c-44.82,24.16-93.76,67.12-149.07,120.56l-72.22-210.5"/>
<linearGradient id="SVGID_00000137125034056421997930000006706898323307166362_" gradientUnits="userSpaceOnUse" x1="386.0699" y1="237.9097" x2="386.0699" y2="33.8801" gradientTransform="matrix(1 0 0 -1 0 2048)">
	<stop  offset="0" style="stop-color:#DADADA"/>
	<stop  offset="1" style="stop-color:#AAAAAA"/>
</linearGradient>
<path style="fill:url(#SVGID_00000137125034056421997930000006706898323307166362_);stroke:#000000;stroke-width:8;stroke-miterlimit:10;" d="
	M346.22,1814.74l118.19,78.9c5.42,3.62,5.97,11.38,1.12,15.73l-109.12,97.71c-11.23,10.06-28.46,9.24-38.69-1.83l-4.37-4.74
	c-10.82-11.71-9.5-30.12,2.88-40.16l59.8-48.54c5.41-4.39,4.77-12.82-1.24-16.35l-57.86-33.96c-13.51-7.93-17.72-25.5-9.28-38.69
	l0,0C315.97,1809.8,333.36,1806.16,346.22,1814.74z"/>
</svg>
