<?xml version="1.0" encoding="utf-8"?>
<!-- Generator: Adobe Illustrator 27.0.1, SVG Export Plug-In . SVG Version: 6.00 Build 0)  -->
<svg version="1.1" id="Calque_1" xmlns="http://www.w3.org/2000/svg" xmlns:xlink="http://www.w3.org/1999/xlink" x="0px" y="0px"
	 viewBox="0 0 512 2048" style="enable-background:new 0 0 512 2048;" xml:space="preserve">
<style type="text/css">
	.st0{opacity:0.5;fill:none;stroke:#949494;stroke-width:8;stroke-miterlimit:10;enable-background:new    ;}
	.st1{fill:url(#SVGID_1_);}
	.st2{fill:url(#SVGID_00000134953280427385991190000001853500457784804771_);}
	.st3{fill:none;stroke:#000000;stroke-miterlimit:10;}
	.st4{fill:none;stroke:#636363;stroke-width:8;stroke-miterlimit:10;}
	.st5{fill:url(#SVGID_00000064327180888729904610000007229176467426839983_);stroke:#636363;stroke-width:8;stroke-miterlimit:10;}
	.st6{fill:url(#SVGID_00000097495530043110889040000004810946216567315593_);stroke:#787878;stroke-width:4;stroke-miterlimit:10;}
	.st7{fill:url(#SVGID_00000001640115308983088240000009097678601204402094_);stroke:#636363;stroke-width:8;stroke-miterlimit:10;}
	.st8{opacity:0.5;fill:none;stroke:#A0A09F;stroke-width:8;stroke-miterlimit:10;enable-background:new    ;}
	.st9{fill:url(#SVGID_00000047019969726302108780000016394470064198962827_);}
	.st10{fill:url(#SVGID_00000176750117911964702570000000470987595675587770_);}
	.st11{fill:none;stroke:#82827F;stroke-width:8;stroke-miterlimit:10;}
	.st12{fill:url(#SVGID_00000176735434620333844950000002029256913451706520_);stroke:#82827F;stroke-width:8;stroke-miterlimit:10;}
	.st13{fill:url(#SVGID_00000105394387910214731740000008752215758321022608_);stroke:#448A4F;stroke-width:4;stroke-miterlimit:10;}
	.st14{fill:url(#SVGID_00000073712196289374916040000005874670444274855298_);stroke:#82827F;stroke-width:8;stroke-miterlimit:10;}
	.st15{fill:url(#SVGID_00000127019703218067835450000015242267678905344435_);}
	.st16{fill:url(#SVGID_00000048475447169273258300000008647898094530568609_);}
	.st17{fill:url(#SVGID_00000136369049486905372810000000655587726388316585_);stroke:#82827F;stroke-width:8;stroke-miterlimit:10;}
	.st18{fill:url(#SVGID_00000098195137379799778820000000911598802763033011_);stroke:#448A4F;stroke-width:4;stroke-miterlimit:10;}
	.st19{fill:url(#SVGID_00000173159298366482348160000004978268960855752337_);stroke:#82827F;stroke-width:8;stroke-miterlimit:10;}
	.st20{fill:url(#SVGID_00000139995854046589937470000007515571144988235704_);}
	.st21{fill:url(#SVGID_00000171698679720447039890000010827978487623576492_);}
	.st22{fill:url(#SVGID_00000059274800727710416990000004851077368670261182_);stroke:#82827F;stroke-width:8;stroke-miterlimit:10;}
	.st23{fill:url(#SVGID_00000150066760550409969920000006764153774816564639_);stroke:#82827F;stroke-width:8;stroke-miterlimit:10;}
	.st24{fill:url(#SVGID_00000031911416813371442300000014419622088859993232_);stroke:#448A4F;stroke-width:4;stroke-miterlimit:10;}
	.st25{fill:url(#SVGID_00000165235217067535628700000006813440764166411943_);stroke:#82827F;stroke-width:8;stroke-miterlimit:10;}
	.st26{fill:url(#SVGID_00000086691416258275287440000015056662350215614593_);stroke:#030304;stroke-width:8;stroke-miterlimit:10;}
	.st27{fill:url(#SVGID_00000026849130310760398280000015696204052135431341_);stroke:#030304;stroke-width:8;stroke-miterlimit:10;}
	.st28{fill:url(#SVGID_00000129904873185475556780000017613558973770373792_);stroke:#030304;stroke-width:8;stroke-miterlimit:10;}
	.st29{fill:url(#SVGID_00000042724627213348158250000013282158421524207752_);stroke:#020203;stroke-width:8;stroke-miterlimit:10;}
</style>
<polyline class="st0" points="26.63,1895.96 262.64,2008.01 490.41,1907.54 "/>
<linearGradient id="SVGID_1_" gradientUnits="userSpaceOnUse" x1="257.69" y1="314.71" x2="257.69" y2="140.46" gradientTransform="matrix(1 0 0 -1 0 2048)">
	<stop  offset="0" style="stop-color:#949494"/>
	<stop  offset="1" style="stop-color:#EBEBEB"/>
</linearGradient>
<polygon class="st1" points="28.04,1807.87 246.78,1733.29 487.34,1818.36 262.64,1907.54 "/>
<linearGradient id="SVGID_00000085932932531724079610000008095130054304311699_" gradientUnits="userSpaceOnUse" x1="144.21" y1="240.73" x2="144.21" y2="47.1899" gradientTransform="matrix(1 0 0 -1 0 2048)">
	<stop  offset="0" style="stop-color:#949494"/>
	<stop  offset="1" style="stop-color:#EBEBEB"/>
</linearGradient>
<polygon style="fill:url(#SVGID_00000085932932531724079610000008095130054304311699_);" points="26.63,1807.27 261.79,1907.1 
	261.79,2000.81 26.63,1890.5 "/>
<path class="st3" d="M366.71,1991.99"/>
<polygon class="st4" points="26.63,1890.5 26.63,1807.27 245.94,1736.59 487.34,1818.36 484.39,1898.42 261.79,2000.81 "/>
<linearGradient id="SVGID_00000092431705534894573230000004166139298539634087_" gradientUnits="userSpaceOnUse" x1="262.64" y1="138.315" x2="487.35" y2="138.315" gradientTransform="matrix(1 0 0 -1 0 2048)">
	<stop  offset="0" style="stop-color:#999999"/>
	<stop  offset="1" style="stop-color:#6A6A6A"/>
</linearGradient>
<path style="fill:url(#SVGID_00000092431705534894573230000004166139298539634087_);stroke:#636363;stroke-width:8;stroke-miterlimit:10;" d="
	M262.64,1997.51c0-1.98,0-89.97,0-89.97l224.71-85.68l-2.95,82.37L262.64,1997.51z"/>
<polyline class="st4" points="219.23,1982.7 219.24,1889.54 448.37,1806.51 "/>
<linearGradient id="SVGID_00000147933123073129034130000004486557856360309687_" gradientUnits="userSpaceOnUse" x1="281.94" y1="140.46" x2="460.94" y2="140.46" gradientTransform="matrix(1 0 0 -1 0 2048)">
	<stop  offset="0" style="stop-color:#A5A5A5"/>
	<stop  offset="1" style="stop-color:#D9D9D9"/>
</linearGradient>
<polygon style="fill:url(#SVGID_00000147933123073129034130000004486557856360309687_);stroke:#787878;stroke-width:4;stroke-miterlimit:10;" points="
	281.94,1926.69 460.94,1857.34 460.2,1883.12 281.94,1957.74 "/>
<linearGradient id="SVGID_00000072248671450320730290000013047137736138236043_" gradientUnits="userSpaceOnUse" x1="176.76" y1="216.02" x2="409.1" y2="216.02" gradientTransform="matrix(1 0 0 -1 0 2048)">
	<stop  offset="0" style="stop-color:#EFEFEF"/>
	<stop  offset="1" style="stop-color:#C5C5C5"/>
</linearGradient>
<polygon style="fill:url(#SVGID_00000072248671450320730290000013047137736138236043_);stroke:#636363;stroke-width:8;stroke-miterlimit:10;" points="
	176.76,1840.31 320.56,1789.75 409.1,1819.53 261.79,1874.21 "/>
<polyline class="st8" points="26.63,1384.96 262.64,1497.01 490.41,1396.54 "/>
<linearGradient id="SVGID_00000181048309528993833020000000340379279015878564_" gradientUnits="userSpaceOnUse" x1="257.69" y1="825.71" x2="257.69" y2="651.46" gradientTransform="matrix(1 0 0 -1 0 2048)">
	<stop  offset="0" style="stop-color:#8F8FBC"/>
	<stop  offset="1" style="stop-color:#EAEAE7"/>
</linearGradient>
<polygon style="fill:url(#SVGID_00000181048309528993833020000000340379279015878564_);" points="28.04,1296.87 246.78,1222.29 
	487.34,1307.36 262.64,1396.54 "/>
<linearGradient id="SVGID_00000046333820816787757360000009926159406285481906_" gradientUnits="userSpaceOnUse" x1="144.21" y1="751.73" x2="144.21" y2="558.1899" gradientTransform="matrix(1 0 0 -1 0 2048)">
	<stop  offset="0" style="stop-color:#8F8FBC"/>
	<stop  offset="1" style="stop-color:#EAEAE7"/>
</linearGradient>
<polygon style="fill:url(#SVGID_00000046333820816787757360000009926159406285481906_);" points="26.63,1296.27 261.79,1396.1 
	261.79,1489.81 26.63,1379.5 "/>
<path class="st3" d="M366.71,1480.99"/>
<polygon class="st11" points="26.63,1379.5 26.63,1296.27 245.94,1225.59 487.34,1307.36 484.39,1387.42 261.79,1489.81 "/>
<linearGradient id="SVGID_00000117675061116293514090000001799224103375921599_" gradientUnits="userSpaceOnUse" x1="262.64" y1="649.315" x2="487.35" y2="649.315" gradientTransform="matrix(1 0 0 -1 0 2048)">
	<stop  offset="0" style="stop-color:#A4A4A1"/>
	<stop  offset="1" style="stop-color:#7E7E8F"/>
</linearGradient>
<path style="fill:url(#SVGID_00000117675061116293514090000001799224103375921599_);stroke:#82827F;stroke-width:8;stroke-miterlimit:10;" d="
	M262.64,1486.51c0-1.98,0-89.97,0-89.97l224.71-85.68l-2.95,82.37L262.64,1486.51z"/>
<polyline class="st11" points="219.23,1471.7 219.24,1378.54 448.37,1295.51 "/>
<linearGradient id="SVGID_00000175295804971948569290000009541928439017061274_" gradientUnits="userSpaceOnUse" x1="281.94" y1="651.46" x2="460.94" y2="651.46" gradientTransform="matrix(1 0 0 -1 0 2048)">
	<stop  offset="0" style="stop-color:#51A656"/>
	<stop  offset="1" style="stop-color:#C4D9BE"/>
</linearGradient>
<polygon style="fill:url(#SVGID_00000175295804971948569290000009541928439017061274_);stroke:#448A4F;stroke-width:4;stroke-miterlimit:10;" points="
	281.94,1415.69 460.94,1346.34 460.2,1372.12 281.94,1446.74 "/>
<linearGradient id="SVGID_00000089555841552791086940000013241945711097971584_" gradientUnits="userSpaceOnUse" x1="176.76" y1="727.02" x2="409.1" y2="727.02" gradientTransform="matrix(1 0 0 -1 0 2048)">
	<stop  offset="0" style="stop-color:#DFEEF3"/>
	<stop  offset="1" style="stop-color:#77BFD5"/>
</linearGradient>
<polygon style="fill:url(#SVGID_00000089555841552791086940000013241945711097971584_);stroke:#82827F;stroke-width:8;stroke-miterlimit:10;" points="
	176.76,1329.31 320.56,1278.75 409.1,1308.53 261.79,1363.21 "/>
<polyline class="st8" points="36.63,882.63 272.64,994.68 500.41,894.21 "/>
<linearGradient id="SVGID_00000036247176005585576020000014570144111941666689_" gradientUnits="userSpaceOnUse" x1="267.69" y1="1328.05" x2="267.69" y2="1153.79" gradientTransform="matrix(1 0 0 -1 0 2048)">
	<stop  offset="0" style="stop-color:#8F8FBC"/>
	<stop  offset="1" style="stop-color:#EAEAE7"/>
</linearGradient>
<polygon style="fill:url(#SVGID_00000036247176005585576020000014570144111941666689_);" points="38.04,794.53 256.78,719.95 
	497.34,805.03 272.64,894.21 "/>
<linearGradient id="SVGID_00000162327361587593315640000015944812709400944558_" gradientUnits="userSpaceOnUse" x1="154.21" y1="1254.0601" x2="154.21" y2="1060.52" gradientTransform="matrix(1 0 0 -1 0 2048)">
	<stop  offset="0" style="stop-color:#8F8FBC"/>
	<stop  offset="1" style="stop-color:#EAEAE7"/>
</linearGradient>
<polygon style="fill:url(#SVGID_00000162327361587593315640000015944812709400944558_);" points="36.63,793.94 271.79,893.77 
	271.79,987.48 36.63,877.17 "/>
<path class="st3" d="M376.71,978.65"/>
<polygon class="st11" points="36.63,877.17 36.63,793.94 255.94,723.26 497.34,805.03 494.39,885.09 271.79,987.48 "/>
<linearGradient id="SVGID_00000152254175817790520230000014843061086189718682_" gradientUnits="userSpaceOnUse" x1="272.64" y1="1151.655" x2="497.35" y2="1151.655" gradientTransform="matrix(1 0 0 -1 0 2048)">
	<stop  offset="0" style="stop-color:#A4A4A1"/>
	<stop  offset="1" style="stop-color:#7E7E8F"/>
</linearGradient>
<path style="fill:url(#SVGID_00000152254175817790520230000014843061086189718682_);stroke:#82827F;stroke-width:8;stroke-miterlimit:10;" d="
	M272.64,984.17c0-1.98,0-89.97,0-89.97l224.71-85.68l-2.95,82.37L272.64,984.17z"/>
<polyline class="st11" points="229.23,969.37 229.24,876.21 458.37,793.17 "/>
<linearGradient id="SVGID_00000165228832105457845960000018012368475408646275_" gradientUnits="userSpaceOnUse" x1="291.94" y1="1153.79" x2="470.94" y2="1153.79" gradientTransform="matrix(1 0 0 -1 0 2048)">
	<stop  offset="0" style="stop-color:#51A656"/>
	<stop  offset="1" style="stop-color:#C4D9BE"/>
</linearGradient>
<polygon style="fill:url(#SVGID_00000165228832105457845960000018012368475408646275_);stroke:#448A4F;stroke-width:4;stroke-miterlimit:10;" points="
	291.94,913.36 470.94,844.01 470.2,869.78 291.94,944.41 "/>
<linearGradient id="SVGID_00000131357260271482902390000015691619035785105079_" gradientUnits="userSpaceOnUse" x1="186.76" y1="1229.35" x2="419.1" y2="1229.35" gradientTransform="matrix(1 0 0 -1 0 2048)">
	<stop  offset="0" style="stop-color:#DFEEF3"/>
	<stop  offset="1" style="stop-color:#77BFD5"/>
</linearGradient>
<polygon style="fill:url(#SVGID_00000131357260271482902390000015691619035785105079_);stroke:#82827F;stroke-width:8;stroke-miterlimit:10;" points="
	186.76,826.98 330.56,776.42 419.1,806.2 271.79,860.88 "/>
<polyline class="st8" points="26.63,360.96 262.64,473.01 490.41,372.54 "/>
<linearGradient id="SVGID_00000057115859242399491670000013590947985728238471_" gradientUnits="userSpaceOnUse" x1="257.69" y1="1849.71" x2="257.69" y2="1675.46" gradientTransform="matrix(1 0 0 -1 0 2048)">
	<stop  offset="0" style="stop-color:#8F8FBC"/>
	<stop  offset="1" style="stop-color:#EAEAE7"/>
</linearGradient>
<polygon style="fill:url(#SVGID_00000057115859242399491670000013590947985728238471_);" points="28.04,272.87 246.78,198.29 
	487.34,283.36 262.64,372.54 "/>
<linearGradient id="SVGID_00000116221038937152273930000016680405475348471222_" gradientUnits="userSpaceOnUse" x1="144.21" y1="1775.73" x2="144.21" y2="1582.1899" gradientTransform="matrix(1 0 0 -1 0 2048)">
	<stop  offset="0" style="stop-color:#8F8FBC"/>
	<stop  offset="1" style="stop-color:#EAEAE7"/>
</linearGradient>
<polygon style="fill:url(#SVGID_00000116221038937152273930000016680405475348471222_);" points="26.63,272.27 261.79,372.1 
	261.79,465.81 26.63,355.5 "/>
<path class="st3" d="M366.71,456.99"/>
<polygon class="st11" points="26.63,355.5 26.63,272.27 245.94,201.59 487.34,283.36 484.39,363.42 261.79,465.81 "/>
<linearGradient id="SVGID_00000089553624025152543590000005801740726501655425_" gradientUnits="userSpaceOnUse" x1="262.64" y1="1673.3149" x2="487.35" y2="1673.3149" gradientTransform="matrix(1 0 0 -1 0 2048)">
	<stop  offset="0" style="stop-color:#A4A4A1"/>
	<stop  offset="1" style="stop-color:#7E7E8F"/>
</linearGradient>
<path style="fill:url(#SVGID_00000089553624025152543590000005801740726501655425_);stroke:#82827F;stroke-width:8;stroke-miterlimit:10;" d="
	M262.64,462.51c0-1.98,0-89.97,0-89.97l224.71-85.68l-2.95,82.37L262.64,462.51z"/>
<polyline class="st11" points="219.23,447.7 219.24,354.54 448.37,271.51 "/>
<linearGradient id="SVGID_00000095315181392383738650000005667698348925348741_" gradientUnits="userSpaceOnUse" x1="256" y1="2085.02" x2="256" y2="2085.02" gradientTransform="matrix(1 0 0 -1 0 2048)">
	<stop  offset="0" style="stop-color:#A4A4A1"/>
	<stop  offset="1" style="stop-color:#7E7E8F"/>
</linearGradient>
<path style="fill:url(#SVGID_00000095315181392383738650000005667698348925348741_);stroke:#82827F;stroke-width:8;stroke-miterlimit:10;" d="
	M256-37.02"/>
<linearGradient id="SVGID_00000049934109786115846590000015801257631756404109_" gradientUnits="userSpaceOnUse" x1="281.94" y1="1675.46" x2="460.94" y2="1675.46" gradientTransform="matrix(1 0 0 -1 0 2048)">
	<stop  offset="0" style="stop-color:#51A656"/>
	<stop  offset="1" style="stop-color:#C4D9BE"/>
</linearGradient>
<polygon style="fill:url(#SVGID_00000049934109786115846590000015801257631756404109_);stroke:#448A4F;stroke-width:4;stroke-miterlimit:10;" points="
	281.94,391.69 460.94,322.34 460.2,348.12 281.94,422.74 "/>
<linearGradient id="SVGID_00000016793647672485418460000002473850142717986493_" gradientUnits="userSpaceOnUse" x1="176.76" y1="1751.02" x2="409.1" y2="1751.02" gradientTransform="matrix(1 0 0 -1 0 2048)">
	<stop  offset="0" style="stop-color:#DFEEF3"/>
	<stop  offset="1" style="stop-color:#77BFD5"/>
</linearGradient>
<polygon style="fill:url(#SVGID_00000016793647672485418460000002473850142717986493_);stroke:#82827F;stroke-width:8;stroke-miterlimit:10;" points="
	176.76,305.31 320.56,254.75 409.1,284.53 261.79,339.21 "/>
<linearGradient id="SVGID_00000153694046975674721320000015435343405485085066_" gradientUnits="userSpaceOnUse" x1="457.3665" y1="-1234.2693" x2="457.3665" y2="-1030.2401" gradientTransform="matrix(1 0 0 1 -197.2683 1282)">
	<stop  offset="0" style="stop-color:#BCDAAC"/>
	<stop  offset="1" style="stop-color:#44AC37"/>
</linearGradient>
<path style="fill:url(#SVGID_00000153694046975674721320000015435343405485085066_);stroke:#030304;stroke-width:8;stroke-miterlimit:10;" d="
	M181.09,60.46L181.09,60.46c-8.44,13.19-4.23,30.76,9.28,38.69l60.2,35.33c4.87,2.86,5.39,9.71,1,13.27l-61.9,50.24
	c-12.38,10.04-13.7,28.45-2.88,40.16l4.37,4.74c10.23,11.07,27.46,11.89,38.69,1.83l110.92-99.33c3.94-3.53,3.49-9.83-0.91-12.77
	L219.65,52.38C206.8,43.8,189.41,47.44,181.09,60.46z"/>
<linearGradient id="SVGID_00000075150145940695960580000006379166446080484746_" gradientUnits="userSpaceOnUse" x1="467.3665" y1="-712.2693" x2="467.3665" y2="-508.2401" gradientTransform="matrix(1 0 0 1 -197.2683 1282)">
	<stop  offset="0" style="stop-color:#FFDD08"/>
	<stop  offset="1" style="stop-color:#F7A81E"/>
</linearGradient>
<path style="fill:url(#SVGID_00000075150145940695960580000006379166446080484746_);stroke:#030304;stroke-width:8;stroke-miterlimit:10;" d="
	M191.09,582.46L191.09,582.46c-8.44,13.19-4.23,30.76,9.28,38.69l60.2,35.33c4.87,2.86,5.39,9.71,1,13.27l-61.9,50.24
	c-12.38,10.04-13.7,28.45-2.88,40.16l4.37,4.74c10.23,11.07,27.46,11.89,38.69,1.83l110.92-99.33c3.94-3.53,3.49-9.83-0.91-12.77
	l-120.21-80.24C216.8,565.8,199.41,569.44,191.09,582.46z"/>
<linearGradient id="SVGID_00000119117011947776440290000016288581384121276545_" gradientUnits="userSpaceOnUse" x1="457.3665" y1="-210.2693" x2="457.3665" y2="-6.2402" gradientTransform="matrix(1 0 0 1 -197.2683 1282)">
	<stop  offset="0" style="stop-color:#AED2EE"/>
	<stop  offset="1" style="stop-color:#3CB2E6"/>
</linearGradient>
<path style="fill:url(#SVGID_00000119117011947776440290000016288581384121276545_);stroke:#030304;stroke-width:8;stroke-miterlimit:10;" d="
	M181.09,1084.46L181.09,1084.46c-8.44,13.19-4.23,30.76,9.28,38.69l60.2,35.33c4.87,2.86,5.39,9.71,1,13.27l-61.9,50.24
	c-12.38,10.04-13.7,28.45-2.88,40.16l4.37,4.74c10.23,11.07,27.46,11.89,38.69,1.83l110.92-99.33c3.94-3.53,3.49-9.83-0.91-12.77
	l-120.21-80.24C206.8,1067.8,189.41,1071.44,181.09,1084.46z"/>
<linearGradient id="SVGID_00000071528673757008811810000004375465543465066167_" gradientUnits="userSpaceOnUse" x1="457.3683" y1="301.7302" x2="457.3683" y2="505.7598" gradientTransform="matrix(1 0 0 1 -197.2683 1282)">
	<stop  offset="0" style="stop-color:#DADADA"/>
	<stop  offset="1" style="stop-color:#A9A9AA"/>
</linearGradient>
<path style="fill:url(#SVGID_00000071528673757008811810000004375465543465066167_);stroke:#020203;stroke-width:8;stroke-miterlimit:10;" d="
	M181.68,1596.45L181.68,1596.45c-8.44,13.19-4.23,30.76,9.28,38.69l57.86,33.96c6.01,3.53,6.65,11.96,1.24,16.35l-59.8,48.54
	c-12.38,10.04-13.7,28.45-2.88,40.16l4.37,4.74c10.23,11.07,27.46,11.89,38.69,1.83l109.12-97.71c4.85-4.35,4.3-12.11-1.12-15.73
	l-118.19-78.9C207.4,1579.8,190.01,1583.44,181.68,1596.45z"/>
</svg>
