<?xml version="1.0" encoding="utf-8"?>
<!-- Generator: Adobe Illustrator 27.0.1, SVG Export Plug-In . SVG Version: 6.00 Build 0)  -->
<svg version="1.1" id="Calque_1" xmlns="http://www.w3.org/2000/svg" xmlns:xlink="http://www.w3.org/1999/xlink" x="0px" y="0px"
	 viewBox="0 0 512 2048" style="enable-background:new 0 0 512 2048;" xml:space="preserve">
<style type="text/css">
	.st0{opacity:0.5;fill:none;stroke:#949494;stroke-width:8;stroke-miterlimit:10;}
	.st1{fill:url(#SVGID_1_);}
	.st2{fill:url(#SVGID_00000037685419591013617250000004689393739051305911_);}
	.st3{fill:none;stroke:#000000;stroke-miterlimit:10;}
	.st4{fill:none;stroke:#636363;stroke-width:8;stroke-miterlimit:10;}
	.st5{fill:url(#SVGID_00000121991267046628914030000009000490270038172545_);stroke:#636363;stroke-width:8;stroke-miterlimit:10;}
	.st6{fill:url(#SVGID_00000007420176671769716470000007543878928117090966_);stroke:#787878;stroke-width:4;stroke-miterlimit:10;}
	.st7{fill:url(#SVGID_00000028283108273324609520000008405455800040771757_);stroke:#636363;stroke-width:8;stroke-miterlimit:10;}
	.st8{opacity:0.5;fill:none;stroke:#A0A09F;stroke-width:8;stroke-miterlimit:10;}
	.st9{fill:url(#SVGID_00000007403996766926453420000005326772442992557197_);}
	.st10{fill:url(#SVGID_00000013894633460209420270000014846591121525473465_);}
	.st11{fill:none;stroke:#82827F;stroke-width:8;stroke-miterlimit:10;}
	.st12{fill:url(#SVGID_00000118374720973885315520000017538655080160251318_);stroke:#82827F;stroke-width:8;stroke-miterlimit:10;}
	.st13{fill:url(#SVGID_00000094613472017338207360000017530694782764309912_);stroke:#448A4F;stroke-width:4;stroke-miterlimit:10;}
	.st14{fill:url(#SVGID_00000019658438262965696490000007088383971313358490_);stroke:#82827F;stroke-width:8;stroke-miterlimit:10;}
	.st15{fill:url(#SVGID_00000070089920195923985740000002831824921710081448_);}
	.st16{fill:url(#SVGID_00000026857716406439422590000016203055648916491417_);}
	.st17{fill:url(#SVGID_00000069368499845959635660000000048545013760355240_);stroke:#82827F;stroke-width:8;stroke-miterlimit:10;}
	.st18{fill:url(#SVGID_00000091734911230463417720000013691669175902316986_);stroke:#448A4F;stroke-width:4;stroke-miterlimit:10;}
	.st19{fill:url(#SVGID_00000054226734798373466370000017155104011502715837_);stroke:#82827F;stroke-width:8;stroke-miterlimit:10;}
	.st20{fill:url(#SVGID_00000138571026012316587190000013809445851903060912_);}
	.st21{fill:url(#SVGID_00000020370392799582393930000002866378525242656937_);}
	.st22{fill:url(#SVGID_00000150804577856698393960000014998949458943104702_);stroke:#82827F;stroke-width:8;stroke-miterlimit:10;}
	.st23{fill:url(#SVGID_00000147207986445145350780000015191645927147591102_);stroke:#82827F;stroke-width:8;stroke-miterlimit:10;}
	.st24{fill:url(#SVGID_00000141423240022275152150000017775209112155932295_);stroke:#448A4F;stroke-width:4;stroke-miterlimit:10;}
	.st25{fill:url(#SVGID_00000018959652594708554910000013778687189974304900_);stroke:#82827F;stroke-width:8;stroke-miterlimit:10;}
	.st26{fill:url(#SVGID_00000013886354944286148700000009853699177641996937_);stroke:#030304;stroke-width:8;stroke-miterlimit:10;}
	.st27{fill:url(#SVGID_00000177442303344694569650000008851329868564156578_);stroke:#030304;stroke-width:8;stroke-miterlimit:10;}
	.st28{fill:url(#SVGID_00000121980065233920723950000008907922253599859847_);stroke:#030304;stroke-width:8;stroke-miterlimit:10;}
	.st29{fill:url(#SVGID_00000088835811095961756430000003358841259810803081_);stroke:#020203;stroke-width:8;stroke-miterlimit:10;}
</style>
<polyline class="st0" points="26.63,1895.96 262.64,2008.01 490.41,1907.54 "/>
<linearGradient id="SVGID_1_" gradientUnits="userSpaceOnUse" x1="257.6929" y1="1733.285" x2="257.6929" y2="1907.5385">
	<stop  offset="0" style="stop-color:#949494"/>
	<stop  offset="1" style="stop-color:#EBEBEB"/>
</linearGradient>
<polygon class="st1" points="28.04,1807.87 246.78,1733.29 487.34,1818.36 262.64,1907.54 "/>
<linearGradient id="SVGID_00000165236457211880579850000000407777470088511404_" gradientUnits="userSpaceOnUse" x1="144.2103" y1="1807.2667" x2="144.2103" y2="2000.808">
	<stop  offset="0" style="stop-color:#949494"/>
	<stop  offset="1" style="stop-color:#EBEBEB"/>
</linearGradient>
<polygon style="fill:url(#SVGID_00000165236457211880579850000000407777470088511404_);" points="26.63,1807.27 261.79,1907.1 
	261.79,2000.81 26.63,1890.5 "/>
<path class="st3" d="M366.71,1991.99"/>
<polygon class="st4" points="26.63,1890.5 26.63,1807.27 245.94,1736.59 487.34,1818.36 484.39,1898.42 261.79,2000.81 "/>
<linearGradient id="SVGID_00000039121775299509598630000010298565256344867993_" gradientUnits="userSpaceOnUse" x1="262.6376" y1="1909.6842" x2="487.344" y2="1909.6842">
	<stop  offset="0" style="stop-color:#999999"/>
	<stop  offset="1" style="stop-color:#6A6A6A"/>
</linearGradient>
<path style="fill:url(#SVGID_00000039121775299509598630000010298565256344867993_);stroke:#636363;stroke-width:8;stroke-miterlimit:10;" d="
	M262.64,1997.51c0-1.98,0-89.97,0-89.97l224.71-85.68l-2.95,82.37L262.64,1997.51z"/>
<polyline class="st4" points="219.23,1982.7 219.24,1889.54 448.37,1806.51 "/>
<linearGradient id="SVGID_00000146457247262581170930000016476338060734300302_" gradientUnits="userSpaceOnUse" x1="281.935" y1="1907.5385" x2="460.9442" y2="1907.5385">
	<stop  offset="0" style="stop-color:#A5A5A5"/>
	<stop  offset="1" style="stop-color:#D9D9D9"/>
</linearGradient>
<polygon style="fill:url(#SVGID_00000146457247262581170930000016476338060734300302_);stroke:#787878;stroke-width:4;stroke-miterlimit:10;" points="
	281.94,1926.69 460.94,1857.34 460.2,1883.12 281.94,1957.74 "/>
<linearGradient id="SVGID_00000040552335143260444610000011469624099910253212_" gradientUnits="userSpaceOnUse" x1="176.7604" y1="1831.9814" x2="409.095" y2="1831.9814">
	<stop  offset="0" style="stop-color:#EFEFEF"/>
	<stop  offset="1" style="stop-color:#C5C5C5"/>
</linearGradient>
<polygon style="fill:url(#SVGID_00000040552335143260444610000011469624099910253212_);stroke:#636363;stroke-width:8;stroke-miterlimit:10;" points="
	176.76,1840.31 320.56,1789.75 409.1,1819.53 261.79,1874.21 "/>
<polyline class="st8" points="26.63,1384.96 262.64,1497.01 490.41,1396.54 "/>
<linearGradient id="SVGID_00000057125355595324598720000010219293916863365033_" gradientUnits="userSpaceOnUse" x1="257.6929" y1="1222.285" x2="257.6929" y2="1396.5385">
	<stop  offset="0" style="stop-color:#8F8FBC"/>
	<stop  offset="1" style="stop-color:#EAEAE7"/>
</linearGradient>
<polygon style="fill:url(#SVGID_00000057125355595324598720000010219293916863365033_);" points="28.04,1296.87 246.78,1222.29 
	487.34,1307.36 262.64,1396.54 "/>
<linearGradient id="SVGID_00000158719400428418087290000004853167962525906335_" gradientUnits="userSpaceOnUse" x1="144.2103" y1="1296.2667" x2="144.2103" y2="1489.808">
	<stop  offset="0" style="stop-color:#8F8FBC"/>
	<stop  offset="1" style="stop-color:#EAEAE7"/>
</linearGradient>
<polygon style="fill:url(#SVGID_00000158719400428418087290000004853167962525906335_);" points="26.63,1296.27 261.79,1396.1 
	261.79,1489.81 26.63,1379.5 "/>
<path class="st3" d="M366.71,1480.99"/>
<polygon class="st11" points="26.63,1379.5 26.63,1296.27 245.94,1225.59 487.34,1307.36 484.39,1387.42 261.79,1489.81 "/>
<linearGradient id="SVGID_00000133499260592269603160000016858249729857844388_" gradientUnits="userSpaceOnUse" x1="262.6376" y1="1398.6842" x2="487.344" y2="1398.6842">
	<stop  offset="0" style="stop-color:#A4A4A1"/>
	<stop  offset="1" style="stop-color:#7E7E8F"/>
</linearGradient>
<path style="fill:url(#SVGID_00000133499260592269603160000016858249729857844388_);stroke:#82827F;stroke-width:8;stroke-miterlimit:10;" d="
	M262.64,1486.51c0-1.98,0-89.97,0-89.97l224.71-85.68l-2.95,82.37L262.64,1486.51z"/>
<polyline class="st11" points="219.23,1471.7 219.24,1378.54 448.37,1295.51 "/>
<linearGradient id="SVGID_00000011032765509095778310000000393912583747640206_" gradientUnits="userSpaceOnUse" x1="281.935" y1="1396.5385" x2="460.9442" y2="1396.5385">
	<stop  offset="0" style="stop-color:#51A656"/>
	<stop  offset="1" style="stop-color:#C4D9BE"/>
</linearGradient>
<polygon style="fill:url(#SVGID_00000011032765509095778310000000393912583747640206_);stroke:#448A4F;stroke-width:4;stroke-miterlimit:10;" points="
	281.94,1415.69 460.94,1346.34 460.2,1372.12 281.94,1446.74 "/>
<linearGradient id="SVGID_00000124160896201751052070000001868326071856136847_" gradientUnits="userSpaceOnUse" x1="176.7604" y1="1320.9814" x2="409.095" y2="1320.9814">
	<stop  offset="0" style="stop-color:#DFEEF3"/>
	<stop  offset="1" style="stop-color:#77BFD5"/>
</linearGradient>
<polygon style="fill:url(#SVGID_00000124160896201751052070000001868326071856136847_);stroke:#82827F;stroke-width:8;stroke-miterlimit:10;" points="
	176.76,1329.31 320.56,1278.75 409.1,1308.53 261.79,1363.21 "/>
<polyline class="st8" points="26.63,872.63 262.64,984.68 490.41,884.21 "/>
<linearGradient id="SVGID_00000070801187164897292710000008524547408831566735_" gradientUnits="userSpaceOnUse" x1="257.6929" y1="709.9542" x2="257.6929" y2="884.2076">
	<stop  offset="0" style="stop-color:#8F8FBC"/>
	<stop  offset="1" style="stop-color:#EAEAE7"/>
</linearGradient>
<polygon style="fill:url(#SVGID_00000070801187164897292710000008524547408831566735_);" points="28.04,784.53 246.78,709.95 
	487.34,795.03 262.64,884.21 "/>
<linearGradient id="SVGID_00000084498640930388612700000001764666839484245900_" gradientUnits="userSpaceOnUse" x1="144.2103" y1="783.9358" x2="144.2103" y2="977.4771">
	<stop  offset="0" style="stop-color:#8F8FBC"/>
	<stop  offset="1" style="stop-color:#EAEAE7"/>
</linearGradient>
<polygon style="fill:url(#SVGID_00000084498640930388612700000001764666839484245900_);" points="26.63,783.94 261.79,883.77 
	261.79,977.48 26.63,867.17 "/>
<path class="st3" d="M366.71,968.65"/>
<polygon class="st11" points="26.63,867.17 26.63,783.94 245.94,713.26 487.34,795.03 484.39,875.09 261.79,977.48 "/>
<linearGradient id="SVGID_00000102533667529485666860000009785481898062995602_" gradientUnits="userSpaceOnUse" x1="262.6376" y1="886.3533" x2="487.344" y2="886.3533">
	<stop  offset="0" style="stop-color:#A4A4A1"/>
	<stop  offset="1" style="stop-color:#7E7E8F"/>
</linearGradient>
<path style="fill:url(#SVGID_00000102533667529485666860000009785481898062995602_);stroke:#82827F;stroke-width:8;stroke-miterlimit:10;" d="
	M262.64,974.17c0-1.98,0-89.97,0-89.97l224.71-85.68l-2.95,82.37L262.64,974.17z"/>
<polyline class="st11" points="219.23,959.37 219.24,866.21 448.37,783.17 "/>
<linearGradient id="SVGID_00000106116293707094274220000005084640766582823848_" gradientUnits="userSpaceOnUse" x1="281.935" y1="884.2076" x2="460.9442" y2="884.2076">
	<stop  offset="0" style="stop-color:#51A656"/>
	<stop  offset="1" style="stop-color:#C4D9BE"/>
</linearGradient>
<polygon style="fill:url(#SVGID_00000106116293707094274220000005084640766582823848_);stroke:#448A4F;stroke-width:4;stroke-miterlimit:10;" points="
	281.94,903.36 460.94,834.01 460.2,859.78 281.94,934.41 "/>
<linearGradient id="SVGID_00000026861216707655888900000009970395643402361525_" gradientUnits="userSpaceOnUse" x1="176.7604" y1="808.6506" x2="409.095" y2="808.6506">
	<stop  offset="0" style="stop-color:#DFEEF3"/>
	<stop  offset="1" style="stop-color:#77BFD5"/>
</linearGradient>
<polygon style="fill:url(#SVGID_00000026861216707655888900000009970395643402361525_);stroke:#82827F;stroke-width:8;stroke-miterlimit:10;" points="
	176.76,816.98 320.56,766.42 409.1,796.2 261.79,850.88 "/>
<polyline class="st8" points="26.63,360.96 262.64,473.01 490.41,372.54 "/>
<linearGradient id="SVGID_00000011711463236390501610000013098612548698465428_" gradientUnits="userSpaceOnUse" x1="257.6929" y1="198.285" x2="257.6929" y2="372.5384">
	<stop  offset="0" style="stop-color:#8F8FBC"/>
	<stop  offset="1" style="stop-color:#EAEAE7"/>
</linearGradient>
<polygon style="fill:url(#SVGID_00000011711463236390501610000013098612548698465428_);" points="28.04,272.87 246.78,198.29 
	487.34,283.36 262.64,372.54 "/>
<linearGradient id="SVGID_00000018235903986846991420000000963473715521194119_" gradientUnits="userSpaceOnUse" x1="144.2103" y1="272.2667" x2="144.2103" y2="465.808">
	<stop  offset="0" style="stop-color:#8F8FBC"/>
	<stop  offset="1" style="stop-color:#EAEAE7"/>
</linearGradient>
<polygon style="fill:url(#SVGID_00000018235903986846991420000000963473715521194119_);" points="26.63,272.27 261.79,372.1 
	261.79,465.81 26.63,355.5 "/>
<path class="st3" d="M366.71,456.99"/>
<polygon class="st11" points="26.63,355.5 26.63,272.27 245.94,201.59 487.34,283.36 484.39,363.42 261.79,465.81 "/>
<linearGradient id="SVGID_00000065053558497852643660000001576225374870844350_" gradientUnits="userSpaceOnUse" x1="262.6376" y1="374.6842" x2="487.344" y2="374.6842">
	<stop  offset="0" style="stop-color:#A4A4A1"/>
	<stop  offset="1" style="stop-color:#7E7E8F"/>
</linearGradient>
<path style="fill:url(#SVGID_00000065053558497852643660000001576225374870844350_);stroke:#82827F;stroke-width:8;stroke-miterlimit:10;" d="
	M262.64,462.51c0-1.98,0-89.97,0-89.97l224.71-85.68l-2.95,82.37L262.64,462.51z"/>
<polyline class="st11" points="219.23,447.7 219.24,354.54 448.37,271.51 "/>
<linearGradient id="SVGID_00000176756114395649715010000012164297201224306593_" gradientUnits="userSpaceOnUse" x1="256" y1="-37.0183" x2="256" y2="-37.0183">
	<stop  offset="0" style="stop-color:#A4A4A1"/>
	<stop  offset="1" style="stop-color:#7E7E8F"/>
</linearGradient>
<path style="fill:url(#SVGID_00000176756114395649715010000012164297201224306593_);stroke:#82827F;stroke-width:8;stroke-miterlimit:10;" d="
	M256-37.02"/>
<linearGradient id="SVGID_00000009580272153659687630000001178409980533329565_" gradientUnits="userSpaceOnUse" x1="281.935" y1="372.5384" x2="460.9442" y2="372.5384">
	<stop  offset="0" style="stop-color:#51A656"/>
	<stop  offset="1" style="stop-color:#C4D9BE"/>
</linearGradient>
<polygon style="fill:url(#SVGID_00000009580272153659687630000001178409980533329565_);stroke:#448A4F;stroke-width:4;stroke-miterlimit:10;" points="
	281.94,391.69 460.94,322.34 460.2,348.12 281.94,422.74 "/>
<linearGradient id="SVGID_00000145743622159379913610000005378862392890836367_" gradientUnits="userSpaceOnUse" x1="176.7604" y1="296.9814" x2="409.095" y2="296.9814">
	<stop  offset="0" style="stop-color:#DFEEF3"/>
	<stop  offset="1" style="stop-color:#77BFD5"/>
</linearGradient>
<polygon style="fill:url(#SVGID_00000145743622159379913610000005378862392890836367_);stroke:#82827F;stroke-width:8;stroke-miterlimit:10;" points="
	176.76,305.31 320.56,254.75 409.1,284.53 261.79,339.21 "/>
<linearGradient id="SVGID_00000078730943924993209510000011281115428052110748_" gradientUnits="userSpaceOnUse" x1="457.3683" y1="2002.2693" x2="457.3683" y2="1798.2401" gradientTransform="matrix(1 0 0 -1 -197.2683 2050)">
	<stop  offset="0" style="stop-color:#BCDAAC"/>
	<stop  offset="1" style="stop-color:#44AC37"/>
</linearGradient>
<path style="fill:url(#SVGID_00000078730943924993209510000011281115428052110748_);stroke:#030304;stroke-width:8;stroke-miterlimit:10;" d="
	M181.09,60.46L181.09,60.46c-8.44,13.19-4.23,30.76,9.28,38.69l60.2,35.33c4.87,2.86,5.39,9.71,1,13.27l-61.9,50.24
	c-12.38,10.04-13.7,28.45-2.88,40.16l4.37,4.74c10.23,11.07,27.46,11.89,38.69,1.83l110.92-99.33c3.94-3.53,3.49-9.83-0.91-12.77
	L219.65,52.38C206.8,43.8,189.41,47.44,181.09,60.46z"/>
<linearGradient id="SVGID_00000165209268374227613010000007159621745444032922_" gradientUnits="userSpaceOnUse" x1="457.3683" y1="1490.2693" x2="457.3683" y2="1286.2401" gradientTransform="matrix(1 0 0 -1 -197.2683 2050)">
	<stop  offset="0" style="stop-color:#FFDD08"/>
	<stop  offset="1" style="stop-color:#F7A81E"/>
</linearGradient>
<path style="fill:url(#SVGID_00000165209268374227613010000007159621745444032922_);stroke:#030304;stroke-width:8;stroke-miterlimit:10;" d="
	M181.09,572.46L181.09,572.46c-8.44,13.19-4.23,30.76,9.28,38.69l60.2,35.33c4.87,2.86,5.39,9.71,1,13.27l-61.9,50.24
	c-12.38,10.04-13.7,28.45-2.88,40.16l4.37,4.74c10.23,11.07,27.46,11.89,38.69,1.83l110.92-99.33c3.94-3.53,3.49-9.83-0.91-12.77
	l-120.21-80.24C206.8,555.8,189.41,559.44,181.09,572.46z"/>
<linearGradient id="SVGID_00000080910520889876848900000001478713122429591458_" gradientUnits="userSpaceOnUse" x1="457.3683" y1="978.2692" x2="457.3683" y2="774.2401" gradientTransform="matrix(1 0 0 -1 -197.2683 2050)">
	<stop  offset="0" style="stop-color:#AED2EE"/>
	<stop  offset="1" style="stop-color:#3CB2E6"/>
</linearGradient>
<path style="fill:url(#SVGID_00000080910520889876848900000001478713122429591458_);stroke:#030304;stroke-width:8;stroke-miterlimit:10;" d="
	M181.09,1084.46L181.09,1084.46c-8.44,13.19-4.23,30.76,9.28,38.69l60.2,35.33c4.87,2.86,5.39,9.71,1,13.27l-61.9,50.24
	c-12.38,10.04-13.7,28.45-2.88,40.16l4.37,4.74c10.23,11.07,27.46,11.89,38.69,1.83l110.92-99.33c3.94-3.53,3.49-9.83-0.91-12.77
	l-120.21-80.24C206.8,1067.8,189.41,1071.44,181.09,1084.46z"/>
<linearGradient id="SVGID_00000092449245385763274770000008836223951346589114_" gradientUnits="userSpaceOnUse" x1="457.3683" y1="466.2697" x2="457.3683" y2="262.2401" gradientTransform="matrix(1 0 0 -1 -197.2683 2050)">
	<stop  offset="0" style="stop-color:#DADADA"/>
	<stop  offset="1" style="stop-color:#A9A9AA"/>
</linearGradient>
<path style="fill:url(#SVGID_00000092449245385763274770000008836223951346589114_);stroke:#020203;stroke-width:8;stroke-miterlimit:10;" d="
	M181.68,1596.45L181.68,1596.45c-8.44,13.19-4.23,30.76,9.28,38.69l57.86,33.96c6.01,3.53,6.65,11.96,1.24,16.35l-59.8,48.54
	c-12.38,10.04-13.7,28.45-2.88,40.16l4.37,4.74c10.23,11.07,27.46,11.89,38.69,1.83l109.12-97.71c4.85-4.35,4.3-12.11-1.12-15.73
	l-118.19-78.9C207.4,1579.8,190.01,1583.44,181.68,1596.45z"/>
</svg>
