<?xml version="1.0" encoding="utf-8"?>
<!-- Generator: Adobe Illustrator 27.0.1, SVG Export Plug-In . SVG Version: 6.00 Build 0)  -->
<svg version="1.1" id="Calque_1" xmlns="http://www.w3.org/2000/svg" xmlns:xlink="http://www.w3.org/1999/xlink" x="0px" y="0px"
	 viewBox="0 0 512 2048" style="enable-background:new 0 0 512 2048;" xml:space="preserve">
<style type="text/css">
	.st0{opacity:0.5;fill:none;stroke:#A1A09F;stroke-width:8;stroke-miterlimit:10;enable-background:new    ;}
	.st1{fill:url(#SVGID_1_);}
	.st2{fill:url(#SVGID_00000036232498838985445360000010312061856575574172_);}
	.st3{fill:none;stroke:#020203;stroke-miterlimit:10;}
	.st4{fill:none;stroke:#828380;stroke-width:8;stroke-miterlimit:10;}
	.st5{fill:url(#SVGID_00000030471945000081208140000002657403573727525563_);stroke:#828380;stroke-width:8;stroke-miterlimit:10;}
	.st6{fill:url(#SVGID_00000018210312082239600530000004579948698978572437_);stroke:#448B50;stroke-width:4;stroke-miterlimit:10;}
	.st7{fill:url(#SVGID_00000076593930070312905810000005441239025283166598_);stroke:#828380;stroke-width:8;stroke-miterlimit:10;}
	
		.st8{fill:url(#SVGID_00000096049621814508442120000011478295645793555848_);stroke:url(#SVGID_00000173124532239755664980000016071496672148682680_);stroke-width:8;stroke-miterlimit:10;}
	.st9{fill:#5591CD;stroke:url(#SVGID_00000165233444418631626380000010978132022517726892_);stroke-width:8;stroke-miterlimit:10;}
	.st10{fill:none;stroke:#9EC9ED;stroke-width:8;stroke-miterlimit:10;}
	.st11{fill:url(#SVGID_00000155859630316858421130000000044979771815229866_);stroke:#030405;stroke-width:8;stroke-miterlimit:10;}
	.st12{fill:url(#SVGID_00000183242920010599159410000013875694914859442573_);stroke:#030405;stroke-width:8;stroke-miterlimit:10;}
	.st13{fill:url(#SVGID_00000167386885058143413290000001449580190299007619_);}
	.st14{fill:url(#SVGID_00000103260040949656870790000013606563986352158610_);}
	.st15{fill:url(#SVGID_00000142869115001552012850000009706415558990701758_);stroke:#828380;stroke-width:8;stroke-miterlimit:10;}
	.st16{fill:url(#SVGID_00000072245486271734322790000012978937228544864663_);stroke:#448B50;stroke-width:4;stroke-miterlimit:10;}
	.st17{fill:url(#SVGID_00000116205302302234066620000008920678747452021427_);stroke:#828380;stroke-width:8;stroke-miterlimit:10;}
	
		.st18{fill:url(#SVGID_00000036253480762724137370000006372843462540977808_);stroke:url(#SVGID_00000145773013850340283050000010983267479529014456_);stroke-width:8;stroke-miterlimit:10;}
	.st19{fill:#5591CD;stroke:url(#SVGID_00000052092464266263717450000009028017457665817000_);stroke-width:8;stroke-miterlimit:10;}
	.st20{fill:url(#SVGID_00000143584112241840013970000001617365745787445393_);stroke:#030405;stroke-width:8;stroke-miterlimit:10;}
	.st21{fill:url(#SVGID_00000117643064668109157160000005707677583413261196_);stroke:#030405;stroke-width:8;stroke-miterlimit:10;}
	.st22{opacity:0.5;fill:none;stroke:#949494;stroke-width:8;stroke-miterlimit:10;enable-background:new    ;}
	.st23{fill:url(#SVGID_00000183965653177942135390000002934306759787211662_);}
	.st24{fill:url(#SVGID_00000018933026003207568460000000469190015430674877_);}
	.st25{fill:none;stroke:#000000;stroke-miterlimit:10;}
	.st26{fill:none;stroke:#646464;stroke-width:8;stroke-miterlimit:10;}
	.st27{fill:url(#SVGID_00000060734629480923744190000007798545497197061550_);stroke:#646464;stroke-width:8;stroke-miterlimit:10;}
	.st28{fill:url(#SVGID_00000125560850902606195870000006079233768156266630_);stroke:#787878;stroke-width:4;stroke-miterlimit:10;}
	.st29{fill:url(#SVGID_00000012444627363243248730000015387702363154980258_);stroke:#646464;stroke-width:8;stroke-miterlimit:10;}
	
		.st30{fill:url(#SVGID_00000121280271929826512700000005389278858977366690_);stroke:url(#SVGID_00000132787279960635635180000011879136024840023213_);stroke-width:8;stroke-miterlimit:10;}
	.st31{fill:#979797;stroke:url(#SVGID_00000072964657782778907930000010071207637567144111_);stroke-width:8;stroke-miterlimit:10;}
	.st32{fill:none;stroke:#CFCFCF;stroke-width:8;stroke-miterlimit:10;}
	.st33{fill:#747474;stroke:#000000;stroke-width:4;stroke-miterlimit:10;}
	.st34{fill:url(#SVGID_00000026853178583573427770000009345445042709363875_);}
	.st35{fill:url(#SVGID_00000181766830214757772640000015452540678902775939_);}
	.st36{fill:url(#SVGID_00000111182156840454054270000018379720308623587713_);stroke:#828380;stroke-width:8;stroke-miterlimit:10;}
	.st37{fill:url(#SVGID_00000112625067031742505670000001734020071223870097_);stroke:#448B50;stroke-width:4;stroke-miterlimit:10;}
	.st38{fill:url(#SVGID_00000101093102106640435190000008339900833946406577_);stroke:#828380;stroke-width:8;stroke-miterlimit:10;}
	
		.st39{fill:url(#SVGID_00000140729795352274229550000018181341141018758790_);stroke:url(#SVGID_00000057841102229381078000000000537828960775894931_);stroke-width:8;stroke-miterlimit:10;}
	.st40{fill:#5591CD;stroke:url(#SVGID_00000030464590626980540710000012986268764300473774_);stroke-width:8;stroke-miterlimit:10;}
	.st41{fill:url(#SVGID_00000171703651141461224890000016013133990001777053_);stroke:#030405;stroke-width:8;stroke-miterlimit:10;}
	.st42{fill:url(#SVGID_00000031184522232017791690000005994095937640026804_);stroke:#030405;stroke-width:8;stroke-miterlimit:10;}
</style>
<polyline class="st0" points="26.63,360.96 262.64,473.01 490.41,372.55 "/>
<linearGradient id="SVGID_1_" gradientUnits="userSpaceOnUse" x1="257.69" y1="-1083.71" x2="257.69" y2="-909.45" gradientTransform="matrix(1 0 0 1 0 1282)">
	<stop  offset="0" style="stop-color:#8F8FBC"/>
	<stop  offset="1" style="stop-color:#EBEAE7"/>
</linearGradient>
<polygon class="st1" points="28.04,272.87 246.78,198.29 487.34,283.37 262.64,372.55 "/>
<linearGradient id="SVGID_00000134963611513940413960000009806694435596974981_" gradientUnits="userSpaceOnUse" x1="144.21" y1="-1009.73" x2="144.21" y2="-816.19" gradientTransform="matrix(1 0 0 1 0 1282)">
	<stop  offset="0" style="stop-color:#8F8FBC"/>
	<stop  offset="1" style="stop-color:#EBEAE7"/>
</linearGradient>
<polygon style="fill:url(#SVGID_00000134963611513940413960000009806694435596974981_);" points="26.63,272.27 261.79,372.11 
	261.79,465.81 26.63,355.5 "/>
<path class="st3" d="M366.71,456.99"/>
<polygon class="st4" points="26.63,355.5 26.63,272.27 245.94,201.6 487.34,283.37 484.39,363.43 261.79,465.81 "/>
<linearGradient id="SVGID_00000111889119897076360540000016121088205783563167_" gradientUnits="userSpaceOnUse" x1="262.64" y1="-907.325" x2="487.35" y2="-907.325" gradientTransform="matrix(1 0 0 1 0 1282)">
	<stop  offset="0" style="stop-color:#A4A4A1"/>
	<stop  offset="1" style="stop-color:#7E7E8F"/>
</linearGradient>
<path style="fill:url(#SVGID_00000111889119897076360540000016121088205783563167_);stroke:#828380;stroke-width:8;stroke-miterlimit:10;" d="
	M262.64,462.5c0-1.98,0-89.97,0-89.97l224.71-85.68l-2.95,82.37L262.64,462.5z"/>
<polyline class="st4" points="219.23,447.7 219.24,354.55 448.37,271.5 "/>
<linearGradient id="SVGID_00000148635133799892760960000016212975705093894529_" gradientUnits="userSpaceOnUse" x1="281.94" y1="-909.455" x2="460.94" y2="-909.455" gradientTransform="matrix(1 0 0 1 0 1282)">
	<stop  offset="0" style="stop-color:#50A657"/>
	<stop  offset="1" style="stop-color:#C4D9BE"/>
</linearGradient>
<polygon style="fill:url(#SVGID_00000148635133799892760960000016212975705093894529_);stroke:#448B50;stroke-width:4;stroke-miterlimit:10;" points="
	281.94,391.69 460.94,322.35 460.2,348.12 281.94,422.74 "/>
<linearGradient id="SVGID_00000036959110624677812760000003292456536780734863_" gradientUnits="userSpaceOnUse" x1="176.76" y1="-985.02" x2="409.1" y2="-985.02" gradientTransform="matrix(1 0 0 1 0 1282)">
	<stop  offset="0" style="stop-color:#DFEFF4"/>
	<stop  offset="1" style="stop-color:#78BFD5"/>
</linearGradient>
<polygon style="fill:url(#SVGID_00000036959110624677812760000003292456536780734863_);stroke:#828380;stroke-width:8;stroke-miterlimit:10;" points="
	176.76,305.31 320.56,254.75 409.1,284.54 261.79,339.21 "/>
<linearGradient id="SVGID_00000090294131712440449870000001064225960536257710_" gradientUnits="userSpaceOnUse" x1="226.515" y1="-1195.5649" x2="392.92" y2="-1029.16" gradientTransform="matrix(1 0 0 1 0 1282)">
	<stop  offset="0" style="stop-color:#FCFAF6"/>
	<stop  offset="1" style="stop-color:#C9E3F1"/>
</linearGradient>
<linearGradient id="SVGID_00000182518395765168237840000009206835589887633054_" gradientUnits="userSpaceOnUse" x1="213.6061" y1="-1170.5219" x2="413.1411" y2="-1055.3202" gradientTransform="matrix(1 0 0 1 0 1282)">
	<stop  offset="0" style="stop-color:#A6C7EA"/>
	<stop  offset="1" style="stop-color:#626187"/>
</linearGradient>
<polygon style="fill:url(#SVGID_00000090294131712440449870000001064225960536257710_);stroke:url(#SVGID_00000182518395765168237840000009206835589887633054_);stroke-width:8;stroke-miterlimit:10;" points="
	390.1,255.66 245.11,255.66 245.11,67.84 358.55,67.84 390.1,100.54 "/>
<linearGradient id="SVGID_00000171691283817218233150000012511016019289038521_" gradientUnits="userSpaceOnUse" x1="345.9897" y1="-1202.7919" x2="392.0591" y2="-1176.1937" gradientTransform="matrix(1 0 0 1 0 1282)">
	<stop  offset="0" style="stop-color:#A6C7EA"/>
	<stop  offset="1" style="stop-color:#626187"/>
</linearGradient>
<polyline style="fill:#5591CD;stroke:url(#SVGID_00000171691283817218233150000012511016019289038521_);stroke-width:8;stroke-miterlimit:10;" points="
	357.6,66.03 357.57,101.77 392.08,101.77 "/>
<line class="st10" x1="266.35" y1="149.1" x2="369.63" y2="149.1"/>
<line class="st10" x1="266.35" y1="174.21" x2="369.63" y2="174.21"/>
<line class="st10" x1="266.35" y1="195.13" x2="369.63" y2="195.13"/>
<line class="st10" x1="266.35" y1="221.6" x2="369.63" y2="221.6"/>
<linearGradient id="SVGID_00000129163881318165727680000012470085006566184354_" gradientUnits="userSpaceOnUse" x1="132.08" y1="1977.125" x2="260.74" y2="1977.125" gradientTransform="matrix(1 0 0 -1 0 2048)">
	<stop  offset="0" style="stop-color:#BCDAAC"/>
	<stop  offset="1" style="stop-color:#47AD39"/>
</linearGradient>
<path style="fill:url(#SVGID_00000129163881318165727680000012470085006566184354_);stroke:#030405;stroke-width:8;stroke-miterlimit:10;" d="
	M260.74,42.25l-47.29-27.3v17.71l0,0c-44.94,0-81.37,36.43-81.37,81.37c0,4.35,0.35,8.61,1.01,12.77h27.5
	c-0.36-2.68-0.57-5.41-0.57-8.19c0-31.01,23.36-56.54,53.43-60.02v10.96L260.74,42.25z"/>
<linearGradient id="SVGID_00000108309227841477878850000005716470838746340997_" gradientUnits="userSpaceOnUse" x1="167.09" y1="1896.105" x2="295.75" y2="1896.105" gradientTransform="matrix(1 0 0 -1 0 2048)">
	<stop  offset="0" style="stop-color:#BCDAAC"/>
	<stop  offset="1" style="stop-color:#47AD39"/>
</linearGradient>
<path style="fill:url(#SVGID_00000108309227841477878850000005716470838746340997_);stroke:#030405;stroke-width:8;stroke-miterlimit:10;" d="
	M294.74,95.97h-27.5c0.36,2.68,0.57,5.41,0.57,8.19c0,31.01-23.36,56.54-53.43,60.02v-10.96l-47.29,27.3l47.29,27.3v-17.71l0,0
	c44.94,0,81.37-36.43,81.37-81.37C295.75,104.4,295.4,100.14,294.74,95.97z"/>
<polyline class="st0" points="26.63,1382.96 262.64,1495.01 490.41,1394.54 "/>
<linearGradient id="SVGID_00000021108285169698354070000013925090301937220008_" gradientUnits="userSpaceOnUse" x1="257.69" y1="-61.72" x2="257.69" y2="112.54" gradientTransform="matrix(1 0 0 1 0 1282)">
	<stop  offset="0" style="stop-color:#8F8FBC"/>
	<stop  offset="1" style="stop-color:#EBEAE7"/>
</linearGradient>
<polygon style="fill:url(#SVGID_00000021108285169698354070000013925090301937220008_);" points="28.04,1294.86 246.78,1220.28 
	487.34,1305.36 262.64,1394.54 "/>
<linearGradient id="SVGID_00000006694510178531834740000003611574130043347340_" gradientUnits="userSpaceOnUse" x1="144.21" y1="12.27" x2="144.21" y2="205.8101" gradientTransform="matrix(1 0 0 1 0 1282)">
	<stop  offset="0" style="stop-color:#8F8FBC"/>
	<stop  offset="1" style="stop-color:#EBEAE7"/>
</linearGradient>
<polygon style="fill:url(#SVGID_00000006694510178531834740000003611574130043347340_);" points="26.63,1294.27 261.79,1394.1 
	261.79,1487.81 26.63,1377.5 "/>
<path class="st3" d="M366.71,1478.98"/>
<polygon class="st4" points="26.63,1377.5 26.63,1294.27 245.94,1223.59 487.34,1305.36 484.39,1385.42 261.79,1487.81 "/>
<linearGradient id="SVGID_00000072961190893742268840000002496296250509064352_" gradientUnits="userSpaceOnUse" x1="262.64" y1="114.675" x2="487.35" y2="114.675" gradientTransform="matrix(1 0 0 1 0 1282)">
	<stop  offset="0" style="stop-color:#A4A4A1"/>
	<stop  offset="1" style="stop-color:#7E7E8F"/>
</linearGradient>
<path style="fill:url(#SVGID_00000072961190893742268840000002496296250509064352_);stroke:#828380;stroke-width:8;stroke-miterlimit:10;" d="
	M262.64,1484.5c0-1.98,0-89.97,0-89.97l224.71-85.68l-2.95,82.37L262.64,1484.5z"/>
<polyline class="st4" points="219.23,1469.7 219.24,1376.54 448.37,1293.5 "/>
<linearGradient id="SVGID_00000129166378427630014180000002961292146825491370_" gradientUnits="userSpaceOnUse" x1="281.94" y1="112.54" x2="460.94" y2="112.54" gradientTransform="matrix(1 0 0 1 0 1282)">
	<stop  offset="0" style="stop-color:#50A657"/>
	<stop  offset="1" style="stop-color:#C4D9BE"/>
</linearGradient>
<polygon style="fill:url(#SVGID_00000129166378427630014180000002961292146825491370_);stroke:#448B50;stroke-width:4;stroke-miterlimit:10;" points="
	281.94,1413.69 460.94,1344.34 460.2,1370.11 281.94,1444.74 "/>
<linearGradient id="SVGID_00000166654517782822226360000000191086407204856243_" gradientUnits="userSpaceOnUse" x1="176.76" y1="36.98" x2="409.1" y2="36.98" gradientTransform="matrix(1 0 0 1 0 1282)">
	<stop  offset="0" style="stop-color:#DFEFF4"/>
	<stop  offset="1" style="stop-color:#78BFD5"/>
</linearGradient>
<polygon style="fill:url(#SVGID_00000166654517782822226360000000191086407204856243_);stroke:#828380;stroke-width:8;stroke-miterlimit:10;" points="
	176.76,1327.31 320.56,1276.75 409.1,1306.53 261.79,1361.21 "/>
<linearGradient id="SVGID_00000013181044552867961090000001066966293770558106_" gradientUnits="userSpaceOnUse" x1="226.515" y1="-173.565" x2="392.92" y2="-7.16" gradientTransform="matrix(1 0 0 1 0 1282)">
	<stop  offset="0" style="stop-color:#FCFAF6"/>
	<stop  offset="1" style="stop-color:#C9E3F1"/>
</linearGradient>
<linearGradient id="SVGID_00000102546911407459743010000005972460617332633994_" gradientUnits="userSpaceOnUse" x1="213.6061" y1="-148.5219" x2="413.1412" y2="-33.3202" gradientTransform="matrix(1 0 0 1 0 1282)">
	<stop  offset="0" style="stop-color:#A6C7EA"/>
	<stop  offset="1" style="stop-color:#626187"/>
</linearGradient>
<polygon style="fill:url(#SVGID_00000013181044552867961090000001066966293770558106_);stroke:url(#SVGID_00000102546911407459743010000005972460617332633994_);stroke-width:8;stroke-miterlimit:10;" points="
	390.1,1277.66 245.11,1277.66 245.11,1089.84 358.55,1089.84 390.1,1122.54 "/>
<linearGradient id="SVGID_00000161628095819450847560000014837601711419191700_" gradientUnits="userSpaceOnUse" x1="345.9897" y1="-180.7919" x2="392.059" y2="-154.1936" gradientTransform="matrix(1 0 0 1 0 1282)">
	<stop  offset="0" style="stop-color:#A6C7EA"/>
	<stop  offset="1" style="stop-color:#626187"/>
</linearGradient>
<polyline style="fill:#5591CD;stroke:url(#SVGID_00000161628095819450847560000014837601711419191700_);stroke-width:8;stroke-miterlimit:10;" points="
	357.6,1088.03 357.57,1123.77 392.08,1123.77 "/>
<line class="st10" x1="266.35" y1="1171.1" x2="369.63" y2="1171.1"/>
<line class="st10" x1="266.35" y1="1196.21" x2="369.63" y2="1196.21"/>
<line class="st10" x1="266.35" y1="1217.13" x2="369.63" y2="1217.13"/>
<line class="st10" x1="266.35" y1="1243.6" x2="369.63" y2="1243.6"/>
<linearGradient id="SVGID_00000125598162518974046630000011827904721252257190_" gradientUnits="userSpaceOnUse" x1="132.08" y1="955.1251" x2="260.74" y2="955.1251" gradientTransform="matrix(1 0 0 -1 0 2048)">
	<stop  offset="0" style="stop-color:#AED2EE"/>
	<stop  offset="1" style="stop-color:#3EB2E6"/>
</linearGradient>
<path style="fill:url(#SVGID_00000125598162518974046630000011827904721252257190_);stroke:#030405;stroke-width:8;stroke-miterlimit:10;" d="
	M260.74,1064.25l-47.29-27.3v17.71l0,0c-44.94,0-81.37,36.43-81.37,81.37c0,4.35,0.35,8.61,1.01,12.77h27.5
	c-0.36-2.68-0.57-5.41-0.57-8.19c0-31.01,23.36-56.54,53.43-60.02v10.96L260.74,1064.25z"/>
<linearGradient id="SVGID_00000069374111702618964270000017585050382773218488_" gradientUnits="userSpaceOnUse" x1="167.09" y1="874.105" x2="295.75" y2="874.105" gradientTransform="matrix(1 0 0 -1 0 2048)">
	<stop  offset="0" style="stop-color:#AED2EE"/>
	<stop  offset="1" style="stop-color:#3EB2E6"/>
</linearGradient>
<path style="fill:url(#SVGID_00000069374111702618964270000017585050382773218488_);stroke:#030405;stroke-width:8;stroke-miterlimit:10;" d="
	M294.74,1117.97h-27.5c0.36,2.68,0.57,5.41,0.57,8.19c0,31.01-23.36,56.54-53.43,60.02v-10.96l-47.29,27.3l47.29,27.3v-17.71l0,0
	c44.94,0,81.37-36.43,81.37-81.37C295.75,1126.4,295.4,1122.14,294.74,1117.97z"/>
<polyline class="st22" points="28.27,1895.59 264.28,2007.64 492.05,1907.17 "/>
<linearGradient id="SVGID_00000125572607237607657740000006982647453595958432_" gradientUnits="userSpaceOnUse" x1="259.33" y1="450.91" x2="259.33" y2="625.17" gradientTransform="matrix(1 0 0 1 0 1282)">
	<stop  offset="0" style="stop-color:#959595"/>
	<stop  offset="1" style="stop-color:#EBEBEB"/>
</linearGradient>
<polygon style="fill:url(#SVGID_00000125572607237607657740000006982647453595958432_);" points="29.68,1807.49 248.42,1732.91 
	488.98,1817.99 264.28,1907.17 "/>
<linearGradient id="SVGID_00000162327962936016458080000004769926474802445480_" gradientUnits="userSpaceOnUse" x1="145.85" y1="524.9" x2="145.85" y2="718.4399" gradientTransform="matrix(1 0 0 1 0 1282)">
	<stop  offset="0" style="stop-color:#959595"/>
	<stop  offset="1" style="stop-color:#EBEBEB"/>
</linearGradient>
<polygon style="fill:url(#SVGID_00000162327962936016458080000004769926474802445480_);" points="28.27,1806.9 263.43,1906.73 
	263.43,2000.44 28.27,1890.13 "/>
<path class="st25" d="M369.35,1991.61"/>
<polygon class="st26" points="28.27,1890.13 28.27,1806.9 247.58,1736.22 488.98,1817.99 486.03,1898.05 263.43,2000.44 "/>
<linearGradient id="SVGID_00000053517302453954831230000013669045464062829727_" gradientUnits="userSpaceOnUse" x1="264.28" y1="627.305" x2="488.99" y2="627.305" gradientTransform="matrix(1 0 0 1 0 1282)">
	<stop  offset="0" style="stop-color:#9A9A9A"/>
	<stop  offset="1" style="stop-color:#6A6A6A"/>
</linearGradient>
<path style="fill:url(#SVGID_00000053517302453954831230000013669045464062829727_);stroke:#646464;stroke-width:8;stroke-miterlimit:10;" d="
	M264.28,1997.13c0-1.98,0-89.97,0-89.97l224.71-85.68l-2.95,82.37L264.28,1997.13z"/>
<polyline class="st26" points="220.87,1982.33 220.88,1889.17 450.01,1806.13 "/>
<linearGradient id="SVGID_00000001656060358948950330000005001230568360433083_" gradientUnits="userSpaceOnUse" x1="283.58" y1="625.17" x2="462.58" y2="625.17" gradientTransform="matrix(1 0 0 1 0 1282)">
	<stop  offset="0" style="stop-color:#A6A6A6"/>
	<stop  offset="1" style="stop-color:#D9D9D9"/>
</linearGradient>
<polygon style="fill:url(#SVGID_00000001656060358948950330000005001230568360433083_);stroke:#787878;stroke-width:4;stroke-miterlimit:10;" points="
	283.58,1926.32 462.58,1856.97 461.84,1882.74 283.58,1957.37 "/>
<linearGradient id="SVGID_00000052823307623105375310000002696323502402311597_" gradientUnits="userSpaceOnUse" x1="178.4" y1="549.61" x2="410.74" y2="549.61" gradientTransform="matrix(1 0 0 1 0 1282)">
	<stop  offset="0" style="stop-color:#F0F0F0"/>
	<stop  offset="1" style="stop-color:#C6C6C6"/>
</linearGradient>
<polygon style="fill:url(#SVGID_00000052823307623105375310000002696323502402311597_);stroke:#646464;stroke-width:8;stroke-miterlimit:10;" points="
	178.4,1839.94 322.2,1789.38 410.74,1819.16 263.43,1873.84 "/>
<linearGradient id="SVGID_00000153672710326098368830000014289415384994373794_" gradientUnits="userSpaceOnUse" x1="228.155" y1="339.065" x2="394.56" y2="505.47" gradientTransform="matrix(1 0 0 1 0 1282)">
	<stop  offset="0" style="stop-color:#FAFAFA"/>
	<stop  offset="1" style="stop-color:#E6E6E6"/>
</linearGradient>
<linearGradient id="SVGID_00000031175630555319865030000017440105336193579197_" gradientUnits="userSpaceOnUse" x1="215.2461" y1="364.1082" x2="414.7812" y2="479.3098" gradientTransform="matrix(1 0 0 1 0 1282)">
	<stop  offset="0" style="stop-color:#CCCCCC"/>
	<stop  offset="1" style="stop-color:#4F4F4F"/>
</linearGradient>
<polygon style="fill:url(#SVGID_00000153672710326098368830000014289415384994373794_);stroke:url(#SVGID_00000031175630555319865030000017440105336193579197_);stroke-width:8;stroke-miterlimit:10;" points="
	391.74,1790.29 246.75,1790.29 246.75,1602.47 360.19,1602.47 391.74,1635.17 "/>
<linearGradient id="SVGID_00000134956074570219854860000006200530292379113121_" gradientUnits="userSpaceOnUse" x1="347.6297" y1="331.8381" x2="393.6991" y2="358.4363" gradientTransform="matrix(1 0 0 1 0 1282)">
	<stop  offset="0" style="stop-color:#CCCCCC"/>
	<stop  offset="1" style="stop-color:#4F4F4F"/>
</linearGradient>
<polyline style="fill:#979797;stroke:url(#SVGID_00000134956074570219854860000006200530292379113121_);stroke-width:8;stroke-miterlimit:10;" points="
	359.24,1600.66 359.21,1636.4 393.72,1636.4 "/>
<line class="st32" x1="267.99" y1="1683.73" x2="371.27" y2="1683.73"/>
<line class="st32" x1="267.99" y1="1708.84" x2="371.27" y2="1708.84"/>
<line class="st32" x1="267.99" y1="1729.76" x2="371.27" y2="1729.76"/>
<line class="st32" x1="267.99" y1="1756.23" x2="371.27" y2="1756.23"/>
<path class="st33" d="M262.38,1576.88l-47.29-27.3v17.71l0,0c-44.94,0-81.37,36.43-81.37,81.37c0,4.35,0.35,8.61,1.01,12.77h27.5
	c-0.36-2.68-0.57-5.41-0.57-8.19c0-31.01,23.36-56.54,53.43-60.02v10.96L262.38,1576.88z"/>
<path class="st33" d="M296.38,1630.6h-27.5c0.36,2.68,0.57,5.41,0.57,8.19c0,31.01-23.36,56.54-53.43,60.02v-10.96l-47.29,27.3
	l47.29,27.3v-17.71l0,0c44.94,0,81.37-36.43,81.37-81.37C297.39,1639.03,297.04,1634.76,296.38,1630.6z"/>
<polyline class="st0" points="36.63,883.59 272.64,995.64 500.41,895.17 "/>
<linearGradient id="SVGID_00000115487469888905793210000018167576130231492011_" gradientUnits="userSpaceOnUse" x1="267.69" y1="-561.09" x2="267.69" y2="-386.83" gradientTransform="matrix(1 0 0 1 0 1282)">
	<stop  offset="0" style="stop-color:#8F8FBC"/>
	<stop  offset="1" style="stop-color:#EBEAE7"/>
</linearGradient>
<polygon style="fill:url(#SVGID_00000115487469888905793210000018167576130231492011_);" points="38.04,795.49 256.78,720.91 
	497.34,805.99 272.64,895.17 "/>
<linearGradient id="SVGID_00000072257186863601739070000016209899207250709175_" gradientUnits="userSpaceOnUse" x1="154.21" y1="-487.1" x2="154.21" y2="-293.56" gradientTransform="matrix(1 0 0 1 0 1282)">
	<stop  offset="0" style="stop-color:#8F8FBC"/>
	<stop  offset="1" style="stop-color:#EBEAE7"/>
</linearGradient>
<polygon style="fill:url(#SVGID_00000072257186863601739070000016209899207250709175_);" points="36.63,794.9 271.79,894.73 
	271.79,988.44 36.63,878.13 "/>
<path class="st3" d="M366.71,969.61"/>
<polygon class="st4" points="36.63,878.13 36.63,794.9 255.94,724.22 497.34,805.99 494.39,886.05 271.79,988.44 "/>
<linearGradient id="SVGID_00000165935550618055160790000013199263885172999862_" gradientUnits="userSpaceOnUse" x1="272.64" y1="-384.695" x2="497.35" y2="-384.695" gradientTransform="matrix(1 0 0 1 0 1282)">
	<stop  offset="0" style="stop-color:#A4A4A1"/>
	<stop  offset="1" style="stop-color:#7E7E8F"/>
</linearGradient>
<path style="fill:url(#SVGID_00000165935550618055160790000013199263885172999862_);stroke:#828380;stroke-width:8;stroke-miterlimit:10;" d="
	M272.64,985.13c0-1.98,0-89.97,0-89.97l224.71-85.68l-2.95,82.37L272.64,985.13z"/>
<polyline class="st4" points="229.23,970.33 229.24,877.17 458.37,794.13 "/>
<linearGradient id="SVGID_00000043446546582391769750000017673277627905967769_" gradientUnits="userSpaceOnUse" x1="291.94" y1="-386.83" x2="470.94" y2="-386.83" gradientTransform="matrix(1 0 0 1 0 1282)">
	<stop  offset="0" style="stop-color:#50A657"/>
	<stop  offset="1" style="stop-color:#C4D9BE"/>
</linearGradient>
<polygon style="fill:url(#SVGID_00000043446546582391769750000017673277627905967769_);stroke:#448B50;stroke-width:4;stroke-miterlimit:10;" points="
	291.94,914.32 470.94,844.97 470.2,870.74 291.94,945.37 "/>
<linearGradient id="SVGID_00000072253054610173028880000016985903459529802118_" gradientUnits="userSpaceOnUse" x1="186.76" y1="-462.39" x2="419.1" y2="-462.39" gradientTransform="matrix(1 0 0 1 0 1282)">
	<stop  offset="0" style="stop-color:#DFEFF4"/>
	<stop  offset="1" style="stop-color:#78BFD5"/>
</linearGradient>
<polygon style="fill:url(#SVGID_00000072253054610173028880000016985903459529802118_);stroke:#828380;stroke-width:8;stroke-miterlimit:10;" points="
	186.76,827.94 330.56,777.38 419.1,807.16 271.79,861.84 "/>
<linearGradient id="SVGID_00000128471903832388664550000008211170254391205786_" gradientUnits="userSpaceOnUse" x1="236.515" y1="-672.9351" x2="402.92" y2="-506.53" gradientTransform="matrix(1 0 0 1 0 1282)">
	<stop  offset="0" style="stop-color:#FCFAF6"/>
	<stop  offset="1" style="stop-color:#C9E3F1"/>
</linearGradient>
<linearGradient id="SVGID_00000082327463404195928390000009325472345079986311_" gradientUnits="userSpaceOnUse" x1="223.6061" y1="-647.8918" x2="423.1411" y2="-532.6902" gradientTransform="matrix(1 0 0 1 0 1282)">
	<stop  offset="0" style="stop-color:#A6C7EA"/>
	<stop  offset="1" style="stop-color:#626187"/>
</linearGradient>
<polygon style="fill:url(#SVGID_00000128471903832388664550000008211170254391205786_);stroke:url(#SVGID_00000082327463404195928390000009325472345079986311_);stroke-width:8;stroke-miterlimit:10;" points="
	400.1,778.29 255.11,778.29 255.11,590.47 368.55,590.47 400.1,623.17 "/>
<linearGradient id="SVGID_00000002361209156628110980000015096823858382439323_" gradientUnits="userSpaceOnUse" x1="355.9897" y1="-680.1619" x2="402.0591" y2="-653.5638" gradientTransform="matrix(1 0 0 1 0 1282)">
	<stop  offset="0" style="stop-color:#A6C7EA"/>
	<stop  offset="1" style="stop-color:#626187"/>
</linearGradient>
<polyline style="fill:#5591CD;stroke:url(#SVGID_00000002361209156628110980000015096823858382439323_);stroke-width:8;stroke-miterlimit:10;" points="
	367.6,588.66 367.57,624.4 402.08,624.4 "/>
<line class="st10" x1="276.35" y1="671.73" x2="379.63" y2="671.73"/>
<line class="st10" x1="276.35" y1="696.84" x2="379.63" y2="696.84"/>
<line class="st10" x1="276.35" y1="717.76" x2="379.63" y2="717.76"/>
<line class="st10" x1="276.35" y1="744.23" x2="379.63" y2="744.23"/>
<linearGradient id="SVGID_00000044144433964579801300000004785496003894729633_" gradientUnits="userSpaceOnUse" x1="142.08" y1="1454.495" x2="270.74" y2="1454.495" gradientTransform="matrix(1 0 0 -1 0 2048)">
	<stop  offset="0" style="stop-color:#FFDD0D"/>
	<stop  offset="1" style="stop-color:#F8A921"/>
</linearGradient>
<path style="fill:url(#SVGID_00000044144433964579801300000004785496003894729633_);stroke:#030405;stroke-width:8;stroke-miterlimit:10;" d="
	M270.74,564.88l-47.29-27.3v17.71l0,0c-44.94,0-81.37,36.43-81.37,81.37c0,4.35,0.35,8.61,1.01,12.77h27.5
	c-0.36-2.68-0.57-5.41-0.57-8.19c0-31.01,23.36-56.54,53.43-60.02v10.96L270.74,564.88z"/>
<linearGradient id="SVGID_00000076599715273862749090000011096917937231068808_" gradientUnits="userSpaceOnUse" x1="177.09" y1="1373.4751" x2="305.75" y2="1373.4751" gradientTransform="matrix(1 0 0 -1 0 2048)">
	<stop  offset="0" style="stop-color:#FFDD0D"/>
	<stop  offset="1" style="stop-color:#F8A921"/>
</linearGradient>
<path style="fill:url(#SVGID_00000076599715273862749090000011096917937231068808_);stroke:#030405;stroke-width:8;stroke-miterlimit:10;" d="
	M304.74,618.6h-27.5c0.36,2.68,0.57,5.41,0.57,8.19c0,31.01-23.36,56.54-53.43,60.02v-10.96l-47.29,27.3l47.29,27.3v-17.71l0,0
	c44.94,0,81.37-36.43,81.37-81.37C305.75,627.03,305.4,622.77,304.74,618.6z"/>
</svg>
