<?xml version="1.0" encoding="utf-8"?>
<!-- Generator: Adobe Illustrator 27.0.1, SVG Export Plug-In . SVG Version: 6.00 Build 0)  -->
<svg version="1.1" id="Calque_1" xmlns="http://www.w3.org/2000/svg" xmlns:xlink="http://www.w3.org/1999/xlink" x="0px" y="0px"
	 viewBox="0 0 512 2048" style="enable-background:new 0 0 512 2048;" xml:space="preserve">
<style type="text/css">
	.st0{opacity:0.5;fill:none;stroke:#A1A09F;stroke-width:8;stroke-miterlimit:10;enable-background:new    ;}
	.st1{fill:url(#SVGID_1_);}
	.st2{fill:url(#SVGID_00000052096409338426866280000008748286413681772211_);}
	.st3{fill:none;stroke:#020203;stroke-miterlimit:10;}
	.st4{fill:none;stroke:#828380;stroke-width:8;stroke-miterlimit:10;}
	.st5{fill:url(#SVGID_00000070835173098203817820000011270848538480117401_);stroke:#828380;stroke-width:8;stroke-miterlimit:10;}
	.st6{fill:url(#SVGID_00000099655155365877483890000000432752465444300965_);stroke:#448B50;stroke-width:4;stroke-miterlimit:10;}
	.st7{fill:url(#SVGID_00000146471293640277037990000007848960139076585877_);stroke:#828380;stroke-width:8;stroke-miterlimit:10;}
	
		.st8{fill:url(#SVGID_00000039824564187447028090000010091089169394859946_);stroke:url(#SVGID_00000005228123212165036830000016719743169055767221_);stroke-width:8;stroke-miterlimit:10;}
	.st9{fill:#5591CD;stroke:url(#SVGID_00000034075735728753077640000010369935847147012764_);stroke-width:8;stroke-miterlimit:10;}
	.st10{fill:none;stroke:#9EC9ED;stroke-width:8;stroke-miterlimit:10;}
	.st11{fill:url(#SVGID_00000179612914713266614490000007779066817954038660_);stroke:#030405;stroke-width:8;stroke-miterlimit:10;}
	.st12{fill:url(#SVGID_00000154410067246294546940000008254757374874620802_);stroke:#030405;stroke-width:8;stroke-miterlimit:10;}
	.st13{fill:url(#SVGID_00000021827922556592310520000008832728890995880342_);}
	.st14{fill:url(#SVGID_00000042713130847217534660000010685589019390818218_);}
	.st15{fill:url(#SVGID_00000029726573606646154820000007040943067555910787_);stroke:#828380;stroke-width:8;stroke-miterlimit:10;}
	.st16{fill:url(#SVGID_00000182496067924910646580000013767092565963342511_);stroke:#448B50;stroke-width:4;stroke-miterlimit:10;}
	.st17{fill:url(#SVGID_00000154408530810883121490000004774393206346857625_);stroke:#828380;stroke-width:8;stroke-miterlimit:10;}
	
		.st18{fill:url(#SVGID_00000067947396366793070340000003180534123267780275_);stroke:url(#SVGID_00000084518170249365846090000006397362171722992533_);stroke-width:8;stroke-miterlimit:10;}
	.st19{fill:#5591CD;stroke:url(#SVGID_00000090286169857660237050000012853997651672023681_);stroke-width:8;stroke-miterlimit:10;}
	.st20{fill:url(#SVGID_00000098937206283148292390000005841523813815599282_);stroke:#030405;stroke-width:8;stroke-miterlimit:10;}
	.st21{fill:url(#SVGID_00000019680371805729889370000005645756278505301166_);stroke:#030405;stroke-width:8;stroke-miterlimit:10;}
	.st22{opacity:0.5;fill:none;stroke:#949494;stroke-width:8;stroke-miterlimit:10;enable-background:new    ;}
	.st23{fill:url(#SVGID_00000134247757942576951100000006280914513874789015_);}
	.st24{fill:url(#SVGID_00000067919525133191201330000010774892633316796345_);}
	.st25{fill:none;stroke:#000000;stroke-miterlimit:10;}
	.st26{fill:none;stroke:#646464;stroke-width:8;stroke-miterlimit:10;}
	.st27{fill:url(#SVGID_00000106116008293524581680000012593265374985009339_);stroke:#646464;stroke-width:8;stroke-miterlimit:10;}
	.st28{fill:url(#SVGID_00000039103871713780681050000015941707520713708438_);stroke:#787878;stroke-width:4;stroke-miterlimit:10;}
	.st29{fill:url(#SVGID_00000069385726386551935220000006604352706654803370_);stroke:#646464;stroke-width:8;stroke-miterlimit:10;}
	
		.st30{fill:url(#SVGID_00000126320593777602889000000015471161252642340796_);stroke:url(#SVGID_00000075151959557247394960000010276436809933298071_);stroke-width:8;stroke-miterlimit:10;}
	.st31{fill:#979797;stroke:url(#SVGID_00000056396088894595328740000003559315795077941649_);stroke-width:8;stroke-miterlimit:10;}
	.st32{fill:none;stroke:#CFCFCF;stroke-width:8;stroke-miterlimit:10;}
	.st33{fill:#747474;stroke:#000000;stroke-width:4;stroke-miterlimit:10;}
	.st34{fill:url(#SVGID_00000113344629707588215770000010254128267143562886_);}
	.st35{fill:url(#SVGID_00000182516737923629424790000000736819015929178531_);}
	.st36{fill:url(#SVGID_00000039817995237108530470000015390379232470706834_);stroke:#828380;stroke-width:8;stroke-miterlimit:10;}
	.st37{fill:url(#SVGID_00000149348860835118887550000016242797891944319123_);stroke:#448B50;stroke-width:4;stroke-miterlimit:10;}
	.st38{fill:url(#SVGID_00000093893244211147113460000005688473136258073519_);stroke:#828380;stroke-width:8;stroke-miterlimit:10;}
	
		.st39{fill:url(#SVGID_00000041986114384533518220000015600968583639852180_);stroke:url(#SVGID_00000025428668549537559800000000302572381612987281_);stroke-width:8;stroke-miterlimit:10;}
	.st40{fill:#5591CD;stroke:url(#SVGID_00000023983034711919659770000001924842138839448767_);stroke-width:8;stroke-miterlimit:10;}
	.st41{fill:url(#SVGID_00000023961493832585087100000002583498274531049643_);stroke:#030405;stroke-width:8;stroke-miterlimit:10;}
	.st42{fill:url(#SVGID_00000087386504037292919300000002690048619099941006_);stroke:#030405;stroke-width:8;stroke-miterlimit:10;}
</style>
<polyline class="st0" points="26.63,360.96 262.64,473.01 490.41,372.55 "/>
<linearGradient id="SVGID_1_" gradientUnits="userSpaceOnUse" x1="257.69" y1="1851.715" x2="257.69" y2="1677.455" gradientTransform="matrix(1 0 0 -1 0 2050)">
	<stop  offset="0" style="stop-color:#8F8FBC"/>
	<stop  offset="1" style="stop-color:#EBEAE7"/>
</linearGradient>
<polygon class="st1" points="28.04,272.87 246.78,198.29 487.34,283.37 262.64,372.55 "/>
<linearGradient id="SVGID_00000038408210278073513190000017549460408667033729_" gradientUnits="userSpaceOnUse" x1="144.21" y1="1777.725" x2="144.21" y2="1584.1851" gradientTransform="matrix(1 0 0 -1 0 2050)">
	<stop  offset="0" style="stop-color:#8F8FBC"/>
	<stop  offset="1" style="stop-color:#EBEAE7"/>
</linearGradient>
<polygon style="fill:url(#SVGID_00000038408210278073513190000017549460408667033729_);" points="26.63,272.27 261.79,372.11 
	261.79,465.81 26.63,355.5 "/>
<path class="st3" d="M366.71,456.99"/>
<polygon class="st4" points="26.63,355.5 26.63,272.27 245.94,201.6 487.34,283.37 484.39,363.43 261.79,465.81 "/>
<linearGradient id="SVGID_00000080177628576710688200000000352608058395348102_" gradientUnits="userSpaceOnUse" x1="262.64" y1="1675.3201" x2="487.35" y2="1675.3201" gradientTransform="matrix(1 0 0 -1 0 2050)">
	<stop  offset="0" style="stop-color:#A4A4A1"/>
	<stop  offset="1" style="stop-color:#7E7E8F"/>
</linearGradient>
<path style="fill:url(#SVGID_00000080177628576710688200000000352608058395348102_);stroke:#828380;stroke-width:8;stroke-miterlimit:10;" d="
	M262.64,462.5c0-1.98,0-89.97,0-89.97l224.71-85.68l-2.95,82.37L262.64,462.5z"/>
<polyline class="st4" points="219.23,447.7 219.24,354.55 448.37,271.5 "/>
<linearGradient id="SVGID_00000026844858025550063090000009658526829972469641_" gradientUnits="userSpaceOnUse" x1="281.94" y1="1677.455" x2="460.94" y2="1677.455" gradientTransform="matrix(1 0 0 -1 0 2050)">
	<stop  offset="0" style="stop-color:#50A657"/>
	<stop  offset="1" style="stop-color:#C4D9BE"/>
</linearGradient>
<polygon style="fill:url(#SVGID_00000026844858025550063090000009658526829972469641_);stroke:#448B50;stroke-width:4;stroke-miterlimit:10;" points="
	281.94,391.69 460.94,322.35 460.2,348.12 281.94,422.74 "/>
<linearGradient id="SVGID_00000124123785264409768980000004594436188314541966_" gradientUnits="userSpaceOnUse" x1="176.76" y1="1753.015" x2="409.1" y2="1753.015" gradientTransform="matrix(1 0 0 -1 0 2050)">
	<stop  offset="0" style="stop-color:#DFEFF4"/>
	<stop  offset="1" style="stop-color:#78BFD5"/>
</linearGradient>
<polygon style="fill:url(#SVGID_00000124123785264409768980000004594436188314541966_);stroke:#828380;stroke-width:8;stroke-miterlimit:10;" points="
	176.76,305.31 320.56,254.75 409.1,284.54 261.79,339.21 "/>
<linearGradient id="SVGID_00000141440403521552938230000018278859001411119746_" gradientUnits="userSpaceOnUse" x1="226.5155" y1="1963.5649" x2="392.9205" y2="1797.16" gradientTransform="matrix(1 0 0 -1 0 2050)">
	<stop  offset="0" style="stop-color:#FCFAF6"/>
	<stop  offset="1" style="stop-color:#C9E3F1"/>
</linearGradient>
<linearGradient id="SVGID_00000066516672550116006840000009167937690438684344_" gradientUnits="userSpaceOnUse" x1="213.6066" y1="1938.5219" x2="413.1416" y2="1823.3202" gradientTransform="matrix(1 0 0 -1 0 2050)">
	<stop  offset="0" style="stop-color:#A6C7EA"/>
	<stop  offset="1" style="stop-color:#626187"/>
</linearGradient>
<polygon style="fill:url(#SVGID_00000141440403521552938230000018278859001411119746_);stroke:url(#SVGID_00000066516672550116006840000009167937690438684344_);stroke-width:8;stroke-miterlimit:10;" points="
	390.1,255.66 245.11,255.66 245.11,67.84 358.55,67.84 390.1,100.54 "/>
<linearGradient id="SVGID_00000018224389502642391160000017031260599363509924_" gradientUnits="userSpaceOnUse" x1="345.9902" y1="1970.7919" x2="392.0596" y2="1944.1937" gradientTransform="matrix(1 0 0 -1 0 2050)">
	<stop  offset="0" style="stop-color:#A6C7EA"/>
	<stop  offset="1" style="stop-color:#626187"/>
</linearGradient>
<polyline style="fill:#5591CD;stroke:url(#SVGID_00000018224389502642391160000017031260599363509924_);stroke-width:8;stroke-miterlimit:10;" points="
	357.6,66.03 357.57,101.77 392.08,101.77 "/>
<line class="st10" x1="266.35" y1="149.1" x2="369.63" y2="149.1"/>
<line class="st10" x1="266.35" y1="174.21" x2="369.63" y2="174.21"/>
<line class="st10" x1="266.35" y1="195.13" x2="369.63" y2="195.13"/>
<line class="st10" x1="266.35" y1="221.6" x2="369.63" y2="221.6"/>
<linearGradient id="SVGID_00000163052974638511907810000000759580357926826645_" gradientUnits="userSpaceOnUse" x1="132.0826" y1="70.8728" x2="260.7391" y2="70.8728">
	<stop  offset="0" style="stop-color:#BCDAAC"/>
	<stop  offset="1" style="stop-color:#47AD39"/>
</linearGradient>
<path style="fill:url(#SVGID_00000163052974638511907810000000759580357926826645_);stroke:#030405;stroke-width:8;stroke-miterlimit:10;" d="
	M260.74,42.25l-47.29-27.3v17.71h0c-44.94,0-81.37,36.43-81.37,81.37c0,4.35,0.35,8.61,1.01,12.77h27.5
	c-0.36-2.68-0.57-5.41-0.57-8.19c0-31.01,23.36-56.54,53.43-60.02v10.96L260.74,42.25z"/>
<linearGradient id="SVGID_00000146466419991819823930000010599129196371802253_" gradientUnits="userSpaceOnUse" x1="167.0935" y1="151.9003" x2="295.7501" y2="151.9003">
	<stop  offset="0" style="stop-color:#BCDAAC"/>
	<stop  offset="1" style="stop-color:#47AD39"/>
</linearGradient>
<path style="fill:url(#SVGID_00000146466419991819823930000010599129196371802253_);stroke:#030405;stroke-width:8;stroke-miterlimit:10;" d="
	M294.74,95.97h-27.5c0.36,2.68,0.57,5.41,0.57,8.19c0,31.01-23.36,56.54-53.43,60.02v-10.96l-47.29,27.3l47.29,27.3v-17.71h0
	c44.94,0,81.37-36.43,81.37-81.37C295.75,104.4,295.4,100.14,294.74,95.97z"/>
<polyline class="st0" points="26.63,1382.96 262.64,1495.01 490.41,1394.54 "/>
<linearGradient id="SVGID_00000038391575565836778010000006648461379798470550_" gradientUnits="userSpaceOnUse" x1="257.69" y1="829.7162" x2="257.69" y2="655.4562" gradientTransform="matrix(1 0 0 -1 0 2050)">
	<stop  offset="0" style="stop-color:#8F8FBC"/>
	<stop  offset="1" style="stop-color:#EBEAE7"/>
</linearGradient>
<polygon style="fill:url(#SVGID_00000038391575565836778010000006648461379798470550_);" points="28.04,1294.86 246.78,1220.28 
	487.34,1305.36 262.64,1394.54 "/>
<linearGradient id="SVGID_00000023264929316572982060000004233777943358654596_" gradientUnits="userSpaceOnUse" x1="144.21" y1="755.7262" x2="144.21" y2="562.1862" gradientTransform="matrix(1 0 0 -1 0 2050)">
	<stop  offset="0" style="stop-color:#8F8FBC"/>
	<stop  offset="1" style="stop-color:#EBEAE7"/>
</linearGradient>
<polygon style="fill:url(#SVGID_00000023264929316572982060000004233777943358654596_);" points="26.63,1294.27 261.79,1394.1 
	261.79,1487.81 26.63,1377.5 "/>
<path class="st3" d="M366.71,1478.98"/>
<polygon class="st4" points="26.63,1377.5 26.63,1294.27 245.94,1223.59 487.34,1305.36 484.39,1385.42 261.79,1487.81 "/>
<linearGradient id="SVGID_00000153698229246871164940000013325260627716750225_" gradientUnits="userSpaceOnUse" x1="262.64" y1="653.3212" x2="487.35" y2="653.3212" gradientTransform="matrix(1 0 0 -1 0 2050)">
	<stop  offset="0" style="stop-color:#A4A4A1"/>
	<stop  offset="1" style="stop-color:#7E7E8F"/>
</linearGradient>
<path style="fill:url(#SVGID_00000153698229246871164940000013325260627716750225_);stroke:#828380;stroke-width:8;stroke-miterlimit:10;" d="
	M262.64,1484.5c0-1.98,0-89.97,0-89.97l224.71-85.68l-2.95,82.37L262.64,1484.5z"/>
<polyline class="st4" points="219.23,1469.7 219.24,1376.54 448.37,1293.5 "/>
<linearGradient id="SVGID_00000067222145608849404530000001590121147784567965_" gradientUnits="userSpaceOnUse" x1="281.94" y1="655.4562" x2="460.94" y2="655.4562" gradientTransform="matrix(1 0 0 -1 0 2050)">
	<stop  offset="0" style="stop-color:#50A657"/>
	<stop  offset="1" style="stop-color:#C4D9BE"/>
</linearGradient>
<polygon style="fill:url(#SVGID_00000067222145608849404530000001590121147784567965_);stroke:#448B50;stroke-width:4;stroke-miterlimit:10;" points="
	281.94,1413.69 460.94,1344.34 460.2,1370.11 281.94,1444.74 "/>
<linearGradient id="SVGID_00000078045720331995461780000009877508694949987200_" gradientUnits="userSpaceOnUse" x1="176.76" y1="731.0162" x2="409.1" y2="731.0162" gradientTransform="matrix(1 0 0 -1 0 2050)">
	<stop  offset="0" style="stop-color:#DFEFF4"/>
	<stop  offset="1" style="stop-color:#78BFD5"/>
</linearGradient>
<polygon style="fill:url(#SVGID_00000078045720331995461780000009877508694949987200_);stroke:#828380;stroke-width:8;stroke-miterlimit:10;" points="
	176.76,1327.31 320.56,1276.75 409.1,1306.53 261.79,1361.21 "/>
<linearGradient id="SVGID_00000158019821994356936610000012176123758022219690_" gradientUnits="userSpaceOnUse" x1="226.5155" y1="941.5662" x2="392.9205" y2="775.1612" gradientTransform="matrix(1 0 0 -1 0 2050)">
	<stop  offset="0" style="stop-color:#FCFAF6"/>
	<stop  offset="1" style="stop-color:#C9E3F1"/>
</linearGradient>
<linearGradient id="SVGID_00000082337209172381971380000013027191331294424451_" gradientUnits="userSpaceOnUse" x1="213.6066" y1="916.523" x2="413.1416" y2="801.3214" gradientTransform="matrix(1 0 0 -1 0 2050)">
	<stop  offset="0" style="stop-color:#A6C7EA"/>
	<stop  offset="1" style="stop-color:#626187"/>
</linearGradient>
<polygon style="fill:url(#SVGID_00000158019821994356936610000012176123758022219690_);stroke:url(#SVGID_00000082337209172381971380000013027191331294424451_);stroke-width:8;stroke-miterlimit:10;" points="
	390.1,1277.66 245.11,1277.66 245.11,1089.84 358.55,1089.84 390.1,1122.54 "/>
<linearGradient id="SVGID_00000068655732191816167560000000338206315577504954_" gradientUnits="userSpaceOnUse" x1="345.9902" y1="948.7932" x2="392.0596" y2="922.1949" gradientTransform="matrix(1 0 0 -1 0 2050)">
	<stop  offset="0" style="stop-color:#A6C7EA"/>
	<stop  offset="1" style="stop-color:#626187"/>
</linearGradient>
<polyline style="fill:#5591CD;stroke:url(#SVGID_00000068655732191816167560000000338206315577504954_);stroke-width:8;stroke-miterlimit:10;" points="
	357.6,1088.03 357.57,1123.77 392.08,1123.77 "/>
<line class="st10" x1="266.35" y1="1171.1" x2="369.63" y2="1171.1"/>
<line class="st10" x1="266.35" y1="1196.21" x2="369.63" y2="1196.21"/>
<line class="st10" x1="266.35" y1="1217.13" x2="369.63" y2="1217.13"/>
<line class="st10" x1="266.35" y1="1243.6" x2="369.63" y2="1243.6"/>
<linearGradient id="SVGID_00000039132450975023646850000011039763677545722037_" gradientUnits="userSpaceOnUse" x1="132.0826" y1="1092.8716" x2="260.7391" y2="1092.8716">
	<stop  offset="0" style="stop-color:#AED2EE"/>
	<stop  offset="1" style="stop-color:#3EB2E6"/>
</linearGradient>
<path style="fill:url(#SVGID_00000039132450975023646850000011039763677545722037_);stroke:#030405;stroke-width:8;stroke-miterlimit:10;" d="
	M260.74,1064.25l-47.29-27.3v17.71h0c-44.94,0-81.37,36.43-81.37,81.37c0,4.35,0.35,8.61,1.01,12.77h27.5
	c-0.36-2.68-0.57-5.41-0.57-8.19c0-31.01,23.36-56.54,53.43-60.02v10.96L260.74,1064.25z"/>
<linearGradient id="SVGID_00000034771495393296721780000014196086725675572652_" gradientUnits="userSpaceOnUse" x1="167.0935" y1="1173.899" x2="295.7501" y2="1173.899">
	<stop  offset="0" style="stop-color:#AED2EE"/>
	<stop  offset="1" style="stop-color:#3EB2E6"/>
</linearGradient>
<path style="fill:url(#SVGID_00000034771495393296721780000014196086725675572652_);stroke:#030405;stroke-width:8;stroke-miterlimit:10;" d="
	M294.74,1117.97h-27.5c0.36,2.68,0.57,5.41,0.57,8.19c0,31.01-23.36,56.54-53.43,60.02v-10.96l-47.29,27.3l47.29,27.3v-17.71h0
	c44.94,0,81.37-36.43,81.37-81.37C295.75,1126.4,295.4,1122.14,294.74,1117.97z"/>
<polyline class="st22" points="28.27,1895.59 264.28,2007.64 492.05,1907.17 "/>
<linearGradient id="SVGID_00000152952237892493293170000015128286735159759021_" gradientUnits="userSpaceOnUse" x1="259.33" y1="317.0869" x2="259.33" y2="142.8269" gradientTransform="matrix(1 0 0 -1 0 2050)">
	<stop  offset="0" style="stop-color:#959595"/>
	<stop  offset="1" style="stop-color:#EBEBEB"/>
</linearGradient>
<polygon style="fill:url(#SVGID_00000152952237892493293170000015128286735159759021_);" points="29.68,1807.49 248.42,1732.91 
	488.98,1817.99 264.28,1907.17 "/>
<linearGradient id="SVGID_00000165200596493829159320000010303660482927943060_" gradientUnits="userSpaceOnUse" x1="145.85" y1="243.0969" x2="145.85" y2="49.5569" gradientTransform="matrix(1 0 0 -1 0 2050)">
	<stop  offset="0" style="stop-color:#959595"/>
	<stop  offset="1" style="stop-color:#EBEBEB"/>
</linearGradient>
<polygon style="fill:url(#SVGID_00000165200596493829159320000010303660482927943060_);" points="28.27,1806.9 263.43,1906.73 
	263.43,2000.44 28.27,1890.13 "/>
<path class="st25" d="M369.35,1991.61"/>
<polygon class="st26" points="28.27,1890.13 28.27,1806.9 247.58,1736.22 488.98,1817.99 486.03,1898.05 263.43,2000.44 "/>
<linearGradient id="SVGID_00000101102057073234446590000002660074478041637783_" gradientUnits="userSpaceOnUse" x1="264.28" y1="140.6919" x2="488.9901" y2="140.6919" gradientTransform="matrix(1 0 0 -1 0 2050)">
	<stop  offset="0" style="stop-color:#9A9A9A"/>
	<stop  offset="1" style="stop-color:#6A6A6A"/>
</linearGradient>
<path style="fill:url(#SVGID_00000101102057073234446590000002660074478041637783_);stroke:#646464;stroke-width:8;stroke-miterlimit:10;" d="
	M264.28,1997.13c0-1.98,0-89.97,0-89.97l224.71-85.68l-2.95,82.37L264.28,1997.13z"/>
<polyline class="st26" points="220.87,1982.33 220.88,1889.17 450.01,1806.13 "/>
<linearGradient id="SVGID_00000071541942682205849300000007746942072453011088_" gradientUnits="userSpaceOnUse" x1="283.58" y1="142.8269" x2="462.58" y2="142.8269" gradientTransform="matrix(1 0 0 -1 0 2050)">
	<stop  offset="0" style="stop-color:#A6A6A6"/>
	<stop  offset="1" style="stop-color:#D9D9D9"/>
</linearGradient>
<polygon style="fill:url(#SVGID_00000071541942682205849300000007746942072453011088_);stroke:#787878;stroke-width:4;stroke-miterlimit:10;" points="
	283.58,1926.32 462.58,1856.97 461.84,1882.74 283.58,1957.37 "/>
<linearGradient id="SVGID_00000065755195036475342710000013344373370566105260_" gradientUnits="userSpaceOnUse" x1="178.4" y1="218.3869" x2="410.74" y2="218.3869" gradientTransform="matrix(1 0 0 -1 0 2050)">
	<stop  offset="0" style="stop-color:#F0F0F0"/>
	<stop  offset="1" style="stop-color:#C6C6C6"/>
</linearGradient>
<polygon style="fill:url(#SVGID_00000065755195036475342710000013344373370566105260_);stroke:#646464;stroke-width:8;stroke-miterlimit:10;" points="
	178.4,1839.94 322.2,1789.38 410.74,1819.16 263.43,1873.84 "/>
<linearGradient id="SVGID_00000026142527767911168900000014743486056009417116_" gradientUnits="userSpaceOnUse" x1="228.1555" y1="428.9369" x2="394.5605" y2="262.5319" gradientTransform="matrix(1 0 0 -1 0 2050)">
	<stop  offset="0" style="stop-color:#FAFAFA"/>
	<stop  offset="1" style="stop-color:#E6E6E6"/>
</linearGradient>
<linearGradient id="SVGID_00000056419596029870346590000015713500560142048685_" gradientUnits="userSpaceOnUse" x1="215.2466" y1="403.8937" x2="414.7816" y2="288.6921" gradientTransform="matrix(1 0 0 -1 0 2050)">
	<stop  offset="0" style="stop-color:#CCCCCC"/>
	<stop  offset="1" style="stop-color:#4F4F4F"/>
</linearGradient>
<polygon style="fill:url(#SVGID_00000026142527767911168900000014743486056009417116_);stroke:url(#SVGID_00000056419596029870346590000015713500560142048685_);stroke-width:8;stroke-miterlimit:10;" points="
	391.74,1790.29 246.75,1790.29 246.75,1602.47 360.19,1602.47 391.74,1635.17 "/>
<linearGradient id="SVGID_00000150089417199477483680000006213359028685396650_" gradientUnits="userSpaceOnUse" x1="347.6302" y1="436.1638" x2="393.6996" y2="409.5656" gradientTransform="matrix(1 0 0 -1 0 2050)">
	<stop  offset="0" style="stop-color:#CCCCCC"/>
	<stop  offset="1" style="stop-color:#4F4F4F"/>
</linearGradient>
<polyline style="fill:#979797;stroke:url(#SVGID_00000150089417199477483680000006213359028685396650_);stroke-width:8;stroke-miterlimit:10;" points="
	359.24,1600.66 359.21,1636.4 393.72,1636.4 "/>
<line class="st32" x1="267.99" y1="1683.73" x2="371.27" y2="1683.73"/>
<line class="st32" x1="267.99" y1="1708.84" x2="371.27" y2="1708.84"/>
<line class="st32" x1="267.99" y1="1729.76" x2="371.27" y2="1729.76"/>
<line class="st32" x1="267.99" y1="1756.23" x2="371.27" y2="1756.23"/>
<path class="st33" d="M262.38,1576.88l-47.29-27.3v17.71h0c-44.94,0-81.37,36.43-81.37,81.37c0,4.35,0.35,8.61,1.01,12.77h27.5
	c-0.36-2.68-0.57-5.41-0.57-8.19c0-31.01,23.36-56.54,53.43-60.02v10.96L262.38,1576.88z"/>
<path class="st33" d="M296.38,1630.6h-27.5c0.36,2.68,0.57,5.41,0.57,8.19c0,31.01-23.36,56.54-53.43,60.02v-10.96l-47.29,27.3
	l47.29,27.3v-17.71h0c44.94,0,81.37-36.43,81.37-81.37C297.39,1639.03,297.04,1634.76,296.38,1630.6z"/>
<polyline class="st0" points="26.63,873.59 262.64,985.64 490.41,885.17 "/>
<linearGradient id="SVGID_00000007424532528430075460000016251957170230913408_" gradientUnits="userSpaceOnUse" x1="257.69" y1="1339.0857" x2="257.69" y2="1164.8257" gradientTransform="matrix(1 0 0 -1 0 2050)">
	<stop  offset="0" style="stop-color:#8F8FBC"/>
	<stop  offset="1" style="stop-color:#EBEAE7"/>
</linearGradient>
<polygon style="fill:url(#SVGID_00000007424532528430075460000016251957170230913408_);" points="28.04,785.49 246.78,710.91 
	487.34,795.99 262.64,885.17 "/>
<linearGradient id="SVGID_00000081633502909611483190000000230182278458782097_" gradientUnits="userSpaceOnUse" x1="144.21" y1="1265.0957" x2="144.21" y2="1071.5557" gradientTransform="matrix(1 0 0 -1 0 2050)">
	<stop  offset="0" style="stop-color:#8F8FBC"/>
	<stop  offset="1" style="stop-color:#EBEAE7"/>
</linearGradient>
<polygon style="fill:url(#SVGID_00000081633502909611483190000000230182278458782097_);" points="26.63,784.9 261.79,884.73 
	261.79,978.44 26.63,868.13 "/>
<path class="st3" d="M366.71,969.61"/>
<polygon class="st4" points="26.63,868.13 26.63,784.9 245.94,714.22 487.34,795.99 484.39,876.05 261.79,978.44 "/>
<linearGradient id="SVGID_00000155863651610321018130000016610242866122040485_" gradientUnits="userSpaceOnUse" x1="262.64" y1="1162.6907" x2="487.35" y2="1162.6907" gradientTransform="matrix(1 0 0 -1 0 2050)">
	<stop  offset="0" style="stop-color:#A4A4A1"/>
	<stop  offset="1" style="stop-color:#7E7E8F"/>
</linearGradient>
<path style="fill:url(#SVGID_00000155863651610321018130000016610242866122040485_);stroke:#828380;stroke-width:8;stroke-miterlimit:10;" d="
	M262.64,975.13c0-1.98,0-89.97,0-89.97l224.71-85.68l-2.95,82.37L262.64,975.13z"/>
<polyline class="st4" points="219.23,960.33 219.24,867.17 448.37,784.13 "/>
<linearGradient id="SVGID_00000033355963804123663900000012119808360297469324_" gradientUnits="userSpaceOnUse" x1="281.94" y1="1164.8257" x2="460.94" y2="1164.8257" gradientTransform="matrix(1 0 0 -1 0 2050)">
	<stop  offset="0" style="stop-color:#50A657"/>
	<stop  offset="1" style="stop-color:#C4D9BE"/>
</linearGradient>
<polygon style="fill:url(#SVGID_00000033355963804123663900000012119808360297469324_);stroke:#448B50;stroke-width:4;stroke-miterlimit:10;" points="
	281.94,904.32 460.94,834.97 460.2,860.74 281.94,935.37 "/>
<linearGradient id="SVGID_00000164510038712337687660000006045452200490623409_" gradientUnits="userSpaceOnUse" x1="176.76" y1="1240.3857" x2="409.1" y2="1240.3857" gradientTransform="matrix(1 0 0 -1 0 2050)">
	<stop  offset="0" style="stop-color:#DFEFF4"/>
	<stop  offset="1" style="stop-color:#78BFD5"/>
</linearGradient>
<polygon style="fill:url(#SVGID_00000164510038712337687660000006045452200490623409_);stroke:#828380;stroke-width:8;stroke-miterlimit:10;" points="
	176.76,817.94 320.56,767.38 409.1,797.16 261.79,851.84 "/>
<linearGradient id="SVGID_00000042706506243235625010000012686053517115165594_" gradientUnits="userSpaceOnUse" x1="226.5155" y1="1450.9357" x2="392.9205" y2="1284.5306" gradientTransform="matrix(1 0 0 -1 0 2050)">
	<stop  offset="0" style="stop-color:#FCFAF6"/>
	<stop  offset="1" style="stop-color:#C9E3F1"/>
</linearGradient>
<linearGradient id="SVGID_00000103946877658980440230000004299574167766235301_" gradientUnits="userSpaceOnUse" x1="213.6066" y1="1425.8925" x2="413.1416" y2="1310.6909" gradientTransform="matrix(1 0 0 -1 0 2050)">
	<stop  offset="0" style="stop-color:#A6C7EA"/>
	<stop  offset="1" style="stop-color:#626187"/>
</linearGradient>
<polygon style="fill:url(#SVGID_00000042706506243235625010000012686053517115165594_);stroke:url(#SVGID_00000103946877658980440230000004299574167766235301_);stroke-width:8;stroke-miterlimit:10;" points="
	390.1,768.29 245.11,768.29 245.11,580.47 358.55,580.47 390.1,613.17 "/>
<linearGradient id="SVGID_00000105400761464897133310000006734198288161101497_" gradientUnits="userSpaceOnUse" x1="345.9902" y1="1458.1626" x2="392.0596" y2="1431.5645" gradientTransform="matrix(1 0 0 -1 0 2050)">
	<stop  offset="0" style="stop-color:#A6C7EA"/>
	<stop  offset="1" style="stop-color:#626187"/>
</linearGradient>
<polyline style="fill:#5591CD;stroke:url(#SVGID_00000105400761464897133310000006734198288161101497_);stroke-width:8;stroke-miterlimit:10;" points="
	357.6,578.66 357.57,614.4 392.08,614.4 "/>
<line class="st10" x1="266.35" y1="661.73" x2="369.63" y2="661.73"/>
<line class="st10" x1="266.35" y1="686.84" x2="369.63" y2="686.84"/>
<line class="st10" x1="266.35" y1="707.76" x2="369.63" y2="707.76"/>
<line class="st10" x1="266.35" y1="734.23" x2="369.63" y2="734.23"/>
<linearGradient id="SVGID_00000012454581098510859710000003020752681297396140_" gradientUnits="userSpaceOnUse" x1="132.0826" y1="583.5021" x2="260.7391" y2="583.5021">
	<stop  offset="0" style="stop-color:#FFDD0D"/>
	<stop  offset="1" style="stop-color:#F8A921"/>
</linearGradient>
<path style="fill:url(#SVGID_00000012454581098510859710000003020752681297396140_);stroke:#030405;stroke-width:8;stroke-miterlimit:10;" d="
	M260.74,554.88l-47.29-27.3v17.71h0c-44.94,0-81.37,36.43-81.37,81.37c0,4.35,0.35,8.61,1.01,12.77h27.5
	c-0.36-2.68-0.57-5.41-0.57-8.19c0-31.01,23.36-56.54,53.43-60.02v10.96L260.74,554.88z"/>
<linearGradient id="SVGID_00000003089967977107631770000008343651052905025691_" gradientUnits="userSpaceOnUse" x1="167.0935" y1="664.5296" x2="295.7501" y2="664.5296">
	<stop  offset="0" style="stop-color:#FFDD0D"/>
	<stop  offset="1" style="stop-color:#F8A921"/>
</linearGradient>
<path style="fill:url(#SVGID_00000003089967977107631770000008343651052905025691_);stroke:#030405;stroke-width:8;stroke-miterlimit:10;" d="
	M294.74,608.6h-27.5c0.36,2.68,0.57,5.41,0.57,8.19c0,31.01-23.36,56.54-53.43,60.02v-10.96l-47.29,27.3l47.29,27.3v-17.71h0
	c44.94,0,81.37-36.43,81.37-81.37C295.75,617.03,295.4,612.77,294.74,608.6z"/>
</svg>
