<?xml version="1.0" encoding="utf-8"?>
<!-- Generator: Adobe Illustrator 27.0.1, SVG Export Plug-In . SVG Version: 6.00 Build 0)  -->
<svg version="1.1" id="Calque_1" xmlns="http://www.w3.org/2000/svg" xmlns:xlink="http://www.w3.org/1999/xlink" x="0px" y="0px"
	 viewBox="0 0 512 2048" style="enable-background:new 0 0 512 2048;" xml:space="preserve">
<style type="text/css">
	.st0{fill:#B47634;stroke:#000000;stroke-miterlimit:10;}
	.st1{opacity:0.5;fill:#A0A09F;enable-background:new    ;}
	.st2{fill:#FFFFFF;}
	.st3{fill:url(#SVGID_1_);}
	.st4{fill:url(#SVGID_00000059280049628951515070000016293381874191357594_);}
	.st5{fill:url(#SVGID_00000101063929404982372740000003319706011749055642_);stroke:#020203;stroke-width:8;stroke-miterlimit:10;}
	.st6{fill:url(#SVGID_00000093178342051880815090000008522690376496651926_);}
	.st7{fill:url(#SVGID_00000054259508885413375580000009978348709844317599_);}
	.st8{fill:url(#SVGID_00000019645099123369136020000004472198317816492986_);stroke:#020203;stroke-width:8;stroke-miterlimit:10;}
	.st9{fill:url(#SVGID_00000140696734706425139050000011571475472057188486_);}
	.st10{fill:url(#SVGID_00000104669724562326691950000005673884709047951761_);}
	.st11{fill:url(#SVGID_00000052792037176015610060000004338958352868981380_);stroke:#020203;stroke-width:8;stroke-miterlimit:10;}
	.st12{fill:#4D4D4D;stroke:#000000;stroke-miterlimit:10;}
	.st13{opacity:0.5;fill:#949494;enable-background:new    ;}
	.st14{fill:url(#SVGID_00000099634637429526139920000011208112395224091287_);}
	.st15{fill:url(#SVGID_00000007400103118658432440000012312247514528806297_);}
	.st16{fill:url(#SVGID_00000058578170634886359090000010278508868336408209_);stroke:#000000;stroke-width:8;stroke-miterlimit:10;}
</style>
<path class="st0" d="M34.81,136.13l183.69,54.74L351.82,71.74c3.26-2.91,8.38-2.02,10.46,1.83l127.97,237.12
	c1.57,2.91,0.81,6.52-1.79,8.55l-157,122.31c0,0-15.74,12.88-32.7,12.88s-34.68-9.91-34.68-9.91l-146.03-36.75
	c-2.23-0.56-4.03-2.22-4.76-4.41l-86.82-258.6C24.73,139.57,29.56,134.57,34.81,136.13z"/>
<path class="st1" d="M500.33,321.78L372.36,84.66c-1.25-2.32-3.62-3.56-6.02-3.54l123.91,229.6c1.57,2.91,0.81,6.52-1.79,8.55
	L331.47,441.59c0,0-15.74,12.88-32.7,12.88c-16.95,0-34.68-9.91-34.68-9.91l-142.67-35.9l1.95,5.8c0.73,2.18,2.53,3.84,4.76,4.41
	l146.03,36.75c0,0,17.72,9.91,34.68,9.91c16.95,0,32.7-12.88,32.7-12.88l156.99-122.32C501.14,328.29,501.9,324.68,500.33,321.78z"
	/>
<path class="st2" d="M51,165.64L130.32,393c49.59,4.17,99.49,19.42,149.61,42.61c13.77-10.41,28.33-12.41,43.6-6.94
	c40.66-44.19,89.92-83.46,145.77-118.98L358.21,100.71l-17.83-6.94c-44.7,37.3-83.51,76.36-113.94,117.91
	c-46.78-24.33-95.69-43.28-147.63-54.5L51,165.64z"/>
<linearGradient id="SVGID_1_" gradientUnits="userSpaceOnUse" x1="78.8" y1="1757.385" x2="299.43" y2="1757.385" gradientTransform="matrix(1 0 0 -1 0 2048)">
	<stop  offset="0" style="stop-color:#FFFFFF"/>
	<stop  offset="1" style="stop-color:#C9E5F1"/>
</linearGradient>
<path class="st3" d="M78.8,157.18l78.22,212.88c50.31,6.56,94.27,24.28,142.41,53.99l-72.99-212.37
	C181.61,187.72,132.51,169.4,78.8,157.18z"/>
<linearGradient id="SVGID_00000125586514842893399610000001989099218839831718_" gradientUnits="userSpaceOnUse" x1="226.43" y1="1789.095" x2="448.48" y2="1789.095" gradientTransform="matrix(1 0 0 -1 0 2048)">
	<stop  offset="0" style="stop-color:#FFFFFF"/>
	<stop  offset="1" style="stop-color:#C9E5F1"/>
</linearGradient>
<path style="fill:url(#SVGID_00000125586514842893399610000001989099218839831718_);" d="M226.43,211.68
	c31.52-42.26,69.69-81.48,113.94-117.91l108.11,209.71c-44.82,24.16-93.76,67.12-149.07,120.56l-72.22-210.5"/>
<linearGradient id="SVGID_00000135691303130204140710000003062213842486267815_" gradientUnits="userSpaceOnUse" x1="77.6624" y1="1773.9093" x2="77.6624" y2="1569.8801" gradientTransform="matrix(-1 0 0 -1 200.6542 2048)">
	<stop  offset="0" style="stop-color:#BCDAAB"/>
	<stop  offset="1" style="stop-color:#3FAB35"/>
</linearGradient>
<path style="fill:url(#SVGID_00000135691303130204140710000003062213842486267815_);stroke:#020203;stroke-width:8;stroke-miterlimit:10;" d="
	M163.44,278.74L43.23,358.98c-4.4,2.94-4.85,9.24-0.91,12.77l110.92,99.33c11.23,10.06,28.46,9.24,38.69-1.83l4.37-4.74
	c10.82-11.71,9.5-30.12-2.88-40.16l-61.9-50.24c-4.39-3.56-3.87-10.41,1-13.27l60.2-35.33c13.51-7.93,17.72-25.5,9.28-38.69l0,0
	C193.68,273.8,176.29,270.16,163.44,278.74z"/>
<path class="st0" d="M44.81,658.13l183.69,54.74l133.32-119.14c3.26-2.91,8.38-2.02,10.46,1.83l127.97,237.12
	c1.57,2.91,0.81,6.52-1.79,8.55l-157,122.32c0,0-15.74,12.88-32.7,12.88s-34.68-9.91-34.68-9.91l-146.03-36.75
	c-2.23-0.56-4.03-2.22-4.76-4.41l-86.82-258.6C34.73,661.57,39.56,656.57,44.81,658.13z"/>
<path class="st1" d="M510.33,843.78L382.36,606.66c-1.25-2.32-3.62-3.56-6.02-3.54l123.91,229.6c1.57,2.91,0.81,6.52-1.79,8.55
	L341.47,963.59c0,0-15.74,12.88-32.7,12.88c-16.95,0-34.68-9.91-34.68-9.91l-142.67-35.9l1.95,5.8c0.73,2.18,2.53,3.84,4.76,4.41
	l146.03,36.75c0,0,17.72,9.91,34.68,9.91c16.95,0,32.7-12.88,32.7-12.88l156.99-122.32C511.14,850.29,511.9,846.68,510.33,843.78z"
	/>
<path class="st2" d="M61,687.64L140.32,915c49.59,4.17,99.49,19.42,149.61,42.61c13.77-10.41,28.33-12.41,43.6-6.94
	c40.66-44.19,89.92-83.46,145.77-118.98L368.21,622.71l-17.83-6.94c-44.7,37.3-83.51,76.36-113.94,117.91
	c-46.78-24.33-95.69-43.28-147.63-54.5L61,687.64z"/>
<linearGradient id="SVGID_00000127034147913990887980000017846807118413155977_" gradientUnits="userSpaceOnUse" x1="88.8" y1="1235.385" x2="309.43" y2="1235.385" gradientTransform="matrix(1 0 0 -1 0 2048)">
	<stop  offset="0" style="stop-color:#FFFFFF"/>
	<stop  offset="1" style="stop-color:#C9E5F1"/>
</linearGradient>
<path style="fill:url(#SVGID_00000127034147913990887980000017846807118413155977_);" d="M88.8,679.18l78.22,212.88
	c50.31,6.56,94.27,24.28,142.41,53.99l-72.99-212.37C191.61,709.72,142.51,691.4,88.8,679.18z"/>
<linearGradient id="SVGID_00000163057305942290447580000014919218649210899645_" gradientUnits="userSpaceOnUse" x1="236.43" y1="1267.095" x2="458.48" y2="1267.095" gradientTransform="matrix(1 0 0 -1 0 2048)">
	<stop  offset="0" style="stop-color:#FFFFFF"/>
	<stop  offset="1" style="stop-color:#C9E5F1"/>
</linearGradient>
<path style="fill:url(#SVGID_00000163057305942290447580000014919218649210899645_);" d="M236.43,733.68
	c31.52-42.26,69.69-81.48,113.94-117.91l108.11,209.71c-44.82,24.16-93.76,67.12-149.07,120.56l-72.22-210.5"/>
<linearGradient id="SVGID_00000147188444231455358760000004105786620687278251_" gradientUnits="userSpaceOnUse" x1="67.6624" y1="1251.9093" x2="67.6624" y2="1047.8801" gradientTransform="matrix(-1 0 0 -1 200.6542 2048)">
	<stop  offset="0" style="stop-color:#FFDB01"/>
	<stop  offset="1" style="stop-color:#F5A51D"/>
</linearGradient>
<path style="fill:url(#SVGID_00000147188444231455358760000004105786620687278251_);stroke:#020203;stroke-width:8;stroke-miterlimit:10;" d="
	M173.44,800.74L53.23,880.98c-4.4,2.94-4.85,9.24-0.91,12.77l110.92,99.33c11.23,10.06,28.46,9.24,38.69-1.83l4.37-4.74
	c10.82-11.71,9.5-30.12-2.88-40.16l-61.9-50.24c-4.39-3.56-3.87-10.41,1-13.27l60.2-35.33c13.51-7.93,17.72-25.5,9.28-38.69l0,0
	C203.68,795.8,186.29,792.16,173.44,800.74z"/>
<path class="st0" d="M34.81,1160.13l183.69,54.74l133.32-119.14c3.26-2.91,8.38-2.02,10.46,1.83l127.97,237.12
	c1.57,2.91,0.81,6.52-1.79,8.55l-156.99,122.32c0,0-15.74,12.88-32.7,12.88s-34.68-9.91-34.68-9.91l-146.03-36.75
	c-2.23-0.56-4.03-2.22-4.76-4.41l-86.82-258.6C24.73,1163.57,29.56,1158.57,34.81,1160.13z"/>
<path class="st1" d="M500.33,1345.78l-127.97-237.12c-1.25-2.32-3.62-3.56-6.02-3.54l123.91,229.6c1.57,2.91,0.81,6.52-1.79,8.55
	l-156.99,122.32c0,0-15.74,12.88-32.7,12.88c-16.95,0-34.68-9.91-34.68-9.91l-142.67-35.9l1.95,5.8c0.73,2.18,2.53,3.84,4.76,4.41
	l146.03,36.75c0,0,17.72,9.91,34.68,9.91c16.95,0,32.7-12.88,32.7-12.88l156.99-122.32C501.14,1352.29,501.9,1348.68,500.33,1345.78
	z"/>
<path class="st2" d="M51,1189.64L130.32,1417c49.59,4.17,99.49,19.42,149.61,42.61c13.77-10.41,28.33-12.41,43.6-6.94
	c40.66-44.19,89.92-83.46,145.77-118.98L358.21,1124.7l-17.83-6.94c-44.7,37.3-83.51,76.36-113.94,117.91
	c-46.78-24.33-95.69-43.28-147.63-54.5L51,1189.64z"/>
<linearGradient id="SVGID_00000159429429306465980420000015685698898919594887_" gradientUnits="userSpaceOnUse" x1="78.8" y1="733.3849" x2="299.43" y2="733.3849" gradientTransform="matrix(1 0 0 -1 0 2048)">
	<stop  offset="0" style="stop-color:#FFFFFF"/>
	<stop  offset="1" style="stop-color:#C9E5F1"/>
</linearGradient>
<path style="fill:url(#SVGID_00000159429429306465980420000015685698898919594887_);" d="M78.8,1181.18l78.22,212.88
	c50.31,6.56,94.27,24.28,142.41,53.99l-72.99-212.37C181.61,1211.72,132.51,1193.4,78.8,1181.18z"/>
<linearGradient id="SVGID_00000167398690875547924150000004176683163504432801_" gradientUnits="userSpaceOnUse" x1="226.43" y1="765.095" x2="448.48" y2="765.095" gradientTransform="matrix(1 0 0 -1 0 2048)">
	<stop  offset="0" style="stop-color:#FFFFFF"/>
	<stop  offset="1" style="stop-color:#C9E5F1"/>
</linearGradient>
<path style="fill:url(#SVGID_00000167398690875547924150000004176683163504432801_);" d="M226.43,1235.68
	c31.52-42.26,69.69-81.48,113.94-117.91l108.11,209.71c-44.82,24.16-93.76,67.12-149.07,120.56l-72.22-210.5"/>
<linearGradient id="SVGID_00000083775821697513667910000000113030691293640881_" gradientUnits="userSpaceOnUse" x1="77.6624" y1="749.9092" x2="77.6624" y2="545.8801" gradientTransform="matrix(-1 0 0 -1 200.6542 2048)">
	<stop  offset="0" style="stop-color:#ADD1EE"/>
	<stop  offset="1" style="stop-color:#3AB2E7"/>
</linearGradient>
<path style="fill:url(#SVGID_00000083775821697513667910000000113030691293640881_);stroke:#020203;stroke-width:8;stroke-miterlimit:10;" d="
	M163.44,1302.74l-120.21,80.24c-4.4,2.94-4.85,9.24-0.91,12.77l110.92,99.33c11.23,10.06,28.46,9.24,38.69-1.83l4.37-4.74
	c10.82-11.71,9.5-30.12-2.88-40.16l-61.9-50.24c-4.39-3.56-3.87-10.41,1-13.27l60.2-35.33c13.51-7.93,17.72-25.5,9.28-38.69l0,0
	C193.68,1297.8,176.29,1294.16,163.44,1302.74z"/>
<path class="st12" d="M34.81,1672.13l183.69,54.74l133.32-119.14c3.26-2.91,8.38-2.02,10.46,1.83l127.97,237.12
	c1.57,2.91,0.81,6.52-1.79,8.55l-156.99,122.32c0,0-15.74,12.88-32.7,12.88s-34.68-9.91-34.68-9.91l-146.03-36.75
	c-2.23-0.56-4.03-2.22-4.76-4.41l-86.82-258.6C24.73,1675.57,29.56,1670.57,34.81,1672.13z"/>
<path class="st13" d="M500.33,1857.78l-127.97-237.12c-1.25-2.32-3.62-3.56-6.02-3.54l123.91,229.6c1.57,2.91,0.81,6.52-1.79,8.55
	l-156.99,122.32c0,0-15.74,12.88-32.7,12.88c-16.95,0-34.68-9.91-34.68-9.91l-142.67-35.9l1.95,5.8c0.73,2.18,2.53,3.84,4.76,4.41
	l146.03,36.75c0,0,17.72,9.91,34.68,9.91c16.95,0,32.7-12.88,32.7-12.88l156.99-122.32C501.14,1864.29,501.9,1860.68,500.33,1857.78
	z"/>
<path class="st2" d="M51,1701.64L130.32,1929c49.59,4.17,99.49,19.42,149.61,42.61c13.77-10.41,28.33-12.41,43.6-6.94
	c40.66-44.19,89.92-83.46,145.77-118.98L358.21,1636.7l-17.83-6.94c-44.7,37.3-83.51,76.36-113.94,117.91
	c-46.78-24.33-95.69-43.28-147.63-54.5L51,1701.64z"/>
<linearGradient id="SVGID_00000054224501787591682830000016826118071974564246_" gradientUnits="userSpaceOnUse" x1="78.8" y1="221.3849" x2="299.43" y2="221.3849" gradientTransform="matrix(1 0 0 -1 0 2048)">
	<stop  offset="0" style="stop-color:#FFFFFF"/>
	<stop  offset="1" style="stop-color:#E7E7E7"/>
</linearGradient>
<path style="fill:url(#SVGID_00000054224501787591682830000016826118071974564246_);" d="M78.8,1693.18l78.22,212.88
	c50.31,6.56,94.27,24.28,142.41,53.99l-72.99-212.37C181.61,1723.72,132.51,1705.4,78.8,1693.18z"/>
<linearGradient id="SVGID_00000163066253317018825370000012621612313824481945_" gradientUnits="userSpaceOnUse" x1="226.43" y1="253.095" x2="448.48" y2="253.095" gradientTransform="matrix(1 0 0 -1 0 2048)">
	<stop  offset="0" style="stop-color:#FFFFFF"/>
	<stop  offset="1" style="stop-color:#E7E7E7"/>
</linearGradient>
<path style="fill:url(#SVGID_00000163066253317018825370000012621612313824481945_);" d="M226.43,1747.68
	c31.52-42.26,69.69-81.48,113.94-117.91l108.11,209.71c-44.82,24.16-93.76,67.12-149.07,120.56l-72.22-210.5"/>
<linearGradient id="SVGID_00000059310876965428505550000001508125627642337162_" gradientUnits="userSpaceOnUse" x1="77.0641" y1="237.9097" x2="77.0641" y2="33.8801" gradientTransform="matrix(-1 0 0 -1 200.6542 2048)">
	<stop  offset="0" style="stop-color:#DADADA"/>
	<stop  offset="1" style="stop-color:#AAAAAA"/>
</linearGradient>
<path style="fill:url(#SVGID_00000059310876965428505550000001508125627642337162_);stroke:#000000;stroke-width:8;stroke-miterlimit:10;" d="
	M163.44,1814.74l-118.19,78.9c-5.42,3.62-5.97,11.38-1.12,15.73l109.12,97.71c11.23,10.06,28.46,9.24,38.69-1.83l4.37-4.74
	c10.82-11.71,9.5-30.12-2.88-40.16l-59.8-48.54c-5.41-4.39-4.77-12.82,1.24-16.35l57.86-33.96c13.51-7.93,17.72-25.5,9.28-38.69l0,0
	C193.68,1809.8,176.29,1806.16,163.44,1814.74z"/>
</svg>
