<?xml version="1.0" encoding="utf-8"?>
<!-- Generator: Adobe Illustrator 27.0.1, SVG Export Plug-In . SVG Version: 6.00 Build 0)  -->
<svg version="1.1" id="Calque_1" xmlns="http://www.w3.org/2000/svg" xmlns:xlink="http://www.w3.org/1999/xlink" x="0px" y="0px"
	 viewBox="0 0 512 2048" style="enable-background:new 0 0 512 2048;" xml:space="preserve">
<style type="text/css">
	.st0{fill:#F2F2F2;stroke:#514F51;stroke-width:8;stroke-miterlimit:10;}
	.st1{fill:url(#SVGID_1_);stroke:#8788A0;stroke-width:4;stroke-miterlimit:10;}
	.st2{fill:none;stroke:#514F51;stroke-width:4;stroke-miterlimit:10;}
	.st3{fill:#87BE3D;}
	.st4{fill:none;stroke:#514F51;stroke-width:2;stroke-miterlimit:10;}
	.st5{stroke:#514F51;stroke-width:2;stroke-miterlimit:10;}
	.st6{fill:url(#SVGID_00000132768320280189402380000014115185244887483326_);}
	.st7{fill:#474747;}
	.st8{fill:url(#SVGID_00000044137196241390633000000008983232528997178019_);stroke:#8788A0;stroke-width:4;stroke-miterlimit:10;}
	.st9{fill:url(#SVGID_00000134208659853849551090000002199785119425181359_);}
	.st10{fill:url(#SVGID_00000152976259428660686880000014728714942211340192_);stroke:#8788A0;stroke-width:4;stroke-miterlimit:10;}
	.st11{fill:url(#SVGID_00000147198341644059779150000001316429691426768821_);}
	.st12{fill:#F3F3F3;stroke:#000000;stroke-width:8;stroke-miterlimit:10;}
	.st13{fill:url(#SVGID_00000121281209374542255250000017701329186700193181_);stroke:#7F7F7F;stroke-width:4;stroke-miterlimit:10;}
	.st14{fill:none;stroke:#000000;stroke-width:4;stroke-miterlimit:10;}
	.st15{fill:#BCBCBC;}
	.st16{fill:none;stroke:#000000;stroke-width:2;stroke-miterlimit:10;}
	.st17{stroke:#000000;stroke-width:2;stroke-miterlimit:10;}
	.st18{fill:url(#SVGID_00000096038508396613335110000017868102908429467563_);}
</style>
<polygon class="st0" points="220.16,396.39 76.82,327.7 76.82,399.7 220.16,468.39 432.85,391.11 432.85,319.11 "/>
<path class="st0" d="M76.82,334.32v-56.15c9.77-20.18,27.67-31.02,51.52-35.01v-26.42l186.63-35.16l1.19,25.48
	c51.91,5.04,88.53,32.02,116.7,71.12v40.29l-212.7,77.28L76.82,334.32z"/>
<linearGradient id="SVGID_1_" gradientUnits="userSpaceOnUse" x1="101.6" y1="1905.34" x2="327.51" y2="1905.34" gradientTransform="matrix(1 0 0 -1 0 2048)">
	<stop  offset="0" style="stop-color:#FFFFFF"/>
	<stop  offset="1" style="stop-color:#C2DDF5"/>
</linearGradient>
<path class="st1" d="M101.6,47.21h158.53c30.43,48.32,51.64,105.19,67.38,167.12l-149.28,23.78
	C166.46,167.03,142.05,102.78,101.6,47.21z"/>
<path class="st2" d="M126.36,243.13c50.33,15.78,84.75,36.48,102.72,72.92l187.29-54.94"/>
<polygon class="st3" points="422.56,355.95 406.27,361.46 406.27,331.95 422.56,326.45 "/>
<polygon class="st0" points="256,428.01 256,455.37 286.65,471.17 425.81,415.68 425.58,393.75 393.22,377.81 "/>
<polyline class="st4" points="261.77,430.65 287.53,446.17 287.53,466.32 "/>
<path class="st4" d="M81.11,278.39c39.12-18.97,88.32,12.75,140.7,60.44l-2.97,123.85"/>
<line class="st4" x1="226.1" y1="338.5" x2="422.56" y2="280.38"/>
<polyline class="st5" points="160.27,230.94 193.36,247.42 343.07,221.2 329.37,215.75 182.5,239.75 "/>
<linearGradient id="SVGID_00000173137291084614753940000015873790682944276886_" gradientUnits="userSpaceOnUse" x1="345.66" y1="1657.0343" x2="345.66" y2="1587.9039" gradientTransform="matrix(1 0 0 -1 0 2048)">
	<stop  offset="0" style="stop-color:#FFFFFF"/>
	<stop  offset="1" style="stop-color:#000000"/>
</linearGradient>
<polygon style="fill:url(#SVGID_00000173137291084614753940000015873790682944276886_);" points="278.94,428.01 299.75,438.91 
	299.75,452.45 412.38,407.53 389.26,388.71 "/>
<polygon class="st7" points="278.94,428.01 389.26,388.71 389.26,400.27 295,436.42 "/>
<polygon class="st0" points="230.16,918.11 86.82,849.41 86.82,921.41 230.16,990.11 442.85,912.82 442.85,840.82 "/>
<path class="st0" d="M86.82,856.03v-56.15c9.77-20.18,27.67-31.02,51.52-35.01v-26.42l186.63-35.16l1.19,25.48
	c51.91,5.04,88.53,32.02,116.7,71.12v40.29l-212.7,77.28L86.82,856.03z"/>
<linearGradient id="SVGID_00000043433145911515384490000004597200915431957134_" gradientUnits="userSpaceOnUse" x1="111.6" y1="1383.63" x2="337.51" y2="1383.63" gradientTransform="matrix(1 0 0 -1 0 2048)">
	<stop  offset="0" style="stop-color:#FFFFFF"/>
	<stop  offset="1" style="stop-color:#F7A51C"/>
</linearGradient>
<path style="fill:url(#SVGID_00000043433145911515384490000004597200915431957134_);stroke:#8788A0;stroke-width:4;stroke-miterlimit:10;" d="
	M111.6,568.92h158.53c30.43,48.32,51.64,105.19,67.38,167.12l-149.28,23.78C176.46,688.74,152.05,624.5,111.6,568.92z"/>
<path class="st2" d="M136.36,764.84c50.33,15.78,84.75,36.48,102.72,72.92l187.29-54.94"/>
<polygon class="st3" points="432.56,877.67 416.27,883.17 416.27,853.67 432.56,848.16 "/>
<polygon class="st0" points="266,949.72 266,977.08 296.65,992.88 435.81,937.39 435.58,915.47 403.22,899.52 "/>
<polyline class="st4" points="271.77,952.36 297.53,967.89 297.53,988.03 "/>
<path class="st4" d="M91.11,800.11c39.12-18.97,88.32,12.75,140.7,60.44l-2.97,123.85"/>
<line class="st4" x1="236.1" y1="860.22" x2="432.56" y2="802.09"/>
<polyline class="st5" points="170.27,752.66 203.36,769.14 353.07,742.92 339.37,737.47 192.5,761.47 "/>
<linearGradient id="SVGID_00000075141972522663891140000004366208753092941739_" gradientUnits="userSpaceOnUse" x1="355.66" y1="1135.3214" x2="355.66" y2="1066.1909" gradientTransform="matrix(1 0 0 -1 0 2048)">
	<stop  offset="0" style="stop-color:#FFFFFF"/>
	<stop  offset="1" style="stop-color:#000000"/>
</linearGradient>
<polygon style="fill:url(#SVGID_00000075141972522663891140000004366208753092941739_);" points="288.94,949.72 309.75,960.62 
	309.75,974.16 422.38,929.24 399.26,910.42 "/>
<polygon class="st7" points="288.94,949.72 399.26,910.42 399.26,921.98 305,958.13 "/>
<polygon class="st0" points="219.99,1419.82 76.65,1351.12 76.65,1423.12 219.99,1491.82 432.69,1414.54 432.69,1342.54 "/>
<path class="st0" d="M76.65,1357.75v-56.15c9.77-20.18,27.67-31.02,51.52-35.01v-26.42L314.81,1205l1.19,25.48
	c51.91,5.04,88.53,32.02,116.7,71.12v40.29L220,1419.17L76.65,1357.75z"/>
<linearGradient id="SVGID_00000124878415661901054940000014001357889934935180_" gradientUnits="userSpaceOnUse" x1="101.43" y1="881.91" x2="327.34" y2="881.91" gradientTransform="matrix(1 0 0 -1 0 2048)">
	<stop  offset="0" style="stop-color:#FFFFFF"/>
	<stop  offset="1" style="stop-color:#3AB2E7"/>
</linearGradient>
<path style="fill:url(#SVGID_00000124878415661901054940000014001357889934935180_);stroke:#8788A0;stroke-width:4;stroke-miterlimit:10;" d="
	M101.43,1070.64h158.53c30.43,48.32,51.64,105.19,67.38,167.12l-149.28,23.78C166.29,1190.45,141.88,1126.21,101.43,1070.64z"/>
<path class="st2" d="M126.19,1266.55c50.33,15.78,84.75,36.48,102.72,72.92l187.29-54.94"/>
<polygon class="st3" points="422.39,1379.38 406.1,1384.88 406.1,1355.38 422.39,1349.88 "/>
<polygon class="st0" points="255.83,1451.43 255.83,1478.8 286.49,1494.59 425.64,1439.1 425.42,1417.18 393.06,1401.23 "/>
<polyline class="st4" points="261.61,1454.08 287.37,1469.6 287.37,1489.75 "/>
<path class="st4" d="M80.94,1301.82c39.12-18.97,88.32,12.75,140.7,60.44l-2.97,123.85"/>
<line class="st4" x1="225.94" y1="1361.93" x2="422.39" y2="1303.8"/>
<polyline class="st5" points="160.1,1254.37 193.19,1270.85 342.9,1244.63 329.2,1239.18 182.34,1263.18 "/>
<linearGradient id="SVGID_00000155841479945980366850000005344880903756022184_" gradientUnits="userSpaceOnUse" x1="345.495" y1="633.6085" x2="345.495" y2="564.4781" gradientTransform="matrix(1 0 0 -1 0 2048)">
	<stop  offset="0" style="stop-color:#FFFFFF"/>
	<stop  offset="1" style="stop-color:#000000"/>
</linearGradient>
<polygon style="fill:url(#SVGID_00000155841479945980366850000005344880903756022184_);" points="278.78,1451.43 299.59,1462.33 
	299.59,1475.88 412.21,1430.96 389.09,1412.13 "/>
<polygon class="st7" points="278.78,1451.43 389.09,1412.13 389.09,1423.69 294.83,1459.84 "/>
<polygon class="st12" points="219.99,1931.53 76.65,1862.84 76.65,1934.84 219.99,2003.53 432.69,1926.25 432.69,1854.25 "/>
<path class="st12" d="M76.65,1869.46v-56.15c9.77-20.18,27.67-31.02,51.52-35.01v-26.42l186.63-35.16l1.19,25.48
	c51.91,5.04,88.53,32.02,116.7,71.12v40.29l-212.7,77.28L76.65,1869.46z"/>
<linearGradient id="SVGID_00000052782510416196684590000010595556715963700399_" gradientUnits="userSpaceOnUse" x1="101.43" y1="370.2" x2="327.34" y2="370.2" gradientTransform="matrix(1 0 0 -1 0 2048)">
	<stop  offset="0" style="stop-color:#FFFFFF"/>
	<stop  offset="1" style="stop-color:#E0E0E0"/>
</linearGradient>
<path style="fill:url(#SVGID_00000052782510416196684590000010595556715963700399_);stroke:#7F7F7F;stroke-width:4;stroke-miterlimit:10;" d="
	M101.43,1582.35h158.53c30.43,48.32,51.64,105.19,67.38,167.12l-149.28,23.78C166.29,1702.17,141.88,1637.92,101.43,1582.35z"/>
<path class="st14" d="M126.19,1778.27c50.33,15.78,84.75,36.48,102.72,72.92l187.29-54.94"/>
<polygon class="st15" points="422.39,1891.09 406.1,1896.6 406.1,1867.09 422.39,1861.59 "/>
<polygon class="st12" points="255.83,1963.15 255.83,1990.51 286.49,2006.3 425.64,1950.82 425.42,1928.89 393.06,1912.95 "/>
<polyline class="st16" points="261.61,1965.79 287.37,1981.31 287.37,2001.46 "/>
<path class="st16" d="M80.94,1813.53c39.12-18.97,88.32,12.75,140.7,60.44l-2.97,123.85"/>
<line class="st16" x1="225.94" y1="1873.64" x2="422.39" y2="1815.51"/>
<polyline class="st17" points="160.1,1766.08 193.19,1782.56 342.9,1756.34 329.2,1750.89 182.34,1774.89 "/>
<linearGradient id="SVGID_00000069366008328758546180000001888599366273610913_" gradientUnits="userSpaceOnUse" x1="345.495" y1="121.8956" x2="345.495" y2="52.7653" gradientTransform="matrix(1 0 0 -1 0 2048)">
	<stop  offset="0" style="stop-color:#FFFFFF"/>
	<stop  offset="1" style="stop-color:#000000"/>
</linearGradient>
<polygon style="fill:url(#SVGID_00000069366008328758546180000001888599366273610913_);" points="278.78,1963.15 299.59,1974.05 
	299.59,1987.59 412.21,1942.67 389.09,1923.85 "/>
<polygon points="278.78,1963.15 389.09,1923.85 389.09,1935.4 294.83,1971.56 "/>
</svg>
