<?xml version="1.0" encoding="utf-8"?>
<!-- Generator: Adobe Illustrator 27.0.1, SVG Export Plug-In . SVG Version: 6.00 Build 0)  -->
<svg version="1.1" id="Calque_1" xmlns="http://www.w3.org/2000/svg" xmlns:xlink="http://www.w3.org/1999/xlink" x="0px" y="0px"
	 viewBox="0 0 512 2048" style="enable-background:new 0 0 512 2048;" xml:space="preserve">
<style type="text/css">
	.st0{fill:#F2F2F2;stroke:#514F51;stroke-width:8;stroke-miterlimit:10;}
	.st1{fill:url(#SVGID_1_);stroke:#8788A0;stroke-width:4;stroke-miterlimit:10;}
	.st2{fill:none;stroke:#514F51;stroke-width:4;stroke-miterlimit:10;}
	.st3{fill:#87BE3D;}
	.st4{fill:none;stroke:#514F51;stroke-width:2;stroke-miterlimit:10;}
	.st5{stroke:#514F51;stroke-width:2;stroke-miterlimit:10;}
	.st6{fill:url(#SVGID_00000102507744657567758900000003811054308113823639_);}
	.st7{fill:#474747;}
	.st8{fill:url(#SVGID_00000096740998954070032240000011688699165924433545_);stroke:#8788A0;stroke-width:4;stroke-miterlimit:10;}
	.st9{fill:url(#SVGID_00000031912704795616137400000011678831309182696064_);}
	.st10{fill:url(#SVGID_00000018228666580405631050000001864303559030974080_);stroke:#8788A0;stroke-width:4;stroke-miterlimit:10;}
	.st11{fill:url(#SVGID_00000088832097460143049580000009952580262457386666_);}
	.st12{fill:#F3F3F3;stroke:#000000;stroke-width:8;stroke-miterlimit:10;}
	.st13{fill:url(#SVGID_00000117640462696284486970000012621069512276491705_);stroke:#7F7F7F;stroke-width:4;stroke-miterlimit:10;}
	.st14{fill:none;stroke:#000000;stroke-width:4;stroke-miterlimit:10;}
	.st15{fill:#BCBCBC;}
	.st16{fill:none;stroke:#000000;stroke-width:2;stroke-miterlimit:10;}
	.st17{stroke:#000000;stroke-width:2;stroke-miterlimit:10;}
	.st18{fill:url(#SVGID_00000074424412267272571630000016154845355431571630_);}
</style>
<polygon class="st0" points="220.16,396.39 76.82,327.7 76.82,399.7 220.16,468.39 432.85,391.11 432.85,319.11 "/>
<path class="st0" d="M76.82,334.32v-56.15c9.77-20.18,27.67-31.02,51.52-35.01v-26.42l186.63-35.16l1.19,25.48
	c51.91,5.04,88.53,32.02,116.7,71.12v40.29l-212.7,77.28L76.82,334.32z"/>
<linearGradient id="SVGID_1_" gradientUnits="userSpaceOnUse" x1="101.5963" y1="142.6606" x2="327.5046" y2="142.6606">
	<stop  offset="0" style="stop-color:#FFFFFF"/>
	<stop  offset="1" style="stop-color:#C2DDF5"/>
</linearGradient>
<path class="st1" d="M101.6,47.21h158.53c30.43,48.32,51.64,105.19,67.38,167.12l-149.28,23.78
	C166.46,167.03,142.05,102.78,101.6,47.21z"/>
<path class="st2" d="M126.36,243.13c50.33,15.78,84.75,36.48,102.72,72.92l187.29-54.94"/>
<polygon class="st3" points="422.56,355.95 406.27,361.46 406.27,331.95 422.56,326.45 "/>
<polygon class="st0" points="256,428.01 256,455.37 286.65,471.17 425.81,415.68 425.58,393.75 393.22,377.81 "/>
<polyline class="st4" points="261.77,430.65 287.53,446.17 287.53,466.32 "/>
<path class="st4" d="M81.11,278.39c39.12-18.97,88.32,12.75,140.7,60.44l-2.97,123.85"/>
<line class="st4" x1="226.1" y1="338.5" x2="422.56" y2="280.38"/>
<polyline class="st5" points="160.27,230.94 193.36,247.42 343.07,221.2 329.37,215.75 182.5,239.75 "/>
<linearGradient id="SVGID_00000127008244125049575770000002988768352862318210_" gradientUnits="userSpaceOnUse" x1="345.6606" y1="390.9657" x2="345.6606" y2="460.0961">
	<stop  offset="0" style="stop-color:#FFFFFF"/>
	<stop  offset="1" style="stop-color:#000000"/>
</linearGradient>
<polygon style="fill:url(#SVGID_00000127008244125049575770000002988768352862318210_);" points="278.94,428.01 299.75,438.91 
	299.75,452.45 412.38,407.53 389.26,388.71 "/>
<polygon class="st7" points="278.94,428.01 389.26,388.71 389.26,400.27 295,436.42 "/>
<polygon class="st0" points="220.16,908.11 76.82,839.41 76.82,911.41 220.16,980.11 432.85,902.82 432.85,830.82 "/>
<path class="st0" d="M76.82,846.03v-56.15c9.77-20.18,27.67-31.02,51.52-35.01v-26.42l186.63-35.16l1.19,25.48
	c51.91,5.04,88.53,32.02,116.7,71.12v40.29l-212.7,77.28L76.82,846.03z"/>
<linearGradient id="SVGID_00000047771563162468316910000002858446036552885679_" gradientUnits="userSpaceOnUse" x1="101.5963" y1="654.3735" x2="327.5046" y2="654.3735">
	<stop  offset="0" style="stop-color:#FFFFFF"/>
	<stop  offset="1" style="stop-color:#F7A51C"/>
</linearGradient>
<path style="fill:url(#SVGID_00000047771563162468316910000002858446036552885679_);stroke:#8788A0;stroke-width:4;stroke-miterlimit:10;" d="
	M101.6,558.92h158.53c30.43,48.32,51.64,105.19,67.38,167.12l-149.28,23.78C166.46,678.74,142.05,614.5,101.6,558.92z"/>
<path class="st2" d="M126.36,754.84c50.33,15.78,84.75,36.48,102.72,72.92l187.29-54.94"/>
<polygon class="st3" points="422.56,867.67 406.27,873.17 406.27,843.67 422.56,838.16 "/>
<polygon class="st0" points="256,939.72 256,967.08 286.65,982.88 425.81,927.39 425.58,905.47 393.22,889.52 "/>
<polyline class="st4" points="261.77,942.36 287.53,957.89 287.53,978.03 "/>
<path class="st4" d="M81.11,790.11c39.12-18.97,88.32,12.75,140.7,60.44l-2.97,123.85"/>
<line class="st4" x1="226.1" y1="850.22" x2="422.56" y2="792.09"/>
<polyline class="st5" points="160.27,742.66 193.36,759.14 343.07,732.92 329.37,727.47 182.5,751.47 "/>
<linearGradient id="SVGID_00000129205104640012727200000001504550105082732990_" gradientUnits="userSpaceOnUse" x1="345.6606" y1="902.6786" x2="345.6606" y2="971.809">
	<stop  offset="0" style="stop-color:#FFFFFF"/>
	<stop  offset="1" style="stop-color:#000000"/>
</linearGradient>
<polygon style="fill:url(#SVGID_00000129205104640012727200000001504550105082732990_);" points="278.94,939.72 299.75,950.62 
	299.75,964.16 412.38,919.24 389.26,900.42 "/>
<polygon class="st7" points="278.94,939.72 389.26,900.42 389.26,911.98 295,948.13 "/>
<polygon class="st0" points="219.99,1419.82 76.65,1351.12 76.65,1423.12 219.99,1491.82 432.69,1414.54 432.69,1342.54 "/>
<path class="st0" d="M76.65,1357.75v-56.15c9.77-20.18,27.67-31.02,51.52-35.01v-26.42L314.81,1205l1.19,25.48
	c51.91,5.04,88.53,32.02,116.7,71.12v40.29l-212.7,77.28L76.65,1357.75z"/>
<linearGradient id="SVGID_00000055666961756110673350000011734391645277007803_" gradientUnits="userSpaceOnUse" x1="101.4312" y1="1166.0864" x2="327.3394" y2="1166.0864">
	<stop  offset="0" style="stop-color:#FFFFFF"/>
	<stop  offset="1" style="stop-color:#3AB2E7"/>
</linearGradient>
<path style="fill:url(#SVGID_00000055666961756110673350000011734391645277007803_);stroke:#8788A0;stroke-width:4;stroke-miterlimit:10;" d="
	M101.43,1070.64h158.53c30.43,48.32,51.64,105.19,67.38,167.12l-149.28,23.78C166.29,1190.45,141.88,1126.21,101.43,1070.64z"/>
<path class="st2" d="M126.19,1266.55c50.33,15.78,84.75,36.48,102.72,72.92l187.29-54.94"/>
<polygon class="st3" points="422.39,1379.38 406.1,1384.88 406.1,1355.38 422.39,1349.88 "/>
<polygon class="st0" points="255.83,1451.43 255.83,1478.8 286.49,1494.59 425.64,1439.1 425.42,1417.18 393.06,1401.23 "/>
<polyline class="st4" points="261.61,1454.08 287.37,1469.6 287.37,1489.75 "/>
<path class="st4" d="M80.94,1301.82c39.12-18.97,88.32,12.75,140.7,60.44l-2.97,123.85"/>
<line class="st4" x1="225.94" y1="1361.93" x2="422.39" y2="1303.8"/>
<polyline class="st5" points="160.1,1254.37 193.19,1270.85 342.9,1244.63 329.2,1239.18 182.34,1263.18 "/>
<linearGradient id="SVGID_00000176001625288850481510000003340748613954053525_" gradientUnits="userSpaceOnUse" x1="345.4954" y1="1414.3915" x2="345.4954" y2="1483.5219">
	<stop  offset="0" style="stop-color:#FFFFFF"/>
	<stop  offset="1" style="stop-color:#000000"/>
</linearGradient>
<polygon style="fill:url(#SVGID_00000176001625288850481510000003340748613954053525_);" points="278.78,1451.43 299.59,1462.33 
	299.59,1475.88 412.21,1430.96 389.09,1412.13 "/>
<polygon class="st7" points="278.78,1451.43 389.09,1412.13 389.09,1423.69 294.83,1459.84 "/>
<polygon class="st12" points="219.99,1931.53 76.65,1862.84 76.65,1934.84 219.99,2003.53 432.69,1926.25 432.69,1854.25 "/>
<path class="st12" d="M76.65,1869.46v-56.15c9.77-20.18,27.67-31.02,51.52-35.01v-26.42l186.63-35.16l1.19,25.48
	c51.91,5.04,88.53,32.02,116.7,71.12v40.29l-212.7,77.28L76.65,1869.46z"/>
<linearGradient id="SVGID_00000148626456389533770820000010259060922676909708_" gradientUnits="userSpaceOnUse" x1="101.4312" y1="1677.7993" x2="327.3394" y2="1677.7993">
	<stop  offset="0" style="stop-color:#FFFFFF"/>
	<stop  offset="1" style="stop-color:#E0E0E0"/>
</linearGradient>
<path style="fill:url(#SVGID_00000148626456389533770820000010259060922676909708_);stroke:#7F7F7F;stroke-width:4;stroke-miterlimit:10;" d="
	M101.43,1582.35h158.53c30.43,48.32,51.64,105.19,67.38,167.12l-149.28,23.78C166.29,1702.17,141.88,1637.92,101.43,1582.35z"/>
<path class="st14" d="M126.19,1778.27c50.33,15.78,84.75,36.48,102.72,72.92l187.29-54.94"/>
<polygon class="st15" points="422.39,1891.09 406.1,1896.6 406.1,1867.09 422.39,1861.59 "/>
<polygon class="st12" points="255.83,1963.15 255.83,1990.51 286.49,2006.3 425.64,1950.82 425.42,1928.89 393.06,1912.95 "/>
<polyline class="st16" points="261.61,1965.79 287.37,1981.31 287.37,2001.46 "/>
<path class="st16" d="M80.94,1813.53c39.12-18.97,88.32,12.75,140.7,60.44l-2.97,123.85"/>
<line class="st16" x1="225.94" y1="1873.64" x2="422.39" y2="1815.51"/>
<polyline class="st17" points="160.1,1766.08 193.19,1782.56 342.9,1756.34 329.2,1750.89 182.34,1774.89 "/>
<linearGradient id="SVGID_00000019675801794984033960000006522239787390520995_" gradientUnits="userSpaceOnUse" x1="345.4954" y1="1926.1044" x2="345.4954" y2="1995.2347">
	<stop  offset="0" style="stop-color:#FFFFFF"/>
	<stop  offset="1" style="stop-color:#000000"/>
</linearGradient>
<polygon style="fill:url(#SVGID_00000019675801794984033960000006522239787390520995_);" points="278.78,1963.15 299.59,1974.05 
	299.59,1987.59 412.21,1942.67 389.09,1923.85 "/>
<polygon points="278.78,1963.15 389.09,1923.85 389.09,1935.4 294.83,1971.56 "/>
</svg>
