<?xml version="1.0" encoding="utf-8"?>
<!-- Generator: Adobe Illustrator 27.0.1, SVG Export Plug-In . SVG Version: 6.00 Build 0)  -->
<svg version="1.1" id="Calque_1" xmlns="http://www.w3.org/2000/svg" xmlns:xlink="http://www.w3.org/1999/xlink" x="0px" y="0px"
	 viewBox="0 0 512 2048" style="enable-background:new 0 0 512 2048;" xml:space="preserve">
<style type="text/css">
	.st0{fill:#818085;stroke:#010202;stroke-miterlimit:10;}
	.st1{fill:url(#SVGID_1_);}
	.st2{opacity:0.5;fill:#FFFFFF;enable-background:new    ;}
	.st3{fill:#FFFFFF;}
	.st4{fill:url(#SVGID_00000090972784723227732860000014677879945614535307_);stroke:#010202;stroke-miterlimit:10;}
	.st5{opacity:0.5;fill:#A0A09F;enable-background:new    ;}
	.st6{fill:url(#SVGID_00000115476683325064060200000014928885412502716571_);}
	.st7{fill:url(#SVGID_00000148659505018951618920000018096418598750530707_);stroke:#010202;stroke-miterlimit:10;}
	.st8{fill:url(#SVGID_00000073694384412858400660000009267927615639065509_);}
	.st9{fill:url(#SVGID_00000074402667148248719930000008762032238958287498_);stroke:#010202;stroke-miterlimit:10;}
	.st10{fill:#646464;stroke:#000000;stroke-miterlimit:10;}
	.st11{fill:url(#SVGID_00000111899695623355554900000007388390181874204862_);}
	.st12{fill:url(#SVGID_00000164485565057728294970000004855926826123997837_);stroke:#000000;stroke-miterlimit:10;}
	.st13{opacity:0.5;fill:#949494;enable-background:new    ;}
</style>
<polygon class="st0" points="178.56,276.75 183.84,237.45 259.78,311.59 220.29,317.95 "/>
<circle class="st0" cx="317.33" cy="176.68" r="146.64"/>
<linearGradient id="SVGID_1_" gradientUnits="userSpaceOnUse" x1="229.1962" y1="1959.4537" x2="405.4638" y2="1783.1863" gradientTransform="matrix(1 0 0 -1 0 2048)">
	<stop  offset="0" style="stop-color:#A0C8EB"/>
	<stop  offset="1" style="stop-color:#DEF0F5"/>
</linearGradient>
<circle class="st1" cx="317.33" cy="176.68" r="124.64"/>
<path class="st2" d="M220.38,181.11c0-55.59,45.07-100.66,100.66-100.66c28.12,0,53.54,11.53,71.8,30.12
	c-18.68-26.68-49.64-44.13-84.68-44.13c-57.05,0-103.3,46.25-103.3,103.3c0,39.67,22.37,74.12,55.18,91.42
	C235.94,242.78,220.38,213.76,220.38,181.11z"/>
<ellipse transform="matrix(0.6163 -0.7875 0.7875 0.6163 5.6211 235.7734)" class="st3" cx="244.77" cy="112.12" rx="33.84" ry="23.38"/>
<linearGradient id="SVGID_00000058552200859690347930000017958116809131306649_" gradientUnits="userSpaceOnUse" x1="510.269" y1="-622.0849" x2="510.269" y2="-681.5762" gradientTransform="matrix(0.7025 -0.7117 0.7117 0.7025 225.8139 1197.9044)">
	<stop  offset="0" style="stop-color:#6A443F"/>
	<stop  offset="1" style="stop-color:#EAC067"/>
</linearGradient>
<polygon style="fill:url(#SVGID_00000058552200859690347930000017958116809131306649_);stroke:#010202;stroke-miterlimit:10;" points="
	220.29,317.95 62.18,476.92 20.45,435.72 178.56,276.75 "/>
<path class="st5" d="M420.3,72.94c26.88,26.58,43.55,63.48,43.55,104.27c0,80.99-65.65,146.64-146.64,146.64
	c-20.43,0-39.88-4.18-57.55-11.73l0,0l-39.49,6.36L62.47,477.03l9.54,9.42l158.11-158.97l39.49-6.36l0,0
	c17.67,7.55,37.12,11.73,57.55,11.73c80.99,0,146.64-65.65,146.64-146.64C473.81,140.59,452.97,99.84,420.3,72.94z"/>
<polygon class="st0" points="188.56,798.75 193.84,759.45 269.78,833.59 230.29,839.95 "/>
<circle class="st0" cx="327.33" cy="698.68" r="146.64"/>
<linearGradient id="SVGID_00000093146832052748273040000004208045144015019697_" gradientUnits="userSpaceOnUse" x1="239.1962" y1="1437.4537" x2="415.4638" y2="1261.1863" gradientTransform="matrix(1 0 0 -1 0 2048)">
	<stop  offset="0" style="stop-color:#F7A51C"/>
	<stop  offset="1" style="stop-color:#DEF0F5"/>
</linearGradient>
<circle style="fill:url(#SVGID_00000093146832052748273040000004208045144015019697_);" cx="327.33" cy="698.68" r="124.64"/>
<path class="st2" d="M230.38,703.11c0-55.59,45.07-100.66,100.66-100.66c28.12,0,53.54,11.53,71.8,30.12
	c-18.68-26.68-49.64-44.13-84.68-44.13c-57.05,0-103.3,46.25-103.3,103.3c0,39.67,22.37,74.12,55.18,91.42
	C245.94,764.78,230.38,735.76,230.38,703.11z"/>
<ellipse transform="matrix(0.6163 -0.7875 0.7875 0.6163 -401.6151 443.9341)" class="st3" cx="254.76" cy="634.11" rx="33.84" ry="23.38"/>
<linearGradient id="SVGID_00000039822807545942506910000009708752094635072167_" gradientUnits="userSpaceOnUse" x1="145.795" y1="-248.2716" x2="145.795" y2="-307.7629" gradientTransform="matrix(0.7025 -0.7117 0.7117 0.7025 225.8139 1197.9044)">
	<stop  offset="0" style="stop-color:#6A443F"/>
	<stop  offset="1" style="stop-color:#EAC067"/>
</linearGradient>
<polygon style="fill:url(#SVGID_00000039822807545942506910000009708752094635072167_);stroke:#010202;stroke-miterlimit:10;" points="
	230.29,839.95 72.18,998.92 30.45,957.72 188.56,798.75 "/>
<path class="st5" d="M430.3,594.94c26.88,26.58,43.55,63.48,43.55,104.27c0,80.99-65.65,146.64-146.64,146.64
	c-20.43,0-39.88-4.18-57.55-11.73l0,0l-39.49,6.36L72.47,999.03l9.54,9.42l158.11-158.97l39.49-6.36l0,0
	c17.67,7.55,37.12,11.73,57.55,11.73c80.99,0,146.64-65.65,146.64-146.64C483.81,662.59,462.97,621.84,430.3,594.94z"/>
<polygon class="st0" points="178.56,1300.75 183.84,1261.45 259.78,1335.59 220.29,1341.95 "/>
<circle class="st0" cx="317.33" cy="1200.68" r="146.64"/>
<linearGradient id="SVGID_00000041997013115559991160000017539802460528669364_" gradientUnits="userSpaceOnUse" x1="229.1962" y1="935.4537" x2="405.4637" y2="759.1862" gradientTransform="matrix(1 0 0 -1 0 2048)">
	<stop  offset="0" style="stop-color:#3AB2E7"/>
	<stop  offset="1" style="stop-color:#DEF0F5"/>
</linearGradient>
<circle style="fill:url(#SVGID_00000041997013115559991160000017539802460528669364_);" cx="317.33" cy="1200.68" r="124.64"/>
<path class="st2" d="M220.38,1205.11c0-55.59,45.07-100.66,100.66-100.66c28.12,0,53.54,11.53,71.8,30.12
	c-18.68-26.68-49.64-44.13-84.68-44.13c-57.05,0-103.3,46.25-103.3,103.3c0,39.67,22.37,74.12,55.18,91.42
	C235.94,1266.78,220.38,1237.76,220.38,1205.11z"/>
<ellipse transform="matrix(0.6163 -0.7875 0.7875 0.6163 -800.7751 628.6706)" class="st3" cx="244.76" cy="1136.1" rx="33.84" ry="23.38"/>
<linearGradient id="SVGID_00000028324425914398593040000015127746216488764848_" gradientUnits="userSpaceOnUse" x1="-218.4949" y1="97.2584" x2="-218.4949" y2="37.7671" gradientTransform="matrix(0.7025 -0.7117 0.7117 0.7025 225.8139 1197.9044)">
	<stop  offset="0" style="stop-color:#6A443F"/>
	<stop  offset="1" style="stop-color:#EAC067"/>
</linearGradient>
<polygon style="fill:url(#SVGID_00000028324425914398593040000015127746216488764848_);stroke:#010202;stroke-miterlimit:10;" points="
	220.29,1341.95 62.18,1500.92 20.45,1459.72 178.56,1300.75 "/>
<path class="st5" d="M420.3,1096.94c26.88,26.58,43.55,63.48,43.55,104.27c0,80.99-65.65,146.64-146.64,146.64
	c-20.43,0-39.88-4.18-57.55-11.73l0,0l-39.49,6.36l-157.7,158.55l9.54,9.42l158.11-158.97l39.49-6.36l0,0
	c17.67,7.55,37.12,11.73,57.55,11.73c80.99,0,146.64-65.65,146.64-146.64C473.81,1164.59,452.97,1123.84,420.3,1096.94z"/>
<polygon class="st10" points="178.56,1812.75 183.84,1773.45 259.78,1847.59 220.29,1853.95 "/>
<circle class="st10" cx="317.33" cy="1712.68" r="146.64"/>
<linearGradient id="SVGID_00000016782312274539085390000018083833317608768386_" gradientUnits="userSpaceOnUse" x1="229.1962" y1="423.4538" x2="405.4637" y2="247.1861" gradientTransform="matrix(1 0 0 -1 0 2048)">
	<stop  offset="0" style="stop-color:#CECECE"/>
	<stop  offset="1" style="stop-color:#F2F2F2"/>
</linearGradient>
<circle style="fill:url(#SVGID_00000016782312274539085390000018083833317608768386_);" cx="317.33" cy="1712.68" r="124.64"/>
<path class="st2" d="M220.38,1717.11c0-55.59,45.07-100.66,100.66-100.66c28.12,0,53.54,11.53,71.8,30.12
	c-18.68-26.68-49.64-44.13-84.68-44.13c-57.05,0-103.3,46.25-103.3,103.3c0,39.67,22.37,74.12,55.18,91.42
	C235.94,1778.78,220.38,1749.76,220.38,1717.11z"/>
<ellipse transform="matrix(0.6163 -0.7875 0.7875 0.6163 -1203.9731 825.1191)" class="st3" cx="244.76" cy="1648.1" rx="33.84" ry="23.38"/>
<linearGradient id="SVGID_00000153664062697608077490000017454233268917277084_" gradientUnits="userSpaceOnUse" x1="-582.877" y1="456.93" x2="-582.877" y2="397.4387" gradientTransform="matrix(0.7025 -0.7117 0.7117 0.7025 225.8139 1197.9044)">
	<stop  offset="0" style="stop-color:#000000"/>
	<stop  offset="1" style="stop-color:#BDBDBD"/>
</linearGradient>
<polygon style="fill:url(#SVGID_00000153664062697608077490000017454233268917277084_);stroke:#000000;stroke-miterlimit:10;" points="
	220.29,1853.95 62.18,2012.92 20.45,1971.72 178.56,1812.75 "/>
<path class="st13" d="M420.3,1608.94c26.88,26.58,43.55,63.48,43.55,104.27c0,80.99-65.65,146.64-146.64,146.64
	c-20.43,0-39.88-4.18-57.55-11.73l0,0l-39.49,6.36l-157.7,158.55l9.54,9.42l158.11-158.97l39.49-6.36l0,0
	c17.67,7.55,37.12,11.73,57.55,11.73c80.99,0,146.64-65.65,146.64-146.64C473.81,1676.59,452.97,1635.84,420.3,1608.94z"/>
</svg>
