<?xml version="1.0" encoding="utf-8"?>
<!-- Generator: Adobe Illustrator 27.0.1, SVG Export Plug-In . SVG Version: 6.00 Build 0)  -->
<svg version="1.1" id="Calque_1" xmlns="http://www.w3.org/2000/svg" xmlns:xlink="http://www.w3.org/1999/xlink" x="0px" y="0px"
	 viewBox="0 0 512 2048" style="enable-background:new 0 0 512 2048;" xml:space="preserve">
<style type="text/css">
	.st0{fill:#818085;stroke:#010202;stroke-miterlimit:10;}
	.st1{fill:url(#SVGID_1_);}
	.st2{opacity:0.5;fill:#FFFFFF;}
	.st3{fill:#FFFFFF;}
	.st4{fill:url(#SVGID_00000143584050848503224050000005348114517943280257_);stroke:#010202;stroke-miterlimit:10;}
	.st5{opacity:0.5;fill:#A0A09F;}
	.st6{fill:url(#SVGID_00000120517041112316606520000009613320355882041784_);}
	.st7{fill:url(#SVGID_00000144296240931499157360000008214291462713084033_);stroke:#010202;stroke-miterlimit:10;}
	.st8{fill:url(#SVGID_00000105412195937740525600000008433990592521144756_);}
	.st9{fill:url(#SVGID_00000118374873954091292850000017737762385021674883_);stroke:#010202;stroke-miterlimit:10;}
	.st10{fill:#646464;stroke:#000000;stroke-miterlimit:10;}
	.st11{fill:url(#SVGID_00000142856398534922268070000016294815518805516196_);}
	.st12{fill:url(#SVGID_00000046326898218304354250000010248731423664470181_);stroke:#000000;stroke-miterlimit:10;}
	.st13{opacity:0.5;fill:#949494;}
</style>
<polygon class="st0" points="178.56,276.75 183.84,237.45 259.78,311.59 220.29,317.95 "/>
<circle class="st0" cx="317.33" cy="176.68" r="146.64"/>
<linearGradient id="SVGID_1_" gradientUnits="userSpaceOnUse" x1="229.1982" y1="88.5468" x2="405.4624" y2="264.811">
	<stop  offset="0" style="stop-color:#A0C8EB"/>
	<stop  offset="1" style="stop-color:#DEF0F5"/>
</linearGradient>
<circle class="st1" cx="317.33" cy="176.68" r="124.64"/>
<path class="st2" d="M220.38,181.11c0-55.59,45.07-100.66,100.66-100.66c28.12,0,53.54,11.53,71.8,30.12
	c-18.68-26.68-49.64-44.13-84.68-44.13c-57.05,0-103.3,46.25-103.3,103.3c0,39.67,22.37,74.12,55.18,91.42
	C235.94,242.78,220.38,213.76,220.38,181.11z"/>
<ellipse transform="matrix(0.6163 -0.7875 0.7875 0.6163 5.6189 235.7751)" class="st3" cx="244.77" cy="112.12" rx="33.84" ry="23.38"/>
<linearGradient id="SVGID_00000067929531924623868660000008666635760004765348_" gradientUnits="userSpaceOnUse" x1="130.7165" y1="1761.9998" x2="130.7165" y2="1821.4919" gradientTransform="matrix(0.7025 -0.7117 -0.7117 -0.7025 1303.75 1728.5079)">
	<stop  offset="0" style="stop-color:#6A443F"/>
	<stop  offset="1" style="stop-color:#EAC067"/>
</linearGradient>
<polygon style="fill:url(#SVGID_00000067929531924623868660000008666635760004765348_);stroke:#010202;stroke-miterlimit:10;" points="
	220.29,317.95 62.18,476.92 20.45,435.72 178.56,276.75 "/>
<path class="st5" d="M420.3,72.94c26.88,26.58,43.55,63.48,43.55,104.27c0,80.99-65.65,146.64-146.64,146.64
	c-20.43,0-39.88-4.18-57.55-11.73l0,0l-39.49,6.36L62.47,477.03l9.54,9.42l158.11-158.97l39.49-6.36l0,0
	c17.67,7.55,37.12,11.73,57.55,11.73c80.99,0,146.64-65.65,146.64-146.64C473.81,140.59,452.97,99.84,420.3,72.94z"/>
<polygon class="st0" points="178.56,788.75 183.84,749.45 259.78,823.59 220.29,829.95 "/>
<circle class="st0" cx="317.33" cy="688.68" r="146.64"/>
<linearGradient id="SVGID_00000029727879811920287600000015319956096071444641_" gradientUnits="userSpaceOnUse" x1="229.1982" y1="600.5468" x2="405.4624" y2="776.811">
	<stop  offset="0" style="stop-color:#F7A51C"/>
	<stop  offset="1" style="stop-color:#DEF0F5"/>
</linearGradient>
<circle style="fill:url(#SVGID_00000029727879811920287600000015319956096071444641_);" cx="317.33" cy="688.68" r="124.64"/>
<path class="st2" d="M220.38,693.11c0-55.59,45.07-100.66,100.66-100.66c28.12,0,53.54,11.53,71.8,30.12
	c-18.68-26.68-49.64-44.13-84.68-44.13c-57.05,0-103.3,46.25-103.3,103.3c0,39.67,22.37,74.12,55.18,91.42
	C235.94,754.78,220.38,725.76,220.38,693.11z"/>
<ellipse transform="matrix(0.6163 -0.7875 0.7875 0.6163 -397.5813 432.2224)" class="st3" cx="244.77" cy="624.12" rx="33.84" ry="23.38"/>
<linearGradient id="SVGID_00000098218257856921618540000005972435349276036490_" gradientUnits="userSpaceOnUse" x1="-233.6828" y1="1402.3341" x2="-233.6828" y2="1461.8262" gradientTransform="matrix(0.7025 -0.7117 -0.7117 -0.7025 1303.75 1728.5079)">
	<stop  offset="0" style="stop-color:#6A443F"/>
	<stop  offset="1" style="stop-color:#EAC067"/>
</linearGradient>
<polygon style="fill:url(#SVGID_00000098218257856921618540000005972435349276036490_);stroke:#010202;stroke-miterlimit:10;" points="
	220.29,829.95 62.18,988.92 20.45,947.72 178.56,788.75 "/>
<path class="st5" d="M420.3,584.94c26.88,26.58,43.55,63.48,43.55,104.27c0,80.99-65.65,146.64-146.64,146.64
	c-20.43,0-39.88-4.18-57.55-11.73l0,0l-39.49,6.36L62.47,989.03l9.54,9.42l158.11-158.97l39.49-6.36l0,0
	c17.67,7.55,37.12,11.73,57.55,11.73c80.99,0,146.64-65.65,146.64-146.64C473.81,652.59,452.97,611.84,420.3,584.94z"/>
<polygon class="st0" points="178.56,1300.75 183.84,1261.45 259.78,1335.59 220.29,1341.95 "/>
<circle class="st0" cx="317.33" cy="1200.68" r="146.64"/>
<linearGradient id="SVGID_00000083072125148553817760000008962017387518319254_" gradientUnits="userSpaceOnUse" x1="229.1982" y1="1112.5468" x2="405.4624" y2="1288.811">
	<stop  offset="0" style="stop-color:#3AB2E7"/>
	<stop  offset="1" style="stop-color:#DEF0F5"/>
</linearGradient>
<circle style="fill:url(#SVGID_00000083072125148553817760000008962017387518319254_);" cx="317.33" cy="1200.68" r="124.64"/>
<path class="st2" d="M220.38,1205.11c0-55.59,45.07-100.66,100.66-100.66c28.12,0,53.54,11.53,71.8,30.12
	c-18.68-26.68-49.64-44.13-84.68-44.13c-57.05,0-103.3,46.25-103.3,103.3c0,39.67,22.37,74.12,55.18,91.42
	C235.94,1266.78,220.38,1237.76,220.38,1205.11z"/>
<ellipse transform="matrix(0.6163 -0.7875 0.7875 0.6163 -800.7816 628.6697)" class="st3" cx="244.77" cy="1136.12" rx="33.84" ry="23.38"/>
<linearGradient id="SVGID_00000158734965962123869740000008843697150430734252_" gradientUnits="userSpaceOnUse" x1="-598.0821" y1="1042.6683" x2="-598.0821" y2="1102.1604" gradientTransform="matrix(0.7025 -0.7117 -0.7117 -0.7025 1303.75 1728.5079)">
	<stop  offset="0" style="stop-color:#6A443F"/>
	<stop  offset="1" style="stop-color:#EAC067"/>
</linearGradient>
<polygon style="fill:url(#SVGID_00000158734965962123869740000008843697150430734252_);stroke:#010202;stroke-miterlimit:10;" points="
	220.29,1341.95 62.18,1500.92 20.45,1459.72 178.56,1300.75 "/>
<path class="st5" d="M420.3,1096.94c26.88,26.58,43.55,63.48,43.55,104.27c0,80.99-65.65,146.64-146.64,146.64
	c-20.43,0-39.88-4.18-57.55-11.73l0,0l-39.49,6.36L62.47,1501.03l9.54,9.42l158.11-158.97l39.49-6.36l0,0
	c17.67,7.55,37.12,11.73,57.55,11.73c80.99,0,146.64-65.65,146.64-146.64C473.81,1164.59,452.97,1123.84,420.3,1096.94z"/>
<polygon class="st10" points="178.56,1812.75 183.84,1773.45 259.78,1847.59 220.29,1853.95 "/>
<circle class="st10" cx="317.33" cy="1712.68" r="146.64"/>
<linearGradient id="SVGID_00000032631466254913547040000016735304629895604147_" gradientUnits="userSpaceOnUse" x1="229.1982" y1="1624.5468" x2="405.4624" y2="1800.811">
	<stop  offset="0" style="stop-color:#CECECE"/>
	<stop  offset="1" style="stop-color:#F2F2F2"/>
</linearGradient>
<circle style="fill:url(#SVGID_00000032631466254913547040000016735304629895604147_);" cx="317.33" cy="1712.68" r="124.64"/>
<path class="st2" d="M220.38,1717.11c0-55.59,45.07-100.66,100.66-100.66c28.12,0,53.54,11.53,71.8,30.12
	c-18.68-26.68-49.64-44.13-84.68-44.13c-57.05,0-103.3,46.25-103.3,103.3c0,39.67,22.37,74.12,55.18,91.42
	C235.94,1778.78,220.38,1749.76,220.38,1717.11z"/>
<ellipse transform="matrix(0.6163 -0.7875 0.7875 0.6163 -1203.9819 825.1169)" class="st3" cx="244.77" cy="1648.12" rx="33.84" ry="23.38"/>
<linearGradient id="SVGID_00000029039885463945437980000014070649190040158611_" gradientUnits="userSpaceOnUse" x1="-962.4814" y1="683.0026" x2="-962.4814" y2="742.4947" gradientTransform="matrix(0.7025 -0.7117 -0.7117 -0.7025 1303.75 1728.5079)">
	<stop  offset="0" style="stop-color:#000000"/>
	<stop  offset="1" style="stop-color:#BDBDBD"/>
</linearGradient>
<polygon style="fill:url(#SVGID_00000029039885463945437980000014070649190040158611_);stroke:#000000;stroke-miterlimit:10;" points="
	220.29,1853.95 62.18,2012.92 20.45,1971.72 178.56,1812.75 "/>
<path class="st13" d="M420.3,1608.94c26.88,26.58,43.55,63.48,43.55,104.27c0,80.99-65.65,146.64-146.64,146.64
	c-20.43,0-39.88-4.18-57.55-11.73l0,0l-39.49,6.36L62.47,2013.03l9.54,9.42l158.11-158.97l39.49-6.36l0,0
	c17.67,7.55,37.12,11.73,57.55,11.73c80.99,0,146.64-65.65,146.64-146.64C473.81,1676.59,452.97,1635.84,420.3,1608.94z"/>
</svg>
