<?xml version="1.0" encoding="utf-8"?>
<!-- Generator: Adobe Illustrator 27.5.0, SVG Export Plug-In . SVG Version: 6.00 Build 0)  -->
<svg version="1.1" id="Calque_1" xmlns="http://www.w3.org/2000/svg" xmlns:xlink="http://www.w3.org/1999/xlink" x="0px" y="0px"
	 viewBox="0 0 512 2048" style="enable-background:new 0 0 512 2048;" xml:space="preserve">
<style type="text/css">
	.st0{fill:#818085;stroke:#010202;stroke-miterlimit:10;}
	.st1{fill:url(#SVGID_1_);}
	.st2{opacity:0.5;fill:#FFFFFF;enable-background:new    ;}
	.st3{fill:#FFFFFF;}
	.st4{fill:url(#SVGID_00000047049184199633870150000015588455832994791073_);stroke:#010202;stroke-miterlimit:10;}
	.st5{opacity:0.5;fill:#A0A09F;enable-background:new    ;}
	.st6{fill:url(#SVGID_00000100344921748954344660000017855305634042092198_);stroke:#030405;stroke-width:8;stroke-miterlimit:10;}
	.st7{fill:url(#SVGID_00000003796365026051887300000001968910800327174587_);}
	.st8{fill:url(#SVGID_00000098182043907125097150000017495488752889039799_);stroke:#010202;stroke-miterlimit:10;}
	.st9{fill:url(#SVGID_00000140710652494230711840000017091536144198467769_);stroke:#030405;stroke-width:8;stroke-miterlimit:10;}
	.st10{fill:url(#SVGID_00000115513247629916840400000008723724254601362064_);}
	.st11{fill:url(#SVGID_00000062895330941500247460000013874940549093620376_);stroke:#010202;stroke-miterlimit:10;}
	.st12{fill:url(#SVGID_00000046328031487084726690000005346089063728915349_);stroke:#030405;stroke-width:8;stroke-miterlimit:10;}
	.st13{fill:url(#SVGID_00000132077529698050199050000018277732519498207391_);}
	.st14{fill:url(#SVGID_00000096019293727996296510000013192571946335262371_);stroke:#010202;stroke-miterlimit:10;}
	.st15{fill:url(#SVGID_00000054252650595466060450000000761423216900374189_);stroke:#000000;stroke-width:8;stroke-miterlimit:10;}
</style>
<polygon class="st0" points="179.4,274.5 184.6,235.1 260.6,309.4 221.1,315.8 "/>
<circle class="st0" cx="318.1" cy="174.4" r="146.6"/>
<linearGradient id="SVGID_1_" gradientUnits="userSpaceOnUse" x1="229.9507" y1="3987.6555" x2="406.1617" y2="3811.4446" gradientTransform="matrix(1 0 0 -1 0 4074)">
	<stop  offset="0" style="stop-color:#A0C8EB"/>
	<stop  offset="1" style="stop-color:#DEF0F5"/>
</linearGradient>
<circle class="st1" cx="318.1" cy="174.4" r="124.6"/>
<path class="st2" d="M221.2,178.9c0-55.6,45.1-100.7,100.7-100.7c28.1,0,53.5,11.5,71.8,30.1C375,81.6,344.1,64.2,309,64.2
	c-57.1,0-103.3,46.2-103.3,103.3c0,39.7,22.4,74.1,55.2,91.4C236.7,240.6,221.2,211.6,221.2,178.9z"/>
<ellipse transform="matrix(0.6163 -0.7875 0.7875 0.6163 7.7147 235.4973)" class="st3" cx="245.5" cy="109.8" rx="33.8" ry="23.4"/>
<linearGradient id="SVGID_00000122706152469483254720000012973165054802547089_" gradientUnits="userSpaceOnUse" x1="2070.9092" y1="-2325.2971" x2="2070.9092" y2="-2384.8091" gradientTransform="matrix(0.7025 -0.7117 0.7117 0.7025 342.4339 3502.8909)">
	<stop  offset="0" style="stop-color:#6A443F"/>
	<stop  offset="1" style="stop-color:#EAC067"/>
</linearGradient>
<polygon style="fill:url(#SVGID_00000122706152469483254720000012973165054802547089_);stroke:#010202;stroke-miterlimit:10;" points="
	221.1,315.8 63,474.6 21.3,433.5 179.4,274.5 "/>
<path class="st5" d="M421.1,70.7c26.9,26.6,43.5,63.5,43.5,104.3c0,81-65.6,146.6-146.6,146.6c-20.4,0-39.9-4.2-57.5-11.7l0,0
	l-39.5,6.4L63.3,474.8l9.5,9.4l158.1-159l39.5-6.4l0,0c17.7,7.5,37.1,11.7,57.5,11.7c81,0,146.6-65.6,146.6-146.6
	C474.6,138.4,453.8,97.6,421.1,70.7z"/>
<linearGradient id="SVGID_00000056413173052959227390000013942401507557660801_" gradientUnits="userSpaceOnUse" x1="190.6489" y1="3768.2673" x2="490.7438" y2="3768.2673" gradientTransform="matrix(1 0 0 -1 0 4074)">
	<stop  offset="0" style="stop-color:#ED7E87"/>
	<stop  offset="1" style="stop-color:#E62631"/>
</linearGradient>
<path style="fill:url(#SVGID_00000056413173052959227390000013942401507557660801_);stroke:#030405;stroke-width:8;stroke-miterlimit:10;" d="
	M485.7,424.5L370.2,302l77.8-83.1c3.1-3.4,3.7-8.6,1.2-12.6l0,0c-3-4.9-9.2-6.1-13.6-2.7l-91.5,70.7L241.1,165
	c-12-12.7-31.5-12.2-42.8,1.1l0,0c-11.1,13-9.9,33.2,2.6,44.7l102.9,94.8l-80.4,62.1c-15.6,12.1-16.8,36.4-2.5,50.1l0,0
	c12.1,11.5,30.5,11,42-1.2l74.7-79.9l124.5,114.6c6.9,6.3,17.1,5.9,23.5-0.9l0,0C492.5,443.2,492.5,431.6,485.7,424.5z"/>
<polygon class="st0" points="189.4,796.5 194.6,757.2 270.6,831.4 231.1,837.8 "/>
<circle class="st0" cx="328.1" cy="696.5" r="146.6"/>
<linearGradient id="SVGID_00000036237953718639487770000014830523533108199566_" gradientUnits="userSpaceOnUse" x1="239.9507" y1="3465.6555" x2="416.1617" y2="3289.4446" gradientTransform="matrix(1 0 0 -1 0 4074)">
	<stop  offset="0" style="stop-color:#A0C8EB"/>
	<stop  offset="1" style="stop-color:#DEF0F5"/>
</linearGradient>
<circle style="fill:url(#SVGID_00000036237953718639487770000014830523533108199566_);" cx="328.1" cy="696.5" r="124.6"/>
<path class="st2" d="M231.2,700.9c0-55.6,45.1-100.7,100.7-100.7c28.1,0,53.5,11.5,71.8,30.1c-18.7-26.7-49.6-44.1-84.7-44.1
	c-57.1,0-103.3,46.2-103.3,103.3c0,39.7,22.4,74.1,55.2,91.4C246.7,762.5,231.2,733.5,231.2,700.9z"/>
<ellipse transform="matrix(0.6163 -0.7875 0.7875 0.6163 -391.652 439.8239)" class="st3" cx="255.5" cy="621.8" rx="33.8" ry="23.4"/>
<linearGradient id="SVGID_00000108295047581365339920000003563352544845697191_" gradientUnits="userSpaceOnUse" x1="1706.4352" y1="-1951.4838" x2="1706.4352" y2="-2010.9958" gradientTransform="matrix(0.7025 -0.7117 0.7117 0.7025 342.4339 3502.8909)">
	<stop  offset="0" style="stop-color:#6A443F"/>
	<stop  offset="1" style="stop-color:#EAC067"/>
</linearGradient>
<polygon style="fill:url(#SVGID_00000108295047581365339920000003563352544845697191_);stroke:#010202;stroke-miterlimit:10;" points="
	231.1,837.8 73,996.7 31.3,955.5 189.4,796.5 "/>
<path class="st5" d="M431.1,592.7c26.9,26.6,43.5,63.5,43.5,104.3c0,81-65.6,146.6-146.6,146.6c-20.4,0-39.9-4.2-57.5-11.7l0,0
	l-39.5,6.4L73.3,996.8l9.5,9.4l158.1-159l39.5-6.4l0,0c17.7,7.5,37.1,11.7,57.5,11.7c81,0,146.6-65.6,146.6-146.6
	C484.6,660.4,463.8,619.5,431.1,592.7z"/>
<linearGradient id="SVGID_00000013175774550088032810000004813873965122795948_" gradientUnits="userSpaceOnUse" x1="200.6489" y1="3246.2673" x2="500.7438" y2="3246.2673" gradientTransform="matrix(1 0 0 -1 0 4074)">
	<stop  offset="0" style="stop-color:#FFDD0D"/>
	<stop  offset="1" style="stop-color:#F8A921"/>
</linearGradient>
<path style="fill:url(#SVGID_00000013175774550088032810000004813873965122795948_);stroke:#030405;stroke-width:8;stroke-miterlimit:10;" d="
	M495.7,946.5L380.2,824l77.8-83.1c3.1-3.4,3.7-8.6,1.2-12.6l0,0c-3-4.9-9.2-6.1-13.6-2.7l-91.5,70.7L251.1,687
	c-12-12.7-31.5-12.2-42.8,1.1l0,0c-11.1,13-9.9,33.2,2.6,44.7l102.9,94.8l-80.4,62.1c-15.6,12.1-16.8,36.4-2.5,50.1l0,0
	c12.1,11.5,30.5,11,42-1.2l74.7-79.9l124.5,114.6c6.9,6.3,17.1,5.9,23.5-0.9l0,0C502.5,965.2,502.5,953.7,495.7,946.5z"/>
<polygon class="st0" points="179.4,1298.6 184.6,1259.2 260.6,1333.3 221.1,1339.8 "/>
<circle class="st0" cx="318.1" cy="1198.4" r="146.6"/>
<linearGradient id="SVGID_00000018949189169236712890000012652478268102469290_" gradientUnits="userSpaceOnUse" x1="229.9507" y1="2963.6555" x2="406.1617" y2="2787.4446" gradientTransform="matrix(1 0 0 -1 0 4074)">
	<stop  offset="0" style="stop-color:#A0C8EB"/>
	<stop  offset="1" style="stop-color:#DEF0F5"/>
</linearGradient>
<circle style="fill:url(#SVGID_00000018949189169236712890000012652478268102469290_);" cx="318.1" cy="1198.4" r="124.6"/>
<path class="st2" d="M221.2,1202.8c0-55.6,45.1-100.7,100.7-100.7c28.1,0,53.5,11.5,71.8,30.1c-18.7-26.7-49.6-44.1-84.7-44.1
	c-57.1,0-103.3,46.2-103.3,103.3c0,39.7,22.4,74.1,55.2,91.4C236.7,1264.6,221.2,1235.6,221.2,1202.8z"/>
<ellipse transform="matrix(0.6163 -0.7875 0.7875 0.6163 -798.2202 628.1702)" class="st3" cx="245.5" cy="1133.2" rx="33.8" ry="23.4"/>
<linearGradient id="SVGID_00000070110787759890274910000009523437059858780592_" gradientUnits="userSpaceOnUse" x1="1342.1453" y1="-1605.9537" x2="1342.1453" y2="-1665.4658" gradientTransform="matrix(0.7025 -0.7117 0.7117 0.7025 342.4339 3502.8909)">
	<stop  offset="0" style="stop-color:#6A443F"/>
	<stop  offset="1" style="stop-color:#EAC067"/>
</linearGradient>
<polygon style="fill:url(#SVGID_00000070110787759890274910000009523437059858780592_);stroke:#010202;stroke-miterlimit:10;" points="
	221.1,1339.8 63,1498.7 21.3,1457.5 179.4,1298.6 "/>
<path class="st5" d="M421.1,1094.7c26.9,26.6,43.5,63.5,43.5,104.3c0,81-65.6,146.6-146.6,146.6c-20.4,0-39.9-4.2-57.5-11.7l0,0
	l-39.5,6.4L63.3,1498.8l9.5,9.4l158.1-159l39.5-6.4l0,0c17.7,7.5,37.1,11.7,57.5,11.7c81,0,146.6-65.6,146.6-146.6
	C474.6,1162.3,453.8,1121.6,421.1,1094.7z"/>
<linearGradient id="SVGID_00000015334096469410154790000005019844710926513075_" gradientUnits="userSpaceOnUse" x1="190.6489" y1="2744.2673" x2="490.7438" y2="2744.2673" gradientTransform="matrix(1 0 0 -1 0 4074)">
	<stop  offset="0" style="stop-color:#AED2EE"/>
	<stop  offset="1" style="stop-color:#3EB2E6"/>
</linearGradient>
<path style="fill:url(#SVGID_00000015334096469410154790000005019844710926513075_);stroke:#030405;stroke-width:8;stroke-miterlimit:10;" d="
	M485.7,1448.6L370.2,1326l77.8-83.1c3.1-3.4,3.7-8.6,1.2-12.6l0,0c-3-4.9-9.2-6.1-13.6-2.7l-91.5,70.7l-103-109.3
	c-12-12.7-31.5-12.2-42.8,1.1l0,0c-11.1,13-9.9,33.2,2.6,44.7l102.9,94.8l-80.4,62.1c-15.6,12.1-16.8,36.4-2.5,50.1l0,0
	c12.1,11.5,30.5,11,42-1.2l74.7-79.9l124.5,114.6c6.9,6.3,17.1,5.9,23.5-0.9l0,0C492.5,1467.2,492.5,1455.7,485.7,1448.6z"/>
<polygon class="st0" points="179.4,1810.6 184.6,1771.2 260.6,1845.3 221.1,1851.8 "/>
<circle class="st0" cx="318.1" cy="1710.4" r="146.6"/>
<linearGradient id="SVGID_00000033357167351483050730000005327401340689788604_" gradientUnits="userSpaceOnUse" x1="229.9507" y1="2451.6555" x2="406.1617" y2="2275.4446" gradientTransform="matrix(1 0 0 -1 0 4074)">
	<stop  offset="0" style="stop-color:#A0C8EB"/>
	<stop  offset="1" style="stop-color:#DEF0F5"/>
</linearGradient>
<circle style="fill:url(#SVGID_00000033357167351483050730000005327401340689788604_);" cx="318.1" cy="1710.4" r="124.6"/>
<path class="st2" d="M221.2,1714.8c0-55.6,45.1-100.7,100.7-100.7c28.1,0,53.5,11.5,71.8,30.1c-18.7-26.7-49.6-44.1-84.7-44.1
	c-57.1,0-103.3,46.2-103.3,103.3c0,39.7,22.4,74.1,55.2,91.4C236.7,1776.6,221.2,1747.6,221.2,1714.8z"/>
<ellipse transform="matrix(0.6163 -0.7875 0.7875 0.6163 -1201.4238 824.6218)" class="st3" cx="245.5" cy="1645.2" rx="33.8" ry="23.4"/>
<linearGradient id="SVGID_00000075852762156011394850000010837829667056582335_" gradientUnits="userSpaceOnUse" x1="977.7633" y1="-1246.2821" x2="977.7633" y2="-1305.7942" gradientTransform="matrix(0.7025 -0.7117 0.7117 0.7025 342.4339 3502.8909)">
	<stop  offset="0" style="stop-color:#6A443F"/>
	<stop  offset="1" style="stop-color:#EAC067"/>
</linearGradient>
<polygon style="fill:url(#SVGID_00000075852762156011394850000010837829667056582335_);stroke:#010202;stroke-miterlimit:10;" points="
	221.1,1851.8 63,2010.7 21.3,1969.5 179.4,1810.6 "/>
<path class="st5" d="M421.1,1606.7c26.9,26.6,43.5,63.5,43.5,104.3c0,81-65.6,146.6-146.6,146.6c-20.4,0-39.9-4.2-57.5-11.7l0,0
	l-39.5,6.4L63.3,2010.8l9.5,9.4l158.1-159l39.5-6.4l0,0c17.7,7.5,37.1,11.7,57.5,11.7c81,0,146.6-65.6,146.6-146.6
	C474.6,1674.3,453.8,1633.6,421.1,1606.7z"/>
<linearGradient id="SVGID_00000090258252810466374160000002295864159322389173_" gradientUnits="userSpaceOnUse" x1="190.6489" y1="2232.2673" x2="490.7438" y2="2232.2673" gradientTransform="matrix(1 0 0 -1 0 4074)">
	<stop  offset="0" style="stop-color:#969696"/>
	<stop  offset="1" style="stop-color:#5B5B5B"/>
</linearGradient>
<path style="fill:url(#SVGID_00000090258252810466374160000002295864159322389173_);stroke:#000000;stroke-width:8;stroke-miterlimit:10;" d="
	M485.7,1960.6L370.2,1838l77.8-83.1c3.1-3.4,3.7-8.6,1.2-12.6l0,0c-3-4.9-9.2-6.1-13.6-2.7l-91.5,70.7l-103-109.3
	c-12-12.7-31.5-12.2-42.8,1.1l0,0c-11.1,13-9.9,33.2,2.6,44.7l102.9,94.8l-80.4,62.1c-15.6,12.1-16.8,36.4-2.5,50.1l0,0
	c12.1,11.5,30.5,11,42-1.2l74.7-79.9l124.5,114.6c6.9,6.3,17.1,5.9,23.5-0.9l0,0C492.5,1979.2,492.5,1967.7,485.7,1960.6z"/>
</svg>
