<?xml version="1.0" encoding="utf-8"?>
<!-- Generator: Adobe Illustrator 27.5.0, SVG Export Plug-In . SVG Version: 6.00 Build 0)  -->
<svg version="1.1" id="Calque_1" xmlns="http://www.w3.org/2000/svg" xmlns:xlink="http://www.w3.org/1999/xlink" x="0px" y="0px"
	 viewBox="0 0 512 2048" style="enable-background:new 0 0 512 2048;" xml:space="preserve">
<style type="text/css">
	
		.st0{fill:url(#SVGID_1_);stroke:url(#SVGID_00000070106164643188875130000004860833266663839925_);stroke-width:8;stroke-miterlimit:10;}
	.st1{fill:#5591CD;stroke:url(#SVGID_00000124128225774889176840000004161428753733233082_);stroke-width:8;stroke-miterlimit:10;}
	.st2{fill:none;stroke:#9DC9ED;stroke-width:8;stroke-miterlimit:10;}
	.st3{fill:#5591CD;stroke:url(#SVGID_00000149365423070050991940000014542965117764739239_);stroke-width:8;stroke-miterlimit:10;}
	.st4{fill:#5591CD;stroke:url(#SVGID_00000097494188656309215260000018155827817385415597_);stroke-width:8;stroke-miterlimit:10;}
	.st5{fill:none;stroke:#3EB2E6;stroke-width:40;stroke-linecap:round;stroke-miterlimit:10;}
	.st6{fill:none;stroke:#F39208;stroke-width:40;stroke-miterlimit:10;}
	.st7{fill:#818085;stroke:#010202;stroke-miterlimit:10;}
	.st8{fill:url(#SVGID_00000003101355464918297640000012530954552718196137_);}
	.st9{opacity:0.5;fill:#FFFFFF;enable-background:new    ;}
	.st10{fill:#FFFFFF;}
	.st11{fill:url(#SVGID_00000131329573884612020110000004571304503735618203_);stroke:#010202;stroke-miterlimit:10;}
	.st12{opacity:0.5;fill:#A0A09F;enable-background:new    ;}
	
		.st13{fill:url(#SVGID_00000046300639974314680500000001258889070784996020_);stroke:url(#SVGID_00000129921592284710880310000018213736051471242673_);stroke-width:8;stroke-miterlimit:10;}
	.st14{fill:#5591CD;stroke:url(#SVGID_00000109013697173321436110000010847381970251610540_);stroke-width:8;stroke-miterlimit:10;}
	.st15{fill:#5591CD;stroke:url(#SVGID_00000095324416533393873650000000366728830029659321_);stroke-width:8;stroke-miterlimit:10;}
	.st16{fill:#5591CD;stroke:url(#SVGID_00000061463433195858568890000015098193367834626951_);stroke-width:8;stroke-miterlimit:10;}
	.st17{fill:url(#SVGID_00000063626705775533115670000008078487536672824194_);}
	.st18{fill:url(#SVGID_00000022540536595267365520000003312836220902679685_);stroke:#010202;stroke-miterlimit:10;}
	
		.st19{fill:url(#SVGID_00000097499628941757180620000001349537898328447374_);stroke:url(#SVGID_00000047039198570481687370000010493880272131039412_);stroke-width:8;stroke-miterlimit:10;}
	.st20{fill:#5591CD;stroke:url(#SVGID_00000067914318269551882520000013727526794302953915_);stroke-width:8;stroke-miterlimit:10;}
	.st21{fill:#5591CD;stroke:url(#SVGID_00000122697833842253825950000015479728334374109345_);stroke-width:8;stroke-miterlimit:10;}
	.st22{fill:#5591CD;stroke:url(#SVGID_00000073705598287326629790000003734935475082800810_);stroke-width:8;stroke-miterlimit:10;}
	.st23{fill:url(#SVGID_00000141440527598504071220000001776057516939931523_);}
	.st24{fill:url(#SVGID_00000045584343945044699480000005672413967331046796_);stroke:#010202;stroke-miterlimit:10;}
	
		.st25{fill:url(#SVGID_00000024706094522666177150000015546770303436354729_);stroke:url(#SVGID_00000174600626822285609900000011384200176843225525_);stroke-width:8;stroke-miterlimit:10;}
	.st26{fill:#CDCDCD;stroke:url(#SVGID_00000182522941960334811890000010310375703914527135_);stroke-width:8;stroke-miterlimit:10;}
	.st27{fill:none;stroke:#EDEDED;stroke-width:8;stroke-miterlimit:10;}
	.st28{fill:#CDCDCD;stroke:url(#SVGID_00000009570046252459983090000000884762815318637708_);stroke-width:8;stroke-miterlimit:10;}
	.st29{fill:#CDCDCD;stroke:url(#SVGID_00000041269288386862646660000008588298350860002484_);stroke-width:8;stroke-miterlimit:10;}
	.st30{fill:#858585;stroke:#020202;stroke-miterlimit:10;}
	.st31{fill:url(#SVGID_00000110453686170259245480000011754024591915130286_);}
	.st32{fill:url(#SVGID_00000056406395686802800570000007954889152715611827_);stroke:#020202;stroke-miterlimit:10;}
	.st33{opacity:0.5;fill:#A0A0A0;enable-background:new    ;}
</style>
<linearGradient id="SVGID_1_" gradientUnits="userSpaceOnUse" x1="172.775" y1="3989.175" x2="442.375" y2="3719.575" gradientTransform="matrix(1 0 0 -1 0 4074)">
	<stop  offset="0" style="stop-color:#FBFAF5"/>
	<stop  offset="1" style="stop-color:#C9E3F0"/>
</linearGradient>
<linearGradient id="SVGID_00000014631019441467397830000007242464062720998071_" gradientUnits="userSpaceOnUse" x1="154.9725" y1="3947.2153" x2="472.3774" y2="3763.9617" gradientTransform="matrix(1 0 0 -1 0 4074)">
	<stop  offset="0" style="stop-color:#A5C6EA"/>
	<stop  offset="1" style="stop-color:#616187"/>
</linearGradient>
<polygon style="fill:url(#SVGID_1_);stroke:url(#SVGID_00000014631019441467397830000007242464062720998071_);stroke-width:8;stroke-miterlimit:10;" points="
	437.8,359 202.9,359 202.9,54.7 386.7,54.7 437.8,107.7 "/>
<linearGradient id="SVGID_00000106149040379572007870000015013257939740045461_" gradientUnits="userSpaceOnUse" x1="368.6983" y1="4000.7195" x2="440.4268" y2="3959.3071" gradientTransform="matrix(1 0 0 -1 0 4074)">
	<stop  offset="0" style="stop-color:#A5C6EA"/>
	<stop  offset="1" style="stop-color:#616187"/>
</linearGradient>
<polyline style="fill:#5591CD;stroke:url(#SVGID_00000106149040379572007870000015013257939740045461_);stroke-width:8;stroke-miterlimit:10;" points="
	385.1,51.8 385.1,109.7 441,109.7 "/>
<line class="st2" x1="237.3" y1="186.4" x2="404.6" y2="186.4"/>
<line class="st2" x1="237.3" y1="227.1" x2="404.6" y2="227.1"/>
<line class="st2" x1="237.3" y1="261" x2="404.6" y2="261"/>
<line class="st2" x1="237.3" y1="303.8" x2="404.6" y2="303.8"/>
<linearGradient id="SVGID_00000084523823424536882910000008574287119305178512_" gradientUnits="userSpaceOnUse" x1="201.8" y1="3702.5" x2="201.8" y2="3702.5" gradientTransform="matrix(1 0 0 -1 0 4074)">
	<stop  offset="0" style="stop-color:#A5C6EA"/>
	<stop  offset="1" style="stop-color:#616187"/>
</linearGradient>
<path style="fill:#5591CD;stroke:url(#SVGID_00000084523823424536882910000008574287119305178512_);stroke-width:8;stroke-miterlimit:10;" d="
	M201.8,371.5"/>
<linearGradient id="SVGID_00000134954039247943330720000004109204826139263623_" gradientUnits="userSpaceOnUse" x1="250.4" y1="3648.8999" x2="250.4" y2="3648.8999" gradientTransform="matrix(1 0 0 -1 0 4074)">
	<stop  offset="0" style="stop-color:#A5C6EA"/>
	<stop  offset="1" style="stop-color:#616187"/>
</linearGradient>
<path style="fill:#5591CD;stroke:url(#SVGID_00000134954039247943330720000004109204826139263623_);stroke-width:8;stroke-miterlimit:10;" d="
	M250.4,425.1"/>
<polygon class="st5" points="202.9,1075.5 385.1,1072.6 437.8,1130.5 437.8,1379.8 202.9,1379.8 "/>
<polygon class="st6" points="212.9,576.8 395.1,573.8 447.8,631.7 447.8,881 212.9,881 "/>
<polygon class="st7" points="180.8,314.7 184.4,287.4 237.1,338.8 209.7,343.3 "/>
<circle class="st7" cx="277.1" cy="245.2" r="101.8"/>
<linearGradient id="SVGID_00000067220875817538283610000003105648766240535694_" gradientUnits="userSpaceOnUse" x1="215.9352" y1="3889.9646" x2="338.2648" y2="3767.6353" gradientTransform="matrix(1 0 0 -1 0 4074)">
	<stop  offset="0" style="stop-color:#A0C8EB"/>
	<stop  offset="1" style="stop-color:#DEF0F5"/>
</linearGradient>
<circle style="fill:url(#SVGID_00000067220875817538283610000003105648766240535694_);" cx="277.1" cy="245.2" r="86.5"/>
<path class="st9" d="M209.8,248.3c0-38.6,31.3-69.9,69.9-69.9c19.5,0,37.2,8,49.8,20.9c-13-18.5-34.4-30.6-58.8-30.6
	c-39.6,0-71.7,32.1-71.7,71.7c0,27.5,15.5,51.4,38.3,63.4C220.6,291.1,209.8,270.9,209.8,248.3z"/>
<ellipse transform="matrix(0.6163 -0.7875 0.7875 0.6163 -70.8425 255.4197)" class="st10" cx="226.7" cy="200.4" rx="23.5" ry="16.2"/>
<linearGradient id="SVGID_00000074436657307758045770000010905832899169085829_" gradientUnits="userSpaceOnUse" x1="2077.6221" y1="-2314.0256" x2="2077.6221" y2="-2355.3433" gradientTransform="matrix(0.7025 -0.7117 0.7117 0.7025 342.4339 3502.8909)">
	<stop  offset="0" style="stop-color:#6A443F"/>
	<stop  offset="1" style="stop-color:#EAC067"/>
</linearGradient>
<polygon style="fill:url(#SVGID_00000074436657307758045770000010905832899169085829_);stroke:#010202;stroke-miterlimit:10;" points="
	209.7,343.3 100,453.6 71,425 180.8,314.7 "/>
<path class="st12" d="M348.5,173.2c18.7,18.4,30.2,44.1,30.2,72.4c0,56.2-45.6,101.8-101.8,101.8c-14.2,0-27.7-2.9-39.9-8.1l0,0
	l-27.4,4.4l-109.4,110l6.6,6.5l109.7-110.3l27.4-4.4l0,0c12.3,5.2,25.8,8.1,39.9,8.1c56.2,0,101.8-45.6,101.8-101.8
	C385.7,220.2,371.2,191.9,348.5,173.2z"/>
<linearGradient id="SVGID_00000123435241885638479510000000503377160657584013_" gradientUnits="userSpaceOnUse" x1="182.775" y1="3467.175" x2="452.375" y2="3197.575" gradientTransform="matrix(1 0 0 -1 0 4074)">
	<stop  offset="0" style="stop-color:#FBFAF5"/>
	<stop  offset="1" style="stop-color:#C9E3F0"/>
</linearGradient>
<linearGradient id="SVGID_00000102511405858569061140000011592840687144562862_" gradientUnits="userSpaceOnUse" x1="164.9725" y1="3425.2153" x2="482.3774" y2="3241.9617" gradientTransform="matrix(1 0 0 -1 0 4074)">
	<stop  offset="0" style="stop-color:#A5C6EA"/>
	<stop  offset="1" style="stop-color:#616187"/>
</linearGradient>
<polygon style="fill:url(#SVGID_00000123435241885638479510000000503377160657584013_);stroke:url(#SVGID_00000102511405858569061140000011592840687144562862_);stroke-width:8;stroke-miterlimit:10;" points="
	447.8,881 212.9,881 212.9,576.7 396.7,576.7 447.8,629.7 "/>
<linearGradient id="SVGID_00000060753484660783285860000010342156571176394651_" gradientUnits="userSpaceOnUse" x1="378.6983" y1="3478.7195" x2="450.4268" y2="3437.3071" gradientTransform="matrix(1 0 0 -1 0 4074)">
	<stop  offset="0" style="stop-color:#A5C6EA"/>
	<stop  offset="1" style="stop-color:#616187"/>
</linearGradient>
<polyline style="fill:#5591CD;stroke:url(#SVGID_00000060753484660783285860000010342156571176394651_);stroke-width:8;stroke-miterlimit:10;" points="
	395.1,573.8 395.1,631.7 451,631.7 "/>
<line class="st2" x1="247.3" y1="708.4" x2="414.6" y2="708.4"/>
<line class="st2" x1="247.3" y1="749.1" x2="414.6" y2="749.1"/>
<line class="st2" x1="247.3" y1="783" x2="414.6" y2="783"/>
<line class="st2" x1="247.3" y1="825.8" x2="414.6" y2="825.8"/>
<linearGradient id="SVGID_00000140699769820836401180000001057471178490353583_" gradientUnits="userSpaceOnUse" x1="211.8" y1="3180.5" x2="211.8" y2="3180.5" gradientTransform="matrix(1 0 0 -1 0 4074)">
	<stop  offset="0" style="stop-color:#A5C6EA"/>
	<stop  offset="1" style="stop-color:#616187"/>
</linearGradient>
<path style="fill:#5591CD;stroke:url(#SVGID_00000140699769820836401180000001057471178490353583_);stroke-width:8;stroke-miterlimit:10;" d="
	M211.8,893.5"/>
<linearGradient id="SVGID_00000094613328863670220410000016817656959406779582_" gradientUnits="userSpaceOnUse" x1="260.4" y1="3126.8999" x2="260.4" y2="3126.8999" gradientTransform="matrix(1 0 0 -1 0 4074)">
	<stop  offset="0" style="stop-color:#A5C6EA"/>
	<stop  offset="1" style="stop-color:#616187"/>
</linearGradient>
<path style="fill:#5591CD;stroke:url(#SVGID_00000094613328863670220410000016817656959406779582_);stroke-width:8;stroke-miterlimit:10;" d="
	M260.4,947.1"/>
<polygon class="st7" points="190.8,836.7 194.4,809.4 247.1,860.8 219.7,865.3 "/>
<circle class="st7" cx="287.1" cy="767.2" r="101.8"/>
<linearGradient id="SVGID_00000080926142964840798190000008688241836989060530_" gradientUnits="userSpaceOnUse" x1="225.9352" y1="3367.9646" x2="348.2648" y2="3245.6353" gradientTransform="matrix(1 0 0 -1 0 4074)">
	<stop  offset="0" style="stop-color:#A0C8EB"/>
	<stop  offset="1" style="stop-color:#DEF0F5"/>
</linearGradient>
<circle style="fill:url(#SVGID_00000080926142964840798190000008688241836989060530_);" cx="287.1" cy="767.2" r="86.5"/>
<path class="st9" d="M219.8,770.3c0-38.6,31.3-69.9,69.9-69.9c19.5,0,37.2,8,49.8,20.9c-13-18.5-34.4-30.6-58.8-30.6
	c-39.6,0-71.7,32.1-71.7,71.7c0,27.5,15.5,51.4,38.3,63.4C230.6,813.1,219.8,792.9,219.8,770.3z"/>
<ellipse transform="matrix(0.6163 -0.7875 0.7875 0.6163 -478.0834 463.5793)" class="st10" cx="236.7" cy="722.4" rx="23.5" ry="16.2"/>
<linearGradient id="SVGID_00000071558359681398254210000015507893976619741095_" gradientUnits="userSpaceOnUse" x1="1713.1482" y1="-1940.2124" x2="1713.1482" y2="-1981.53" gradientTransform="matrix(0.7025 -0.7117 0.7117 0.7025 342.4339 3502.8909)">
	<stop  offset="0" style="stop-color:#6A443F"/>
	<stop  offset="1" style="stop-color:#EAC067"/>
</linearGradient>
<polygon style="fill:url(#SVGID_00000071558359681398254210000015507893976619741095_);stroke:#010202;stroke-miterlimit:10;" points="
	219.7,865.3 110,975.6 81,947 190.8,836.7 "/>
<path class="st12" d="M358.5,695.2c18.7,18.4,30.2,44.1,30.2,72.4c0,56.2-45.6,101.8-101.8,101.8c-14.2,0-27.7-2.9-39.9-8.1l0,0
	l-27.4,4.4l-109.4,110l6.6,6.5l109.7-110.3l27.4-4.4l0,0c12.3,5.2,25.8,8.1,39.9,8.1c56.2,0,101.8-45.6,101.8-101.8
	C395.7,742.2,381.2,713.9,358.5,695.2z"/>
<linearGradient id="SVGID_00000017506446869848255260000004444247429036802228_" gradientUnits="userSpaceOnUse" x1="172.775" y1="2965.175" x2="442.3749" y2="2695.575" gradientTransform="matrix(1 0 0 -1 0 4074)">
	<stop  offset="0" style="stop-color:#FBFAF5"/>
	<stop  offset="1" style="stop-color:#C9E3F0"/>
</linearGradient>
<linearGradient id="SVGID_00000081640161074366748140000002603657265343207584_" gradientUnits="userSpaceOnUse" x1="154.9725" y1="2923.2153" x2="472.3774" y2="2739.9617" gradientTransform="matrix(1 0 0 -1 0 4074)">
	<stop  offset="0" style="stop-color:#A5C6EA"/>
	<stop  offset="1" style="stop-color:#616187"/>
</linearGradient>
<polygon style="fill:url(#SVGID_00000017506446869848255260000004444247429036802228_);stroke:url(#SVGID_00000081640161074366748140000002603657265343207584_);stroke-width:8;stroke-miterlimit:10;" points="
	437.8,1383 202.9,1383 202.9,1078.7 386.7,1078.7 437.8,1131.7 "/>
<linearGradient id="SVGID_00000127013533719912783770000015831731031074178718_" gradientUnits="userSpaceOnUse" x1="368.6983" y1="2976.7195" x2="440.4268" y2="2935.3071" gradientTransform="matrix(1 0 0 -1 0 4074)">
	<stop  offset="0" style="stop-color:#A5C6EA"/>
	<stop  offset="1" style="stop-color:#616187"/>
</linearGradient>
<polyline style="fill:#5591CD;stroke:url(#SVGID_00000127013533719912783770000015831731031074178718_);stroke-width:8;stroke-miterlimit:10;" points="
	385.1,1075.8 385.1,1133.7 441,1133.7 "/>
<line class="st2" x1="237.3" y1="1210.4" x2="404.6" y2="1210.4"/>
<line class="st2" x1="237.3" y1="1251.1" x2="404.6" y2="1251.1"/>
<line class="st2" x1="237.3" y1="1285" x2="404.6" y2="1285"/>
<line class="st2" x1="237.3" y1="1327.8" x2="404.6" y2="1327.8"/>
<linearGradient id="SVGID_00000008847581287275433520000001125042282755615149_" gradientUnits="userSpaceOnUse" x1="201.8" y1="2678.5" x2="201.8" y2="2678.5" gradientTransform="matrix(1 0 0 -1 0 4074)">
	<stop  offset="0" style="stop-color:#A5C6EA"/>
	<stop  offset="1" style="stop-color:#616187"/>
</linearGradient>
<path style="fill:#5591CD;stroke:url(#SVGID_00000008847581287275433520000001125042282755615149_);stroke-width:8;stroke-miterlimit:10;" d="
	M201.8,1395.5"/>
<linearGradient id="SVGID_00000106846000454433145770000003197054776999431576_" gradientUnits="userSpaceOnUse" x1="250.4" y1="2624.8999" x2="250.4" y2="2624.8999" gradientTransform="matrix(1 0 0 -1 0 4074)">
	<stop  offset="0" style="stop-color:#A5C6EA"/>
	<stop  offset="1" style="stop-color:#616187"/>
</linearGradient>
<path style="fill:#5591CD;stroke:url(#SVGID_00000106846000454433145770000003197054776999431576_);stroke-width:8;stroke-miterlimit:10;" d="
	M250.4,1449.1"/>
<polygon class="st7" points="180.8,1338.7 184.4,1311.4 237.1,1362.8 209.7,1367.3 "/>
<circle class="st7" cx="277.1" cy="1269.2" r="101.8"/>
<linearGradient id="SVGID_00000116933007067120809060000001035178640612401313_" gradientUnits="userSpaceOnUse" x1="215.9353" y1="2865.9648" x2="338.2648" y2="2743.6353" gradientTransform="matrix(1 0 0 -1 0 4074)">
	<stop  offset="0" style="stop-color:#A0C8EB"/>
	<stop  offset="1" style="stop-color:#DEF0F5"/>
</linearGradient>
<circle style="fill:url(#SVGID_00000116933007067120809060000001035178640612401313_);" cx="277.1" cy="1269.2" r="86.5"/>
<path class="st9" d="M209.8,1272.3c0-38.6,31.3-69.9,69.9-69.9c19.5,0,37.2,8,49.8,20.9c-13-18.5-34.4-30.6-58.8-30.6
	c-39.6,0-71.7,32.1-71.7,71.7c0,27.5,15.5,51.4,38.3,63.4C220.6,1315.1,209.8,1294.9,209.8,1272.3z"/>
<ellipse transform="matrix(0.6163 -0.7875 0.7875 0.6163 -877.248 648.3148)" class="st10" cx="226.7" cy="1224.4" rx="23.5" ry="16.2"/>
<linearGradient id="SVGID_00000047748552515748514800000017807263130941531554_" gradientUnits="userSpaceOnUse" x1="1348.8582" y1="-1594.6824" x2="1348.8582" y2="-1636" gradientTransform="matrix(0.7025 -0.7117 0.7117 0.7025 342.4339 3502.8909)">
	<stop  offset="0" style="stop-color:#6A443F"/>
	<stop  offset="1" style="stop-color:#EAC067"/>
</linearGradient>
<polygon style="fill:url(#SVGID_00000047748552515748514800000017807263130941531554_);stroke:#010202;stroke-miterlimit:10;" points="
	209.7,1367.3 100,1477.6 71,1449 180.8,1338.7 "/>
<path class="st12" d="M348.5,1197.2c18.7,18.4,30.2,44.1,30.2,72.4c0,56.2-45.6,101.8-101.8,101.8c-14.2,0-27.7-2.9-39.9-8.1l0,0
	l-27.4,4.4l-109.4,110l6.6,6.5l109.7-110.3l27.4-4.4l0,0c12.3,5.2,25.8,8.1,39.9,8.1c56.2,0,101.8-45.6,101.8-101.8
	C385.7,1244.2,371.2,1215.9,348.5,1197.2z"/>
<linearGradient id="SVGID_00000071553649724717575630000001786494176783486617_" gradientUnits="userSpaceOnUse" x1="172.775" y1="2453.175" x2="442.375" y2="2183.575" gradientTransform="matrix(1 0 0 -1 0 4074)">
	<stop  offset="0" style="stop-color:#FBFBFB"/>
	<stop  offset="1" style="stop-color:#F0F0F0"/>
</linearGradient>
<linearGradient id="SVGID_00000170245729694012321170000010694514551259684247_" gradientUnits="userSpaceOnUse" x1="154.9725" y1="2411.2153" x2="472.3774" y2="2227.9617" gradientTransform="matrix(1 0 0 -1 0 4074)">
	<stop  offset="0" style="stop-color:#EAEAEA"/>
	<stop  offset="1" style="stop-color:#878787"/>
</linearGradient>
<polygon style="fill:url(#SVGID_00000071553649724717575630000001786494176783486617_);stroke:url(#SVGID_00000170245729694012321170000010694514551259684247_);stroke-width:8;stroke-miterlimit:10;" points="
	437.8,1895 202.9,1895 202.9,1590.7 386.7,1590.7 437.8,1643.7 "/>
<linearGradient id="SVGID_00000044145058744472496880000010335677448036122779_" gradientUnits="userSpaceOnUse" x1="368.6983" y1="2464.7195" x2="440.4268" y2="2423.3071" gradientTransform="matrix(1 0 0 -1 0 4074)">
	<stop  offset="0" style="stop-color:#EAEAEA"/>
	<stop  offset="1" style="stop-color:#878787"/>
</linearGradient>
<polyline style="fill:#CDCDCD;stroke:url(#SVGID_00000044145058744472496880000010335677448036122779_);stroke-width:8;stroke-miterlimit:10;" points="
	385.1,1587.8 385.1,1645.7 441,1645.7 "/>
<line class="st27" x1="237.3" y1="1722.4" x2="404.6" y2="1722.4"/>
<line class="st27" x1="237.3" y1="1763.1" x2="404.6" y2="1763.1"/>
<line class="st27" x1="237.3" y1="1797" x2="404.6" y2="1797"/>
<line class="st27" x1="237.3" y1="1839.8" x2="404.6" y2="1839.8"/>
<linearGradient id="SVGID_00000168830870895390087950000011835938811094483366_" gradientUnits="userSpaceOnUse" x1="201.8" y1="2166.5" x2="201.8" y2="2166.5" gradientTransform="matrix(1 0 0 -1 0 4074)">
	<stop  offset="0" style="stop-color:#EAEAEA"/>
	<stop  offset="1" style="stop-color:#878787"/>
</linearGradient>
<path style="fill:#CDCDCD;stroke:url(#SVGID_00000168830870895390087950000011835938811094483366_);stroke-width:8;stroke-miterlimit:10;" d="
	M201.8,1907.5"/>
<linearGradient id="SVGID_00000111876545215693553390000004766290609755407240_" gradientUnits="userSpaceOnUse" x1="250.4" y1="2112.8999" x2="250.4" y2="2112.8999" gradientTransform="matrix(1 0 0 -1 0 4074)">
	<stop  offset="0" style="stop-color:#EAEAEA"/>
	<stop  offset="1" style="stop-color:#878787"/>
</linearGradient>
<path style="fill:#CDCDCD;stroke:url(#SVGID_00000111876545215693553390000004766290609755407240_);stroke-width:8;stroke-miterlimit:10;" d="
	M250.4,1961.1"/>
<polygon class="st30" points="180.8,1850.7 184.4,1823.4 237.1,1874.8 209.7,1879.3 "/>
<circle class="st30" cx="277.1" cy="1781.2" r="101.8"/>
<linearGradient id="SVGID_00000011723039246220737430000000004145110015464366_" gradientUnits="userSpaceOnUse" x1="215.9353" y1="2353.9648" x2="338.2648" y2="2231.6353" gradientTransform="matrix(1 0 0 -1 0 4074)">
	<stop  offset="0" style="stop-color:#EBEBEB"/>
	<stop  offset="1" style="stop-color:#F5F5F5"/>
</linearGradient>
<circle style="fill:url(#SVGID_00000011723039246220737430000000004145110015464366_);" cx="277.1" cy="1781.2" r="86.5"/>
<path class="st9" d="M209.8,1784.3c0-38.6,31.3-69.9,69.9-69.9c19.5,0,37.2,8,49.8,20.9c-13-18.5-34.4-30.6-58.8-30.6
	c-39.6,0-71.7,32.1-71.7,71.7c0,27.5,15.5,51.4,38.3,63.4C220.6,1827.1,209.8,1806.9,209.8,1784.3z"/>
<ellipse transform="matrix(0.6163 -0.7875 0.7875 0.6163 -1280.4507 844.7625)" class="st10" cx="226.7" cy="1736.4" rx="23.5" ry="16.2"/>
<linearGradient id="SVGID_00000088103348790175795990000006751816289550968459_" gradientUnits="userSpaceOnUse" x1="984.4763" y1="-1235.0107" x2="984.4763" y2="-1276.3284" gradientTransform="matrix(0.7025 -0.7117 0.7117 0.7025 342.4339 3502.8909)">
	<stop  offset="0" style="stop-color:#6A6A6A"/>
	<stop  offset="1" style="stop-color:#EAEAEA"/>
</linearGradient>
<polygon style="fill:url(#SVGID_00000088103348790175795990000006751816289550968459_);stroke:#020202;stroke-miterlimit:10;" points="
	209.7,1879.3 100,1989.6 71,1961 180.8,1850.7 "/>
<path class="st33" d="M348.5,1709.2c18.7,18.4,30.2,44.1,30.2,72.4c0,56.2-45.6,101.8-101.8,101.8c-14.2,0-27.7-2.9-39.9-8.1l0,0
	l-27.4,4.4l-109.4,110l6.6,6.5l109.7-110.3l27.4-4.4l0,0c12.3,5.2,25.8,8.1,39.9,8.1c56.2,0,101.8-45.6,101.8-101.8
	C385.7,1756.2,371.2,1727.9,348.5,1709.2z"/>
</svg>
