<?xml version="1.0" encoding="utf-8"?>
<!-- Generator: Adobe Illustrator 27.0.1, SVG Export Plug-In . SVG Version: 6.00 Build 0)  -->
<svg version="1.1" id="Calque_1" xmlns="http://www.w3.org/2000/svg" xmlns:xlink="http://www.w3.org/1999/xlink" x="0px" y="0px"
	 viewBox="0 0 512 2048" style="enable-background:new 0 0 512 2048;" xml:space="preserve">
<style type="text/css">
	.st0{opacity:0.5;fill:#A0A09F;}
	
		.st1{fill:url(#SVGID_1_);stroke:url(#SVGID_00000064334063104149142090000011769514200866512825_);stroke-width:8;stroke-miterlimit:10;}
	.st2{fill:none;stroke:#000000;stroke-width:8;stroke-linecap:round;stroke-miterlimit:10;}
	.st3{fill:#5691CC;stroke:url(#SVGID_00000018228256759803077080000014535765049359881398_);stroke-width:8;stroke-miterlimit:10;}
	.st4{fill:#5691CC;stroke:url(#SVGID_00000126294864286902814920000009016662851148956852_);stroke-width:8;stroke-miterlimit:10;}
	.st5{opacity:0.9;fill:#75C8D6;enable-background:new    ;}
	.st6{opacity:0.5;fill:none;stroke:#000000;stroke-width:8;stroke-miterlimit:10;enable-background:new    ;}
	.st7{fill:url(#SVGID_00000152947193279894532390000011689888752975919285_);}
	.st8{fill:#EED786;}
	.st9{fill:#010202;}
	
		.st10{fill:url(#SVGID_00000069378222218042251910000014510827713596673423_);stroke:url(#SVGID_00000149370010416169461500000003216103800149172883_);stroke-width:8;stroke-miterlimit:10;}
	.st11{fill:#5691CC;stroke:url(#SVGID_00000100364451103221563920000000193808294657498796_);stroke-width:8;stroke-miterlimit:10;}
	.st12{fill:#5691CC;stroke:url(#SVGID_00000001630604131026701680000014592465124961086094_);stroke-width:8;stroke-miterlimit:10;}
	.st13{opacity:0.9;fill:#F7A51C;enable-background:new    ;}
	.st14{fill:url(#SVGID_00000075880169086133907340000010632220887011285636_);}
	
		.st15{fill:url(#SVGID_00000065786850291185335860000004730110874598212770_);stroke:url(#SVGID_00000130606573597195187270000000200288851898961062_);stroke-width:8;stroke-miterlimit:10;}
	.st16{fill:#5691CC;stroke:url(#SVGID_00000075126877397267405340000003674740386575767710_);stroke-width:8;stroke-miterlimit:10;}
	.st17{fill:#5691CC;stroke:url(#SVGID_00000116222315742845896390000011650898316934627504_);stroke-width:8;stroke-miterlimit:10;}
	.st18{opacity:0.9;fill:#3AB2E7;enable-background:new    ;}
	.st19{fill:url(#SVGID_00000065793146909729741960000012052236452678897827_);}
	.st20{opacity:0.5;fill:#949494;}
	
		.st21{fill:url(#SVGID_00000106863766886069139300000001112612125560238219_);stroke:url(#SVGID_00000077288360200231348670000013857711226353166983_);stroke-width:8;stroke-miterlimit:10;}
	.st22{fill:#969696;stroke:url(#SVGID_00000107561075314230601340000013751150844120117671_);stroke-width:8;stroke-miterlimit:10;}
	.st23{fill:#5691CC;stroke:url(#SVGID_00000091706950419007764530000002083109096303437216_);stroke-width:8;stroke-miterlimit:10;}
	.st24{opacity:0.9;fill:#D0D0D0;enable-background:new    ;}
	.st25{fill:url(#SVGID_00000041292872060169629120000008073567263223341205_);}
	.st26{fill:#D4D4D4;}
</style>
<polygon class="st0" points="434.83,107.68 434.83,459.06 119.81,459.06 119.81,478.23 450.74,478.23 450.74,124.17 "/>
<linearGradient id="SVGID_1_" gradientUnits="userSpaceOnUse" x1="61.4575" y1="1971.8975" x2="441.2725" y2="1592.0825" gradientTransform="matrix(1 0 0 -1 0 2048)">
	<stop  offset="0" style="stop-color:#FBF9F4"/>
	<stop  offset="1" style="stop-color:#C8E3F0"/>
</linearGradient>
<linearGradient id="SVGID_00000018197874786421450160000007476005874195683257_" gradientUnits="userSpaceOnUse" x1="38.4303" y1="1911.8713" x2="481.7245" y2="1655.9354" gradientTransform="matrix(1 0 0 -1 0 2048)">
	<stop  offset="0" style="stop-color:#A4C6EA"/>
	<stop  offset="1" style="stop-color:#606086"/>
</linearGradient>
<polygon style="fill:url(#SVGID_1_);stroke:url(#SVGID_00000018197874786421450160000007476005874195683257_);stroke-width:8;stroke-miterlimit:10;" points="
	434.83,462.36 103.9,462.36 103.9,33.66 362.83,33.66 434.83,108.3 "/>
<line class="st2" x1="363.66" y1="33.66" x2="435.42" y2="109.11"/>
<linearGradient id="SVGID_00000161632866974562189280000011342643243094160773_" gradientUnits="userSpaceOnUse" x1="339.1183" y1="1988.0908" x2="438.1948" y2="1930.889" gradientTransform="matrix(1 0 0 -1 0 2048)">
	<stop  offset="0" style="stop-color:#A4C6EA"/>
	<stop  offset="1" style="stop-color:#606086"/>
</linearGradient>
<polyline style="fill:#5691CC;stroke:url(#SVGID_00000161632866974562189280000011342643243094160773_);stroke-width:8;stroke-miterlimit:10;" points="
	360.66,29.53 360.58,111.11 439.35,111.11 "/>
<linearGradient id="SVGID_00000152263367955514030610000010609945344553203337_" gradientUnits="userSpaceOnUse" x1="360.66" y1="2014.34" x2="360.66" y2="2014.34" gradientTransform="matrix(1 0 0 -1 0 2048)">
	<stop  offset="0" style="stop-color:#A4C6EA"/>
	<stop  offset="1" style="stop-color:#606086"/>
</linearGradient>
<path style="fill:#5691CC;stroke:url(#SVGID_00000152263367955514030610000010609945344553203337_);stroke-width:8;stroke-miterlimit:10;" d="
	M360.66,33.66"/>
<path class="st5" d="M186.8,60.32L44.12,268.06l405.25-41.61L186.8,60.32z M195.87,122.88l106.96,67.67L137.75,207.5L195.87,122.88z
	"/>
<line class="st6" x1="53.48" y1="270.36" x2="449.37" y2="229.84"/>
<linearGradient id="SVGID_00000060733527797588188500000005504462838810557108_" gradientUnits="userSpaceOnUse" x1="240.652" y1="1640.4138" x2="240.652" y2="1689.3115" gradientTransform="matrix(0.9554 0.2953 0.2953 -0.9554 -494.4129 1888.9053)">
	<stop  offset="0" style="stop-color:#69433E"/>
	<stop  offset="1" style="stop-color:#E9BF66"/>
</linearGradient>
<polygon style="fill:url(#SVGID_00000060733527797588188500000005504462838810557108_);" points="351.82,433.47 88.02,351.95 
	102.46,305.25 366.26,386.77 "/>
<polygon class="st8" points="366.26,386.77 406.58,424.82 351.82,433.47 "/>
<polygon class="st9" points="391.17,410.28 385.75,427.83 406.58,424.82 "/>
<polygon class="st0" points="434.83,619.68 434.83,971.06 119.81,971.06 119.81,990.23 450.74,990.23 450.74,636.17 "/>
<linearGradient id="SVGID_00000003066586296509984060000009991379738485973660_" gradientUnits="userSpaceOnUse" x1="61.4575" y1="1459.8976" x2="441.2725" y2="1080.0825" gradientTransform="matrix(1 0 0 -1 0 2048)">
	<stop  offset="0" style="stop-color:#FBF9F4"/>
	<stop  offset="1" style="stop-color:#C8E3F0"/>
</linearGradient>
<linearGradient id="SVGID_00000101092948582830711750000018274271031067622573_" gradientUnits="userSpaceOnUse" x1="38.4303" y1="1399.8715" x2="481.7245" y2="1143.9354" gradientTransform="matrix(1 0 0 -1 0 2048)">
	<stop  offset="0" style="stop-color:#A4C6EA"/>
	<stop  offset="1" style="stop-color:#606086"/>
</linearGradient>
<polygon style="fill:url(#SVGID_00000003066586296509984060000009991379738485973660_);stroke:url(#SVGID_00000101092948582830711750000018274271031067622573_);stroke-width:8;stroke-miterlimit:10;" points="
	434.83,974.36 103.9,974.36 103.9,545.66 362.83,545.66 434.83,620.3 "/>
<line class="st2" x1="363.66" y1="545.66" x2="435.42" y2="621.11"/>
<linearGradient id="SVGID_00000143582743800612191330000005044710906036118411_" gradientUnits="userSpaceOnUse" x1="339.1184" y1="1476.0908" x2="438.1948" y2="1418.889" gradientTransform="matrix(1 0 0 -1 0 2048)">
	<stop  offset="0" style="stop-color:#A4C6EA"/>
	<stop  offset="1" style="stop-color:#606086"/>
</linearGradient>
<polyline style="fill:#5691CC;stroke:url(#SVGID_00000143582743800612191330000005044710906036118411_);stroke-width:8;stroke-miterlimit:10;" points="
	360.66,541.53 360.58,623.11 439.35,623.11 "/>
<linearGradient id="SVGID_00000089552209964353502090000018121115430283047324_" gradientUnits="userSpaceOnUse" x1="360.66" y1="1502.3401" x2="360.66" y2="1502.3401" gradientTransform="matrix(1 0 0 -1 0 2048)">
	<stop  offset="0" style="stop-color:#A4C6EA"/>
	<stop  offset="1" style="stop-color:#606086"/>
</linearGradient>
<path style="fill:#5691CC;stroke:url(#SVGID_00000089552209964353502090000018121115430283047324_);stroke-width:8;stroke-miterlimit:10;" d="
	M360.66,545.66"/>
<path class="st13" d="M186.8,572.32L44.12,780.06l405.25-41.61L186.8,572.32z M195.87,634.88l106.96,67.67L137.75,719.5
	L195.87,634.88z"/>
<line class="st6" x1="53.48" y1="782.36" x2="449.37" y2="741.84"/>
<linearGradient id="SVGID_00000124135055713832786190000007231403454359160471_" gradientUnits="userSpaceOnUse" x1="391.847" y1="1151.2448" x2="391.847" y2="1200.1425" gradientTransform="matrix(0.9554 0.2953 0.2953 -0.9554 -494.4129 1888.9053)">
	<stop  offset="0" style="stop-color:#69433E"/>
	<stop  offset="1" style="stop-color:#E9BF66"/>
</linearGradient>
<polygon style="fill:url(#SVGID_00000124135055713832786190000007231403454359160471_);" points="351.82,945.47 88.02,863.95 
	102.46,817.25 366.26,898.77 "/>
<polygon class="st8" points="366.26,898.77 406.58,936.82 351.82,945.47 "/>
<polygon class="st9" points="391.17,922.28 385.75,939.83 406.58,936.82 "/>
<polygon class="st0" points="434.83,1131.68 434.83,1483.06 119.81,1483.06 119.81,1502.23 450.74,1502.23 450.74,1148.17 "/>
<linearGradient id="SVGID_00000183218329486574103320000008804365936657348484_" gradientUnits="userSpaceOnUse" x1="61.4575" y1="947.8975" x2="441.2725" y2="568.0825" gradientTransform="matrix(1 0 0 -1 0 2048)">
	<stop  offset="0" style="stop-color:#FBF9F4"/>
	<stop  offset="1" style="stop-color:#C8E3F0"/>
</linearGradient>
<linearGradient id="SVGID_00000015332287090869261250000008421637078474803101_" gradientUnits="userSpaceOnUse" x1="38.4303" y1="887.8714" x2="481.7245" y2="631.9354" gradientTransform="matrix(1 0 0 -1 0 2048)">
	<stop  offset="0" style="stop-color:#A4C6EA"/>
	<stop  offset="1" style="stop-color:#606086"/>
</linearGradient>
<polygon style="fill:url(#SVGID_00000183218329486574103320000008804365936657348484_);stroke:url(#SVGID_00000015332287090869261250000008421637078474803101_);stroke-width:8;stroke-miterlimit:10;" points="
	434.83,1486.36 103.9,1486.36 103.9,1057.66 362.83,1057.66 434.83,1132.3 "/>
<line class="st2" x1="363.66" y1="1057.66" x2="435.42" y2="1133.11"/>
<linearGradient id="SVGID_00000047034680938988942420000006907252334570017926_" gradientUnits="userSpaceOnUse" x1="339.1183" y1="964.0909" x2="438.1948" y2="906.889" gradientTransform="matrix(1 0 0 -1 0 2048)">
	<stop  offset="0" style="stop-color:#A4C6EA"/>
	<stop  offset="1" style="stop-color:#606086"/>
</linearGradient>
<polyline style="fill:#5691CC;stroke:url(#SVGID_00000047034680938988942420000006907252334570017926_);stroke-width:8;stroke-miterlimit:10;" points="
	360.66,1053.53 360.58,1135.11 439.35,1135.11 "/>
<linearGradient id="SVGID_00000048480929227928868540000010807601181343003039_" gradientUnits="userSpaceOnUse" x1="360.66" y1="990.34" x2="360.66" y2="990.34" gradientTransform="matrix(1 0 0 -1 0 2048)">
	<stop  offset="0" style="stop-color:#A4C6EA"/>
	<stop  offset="1" style="stop-color:#606086"/>
</linearGradient>
<path style="fill:#5691CC;stroke:url(#SVGID_00000048480929227928868540000010807601181343003039_);stroke-width:8;stroke-miterlimit:10;" d="
	M360.66,1057.66"/>
<path class="st18" d="M186.8,1084.32L44.12,1292.06l405.25-41.61L186.8,1084.32z M195.87,1146.88l106.96,67.67l-165.08,16.95
	L195.87,1146.88z"/>
<line class="st6" x1="53.48" y1="1294.36" x2="449.37" y2="1253.84"/>
<linearGradient id="SVGID_00000171687920611320183560000011468250219903894956_" gradientUnits="userSpaceOnUse" x1="543.0419" y1="662.0757" x2="543.0419" y2="710.9734" gradientTransform="matrix(0.9554 0.2953 0.2953 -0.9554 -494.4129 1888.9053)">
	<stop  offset="0" style="stop-color:#69433E"/>
	<stop  offset="1" style="stop-color:#E9BF66"/>
</linearGradient>
<polygon style="fill:url(#SVGID_00000171687920611320183560000011468250219903894956_);" points="351.82,1457.47 88.02,1375.95 
	102.46,1329.25 366.26,1410.77 "/>
<polygon class="st8" points="366.26,1410.77 406.58,1448.82 351.82,1457.47 "/>
<polygon class="st9" points="391.17,1434.28 385.75,1451.83 406.58,1448.82 "/>
<polygon class="st20" points="434.83,1643.68 434.83,1995.06 119.81,1995.06 119.81,2014.23 450.74,2014.23 450.74,1660.17 "/>
<linearGradient id="SVGID_00000069400368563463136100000007122466362579322292_" gradientUnits="userSpaceOnUse" x1="61.4575" y1="435.8975" x2="441.2725" y2="56.0825" gradientTransform="matrix(1 0 0 -1 0 2048)">
	<stop  offset="0" style="stop-color:#F8F8F8"/>
	<stop  offset="1" style="stop-color:#E6E6E6"/>
</linearGradient>
<linearGradient id="SVGID_00000088830175030746058630000016507299479695952007_" gradientUnits="userSpaceOnUse" x1="38.4303" y1="375.8714" x2="481.7245" y2="119.9354" gradientTransform="matrix(1 0 0 -1 0 2048)">
	<stop  offset="0" style="stop-color:#CCCCCC"/>
	<stop  offset="1" style="stop-color:#4E4E4E"/>
</linearGradient>
<polygon style="fill:url(#SVGID_00000069400368563463136100000007122466362579322292_);stroke:url(#SVGID_00000088830175030746058630000016507299479695952007_);stroke-width:8;stroke-miterlimit:10;" points="
	434.83,1998.36 103.9,1998.36 103.9,1569.66 362.83,1569.66 434.83,1644.3 "/>
<line class="st2" x1="363.66" y1="1569.66" x2="435.42" y2="1645.11"/>
<linearGradient id="SVGID_00000089538952819292260480000012116435862392757168_" gradientUnits="userSpaceOnUse" x1="339.1183" y1="452.0909" x2="438.1948" y2="394.8891" gradientTransform="matrix(1 0 0 -1 0 2048)">
	<stop  offset="0" style="stop-color:#CCCCCC"/>
	<stop  offset="1" style="stop-color:#4E4E4E"/>
</linearGradient>
<polyline style="fill:#969696;stroke:url(#SVGID_00000089538952819292260480000012116435862392757168_);stroke-width:8;stroke-miterlimit:10;" points="
	360.66,1565.53 360.58,1647.11 439.35,1647.11 "/>
<linearGradient id="SVGID_00000163754558269344010090000015381002430216102040_" gradientUnits="userSpaceOnUse" x1="360.66" y1="478.34" x2="360.66" y2="478.34" gradientTransform="matrix(1 0 0 -1 0 2048)">
	<stop  offset="0" style="stop-color:#A4C6EA"/>
	<stop  offset="1" style="stop-color:#606086"/>
</linearGradient>
<path style="fill:#5691CC;stroke:url(#SVGID_00000163754558269344010090000015381002430216102040_);stroke-width:8;stroke-miterlimit:10;" d="
	M360.66,1569.66"/>
<path class="st24" d="M186.8,1596.32L44.12,1804.06l405.25-41.61L186.8,1596.32z M195.87,1658.88l106.96,67.67l-165.08,16.95
	L195.87,1658.88z"/>
<line class="st6" x1="53.48" y1="1806.36" x2="449.37" y2="1765.84"/>
<linearGradient id="SVGID_00000129170077762282574500000005075143240938833829_" gradientUnits="userSpaceOnUse" x1="694.2368" y1="172.9067" x2="694.2368" y2="221.8043" gradientTransform="matrix(0.9554 0.2953 0.2953 -0.9554 -494.4129 1888.9053)">
	<stop  offset="0" style="stop-color:#000000"/>
	<stop  offset="1" style="stop-color:#BCBCBC"/>
</linearGradient>
<polygon style="fill:url(#SVGID_00000129170077762282574500000005075143240938833829_);" points="351.82,1969.47 88.02,1887.95 
	102.46,1841.25 366.26,1922.77 "/>
<polygon class="st26" points="366.26,1922.77 406.58,1960.82 351.82,1969.47 "/>
<polygon points="391.17,1946.28 385.75,1963.83 406.58,1960.82 "/>
</svg>
