<?xml version="1.0" encoding="utf-8"?>
<!-- Generator: Adobe Illustrator 27.1.0, SVG Export Plug-In . SVG Version: 6.00 Build 0)  -->
<svg version="1.1" id="Calque_1" xmlns="http://www.w3.org/2000/svg" xmlns:xlink="http://www.w3.org/1999/xlink" x="0px" y="0px"
	 viewBox="0 0 512 2048" style="enable-background:new 0 0 512 2048;" xml:space="preserve">
<style type="text/css">
	.st0{fill:url(#SVGID_1_);stroke:#828380;stroke-width:10;stroke-miterlimit:10;}
	.st1{fill:url(#SVGID_00000057138952272980620410000005774502095904731070_);stroke:#828380;stroke-width:10;stroke-miterlimit:10;}
	.st2{fill:url(#SVGID_00000054984956799449237940000013212572448893741734_);stroke:#828380;stroke-width:10;stroke-miterlimit:10;}
	.st3{fill:url(#SVGID_00000074439467331232007240000013623880420287028400_);stroke:#828380;stroke-width:10;stroke-miterlimit:10;}
	.st4{fill:url(#SVGID_00000023259151645804687460000001174198226147004578_);stroke:#828380;stroke-width:10;stroke-miterlimit:10;}
	.st5{fill:url(#SVGID_00000080894672650046916610000011431262874118117255_);stroke:#828380;stroke-width:10;stroke-miterlimit:10;}
	.st6{fill:url(#SVGID_00000167389407822340047970000001026380811756016830_);stroke:#828380;stroke-width:10;stroke-miterlimit:10;}
	.st7{fill:url(#SVGID_00000031896662930616595030000000949910264494852764_);stroke:#828380;stroke-width:10;stroke-miterlimit:10;}
	.st8{fill:url(#SVGID_00000035530656783519198640000005916715531311839411_);stroke:#828380;stroke-width:10;stroke-miterlimit:10;}
	.st9{fill:url(#SVGID_00000098212735251109117100000002802218518559304876_);stroke:#828380;stroke-width:10;stroke-miterlimit:10;}
	
		.st10{fill:url(#SVGID_00000120553745639478210860000015037442348550305925_);stroke:#828380;stroke-width:10;stroke-miterlimit:10;}
	
		.st11{fill:url(#SVGID_00000088835204567449028000000010299630089795640483_);stroke:#828380;stroke-width:10;stroke-miterlimit:10;}
	
		.st12{fill:url(#SVGID_00000054971206224607521120000017166766038271801235_);stroke:#828282;stroke-width:10;stroke-miterlimit:10;}
	
		.st13{fill:url(#SVGID_00000169517894787055032400000005125021654336991930_);stroke:#828282;stroke-width:10;stroke-miterlimit:10;}
	
		.st14{fill:url(#SVGID_00000112602969155319466640000014297924051590413490_);stroke:#828282;stroke-width:10;stroke-miterlimit:10;}
	
		.st15{fill:url(#SVGID_00000054257061867992415520000009292018203324838301_);stroke:#828282;stroke-width:10;stroke-miterlimit:10;}
	.st16{fill:url(#SVGID_00000131336778298647125770000014238399098474105266_);stroke:#030405;stroke-width:8;stroke-miterlimit:10;}
	.st17{fill:url(#SVGID_00000051363291487288491150000014320992539694773122_);stroke:#030405;stroke-width:8;stroke-miterlimit:10;}
	.st18{fill:url(#SVGID_00000056423351726521753980000017352307107012089757_);stroke:#030405;stroke-width:8;stroke-miterlimit:10;}
	.st19{fill:url(#SVGID_00000182511205637834136180000018320213764809547427_);stroke:#000000;stroke-width:8;stroke-miterlimit:10;}
</style>
<linearGradient id="SVGID_1_" gradientUnits="userSpaceOnUse" x1="256" y1="1823.6" x2="256" y2="1982" gradientTransform="matrix(1 0 0 -1 0 2048)">
	<stop  offset="0" style="stop-color:#8F8FBC"/>
	<stop  offset="1" style="stop-color:#EBEAE7"/>
</linearGradient>
<ellipse class="st0" cx="256" cy="145.2" rx="164.7" ry="79.2"/>
<linearGradient id="SVGID_00000048493224556957085760000007469833688310606519_" gradientUnits="userSpaceOnUse" x1="420.7" y1="1826.25" x2="91.3" y2="1826.25" gradientTransform="matrix(1 0 0 -1 0 2048)">
	<stop  offset="0" style="stop-color:#8F8FBC"/>
	<stop  offset="1" style="stop-color:#EBEAE7"/>
</linearGradient>
<path style="fill:url(#SVGID_00000048493224556957085760000007469833688310606519_);stroke:#828380;stroke-width:10;stroke-miterlimit:10;" d="
	M91.3,215.2c0,0,0.4,83.2,164.7,83.2s164.7-83.2,164.7-83.2v-70.1c0,0-5.4,76.7-161.7,78.9c-157.6,2.2-167.7-78.9-167.7-78.9V215.2z
	"/>
<linearGradient id="SVGID_00000163045664416654546500000013516887121345024179_" gradientUnits="userSpaceOnUse" x1="420.7" y1="1749.55" x2="91.3" y2="1749.55" gradientTransform="matrix(1 0 0 -1 0 2048)">
	<stop  offset="0" style="stop-color:#8F8FBC"/>
	<stop  offset="1" style="stop-color:#EBEAE7"/>
</linearGradient>
<path style="fill:url(#SVGID_00000163045664416654546500000013516887121345024179_);stroke:#828380;stroke-width:10;stroke-miterlimit:10;" d="
	M91.3,291.9c0,0,0.4,83.2,164.7,83.2s164.7-83.2,164.7-83.2v-70.1c0,0-5.4,76.7-161.7,78.9c-157.6,2.2-167.7-78.9-167.7-78.9V291.9z
	"/>
<linearGradient id="SVGID_00000008122101146866965320000014044993306060108969_" gradientUnits="userSpaceOnUse" x1="420.7" y1="1678.65" x2="91.3" y2="1678.65" gradientTransform="matrix(1 0 0 -1 0 2048)">
	<stop  offset="0" style="stop-color:#8F8FBC"/>
	<stop  offset="1" style="stop-color:#EBEAE7"/>
</linearGradient>
<path style="fill:url(#SVGID_00000008122101146866965320000014044993306060108969_);stroke:#828380;stroke-width:10;stroke-miterlimit:10;" d="
	M91.3,362.8c0,0,0.4,83.2,164.7,83.2s164.7-83.2,164.7-83.2v-70.1c0,0-5.4,76.7-161.7,78.9c-157.6,2.2-167.7-78.9-167.7-78.9V362.8z
	"/>
<linearGradient id="SVGID_00000008107461870034917910000017456330547810571445_" gradientUnits="userSpaceOnUse" x1="266" y1="1301.6" x2="266" y2="1460" gradientTransform="matrix(1 0 0 -1 0 2048)">
	<stop  offset="0" style="stop-color:#8F8FBC"/>
	<stop  offset="1" style="stop-color:#EBEAE7"/>
</linearGradient>
<ellipse style="fill:url(#SVGID_00000008107461870034917910000017456330547810571445_);stroke:#828380;stroke-width:10;stroke-miterlimit:10;" cx="266" cy="667.2" rx="164.7" ry="79.2"/>
<linearGradient id="SVGID_00000031901288579044513640000002385089974329659275_" gradientUnits="userSpaceOnUse" x1="430.7" y1="1304.25" x2="101.3" y2="1304.25" gradientTransform="matrix(1 0 0 -1 0 2048)">
	<stop  offset="0" style="stop-color:#8F8FBC"/>
	<stop  offset="1" style="stop-color:#EBEAE7"/>
</linearGradient>
<path style="fill:url(#SVGID_00000031901288579044513640000002385089974329659275_);stroke:#828380;stroke-width:10;stroke-miterlimit:10;" d="
	M101.3,737.2c0,0,0.4,83.2,164.7,83.2s164.7-83.2,164.7-83.2v-70.1c0,0-5.4,76.7-161.7,78.9c-157.6,2.2-167.7-78.9-167.7-78.9V737.2
	z"/>
<linearGradient id="SVGID_00000154411076305858916090000011615628864145505208_" gradientUnits="userSpaceOnUse" x1="430.7" y1="1227.5499" x2="101.3" y2="1227.5499" gradientTransform="matrix(1 0 0 -1 0 2048)">
	<stop  offset="0" style="stop-color:#8F8FBC"/>
	<stop  offset="1" style="stop-color:#EBEAE7"/>
</linearGradient>
<path style="fill:url(#SVGID_00000154411076305858916090000011615628864145505208_);stroke:#828380;stroke-width:10;stroke-miterlimit:10;" d="
	M101.3,813.9c0,0,0.4,83.2,164.7,83.2s164.7-83.2,164.7-83.2v-70.1c0,0-5.4,76.7-161.7,78.9c-157.6,2.2-167.7-78.9-167.7-78.9V813.9
	z"/>
<linearGradient id="SVGID_00000117675648324995596300000010028234969819181226_" gradientUnits="userSpaceOnUse" x1="430.7" y1="1156.65" x2="101.3" y2="1156.65" gradientTransform="matrix(1 0 0 -1 0 2048)">
	<stop  offset="0" style="stop-color:#8F8FBC"/>
	<stop  offset="1" style="stop-color:#EBEAE7"/>
</linearGradient>
<path style="fill:url(#SVGID_00000117675648324995596300000010028234969819181226_);stroke:#828380;stroke-width:10;stroke-miterlimit:10;" d="
	M101.3,884.8c0,0,0.4,83.2,164.7,83.2s164.7-83.2,164.7-83.2v-70.1c0,0-5.4,76.7-161.7,78.9c-157.6,2.2-167.7-78.9-167.7-78.9V884.8
	z"/>
<linearGradient id="SVGID_00000051366680827912924960000007924329512534942626_" gradientUnits="userSpaceOnUse" x1="256" y1="799.6001" x2="256" y2="958" gradientTransform="matrix(1 0 0 -1 0 2048)">
	<stop  offset="0" style="stop-color:#8F8FBC"/>
	<stop  offset="1" style="stop-color:#EBEAE7"/>
</linearGradient>
<ellipse style="fill:url(#SVGID_00000051366680827912924960000007924329512534942626_);stroke:#828380;stroke-width:10;stroke-miterlimit:10;" cx="256" cy="1169.2" rx="164.7" ry="79.2"/>
<linearGradient id="SVGID_00000140694397062429473880000012813941329126921645_" gradientUnits="userSpaceOnUse" x1="420.7" y1="802.2501" x2="91.3" y2="802.2501" gradientTransform="matrix(1 0 0 -1 0 2048)">
	<stop  offset="0" style="stop-color:#8F8FBC"/>
	<stop  offset="1" style="stop-color:#EBEAE7"/>
</linearGradient>
<path style="fill:url(#SVGID_00000140694397062429473880000012813941329126921645_);stroke:#828380;stroke-width:10;stroke-miterlimit:10;" d="
	M91.3,1239.2c0,0,0.4,83.2,164.7,83.2s164.7-83.2,164.7-83.2v-70.1c0,0-5.4,76.7-161.7,78.9c-157.6,2.2-167.7-78.9-167.7-78.9
	V1239.2z"/>
<linearGradient id="SVGID_00000015314858244756979810000009248947233247965580_" gradientUnits="userSpaceOnUse" x1="420.7" y1="725.55" x2="91.3" y2="725.55" gradientTransform="matrix(1 0 0 -1 0 2048)">
	<stop  offset="0" style="stop-color:#8F8FBC"/>
	<stop  offset="1" style="stop-color:#EBEAE7"/>
</linearGradient>
<path style="fill:url(#SVGID_00000015314858244756979810000009248947233247965580_);stroke:#828380;stroke-width:10;stroke-miterlimit:10;" d="
	M91.3,1315.9c0,0,0.4,83.2,164.7,83.2s164.7-83.2,164.7-83.2v-70.1c0,0-5.4,76.7-161.7,78.9c-157.6,2.2-167.7-78.9-167.7-78.9
	V1315.9z"/>
<linearGradient id="SVGID_00000031903378895706032370000006993013713410838710_" gradientUnits="userSpaceOnUse" x1="420.7" y1="654.65" x2="91.3" y2="654.65" gradientTransform="matrix(1 0 0 -1 0 2048)">
	<stop  offset="0" style="stop-color:#8F8FBC"/>
	<stop  offset="1" style="stop-color:#EBEAE7"/>
</linearGradient>
<path style="fill:url(#SVGID_00000031903378895706032370000006993013713410838710_);stroke:#828380;stroke-width:10;stroke-miterlimit:10;" d="
	M91.3,1386.8c0,0,0.4,83.2,164.7,83.2s164.7-83.2,164.7-83.2v-70.1c0,0-5.4,76.7-161.7,78.9c-157.6,2.2-167.7-78.9-167.7-78.9
	V1386.8z"/>
<linearGradient id="SVGID_00000137851568751516134300000006342130599980731020_" gradientUnits="userSpaceOnUse" x1="256" y1="287.6001" x2="256" y2="446" gradientTransform="matrix(1 0 0 -1 0 2048)">
	<stop  offset="0" style="stop-color:#949494"/>
	<stop  offset="1" style="stop-color:#EAEAEA"/>
</linearGradient>
<ellipse style="fill:url(#SVGID_00000137851568751516134300000006342130599980731020_);stroke:#828282;stroke-width:10;stroke-miterlimit:10;" cx="256" cy="1681.2" rx="164.7" ry="79.2"/>
<linearGradient id="SVGID_00000065761750684531426280000009239913002530529432_" gradientUnits="userSpaceOnUse" x1="420.7" y1="290.2501" x2="91.3" y2="290.2501" gradientTransform="matrix(1 0 0 -1 0 2048)">
	<stop  offset="0" style="stop-color:#949494"/>
	<stop  offset="1" style="stop-color:#EAEAEA"/>
</linearGradient>
<path style="fill:url(#SVGID_00000065761750684531426280000009239913002530529432_);stroke:#828282;stroke-width:10;stroke-miterlimit:10;" d="
	M91.3,1751.2c0,0,0.4,83.2,164.7,83.2s164.7-83.2,164.7-83.2v-70.1c0,0-5.4,76.7-161.7,78.9c-157.6,2.2-167.7-78.9-167.7-78.9
	V1751.2z"/>
<linearGradient id="SVGID_00000062908710500718981790000002765419253157941693_" gradientUnits="userSpaceOnUse" x1="420.7" y1="213.55" x2="91.3" y2="213.55" gradientTransform="matrix(1 0 0 -1 0 2048)">
	<stop  offset="0" style="stop-color:#949494"/>
	<stop  offset="1" style="stop-color:#EAEAEA"/>
</linearGradient>
<path style="fill:url(#SVGID_00000062908710500718981790000002765419253157941693_);stroke:#828282;stroke-width:10;stroke-miterlimit:10;" d="
	M91.3,1827.9c0,0,0.4,83.2,164.7,83.2s164.7-83.2,164.7-83.2v-70.1c0,0-5.4,76.7-161.7,78.9c-157.6,2.2-167.7-78.9-167.7-78.9
	V1827.9z"/>
<linearGradient id="SVGID_00000067955047222194932610000004440047007533236911_" gradientUnits="userSpaceOnUse" x1="420.7" y1="142.65" x2="91.3" y2="142.65" gradientTransform="matrix(1 0 0 -1 0 2048)">
	<stop  offset="0" style="stop-color:#949494"/>
	<stop  offset="1" style="stop-color:#EAEAEA"/>
</linearGradient>
<path style="fill:url(#SVGID_00000067955047222194932610000004440047007533236911_);stroke:#828282;stroke-width:10;stroke-miterlimit:10;" d="
	M91.3,1898.8c0,0,0.4,83.2,164.7,83.2s164.7-83.2,164.7-83.2v-70.1c0,0-5.4,76.7-161.7,78.9c-157.6,2.2-167.7-78.9-167.7-78.9
	V1898.8z"/>
<linearGradient id="SVGID_00000088120288793987543300000000910000727627338676_" gradientUnits="userSpaceOnUse" x1="-298.6367" y1="1894.2566" x2="-58.6367" y2="1894.2566" gradientTransform="matrix(-1 0 0 1 152.7633 -1740.4565)">
	<stop  offset="0" style="stop-color:#BCDAAC"/>
	<stop  offset="1" style="stop-color:#47AD39"/>
</linearGradient>
<path style="fill:url(#SVGID_00000088120288793987543300000000910000727627338676_);stroke:#030405;stroke-width:8;stroke-miterlimit:10;" d="
	M211.4,207.2l88.2,50.9v-33l0,0c83.8,0,151.8-68,151.8-151.8c0-8.1-0.7-16.1-1.9-23.8h-51.3c0.7,5,1.1,10.1,1.1,15.3
	c0,57.8-43.6,105.5-99.7,112v-20.4L211.4,207.2z"/>
<linearGradient id="SVGID_00000132782748098744428090000002750088069622965944_" gradientUnits="userSpaceOnUse" x1="-288.6367" y1="1372.2566" x2="-48.6367" y2="1372.2566" gradientTransform="matrix(-1 0 0 1 172.7633 -696.4566)">
	<stop  offset="0" style="stop-color:#FFDD0D"/>
	<stop  offset="1" style="stop-color:#F8A921"/>
</linearGradient>
<path style="fill:url(#SVGID_00000132782748098744428090000002750088069622965944_);stroke:#030405;stroke-width:8;stroke-miterlimit:10;" d="
	M221.4,729.2l88.2,50.9v-33l0,0c83.8,0,151.8-68,151.8-151.8c0-8.1-0.7-16.1-1.9-23.8h-51.3c0.7,5,1.1,10.1,1.1,15.3
	c0,57.8-43.6,105.5-99.7,112v-20.4L221.4,729.2z"/>
<linearGradient id="SVGID_00000145050406259760740220000001710515970336276663_" gradientUnits="userSpaceOnUse" x1="-298.6367" y1="870.2568" x2="-58.6367" y2="870.2568" gradientTransform="matrix(-1 0 0 1 152.7633 307.5432)">
	<stop  offset="0" style="stop-color:#AED2EE"/>
	<stop  offset="1" style="stop-color:#3EB2E6"/>
</linearGradient>
<path style="fill:url(#SVGID_00000145050406259760740220000001710515970336276663_);stroke:#030405;stroke-width:8;stroke-miterlimit:10;" d="
	M211.4,1231.2l88.2,50.9v-33l0,0c83.8,0,151.8-68,151.8-151.8c0-8.1-0.7-16.1-1.9-23.8h-51.3c0.7,5,1.1,10.1,1.1,15.3
	c0,57.8-43.6,105.5-99.7,112v-20.4L211.4,1231.2z"/>
<linearGradient id="SVGID_00000021079843206553286390000016793654922492557753_" gradientUnits="userSpaceOnUse" x1="-298.6367" y1="358.2567" x2="-58.6367" y2="358.2567" gradientTransform="matrix(-1 0 0 1 152.7633 1331.5432)">
	<stop  offset="0" style="stop-color:#DADADA"/>
	<stop  offset="1" style="stop-color:#ACACAC"/>
</linearGradient>
<path style="fill:url(#SVGID_00000021079843206553286390000016793654922492557753_);stroke:#000000;stroke-width:8;stroke-miterlimit:10;" d="
	M211.4,1743.2l88.2,50.9v-33l0,0c83.8,0,151.8-68,151.8-151.8c0-8.1-0.7-16.1-1.9-23.8h-51.3c0.7,5,1.1,10.1,1.1,15.3
	c0,57.8-43.6,105.5-99.7,112v-20.4L211.4,1743.2z"/>
</svg>
