<?xml version="1.0" encoding="utf-8"?>
<!-- Generator: Adobe Illustrator 27.1.0, SVG Export Plug-In . SVG Version: 6.00 Build 0)  -->
<svg version="1.1" id="Calque_1" xmlns="http://www.w3.org/2000/svg" xmlns:xlink="http://www.w3.org/1999/xlink" x="0px" y="0px"
	 viewBox="0 0 512 2048" style="enable-background:new 0 0 512 2048;" xml:space="preserve">
<style type="text/css">
	.st0{fill:url(#SVGID_1_);stroke:#828380;stroke-width:10;stroke-miterlimit:10;}
	.st1{fill:url(#SVGID_00000013178364951896196540000007393661721588028315_);stroke:#828380;stroke-width:10;stroke-miterlimit:10;}
	.st2{fill:url(#SVGID_00000170998237768636016060000012036208693602559365_);stroke:#828380;stroke-width:10;stroke-miterlimit:10;}
	.st3{fill:url(#SVGID_00000026877869073905660780000017850539216139563160_);stroke:#828380;stroke-width:10;stroke-miterlimit:10;}
	.st4{fill:url(#SVGID_00000083796382641001667730000012560721583636128138_);stroke:#828380;stroke-width:10;stroke-miterlimit:10;}
	.st5{fill:url(#SVGID_00000098901458389543193090000014443856831147418028_);stroke:#828380;stroke-width:10;stroke-miterlimit:10;}
	.st6{fill:url(#SVGID_00000039841213386454531480000015543690945728081569_);stroke:#828380;stroke-width:10;stroke-miterlimit:10;}
	.st7{fill:url(#SVGID_00000121992017750760628750000001054583002242605711_);stroke:#828380;stroke-width:10;stroke-miterlimit:10;}
	.st8{fill:url(#SVGID_00000119094478872092795700000017983670463534280075_);stroke:#828380;stroke-width:10;stroke-miterlimit:10;}
	.st9{fill:url(#SVGID_00000075152078451820227060000017529275008098016912_);stroke:#828380;stroke-width:10;stroke-miterlimit:10;}
	
		.st10{fill:url(#SVGID_00000015327768101162233960000007277053267216964286_);stroke:#828380;stroke-width:10;stroke-miterlimit:10;}
	
		.st11{fill:url(#SVGID_00000142148298621383376960000005655343268227534499_);stroke:#828380;stroke-width:10;stroke-miterlimit:10;}
	
		.st12{fill:url(#SVGID_00000147179515512916327330000008570962005844772779_);stroke:#828282;stroke-width:10;stroke-miterlimit:10;}
	
		.st13{fill:url(#SVGID_00000067934769268728438500000004352865960458661776_);stroke:#828282;stroke-width:10;stroke-miterlimit:10;}
	
		.st14{fill:url(#SVGID_00000090981450435052787840000017517448840380547752_);stroke:#828282;stroke-width:10;stroke-miterlimit:10;}
	
		.st15{fill:url(#SVGID_00000083776238170780189190000013719947857014520760_);stroke:#828282;stroke-width:10;stroke-miterlimit:10;}
	.st16{fill:url(#SVGID_00000089560295419982111130000004210549635760147599_);stroke:#030405;stroke-width:8;stroke-miterlimit:10;}
	.st17{fill:url(#SVGID_00000002385761369985999270000014912935860415930240_);stroke:#030405;stroke-width:8;stroke-miterlimit:10;}
	.st18{fill:url(#SVGID_00000013173163489115715480000008220708401520401810_);stroke:#030405;stroke-width:8;stroke-miterlimit:10;}
	.st19{fill:url(#SVGID_00000121989000726458079860000018284729721478604183_);stroke:#000000;stroke-width:8;stroke-miterlimit:10;}
</style>
<linearGradient id="SVGID_1_" gradientUnits="userSpaceOnUse" x1="256" y1="224.3214" x2="256" y2="66.0111">
	<stop  offset="0" style="stop-color:#8F8FBC"/>
	<stop  offset="1" style="stop-color:#EBEAE7"/>
</linearGradient>
<ellipse class="st0" cx="256" cy="145.2" rx="164.7" ry="79.2"/>
<linearGradient id="SVGID_00000158749733383443064650000007832375533404567467_" gradientUnits="userSpaceOnUse" x1="420.6875" y1="221.7889" x2="91.3125" y2="221.7889">
	<stop  offset="0" style="stop-color:#8F8FBC"/>
	<stop  offset="1" style="stop-color:#EBEAE7"/>
</linearGradient>
<path style="fill:url(#SVGID_00000158749733383443064650000007832375533404567467_);stroke:#828380;stroke-width:10;stroke-miterlimit:10;" d="
	M91.3,215.2c0,0,0.4,83.2,164.7,83.2s164.7-83.2,164.7-83.2v-70.1c0,0-5.4,76.7-161.7,78.9c-157.6,2.2-167.7-78.9-167.7-78.9V215.2z
	"/>
<linearGradient id="SVGID_00000117639154904055367950000013132774802092988318_" gradientUnits="userSpaceOnUse" x1="420.6875" y1="298.4115" x2="91.3125" y2="298.4115">
	<stop  offset="0" style="stop-color:#8F8FBC"/>
	<stop  offset="1" style="stop-color:#EBEAE7"/>
</linearGradient>
<path style="fill:url(#SVGID_00000117639154904055367950000013132774802092988318_);stroke:#828380;stroke-width:10;stroke-miterlimit:10;" d="
	M91.3,291.9c0,0,0.4,83.2,164.7,83.2s164.7-83.2,164.7-83.2v-70.1c0,0-5.4,76.7-161.7,78.9c-157.6,2.2-167.7-78.9-167.7-78.9V291.9z
	"/>
<linearGradient id="SVGID_00000101801167837398581910000006836329156045168306_" gradientUnits="userSpaceOnUse" x1="420.6875" y1="369.3663" x2="91.3125" y2="369.3663">
	<stop  offset="0" style="stop-color:#8F8FBC"/>
	<stop  offset="1" style="stop-color:#EBEAE7"/>
</linearGradient>
<path style="fill:url(#SVGID_00000101801167837398581910000006836329156045168306_);stroke:#828380;stroke-width:10;stroke-miterlimit:10;" d="
	M91.3,362.8c0,0,0.4,83.2,164.7,83.2s164.7-83.2,164.7-83.2v-70.1c0,0-5.4,76.7-161.7,78.9c-157.6,2.2-167.7-78.9-167.7-78.9V362.8z
	"/>
<linearGradient id="SVGID_00000164506271078492607470000015657506114458103193_" gradientUnits="userSpaceOnUse" x1="266" y1="746.3215" x2="266" y2="588.0111">
	<stop  offset="0" style="stop-color:#8F8FBC"/>
	<stop  offset="1" style="stop-color:#EBEAE7"/>
</linearGradient>
<ellipse style="fill:url(#SVGID_00000164506271078492607470000015657506114458103193_);stroke:#828380;stroke-width:10;stroke-miterlimit:10;" cx="266" cy="667.2" rx="164.7" ry="79.2"/>
<linearGradient id="SVGID_00000126292503560688977910000016955016161848529317_" gradientUnits="userSpaceOnUse" x1="430.6875" y1="743.7889" x2="101.3125" y2="743.7889">
	<stop  offset="0" style="stop-color:#8F8FBC"/>
	<stop  offset="1" style="stop-color:#EBEAE7"/>
</linearGradient>
<path style="fill:url(#SVGID_00000126292503560688977910000016955016161848529317_);stroke:#828380;stroke-width:10;stroke-miterlimit:10;" d="
	M101.3,737.2c0,0,0.4,83.2,164.7,83.2s164.7-83.2,164.7-83.2v-70.1c0,0-5.4,76.7-161.7,78.9c-157.6,2.2-167.7-78.9-167.7-78.9V737.2
	z"/>
<linearGradient id="SVGID_00000056408232070774483230000013674646895644024206_" gradientUnits="userSpaceOnUse" x1="430.6875" y1="820.4115" x2="101.3125" y2="820.4115">
	<stop  offset="0" style="stop-color:#8F8FBC"/>
	<stop  offset="1" style="stop-color:#EBEAE7"/>
</linearGradient>
<path style="fill:url(#SVGID_00000056408232070774483230000013674646895644024206_);stroke:#828380;stroke-width:10;stroke-miterlimit:10;" d="
	M101.3,813.9c0,0,0.4,83.2,164.7,83.2s164.7-83.2,164.7-83.2v-70.1c0,0-5.4,76.7-161.7,78.9c-157.6,2.2-167.7-78.9-167.7-78.9V813.9
	z"/>
<linearGradient id="SVGID_00000127015123561512772570000010345656794154949051_" gradientUnits="userSpaceOnUse" x1="430.6875" y1="891.3663" x2="101.3125" y2="891.3663">
	<stop  offset="0" style="stop-color:#8F8FBC"/>
	<stop  offset="1" style="stop-color:#EBEAE7"/>
</linearGradient>
<path style="fill:url(#SVGID_00000127015123561512772570000010345656794154949051_);stroke:#828380;stroke-width:10;stroke-miterlimit:10;" d="
	M101.3,884.8c0,0,0.4,83.2,164.7,83.2s164.7-83.2,164.7-83.2v-70.1c0,0-5.4,76.7-161.7,78.9c-157.6,2.2-167.7-78.9-167.7-78.9V884.8
	z"/>
<linearGradient id="SVGID_00000014602931902008389100000010765403160622986138_" gradientUnits="userSpaceOnUse" x1="256" y1="1248.3214" x2="256" y2="1090.0111">
	<stop  offset="0" style="stop-color:#8F8FBC"/>
	<stop  offset="1" style="stop-color:#EBEAE7"/>
</linearGradient>
<ellipse style="fill:url(#SVGID_00000014602931902008389100000010765403160622986138_);stroke:#828380;stroke-width:10;stroke-miterlimit:10;" cx="256" cy="1169.2" rx="164.7" ry="79.2"/>
<linearGradient id="SVGID_00000012471424609222059450000008950936557919580852_" gradientUnits="userSpaceOnUse" x1="420.6875" y1="1245.7888" x2="91.3125" y2="1245.7888">
	<stop  offset="0" style="stop-color:#8F8FBC"/>
	<stop  offset="1" style="stop-color:#EBEAE7"/>
</linearGradient>
<path style="fill:url(#SVGID_00000012471424609222059450000008950936557919580852_);stroke:#828380;stroke-width:10;stroke-miterlimit:10;" d="
	M91.3,1239.2c0,0,0.4,83.2,164.7,83.2s164.7-83.2,164.7-83.2v-70.1c0,0-5.4,76.7-161.7,78.9c-157.6,2.2-167.7-78.9-167.7-78.9
	V1239.2z"/>
<linearGradient id="SVGID_00000067200451266893432740000007144598685938841750_" gradientUnits="userSpaceOnUse" x1="420.6875" y1="1322.4115" x2="91.3125" y2="1322.4115">
	<stop  offset="0" style="stop-color:#8F8FBC"/>
	<stop  offset="1" style="stop-color:#EBEAE7"/>
</linearGradient>
<path style="fill:url(#SVGID_00000067200451266893432740000007144598685938841750_);stroke:#828380;stroke-width:10;stroke-miterlimit:10;" d="
	M91.3,1315.9c0,0,0.4,83.2,164.7,83.2s164.7-83.2,164.7-83.2v-70.1c0,0-5.4,76.7-161.7,78.9c-157.6,2.2-167.7-78.9-167.7-78.9
	V1315.9z"/>
<linearGradient id="SVGID_00000127032128898835528380000012509626425050246074_" gradientUnits="userSpaceOnUse" x1="420.6875" y1="1393.3663" x2="91.3125" y2="1393.3663">
	<stop  offset="0" style="stop-color:#8F8FBC"/>
	<stop  offset="1" style="stop-color:#EBEAE7"/>
</linearGradient>
<path style="fill:url(#SVGID_00000127032128898835528380000012509626425050246074_);stroke:#828380;stroke-width:10;stroke-miterlimit:10;" d="
	M91.3,1386.8c0,0,0.4,83.2,164.7,83.2s164.7-83.2,164.7-83.2v-70.1c0,0-5.4,76.7-161.7,78.9c-157.6,2.2-167.7-78.9-167.7-78.9
	V1386.8z"/>
<linearGradient id="SVGID_00000036972457363680113230000000112672090291204528_" gradientUnits="userSpaceOnUse" x1="256" y1="1760.3214" x2="256" y2="1602.0111">
	<stop  offset="0" style="stop-color:#949494"/>
	<stop  offset="1" style="stop-color:#EAEAEA"/>
</linearGradient>
<ellipse style="fill:url(#SVGID_00000036972457363680113230000000112672090291204528_);stroke:#828282;stroke-width:10;stroke-miterlimit:10;" cx="256" cy="1681.2" rx="164.7" ry="79.2"/>
<linearGradient id="SVGID_00000109725819821175027280000007277176488665977769_" gradientUnits="userSpaceOnUse" x1="420.6875" y1="1757.7888" x2="91.3125" y2="1757.7888">
	<stop  offset="0" style="stop-color:#949494"/>
	<stop  offset="1" style="stop-color:#EAEAEA"/>
</linearGradient>
<path style="fill:url(#SVGID_00000109725819821175027280000007277176488665977769_);stroke:#828282;stroke-width:10;stroke-miterlimit:10;" d="
	M91.3,1751.2c0,0,0.4,83.2,164.7,83.2s164.7-83.2,164.7-83.2v-70.1c0,0-5.4,76.7-161.7,78.9c-157.6,2.2-167.7-78.9-167.7-78.9
	V1751.2z"/>
<linearGradient id="SVGID_00000064334179527518457480000010179103956341915285_" gradientUnits="userSpaceOnUse" x1="420.6875" y1="1834.4115" x2="91.3125" y2="1834.4115">
	<stop  offset="0" style="stop-color:#949494"/>
	<stop  offset="1" style="stop-color:#EAEAEA"/>
</linearGradient>
<path style="fill:url(#SVGID_00000064334179527518457480000010179103956341915285_);stroke:#828282;stroke-width:10;stroke-miterlimit:10;" d="
	M91.3,1827.9c0,0,0.4,83.2,164.7,83.2s164.7-83.2,164.7-83.2v-70.1c0,0-5.4,76.7-161.7,78.9c-157.6,2.2-167.7-78.9-167.7-78.9
	V1827.9z"/>
<linearGradient id="SVGID_00000049182651371088066510000004970279430005739454_" gradientUnits="userSpaceOnUse" x1="420.6875" y1="1905.3663" x2="91.3125" y2="1905.3663">
	<stop  offset="0" style="stop-color:#949494"/>
	<stop  offset="1" style="stop-color:#EAEAEA"/>
</linearGradient>
<path style="fill:url(#SVGID_00000049182651371088066510000004970279430005739454_);stroke:#828282;stroke-width:10;stroke-miterlimit:10;" d="
	M91.3,1898.8c0,0,0.4,83.2,164.7,83.2s164.7-83.2,164.7-83.2v-70.1c0,0-5.4,76.7-161.7,78.9c-157.6,2.2-167.7-78.9-167.7-78.9
	V1898.8z"/>
<linearGradient id="SVGID_00000105396884409497041030000002611235673276160654_" gradientUnits="userSpaceOnUse" x1="185.6978" y1="-1103.4779" x2="407.0505" y2="-1103.4779" gradientTransform="matrix(1 0 0 1 0 1280)">
	<stop  offset="0" style="stop-color:#BCDAAC"/>
	<stop  offset="1" style="stop-color:#47AD39"/>
</linearGradient>
<path style="fill:url(#SVGID_00000105396884409497041030000002611235673276160654_);stroke:#030405;stroke-width:8;stroke-miterlimit:10;" d="
	M381.8,22.7l21.1,19.7c3.8,3.5,5.1,8.9,3.4,13.8c-40.2,83.6-71,177.6-96.3,277.5c-39.9-52.2-80-100.9-120.6-124.4
	c-4.4-4.5-4.9-11.5-1.3-16.6l12.1-17.1c4.6-6.6,12.1-4.4,19.8-1.9C251.5,184.4,293,243,293,243s37.3-161.4,67.5-214.8
	C365.2,19.9,374.8,16.1,381.8,22.7z"/>
<linearGradient id="SVGID_00000151543617616632838660000011056875847123616907_" gradientUnits="userSpaceOnUse" x1="195.6978" y1="-581.478" x2="417.0505" y2="-581.478" gradientTransform="matrix(1 0 0 1 0 1280)">
	<stop  offset="0" style="stop-color:#FFDD0D"/>
	<stop  offset="1" style="stop-color:#F8A921"/>
</linearGradient>
<path style="fill:url(#SVGID_00000151543617616632838660000011056875847123616907_);stroke:#030405;stroke-width:8;stroke-miterlimit:10;" d="
	M391.8,544.7l21.1,19.7c3.8,3.5,5.1,8.9,3.4,13.8c-40.2,83.6-71,177.5-96.3,277.5c-39.9-52.2-80-101-120.6-124.3
	c-4.4-4.5-4.9-11.5-1.3-16.6l12.1-17.1c4.6-6.6,12.1-4.4,19.8-1.8c31.6,10.6,73.1,69.3,73.1,69.3s37.3-161.4,67.5-214.8
	C375.2,541.9,384.8,538.1,391.8,544.7z"/>
<linearGradient id="SVGID_00000041254643134343758860000004512755651941082006_" gradientUnits="userSpaceOnUse" x1="185.6978" y1="-78.2291" x2="407.0505" y2="-78.2291" gradientTransform="matrix(1 0 0 1 0 1280)">
	<stop  offset="0" style="stop-color:#AED2EE"/>
	<stop  offset="1" style="stop-color:#3EB2E6"/>
</linearGradient>
<path style="fill:url(#SVGID_00000041254643134343758860000004512755651941082006_);stroke:#030405;stroke-width:8;stroke-miterlimit:10;" d="
	M381.8,1047.9l21.1,19.7c3.8,3.5,5.1,8.9,3.4,13.8c-40.2,83.6-71,177.6-96.3,277.5c-39.9-52.2-80-100.9-120.6-124.3
	c-4.4-4.5-4.9-11.5-1.3-16.6l12.1-17.1c4.6-6.6,12.1-4.4,19.8-1.8c31.6,10.6,73.1,69.3,73.1,69.3s37.3-161.4,67.5-214.8
	C365.2,1045.2,374.8,1041.4,381.8,1047.9z"/>
<linearGradient id="SVGID_00000008858357496188566540000006586750663123562668_" gradientUnits="userSpaceOnUse" x1="185.6978" y1="433.7709" x2="407.0505" y2="433.7709" gradientTransform="matrix(1 0 0 1 0 1280)">
	<stop  offset="0" style="stop-color:#DADADA"/>
	<stop  offset="1" style="stop-color:#ACACAC"/>
</linearGradient>
<path style="fill:url(#SVGID_00000008858357496188566540000006586750663123562668_);stroke:#000000;stroke-width:8;stroke-miterlimit:10;" d="
	M381.8,1559.9l21.1,19.7c3.8,3.5,5.1,8.9,3.4,13.8c-40.2,83.6-71,177.6-96.3,277.5c-39.9-52.2-80-100.9-120.6-124.3
	c-4.4-4.5-4.9-11.5-1.3-16.6l12.1-17.1c4.6-6.6,12.1-4.4,19.8-1.8c31.6,10.6,73.1,69.3,73.1,69.3s37.3-161.4,67.5-214.8
	C365.2,1557.2,374.8,1553.4,381.8,1559.9z"/>
</svg>
