<?xml version="1.0" encoding="utf-8"?>
<!-- Generator: Adobe Illustrator 27.1.0, SVG Export Plug-In . SVG Version: 6.00 Build 0)  -->
<svg version="1.1" id="Calque_1" xmlns="http://www.w3.org/2000/svg" xmlns:xlink="http://www.w3.org/1999/xlink" x="0px" y="0px"
	 viewBox="0 0 512 2048" style="enable-background:new 0 0 512 2048;" xml:space="preserve">
<style type="text/css">
	.st0{fill:url(#SVGID_1_);stroke:#828380;stroke-width:10;stroke-miterlimit:10;}
	.st1{fill:url(#SVGID_00000081633964518058210310000004776747897321629371_);stroke:#828380;stroke-width:10;stroke-miterlimit:10;}
	.st2{fill:url(#SVGID_00000007386661804469475750000014293143904605915790_);stroke:#828380;stroke-width:10;stroke-miterlimit:10;}
	.st3{fill:url(#SVGID_00000070817965092543806740000012478516939604016827_);stroke:#828380;stroke-width:10;stroke-miterlimit:10;}
	.st4{fill:url(#SVGID_00000035504332692494880940000007280743422283740842_);stroke:#828380;stroke-width:10;stroke-miterlimit:10;}
	.st5{fill:url(#SVGID_00000183213127778457825080000005153208147525926534_);stroke:#828380;stroke-width:10;stroke-miterlimit:10;}
	.st6{fill:url(#SVGID_00000074427399047662175620000002768861640514676881_);stroke:#828380;stroke-width:10;stroke-miterlimit:10;}
	.st7{fill:url(#SVGID_00000095335997934398592690000010137532129765997701_);stroke:#828380;stroke-width:10;stroke-miterlimit:10;}
	.st8{fill:url(#SVGID_00000161598363156327778500000006191955491353423796_);stroke:#828380;stroke-width:10;stroke-miterlimit:10;}
	.st9{fill:url(#SVGID_00000181767498354205490480000003619342641978117564_);stroke:#828380;stroke-width:10;stroke-miterlimit:10;}
	
		.st10{fill:url(#SVGID_00000149377737969665322320000008922681050310208135_);stroke:#828380;stroke-width:10;stroke-miterlimit:10;}
	
		.st11{fill:url(#SVGID_00000075864513803993310660000013356483984957907852_);stroke:#828380;stroke-width:10;stroke-miterlimit:10;}
	
		.st12{fill:url(#SVGID_00000106128095387118389790000011828383195957080749_);stroke:#828282;stroke-width:10;stroke-miterlimit:10;}
	
		.st13{fill:url(#SVGID_00000119090539528831344980000016727018974891494818_);stroke:#828282;stroke-width:10;stroke-miterlimit:10;}
	
		.st14{fill:url(#SVGID_00000107584939617449055300000012023311625007570049_);stroke:#828282;stroke-width:10;stroke-miterlimit:10;}
	
		.st15{fill:url(#SVGID_00000063597144678342612760000016826093405699249550_);stroke:#828282;stroke-width:10;stroke-miterlimit:10;}
	.st16{fill:url(#SVGID_00000049186426475871611700000000771100167324810642_);stroke:#030405;stroke-width:8;stroke-miterlimit:10;}
	.st17{fill:url(#SVGID_00000111883572246772987900000002457442301826171316_);stroke:#030405;stroke-width:8;stroke-miterlimit:10;}
	.st18{fill:url(#SVGID_00000155111197237731145320000017631869027373919640_);stroke:#030405;stroke-width:8;stroke-miterlimit:10;}
	.st19{fill:url(#SVGID_00000014608263554794889820000000723454535501100929_);stroke:#030405;stroke-width:8;stroke-miterlimit:10;}
	.st20{fill:url(#SVGID_00000031180842608404755900000009573279174349927595_);stroke:#030405;stroke-width:8;stroke-miterlimit:10;}
	.st21{fill:url(#SVGID_00000114072000795965866780000011883277996033600697_);stroke:#030405;stroke-width:8;stroke-miterlimit:10;}
	.st22{fill:url(#SVGID_00000132080472255425757720000015678487709493585339_);stroke:#000000;stroke-width:8;stroke-miterlimit:10;}
	.st23{fill:url(#SVGID_00000044163575035295644080000013508882498523298213_);stroke:#000000;stroke-width:8;stroke-miterlimit:10;}
</style>
<linearGradient id="SVGID_1_" gradientUnits="userSpaceOnUse" x1="256" y1="224.3214" x2="256" y2="66.0111">
	<stop  offset="0" style="stop-color:#8F8FBC"/>
	<stop  offset="1" style="stop-color:#EBEAE7"/>
</linearGradient>
<ellipse class="st0" cx="256" cy="145.2" rx="164.7" ry="79.2"/>
<linearGradient id="SVGID_00000071537819755277415260000017874917138830257543_" gradientUnits="userSpaceOnUse" x1="420.6875" y1="221.7889" x2="91.3125" y2="221.7889">
	<stop  offset="0" style="stop-color:#8F8FBC"/>
	<stop  offset="1" style="stop-color:#EBEAE7"/>
</linearGradient>
<path style="fill:url(#SVGID_00000071537819755277415260000017874917138830257543_);stroke:#828380;stroke-width:10;stroke-miterlimit:10;" d="
	M91.3,215.2c0,0,0.4,83.2,164.7,83.2s164.7-83.2,164.7-83.2v-70.1c0,0-5.4,76.7-161.7,78.9c-157.6,2.2-167.7-78.9-167.7-78.9V215.2z
	"/>
<linearGradient id="SVGID_00000179648079879777687510000018372307872661037972_" gradientUnits="userSpaceOnUse" x1="420.6875" y1="298.4115" x2="91.3125" y2="298.4115">
	<stop  offset="0" style="stop-color:#8F8FBC"/>
	<stop  offset="1" style="stop-color:#EBEAE7"/>
</linearGradient>
<path style="fill:url(#SVGID_00000179648079879777687510000018372307872661037972_);stroke:#828380;stroke-width:10;stroke-miterlimit:10;" d="
	M91.3,291.9c0,0,0.4,83.2,164.7,83.2s164.7-83.2,164.7-83.2v-70.1c0,0-5.4,76.7-161.7,78.9c-157.6,2.2-167.7-78.9-167.7-78.9V291.9z
	"/>
<linearGradient id="SVGID_00000043420877534990390350000013724911619625256085_" gradientUnits="userSpaceOnUse" x1="420.6875" y1="369.3663" x2="91.3125" y2="369.3663">
	<stop  offset="0" style="stop-color:#8F8FBC"/>
	<stop  offset="1" style="stop-color:#EBEAE7"/>
</linearGradient>
<path style="fill:url(#SVGID_00000043420877534990390350000013724911619625256085_);stroke:#828380;stroke-width:10;stroke-miterlimit:10;" d="
	M91.3,362.8c0,0,0.4,83.2,164.7,83.2s164.7-83.2,164.7-83.2v-70.1c0,0-5.4,76.7-161.7,78.9c-157.6,2.2-167.7-78.9-167.7-78.9V362.8z
	"/>
<linearGradient id="SVGID_00000106127159206142547950000013303143271073581994_" gradientUnits="userSpaceOnUse" x1="266" y1="746.3215" x2="266" y2="588.0111">
	<stop  offset="0" style="stop-color:#8F8FBC"/>
	<stop  offset="1" style="stop-color:#EBEAE7"/>
</linearGradient>
<ellipse style="fill:url(#SVGID_00000106127159206142547950000013303143271073581994_);stroke:#828380;stroke-width:10;stroke-miterlimit:10;" cx="266" cy="667.2" rx="164.7" ry="79.2"/>
<linearGradient id="SVGID_00000064322465092687211900000007647216970536453511_" gradientUnits="userSpaceOnUse" x1="430.6875" y1="743.7889" x2="101.3125" y2="743.7889">
	<stop  offset="0" style="stop-color:#8F8FBC"/>
	<stop  offset="1" style="stop-color:#EBEAE7"/>
</linearGradient>
<path style="fill:url(#SVGID_00000064322465092687211900000007647216970536453511_);stroke:#828380;stroke-width:10;stroke-miterlimit:10;" d="
	M101.3,737.2c0,0,0.4,83.2,164.7,83.2s164.7-83.2,164.7-83.2v-70.1c0,0-5.4,76.7-161.7,78.9c-157.6,2.2-167.7-78.9-167.7-78.9V737.2
	z"/>
<linearGradient id="SVGID_00000072963717814555199680000012437560221481545630_" gradientUnits="userSpaceOnUse" x1="430.6875" y1="820.4115" x2="101.3125" y2="820.4115">
	<stop  offset="0" style="stop-color:#8F8FBC"/>
	<stop  offset="1" style="stop-color:#EBEAE7"/>
</linearGradient>
<path style="fill:url(#SVGID_00000072963717814555199680000012437560221481545630_);stroke:#828380;stroke-width:10;stroke-miterlimit:10;" d="
	M101.3,813.9c0,0,0.4,83.2,164.7,83.2s164.7-83.2,164.7-83.2v-70.1c0,0-5.4,76.7-161.7,78.9c-157.6,2.2-167.7-78.9-167.7-78.9V813.9
	z"/>
<linearGradient id="SVGID_00000115489758137191345510000018336131385321921169_" gradientUnits="userSpaceOnUse" x1="430.6875" y1="891.3663" x2="101.3125" y2="891.3663">
	<stop  offset="0" style="stop-color:#8F8FBC"/>
	<stop  offset="1" style="stop-color:#EBEAE7"/>
</linearGradient>
<path style="fill:url(#SVGID_00000115489758137191345510000018336131385321921169_);stroke:#828380;stroke-width:10;stroke-miterlimit:10;" d="
	M101.3,884.8c0,0,0.4,83.2,164.7,83.2s164.7-83.2,164.7-83.2v-70.1c0,0-5.4,76.7-161.7,78.9c-157.6,2.2-167.7-78.9-167.7-78.9V884.8
	z"/>
<linearGradient id="SVGID_00000182496870951924742130000015219083178945215122_" gradientUnits="userSpaceOnUse" x1="256" y1="1248.3214" x2="256" y2="1090.0111">
	<stop  offset="0" style="stop-color:#8F8FBC"/>
	<stop  offset="1" style="stop-color:#EBEAE7"/>
</linearGradient>
<ellipse style="fill:url(#SVGID_00000182496870951924742130000015219083178945215122_);stroke:#828380;stroke-width:10;stroke-miterlimit:10;" cx="256" cy="1169.2" rx="164.7" ry="79.2"/>
<linearGradient id="SVGID_00000121237798249465603670000000820043865341808007_" gradientUnits="userSpaceOnUse" x1="420.6875" y1="1245.7888" x2="91.3125" y2="1245.7888">
	<stop  offset="0" style="stop-color:#8F8FBC"/>
	<stop  offset="1" style="stop-color:#EBEAE7"/>
</linearGradient>
<path style="fill:url(#SVGID_00000121237798249465603670000000820043865341808007_);stroke:#828380;stroke-width:10;stroke-miterlimit:10;" d="
	M91.3,1239.2c0,0,0.4,83.2,164.7,83.2s164.7-83.2,164.7-83.2v-70.1c0,0-5.4,76.7-161.7,78.9c-157.6,2.2-167.7-78.9-167.7-78.9
	V1239.2z"/>
<linearGradient id="SVGID_00000129928025249791908430000017934676553721724309_" gradientUnits="userSpaceOnUse" x1="420.6875" y1="1322.4115" x2="91.3125" y2="1322.4115">
	<stop  offset="0" style="stop-color:#8F8FBC"/>
	<stop  offset="1" style="stop-color:#EBEAE7"/>
</linearGradient>
<path style="fill:url(#SVGID_00000129928025249791908430000017934676553721724309_);stroke:#828380;stroke-width:10;stroke-miterlimit:10;" d="
	M91.3,1315.9c0,0,0.4,83.2,164.7,83.2s164.7-83.2,164.7-83.2v-70.1c0,0-5.4,76.7-161.7,78.9c-157.6,2.2-167.7-78.9-167.7-78.9
	V1315.9z"/>
<linearGradient id="SVGID_00000060741548011886466380000005880631431004480642_" gradientUnits="userSpaceOnUse" x1="420.6875" y1="1393.3663" x2="91.3125" y2="1393.3663">
	<stop  offset="0" style="stop-color:#8F8FBC"/>
	<stop  offset="1" style="stop-color:#EBEAE7"/>
</linearGradient>
<path style="fill:url(#SVGID_00000060741548011886466380000005880631431004480642_);stroke:#828380;stroke-width:10;stroke-miterlimit:10;" d="
	M91.3,1386.8c0,0,0.4,83.2,164.7,83.2s164.7-83.2,164.7-83.2v-70.1c0,0-5.4,76.7-161.7,78.9c-157.6,2.2-167.7-78.9-167.7-78.9
	V1386.8z"/>
<linearGradient id="SVGID_00000107556610298115411880000006536327904702948011_" gradientUnits="userSpaceOnUse" x1="256" y1="1760.3214" x2="256" y2="1602.0111">
	<stop  offset="0" style="stop-color:#949494"/>
	<stop  offset="1" style="stop-color:#EAEAEA"/>
</linearGradient>
<ellipse style="fill:url(#SVGID_00000107556610298115411880000006536327904702948011_);stroke:#828282;stroke-width:10;stroke-miterlimit:10;" cx="256" cy="1681.2" rx="164.7" ry="79.2"/>
<linearGradient id="SVGID_00000130624034958305010060000002684046219182796945_" gradientUnits="userSpaceOnUse" x1="420.6875" y1="1757.7888" x2="91.3125" y2="1757.7888">
	<stop  offset="0" style="stop-color:#949494"/>
	<stop  offset="1" style="stop-color:#EAEAEA"/>
</linearGradient>
<path style="fill:url(#SVGID_00000130624034958305010060000002684046219182796945_);stroke:#828282;stroke-width:10;stroke-miterlimit:10;" d="
	M91.3,1751.2c0,0,0.4,83.2,164.7,83.2s164.7-83.2,164.7-83.2v-70.1c0,0-5.4,76.7-161.7,78.9c-157.6,2.2-167.7-78.9-167.7-78.9
	V1751.2z"/>
<linearGradient id="SVGID_00000141432606631870797460000006261606502471406782_" gradientUnits="userSpaceOnUse" x1="420.6875" y1="1834.4115" x2="91.3125" y2="1834.4115">
	<stop  offset="0" style="stop-color:#949494"/>
	<stop  offset="1" style="stop-color:#EAEAEA"/>
</linearGradient>
<path style="fill:url(#SVGID_00000141432606631870797460000006261606502471406782_);stroke:#828282;stroke-width:10;stroke-miterlimit:10;" d="
	M91.3,1827.9c0,0,0.4,83.2,164.7,83.2s164.7-83.2,164.7-83.2v-70.1c0,0-5.4,76.7-161.7,78.9c-157.6,2.2-167.7-78.9-167.7-78.9
	V1827.9z"/>
<linearGradient id="SVGID_00000016798269222601295370000012110919953733615255_" gradientUnits="userSpaceOnUse" x1="420.6875" y1="1905.3663" x2="91.3125" y2="1905.3663">
	<stop  offset="0" style="stop-color:#949494"/>
	<stop  offset="1" style="stop-color:#EAEAEA"/>
</linearGradient>
<path style="fill:url(#SVGID_00000016798269222601295370000012110919953733615255_);stroke:#828282;stroke-width:10;stroke-miterlimit:10;" d="
	M91.3,1898.8c0,0,0.4,83.2,164.7,83.2s164.7-83.2,164.7-83.2v-70.1c0,0-5.4,76.7-161.7,78.9c-157.6,2.2-167.7-78.9-167.7-78.9
	V1898.8z"/>
<linearGradient id="SVGID_00000042702448382450923640000005605831501522250406_" gradientUnits="userSpaceOnUse" x1="186.2107" y1="-1166.2284" x2="396.5526" y2="-1166.2284" gradientTransform="matrix(1 0 0 1 0 1280)">
	<stop  offset="0" style="stop-color:#BCDAAC"/>
	<stop  offset="1" style="stop-color:#47AD39"/>
</linearGradient>
<path style="fill:url(#SVGID_00000042702448382450923640000005605831501522250406_);stroke:#030405;stroke-width:8;stroke-miterlimit:10;" d="
	M396.6,67l-77.3-44.6v29l0,0c-73.5,0-133,59.6-133,133c0,7.1,0.6,14.1,1.7,20.9h45c-0.6-4.4-0.9-8.8-0.9-13.4
	c0-50.7,38.2-92.4,87.4-98.1v17.9L396.6,67z"/>
<linearGradient id="SVGID_00000094583987764882770200000003548110204686506914_" gradientUnits="userSpaceOnUse" x1="243.4474" y1="-1033.7716" x2="453.7893" y2="-1033.7716" gradientTransform="matrix(1 0 0 1 0 1280)">
	<stop  offset="0" style="stop-color:#BCDAAC"/>
	<stop  offset="1" style="stop-color:#47AD39"/>
</linearGradient>
<path style="fill:url(#SVGID_00000094583987764882770200000003548110204686506914_);stroke:#030405;stroke-width:8;stroke-miterlimit:10;" d="
	M452.1,154.8h-45c0.6,4.4,0.9,8.8,0.9,13.4c0,50.7-38.2,92.4-87.4,98.1v-17.9L243.4,293l77.3,44.6v-29l0,0c73.5,0,133-59.6,133-133
	C453.8,168.6,453.2,161.6,452.1,154.8z"/>
<linearGradient id="SVGID_00000114784733544928092550000009015292022495542179_" gradientUnits="userSpaceOnUse" x1="196.2107" y1="-644.2283" x2="406.5526" y2="-644.2283" gradientTransform="matrix(1 0 0 1 0 1280)">
	<stop  offset="0" style="stop-color:#FFDD0D"/>
	<stop  offset="1" style="stop-color:#F8A921"/>
</linearGradient>
<path style="fill:url(#SVGID_00000114784733544928092550000009015292022495542179_);stroke:#030405;stroke-width:8;stroke-miterlimit:10;" d="
	M406.6,589l-77.3-44.6v29l0,0c-73.5,0-133,59.6-133,133c0,7.1,0.6,14.1,1.7,20.9h45c-0.6-4.4-0.9-8.8-0.9-13.4
	c0-50.7,38.2-92.4,87.4-98.1v17.9L406.6,589z"/>
<linearGradient id="SVGID_00000071551366871533275940000016089128049920135823_" gradientUnits="userSpaceOnUse" x1="253.4474" y1="-511.7716" x2="463.7893" y2="-511.7716" gradientTransform="matrix(1 0 0 1 0 1280)">
	<stop  offset="0" style="stop-color:#FFDD0D"/>
	<stop  offset="1" style="stop-color:#F8A921"/>
</linearGradient>
<path style="fill:url(#SVGID_00000071551366871533275940000016089128049920135823_);stroke:#030405;stroke-width:8;stroke-miterlimit:10;" d="
	M462.1,676.8h-45c0.6,4.4,0.9,8.8,0.9,13.4c0,50.7-38.2,92.4-87.4,98.1v-17.9L253.4,815l77.3,44.6v-29l0,0c73.5,0,133-59.6,133-133
	C463.8,690.6,463.2,683.6,462.1,676.8z"/>
<linearGradient id="SVGID_00000044135619922208050170000004135150869827466920_" gradientUnits="userSpaceOnUse" x1="186.2107" y1="-142.2283" x2="396.5526" y2="-142.2283" gradientTransform="matrix(1 0 0 1 0 1280)">
	<stop  offset="0" style="stop-color:#AED2EE"/>
	<stop  offset="1" style="stop-color:#3EB2E6"/>
</linearGradient>
<path style="fill:url(#SVGID_00000044135619922208050170000004135150869827466920_);stroke:#030405;stroke-width:8;stroke-miterlimit:10;" d="
	M396.6,1091l-77.3-44.6v29l0,0c-73.5,0-133,59.6-133,133c0,7.1,0.6,14.1,1.7,20.9h45c-0.6-4.4-0.9-8.8-0.9-13.4
	c0-50.7,38.2-92.4,87.4-98.1v17.9L396.6,1091z"/>
<linearGradient id="SVGID_00000003824482016220204240000017787997639512646273_" gradientUnits="userSpaceOnUse" x1="243.4474" y1="-9.7716" x2="453.7893" y2="-9.7716" gradientTransform="matrix(1 0 0 1 0 1280)">
	<stop  offset="0" style="stop-color:#AED2EE"/>
	<stop  offset="1" style="stop-color:#3EB2E6"/>
</linearGradient>
<path style="fill:url(#SVGID_00000003824482016220204240000017787997639512646273_);stroke:#030405;stroke-width:8;stroke-miterlimit:10;" d="
	M452.1,1178.8h-45c0.6,4.4,0.9,8.8,0.9,13.4c0,50.7-38.2,92.4-87.4,98.1v-17.9l-77.3,44.6l77.3,44.6v-29l0,0
	c73.5,0,133-59.6,133-133C453.8,1192.6,453.2,1185.6,452.1,1178.8z"/>
<linearGradient id="SVGID_00000021086325522349035240000000510099539487734182_" gradientUnits="userSpaceOnUse" x1="186.2107" y1="369.7716" x2="396.5526" y2="369.7716" gradientTransform="matrix(1 0 0 1 0 1280)">
	<stop  offset="0" style="stop-color:#DADADA"/>
	<stop  offset="1" style="stop-color:#ACACAC"/>
</linearGradient>
<path style="fill:url(#SVGID_00000021086325522349035240000000510099539487734182_);stroke:#000000;stroke-width:8;stroke-miterlimit:10;" d="
	M396.6,1603l-77.3-44.6v29l0,0c-73.5,0-133,59.6-133,133c0,7.1,0.6,14.1,1.7,20.9h45c-0.6-4.4-0.9-8.8-0.9-13.4
	c0-50.7,38.2-92.4,87.4-98.1v17.9L396.6,1603z"/>
<linearGradient id="SVGID_00000070835708824051787150000013583132828857424814_" gradientUnits="userSpaceOnUse" x1="243.4474" y1="502.2284" x2="453.7893" y2="502.2284" gradientTransform="matrix(1 0 0 1 0 1280)">
	<stop  offset="0" style="stop-color:#DADADA"/>
	<stop  offset="1" style="stop-color:#ACACAC"/>
</linearGradient>
<path style="fill:url(#SVGID_00000070835708824051787150000013583132828857424814_);stroke:#000000;stroke-width:8;stroke-miterlimit:10;" d="
	M452.1,1690.8h-45c0.6,4.4,0.9,8.8,0.9,13.4c0,50.7-38.2,92.4-87.4,98.1v-17.9l-77.3,44.6l77.3,44.6v-29l0,0
	c73.5,0,133-59.6,133-133C453.8,1704.6,453.2,1697.6,452.1,1690.8z"/>
</svg>
