<?xml version="1.0" encoding="utf-8"?>
<!-- Generator: Adobe Illustrator 27.1.0, SVG Export Plug-In . SVG Version: 6.00 Build 0)  -->
<svg version="1.1" id="Calque_1" xmlns="http://www.w3.org/2000/svg" xmlns:xlink="http://www.w3.org/1999/xlink" x="0px" y="0px"
	 viewBox="0 0 512 2048" style="enable-background:new 0 0 512 2048;" xml:space="preserve">
<style type="text/css">
	.st0{fill:url(#SVGID_1_);stroke:#828380;stroke-width:10;stroke-miterlimit:10;}
	.st1{fill:url(#SVGID_00000069398413043197487720000001597517672663831481_);stroke:#828380;stroke-width:10;stroke-miterlimit:10;}
	.st2{fill:url(#SVGID_00000083792597009300057420000006590852126105033396_);stroke:#828380;stroke-width:10;stroke-miterlimit:10;}
	.st3{fill:url(#SVGID_00000070098300373111188760000008299306985940849062_);stroke:#828380;stroke-width:10;stroke-miterlimit:10;}
	.st4{fill:url(#SVGID_00000042013347851073322670000007252773784312352938_);stroke:#828380;stroke-width:10;stroke-miterlimit:10;}
	.st5{fill:url(#SVGID_00000147203286937799869200000008364451154315510708_);stroke:#828380;stroke-width:10;stroke-miterlimit:10;}
	.st6{fill:url(#SVGID_00000008109099681458543530000014029309460633344439_);stroke:#828380;stroke-width:10;stroke-miterlimit:10;}
	.st7{fill:url(#SVGID_00000156569038121627193780000006877517550292491667_);stroke:#828380;stroke-width:10;stroke-miterlimit:10;}
	.st8{fill:url(#SVGID_00000161624208918922715690000016316021513422544308_);stroke:#828380;stroke-width:10;stroke-miterlimit:10;}
	.st9{fill:url(#SVGID_00000078759347473747533910000014490393443097026972_);stroke:#828380;stroke-width:10;stroke-miterlimit:10;}
	
		.st10{fill:url(#SVGID_00000014594721189923894810000004457635927462003842_);stroke:#828380;stroke-width:10;stroke-miterlimit:10;}
	
		.st11{fill:url(#SVGID_00000119836070136078732280000010472570904116812688_);stroke:#828380;stroke-width:10;stroke-miterlimit:10;}
	
		.st12{fill:url(#SVGID_00000007390697132872718500000008645764388478186133_);stroke:#828282;stroke-width:10;stroke-miterlimit:10;}
	
		.st13{fill:url(#SVGID_00000158745187091631736490000007526920710926155960_);stroke:#828282;stroke-width:10;stroke-miterlimit:10;}
	
		.st14{fill:url(#SVGID_00000173127110561195960320000000769093278248970369_);stroke:#828282;stroke-width:10;stroke-miterlimit:10;}
	
		.st15{fill:url(#SVGID_00000088829230268574893790000016743074287476718229_);stroke:#828282;stroke-width:10;stroke-miterlimit:10;}
	.st16{fill:url(#SVGID_00000043431481377487822600000013961105720915911607_);stroke:#030405;stroke-width:8;stroke-miterlimit:10;}
	.st17{fill:url(#SVGID_00000045599394950591314980000013513694472077221558_);stroke:#030405;stroke-width:8;stroke-miterlimit:10;}
	.st18{fill:url(#SVGID_00000157999548475264304710000000108882530299358880_);stroke:#030405;stroke-width:8;stroke-miterlimit:10;}
	.st19{fill:url(#SVGID_00000043422423618692343660000014303028772518223806_);stroke:#000000;stroke-width:8;stroke-miterlimit:10;}
</style>
<linearGradient id="SVGID_1_" gradientUnits="userSpaceOnUse" x1="256" y1="224.3214" x2="256" y2="66.0111">
	<stop  offset="0" style="stop-color:#8F8FBC"/>
	<stop  offset="1" style="stop-color:#EBEAE7"/>
</linearGradient>
<ellipse class="st0" cx="256" cy="145.2" rx="164.7" ry="79.2"/>
<linearGradient id="SVGID_00000065048895166694334800000010342901386051969928_" gradientUnits="userSpaceOnUse" x1="420.6875" y1="221.7889" x2="91.3125" y2="221.7889">
	<stop  offset="0" style="stop-color:#8F8FBC"/>
	<stop  offset="1" style="stop-color:#EBEAE7"/>
</linearGradient>
<path style="fill:url(#SVGID_00000065048895166694334800000010342901386051969928_);stroke:#828380;stroke-width:10;stroke-miterlimit:10;" d="
	M91.3,215.2c0,0,0.4,83.2,164.7,83.2s164.7-83.2,164.7-83.2v-70.1c0,0-5.4,76.7-161.7,78.9c-157.6,2.2-167.7-78.9-167.7-78.9V215.2z
	"/>
<linearGradient id="SVGID_00000181054793039746618160000015908436574412497597_" gradientUnits="userSpaceOnUse" x1="420.6875" y1="298.4115" x2="91.3125" y2="298.4115">
	<stop  offset="0" style="stop-color:#8F8FBC"/>
	<stop  offset="1" style="stop-color:#EBEAE7"/>
</linearGradient>
<path style="fill:url(#SVGID_00000181054793039746618160000015908436574412497597_);stroke:#828380;stroke-width:10;stroke-miterlimit:10;" d="
	M91.3,291.9c0,0,0.4,83.2,164.7,83.2s164.7-83.2,164.7-83.2v-70.1c0,0-5.4,76.7-161.7,78.9c-157.6,2.2-167.7-78.9-167.7-78.9V291.9z
	"/>
<linearGradient id="SVGID_00000162341977271274720370000012742162742943557023_" gradientUnits="userSpaceOnUse" x1="420.6875" y1="369.3663" x2="91.3125" y2="369.3663">
	<stop  offset="0" style="stop-color:#8F8FBC"/>
	<stop  offset="1" style="stop-color:#EBEAE7"/>
</linearGradient>
<path style="fill:url(#SVGID_00000162341977271274720370000012742162742943557023_);stroke:#828380;stroke-width:10;stroke-miterlimit:10;" d="
	M91.3,362.8c0,0,0.4,83.2,164.7,83.2s164.7-83.2,164.7-83.2v-70.1c0,0-5.4,76.7-161.7,78.9c-157.6,2.2-167.7-78.9-167.7-78.9V362.8z
	"/>
<linearGradient id="SVGID_00000023277269924248963600000001815721459138373520_" gradientUnits="userSpaceOnUse" x1="266" y1="746.3215" x2="266" y2="588.0111">
	<stop  offset="0" style="stop-color:#8F8FBC"/>
	<stop  offset="1" style="stop-color:#EBEAE7"/>
</linearGradient>
<ellipse style="fill:url(#SVGID_00000023277269924248963600000001815721459138373520_);stroke:#828380;stroke-width:10;stroke-miterlimit:10;" cx="266" cy="667.2" rx="164.7" ry="79.2"/>
<linearGradient id="SVGID_00000090988133544132708080000014154796266603327628_" gradientUnits="userSpaceOnUse" x1="430.6875" y1="743.7889" x2="101.3125" y2="743.7889">
	<stop  offset="0" style="stop-color:#8F8FBC"/>
	<stop  offset="1" style="stop-color:#EBEAE7"/>
</linearGradient>
<path style="fill:url(#SVGID_00000090988133544132708080000014154796266603327628_);stroke:#828380;stroke-width:10;stroke-miterlimit:10;" d="
	M101.3,737.2c0,0,0.4,83.2,164.7,83.2s164.7-83.2,164.7-83.2v-70.1c0,0-5.4,76.7-161.7,78.9c-157.6,2.2-167.7-78.9-167.7-78.9V737.2
	z"/>
<linearGradient id="SVGID_00000054261599287117985640000013500788255787003018_" gradientUnits="userSpaceOnUse" x1="430.6875" y1="820.4115" x2="101.3125" y2="820.4115">
	<stop  offset="0" style="stop-color:#8F8FBC"/>
	<stop  offset="1" style="stop-color:#EBEAE7"/>
</linearGradient>
<path style="fill:url(#SVGID_00000054261599287117985640000013500788255787003018_);stroke:#828380;stroke-width:10;stroke-miterlimit:10;" d="
	M101.3,813.9c0,0,0.4,83.2,164.7,83.2s164.7-83.2,164.7-83.2v-70.1c0,0-5.4,76.7-161.7,78.9c-157.6,2.2-167.7-78.9-167.7-78.9V813.9
	z"/>
<linearGradient id="SVGID_00000031898272838145223240000015324870004402168243_" gradientUnits="userSpaceOnUse" x1="430.6875" y1="891.3663" x2="101.3125" y2="891.3663">
	<stop  offset="0" style="stop-color:#8F8FBC"/>
	<stop  offset="1" style="stop-color:#EBEAE7"/>
</linearGradient>
<path style="fill:url(#SVGID_00000031898272838145223240000015324870004402168243_);stroke:#828380;stroke-width:10;stroke-miterlimit:10;" d="
	M101.3,884.8c0,0,0.4,83.2,164.7,83.2s164.7-83.2,164.7-83.2v-70.1c0,0-5.4,76.7-161.7,78.9c-157.6,2.2-167.7-78.9-167.7-78.9V884.8
	z"/>
<linearGradient id="SVGID_00000077288211905811194270000005789576082148438957_" gradientUnits="userSpaceOnUse" x1="256" y1="1248.3214" x2="256" y2="1090.0111">
	<stop  offset="0" style="stop-color:#8F8FBC"/>
	<stop  offset="1" style="stop-color:#EBEAE7"/>
</linearGradient>
<ellipse style="fill:url(#SVGID_00000077288211905811194270000005789576082148438957_);stroke:#828380;stroke-width:10;stroke-miterlimit:10;" cx="256" cy="1169.2" rx="164.7" ry="79.2"/>
<linearGradient id="SVGID_00000116226289143746919130000001160594956705734297_" gradientUnits="userSpaceOnUse" x1="420.6875" y1="1245.7888" x2="91.3125" y2="1245.7888">
	<stop  offset="0" style="stop-color:#8F8FBC"/>
	<stop  offset="1" style="stop-color:#EBEAE7"/>
</linearGradient>
<path style="fill:url(#SVGID_00000116226289143746919130000001160594956705734297_);stroke:#828380;stroke-width:10;stroke-miterlimit:10;" d="
	M91.3,1239.2c0,0,0.4,83.2,164.7,83.2s164.7-83.2,164.7-83.2v-70.1c0,0-5.4,76.7-161.7,78.9c-157.6,2.2-167.7-78.9-167.7-78.9
	V1239.2z"/>
<linearGradient id="SVGID_00000155105600919433176310000018099028241733400962_" gradientUnits="userSpaceOnUse" x1="420.6875" y1="1322.4115" x2="91.3125" y2="1322.4115">
	<stop  offset="0" style="stop-color:#8F8FBC"/>
	<stop  offset="1" style="stop-color:#EBEAE7"/>
</linearGradient>
<path style="fill:url(#SVGID_00000155105600919433176310000018099028241733400962_);stroke:#828380;stroke-width:10;stroke-miterlimit:10;" d="
	M91.3,1315.9c0,0,0.4,83.2,164.7,83.2s164.7-83.2,164.7-83.2v-70.1c0,0-5.4,76.7-161.7,78.9c-157.6,2.2-167.7-78.9-167.7-78.9
	V1315.9z"/>
<linearGradient id="SVGID_00000014603005155029899890000001063076382543347390_" gradientUnits="userSpaceOnUse" x1="420.6875" y1="1393.3663" x2="91.3125" y2="1393.3663">
	<stop  offset="0" style="stop-color:#8F8FBC"/>
	<stop  offset="1" style="stop-color:#EBEAE7"/>
</linearGradient>
<path style="fill:url(#SVGID_00000014603005155029899890000001063076382543347390_);stroke:#828380;stroke-width:10;stroke-miterlimit:10;" d="
	M91.3,1386.8c0,0,0.4,83.2,164.7,83.2s164.7-83.2,164.7-83.2v-70.1c0,0-5.4,76.7-161.7,78.9c-157.6,2.2-167.7-78.9-167.7-78.9
	V1386.8z"/>
<linearGradient id="SVGID_00000052818445502690400830000004548476497567139999_" gradientUnits="userSpaceOnUse" x1="256" y1="1760.3214" x2="256" y2="1602.0111">
	<stop  offset="0" style="stop-color:#949494"/>
	<stop  offset="1" style="stop-color:#EAEAEA"/>
</linearGradient>
<ellipse style="fill:url(#SVGID_00000052818445502690400830000004548476497567139999_);stroke:#828282;stroke-width:10;stroke-miterlimit:10;" cx="256" cy="1681.2" rx="164.7" ry="79.2"/>
<linearGradient id="SVGID_00000075125390299705136180000005273421779537311135_" gradientUnits="userSpaceOnUse" x1="420.6875" y1="1757.7888" x2="91.3125" y2="1757.7888">
	<stop  offset="0" style="stop-color:#949494"/>
	<stop  offset="1" style="stop-color:#EAEAEA"/>
</linearGradient>
<path style="fill:url(#SVGID_00000075125390299705136180000005273421779537311135_);stroke:#828282;stroke-width:10;stroke-miterlimit:10;" d="
	M91.3,1751.2c0,0,0.4,83.2,164.7,83.2s164.7-83.2,164.7-83.2v-70.1c0,0-5.4,76.7-161.7,78.9c-157.6,2.2-167.7-78.9-167.7-78.9
	V1751.2z"/>
<linearGradient id="SVGID_00000070110521655609909310000004071122195071185844_" gradientUnits="userSpaceOnUse" x1="420.6875" y1="1834.4115" x2="91.3125" y2="1834.4115">
	<stop  offset="0" style="stop-color:#949494"/>
	<stop  offset="1" style="stop-color:#EAEAEA"/>
</linearGradient>
<path style="fill:url(#SVGID_00000070110521655609909310000004071122195071185844_);stroke:#828282;stroke-width:10;stroke-miterlimit:10;" d="
	M91.3,1827.9c0,0,0.4,83.2,164.7,83.2s164.7-83.2,164.7-83.2v-70.1c0,0-5.4,76.7-161.7,78.9c-157.6,2.2-167.7-78.9-167.7-78.9
	V1827.9z"/>
<linearGradient id="SVGID_00000036228405730489941300000008052057160423355017_" gradientUnits="userSpaceOnUse" x1="420.6875" y1="1905.3663" x2="91.3125" y2="1905.3663">
	<stop  offset="0" style="stop-color:#949494"/>
	<stop  offset="1" style="stop-color:#EAEAEA"/>
</linearGradient>
<path style="fill:url(#SVGID_00000036228405730489941300000008052057160423355017_);stroke:#828282;stroke-width:10;stroke-miterlimit:10;" d="
	M91.3,1898.8c0,0,0.4,83.2,164.7,83.2s164.7-83.2,164.7-83.2v-70.1c0,0-5.4,76.7-161.7,78.9c-157.6,2.2-167.7-78.9-167.7-78.9
	V1898.8z"/>
<linearGradient id="SVGID_00000101068299380505910980000006295052118004401822_" gradientUnits="userSpaceOnUse" x1="211.3817" y1="-1126.2284" x2="451.3817" y2="-1126.2284" gradientTransform="matrix(1 0 0 1 0 1280)">
	<stop  offset="0" style="stop-color:#BCDAAC"/>
	<stop  offset="1" style="stop-color:#47AD39"/>
</linearGradient>
<path style="fill:url(#SVGID_00000101068299380505910980000006295052118004401822_);stroke:#030405;stroke-width:8;stroke-miterlimit:10;" d="
	M451.4,100.4l-88.2-50.9v33l0,0c-83.8,0-151.8,68-151.8,151.8c0,8.1,0.7,16.1,1.9,23.8h51.3c-0.7-5-1.1-10.1-1.1-15.3
	c0-57.8,43.6-105.5,99.7-112v20.4L451.4,100.4z"/>
<linearGradient id="SVGID_00000177471141829180967800000016623934969538748058_" gradientUnits="userSpaceOnUse" x1="221.3817" y1="-604.2283" x2="461.3817" y2="-604.2283" gradientTransform="matrix(1 0 0 1 0 1280)">
	<stop  offset="0" style="stop-color:#FFDD0D"/>
	<stop  offset="1" style="stop-color:#F8A921"/>
</linearGradient>
<path style="fill:url(#SVGID_00000177471141829180967800000016623934969538748058_);stroke:#030405;stroke-width:8;stroke-miterlimit:10;" d="
	M461.4,622.4l-88.2-50.9v33l0,0c-83.8,0-151.8,68-151.8,151.8c0,8.1,0.7,16.1,1.9,23.8h51.3c-0.7-5-1.1-10.1-1.1-15.3
	c0-57.8,43.6-105.5,99.7-112v20.4L461.4,622.4z"/>
<linearGradient id="SVGID_00000096770509108517592960000017185962391744827802_" gradientUnits="userSpaceOnUse" x1="211.3817" y1="-102.2283" x2="451.3817" y2="-102.2283" gradientTransform="matrix(1 0 0 1 0 1280)">
	<stop  offset="0" style="stop-color:#AED2EE"/>
	<stop  offset="1" style="stop-color:#3EB2E6"/>
</linearGradient>
<path style="fill:url(#SVGID_00000096770509108517592960000017185962391744827802_);stroke:#030405;stroke-width:8;stroke-miterlimit:10;" d="
	M451.4,1124.4l-88.2-50.9v33l0,0c-83.8,0-151.8,68-151.8,151.8c0,8.1,0.7,16.1,1.9,23.8h51.3c-0.7-5-1.1-10.1-1.1-15.3
	c0-57.8,43.6-105.5,99.7-112v20.4L451.4,1124.4z"/>
<linearGradient id="SVGID_00000167356208183708229900000009905868185414833286_" gradientUnits="userSpaceOnUse" x1="211.3817" y1="409.7716" x2="451.3817" y2="409.7716" gradientTransform="matrix(1 0 0 1 0 1280)">
	<stop  offset="0" style="stop-color:#DADADA"/>
	<stop  offset="1" style="stop-color:#ACACAC"/>
</linearGradient>
<path style="fill:url(#SVGID_00000167356208183708229900000009905868185414833286_);stroke:#000000;stroke-width:8;stroke-miterlimit:10;" d="
	M451.4,1636.4l-88.2-50.9v33l0,0c-83.8,0-151.8,68-151.8,151.8c0,8.1,0.7,16.1,1.9,23.8h51.3c-0.7-5-1.1-10.1-1.1-15.3
	c0-57.8,43.6-105.5,99.7-112v20.4L451.4,1636.4z"/>
</svg>
