<?xml version="1.0" encoding="utf-8"?>
<!-- Generator: Adobe Illustrator 27.1.0, SVG Export Plug-In . SVG Version: 6.00 Build 0)  -->
<svg version="1.1" id="Calque_1" xmlns="http://www.w3.org/2000/svg" xmlns:xlink="http://www.w3.org/1999/xlink" x="0px" y="0px"
	 viewBox="0 0 512 2048" style="enable-background:new 0 0 512 2048;" xml:space="preserve">
<style type="text/css">
	.st0{fill:url(#SVGID_1_);stroke:#828380;stroke-width:10;stroke-miterlimit:10;}
	.st1{fill:url(#SVGID_00000023970178445591459500000016741260940222923159_);stroke:#828380;stroke-width:10;stroke-miterlimit:10;}
	.st2{fill:url(#SVGID_00000095317218085048872340000000190156494949545103_);stroke:#828380;stroke-width:10;stroke-miterlimit:10;}
	.st3{fill:url(#SVGID_00000072967977365808969370000007960273126837690013_);stroke:#828380;stroke-width:10;stroke-miterlimit:10;}
	.st4{fill:url(#SVGID_00000078037740262651275120000008832990069636598695_);stroke:#828380;stroke-width:10;stroke-miterlimit:10;}
	.st5{fill:url(#SVGID_00000129173053397731311660000008575023020435413687_);stroke:#828380;stroke-width:10;stroke-miterlimit:10;}
	.st6{fill:url(#SVGID_00000045577718871155428360000007772084413373439874_);stroke:#828380;stroke-width:10;stroke-miterlimit:10;}
	.st7{fill:url(#SVGID_00000075156560729760900800000015922042834402461083_);stroke:#828380;stroke-width:10;stroke-miterlimit:10;}
	.st8{fill:url(#SVGID_00000134961938863689221240000018284676643628689823_);stroke:#828380;stroke-width:10;stroke-miterlimit:10;}
	.st9{fill:url(#SVGID_00000041975416544434342910000002252025268309016758_);stroke:#828380;stroke-width:10;stroke-miterlimit:10;}
	
		.st10{fill:url(#SVGID_00000155861303591140950250000003096817249038835606_);stroke:#828380;stroke-width:10;stroke-miterlimit:10;}
	
		.st11{fill:url(#SVGID_00000061443148799326119630000004533937893868535459_);stroke:#828380;stroke-width:10;stroke-miterlimit:10;}
	
		.st12{fill:url(#SVGID_00000111910021680725578780000014116517546448423581_);stroke:#828282;stroke-width:10;stroke-miterlimit:10;}
	
		.st13{fill:url(#SVGID_00000119819115807298789900000014714957103275301555_);stroke:#828282;stroke-width:10;stroke-miterlimit:10;}
	
		.st14{fill:url(#SVGID_00000151521926734469530000000002722245436747972228_);stroke:#828282;stroke-width:10;stroke-miterlimit:10;}
	
		.st15{fill:url(#SVGID_00000016061016268661222000000003316386152532438160_);stroke:#828282;stroke-width:10;stroke-miterlimit:10;}
	.st16{fill:none;stroke:#020203;stroke-miterlimit:10;}
	.st17{fill:url(#SVGID_00000179642366256587119510000013972445581749718454_);stroke:#030405;stroke-width:8;stroke-miterlimit:10;}
	.st18{fill:url(#SVGID_00000047046141195153713870000001991347203478002581_);stroke:#030405;stroke-width:8;stroke-miterlimit:10;}
	.st19{fill:url(#SVGID_00000157995899537558042590000012502189316979327638_);stroke:#030405;stroke-width:8;stroke-miterlimit:10;}
	.st20{fill:none;stroke:#000000;stroke-miterlimit:10;}
	.st21{fill:url(#SVGID_00000070087885074595536290000017809732690747437706_);stroke:#000000;stroke-width:8;stroke-miterlimit:10;}
</style>
<linearGradient id="SVGID_1_" gradientUnits="userSpaceOnUse" x1="256" y1="224.3214" x2="256" y2="66.0111">
	<stop  offset="0" style="stop-color:#8F8FBC"/>
	<stop  offset="1" style="stop-color:#EBEAE7"/>
</linearGradient>
<ellipse class="st0" cx="256" cy="145.2" rx="164.7" ry="79.2"/>
<linearGradient id="SVGID_00000083072665045104008210000015495264962555384196_" gradientUnits="userSpaceOnUse" x1="420.6875" y1="221.7889" x2="91.3125" y2="221.7889">
	<stop  offset="0" style="stop-color:#8F8FBC"/>
	<stop  offset="1" style="stop-color:#EBEAE7"/>
</linearGradient>
<path style="fill:url(#SVGID_00000083072665045104008210000015495264962555384196_);stroke:#828380;stroke-width:10;stroke-miterlimit:10;" d="
	M91.3,215.2c0,0,0.4,83.2,164.7,83.2s164.7-83.2,164.7-83.2v-70.1c0,0-5.4,76.7-161.7,78.9c-157.6,2.2-167.7-78.9-167.7-78.9V215.2z
	"/>
<linearGradient id="SVGID_00000015329265393997657250000009715784713389923226_" gradientUnits="userSpaceOnUse" x1="420.6875" y1="298.4115" x2="91.3125" y2="298.4115">
	<stop  offset="0" style="stop-color:#8F8FBC"/>
	<stop  offset="1" style="stop-color:#EBEAE7"/>
</linearGradient>
<path style="fill:url(#SVGID_00000015329265393997657250000009715784713389923226_);stroke:#828380;stroke-width:10;stroke-miterlimit:10;" d="
	M91.3,291.9c0,0,0.4,83.2,164.7,83.2s164.7-83.2,164.7-83.2v-70.1c0,0-5.4,76.7-161.7,78.9c-157.6,2.2-167.7-78.9-167.7-78.9V291.9z
	"/>
<linearGradient id="SVGID_00000098191211783225147900000018298383672773751193_" gradientUnits="userSpaceOnUse" x1="420.6875" y1="369.3663" x2="91.3125" y2="369.3663">
	<stop  offset="0" style="stop-color:#8F8FBC"/>
	<stop  offset="1" style="stop-color:#EBEAE7"/>
</linearGradient>
<path style="fill:url(#SVGID_00000098191211783225147900000018298383672773751193_);stroke:#828380;stroke-width:10;stroke-miterlimit:10;" d="
	M91.3,362.8c0,0,0.4,83.2,164.7,83.2s164.7-83.2,164.7-83.2v-70.1c0,0-5.4,76.7-161.7,78.9c-157.6,2.2-167.7-78.9-167.7-78.9V362.8z
	"/>
<linearGradient id="SVGID_00000152238728894334643420000015529945249759633855_" gradientUnits="userSpaceOnUse" x1="266" y1="746.3215" x2="266" y2="588.0111">
	<stop  offset="0" style="stop-color:#8F8FBC"/>
	<stop  offset="1" style="stop-color:#EBEAE7"/>
</linearGradient>
<ellipse style="fill:url(#SVGID_00000152238728894334643420000015529945249759633855_);stroke:#828380;stroke-width:10;stroke-miterlimit:10;" cx="266" cy="667.2" rx="164.7" ry="79.2"/>
<linearGradient id="SVGID_00000009571910952592520290000001286904825068542143_" gradientUnits="userSpaceOnUse" x1="430.6875" y1="743.7889" x2="101.3125" y2="743.7889">
	<stop  offset="0" style="stop-color:#8F8FBC"/>
	<stop  offset="1" style="stop-color:#EBEAE7"/>
</linearGradient>
<path style="fill:url(#SVGID_00000009571910952592520290000001286904825068542143_);stroke:#828380;stroke-width:10;stroke-miterlimit:10;" d="
	M101.3,737.2c0,0,0.4,83.2,164.7,83.2s164.7-83.2,164.7-83.2v-70.1c0,0-5.4,76.7-161.7,78.9c-157.6,2.2-167.7-78.9-167.7-78.9V737.2
	z"/>
<linearGradient id="SVGID_00000108291002380230310620000001249119923165740165_" gradientUnits="userSpaceOnUse" x1="430.6875" y1="820.4115" x2="101.3125" y2="820.4115">
	<stop  offset="0" style="stop-color:#8F8FBC"/>
	<stop  offset="1" style="stop-color:#EBEAE7"/>
</linearGradient>
<path style="fill:url(#SVGID_00000108291002380230310620000001249119923165740165_);stroke:#828380;stroke-width:10;stroke-miterlimit:10;" d="
	M101.3,813.9c0,0,0.4,83.2,164.7,83.2s164.7-83.2,164.7-83.2v-70.1c0,0-5.4,76.7-161.7,78.9c-157.6,2.2-167.7-78.9-167.7-78.9V813.9
	z"/>
<linearGradient id="SVGID_00000098917750015657696010000009934462239721957023_" gradientUnits="userSpaceOnUse" x1="430.6875" y1="891.3663" x2="101.3125" y2="891.3663">
	<stop  offset="0" style="stop-color:#8F8FBC"/>
	<stop  offset="1" style="stop-color:#EBEAE7"/>
</linearGradient>
<path style="fill:url(#SVGID_00000098917750015657696010000009934462239721957023_);stroke:#828380;stroke-width:10;stroke-miterlimit:10;" d="
	M101.3,884.8c0,0,0.4,83.2,164.7,83.2s164.7-83.2,164.7-83.2v-70.1c0,0-5.4,76.7-161.7,78.9c-157.6,2.2-167.7-78.9-167.7-78.9V884.8
	z"/>
<linearGradient id="SVGID_00000102542414374291174670000011249860126134779061_" gradientUnits="userSpaceOnUse" x1="256" y1="1248.3214" x2="256" y2="1090.0111">
	<stop  offset="0" style="stop-color:#8F8FBC"/>
	<stop  offset="1" style="stop-color:#EBEAE7"/>
</linearGradient>
<ellipse style="fill:url(#SVGID_00000102542414374291174670000011249860126134779061_);stroke:#828380;stroke-width:10;stroke-miterlimit:10;" cx="256" cy="1169.2" rx="164.7" ry="79.2"/>
<linearGradient id="SVGID_00000088847725499313219560000012105936189321120171_" gradientUnits="userSpaceOnUse" x1="420.6875" y1="1245.7888" x2="91.3125" y2="1245.7888">
	<stop  offset="0" style="stop-color:#8F8FBC"/>
	<stop  offset="1" style="stop-color:#EBEAE7"/>
</linearGradient>
<path style="fill:url(#SVGID_00000088847725499313219560000012105936189321120171_);stroke:#828380;stroke-width:10;stroke-miterlimit:10;" d="
	M91.3,1239.2c0,0,0.4,83.2,164.7,83.2s164.7-83.2,164.7-83.2v-70.1c0,0-5.4,76.7-161.7,78.9c-157.6,2.2-167.7-78.9-167.7-78.9
	V1239.2z"/>
<linearGradient id="SVGID_00000066502882404486297400000006031026803240649389_" gradientUnits="userSpaceOnUse" x1="420.6875" y1="1322.4115" x2="91.3125" y2="1322.4115">
	<stop  offset="0" style="stop-color:#8F8FBC"/>
	<stop  offset="1" style="stop-color:#EBEAE7"/>
</linearGradient>
<path style="fill:url(#SVGID_00000066502882404486297400000006031026803240649389_);stroke:#828380;stroke-width:10;stroke-miterlimit:10;" d="
	M91.3,1315.9c0,0,0.4,83.2,164.7,83.2s164.7-83.2,164.7-83.2v-70.1c0,0-5.4,76.7-161.7,78.9c-157.6,2.2-167.7-78.9-167.7-78.9
	V1315.9z"/>
<linearGradient id="SVGID_00000007399810910157091460000015054400432980755894_" gradientUnits="userSpaceOnUse" x1="420.6875" y1="1393.3663" x2="91.3125" y2="1393.3663">
	<stop  offset="0" style="stop-color:#8F8FBC"/>
	<stop  offset="1" style="stop-color:#EBEAE7"/>
</linearGradient>
<path style="fill:url(#SVGID_00000007399810910157091460000015054400432980755894_);stroke:#828380;stroke-width:10;stroke-miterlimit:10;" d="
	M91.3,1386.8c0,0,0.4,83.2,164.7,83.2s164.7-83.2,164.7-83.2v-70.1c0,0-5.4,76.7-161.7,78.9c-157.6,2.2-167.7-78.9-167.7-78.9
	V1386.8z"/>
<linearGradient id="SVGID_00000051366711346751061350000012142209870683718566_" gradientUnits="userSpaceOnUse" x1="256" y1="1760.3214" x2="256" y2="1602.0111">
	<stop  offset="0" style="stop-color:#949494"/>
	<stop  offset="1" style="stop-color:#EAEAEA"/>
</linearGradient>
<ellipse style="fill:url(#SVGID_00000051366711346751061350000012142209870683718566_);stroke:#828282;stroke-width:10;stroke-miterlimit:10;" cx="256" cy="1681.2" rx="164.7" ry="79.2"/>
<linearGradient id="SVGID_00000014628865924460196160000013340414151240957623_" gradientUnits="userSpaceOnUse" x1="420.6875" y1="1757.7888" x2="91.3125" y2="1757.7888">
	<stop  offset="0" style="stop-color:#949494"/>
	<stop  offset="1" style="stop-color:#EAEAEA"/>
</linearGradient>
<path style="fill:url(#SVGID_00000014628865924460196160000013340414151240957623_);stroke:#828282;stroke-width:10;stroke-miterlimit:10;" d="
	M91.3,1751.2c0,0,0.4,83.2,164.7,83.2s164.7-83.2,164.7-83.2v-70.1c0,0-5.4,76.7-161.7,78.9c-157.6,2.2-167.7-78.9-167.7-78.9
	V1751.2z"/>
<linearGradient id="SVGID_00000132797210499474723100000004098768269192870824_" gradientUnits="userSpaceOnUse" x1="420.6875" y1="1834.4115" x2="91.3125" y2="1834.4115">
	<stop  offset="0" style="stop-color:#949494"/>
	<stop  offset="1" style="stop-color:#EAEAEA"/>
</linearGradient>
<path style="fill:url(#SVGID_00000132797210499474723100000004098768269192870824_);stroke:#828282;stroke-width:10;stroke-miterlimit:10;" d="
	M91.3,1827.9c0,0,0.4,83.2,164.7,83.2s164.7-83.2,164.7-83.2v-70.1c0,0-5.4,76.7-161.7,78.9c-157.6,2.2-167.7-78.9-167.7-78.9
	V1827.9z"/>
<linearGradient id="SVGID_00000158724063858430649060000002448224887354540197_" gradientUnits="userSpaceOnUse" x1="420.6875" y1="1905.3663" x2="91.3125" y2="1905.3663">
	<stop  offset="0" style="stop-color:#949494"/>
	<stop  offset="1" style="stop-color:#EAEAEA"/>
</linearGradient>
<path style="fill:url(#SVGID_00000158724063858430649060000002448224887354540197_);stroke:#828282;stroke-width:10;stroke-miterlimit:10;" d="
	M91.3,1898.8c0,0,0.4,83.2,164.7,83.2s164.7-83.2,164.7-83.2v-70.1c0,0-5.4,76.7-161.7,78.9c-157.6,2.2-167.7-78.9-167.7-78.9
	V1898.8z"/>
<path class="st16" d="M366.7,457"/>
<linearGradient id="SVGID_00000170986692816712228560000004606698894555593104_" gradientUnits="userSpaceOnUse" x1="168.5433" y1="-1114.8918" x2="418.5525" y2="-1114.8918" gradientTransform="matrix(1 0 0 1 0 1280)">
	<stop  offset="0" style="stop-color:#ED7E87"/>
	<stop  offset="1" style="stop-color:#E62631"/>
</linearGradient>
<path style="fill:url(#SVGID_00000170986692816712228560000004606698894555593104_);stroke:#030405;stroke-width:8;stroke-miterlimit:10;" d="
	M414.3,258.3l-96.2-96.2l64.8-65.2c2.6-2.6,3-6.7,1-9.9l0,0c-2.5-3.8-7.6-4.8-11.3-2.1l-76.2,55.5l-85.8-85.8
	c-10-10-26.2-9.5-35.7,0.9l0,0c-9.2,10.2-8.3,26.1,2.1,35.1l85.7,74.3l-67,48.8c-13,9.5-14,28.6-2.1,39.4l0,0
	c10.1,9.1,25.4,8.6,35-1l62.3-62.7l103.8,90c5.7,5,14.3,4.6,19.6-0.7l0,0C420,273,420,263.9,414.3,258.3z"/>
<path class="st16" d="M376.7,979"/>
<linearGradient id="SVGID_00000106833107720854151690000015235135848098077624_" gradientUnits="userSpaceOnUse" x1="178.5433" y1="-592.8917" x2="428.5525" y2="-592.8917" gradientTransform="matrix(1 0 0 1 0 1280)">
	<stop  offset="0" style="stop-color:#FFDD0D"/>
	<stop  offset="1" style="stop-color:#F8A921"/>
</linearGradient>
<path style="fill:url(#SVGID_00000106833107720854151690000015235135848098077624_);stroke:#030405;stroke-width:8;stroke-miterlimit:10;" d="
	M424.3,780.3l-96.2-96.2l64.8-65.2c2.6-2.6,3-6.7,1-9.9l0,0c-2.5-3.8-7.6-4.8-11.3-2.1l-76.2,55.5l-85.8-85.8
	c-10-10-26.2-9.5-35.7,0.9l0,0c-9.2,10.2-8.3,26.1,2.1,35.1l85.7,74.3l-67,48.8c-13,9.5-14,28.6-2.1,39.4l0,0
	c10.1,9.1,25.4,8.6,35-1l62.3-62.7l103.8,90c5.7,5,14.3,4.6,19.6-0.7l0,0C430,795,430,785.9,424.3,780.3z"/>
<path class="st16" d="M366.7,1482.2"/>
<linearGradient id="SVGID_00000004507535555742690830000004915711016702533013_" gradientUnits="userSpaceOnUse" x1="168.5433" y1="-89.6417" x2="418.5525" y2="-89.6417" gradientTransform="matrix(1 0 0 1 0 1280)">
	<stop  offset="0" style="stop-color:#AED2EE"/>
	<stop  offset="1" style="stop-color:#3EB2E6"/>
</linearGradient>
<path style="fill:url(#SVGID_00000004507535555742690830000004915711016702533013_);stroke:#030405;stroke-width:8;stroke-miterlimit:10;" d="
	M414.3,1283.6l-96.2-96.2l64.8-65.2c2.6-2.6,3-6.7,1-9.9l0,0c-2.5-3.8-7.6-4.8-11.3-2.1l-76.2,55.5l-85.8-85.8
	c-10-10-26.2-9.6-35.7,0.9l0,0c-9.2,10.2-8.3,26.1,2.1,35.1l85.7,74.3l-67,48.8c-13,9.5-14,28.6-2.1,39.4l0,0
	c10.1,9.1,25.4,8.6,35-1l62.3-62.7l103.8,90c5.7,4.9,14.3,4.6,19.6-0.7l0,0C420,1298.3,420,1289.2,414.3,1283.6z"/>
<path class="st20" d="M366.7,1994.2"/>
<linearGradient id="SVGID_00000163070573890782245100000017346462878903404439_" gradientUnits="userSpaceOnUse" x1="168.5433" y1="422.3583" x2="418.5525" y2="422.3583" gradientTransform="matrix(1 0 0 1 0 1280)">
	<stop  offset="0" style="stop-color:#969696"/>
	<stop  offset="1" style="stop-color:#5B5B5B"/>
</linearGradient>
<path style="fill:url(#SVGID_00000163070573890782245100000017346462878903404439_);stroke:#000000;stroke-width:8;stroke-miterlimit:10;" d="
	M414.3,1795.6l-96.2-96.2l64.8-65.2c2.6-2.6,3-6.7,1-9.9l0,0c-2.5-3.8-7.6-4.8-11.3-2.1l-76.2,55.5l-85.8-85.8
	c-10-10-26.2-9.6-35.7,0.9l0,0c-9.2,10.2-8.3,26.1,2.1,35.1l85.7,74.3l-67,48.8c-13,9.5-14,28.6-2.1,39.4l0,0
	c10.1,9.1,25.4,8.6,35-1l62.3-62.7l103.8,90c5.7,4.9,14.3,4.6,19.6-0.7l0,0C420,1810.3,420,1801.2,414.3,1795.6z"/>
</svg>
