<?xml version="1.0" encoding="utf-8"?>
<!-- Generator: Adobe Illustrator 27.1.0, SVG Export Plug-In . SVG Version: 6.00 Build 0)  -->
<svg version="1.1" id="Calque_1" xmlns="http://www.w3.org/2000/svg" xmlns:xlink="http://www.w3.org/1999/xlink" x="0px" y="0px"
	 viewBox="0 0 512 2048" style="enable-background:new 0 0 512 2048;" xml:space="preserve">
<style type="text/css">
	.st0{fill:url(#SVGID_1_);stroke:#676767;stroke-width:9;stroke-miterlimit:10;}
	
		.st1{opacity:0.5;fill:none;stroke:url(#SVGID_00000026877091233771207020000012562349433325579171_);stroke-width:16;stroke-miterlimit:10;enable-background:new    ;}
	.st2{fill:url(#SVGID_00000096061321211846153030000001699063905631241354_);stroke:#333333;stroke-miterlimit:10;}
	
		.st3{opacity:0.4;fill:url(#SVGID_00000133528714903360698540000009429467420723496348_);stroke:#333333;stroke-miterlimit:10;enable-background:new    ;}
	.st4{fill:url(#SVGID_00000088824706915356118310000011290366652251286165_);stroke:#676767;stroke-width:9;stroke-miterlimit:10;}
	
		.st5{opacity:0.5;fill:none;stroke:url(#SVGID_00000093875359649473549350000010236834126704923289_);stroke-width:16;stroke-miterlimit:10;enable-background:new    ;}
	.st6{fill:url(#SVGID_00000176039314381658590330000007100783749050800261_);stroke:#030304;stroke-miterlimit:10;}
	.st7{opacity:0.4;fill:url(#SVGID_00000165928810276994599340000004556803781519941555_);enable-background:new    ;}
	.st8{fill:url(#SVGID_00000168820203766108416650000007518924805518448010_);stroke:#676767;stroke-width:9;stroke-miterlimit:10;}
	
		.st9{opacity:0.5;fill:none;stroke:url(#SVGID_00000103974811418948302320000006330579672822004867_);stroke-width:16;stroke-miterlimit:10;enable-background:new    ;}
	.st10{fill:url(#SVGID_00000039095043373843692290000016852278152900695738_);stroke:#030304;stroke-miterlimit:10;}
	.st11{opacity:0.4;fill:url(#SVGID_00000131356912061547394200000012645689324925479082_);enable-background:new    ;}
	.st12{fill:url(#SVGID_00000092447350243717779580000013390379565382002306_);stroke:#676767;stroke-width:9;stroke-miterlimit:10;}
	
		.st13{opacity:0.5;fill:none;stroke:url(#SVGID_00000099641265097694157540000008083640163368222875_);stroke-width:16;stroke-miterlimit:10;enable-background:new    ;}
	.st14{fill:url(#SVGID_00000057148595164823822680000012543266422067144338_);stroke:#333333;stroke-miterlimit:10;}
	.st15{opacity:0.4;fill:url(#SVGID_00000039848920034679604650000006489509308254023061_);enable-background:new    ;}
	.st16{opacity:0.9;fill:#FFFFFF;stroke:#333333;stroke-miterlimit:10;enable-background:new    ;}
</style>
<linearGradient id="SVGID_1_" gradientUnits="userSpaceOnUse" x1="133.6796" y1="4142.1348" x2="378.3204" y2="4565.8652" gradientTransform="matrix(1 0 0 -1 0 4610)">
	<stop  offset="0" style="stop-color:#5F6C7C"/>
	<stop  offset="1" style="stop-color:#D7D6D9"/>
</linearGradient>
<circle class="st0" cx="256" cy="256" r="244.6"/>
<linearGradient id="SVGID_00000073715533528115570900000016701646510166257084_" gradientUnits="userSpaceOnUse" x1="363.6173" y1="1978.3987" x2="148.3827" y2="1605.6013" gradientTransform="matrix(1 0 0 -1 0 2048)">
	<stop  offset="1.078831e-03" style="stop-color:#333F4F"/>
	<stop  offset="1" style="stop-color:#FFFFFF"/>
</linearGradient>
<circle style="opacity:0.5;fill:none;stroke:url(#SVGID_00000073715533528115570900000016701646510166257084_);stroke-width:16;stroke-miterlimit:10;enable-background:new    ;" cx="256" cy="256" r="207.2"/>
<linearGradient id="SVGID_00000181775435653201880840000009845344161812064659_" gradientUnits="userSpaceOnUse" x1="256" y1="4550.2998" x2="256" y2="4157.7002" gradientTransform="matrix(1 0 0 -1 0 4610)">
	<stop  offset="5.392733e-04" style="stop-color:#60B2E4"/>
	<stop  offset="1" style="stop-color:#646AAF"/>
</linearGradient>
<circle style="fill:url(#SVGID_00000181775435653201880840000009845344161812064659_);stroke:#333333;stroke-miterlimit:10;" cx="256" cy="256" r="196.3"/>
<linearGradient id="SVGID_00000170976432757883535060000008291586735298388118_" gradientUnits="userSpaceOnUse" x1="256.1" y1="1595.6" x2="256.1" y2="1796.7" gradientTransform="matrix(1 0 0 -1 0 2048)">
	<stop  offset="0" style="stop-color:#FFFFFF;stop-opacity:5.000000e-02"/>
	<stop  offset="1" style="stop-color:#FFFFFF"/>
</linearGradient>
<path style="opacity:0.4;fill:url(#SVGID_00000170976432757883535060000008291586735298388118_);stroke:#333333;stroke-miterlimit:10;enable-background:new    ;" d="
	M336.3,287.5c-87.4,3.9-130.8-33.1-179.6-36.2c-38.1,1.2-79.8,19.7-96.2,27.8c11.4,97.6,94.3,173.3,194.9,173.3
	c108.4,0,196.3-87.9,196.3-196.3c0-0.5,0-0.9,0-1.4C420.9,269.9,379.5,285.5,336.3,287.5z"/>
<linearGradient id="SVGID_00000127035208012508630890000005295359687773045160_" gradientUnits="userSpaceOnUse" x1="133.6795" y1="3630.1348" x2="378.3205" y2="4053.8652" gradientTransform="matrix(1 0 0 -1 0 4610)">
	<stop  offset="0" style="stop-color:#5F6C7C"/>
	<stop  offset="1" style="stop-color:#D7D6D9"/>
</linearGradient>
<circle style="fill:url(#SVGID_00000127035208012508630890000005295359687773045160_);stroke:#676767;stroke-width:9;stroke-miterlimit:10;" cx="256" cy="768" r="244.6"/>
<linearGradient id="SVGID_00000083769364839799996920000000535914309585444739_" gradientUnits="userSpaceOnUse" x1="363.6173" y1="4028.3987" x2="148.3827" y2="3655.6013" gradientTransform="matrix(1 0 0 -1 0 4610)">
	<stop  offset="1.078831e-03" style="stop-color:#333F4F"/>
	<stop  offset="1" style="stop-color:#FFFFFF"/>
</linearGradient>
<circle style="opacity:0.5;fill:none;stroke:url(#SVGID_00000083769364839799996920000000535914309585444739_);stroke-width:16;stroke-miterlimit:10;enable-background:new    ;" cx="256" cy="768" r="207.2"/>
<linearGradient id="SVGID_00000086662657003232978990000010223699891183337103_" gradientUnits="userSpaceOnUse" x1="256" y1="4038.3" x2="256" y2="3645.7" gradientTransform="matrix(1 0 0 -1 0 4610)">
	<stop  offset="2.194295e-07" style="stop-color:#FDFC04"/>
	<stop  offset="0.9995" style="stop-color:#BC8017"/>
</linearGradient>
<circle style="fill:url(#SVGID_00000086662657003232978990000010223699891183337103_);stroke:#030304;stroke-miterlimit:10;" cx="256" cy="768" r="196.3"/>
<linearGradient id="SVGID_00000026161664385457220500000001625343810174693510_" gradientUnits="userSpaceOnUse" x1="256.1" y1="1083.6001" x2="256.1" y2="1284.7" gradientTransform="matrix(1 0 0 -1 0 2048)">
	<stop  offset="0" style="stop-color:#FFFFFF;stop-opacity:5.000000e-02"/>
	<stop  offset="1" style="stop-color:#FFFFFF"/>
</linearGradient>
<path style="opacity:0.4;fill:url(#SVGID_00000026161664385457220500000001625343810174693510_);enable-background:new    ;" d="
	M336.3,799.5c-87.4,3.9-130.8-33.1-179.6-36.2c-38.1,1.2-79.8,19.7-96.2,27.8c11.4,97.6,94.3,173.3,194.9,173.3
	c108.4,0,196.3-87.9,196.3-196.3c0-0.5,0-0.9,0-1.4C420.9,781.9,379.5,797.5,336.3,799.5z"/>
<linearGradient id="SVGID_00000067220023454842669410000017918203364101220489_" gradientUnits="userSpaceOnUse" x1="133.6795" y1="3118.1348" x2="378.3205" y2="3541.8652" gradientTransform="matrix(1 0 0 -1 0 4610)">
	<stop  offset="0" style="stop-color:#5F6C7C"/>
	<stop  offset="1" style="stop-color:#D7D6D9"/>
</linearGradient>
<circle style="fill:url(#SVGID_00000067220023454842669410000017918203364101220489_);stroke:#676767;stroke-width:9;stroke-miterlimit:10;" cx="256" cy="1280" r="244.6"/>
<linearGradient id="SVGID_00000039096109728363652590000001493969966182121625_" gradientUnits="userSpaceOnUse" x1="363.6172" y1="3516.3987" x2="148.3828" y2="3143.6013" gradientTransform="matrix(1 0 0 -1 0 4610)">
	<stop  offset="1.078831e-03" style="stop-color:#333F4F"/>
	<stop  offset="1" style="stop-color:#FFFFFF"/>
</linearGradient>
<circle style="opacity:0.5;fill:none;stroke:url(#SVGID_00000039096109728363652590000001493969966182121625_);stroke-width:16;stroke-miterlimit:10;enable-background:new    ;" cx="256" cy="1280" r="207.2"/>
<linearGradient id="SVGID_00000145043846416545729520000016321205500084012982_" gradientUnits="userSpaceOnUse" x1="256" y1="3526.3" x2="256" y2="3133.7" gradientTransform="matrix(1 0 0 -1 0 4610)">
	<stop  offset="5.391326e-04" style="stop-color:#90FE83"/>
	<stop  offset="1" style="stop-color:#399036"/>
</linearGradient>
<circle style="fill:url(#SVGID_00000145043846416545729520000016321205500084012982_);stroke:#030304;stroke-miterlimit:10;" cx="256" cy="1280" r="196.3"/>
<linearGradient id="SVGID_00000053530781450625427930000008400179856144598942_" gradientUnits="userSpaceOnUse" x1="256.1" y1="571.5999" x2="256.1" y2="772.7" gradientTransform="matrix(1 0 0 -1 0 2048)">
	<stop  offset="0" style="stop-color:#FFFFFF;stop-opacity:5.000000e-02"/>
	<stop  offset="1" style="stop-color:#FFFFFF"/>
</linearGradient>
<path style="opacity:0.4;fill:url(#SVGID_00000053530781450625427930000008400179856144598942_);enable-background:new    ;" d="
	M336.3,1311.5c-87.4,3.9-130.8-33.1-179.6-36.2c-38.1,1.2-79.8,19.7-96.2,27.8c11.4,97.6,94.3,173.3,194.9,173.3
	c108.4,0,196.3-87.9,196.3-196.3c0-0.5,0-0.9,0-1.4C420.9,1293.9,379.5,1309.5,336.3,1311.5z"/>
<linearGradient id="SVGID_00000080917737045477402460000003017021894454519955_" gradientUnits="userSpaceOnUse" x1="133.6795" y1="2606.1348" x2="378.3205" y2="3029.8652" gradientTransform="matrix(1 0 0 -1 0 4610)">
	<stop  offset="0" style="stop-color:#5F6C7C"/>
	<stop  offset="1" style="stop-color:#D7D6D9"/>
</linearGradient>
<circle style="fill:url(#SVGID_00000080917737045477402460000003017021894454519955_);stroke:#676767;stroke-width:9;stroke-miterlimit:10;" cx="256" cy="1792" r="244.6"/>
<linearGradient id="SVGID_00000064326884999754686910000014285405110281275781_" gradientUnits="userSpaceOnUse" x1="363.6172" y1="3004.3987" x2="148.3828" y2="2631.6013" gradientTransform="matrix(1 0 0 -1 0 4610)">
	<stop  offset="1.078831e-03" style="stop-color:#333F4F"/>
	<stop  offset="1" style="stop-color:#FFFFFF"/>
</linearGradient>
<circle style="opacity:0.5;fill:none;stroke:url(#SVGID_00000064326884999754686910000014285405110281275781_);stroke-width:16;stroke-miterlimit:10;enable-background:new    ;" cx="256" cy="1792" r="207.2"/>
<linearGradient id="SVGID_00000025418241008693771890000011724299324785339031_" gradientUnits="userSpaceOnUse" x1="256" y1="3014.3" x2="256" y2="2621.7" gradientTransform="matrix(1 0 0 -1 0 4610)">
	<stop  offset="0" style="stop-color:#949494"/>
	<stop  offset="1" style="stop-color:#1E1E1E"/>
</linearGradient>
<circle style="fill:url(#SVGID_00000025418241008693771890000011724299324785339031_);stroke:#333333;stroke-miterlimit:10;" cx="256" cy="1792" r="196.3"/>
<linearGradient id="SVGID_00000155831276176915402660000015928608452835498425_" gradientUnits="userSpaceOnUse" x1="256.1" y1="59.5999" x2="256.1" y2="260.7" gradientTransform="matrix(1 0 0 -1 0 2048)">
	<stop  offset="0" style="stop-color:#FFFFFF;stop-opacity:5.000000e-02"/>
	<stop  offset="1" style="stop-color:#FFFFFF"/>
</linearGradient>
<path style="opacity:0.4;fill:url(#SVGID_00000155831276176915402660000015928608452835498425_);enable-background:new    ;" d="
	M336.3,1823.5c-87.4,3.9-130.8-33.1-179.6-36.2c-38.1,1.2-79.8,19.7-96.2,27.8c11.4,97.6,94.3,173.3,194.9,173.3
	c108.4,0,196.3-87.9,196.3-196.3c0-0.5,0-0.9,0-1.4C420.9,1805.9,379.5,1821.5,336.3,1823.5z"/>
<polygon class="st16" points="329.7,136.2 256,209.9 182.3,136.2 141,177.5 214.7,251.3 141,325 182.3,366.2 256,292.6 329.7,366.2 
	371,325 297.3,251.2 371,177.5 "/>
<polygon class="st16" points="329.7,1672.2 256,1745.9 182.3,1672.2 141,1713.5 214.7,1787.3 141,1861 182.3,1902.2 256,1828.6 
	329.7,1902.2 371,1861 297.3,1787.2 371,1713.5 "/>
<polygon class="st16" points="329.7,1160.2 256,1233.9 182.3,1160.2 141,1201.5 214.7,1275.3 141,1349 182.3,1390.2 256,1316.6 
	329.7,1390.2 371,1349 297.3,1275.2 371,1201.5 "/>
<polygon class="st16" points="329.7,648.2 256,721.9 182.3,648.2 141,689.5 214.7,763.2 141,837 182.3,878.2 256,804.6 329.7,878.2 
	371,837 297.3,763.2 371,689.5 "/>
</svg>
