<?xml version="1.0" encoding="utf-8"?>
<!-- Generator: Adobe Illustrator 27.1.0, SVG Export Plug-In . SVG Version: 6.00 Build 0)  -->
<svg version="1.1" id="Calque_1" xmlns="http://www.w3.org/2000/svg" xmlns:xlink="http://www.w3.org/1999/xlink" x="0px" y="0px"
	 viewBox="0 0 512 2048" style="enable-background:new 0 0 512 2048;" xml:space="preserve">
<style type="text/css">
	.st0{fill:url(#SVGID_1_);stroke:#676767;stroke-width:9;stroke-miterlimit:10;}
	
		.st1{opacity:0.5;fill:none;stroke:url(#SVGID_00000109010575692484917330000008512063780102148484_);stroke-width:16;stroke-miterlimit:10;enable-background:new    ;}
	.st2{fill:url(#SVGID_00000016033727901663274360000017124935259579985801_);stroke:#333333;stroke-miterlimit:10;}
	
		.st3{opacity:0.4;fill:url(#SVGID_00000029040287968570950400000013870935998275844790_);stroke:#333333;stroke-miterlimit:10;enable-background:new    ;}
	.st4{fill:url(#SVGID_00000013883848370590831760000004853206882005588367_);stroke:#676767;stroke-width:9;stroke-miterlimit:10;}
	
		.st5{opacity:0.5;fill:none;stroke:url(#SVGID_00000088837133116851797700000010864502905307335092_);stroke-width:16;stroke-miterlimit:10;enable-background:new    ;}
	.st6{fill:url(#SVGID_00000120537289988958729620000011793866045985593756_);stroke:#030304;stroke-miterlimit:10;}
	.st7{opacity:0.4;fill:url(#SVGID_00000168833511119313443140000015006976894644527545_);enable-background:new    ;}
	.st8{fill:url(#SVGID_00000119816180672213611020000000372152579938962562_);stroke:#676767;stroke-width:9;stroke-miterlimit:10;}
	
		.st9{opacity:0.5;fill:none;stroke:url(#SVGID_00000157992659379914137410000013775196153586725816_);stroke-width:16;stroke-miterlimit:10;enable-background:new    ;}
	.st10{fill:url(#SVGID_00000171716582647612571460000003193024961518817700_);stroke:#030304;stroke-miterlimit:10;}
	.st11{opacity:0.4;fill:url(#SVGID_00000070812571863429185820000017426354812612014229_);enable-background:new    ;}
	.st12{fill:url(#SVGID_00000123413076796022095950000005211686415020001950_);stroke:#676767;stroke-width:9;stroke-miterlimit:10;}
	
		.st13{opacity:0.5;fill:none;stroke:url(#SVGID_00000063627373109956117450000004846186425646492330_);stroke-width:16;stroke-miterlimit:10;enable-background:new    ;}
	.st14{fill:url(#SVGID_00000040534823080791088570000003883080616285413280_);stroke:#333333;stroke-miterlimit:10;}
	.st15{opacity:0.4;fill:url(#SVGID_00000016067906118057780540000010129802372319183782_);enable-background:new    ;}
	.st16{opacity:0.9;fill:#FFFFFF;stroke:#333333;stroke-miterlimit:10;}
</style>
<linearGradient id="SVGID_1_" gradientUnits="userSpaceOnUse" x1="133.6796" y1="4142.1348" x2="378.3204" y2="4565.8652" gradientTransform="matrix(1 0 0 -1 0 4610)">
	<stop  offset="0" style="stop-color:#5F6C7C"/>
	<stop  offset="1" style="stop-color:#D7D6D9"/>
</linearGradient>
<circle class="st0" cx="256" cy="256" r="244.6"/>
<linearGradient id="SVGID_00000127748536377666709300000015154712077680658834_" gradientUnits="userSpaceOnUse" x1="363.6173" y1="1978.3987" x2="148.3827" y2="1605.6013" gradientTransform="matrix(1 0 0 -1 0 2048)">
	<stop  offset="1.078831e-03" style="stop-color:#333F4F"/>
	<stop  offset="1" style="stop-color:#FFFFFF"/>
</linearGradient>
<circle style="opacity:0.5;fill:none;stroke:url(#SVGID_00000127748536377666709300000015154712077680658834_);stroke-width:16;stroke-miterlimit:10;enable-background:new    ;" cx="256" cy="256" r="207.2"/>
<linearGradient id="SVGID_00000142865431709612213470000012098847238592550817_" gradientUnits="userSpaceOnUse" x1="256" y1="4550.2998" x2="256" y2="4157.7002" gradientTransform="matrix(1 0 0 -1 0 4610)">
	<stop  offset="5.392733e-04" style="stop-color:#60B2E4"/>
	<stop  offset="1" style="stop-color:#646AAF"/>
</linearGradient>
<circle style="fill:url(#SVGID_00000142865431709612213470000012098847238592550817_);stroke:#333333;stroke-miterlimit:10;" cx="256" cy="256" r="196.3"/>
<linearGradient id="SVGID_00000034774653295385411460000018057281215465239709_" gradientUnits="userSpaceOnUse" x1="256.1" y1="1595.6" x2="256.1" y2="1796.7" gradientTransform="matrix(1 0 0 -1 0 2048)">
	<stop  offset="0" style="stop-color:#FFFFFF;stop-opacity:5.000000e-02"/>
	<stop  offset="1" style="stop-color:#FFFFFF"/>
</linearGradient>
<path style="opacity:0.4;fill:url(#SVGID_00000034774653295385411460000018057281215465239709_);stroke:#333333;stroke-miterlimit:10;enable-background:new    ;" d="
	M336.3,287.5c-87.4,3.9-130.8-33.1-179.6-36.2c-38.1,1.2-79.8,19.7-96.2,27.8c11.4,97.6,94.3,173.3,194.9,173.3
	c108.4,0,196.3-87.9,196.3-196.3c0-0.5,0-0.9,0-1.4C420.9,269.9,379.5,285.5,336.3,287.5z"/>
<linearGradient id="SVGID_00000029010577526647592710000017791423376045164961_" gradientUnits="userSpaceOnUse" x1="133.6795" y1="3630.1348" x2="378.3205" y2="4053.8652" gradientTransform="matrix(1 0 0 -1 0 4610)">
	<stop  offset="0" style="stop-color:#5F6C7C"/>
	<stop  offset="1" style="stop-color:#D7D6D9"/>
</linearGradient>
<circle style="fill:url(#SVGID_00000029010577526647592710000017791423376045164961_);stroke:#676767;stroke-width:9;stroke-miterlimit:10;" cx="256" cy="768" r="244.6"/>
<linearGradient id="SVGID_00000077325224148959288110000006152838470587266493_" gradientUnits="userSpaceOnUse" x1="363.6173" y1="4028.3987" x2="148.3827" y2="3655.6013" gradientTransform="matrix(1 0 0 -1 0 4610)">
	<stop  offset="1.078831e-03" style="stop-color:#333F4F"/>
	<stop  offset="1" style="stop-color:#FFFFFF"/>
</linearGradient>
<circle style="opacity:0.5;fill:none;stroke:url(#SVGID_00000077325224148959288110000006152838470587266493_);stroke-width:16;stroke-miterlimit:10;enable-background:new    ;" cx="256" cy="768" r="207.2"/>
<linearGradient id="SVGID_00000052819177318158024920000011943432100591452831_" gradientUnits="userSpaceOnUse" x1="256" y1="4038.3" x2="256" y2="3645.7" gradientTransform="matrix(1 0 0 -1 0 4610)">
	<stop  offset="2.194295e-07" style="stop-color:#FDFC04"/>
	<stop  offset="0.9995" style="stop-color:#BC8017"/>
</linearGradient>
<circle style="fill:url(#SVGID_00000052819177318158024920000011943432100591452831_);stroke:#030304;stroke-miterlimit:10;" cx="256" cy="768" r="196.3"/>
<linearGradient id="SVGID_00000057860528325198030910000002214198589497979549_" gradientUnits="userSpaceOnUse" x1="256.1" y1="1083.6001" x2="256.1" y2="1284.7" gradientTransform="matrix(1 0 0 -1 0 2048)">
	<stop  offset="0" style="stop-color:#FFFFFF;stop-opacity:5.000000e-02"/>
	<stop  offset="1" style="stop-color:#FFFFFF"/>
</linearGradient>
<path style="opacity:0.4;fill:url(#SVGID_00000057860528325198030910000002214198589497979549_);enable-background:new    ;" d="
	M336.3,799.5c-87.4,3.9-130.8-33.1-179.6-36.2c-38.1,1.2-79.8,19.7-96.2,27.8c11.4,97.6,94.3,173.3,194.9,173.3
	c108.4,0,196.3-87.9,196.3-196.3c0-0.5,0-0.9,0-1.4C420.9,781.9,379.5,797.5,336.3,799.5z"/>
<linearGradient id="SVGID_00000132807499484754090700000000226603515841556392_" gradientUnits="userSpaceOnUse" x1="133.6795" y1="3118.1348" x2="378.3205" y2="3541.8652" gradientTransform="matrix(1 0 0 -1 0 4610)">
	<stop  offset="0" style="stop-color:#5F6C7C"/>
	<stop  offset="1" style="stop-color:#D7D6D9"/>
</linearGradient>
<circle style="fill:url(#SVGID_00000132807499484754090700000000226603515841556392_);stroke:#676767;stroke-width:9;stroke-miterlimit:10;" cx="256" cy="1280" r="244.6"/>
<linearGradient id="SVGID_00000102511167319427355820000016634837425305689217_" gradientUnits="userSpaceOnUse" x1="363.6172" y1="3516.3987" x2="148.3828" y2="3143.6013" gradientTransform="matrix(1 0 0 -1 0 4610)">
	<stop  offset="1.078831e-03" style="stop-color:#333F4F"/>
	<stop  offset="1" style="stop-color:#FFFFFF"/>
</linearGradient>
<circle style="opacity:0.5;fill:none;stroke:url(#SVGID_00000102511167319427355820000016634837425305689217_);stroke-width:16;stroke-miterlimit:10;enable-background:new    ;" cx="256" cy="1280" r="207.2"/>
<linearGradient id="SVGID_00000001626766668644572280000003588982225387718289_" gradientUnits="userSpaceOnUse" x1="256" y1="3526.3" x2="256" y2="3133.7" gradientTransform="matrix(1 0 0 -1 0 4610)">
	<stop  offset="5.391326e-04" style="stop-color:#90FE83"/>
	<stop  offset="1" style="stop-color:#399036"/>
</linearGradient>
<circle style="fill:url(#SVGID_00000001626766668644572280000003588982225387718289_);stroke:#030304;stroke-miterlimit:10;" cx="256" cy="1280" r="196.3"/>
<linearGradient id="SVGID_00000064344563473188098020000012181342375955092099_" gradientUnits="userSpaceOnUse" x1="256.1" y1="571.5999" x2="256.1" y2="772.7" gradientTransform="matrix(1 0 0 -1 0 2048)">
	<stop  offset="0" style="stop-color:#FFFFFF;stop-opacity:5.000000e-02"/>
	<stop  offset="1" style="stop-color:#FFFFFF"/>
</linearGradient>
<path style="opacity:0.4;fill:url(#SVGID_00000064344563473188098020000012181342375955092099_);enable-background:new    ;" d="
	M336.3,1311.5c-87.4,3.9-130.8-33.1-179.6-36.2c-38.1,1.2-79.8,19.7-96.2,27.8c11.4,97.6,94.3,173.3,194.9,173.3
	c108.4,0,196.3-87.9,196.3-196.3c0-0.5,0-0.9,0-1.4C420.9,1293.9,379.5,1309.5,336.3,1311.5z"/>
<linearGradient id="SVGID_00000036966797853312703420000011265116750606171266_" gradientUnits="userSpaceOnUse" x1="133.6795" y1="2606.1348" x2="378.3205" y2="3029.8652" gradientTransform="matrix(1 0 0 -1 0 4610)">
	<stop  offset="0" style="stop-color:#5F6C7C"/>
	<stop  offset="1" style="stop-color:#D7D6D9"/>
</linearGradient>
<circle style="fill:url(#SVGID_00000036966797853312703420000011265116750606171266_);stroke:#676767;stroke-width:9;stroke-miterlimit:10;" cx="256" cy="1792" r="244.6"/>
<linearGradient id="SVGID_00000180326665175419725710000017471809771611900821_" gradientUnits="userSpaceOnUse" x1="363.6172" y1="3004.3987" x2="148.3828" y2="2631.6013" gradientTransform="matrix(1 0 0 -1 0 4610)">
	<stop  offset="1.078831e-03" style="stop-color:#333F4F"/>
	<stop  offset="1" style="stop-color:#FFFFFF"/>
</linearGradient>
<circle style="opacity:0.5;fill:none;stroke:url(#SVGID_00000180326665175419725710000017471809771611900821_);stroke-width:16;stroke-miterlimit:10;enable-background:new    ;" cx="256" cy="1792" r="207.2"/>
<linearGradient id="SVGID_00000142877745118248942380000012445951171794240932_" gradientUnits="userSpaceOnUse" x1="256" y1="3014.3" x2="256" y2="2621.7" gradientTransform="matrix(1 0 0 -1 0 4610)">
	<stop  offset="0" style="stop-color:#949494"/>
	<stop  offset="1" style="stop-color:#1E1E1E"/>
</linearGradient>
<circle style="fill:url(#SVGID_00000142877745118248942380000012445951171794240932_);stroke:#333333;stroke-miterlimit:10;" cx="256" cy="1792" r="196.3"/>
<linearGradient id="SVGID_00000146462109696311165410000014286742120362025628_" gradientUnits="userSpaceOnUse" x1="256.1" y1="59.5999" x2="256.1" y2="260.7" gradientTransform="matrix(1 0 0 -1 0 2048)">
	<stop  offset="0" style="stop-color:#FFFFFF;stop-opacity:5.000000e-02"/>
	<stop  offset="1" style="stop-color:#FFFFFF"/>
</linearGradient>
<path style="opacity:0.4;fill:url(#SVGID_00000146462109696311165410000014286742120362025628_);enable-background:new    ;" d="
	M336.3,1823.5c-87.4,3.9-130.8-33.1-179.6-36.2c-38.1,1.2-79.8,19.7-96.2,27.8c11.4,97.6,94.3,173.3,194.9,173.3
	c108.4,0,196.3-87.9,196.3-196.3c0-0.5,0-0.9,0-1.4C420.9,1805.9,379.5,1821.5,336.3,1823.5z"/>
<g>
	<path class="st16" d="M249.1,169.8V141h-59.3v230h59.3v-28.8h-8c-12,0-21.7-9.7-21.7-21.7V191.5c0-12,9.7-21.7,21.7-21.7H249.1z"/>
	<path class="st16" d="M265.1,180.9c-10.3,0-20.1,2.1-29,5.8v20.7c8.5-5.1,18.4-8,29-8c31.3,0,56.6,25.3,56.6,56.6
		c0,31.3-25.3,56.6-56.6,56.6c-10.6,0-20.6-2.9-29-8v20.7c8.9,3.7,18.7,5.8,29,5.8c41.5,0,75.1-33.6,75.1-75.1
		C340.2,214.5,306.6,180.9,265.1,180.9z"/>
	<path class="st16" d="M265.1,207.8c-10.9,0-21,3.6-29,9.7v76.9c8.1,6.1,18.1,9.7,29,9.7c26.6,0,48.2-21.6,48.2-48.2
		S291.7,207.8,265.1,207.8z"/>
</g>
<g>
	<path class="st16" d="M249.1,681.8V653h-59.3v230h59.3v-28.8h-8c-12,0-21.7-9.7-21.7-21.7V703.5c0-12,9.7-21.7,21.7-21.7H249.1z"/>
	<path class="st16" d="M265.1,692.9c-10.3,0-20.1,2.1-29,5.8v20.7c8.5-5.1,18.4-8,29-8c31.3,0,56.6,25.3,56.6,56.6
		c0,31.3-25.3,56.6-56.6,56.6c-10.6,0-20.6-2.9-29-8v20.7c8.9,3.7,18.7,5.8,29,5.8c41.5,0,75.1-33.6,75.1-75.1
		C340.2,726.5,306.6,692.9,265.1,692.9z"/>
	<path class="st16" d="M265.1,719.8c-10.9,0-21,3.6-29,9.7v76.9c8.1,6.1,18.1,9.7,29,9.7c26.6,0,48.2-21.6,48.2-48.2
		S291.7,719.8,265.1,719.8z"/>
</g>
<g>
	<path class="st16" d="M249.1,1193.8V1165h-59.3v230h59.3v-28.8h-8c-12,0-21.7-9.7-21.7-21.7v-129.1c0-12,9.7-21.7,21.7-21.7H249.1z
		"/>
	<path class="st16" d="M265.1,1204.9c-10.3,0-20.1,2.1-29,5.8v20.7c8.5-5.1,18.4-8,29-8c31.3,0,56.6,25.3,56.6,56.6
		c0,31.3-25.3,56.6-56.6,56.6c-10.6,0-20.6-2.9-29-8v20.7c8.9,3.7,18.7,5.8,29,5.8c41.5,0,75.1-33.6,75.1-75.1
		C340.2,1238.5,306.6,1204.9,265.1,1204.9z"/>
	<path class="st16" d="M265.1,1231.8c-10.9,0-21,3.6-29,9.7v76.9c8.1,6.1,18.1,9.7,29,9.7c26.6,0,48.2-21.6,48.2-48.2
		S291.7,1231.8,265.1,1231.8z"/>
</g>
<g>
	<path class="st16" d="M249.1,1705.8V1677h-59.3v230h59.3v-28.8h-8c-12,0-21.7-9.7-21.7-21.7v-129.1c0-12,9.7-21.7,21.7-21.7H249.1z
		"/>
	<path class="st16" d="M265.1,1716.9c-10.3,0-20.1,2.1-29,5.8v20.7c8.5-5.1,18.4-8,29-8c31.3,0,56.6,25.3,56.6,56.6
		c0,31.3-25.3,56.6-56.6,56.6c-10.6,0-20.6-2.9-29-8v20.7c8.9,3.7,18.7,5.8,29,5.8c41.5,0,75.1-33.6,75.1-75.1
		C340.2,1750.5,306.6,1716.9,265.1,1716.9z"/>
	<path class="st16" d="M265.1,1743.8c-10.9,0-21,3.6-29,9.7v76.9c8.1,6.1,18.1,9.7,29,9.7c26.6,0,48.2-21.6,48.2-48.2
		S291.7,1743.8,265.1,1743.8z"/>
</g>
</svg>
