<?xml version="1.0" encoding="utf-8"?>
<!-- Generator: Adobe Illustrator 27.1.0, SVG Export Plug-In . SVG Version: 6.00 Build 0)  -->
<svg version="1.1" id="Calque_1" xmlns="http://www.w3.org/2000/svg" xmlns:xlink="http://www.w3.org/1999/xlink" x="0px" y="0px"
	 viewBox="0 0 512 2048" style="enable-background:new 0 0 512 2048;" xml:space="preserve">
<style type="text/css">
	.st0{fill:url(#SVGID_1_);stroke:#676767;stroke-width:9;stroke-miterlimit:10;}
	
		.st1{opacity:0.5;fill:none;stroke:url(#SVGID_00000074433313202619783550000015004904553563642278_);stroke-width:16;stroke-miterlimit:10;enable-background:new    ;}
	.st2{fill:url(#SVGID_00000034074664856983258890000002303672804018460553_);stroke:#333333;stroke-miterlimit:10;}
	
		.st3{opacity:0.4;fill:url(#SVGID_00000138554846937137468710000007259813174929003150_);stroke:#333333;stroke-miterlimit:10;enable-background:new    ;}
	.st4{fill:url(#SVGID_00000172437430001761182560000002712285546812386195_);stroke:#676767;stroke-width:9;stroke-miterlimit:10;}
	
		.st5{opacity:0.5;fill:none;stroke:url(#SVGID_00000103241384537731863760000014282255032948812954_);stroke-width:16;stroke-miterlimit:10;enable-background:new    ;}
	.st6{fill:url(#SVGID_00000036972628912212361880000008076077362755897261_);stroke:#030304;stroke-miterlimit:10;}
	.st7{opacity:0.4;fill:url(#SVGID_00000098935946998119361780000013219503725819340677_);enable-background:new    ;}
	.st8{fill:url(#SVGID_00000033347659113686653040000000529478822535110813_);stroke:#676767;stroke-width:9;stroke-miterlimit:10;}
	
		.st9{opacity:0.5;fill:none;stroke:url(#SVGID_00000049191743590073410790000004990168926492736660_);stroke-width:16;stroke-miterlimit:10;enable-background:new    ;}
	.st10{fill:url(#SVGID_00000090974844641660167800000003570485496356136090_);stroke:#030304;stroke-miterlimit:10;}
	.st11{opacity:0.4;fill:url(#SVGID_00000083795496837283931880000005976085730058269078_);enable-background:new    ;}
	.st12{fill:url(#SVGID_00000152255950312338129660000000467437540617739183_);stroke:#676767;stroke-width:9;stroke-miterlimit:10;}
	
		.st13{opacity:0.5;fill:none;stroke:url(#SVGID_00000179644236567374539810000004293434361901699205_);stroke-width:16;stroke-miterlimit:10;enable-background:new    ;}
	.st14{fill:url(#SVGID_00000026859970144667756200000007632201586210937786_);stroke:#333333;stroke-miterlimit:10;}
	.st15{opacity:0.4;fill:url(#SVGID_00000029045870475604029600000009985550624542459822_);enable-background:new    ;}
	.st16{opacity:0.9;fill:#FFFFFF;stroke:#333333;stroke-miterlimit:10;enable-background:new    ;}
</style>
<linearGradient id="SVGID_1_" gradientUnits="userSpaceOnUse" x1="133.6646" y1="-2094.1089" x2="378.3354" y2="-2517.8911" gradientTransform="matrix(1 0 0 1 0 2562)">
	<stop  offset="0" style="stop-color:#5F6C7C"/>
	<stop  offset="1" style="stop-color:#D7D6D9"/>
</linearGradient>
<circle class="st0" cx="256" cy="256" r="244.6"/>
<linearGradient id="SVGID_00000168802824289592429570000015995091785386507917_" gradientUnits="userSpaceOnUse" x1="363.6073" y1="69.6187" x2="148.3927" y2="442.3813">
	<stop  offset="1.078831e-03" style="stop-color:#333F4F"/>
	<stop  offset="1" style="stop-color:#FFFFFF"/>
</linearGradient>
<circle style="opacity:0.5;fill:none;stroke:url(#SVGID_00000168802824289592429570000015995091785386507917_);stroke-width:16;stroke-miterlimit:10;enable-background:new    ;" cx="256" cy="256" r="207.2"/>
<linearGradient id="SVGID_00000045621182076706753940000005104927598824611237_" gradientUnits="userSpaceOnUse" x1="256" y1="-2502.3" x2="256" y2="-2109.7" gradientTransform="matrix(1 0 0 1 0 2562)">
	<stop  offset="5.392733e-04" style="stop-color:#60B2E4"/>
	<stop  offset="1" style="stop-color:#646AAF"/>
</linearGradient>
<circle style="fill:url(#SVGID_00000045621182076706753940000005104927598824611237_);stroke:#333333;stroke-miterlimit:10;" cx="256" cy="256" r="196.3"/>
<linearGradient id="SVGID_00000052096496449650856630000015223286206005056187_" gradientUnits="userSpaceOnUse" x1="256.005" y1="452.3" x2="256.005" y2="251.25">
	<stop  offset="0" style="stop-color:#FFFFFF;stop-opacity:5.000000e-02"/>
	<stop  offset="1" style="stop-color:#FFFFFF"/>
</linearGradient>
<path style="opacity:0.4;fill:url(#SVGID_00000052096496449650856630000015223286206005056187_);stroke:#333333;stroke-miterlimit:10;enable-background:new    ;" d="
	M336.3,287.5c-87.4,3.9-130.8-33.1-179.6-36.2c-38.1,1.2-79.8,19.7-96.2,27.8c11.4,97.6,94.3,173.3,194.9,173.3
	c108.4,0,196.3-87.9,196.3-196.3c0-0.5,0-0.9,0-1.4C420.9,269.9,379.5,285.5,336.3,287.5z"/>
<linearGradient id="SVGID_00000000218590304429539010000017416445740415265925_" gradientUnits="userSpaceOnUse" x1="133.6645" y1="-1582.1089" x2="378.3355" y2="-2005.8911" gradientTransform="matrix(1 0 0 1 0 2562)">
	<stop  offset="0" style="stop-color:#5F6C7C"/>
	<stop  offset="1" style="stop-color:#D7D6D9"/>
</linearGradient>
<circle style="fill:url(#SVGID_00000000218590304429539010000017416445740415265925_);stroke:#676767;stroke-width:9;stroke-miterlimit:10;" cx="256" cy="768" r="244.6"/>
<linearGradient id="SVGID_00000062181481562229500980000002185399900796204958_" gradientUnits="userSpaceOnUse" x1="363.6073" y1="-1980.3813" x2="148.3927" y2="-1607.6187" gradientTransform="matrix(1 0 0 1 0 2562)">
	<stop  offset="1.078831e-03" style="stop-color:#333F4F"/>
	<stop  offset="1" style="stop-color:#FFFFFF"/>
</linearGradient>
<circle style="opacity:0.5;fill:none;stroke:url(#SVGID_00000062181481562229500980000002185399900796204958_);stroke-width:16;stroke-miterlimit:10;enable-background:new    ;" cx="256" cy="768" r="207.2"/>
<linearGradient id="SVGID_00000117658343061961934030000008026404593256433854_" gradientUnits="userSpaceOnUse" x1="256" y1="-1990.3" x2="256" y2="-1597.7" gradientTransform="matrix(1 0 0 1 0 2562)">
	<stop  offset="2.194295e-07" style="stop-color:#FDFC04"/>
	<stop  offset="0.9995" style="stop-color:#BC8017"/>
</linearGradient>
<circle style="fill:url(#SVGID_00000117658343061961934030000008026404593256433854_);stroke:#030304;stroke-miterlimit:10;" cx="256" cy="768" r="196.3"/>
<linearGradient id="SVGID_00000092416221335390169950000003160431976477868165_" gradientUnits="userSpaceOnUse" x1="256.005" y1="964.3" x2="256.005" y2="763.25">
	<stop  offset="0" style="stop-color:#FFFFFF;stop-opacity:5.000000e-02"/>
	<stop  offset="1" style="stop-color:#FFFFFF"/>
</linearGradient>
<path style="opacity:0.4;fill:url(#SVGID_00000092416221335390169950000003160431976477868165_);enable-background:new    ;" d="
	M336.3,799.5c-87.4,3.9-130.8-33.1-179.6-36.2c-38.1,1.2-79.8,19.7-96.2,27.8c11.4,97.6,94.3,173.3,194.9,173.3
	c108.4,0,196.3-87.9,196.3-196.3c0-0.5,0-0.9,0-1.4C420.9,781.9,379.5,797.5,336.3,799.5z"/>
<linearGradient id="SVGID_00000006681192038795041380000016065391832304379305_" gradientUnits="userSpaceOnUse" x1="133.6645" y1="-1070.1089" x2="378.3355" y2="-1493.8911" gradientTransform="matrix(1 0 0 1 0 2562)">
	<stop  offset="0" style="stop-color:#5F6C7C"/>
	<stop  offset="1" style="stop-color:#D7D6D9"/>
</linearGradient>
<circle style="fill:url(#SVGID_00000006681192038795041380000016065391832304379305_);stroke:#676767;stroke-width:9;stroke-miterlimit:10;" cx="256" cy="1280" r="244.6"/>
<linearGradient id="SVGID_00000137847667544220079960000001212915114753618339_" gradientUnits="userSpaceOnUse" x1="363.6072" y1="-1468.3813" x2="148.3928" y2="-1095.6187" gradientTransform="matrix(1 0 0 1 0 2562)">
	<stop  offset="1.078831e-03" style="stop-color:#333F4F"/>
	<stop  offset="1" style="stop-color:#FFFFFF"/>
</linearGradient>
<circle style="opacity:0.5;fill:none;stroke:url(#SVGID_00000137847667544220079960000001212915114753618339_);stroke-width:16;stroke-miterlimit:10;enable-background:new    ;" cx="256" cy="1280" r="207.2"/>
<linearGradient id="SVGID_00000099653690217263563980000004235298352502642619_" gradientUnits="userSpaceOnUse" x1="256" y1="-1478.3" x2="256" y2="-1085.7" gradientTransform="matrix(1 0 0 1 0 2562)">
	<stop  offset="5.391326e-04" style="stop-color:#90FE83"/>
	<stop  offset="1" style="stop-color:#399036"/>
</linearGradient>
<circle style="fill:url(#SVGID_00000099653690217263563980000004235298352502642619_);stroke:#030304;stroke-miterlimit:10;" cx="256" cy="1280" r="196.3"/>
<linearGradient id="SVGID_00000111181756061682170570000016591387763049981868_" gradientUnits="userSpaceOnUse" x1="256.005" y1="1476.3" x2="256.005" y2="1275.25">
	<stop  offset="0" style="stop-color:#FFFFFF;stop-opacity:5.000000e-02"/>
	<stop  offset="1" style="stop-color:#FFFFFF"/>
</linearGradient>
<path style="opacity:0.4;fill:url(#SVGID_00000111181756061682170570000016591387763049981868_);enable-background:new    ;" d="
	M336.3,1311.5c-87.4,3.9-130.8-33.1-179.6-36.2c-38.1,1.2-79.8,19.7-96.2,27.8c11.4,97.6,94.3,173.3,194.9,173.3
	c108.4,0,196.3-87.9,196.3-196.3c0-0.5,0-0.9,0-1.4C420.9,1293.9,379.5,1309.5,336.3,1311.5z"/>
<linearGradient id="SVGID_00000142174499129176943160000015380814343739502247_" gradientUnits="userSpaceOnUse" x1="133.6645" y1="-558.1089" x2="378.3355" y2="-981.8911" gradientTransform="matrix(1 0 0 1 0 2562)">
	<stop  offset="0" style="stop-color:#5F6C7C"/>
	<stop  offset="1" style="stop-color:#D7D6D9"/>
</linearGradient>
<circle style="fill:url(#SVGID_00000142174499129176943160000015380814343739502247_);stroke:#676767;stroke-width:9;stroke-miterlimit:10;" cx="256" cy="1792" r="244.6"/>
<linearGradient id="SVGID_00000054975412248457310680000009426918263734252437_" gradientUnits="userSpaceOnUse" x1="363.6072" y1="-956.3813" x2="148.3928" y2="-583.6187" gradientTransform="matrix(1 0 0 1 0 2562)">
	<stop  offset="1.078831e-03" style="stop-color:#333F4F"/>
	<stop  offset="1" style="stop-color:#FFFFFF"/>
</linearGradient>
<circle style="opacity:0.5;fill:none;stroke:url(#SVGID_00000054975412248457310680000009426918263734252437_);stroke-width:16;stroke-miterlimit:10;enable-background:new    ;" cx="256" cy="1792" r="207.2"/>
<linearGradient id="SVGID_00000115510770085763019600000004451788376228668573_" gradientUnits="userSpaceOnUse" x1="256" y1="-966.3" x2="256" y2="-573.7" gradientTransform="matrix(1 0 0 1 0 2562)">
	<stop  offset="0" style="stop-color:#949494"/>
	<stop  offset="1" style="stop-color:#1E1E1E"/>
</linearGradient>
<circle style="fill:url(#SVGID_00000115510770085763019600000004451788376228668573_);stroke:#333333;stroke-miterlimit:10;" cx="256" cy="1792" r="196.3"/>
<linearGradient id="SVGID_00000102543911273628645480000017672048478097324973_" gradientUnits="userSpaceOnUse" x1="256.005" y1="1988.3" x2="256.005" y2="1787.25">
	<stop  offset="0" style="stop-color:#FFFFFF;stop-opacity:5.000000e-02"/>
	<stop  offset="1" style="stop-color:#FFFFFF"/>
</linearGradient>
<path style="opacity:0.4;fill:url(#SVGID_00000102543911273628645480000017672048478097324973_);enable-background:new    ;" d="
	M336.3,1823.5c-87.4,3.9-130.8-33.1-179.6-36.2c-38.1,1.2-79.8,19.7-96.2,27.8c11.4,97.6,94.3,173.3,194.9,173.3
	c108.4,0,196.3-87.9,196.3-196.3c0-0.5,0-0.9,0-1.4C420.9,1805.9,379.5,1821.5,336.3,1823.5z"/>
<g>
	<path class="st16" d="M313.5,165.3l-16.4,28.5c24.5,14.2,41.1,40.7,41.1,71.1c0,45.4-36.8,82.1-82.1,82.1s-82.1-36.8-82.1-82.1
		c0-30.4,16.5-56.9,41.1-71.1l-16.4-28.5c-34.4,19.9-57.5,57.1-57.5,99.6c0,63.5,51.5,115,115,115s115-51.5,115-115
		C371,222.4,347.9,185.2,313.5,165.3z"/>
	<rect x="238.9" y="132.1" class="st16" width="34" height="108.3"/>
</g>
<g>
	<path class="st16" d="M313.5,677.3l-16.4,28.5c24.5,14.2,41.1,40.7,41.1,71.1c0,45.4-36.8,82.1-82.1,82.1s-82.1-36.8-82.1-82.1
		c0-30.4,16.5-56.9,41.1-71.1l-16.4-28.5c-34.4,19.9-57.5,57.1-57.5,99.6c0,63.5,51.5,115,115,115s115-51.5,115-115
		C371,734.4,347.9,697.2,313.5,677.3z"/>
	<rect x="238.9" y="644.1" class="st16" width="34" height="108.3"/>
</g>
<g>
	<path class="st16" d="M313.5,1189.3l-16.4,28.5c24.5,14.2,41.1,40.7,41.1,71.1c0,45.4-36.8,82.1-82.1,82.1s-82.1-36.8-82.1-82.1
		c0-30.4,16.5-56.9,41.1-71.1l-16.4-28.5c-34.4,19.9-57.5,57.1-57.5,99.6c0,63.5,51.5,115,115,115s115-51.5,115-115
		C371,1246.4,347.9,1209.2,313.5,1189.3z"/>
	<rect x="238.9" y="1156.1" class="st16" width="34" height="108.3"/>
</g>
<g>
	<path class="st16" d="M313.5,1701.3l-16.4,28.5c24.5,14.2,41.1,40.7,41.1,71.1c0,45.4-36.8,82.1-82.1,82.1s-82.1-36.8-82.1-82.1
		c0-30.4,16.5-56.9,41.1-71.1l-16.4-28.5c-34.4,19.9-57.5,57.1-57.5,99.6c0,63.5,51.5,115,115,115s115-51.5,115-115
		C371,1758.4,347.9,1721.2,313.5,1701.3z"/>
	<rect x="238.9" y="1668.1" class="st16" width="34" height="108.3"/>
</g>
</svg>
