<?xml version="1.0" encoding="utf-8"?>
<!-- Generator: Adobe Illustrator 27.1.0, SVG Export Plug-In . SVG Version: 6.00 Build 0)  -->
<svg version="1.1" id="Calque_1" xmlns="http://www.w3.org/2000/svg" xmlns:xlink="http://www.w3.org/1999/xlink" x="0px" y="0px"
	 viewBox="0 0 512 2048" style="enable-background:new 0 0 512 2048;" xml:space="preserve">
<style type="text/css">
	.st0{fill:url(#SVGID_1_);stroke:#676767;stroke-width:9;stroke-miterlimit:10;}
	
		.st1{opacity:0.5;fill:none;stroke:url(#SVGID_00000099654694832477406570000018162934877100959145_);stroke-width:16;stroke-miterlimit:10;enable-background:new    ;}
	.st2{fill:url(#SVGID_00000124158014135350935550000007617379305005154999_);stroke:#333333;stroke-miterlimit:10;}
	
		.st3{opacity:0.4;fill:url(#SVGID_00000110469999979888812730000012493604142063092868_);stroke:#333333;stroke-miterlimit:10;enable-background:new    ;}
	.st4{fill:url(#SVGID_00000019647423321752681980000011724601575303925904_);stroke:#676767;stroke-width:9;stroke-miterlimit:10;}
	
		.st5{opacity:0.5;fill:none;stroke:url(#SVGID_00000034081263353591701430000012444470234678366353_);stroke-width:16;stroke-miterlimit:10;enable-background:new    ;}
	.st6{fill:url(#SVGID_00000174589011367640400230000003081129678915470233_);stroke:#030304;stroke-miterlimit:10;}
	.st7{opacity:0.4;fill:url(#SVGID_00000125586901549337440890000009349423998559333765_);enable-background:new    ;}
	.st8{fill:url(#SVGID_00000180338659713629755530000012236295702770833282_);stroke:#676767;stroke-width:9;stroke-miterlimit:10;}
	
		.st9{opacity:0.5;fill:none;stroke:url(#SVGID_00000094607658041419677480000008735799219934463677_);stroke-width:16;stroke-miterlimit:10;enable-background:new    ;}
	.st10{fill:url(#SVGID_00000052085758477209241730000002095873531305893797_);stroke:#030304;stroke-miterlimit:10;}
	.st11{opacity:0.4;fill:url(#SVGID_00000180345637263556554770000001798030440800149127_);enable-background:new    ;}
	.st12{fill:url(#SVGID_00000064319474592965932520000013649263264737542317_);stroke:#676767;stroke-width:9;stroke-miterlimit:10;}
	
		.st13{opacity:0.5;fill:none;stroke:url(#SVGID_00000127008568622571281500000012146556439976235189_);stroke-width:16;stroke-miterlimit:10;enable-background:new    ;}
	.st14{fill:url(#SVGID_00000091703267955222668830000015254467854408535991_);stroke:#333333;stroke-miterlimit:10;}
	.st15{opacity:0.4;fill:url(#SVGID_00000153704402789549544390000011075788636775443354_);enable-background:new    ;}
	.st16{opacity:0.9;fill:#FFFFFF;stroke:#333333;stroke-miterlimit:10;}
</style>
<linearGradient id="SVGID_1_" gradientUnits="userSpaceOnUse" x1="133.6796" y1="4142.1348" x2="378.3204" y2="4565.8652" gradientTransform="matrix(1 0 0 -1 0 4610)">
	<stop  offset="0" style="stop-color:#5F6C7C"/>
	<stop  offset="1" style="stop-color:#D7D6D9"/>
</linearGradient>
<circle class="st0" cx="256" cy="256" r="244.6"/>
<linearGradient id="SVGID_00000129172724423013329540000011095985361469080488_" gradientUnits="userSpaceOnUse" x1="363.6173" y1="1978.3987" x2="148.3827" y2="1605.6013" gradientTransform="matrix(1 0 0 -1 0 2048)">
	<stop  offset="1.078831e-03" style="stop-color:#333F4F"/>
	<stop  offset="1" style="stop-color:#FFFFFF"/>
</linearGradient>
<circle style="opacity:0.5;fill:none;stroke:url(#SVGID_00000129172724423013329540000011095985361469080488_);stroke-width:16;stroke-miterlimit:10;enable-background:new    ;" cx="256" cy="256" r="207.2"/>
<linearGradient id="SVGID_00000119092177855440783160000009705610812838316945_" gradientUnits="userSpaceOnUse" x1="256" y1="4550.2998" x2="256" y2="4157.7002" gradientTransform="matrix(1 0 0 -1 0 4610)">
	<stop  offset="5.392733e-04" style="stop-color:#60B2E4"/>
	<stop  offset="1" style="stop-color:#646AAF"/>
</linearGradient>
<circle style="fill:url(#SVGID_00000119092177855440783160000009705610812838316945_);stroke:#333333;stroke-miterlimit:10;" cx="256" cy="256" r="196.3"/>
<linearGradient id="SVGID_00000179645133515347190590000007776018192531007409_" gradientUnits="userSpaceOnUse" x1="256.1" y1="1595.6" x2="256.1" y2="1796.7" gradientTransform="matrix(1 0 0 -1 0 2048)">
	<stop  offset="0" style="stop-color:#FFFFFF;stop-opacity:5.000000e-02"/>
	<stop  offset="1" style="stop-color:#FFFFFF"/>
</linearGradient>
<path style="opacity:0.4;fill:url(#SVGID_00000179645133515347190590000007776018192531007409_);stroke:#333333;stroke-miterlimit:10;enable-background:new    ;" d="
	M336.3,287.5c-87.4,3.9-130.8-33.1-179.6-36.2c-38.1,1.2-79.8,19.7-96.2,27.8c11.4,97.6,94.3,173.3,194.9,173.3
	c108.4,0,196.3-87.9,196.3-196.3c0-0.5,0-0.9,0-1.4C420.9,269.9,379.5,285.5,336.3,287.5z"/>
<linearGradient id="SVGID_00000176009523354062900810000000893496518438220952_" gradientUnits="userSpaceOnUse" x1="133.6795" y1="3630.1348" x2="378.3205" y2="4053.8652" gradientTransform="matrix(1 0 0 -1 0 4610)">
	<stop  offset="0" style="stop-color:#5F6C7C"/>
	<stop  offset="1" style="stop-color:#D7D6D9"/>
</linearGradient>
<circle style="fill:url(#SVGID_00000176009523354062900810000000893496518438220952_);stroke:#676767;stroke-width:9;stroke-miterlimit:10;" cx="256" cy="768" r="244.6"/>
<linearGradient id="SVGID_00000064349079158325224340000011224589257097824899_" gradientUnits="userSpaceOnUse" x1="363.6173" y1="4028.3987" x2="148.3827" y2="3655.6013" gradientTransform="matrix(1 0 0 -1 0 4610)">
	<stop  offset="1.078831e-03" style="stop-color:#333F4F"/>
	<stop  offset="1" style="stop-color:#FFFFFF"/>
</linearGradient>
<circle style="opacity:0.5;fill:none;stroke:url(#SVGID_00000064349079158325224340000011224589257097824899_);stroke-width:16;stroke-miterlimit:10;enable-background:new    ;" cx="256" cy="768" r="207.2"/>
<linearGradient id="SVGID_00000181769037494329826270000005067857992090229380_" gradientUnits="userSpaceOnUse" x1="256" y1="4038.3" x2="256" y2="3645.7" gradientTransform="matrix(1 0 0 -1 0 4610)">
	<stop  offset="2.194295e-07" style="stop-color:#FDFC04"/>
	<stop  offset="0.9995" style="stop-color:#BC8017"/>
</linearGradient>
<circle style="fill:url(#SVGID_00000181769037494329826270000005067857992090229380_);stroke:#030304;stroke-miterlimit:10;" cx="256" cy="768" r="196.3"/>
<linearGradient id="SVGID_00000089576010497662388530000005098212283973859459_" gradientUnits="userSpaceOnUse" x1="256.1" y1="1083.6001" x2="256.1" y2="1284.7" gradientTransform="matrix(1 0 0 -1 0 2048)">
	<stop  offset="0" style="stop-color:#FFFFFF;stop-opacity:5.000000e-02"/>
	<stop  offset="1" style="stop-color:#FFFFFF"/>
</linearGradient>
<path style="opacity:0.4;fill:url(#SVGID_00000089576010497662388530000005098212283973859459_);enable-background:new    ;" d="
	M336.3,799.5c-87.4,3.9-130.8-33.1-179.6-36.2c-38.1,1.2-79.8,19.7-96.2,27.8c11.4,97.6,94.3,173.3,194.9,173.3
	c108.4,0,196.3-87.9,196.3-196.3c0-0.5,0-0.9,0-1.4C420.9,781.9,379.5,797.5,336.3,799.5z"/>
<linearGradient id="SVGID_00000028299091868419372240000015384320477004335540_" gradientUnits="userSpaceOnUse" x1="133.6795" y1="3118.1348" x2="378.3205" y2="3541.8652" gradientTransform="matrix(1 0 0 -1 0 4610)">
	<stop  offset="0" style="stop-color:#5F6C7C"/>
	<stop  offset="1" style="stop-color:#D7D6D9"/>
</linearGradient>
<circle style="fill:url(#SVGID_00000028299091868419372240000015384320477004335540_);stroke:#676767;stroke-width:9;stroke-miterlimit:10;" cx="256" cy="1280" r="244.6"/>
<linearGradient id="SVGID_00000152239116685536628250000006521552722934520492_" gradientUnits="userSpaceOnUse" x1="363.6172" y1="3516.3987" x2="148.3828" y2="3143.6013" gradientTransform="matrix(1 0 0 -1 0 4610)">
	<stop  offset="1.078831e-03" style="stop-color:#333F4F"/>
	<stop  offset="1" style="stop-color:#FFFFFF"/>
</linearGradient>
<circle style="opacity:0.5;fill:none;stroke:url(#SVGID_00000152239116685536628250000006521552722934520492_);stroke-width:16;stroke-miterlimit:10;enable-background:new    ;" cx="256" cy="1280" r="207.2"/>
<linearGradient id="SVGID_00000017491805007068948120000011172384517108335006_" gradientUnits="userSpaceOnUse" x1="256" y1="3526.3" x2="256" y2="3133.7" gradientTransform="matrix(1 0 0 -1 0 4610)">
	<stop  offset="5.391326e-04" style="stop-color:#90FE83"/>
	<stop  offset="1" style="stop-color:#399036"/>
</linearGradient>
<circle style="fill:url(#SVGID_00000017491805007068948120000011172384517108335006_);stroke:#030304;stroke-miterlimit:10;" cx="256" cy="1280" r="196.3"/>
<linearGradient id="SVGID_00000145018190728633634350000002941624959928867488_" gradientUnits="userSpaceOnUse" x1="256.1" y1="571.5999" x2="256.1" y2="772.7" gradientTransform="matrix(1 0 0 -1 0 2048)">
	<stop  offset="0" style="stop-color:#FFFFFF;stop-opacity:5.000000e-02"/>
	<stop  offset="1" style="stop-color:#FFFFFF"/>
</linearGradient>
<path style="opacity:0.4;fill:url(#SVGID_00000145018190728633634350000002941624959928867488_);enable-background:new    ;" d="
	M336.3,1311.5c-87.4,3.9-130.8-33.1-179.6-36.2c-38.1,1.2-79.8,19.7-96.2,27.8c11.4,97.6,94.3,173.3,194.9,173.3
	c108.4,0,196.3-87.9,196.3-196.3c0-0.5,0-0.9,0-1.4C420.9,1293.9,379.5,1309.5,336.3,1311.5z"/>
<linearGradient id="SVGID_00000090284154217330580550000000413134855980500891_" gradientUnits="userSpaceOnUse" x1="133.6795" y1="2606.1348" x2="378.3205" y2="3029.8652" gradientTransform="matrix(1 0 0 -1 0 4610)">
	<stop  offset="0" style="stop-color:#5F6C7C"/>
	<stop  offset="1" style="stop-color:#D7D6D9"/>
</linearGradient>
<circle style="fill:url(#SVGID_00000090284154217330580550000000413134855980500891_);stroke:#676767;stroke-width:9;stroke-miterlimit:10;" cx="256" cy="1792" r="244.6"/>
<linearGradient id="SVGID_00000065052093865326795930000011944980557210081204_" gradientUnits="userSpaceOnUse" x1="363.6172" y1="3004.3987" x2="148.3828" y2="2631.6013" gradientTransform="matrix(1 0 0 -1 0 4610)">
	<stop  offset="1.078831e-03" style="stop-color:#333F4F"/>
	<stop  offset="1" style="stop-color:#FFFFFF"/>
</linearGradient>
<circle style="opacity:0.5;fill:none;stroke:url(#SVGID_00000065052093865326795930000011944980557210081204_);stroke-width:16;stroke-miterlimit:10;enable-background:new    ;" cx="256" cy="1792" r="207.2"/>
<linearGradient id="SVGID_00000042731930164023176160000001123024586348357297_" gradientUnits="userSpaceOnUse" x1="256" y1="3014.3" x2="256" y2="2621.7" gradientTransform="matrix(1 0 0 -1 0 4610)">
	<stop  offset="0" style="stop-color:#949494"/>
	<stop  offset="1" style="stop-color:#1E1E1E"/>
</linearGradient>
<circle style="fill:url(#SVGID_00000042731930164023176160000001123024586348357297_);stroke:#333333;stroke-miterlimit:10;" cx="256" cy="1792" r="196.3"/>
<linearGradient id="SVGID_00000100360629505709524240000006083613644001330325_" gradientUnits="userSpaceOnUse" x1="256.1" y1="59.5999" x2="256.1" y2="260.7" gradientTransform="matrix(1 0 0 -1 0 2048)">
	<stop  offset="0" style="stop-color:#FFFFFF;stop-opacity:5.000000e-02"/>
	<stop  offset="1" style="stop-color:#FFFFFF"/>
</linearGradient>
<path style="opacity:0.4;fill:url(#SVGID_00000100360629505709524240000006083613644001330325_);enable-background:new    ;" d="
	M336.3,1823.5c-87.4,3.9-130.8-33.1-179.6-36.2c-38.1,1.2-79.8,19.7-96.2,27.8c11.4,97.6,94.3,173.3,194.9,173.3
	c108.4,0,196.3-87.9,196.3-196.3c0-0.5,0-0.9,0-1.4C420.9,1805.9,379.5,1821.5,336.3,1823.5z"/>
<polygon class="st16" points="352.7,356.2 352.7,308.7 313.4,308.7 313.4,356.2 275.7,356.2 275.7,281.2 236.3,281.2 236.3,356.2 
	198.6,356.2 198.6,141 159.3,141 159.3,356.2 141,356.2 141,371 371,371 371,356.2 "/>
<polygon class="st16" points="352.7,1380.2 352.7,1332.7 313.4,1332.7 313.4,1380.2 275.7,1380.2 275.7,1305.2 236.3,1305.2 
	236.3,1380.2 198.6,1380.2 198.6,1165 159.3,1165 159.3,1380.2 141,1380.2 141,1395 371,1395 371,1380.2 "/>
<polygon class="st16" points="352.7,1892.2 352.7,1844.7 313.4,1844.7 313.4,1892.2 275.7,1892.2 275.7,1817.2 236.3,1817.2 
	236.3,1892.2 198.6,1892.2 198.6,1677 159.3,1677 159.3,1892.2 141,1892.2 141,1907 371,1907 371,1892.2 "/>
<polygon class="st16" points="352.7,868.2 352.7,820.7 313.4,820.7 313.4,868.2 275.7,868.2 275.7,793.2 236.3,793.2 236.3,868.2 
	198.6,868.2 198.6,653 159.3,653 159.3,868.2 141,868.2 141,883 371,883 371,868.2 "/>
</svg>
