<?xml version="1.0" encoding="utf-8"?>
<!-- Generator: Adobe Illustrator 27.0.1, SVG Export Plug-In . SVG Version: 6.00 Build 0)  -->
<svg version="1.1" id="Calque_1" xmlns="http://www.w3.org/2000/svg" xmlns:xlink="http://www.w3.org/1999/xlink" x="0px" y="0px"
	 viewBox="0 0 512 2048" style="enable-background:new 0 0 512 2048;" xml:space="preserve">
<style type="text/css">
	.st0{fill:url(#SVGID_1_);stroke:#676767;stroke-width:9;stroke-miterlimit:10;}
	
		.st1{opacity:0.5;fill:none;stroke:url(#SVGID_00000170989482716909882820000012414191322533286032_);stroke-width:16;stroke-miterlimit:10;enable-background:new    ;}
	.st2{fill:url(#SVGID_00000054266658952849679710000017988544262278564482_);stroke:#333333;stroke-miterlimit:10;}
	
		.st3{opacity:0.4;fill:url(#SVGID_00000074409825008816855710000012930747503499713978_);stroke:#333333;stroke-miterlimit:10;enable-background:new    ;}
	.st4{fill:url(#SVGID_00000038401230033467706030000009799084202416054422_);stroke:#676767;stroke-width:9;stroke-miterlimit:10;}
	
		.st5{opacity:0.5;fill:none;stroke:url(#SVGID_00000155110885115252525680000002313065746547710366_);stroke-width:16;stroke-miterlimit:10;enable-background:new    ;}
	.st6{fill:url(#SVGID_00000039117920185380091460000012598975971357819059_);stroke:#030304;stroke-miterlimit:10;}
	.st7{opacity:0.4;fill:url(#SVGID_00000137131752684109471720000003566781737185836168_);enable-background:new    ;}
	.st8{fill:url(#SVGID_00000009582002589879858330000011005405151044702597_);stroke:#676767;stroke-width:9;stroke-miterlimit:10;}
	
		.st9{opacity:0.5;fill:none;stroke:url(#SVGID_00000136382110048610155740000001340932650553607606_);stroke-width:16;stroke-miterlimit:10;enable-background:new    ;}
	.st10{fill:url(#SVGID_00000003796705085204366670000017533407710130794638_);stroke:#030304;stroke-miterlimit:10;}
	.st11{opacity:0.4;fill:url(#SVGID_00000016784467717635454480000013085436109855298190_);enable-background:new    ;}
	.st12{fill:url(#SVGID_00000155139189336348092090000014457620407073572001_);stroke:#676767;stroke-width:9;stroke-miterlimit:10;}
	
		.st13{opacity:0.5;fill:none;stroke:url(#SVGID_00000103982576294543471860000016459660925022456510_);stroke-width:16;stroke-miterlimit:10;enable-background:new    ;}
	.st14{fill:url(#SVGID_00000140699571096932521660000011059488128347699898_);stroke:#333333;stroke-miterlimit:10;}
	.st15{opacity:0.4;fill:url(#SVGID_00000070102754250168307340000014045620132997764496_);enable-background:new    ;}
	.st16{opacity:0.9;fill:#FFFFFF;stroke:#333333;stroke-miterlimit:10;enable-background:new    ;}
</style>
<linearGradient id="SVGID_1_" gradientUnits="userSpaceOnUse" x1="133.6646" y1="4142.1089" x2="378.3354" y2="4565.8911" gradientTransform="matrix(1 0 0 -1 0 4610)">
	<stop  offset="0" style="stop-color:#5F6C7C"/>
	<stop  offset="1" style="stop-color:#D7D6D9"/>
</linearGradient>
<circle class="st0" cx="256" cy="256" r="244.63"/>
<linearGradient id="SVGID_00000173156152050363992930000011150376105756940213_" gradientUnits="userSpaceOnUse" x1="363.6073" y1="1978.3813" x2="148.3927" y2="1605.6187" gradientTransform="matrix(1 0 0 -1 0 2048)">
	<stop  offset="1.078831e-03" style="stop-color:#333F4F"/>
	<stop  offset="1" style="stop-color:#FFFFFF"/>
</linearGradient>
<circle style="opacity:0.5;fill:none;stroke:url(#SVGID_00000173156152050363992930000011150376105756940213_);stroke-width:16;stroke-miterlimit:10;enable-background:new    ;" cx="256" cy="256" r="207.18"/>
<linearGradient id="SVGID_00000085246521007015739760000003237764566481260454_" gradientUnits="userSpaceOnUse" x1="256" y1="4550.2998" x2="256" y2="4157.7002" gradientTransform="matrix(1 0 0 -1 0 4610)">
	<stop  offset="5.392733e-04" style="stop-color:#60B2E4"/>
	<stop  offset="1" style="stop-color:#646AAF"/>
</linearGradient>
<circle style="fill:url(#SVGID_00000085246521007015739760000003237764566481260454_);stroke:#333333;stroke-miterlimit:10;" cx="256" cy="256" r="196.3"/>
<linearGradient id="SVGID_00000108310480237962830150000017832984125244246971_" gradientUnits="userSpaceOnUse" x1="256.005" y1="1595.7" x2="256.005" y2="1796.75" gradientTransform="matrix(1 0 0 -1 0 2048)">
	<stop  offset="0" style="stop-color:#FFFFFF;stop-opacity:0.05"/>
	<stop  offset="1" style="stop-color:#FFFFFF"/>
</linearGradient>
<path style="opacity:0.4;fill:url(#SVGID_00000108310480237962830150000017832984125244246971_);stroke:#333333;stroke-miterlimit:10;enable-background:new    ;" d="
	M336.26,287.49c-87.45,3.94-130.78-33.09-179.63-36.24c-38.1,1.23-79.76,19.71-96.25,27.78c11.4,97.56,94.33,173.27,194.95,173.27
	c108.41,0,196.3-87.89,196.3-196.3c0-0.47-0.01-0.94-0.02-1.41C420.87,269.9,379.53,285.54,336.26,287.49z"/>
<linearGradient id="SVGID_00000062161565546109166130000002083070671949358979_" gradientUnits="userSpaceOnUse" x1="133.6645" y1="3630.1089" x2="378.3355" y2="4053.8911" gradientTransform="matrix(1 0 0 -1 0 4610)">
	<stop  offset="0" style="stop-color:#5F6C7C"/>
	<stop  offset="1" style="stop-color:#D7D6D9"/>
</linearGradient>
<circle style="fill:url(#SVGID_00000062161565546109166130000002083070671949358979_);stroke:#676767;stroke-width:9;stroke-miterlimit:10;" cx="256" cy="768" r="244.63"/>
<linearGradient id="SVGID_00000116950569490940001850000017885279939307910806_" gradientUnits="userSpaceOnUse" x1="363.6073" y1="4028.3813" x2="148.3927" y2="3655.6187" gradientTransform="matrix(1 0 0 -1 0 4610)">
	<stop  offset="1.078831e-03" style="stop-color:#333F4F"/>
	<stop  offset="1" style="stop-color:#FFFFFF"/>
</linearGradient>
<circle style="opacity:0.5;fill:none;stroke:url(#SVGID_00000116950569490940001850000017885279939307910806_);stroke-width:16;stroke-miterlimit:10;enable-background:new    ;" cx="256" cy="768" r="207.18"/>
<linearGradient id="SVGID_00000129903573989618979890000003964633019716910254_" gradientUnits="userSpaceOnUse" x1="256" y1="4038.3" x2="256" y2="3645.7" gradientTransform="matrix(1 0 0 -1 0 4610)">
	<stop  offset="2.194295e-07" style="stop-color:#FDFC04"/>
	<stop  offset="0.9995" style="stop-color:#BC8017"/>
</linearGradient>
<circle style="fill:url(#SVGID_00000129903573989618979890000003964633019716910254_);stroke:#030304;stroke-miterlimit:10;" cx="256" cy="768" r="196.3"/>
<linearGradient id="SVGID_00000000925428670677622960000009329017080869709727_" gradientUnits="userSpaceOnUse" x1="256.005" y1="1083.7" x2="256.005" y2="1284.75" gradientTransform="matrix(1 0 0 -1 0 2048)">
	<stop  offset="0" style="stop-color:#FFFFFF;stop-opacity:0.05"/>
	<stop  offset="1" style="stop-color:#FFFFFF"/>
</linearGradient>
<path style="opacity:0.4;fill:url(#SVGID_00000000925428670677622960000009329017080869709727_);enable-background:new    ;" d="
	M336.26,799.49c-87.45,3.94-130.78-33.09-179.63-36.24c-38.1,1.23-79.76,19.71-96.25,27.78c11.4,97.56,94.33,173.27,194.95,173.27
	c108.41,0,196.3-87.89,196.3-196.3c0-0.47-0.01-0.94-0.02-1.41C420.87,781.9,379.53,797.54,336.26,799.49z"/>
<linearGradient id="SVGID_00000154405524944818372460000014372743283247532956_" gradientUnits="userSpaceOnUse" x1="133.6645" y1="3118.1089" x2="378.3355" y2="3541.8911" gradientTransform="matrix(1 0 0 -1 0 4610)">
	<stop  offset="0" style="stop-color:#5F6C7C"/>
	<stop  offset="1" style="stop-color:#D7D6D9"/>
</linearGradient>
<circle style="fill:url(#SVGID_00000154405524944818372460000014372743283247532956_);stroke:#676767;stroke-width:9;stroke-miterlimit:10;" cx="256" cy="1280" r="244.63"/>
<linearGradient id="SVGID_00000025408361259616443690000017798586798547366540_" gradientUnits="userSpaceOnUse" x1="363.6072" y1="3516.3813" x2="148.3927" y2="3143.6187" gradientTransform="matrix(1 0 0 -1 0 4610)">
	<stop  offset="1.078831e-03" style="stop-color:#333F4F"/>
	<stop  offset="1" style="stop-color:#FFFFFF"/>
</linearGradient>
<circle style="opacity:0.5;fill:none;stroke:url(#SVGID_00000025408361259616443690000017798586798547366540_);stroke-width:16;stroke-miterlimit:10;enable-background:new    ;" cx="256" cy="1280" r="207.18"/>
<linearGradient id="SVGID_00000049179314720700302190000007672384477680600743_" gradientUnits="userSpaceOnUse" x1="256" y1="3526.3" x2="256" y2="3133.7" gradientTransform="matrix(1 0 0 -1 0 4610)">
	<stop  offset="5.391326e-04" style="stop-color:#90FE83"/>
	<stop  offset="1" style="stop-color:#399036"/>
</linearGradient>
<circle style="fill:url(#SVGID_00000049179314720700302190000007672384477680600743_);stroke:#030304;stroke-miterlimit:10;" cx="256" cy="1280" r="196.3"/>
<linearGradient id="SVGID_00000102541978807345757480000006158849494280114328_" gradientUnits="userSpaceOnUse" x1="256.005" y1="571.7" x2="256.005" y2="772.75" gradientTransform="matrix(1 0 0 -1 0 2048)">
	<stop  offset="0" style="stop-color:#FFFFFF;stop-opacity:0.05"/>
	<stop  offset="1" style="stop-color:#FFFFFF"/>
</linearGradient>
<path style="opacity:0.4;fill:url(#SVGID_00000102541978807345757480000006158849494280114328_);enable-background:new    ;" d="
	M336.26,1311.49c-87.45,3.94-130.78-33.09-179.63-36.24c-38.1,1.23-79.76,19.71-96.25,27.78c11.4,97.56,94.33,173.27,194.95,173.27
	c108.41,0,196.3-87.89,196.3-196.3c0-0.47-0.01-0.94-0.02-1.41C420.87,1293.9,379.53,1309.54,336.26,1311.49z"/>
<linearGradient id="SVGID_00000023242599759510696650000007226493422125125806_" gradientUnits="userSpaceOnUse" x1="133.6645" y1="2606.1089" x2="378.3355" y2="3029.8911" gradientTransform="matrix(1 0 0 -1 0 4610)">
	<stop  offset="0" style="stop-color:#5F6C7C"/>
	<stop  offset="1" style="stop-color:#D7D6D9"/>
</linearGradient>
<circle style="fill:url(#SVGID_00000023242599759510696650000007226493422125125806_);stroke:#676767;stroke-width:9;stroke-miterlimit:10;" cx="256" cy="1792" r="244.63"/>
<linearGradient id="SVGID_00000050655293693357312370000000102582763991457714_" gradientUnits="userSpaceOnUse" x1="363.6072" y1="3004.3813" x2="148.3927" y2="2631.6187" gradientTransform="matrix(1 0 0 -1 0 4610)">
	<stop  offset="1.078831e-03" style="stop-color:#333F4F"/>
	<stop  offset="1" style="stop-color:#FFFFFF"/>
</linearGradient>
<circle style="opacity:0.5;fill:none;stroke:url(#SVGID_00000050655293693357312370000000102582763991457714_);stroke-width:16;stroke-miterlimit:10;enable-background:new    ;" cx="256" cy="1792" r="207.18"/>
<linearGradient id="SVGID_00000151527861951323062220000004918987475274284424_" gradientUnits="userSpaceOnUse" x1="256" y1="3014.3" x2="256" y2="2621.7" gradientTransform="matrix(1 0 0 -1 0 4610)">
	<stop  offset="0" style="stop-color:#949494"/>
	<stop  offset="1" style="stop-color:#1E1E1E"/>
</linearGradient>
<circle style="fill:url(#SVGID_00000151527861951323062220000004918987475274284424_);stroke:#333333;stroke-miterlimit:10;" cx="256" cy="1792" r="196.3"/>
<linearGradient id="SVGID_00000005983800763132011760000005183358285197758136_" gradientUnits="userSpaceOnUse" x1="256.005" y1="59.7" x2="256.005" y2="260.75" gradientTransform="matrix(1 0 0 -1 0 2048)">
	<stop  offset="0" style="stop-color:#FFFFFF;stop-opacity:0.05"/>
	<stop  offset="1" style="stop-color:#FFFFFF"/>
</linearGradient>
<path style="opacity:0.4;fill:url(#SVGID_00000005983800763132011760000005183358285197758136_);enable-background:new    ;" d="
	M336.26,1823.49c-87.45,3.94-130.78-33.09-179.63-36.24c-38.1,1.23-79.76,19.71-96.25,27.78c11.4,97.56,94.33,173.27,194.95,173.27
	c108.41,0,196.3-87.89,196.3-196.3c0-0.47-0.01-0.94-0.02-1.41C420.87,1805.9,379.53,1821.54,336.26,1823.49z"/>
<polygon class="st16" points="407.23,218.14 289.12,218.14 289.12,100.02 222.89,100.02 222.89,218.14 104.78,218.14 104.78,284.36 
	222.89,284.36 222.89,402.47 289.12,402.47 289.12,284.36 407.23,284.36 "/>
<polygon class="st16" points="407.23,1754.14 289.12,1754.14 289.12,1636.02 222.89,1636.02 222.89,1754.14 104.78,1754.14 
	104.78,1820.36 222.89,1820.36 222.89,1938.47 289.12,1938.47 289.12,1820.36 407.23,1820.36 "/>
<polygon class="st16" points="407.23,1242.14 289.12,1242.14 289.12,1124.02 222.89,1124.02 222.89,1242.14 104.78,1242.14 
	104.78,1308.36 222.89,1308.36 222.89,1426.47 289.12,1426.47 289.12,1308.36 407.23,1308.36 "/>
<polygon class="st16" points="407.23,730.14 289.12,730.14 289.12,612.02 222.9,612.02 222.9,730.14 104.79,730.14 104.79,796.36 
	222.9,796.36 222.9,914.47 289.12,914.47 289.12,796.36 407.23,796.36 "/>
</svg>
