<?xml version="1.0" encoding="utf-8"?>
<!-- Generator: Adobe Illustrator 27.1.0, SVG Export Plug-In . SVG Version: 6.00 Build 0)  -->
<svg version="1.1" id="Calque_1" xmlns="http://www.w3.org/2000/svg" xmlns:xlink="http://www.w3.org/1999/xlink" x="0px" y="0px"
	 viewBox="0 0 512 2048" style="enable-background:new 0 0 512 2048;" xml:space="preserve">
<style type="text/css">
	.st0{fill:url(#SVGID_1_);stroke:#676767;stroke-width:9;stroke-miterlimit:10;}
	
		.st1{opacity:0.5;fill:none;stroke:url(#SVGID_00000085236417221952897210000005685210719054208161_);stroke-width:16;stroke-miterlimit:10;enable-background:new    ;}
	.st2{fill:url(#SVGID_00000168099144884317299040000009250563953471355290_);stroke:#333333;stroke-miterlimit:10;}
	
		.st3{opacity:0.4;fill:url(#SVGID_00000116938178129266838810000012246115670872143270_);stroke:#333333;stroke-miterlimit:10;enable-background:new    ;}
	.st4{fill:url(#SVGID_00000029727119503000715780000018094142187705666706_);stroke:#676767;stroke-width:9;stroke-miterlimit:10;}
	
		.st5{opacity:0.5;fill:none;stroke:url(#SVGID_00000162352794121727971970000017605692314682693526_);stroke-width:16;stroke-miterlimit:10;enable-background:new    ;}
	.st6{fill:url(#SVGID_00000107553504500027827270000012270904604606602911_);stroke:#030304;stroke-miterlimit:10;}
	.st7{opacity:0.4;fill:url(#SVGID_00000152965805952751506990000001503189619517621643_);enable-background:new    ;}
	.st8{fill:url(#SVGID_00000008846704986460613150000013035689803183158662_);stroke:#676767;stroke-width:9;stroke-miterlimit:10;}
	
		.st9{opacity:0.5;fill:none;stroke:url(#SVGID_00000133517907788757632130000014405988672318315171_);stroke-width:16;stroke-miterlimit:10;enable-background:new    ;}
	.st10{fill:url(#SVGID_00000072263773683230184030000004452284473367874744_);stroke:#030304;stroke-miterlimit:10;}
	.st11{opacity:0.4;fill:url(#SVGID_00000167382246366078301490000003438088924331845790_);enable-background:new    ;}
	.st12{fill:url(#SVGID_00000103265642974273418620000002587736536898582423_);stroke:#676767;stroke-width:9;stroke-miterlimit:10;}
	
		.st13{opacity:0.5;fill:none;stroke:url(#SVGID_00000039855896992683350820000015121243895510686356_);stroke-width:16;stroke-miterlimit:10;enable-background:new    ;}
	.st14{fill:url(#SVGID_00000017503112267858696470000002164330313704399797_);stroke:#333333;stroke-miterlimit:10;}
	.st15{opacity:0.4;fill:url(#SVGID_00000145763566601718204450000007134570257338563512_);enable-background:new    ;}
	.st16{opacity:0.9;fill:#FFFFFF;stroke:#333333;stroke-miterlimit:10;enable-background:new    ;}
</style>
<linearGradient id="SVGID_1_" gradientUnits="userSpaceOnUse" x1="133.6646" y1="-2094.1089" x2="378.3354" y2="-2517.8911" gradientTransform="matrix(1 0 0 1 0 2562)">
	<stop  offset="0" style="stop-color:#5F6C7C"/>
	<stop  offset="1" style="stop-color:#D7D6D9"/>
</linearGradient>
<circle class="st0" cx="256" cy="256" r="244.6"/>
<linearGradient id="SVGID_00000055699782142355507210000015205024832288688039_" gradientUnits="userSpaceOnUse" x1="363.6073" y1="69.6187" x2="148.3927" y2="442.3813">
	<stop  offset="1.078831e-03" style="stop-color:#333F4F"/>
	<stop  offset="1" style="stop-color:#FFFFFF"/>
</linearGradient>
<circle style="opacity:0.5;fill:none;stroke:url(#SVGID_00000055699782142355507210000015205024832288688039_);stroke-width:16;stroke-miterlimit:10;enable-background:new    ;" cx="256" cy="256" r="207.2"/>
<linearGradient id="SVGID_00000118366873228272215380000008830393857158343847_" gradientUnits="userSpaceOnUse" x1="256" y1="-2502.3" x2="256" y2="-2109.7" gradientTransform="matrix(1 0 0 1 0 2562)">
	<stop  offset="5.392733e-04" style="stop-color:#60B2E4"/>
	<stop  offset="1" style="stop-color:#646AAF"/>
</linearGradient>
<circle style="fill:url(#SVGID_00000118366873228272215380000008830393857158343847_);stroke:#333333;stroke-miterlimit:10;" cx="256" cy="256" r="196.3"/>
<linearGradient id="SVGID_00000160167093847698158500000009236037366355609769_" gradientUnits="userSpaceOnUse" x1="256.005" y1="452.3" x2="256.005" y2="251.25">
	<stop  offset="0" style="stop-color:#FFFFFF;stop-opacity:5.000000e-02"/>
	<stop  offset="1" style="stop-color:#FFFFFF"/>
</linearGradient>
<path style="opacity:0.4;fill:url(#SVGID_00000160167093847698158500000009236037366355609769_);stroke:#333333;stroke-miterlimit:10;enable-background:new    ;" d="
	M336.3,287.5c-87.4,3.9-130.8-33.1-179.6-36.2c-38.1,1.2-79.8,19.7-96.2,27.8c11.4,97.6,94.3,173.3,194.9,173.3
	c108.4,0,196.3-87.9,196.3-196.3c0-0.5,0-0.9,0-1.4C420.9,269.9,379.5,285.5,336.3,287.5z"/>
<linearGradient id="SVGID_00000036209138817284809390000000259991391241553553_" gradientUnits="userSpaceOnUse" x1="133.6645" y1="-1582.1089" x2="378.3355" y2="-2005.8911" gradientTransform="matrix(1 0 0 1 0 2562)">
	<stop  offset="0" style="stop-color:#5F6C7C"/>
	<stop  offset="1" style="stop-color:#D7D6D9"/>
</linearGradient>
<circle style="fill:url(#SVGID_00000036209138817284809390000000259991391241553553_);stroke:#676767;stroke-width:9;stroke-miterlimit:10;" cx="256" cy="768" r="244.6"/>
<linearGradient id="SVGID_00000117671022880216334720000002683668676906308492_" gradientUnits="userSpaceOnUse" x1="363.6073" y1="-1980.3813" x2="148.3927" y2="-1607.6187" gradientTransform="matrix(1 0 0 1 0 2562)">
	<stop  offset="1.078831e-03" style="stop-color:#333F4F"/>
	<stop  offset="1" style="stop-color:#FFFFFF"/>
</linearGradient>
<circle style="opacity:0.5;fill:none;stroke:url(#SVGID_00000117671022880216334720000002683668676906308492_);stroke-width:16;stroke-miterlimit:10;enable-background:new    ;" cx="256" cy="768" r="207.2"/>
<linearGradient id="SVGID_00000087399141023332870350000013115499374342816130_" gradientUnits="userSpaceOnUse" x1="256" y1="-1990.3" x2="256" y2="-1597.7" gradientTransform="matrix(1 0 0 1 0 2562)">
	<stop  offset="2.194295e-07" style="stop-color:#FDFC04"/>
	<stop  offset="0.9995" style="stop-color:#BC8017"/>
</linearGradient>
<circle style="fill:url(#SVGID_00000087399141023332870350000013115499374342816130_);stroke:#030304;stroke-miterlimit:10;" cx="256" cy="768" r="196.3"/>
<linearGradient id="SVGID_00000124121107838574606100000011592257786984839579_" gradientUnits="userSpaceOnUse" x1="256.005" y1="964.3" x2="256.005" y2="763.25">
	<stop  offset="0" style="stop-color:#FFFFFF;stop-opacity:5.000000e-02"/>
	<stop  offset="1" style="stop-color:#FFFFFF"/>
</linearGradient>
<path style="opacity:0.4;fill:url(#SVGID_00000124121107838574606100000011592257786984839579_);enable-background:new    ;" d="
	M336.3,799.5c-87.4,3.9-130.8-33.1-179.6-36.2c-38.1,1.2-79.8,19.7-96.2,27.8c11.4,97.6,94.3,173.3,194.9,173.3
	c108.4,0,196.3-87.9,196.3-196.3c0-0.5,0-0.9,0-1.4C420.9,781.9,379.5,797.5,336.3,799.5z"/>
<linearGradient id="SVGID_00000080166974517400131580000006131891644958816667_" gradientUnits="userSpaceOnUse" x1="133.6645" y1="-1070.1089" x2="378.3355" y2="-1493.8911" gradientTransform="matrix(1 0 0 1 0 2562)">
	<stop  offset="0" style="stop-color:#5F6C7C"/>
	<stop  offset="1" style="stop-color:#D7D6D9"/>
</linearGradient>
<circle style="fill:url(#SVGID_00000080166974517400131580000006131891644958816667_);stroke:#676767;stroke-width:9;stroke-miterlimit:10;" cx="256" cy="1280" r="244.6"/>
<linearGradient id="SVGID_00000147195261868632615940000006905588120551615646_" gradientUnits="userSpaceOnUse" x1="363.6072" y1="-1468.3813" x2="148.3928" y2="-1095.6187" gradientTransform="matrix(1 0 0 1 0 2562)">
	<stop  offset="1.078831e-03" style="stop-color:#333F4F"/>
	<stop  offset="1" style="stop-color:#FFFFFF"/>
</linearGradient>
<circle style="opacity:0.5;fill:none;stroke:url(#SVGID_00000147195261868632615940000006905588120551615646_);stroke-width:16;stroke-miterlimit:10;enable-background:new    ;" cx="256" cy="1280" r="207.2"/>
<linearGradient id="SVGID_00000032637042830449861430000009249512382922430596_" gradientUnits="userSpaceOnUse" x1="256" y1="-1478.3" x2="256" y2="-1085.7" gradientTransform="matrix(1 0 0 1 0 2562)">
	<stop  offset="5.391326e-04" style="stop-color:#90FE83"/>
	<stop  offset="1" style="stop-color:#399036"/>
</linearGradient>
<circle style="fill:url(#SVGID_00000032637042830449861430000009249512382922430596_);stroke:#030304;stroke-miterlimit:10;" cx="256" cy="1280" r="196.3"/>
<linearGradient id="SVGID_00000131361648245511994630000014651536997739120023_" gradientUnits="userSpaceOnUse" x1="256.005" y1="1476.3" x2="256.005" y2="1275.25">
	<stop  offset="0" style="stop-color:#FFFFFF;stop-opacity:5.000000e-02"/>
	<stop  offset="1" style="stop-color:#FFFFFF"/>
</linearGradient>
<path style="opacity:0.4;fill:url(#SVGID_00000131361648245511994630000014651536997739120023_);enable-background:new    ;" d="
	M336.3,1311.5c-87.4,3.9-130.8-33.1-179.6-36.2c-38.1,1.2-79.8,19.7-96.2,27.8c11.4,97.6,94.3,173.3,194.9,173.3
	c108.4,0,196.3-87.9,196.3-196.3c0-0.5,0-0.9,0-1.4C420.9,1293.9,379.5,1309.5,336.3,1311.5z"/>
<linearGradient id="SVGID_00000016775597087889986010000012290299372050609805_" gradientUnits="userSpaceOnUse" x1="133.6645" y1="-558.1089" x2="378.3355" y2="-981.8911" gradientTransform="matrix(1 0 0 1 0 2562)">
	<stop  offset="0" style="stop-color:#5F6C7C"/>
	<stop  offset="1" style="stop-color:#D7D6D9"/>
</linearGradient>
<circle style="fill:url(#SVGID_00000016775597087889986010000012290299372050609805_);stroke:#676767;stroke-width:9;stroke-miterlimit:10;" cx="256" cy="1792" r="244.6"/>
<linearGradient id="SVGID_00000104702306802170379400000007597257374894111627_" gradientUnits="userSpaceOnUse" x1="363.6072" y1="-956.3813" x2="148.3928" y2="-583.6187" gradientTransform="matrix(1 0 0 1 0 2562)">
	<stop  offset="1.078831e-03" style="stop-color:#333F4F"/>
	<stop  offset="1" style="stop-color:#FFFFFF"/>
</linearGradient>
<circle style="opacity:0.5;fill:none;stroke:url(#SVGID_00000104702306802170379400000007597257374894111627_);stroke-width:16;stroke-miterlimit:10;enable-background:new    ;" cx="256" cy="1792" r="207.2"/>
<linearGradient id="SVGID_00000100371686053073481160000017957398712325133987_" gradientUnits="userSpaceOnUse" x1="256" y1="-966.3" x2="256" y2="-573.7" gradientTransform="matrix(1 0 0 1 0 2562)">
	<stop  offset="0" style="stop-color:#949494"/>
	<stop  offset="1" style="stop-color:#1E1E1E"/>
</linearGradient>
<circle style="fill:url(#SVGID_00000100371686053073481160000017957398712325133987_);stroke:#333333;stroke-miterlimit:10;" cx="256" cy="1792" r="196.3"/>
<linearGradient id="SVGID_00000114767549656115213410000001269754191041175710_" gradientUnits="userSpaceOnUse" x1="256.005" y1="1988.3" x2="256.005" y2="1787.25">
	<stop  offset="0" style="stop-color:#FFFFFF;stop-opacity:5.000000e-02"/>
	<stop  offset="1" style="stop-color:#FFFFFF"/>
</linearGradient>
<path style="opacity:0.4;fill:url(#SVGID_00000114767549656115213410000001269754191041175710_);enable-background:new    ;" d="
	M336.3,1823.5c-87.4,3.9-130.8-33.1-179.6-36.2c-38.1,1.2-79.8,19.7-96.2,27.8c11.4,97.6,94.3,173.3,194.9,173.3
	c108.4,0,196.3-87.9,196.3-196.3c0-0.5,0-0.9,0-1.4C420.9,1805.9,379.5,1821.5,336.3,1823.5z"/>
<polygon class="st16" points="371,226.1 281.2,226.1 281.2,136.2 230.8,136.2 230.8,226.1 141,226.1 141,276.4 230.8,276.4 
	230.8,366.2 281.2,366.2 281.2,276.4 371,276.4 "/>
<polygon class="st16" points="371,1762.1 281.2,1762.1 281.2,1672.2 230.8,1672.2 230.8,1762.1 141,1762.1 141,1812.4 230.8,1812.4 
	230.8,1902.2 281.2,1902.2 281.2,1812.4 371,1812.4 "/>
<polygon class="st16" points="371,1250.1 281.2,1250.1 281.2,1160.2 230.8,1160.2 230.8,1250.1 141,1250.1 141,1300.4 230.8,1300.4 
	230.8,1390.2 281.2,1390.2 281.2,1300.4 371,1300.4 "/>
<polygon class="st16" points="371,738.1 281.2,738.1 281.2,648.2 230.8,648.2 230.8,738.1 141,738.1 141,788.4 230.8,788.4 
	230.8,878.2 281.2,878.2 281.2,788.4 371,788.4 "/>
</svg>
