<?xml version="1.0" encoding="utf-8"?>
<!-- Generator: Adobe Illustrator 27.0.1, SVG Export Plug-In . SVG Version: 6.00 Build 0)  -->
<svg version="1.1" id="Calque_1" xmlns="http://www.w3.org/2000/svg" xmlns:xlink="http://www.w3.org/1999/xlink" x="0px" y="0px"
	 viewBox="0 0 512 2048" style="enable-background:new 0 0 512 2048;" xml:space="preserve">
<style type="text/css">
	.st0{fill:url(#SVGID_1_);stroke:#676767;stroke-width:9;stroke-miterlimit:10;}
	
		.st1{opacity:0.5;fill:none;stroke:url(#SVGID_00000031202781159015500840000011717783169102317973_);stroke-width:16;stroke-miterlimit:10;enable-background:new    ;}
	.st2{fill:url(#SVGID_00000128455900130860091630000011155222986707979957_);stroke:#333333;stroke-miterlimit:10;}
	
		.st3{opacity:0.4;fill:url(#SVGID_00000044169821897801221450000008846811759433414569_);stroke:#333333;stroke-miterlimit:10;enable-background:new    ;}
	.st4{fill:url(#SVGID_00000035498278576056341180000001955260318266838450_);stroke:#676767;stroke-width:9;stroke-miterlimit:10;}
	
		.st5{opacity:0.5;fill:none;stroke:url(#SVGID_00000077288385608374250690000009751336068873420989_);stroke-width:16;stroke-miterlimit:10;enable-background:new    ;}
	.st6{fill:url(#SVGID_00000048463768701992324280000003539047068539266434_);stroke:#030304;stroke-miterlimit:10;}
	.st7{opacity:0.4;fill:url(#SVGID_00000182523917854597058050000003113094091185751459_);enable-background:new    ;}
	.st8{fill:url(#SVGID_00000145742066663595068620000014805246636852292241_);stroke:#676767;stroke-width:9;stroke-miterlimit:10;}
	
		.st9{opacity:0.5;fill:none;stroke:url(#SVGID_00000093884574812891161060000005968920409170890905_);stroke-width:16;stroke-miterlimit:10;enable-background:new    ;}
	.st10{fill:url(#SVGID_00000147197014172287238030000011699937809489575564_);stroke:#030304;stroke-miterlimit:10;}
	.st11{opacity:0.4;fill:url(#SVGID_00000052102404901769017480000012439172738827053212_);enable-background:new    ;}
	.st12{fill:url(#SVGID_00000138571581592622849720000012233095274722437514_);stroke:#676767;stroke-width:9;stroke-miterlimit:10;}
	
		.st13{opacity:0.5;fill:none;stroke:url(#SVGID_00000116922013568618407330000002425232813615946932_);stroke-width:16;stroke-miterlimit:10;enable-background:new    ;}
	.st14{fill:url(#SVGID_00000125577242255126428920000011572584510749994164_);stroke:#333333;stroke-miterlimit:10;}
	.st15{opacity:0.4;fill:url(#SVGID_00000165192893977500613430000014420864969753094272_);enable-background:new    ;}
	.st16{opacity:0.9;fill:#FFFFFF;stroke:#333333;stroke-miterlimit:10;}
</style>
<linearGradient id="SVGID_1_" gradientUnits="userSpaceOnUse" x1="133.6646" y1="4142.1089" x2="378.3354" y2="4565.8911" gradientTransform="matrix(1 0 0 -1 0 4610)">
	<stop  offset="0" style="stop-color:#5F6C7C"/>
	<stop  offset="1" style="stop-color:#D7D6D9"/>
</linearGradient>
<circle class="st0" cx="256" cy="256" r="244.63"/>
<linearGradient id="SVGID_00000121256856403575827000000017960766934192482445_" gradientUnits="userSpaceOnUse" x1="363.6073" y1="1978.3813" x2="148.3927" y2="1605.6187" gradientTransform="matrix(1 0 0 -1 0 2048)">
	<stop  offset="1.078831e-03" style="stop-color:#333F4F"/>
	<stop  offset="1" style="stop-color:#FFFFFF"/>
</linearGradient>
<circle style="opacity:0.5;fill:none;stroke:url(#SVGID_00000121256856403575827000000017960766934192482445_);stroke-width:16;stroke-miterlimit:10;enable-background:new    ;" cx="256" cy="256" r="207.18"/>
<linearGradient id="SVGID_00000124868668205916389800000013324960512642274741_" gradientUnits="userSpaceOnUse" x1="256" y1="4550.2998" x2="256" y2="4157.7002" gradientTransform="matrix(1 0 0 -1 0 4610)">
	<stop  offset="5.392733e-04" style="stop-color:#60B2E4"/>
	<stop  offset="1" style="stop-color:#646AAF"/>
</linearGradient>
<circle style="fill:url(#SVGID_00000124868668205916389800000013324960512642274741_);stroke:#333333;stroke-miterlimit:10;" cx="256" cy="256" r="196.3"/>
<linearGradient id="SVGID_00000044859499789714437610000010819350959449230987_" gradientUnits="userSpaceOnUse" x1="256.005" y1="1595.7" x2="256.005" y2="1796.75" gradientTransform="matrix(1 0 0 -1 0 2048)">
	<stop  offset="0" style="stop-color:#FFFFFF;stop-opacity:0.05"/>
	<stop  offset="1" style="stop-color:#FFFFFF"/>
</linearGradient>
<path style="opacity:0.4;fill:url(#SVGID_00000044859499789714437610000010819350959449230987_);stroke:#333333;stroke-miterlimit:10;enable-background:new    ;" d="
	M336.26,287.49c-87.45,3.94-130.78-33.09-179.63-36.24c-38.1,1.23-79.76,19.71-96.25,27.78c11.4,97.56,94.33,173.27,194.95,173.27
	c108.41,0,196.3-87.89,196.3-196.3c0-0.47-0.01-0.94-0.02-1.41C420.87,269.9,379.53,285.54,336.26,287.49z"/>
<linearGradient id="SVGID_00000085248927768240306930000008078649827464786316_" gradientUnits="userSpaceOnUse" x1="133.6645" y1="3630.1089" x2="378.3355" y2="4053.8911" gradientTransform="matrix(1 0 0 -1 0 4610)">
	<stop  offset="0" style="stop-color:#5F6C7C"/>
	<stop  offset="1" style="stop-color:#D7D6D9"/>
</linearGradient>
<circle style="fill:url(#SVGID_00000085248927768240306930000008078649827464786316_);stroke:#676767;stroke-width:9;stroke-miterlimit:10;" cx="256" cy="768" r="244.63"/>
<linearGradient id="SVGID_00000094605247273761660060000017969560638196865674_" gradientUnits="userSpaceOnUse" x1="363.6073" y1="4028.3813" x2="148.3927" y2="3655.6187" gradientTransform="matrix(1 0 0 -1 0 4610)">
	<stop  offset="1.078831e-03" style="stop-color:#333F4F"/>
	<stop  offset="1" style="stop-color:#FFFFFF"/>
</linearGradient>
<circle style="opacity:0.5;fill:none;stroke:url(#SVGID_00000094605247273761660060000017969560638196865674_);stroke-width:16;stroke-miterlimit:10;enable-background:new    ;" cx="256" cy="768" r="207.18"/>
<linearGradient id="SVGID_00000163074944257970389860000009839923178420745903_" gradientUnits="userSpaceOnUse" x1="256" y1="4038.3" x2="256" y2="3645.7" gradientTransform="matrix(1 0 0 -1 0 4610)">
	<stop  offset="2.194295e-07" style="stop-color:#FDFC04"/>
	<stop  offset="0.9995" style="stop-color:#BC8017"/>
</linearGradient>
<circle style="fill:url(#SVGID_00000163074944257970389860000009839923178420745903_);stroke:#030304;stroke-miterlimit:10;" cx="256" cy="768" r="196.3"/>
<linearGradient id="SVGID_00000017512175506135645030000012057153296989474969_" gradientUnits="userSpaceOnUse" x1="256.005" y1="1083.7" x2="256.005" y2="1284.75" gradientTransform="matrix(1 0 0 -1 0 2048)">
	<stop  offset="0" style="stop-color:#FFFFFF;stop-opacity:0.05"/>
	<stop  offset="1" style="stop-color:#FFFFFF"/>
</linearGradient>
<path style="opacity:0.4;fill:url(#SVGID_00000017512175506135645030000012057153296989474969_);enable-background:new    ;" d="
	M336.26,799.49c-87.45,3.94-130.78-33.09-179.63-36.24c-38.1,1.23-79.76,19.71-96.25,27.78c11.4,97.56,94.33,173.27,194.95,173.27
	c108.41,0,196.3-87.89,196.3-196.3c0-0.47-0.01-0.94-0.02-1.41C420.87,781.9,379.53,797.54,336.26,799.49z"/>
<linearGradient id="SVGID_00000057858912841534366650000006805819226803341216_" gradientUnits="userSpaceOnUse" x1="133.6645" y1="3118.1089" x2="378.3355" y2="3541.8911" gradientTransform="matrix(1 0 0 -1 0 4610)">
	<stop  offset="0" style="stop-color:#5F6C7C"/>
	<stop  offset="1" style="stop-color:#D7D6D9"/>
</linearGradient>
<circle style="fill:url(#SVGID_00000057858912841534366650000006805819226803341216_);stroke:#676767;stroke-width:9;stroke-miterlimit:10;" cx="256" cy="1280" r="244.63"/>
<linearGradient id="SVGID_00000059287800749870426860000012910585063393730707_" gradientUnits="userSpaceOnUse" x1="363.6072" y1="3516.3813" x2="148.3927" y2="3143.6187" gradientTransform="matrix(1 0 0 -1 0 4610)">
	<stop  offset="1.078831e-03" style="stop-color:#333F4F"/>
	<stop  offset="1" style="stop-color:#FFFFFF"/>
</linearGradient>
<circle style="opacity:0.5;fill:none;stroke:url(#SVGID_00000059287800749870426860000012910585063393730707_);stroke-width:16;stroke-miterlimit:10;enable-background:new    ;" cx="256" cy="1280" r="207.18"/>
<linearGradient id="SVGID_00000076571983689169767360000010654801793613775515_" gradientUnits="userSpaceOnUse" x1="256" y1="3526.3" x2="256" y2="3133.7" gradientTransform="matrix(1 0 0 -1 0 4610)">
	<stop  offset="5.391326e-04" style="stop-color:#90FE83"/>
	<stop  offset="1" style="stop-color:#399036"/>
</linearGradient>
<circle style="fill:url(#SVGID_00000076571983689169767360000010654801793613775515_);stroke:#030304;stroke-miterlimit:10;" cx="256" cy="1280" r="196.3"/>
<linearGradient id="SVGID_00000180332394038386881830000007752498902793931433_" gradientUnits="userSpaceOnUse" x1="256.005" y1="571.7" x2="256.005" y2="772.75" gradientTransform="matrix(1 0 0 -1 0 2048)">
	<stop  offset="0" style="stop-color:#FFFFFF;stop-opacity:0.05"/>
	<stop  offset="1" style="stop-color:#FFFFFF"/>
</linearGradient>
<path style="opacity:0.4;fill:url(#SVGID_00000180332394038386881830000007752498902793931433_);enable-background:new    ;" d="
	M336.26,1311.49c-87.45,3.94-130.78-33.09-179.63-36.24c-38.1,1.23-79.76,19.71-96.25,27.78c11.4,97.56,94.33,173.27,194.95,173.27
	c108.41,0,196.3-87.89,196.3-196.3c0-0.47-0.01-0.94-0.02-1.41C420.87,1293.9,379.53,1309.54,336.26,1311.49z"/>
<linearGradient id="SVGID_00000097491311107778257100000015064312686908142238_" gradientUnits="userSpaceOnUse" x1="133.6645" y1="2606.1089" x2="378.3355" y2="3029.8911" gradientTransform="matrix(1 0 0 -1 0 4610)">
	<stop  offset="0" style="stop-color:#5F6C7C"/>
	<stop  offset="1" style="stop-color:#D7D6D9"/>
</linearGradient>
<circle style="fill:url(#SVGID_00000097491311107778257100000015064312686908142238_);stroke:#676767;stroke-width:9;stroke-miterlimit:10;" cx="256" cy="1792" r="244.63"/>
<linearGradient id="SVGID_00000147207615210845115020000010356354272339752094_" gradientUnits="userSpaceOnUse" x1="363.6072" y1="3004.3813" x2="148.3927" y2="2631.6187" gradientTransform="matrix(1 0 0 -1 0 4610)">
	<stop  offset="1.078831e-03" style="stop-color:#333F4F"/>
	<stop  offset="1" style="stop-color:#FFFFFF"/>
</linearGradient>
<circle style="opacity:0.5;fill:none;stroke:url(#SVGID_00000147207615210845115020000010356354272339752094_);stroke-width:16;stroke-miterlimit:10;enable-background:new    ;" cx="256" cy="1792" r="207.18"/>
<linearGradient id="SVGID_00000173847720121028548470000005634012957438384317_" gradientUnits="userSpaceOnUse" x1="256" y1="3014.3" x2="256" y2="2621.7" gradientTransform="matrix(1 0 0 -1 0 4610)">
	<stop  offset="0" style="stop-color:#949494"/>
	<stop  offset="1" style="stop-color:#1E1E1E"/>
</linearGradient>
<circle style="fill:url(#SVGID_00000173847720121028548470000005634012957438384317_);stroke:#333333;stroke-miterlimit:10;" cx="256" cy="1792" r="196.3"/>
<linearGradient id="SVGID_00000057144743982532783660000003234424793127352501_" gradientUnits="userSpaceOnUse" x1="256.005" y1="59.7" x2="256.005" y2="260.75" gradientTransform="matrix(1 0 0 -1 0 2048)">
	<stop  offset="0" style="stop-color:#FFFFFF;stop-opacity:0.05"/>
	<stop  offset="1" style="stop-color:#FFFFFF"/>
</linearGradient>
<path style="opacity:0.4;fill:url(#SVGID_00000057144743982532783660000003234424793127352501_);enable-background:new    ;" d="
	M336.26,1823.49c-87.45,3.94-130.78-33.09-179.63-36.24c-38.1,1.23-79.76,19.71-96.25,27.78c11.4,97.56,94.33,173.27,194.95,173.27
	c108.41,0,196.3-87.89,196.3-196.3c0-0.47-0.01-0.94-0.02-1.41C420.87,1805.9,379.53,1821.54,336.26,1823.49z"/>
<polygon class="st16" points="209.94,125.65 340.28,256 293.46,302.83 209.94,386.35 163.11,339.52 246.63,256 163.11,172.48 "/>
<polygon class="st16" points="209.94,637.65 340.28,768 293.46,814.83 209.94,898.35 163.11,851.52 246.63,768 163.11,684.48 "/>
<polygon class="st16" points="209.94,1149.65 340.28,1280 293.46,1326.83 209.94,1410.35 163.11,1363.52 246.63,1280 
	163.11,1196.48 "/>
<polygon class="st16" points="209.94,1661.65 340.28,1792 293.46,1838.83 209.94,1922.35 163.11,1875.52 246.63,1792 
	163.11,1708.48 "/>
</svg>
