<?xml version="1.0" encoding="utf-8"?>
<!-- Generator: Adobe Illustrator 27.1.0, SVG Export Plug-In . SVG Version: 6.00 Build 0)  -->
<svg version="1.1" id="Calque_1" xmlns="http://www.w3.org/2000/svg" xmlns:xlink="http://www.w3.org/1999/xlink" x="0px" y="0px"
	 viewBox="0 0 512 2048" style="enable-background:new 0 0 512 2048;" xml:space="preserve">
<style type="text/css">
	.st0{fill:url(#SVGID_1_);stroke:#676767;stroke-width:9;stroke-miterlimit:10;}
	
		.st1{opacity:0.5;fill:none;stroke:url(#SVGID_00000127733333283129608350000002912740951920307101_);stroke-width:16;stroke-miterlimit:10;enable-background:new    ;}
	.st2{fill:url(#SVGID_00000070824201857190436310000017265427200796160166_);stroke:#333333;stroke-miterlimit:10;}
	
		.st3{opacity:0.4;fill:url(#SVGID_00000000184534042668004580000006364515150276355253_);stroke:#333333;stroke-miterlimit:10;enable-background:new    ;}
	.st4{fill:url(#SVGID_00000119115480632807763470000005067672123307862913_);stroke:#676767;stroke-width:9;stroke-miterlimit:10;}
	
		.st5{opacity:0.5;fill:none;stroke:url(#SVGID_00000060738733464129044560000016751761290439397290_);stroke-width:16;stroke-miterlimit:10;enable-background:new    ;}
	.st6{fill:url(#SVGID_00000124143013852093047610000000382070130274189496_);stroke:#030304;stroke-miterlimit:10;}
	.st7{opacity:0.4;fill:url(#SVGID_00000039094008690840164400000007774764889281674122_);enable-background:new    ;}
	.st8{fill:url(#SVGID_00000174569429025401058230000005213856512179963316_);stroke:#676767;stroke-width:9;stroke-miterlimit:10;}
	
		.st9{opacity:0.5;fill:none;stroke:url(#SVGID_00000083062649487483648010000014950313351873023922_);stroke-width:16;stroke-miterlimit:10;enable-background:new    ;}
	.st10{fill:url(#SVGID_00000168824934526309849390000003670514225811384479_);stroke:#030304;stroke-miterlimit:10;}
	.st11{opacity:0.4;fill:url(#SVGID_00000170277106257011620430000010517806346356322700_);enable-background:new    ;}
	.st12{fill:url(#SVGID_00000029023838929276518980000014326077321972236938_);stroke:#676767;stroke-width:9;stroke-miterlimit:10;}
	
		.st13{opacity:0.5;fill:none;stroke:url(#SVGID_00000121279023912151989630000006809587797775731631_);stroke-width:16;stroke-miterlimit:10;enable-background:new    ;}
	.st14{fill:url(#SVGID_00000139996537488179378410000015395093203951173042_);stroke:#333333;stroke-miterlimit:10;}
	.st15{opacity:0.4;fill:url(#SVGID_00000071532807256514367830000014627914853121227689_);enable-background:new    ;}
	.st16{opacity:0.9;fill:#FFFFFF;stroke:#333333;stroke-miterlimit:10;enable-background:new    ;}
</style>
<linearGradient id="SVGID_1_" gradientUnits="userSpaceOnUse" x1="133.6646" y1="-2094.1089" x2="378.3354" y2="-2517.8911" gradientTransform="matrix(1 0 0 1 0 2562)">
	<stop  offset="0" style="stop-color:#5F6C7C"/>
	<stop  offset="1" style="stop-color:#D7D6D9"/>
</linearGradient>
<circle class="st0" cx="256" cy="256" r="244.6"/>
<linearGradient id="SVGID_00000092416099538143780560000013318500746692228257_" gradientUnits="userSpaceOnUse" x1="363.6073" y1="69.6187" x2="148.3927" y2="442.3813">
	<stop  offset="1.078831e-03" style="stop-color:#333F4F"/>
	<stop  offset="1" style="stop-color:#FFFFFF"/>
</linearGradient>
<circle style="opacity:0.5;fill:none;stroke:url(#SVGID_00000092416099538143780560000013318500746692228257_);stroke-width:16;stroke-miterlimit:10;enable-background:new    ;" cx="256" cy="256" r="207.2"/>
<linearGradient id="SVGID_00000124145834304292471140000007991155415371495837_" gradientUnits="userSpaceOnUse" x1="256" y1="-2502.3" x2="256" y2="-2109.7" gradientTransform="matrix(1 0 0 1 0 2562)">
	<stop  offset="5.392733e-04" style="stop-color:#60B2E4"/>
	<stop  offset="1" style="stop-color:#646AAF"/>
</linearGradient>
<circle style="fill:url(#SVGID_00000124145834304292471140000007991155415371495837_);stroke:#333333;stroke-miterlimit:10;" cx="256" cy="256" r="196.3"/>
<linearGradient id="SVGID_00000158745391997181547730000008141885749541744553_" gradientUnits="userSpaceOnUse" x1="256.005" y1="452.3" x2="256.005" y2="251.25">
	<stop  offset="0" style="stop-color:#FFFFFF;stop-opacity:5.000000e-02"/>
	<stop  offset="1" style="stop-color:#FFFFFF"/>
</linearGradient>
<path style="opacity:0.4;fill:url(#SVGID_00000158745391997181547730000008141885749541744553_);stroke:#333333;stroke-miterlimit:10;enable-background:new    ;" d="
	M336.3,287.5c-87.4,3.9-130.8-33.1-179.6-36.2c-38.1,1.2-79.8,19.7-96.2,27.8c11.4,97.6,94.3,173.3,194.9,173.3
	c108.4,0,196.3-87.9,196.3-196.3c0-0.5,0-0.9,0-1.4C420.9,269.9,379.5,285.5,336.3,287.5z"/>
<linearGradient id="SVGID_00000172420036233111347410000012955124811528945290_" gradientUnits="userSpaceOnUse" x1="133.6645" y1="-1582.1089" x2="378.3355" y2="-2005.8911" gradientTransform="matrix(1 0 0 1 0 2562)">
	<stop  offset="0" style="stop-color:#5F6C7C"/>
	<stop  offset="1" style="stop-color:#D7D6D9"/>
</linearGradient>
<circle style="fill:url(#SVGID_00000172420036233111347410000012955124811528945290_);stroke:#676767;stroke-width:9;stroke-miterlimit:10;" cx="256" cy="768" r="244.6"/>
<linearGradient id="SVGID_00000051354801592379249400000017931790104791298968_" gradientUnits="userSpaceOnUse" x1="363.6073" y1="-1980.3813" x2="148.3927" y2="-1607.6187" gradientTransform="matrix(1 0 0 1 0 2562)">
	<stop  offset="1.078831e-03" style="stop-color:#333F4F"/>
	<stop  offset="1" style="stop-color:#FFFFFF"/>
</linearGradient>
<circle style="opacity:0.5;fill:none;stroke:url(#SVGID_00000051354801592379249400000017931790104791298968_);stroke-width:16;stroke-miterlimit:10;enable-background:new    ;" cx="256" cy="768" r="207.2"/>
<linearGradient id="SVGID_00000171707424484798640920000002402068308534549128_" gradientUnits="userSpaceOnUse" x1="256" y1="-1990.3" x2="256" y2="-1597.7" gradientTransform="matrix(1 0 0 1 0 2562)">
	<stop  offset="2.194295e-07" style="stop-color:#FDFC04"/>
	<stop  offset="0.9995" style="stop-color:#BC8017"/>
</linearGradient>
<circle style="fill:url(#SVGID_00000171707424484798640920000002402068308534549128_);stroke:#030304;stroke-miterlimit:10;" cx="256" cy="768" r="196.3"/>
<linearGradient id="SVGID_00000124846284275036852340000006385491359516527247_" gradientUnits="userSpaceOnUse" x1="256.005" y1="964.3" x2="256.005" y2="763.25">
	<stop  offset="0" style="stop-color:#FFFFFF;stop-opacity:5.000000e-02"/>
	<stop  offset="1" style="stop-color:#FFFFFF"/>
</linearGradient>
<path style="opacity:0.4;fill:url(#SVGID_00000124846284275036852340000006385491359516527247_);enable-background:new    ;" d="
	M336.3,799.5c-87.4,3.9-130.8-33.1-179.6-36.2c-38.1,1.2-79.8,19.7-96.2,27.8c11.4,97.6,94.3,173.3,194.9,173.3
	c108.4,0,196.3-87.9,196.3-196.3c0-0.5,0-0.9,0-1.4C420.9,781.9,379.5,797.5,336.3,799.5z"/>
<linearGradient id="SVGID_00000107586179830842290390000003535691596947029148_" gradientUnits="userSpaceOnUse" x1="133.6645" y1="-1070.1089" x2="378.3355" y2="-1493.8911" gradientTransform="matrix(1 0 0 1 0 2562)">
	<stop  offset="0" style="stop-color:#5F6C7C"/>
	<stop  offset="1" style="stop-color:#D7D6D9"/>
</linearGradient>
<circle style="fill:url(#SVGID_00000107586179830842290390000003535691596947029148_);stroke:#676767;stroke-width:9;stroke-miterlimit:10;" cx="256" cy="1280" r="244.6"/>
<linearGradient id="SVGID_00000116919451608487959810000007383983334971877261_" gradientUnits="userSpaceOnUse" x1="363.6072" y1="-1468.3813" x2="148.3928" y2="-1095.6187" gradientTransform="matrix(1 0 0 1 0 2562)">
	<stop  offset="1.078831e-03" style="stop-color:#333F4F"/>
	<stop  offset="1" style="stop-color:#FFFFFF"/>
</linearGradient>
<circle style="opacity:0.5;fill:none;stroke:url(#SVGID_00000116919451608487959810000007383983334971877261_);stroke-width:16;stroke-miterlimit:10;enable-background:new    ;" cx="256" cy="1280" r="207.2"/>
<linearGradient id="SVGID_00000067198333312640993730000010119419301467368381_" gradientUnits="userSpaceOnUse" x1="256" y1="-1478.3" x2="256" y2="-1085.7" gradientTransform="matrix(1 0 0 1 0 2562)">
	<stop  offset="5.391326e-04" style="stop-color:#90FE83"/>
	<stop  offset="1" style="stop-color:#399036"/>
</linearGradient>
<circle style="fill:url(#SVGID_00000067198333312640993730000010119419301467368381_);stroke:#030304;stroke-miterlimit:10;" cx="256" cy="1280" r="196.3"/>
<linearGradient id="SVGID_00000016761101396964263640000016895890742284223618_" gradientUnits="userSpaceOnUse" x1="256.005" y1="1476.3" x2="256.005" y2="1275.25">
	<stop  offset="0" style="stop-color:#FFFFFF;stop-opacity:5.000000e-02"/>
	<stop  offset="1" style="stop-color:#FFFFFF"/>
</linearGradient>
<path style="opacity:0.4;fill:url(#SVGID_00000016761101396964263640000016895890742284223618_);enable-background:new    ;" d="
	M336.3,1311.5c-87.4,3.9-130.8-33.1-179.6-36.2c-38.1,1.2-79.8,19.7-96.2,27.8c11.4,97.6,94.3,173.3,194.9,173.3
	c108.4,0,196.3-87.9,196.3-196.3c0-0.5,0-0.9,0-1.4C420.9,1293.9,379.5,1309.5,336.3,1311.5z"/>
<linearGradient id="SVGID_00000016790137289435901210000008878705176594865297_" gradientUnits="userSpaceOnUse" x1="133.6645" y1="-558.1089" x2="378.3355" y2="-981.8911" gradientTransform="matrix(1 0 0 1 0 2562)">
	<stop  offset="0" style="stop-color:#5F6C7C"/>
	<stop  offset="1" style="stop-color:#D7D6D9"/>
</linearGradient>
<circle style="fill:url(#SVGID_00000016790137289435901210000008878705176594865297_);stroke:#676767;stroke-width:9;stroke-miterlimit:10;" cx="256" cy="1792" r="244.6"/>
<linearGradient id="SVGID_00000106136507998014546890000012506723493695931033_" gradientUnits="userSpaceOnUse" x1="363.6072" y1="-956.3813" x2="148.3928" y2="-583.6187" gradientTransform="matrix(1 0 0 1 0 2562)">
	<stop  offset="1.078831e-03" style="stop-color:#333F4F"/>
	<stop  offset="1" style="stop-color:#FFFFFF"/>
</linearGradient>
<circle style="opacity:0.5;fill:none;stroke:url(#SVGID_00000106136507998014546890000012506723493695931033_);stroke-width:16;stroke-miterlimit:10;enable-background:new    ;" cx="256" cy="1792" r="207.2"/>
<linearGradient id="SVGID_00000075843503369453555610000016981257265098949556_" gradientUnits="userSpaceOnUse" x1="256" y1="-966.3" x2="256" y2="-573.7" gradientTransform="matrix(1 0 0 1 0 2562)">
	<stop  offset="0" style="stop-color:#949494"/>
	<stop  offset="1" style="stop-color:#1E1E1E"/>
</linearGradient>
<circle style="fill:url(#SVGID_00000075843503369453555610000016981257265098949556_);stroke:#333333;stroke-miterlimit:10;" cx="256" cy="1792" r="196.3"/>
<linearGradient id="SVGID_00000083804036898760498650000016871579358975936145_" gradientUnits="userSpaceOnUse" x1="256.005" y1="1988.3" x2="256.005" y2="1787.25">
	<stop  offset="0" style="stop-color:#FFFFFF;stop-opacity:5.000000e-02"/>
	<stop  offset="1" style="stop-color:#FFFFFF"/>
</linearGradient>
<path style="opacity:0.4;fill:url(#SVGID_00000083804036898760498650000016871579358975936145_);enable-background:new    ;" d="
	M336.3,1823.5c-87.4,3.9-130.8-33.1-179.6-36.2c-38.1,1.2-79.8,19.7-96.2,27.8c11.4,97.6,94.3,173.3,194.9,173.3
	c108.4,0,196.3-87.9,196.3-196.3c0-0.5,0-0.9,0-1.4C420.9,1805.9,379.5,1821.5,336.3,1823.5z"/>
<polygon class="st16" points="214.9,141 329.8,256 288.5,297.3 214.9,371 173.5,329.7 247.2,256 173.5,182.3 "/>
<polygon class="st16" points="214.9,653 329.8,768 288.5,809.3 214.9,883 173.5,841.7 247.2,768 173.5,694.3 "/>
<polygon class="st16" points="214.9,1165 329.8,1280 288.5,1321.3 214.9,1395 173.5,1353.7 247.2,1280 173.5,1206.3 "/>
<polygon class="st16" points="214.9,1677 329.8,1792 288.5,1833.3 214.9,1907 173.5,1865.7 247.2,1792 173.5,1718.3 "/>
</svg>
