<?xml version="1.0" encoding="utf-8"?>
<!-- Generator: Adobe Illustrator 27.1.0, SVG Export Plug-In . SVG Version: 6.00 Build 0)  -->
<svg version="1.1" id="Calque_1" xmlns="http://www.w3.org/2000/svg" xmlns:xlink="http://www.w3.org/1999/xlink" x="0px" y="0px"
	 viewBox="0 0 512 2048" style="enable-background:new 0 0 512 2048;" xml:space="preserve">
<style type="text/css">
	.st0{fill:url(#SVGID_1_);stroke:#676767;stroke-width:9;stroke-miterlimit:10;}
	
		.st1{opacity:0.5;fill:none;stroke:url(#SVGID_00000180356876817189051820000017888431674127941521_);stroke-width:16;stroke-miterlimit:10;enable-background:new    ;}
	.st2{fill:url(#SVGID_00000049936504011569744220000004802301037229396888_);stroke:#333333;stroke-miterlimit:10;}
	
		.st3{opacity:0.4;fill:url(#SVGID_00000150801798811207614070000013144488341085671349_);stroke:#333333;stroke-miterlimit:10;enable-background:new    ;}
	.st4{fill:url(#SVGID_00000124852621734568793030000002709344345852402616_);stroke:#676767;stroke-width:9;stroke-miterlimit:10;}
	
		.st5{opacity:0.5;fill:none;stroke:url(#SVGID_00000035521242350112091150000002034637383976302769_);stroke-width:16;stroke-miterlimit:10;enable-background:new    ;}
	.st6{fill:url(#SVGID_00000178182998063361446120000014544993177931283856_);stroke:#030304;stroke-miterlimit:10;}
	.st7{opacity:0.4;fill:url(#SVGID_00000057147456377561161200000004602561559640124605_);enable-background:new    ;}
	.st8{fill:url(#SVGID_00000124846214504400016320000007326992242945083020_);stroke:#676767;stroke-width:9;stroke-miterlimit:10;}
	
		.st9{opacity:0.5;fill:none;stroke:url(#SVGID_00000045602572463588242890000004805141775344540311_);stroke-width:16;stroke-miterlimit:10;enable-background:new    ;}
	.st10{fill:url(#SVGID_00000054246080663157903290000012430242311592077216_);stroke:#030304;stroke-miterlimit:10;}
	.st11{opacity:0.4;fill:url(#SVGID_00000075154644763885784030000013456443686751706763_);enable-background:new    ;}
	.st12{fill:url(#SVGID_00000178200039272052984120000000260097880198043319_);stroke:#676767;stroke-width:9;stroke-miterlimit:10;}
	
		.st13{opacity:0.5;fill:none;stroke:url(#SVGID_00000115498949857942199390000008527613994980704406_);stroke-width:16;stroke-miterlimit:10;enable-background:new    ;}
	.st14{fill:url(#SVGID_00000106826955933307228020000018272045547961452199_);stroke:#333333;stroke-miterlimit:10;}
	.st15{opacity:0.4;fill:url(#SVGID_00000021827245266203820060000017775585205826494600_);enable-background:new    ;}
	.st16{opacity:0.9;fill:#FFFFFF;stroke:#333333;stroke-miterlimit:10;}
</style>
<linearGradient id="SVGID_1_" gradientUnits="userSpaceOnUse" x1="133.6796" y1="4142.1348" x2="378.3204" y2="4565.8652" gradientTransform="matrix(1 0 0 -1 0 4610)">
	<stop  offset="0" style="stop-color:#5F6C7C"/>
	<stop  offset="1" style="stop-color:#D7D6D9"/>
</linearGradient>
<circle class="st0" cx="256" cy="256" r="244.6"/>
<linearGradient id="SVGID_00000122695666386788279950000004173672783530320307_" gradientUnits="userSpaceOnUse" x1="363.6173" y1="1978.3987" x2="148.3827" y2="1605.6013" gradientTransform="matrix(1 0 0 -1 0 2048)">
	<stop  offset="1.078831e-03" style="stop-color:#333F4F"/>
	<stop  offset="1" style="stop-color:#FFFFFF"/>
</linearGradient>
<circle style="opacity:0.5;fill:none;stroke:url(#SVGID_00000122695666386788279950000004173672783530320307_);stroke-width:16;stroke-miterlimit:10;enable-background:new    ;" cx="256" cy="256" r="207.2"/>
<linearGradient id="SVGID_00000075154226244162410340000001901677059601075634_" gradientUnits="userSpaceOnUse" x1="256" y1="4550.2998" x2="256" y2="4157.7002" gradientTransform="matrix(1 0 0 -1 0 4610)">
	<stop  offset="5.392733e-04" style="stop-color:#60B2E4"/>
	<stop  offset="1" style="stop-color:#646AAF"/>
</linearGradient>
<circle style="fill:url(#SVGID_00000075154226244162410340000001901677059601075634_);stroke:#333333;stroke-miterlimit:10;" cx="256" cy="256" r="196.3"/>
<linearGradient id="SVGID_00000121986739791904311860000000630494634382984584_" gradientUnits="userSpaceOnUse" x1="256.1" y1="1595.6" x2="256.1" y2="1796.7" gradientTransform="matrix(1 0 0 -1 0 2048)">
	<stop  offset="0" style="stop-color:#FFFFFF;stop-opacity:5.000000e-02"/>
	<stop  offset="1" style="stop-color:#FFFFFF"/>
</linearGradient>
<path style="opacity:0.4;fill:url(#SVGID_00000121986739791904311860000000630494634382984584_);stroke:#333333;stroke-miterlimit:10;enable-background:new    ;" d="
	M336.3,287.5c-87.4,3.9-130.8-33.1-179.6-36.2c-38.1,1.2-79.8,19.7-96.2,27.8c11.4,97.6,94.3,173.3,194.9,173.3
	c108.4,0,196.3-87.9,196.3-196.3c0-0.5,0-0.9,0-1.4C420.9,269.9,379.5,285.5,336.3,287.5z"/>
<linearGradient id="SVGID_00000087405591676184944420000004215008052608899972_" gradientUnits="userSpaceOnUse" x1="133.6795" y1="3630.1348" x2="378.3205" y2="4053.8652" gradientTransform="matrix(1 0 0 -1 0 4610)">
	<stop  offset="0" style="stop-color:#5F6C7C"/>
	<stop  offset="1" style="stop-color:#D7D6D9"/>
</linearGradient>
<circle style="fill:url(#SVGID_00000087405591676184944420000004215008052608899972_);stroke:#676767;stroke-width:9;stroke-miterlimit:10;" cx="256" cy="768" r="244.6"/>
<linearGradient id="SVGID_00000066508440628213162650000015450565984912316070_" gradientUnits="userSpaceOnUse" x1="363.6173" y1="4028.3987" x2="148.3827" y2="3655.6013" gradientTransform="matrix(1 0 0 -1 0 4610)">
	<stop  offset="1.078831e-03" style="stop-color:#333F4F"/>
	<stop  offset="1" style="stop-color:#FFFFFF"/>
</linearGradient>
<circle style="opacity:0.5;fill:none;stroke:url(#SVGID_00000066508440628213162650000015450565984912316070_);stroke-width:16;stroke-miterlimit:10;enable-background:new    ;" cx="256" cy="768" r="207.2"/>
<linearGradient id="SVGID_00000146491451597960355330000008231453382804303024_" gradientUnits="userSpaceOnUse" x1="256" y1="4038.3" x2="256" y2="3645.7" gradientTransform="matrix(1 0 0 -1 0 4610)">
	<stop  offset="2.194295e-07" style="stop-color:#FDFC04"/>
	<stop  offset="0.9995" style="stop-color:#BC8017"/>
</linearGradient>
<circle style="fill:url(#SVGID_00000146491451597960355330000008231453382804303024_);stroke:#030304;stroke-miterlimit:10;" cx="256" cy="768" r="196.3"/>
<linearGradient id="SVGID_00000083064952820753747040000017410831563517451140_" gradientUnits="userSpaceOnUse" x1="256.1" y1="1083.6001" x2="256.1" y2="1284.7" gradientTransform="matrix(1 0 0 -1 0 2048)">
	<stop  offset="0" style="stop-color:#FFFFFF;stop-opacity:5.000000e-02"/>
	<stop  offset="1" style="stop-color:#FFFFFF"/>
</linearGradient>
<path style="opacity:0.4;fill:url(#SVGID_00000083064952820753747040000017410831563517451140_);enable-background:new    ;" d="
	M336.3,799.5c-87.4,3.9-130.8-33.1-179.6-36.2c-38.1,1.2-79.8,19.7-96.2,27.8c11.4,97.6,94.3,173.3,194.9,173.3
	c108.4,0,196.3-87.9,196.3-196.3c0-0.5,0-0.9,0-1.4C420.9,781.9,379.5,797.5,336.3,799.5z"/>
<linearGradient id="SVGID_00000026868250405483493720000012431961607771614347_" gradientUnits="userSpaceOnUse" x1="133.6795" y1="3118.1348" x2="378.3205" y2="3541.8652" gradientTransform="matrix(1 0 0 -1 0 4610)">
	<stop  offset="0" style="stop-color:#5F6C7C"/>
	<stop  offset="1" style="stop-color:#D7D6D9"/>
</linearGradient>
<circle style="fill:url(#SVGID_00000026868250405483493720000012431961607771614347_);stroke:#676767;stroke-width:9;stroke-miterlimit:10;" cx="256" cy="1280" r="244.6"/>
<linearGradient id="SVGID_00000055673520274838946030000017949421265368065696_" gradientUnits="userSpaceOnUse" x1="363.6172" y1="3516.3987" x2="148.3828" y2="3143.6013" gradientTransform="matrix(1 0 0 -1 0 4610)">
	<stop  offset="1.078831e-03" style="stop-color:#333F4F"/>
	<stop  offset="1" style="stop-color:#FFFFFF"/>
</linearGradient>
<circle style="opacity:0.5;fill:none;stroke:url(#SVGID_00000055673520274838946030000017949421265368065696_);stroke-width:16;stroke-miterlimit:10;enable-background:new    ;" cx="256" cy="1280" r="207.2"/>
<linearGradient id="SVGID_00000064312843686418382630000002950057677652529840_" gradientUnits="userSpaceOnUse" x1="256" y1="3526.3" x2="256" y2="3133.7" gradientTransform="matrix(1 0 0 -1 0 4610)">
	<stop  offset="5.391326e-04" style="stop-color:#90FE83"/>
	<stop  offset="1" style="stop-color:#399036"/>
</linearGradient>
<circle style="fill:url(#SVGID_00000064312843686418382630000002950057677652529840_);stroke:#030304;stroke-miterlimit:10;" cx="256" cy="1280" r="196.3"/>
<linearGradient id="SVGID_00000065073274191076040210000011029348823847666853_" gradientUnits="userSpaceOnUse" x1="256.1" y1="571.5999" x2="256.1" y2="772.7" gradientTransform="matrix(1 0 0 -1 0 2048)">
	<stop  offset="0" style="stop-color:#FFFFFF;stop-opacity:5.000000e-02"/>
	<stop  offset="1" style="stop-color:#FFFFFF"/>
</linearGradient>
<path style="opacity:0.4;fill:url(#SVGID_00000065073274191076040210000011029348823847666853_);enable-background:new    ;" d="
	M336.3,1311.5c-87.4,3.9-130.8-33.1-179.6-36.2c-38.1,1.2-79.8,19.7-96.2,27.8c11.4,97.6,94.3,173.3,194.9,173.3
	c108.4,0,196.3-87.9,196.3-196.3c0-0.5,0-0.9,0-1.4C420.9,1293.9,379.5,1309.5,336.3,1311.5z"/>
<linearGradient id="SVGID_00000177453782000113153090000009561533099052406146_" gradientUnits="userSpaceOnUse" x1="133.6795" y1="2606.1348" x2="378.3205" y2="3029.8652" gradientTransform="matrix(1 0 0 -1 0 4610)">
	<stop  offset="0" style="stop-color:#5F6C7C"/>
	<stop  offset="1" style="stop-color:#D7D6D9"/>
</linearGradient>
<circle style="fill:url(#SVGID_00000177453782000113153090000009561533099052406146_);stroke:#676767;stroke-width:9;stroke-miterlimit:10;" cx="256" cy="1792" r="244.6"/>
<linearGradient id="SVGID_00000150804643813895220550000009305362615697058222_" gradientUnits="userSpaceOnUse" x1="363.6172" y1="3004.3987" x2="148.3828" y2="2631.6013" gradientTransform="matrix(1 0 0 -1 0 4610)">
	<stop  offset="1.078831e-03" style="stop-color:#333F4F"/>
	<stop  offset="1" style="stop-color:#FFFFFF"/>
</linearGradient>
<circle style="opacity:0.5;fill:none;stroke:url(#SVGID_00000150804643813895220550000009305362615697058222_);stroke-width:16;stroke-miterlimit:10;enable-background:new    ;" cx="256" cy="1792" r="207.2"/>
<linearGradient id="SVGID_00000013886283883605107210000009703569625975707063_" gradientUnits="userSpaceOnUse" x1="256" y1="3014.3" x2="256" y2="2621.7" gradientTransform="matrix(1 0 0 -1 0 4610)">
	<stop  offset="0" style="stop-color:#949494"/>
	<stop  offset="1" style="stop-color:#1E1E1E"/>
</linearGradient>
<circle style="fill:url(#SVGID_00000013886283883605107210000009703569625975707063_);stroke:#333333;stroke-miterlimit:10;" cx="256" cy="1792" r="196.3"/>
<linearGradient id="SVGID_00000164505315411970224810000005864006046806485946_" gradientUnits="userSpaceOnUse" x1="256.1" y1="59.5999" x2="256.1" y2="260.7" gradientTransform="matrix(1 0 0 -1 0 2048)">
	<stop  offset="0" style="stop-color:#FFFFFF;stop-opacity:5.000000e-02"/>
	<stop  offset="1" style="stop-color:#FFFFFF"/>
</linearGradient>
<path style="opacity:0.4;fill:url(#SVGID_00000164505315411970224810000005864006046806485946_);enable-background:new    ;" d="
	M336.3,1823.5c-87.4,3.9-130.8-33.1-179.6-36.2c-38.1,1.2-79.8,19.7-96.2,27.8c11.4,97.6,94.3,173.3,194.9,173.3
	c108.4,0,196.3-87.9,196.3-196.3c0-0.5,0-0.9,0-1.4C420.9,1805.9,379.5,1821.5,336.3,1823.5z"/>
<path class="st16" d="M286.3,266.3v-18.5h-1.9c17.2-9.9,28.8-28.4,28.8-49.6c0-31.6-25.6-57.2-57.2-57.2s-57.2,25.6-57.2,57.2
	c0,21.2,11.6,39.8,28.8,49.6h-1.9v18.5c-26,4.3-45.9,26.9-45.9,54.1V371h152.4v-50.6C332.2,293.1,312.3,270.5,286.3,266.3z"/>
<path class="st16" d="M286.3,778.3v-18.5h-1.9c17.2-9.9,28.8-28.4,28.8-49.6c0-31.6-25.6-57.2-57.2-57.2s-57.2,25.6-57.2,57.2
	c0,21.2,11.6,39.8,28.8,49.6h-1.9v18.5c-26,4.3-45.9,26.9-45.9,54.1V883h152.4v-50.6C332.2,805.1,312.3,782.5,286.3,778.3z"/>
<path class="st16" d="M286.3,1290.3v-18.5h-1.9c17.2-9.9,28.8-28.4,28.8-49.6c0-31.6-25.6-57.2-57.2-57.2s-57.2,25.6-57.2,57.2
	c0,21.2,11.6,39.8,28.8,49.6h-1.9v18.5c-26,4.3-45.9,26.9-45.9,54.1v50.6h152.4v-50.6C332.2,1317.1,312.3,1294.5,286.3,1290.3z"/>
<path class="st16" d="M286.3,1802.3v-18.5h-1.9c17.2-9.9,28.8-28.4,28.8-49.6c0-31.6-25.6-57.2-57.2-57.2s-57.2,25.6-57.2,57.2
	c0,21.2,11.6,39.8,28.8,49.6h-1.9v18.5c-26,4.3-45.9,26.9-45.9,54.1v50.6h152.4v-50.6C332.2,1829.1,312.3,1806.5,286.3,1802.3z"/>
</svg>
