<?xml version="1.0" encoding="utf-8"?>
<!-- Generator: Adobe Illustrator 27.1.0, SVG Export Plug-In . SVG Version: 6.00 Build 0)  -->
<svg version="1.1" id="Calque_1" xmlns="http://www.w3.org/2000/svg" xmlns:xlink="http://www.w3.org/1999/xlink" x="0px" y="0px"
	 viewBox="0 0 512 2048" style="enable-background:new 0 0 512 2048;" xml:space="preserve">
<style type="text/css">
	.st0{fill:url(#SVGID_1_);stroke:#676767;stroke-width:9;stroke-miterlimit:10;}
	
		.st1{opacity:0.5;fill:none;stroke:url(#SVGID_00000094579097958442800730000011271969668214025903_);stroke-width:16;stroke-miterlimit:10;enable-background:new    ;}
	.st2{fill:url(#SVGID_00000050665385981003105850000001966473794823322282_);stroke:#333333;stroke-miterlimit:10;}
	
		.st3{opacity:0.4;fill:url(#SVGID_00000168819719443265893730000013917133451336066996_);stroke:#333333;stroke-miterlimit:10;enable-background:new    ;}
	.st4{fill:url(#SVGID_00000047769243597905179020000001839779783002766527_);stroke:#676767;stroke-width:9;stroke-miterlimit:10;}
	
		.st5{opacity:0.5;fill:none;stroke:url(#SVGID_00000005966354304360946430000008531678382464485041_);stroke-width:16;stroke-miterlimit:10;enable-background:new    ;}
	.st6{fill:url(#SVGID_00000107583191165774039560000010780308889129227930_);stroke:#030304;stroke-miterlimit:10;}
	.st7{opacity:0.4;fill:url(#SVGID_00000080172726780865705870000012715309104021806730_);enable-background:new    ;}
	.st8{fill:url(#SVGID_00000038391004024200380150000013664785974381973689_);stroke:#676767;stroke-width:9;stroke-miterlimit:10;}
	
		.st9{opacity:0.5;fill:none;stroke:url(#SVGID_00000027593928619212682760000011984575861422153620_);stroke-width:16;stroke-miterlimit:10;enable-background:new    ;}
	.st10{fill:url(#SVGID_00000102505910634193506130000005931691611726160777_);stroke:#030304;stroke-miterlimit:10;}
	.st11{opacity:0.4;fill:url(#SVGID_00000087369938892088026460000004678148243799774101_);enable-background:new    ;}
	.st12{fill:url(#SVGID_00000039112408031373270030000007915454455482215052_);stroke:#676767;stroke-width:9;stroke-miterlimit:10;}
	
		.st13{opacity:0.5;fill:none;stroke:url(#SVGID_00000022552391033739622530000007991742722265221791_);stroke-width:16;stroke-miterlimit:10;enable-background:new    ;}
	.st14{fill:url(#SVGID_00000053535563801639392650000017204905426148399805_);stroke:#333333;stroke-miterlimit:10;}
	.st15{opacity:0.4;fill:url(#SVGID_00000109015688642368529330000012918640703119082133_);enable-background:new    ;}
	.st16{opacity:0.9;fill:#FFFFFF;stroke:#333333;stroke-miterlimit:10;enable-background:new    ;}
</style>
<linearGradient id="SVGID_1_" gradientUnits="userSpaceOnUse" x1="133.6646" y1="-2094.1089" x2="378.3354" y2="-2517.8911" gradientTransform="matrix(1 0 0 1 0 2562)">
	<stop  offset="0" style="stop-color:#5F6C7C"/>
	<stop  offset="1" style="stop-color:#D7D6D9"/>
</linearGradient>
<circle class="st0" cx="256" cy="256" r="244.6"/>
<linearGradient id="SVGID_00000041977399947881009250000004811957198020600718_" gradientUnits="userSpaceOnUse" x1="363.6073" y1="69.6187" x2="148.3927" y2="442.3813">
	<stop  offset="1.078831e-03" style="stop-color:#333F4F"/>
	<stop  offset="1" style="stop-color:#FFFFFF"/>
</linearGradient>
<circle style="opacity:0.5;fill:none;stroke:url(#SVGID_00000041977399947881009250000004811957198020600718_);stroke-width:16;stroke-miterlimit:10;enable-background:new    ;" cx="256" cy="256" r="207.2"/>
<linearGradient id="SVGID_00000103968147187759674640000000953263361612011694_" gradientUnits="userSpaceOnUse" x1="256" y1="-2502.3" x2="256" y2="-2109.7" gradientTransform="matrix(1 0 0 1 0 2562)">
	<stop  offset="5.392733e-04" style="stop-color:#60B2E4"/>
	<stop  offset="1" style="stop-color:#646AAF"/>
</linearGradient>
<circle style="fill:url(#SVGID_00000103968147187759674640000000953263361612011694_);stroke:#333333;stroke-miterlimit:10;" cx="256" cy="256" r="196.3"/>
<linearGradient id="SVGID_00000065793152878881070620000003468944125303129236_" gradientUnits="userSpaceOnUse" x1="256.005" y1="452.3" x2="256.005" y2="251.25">
	<stop  offset="0" style="stop-color:#FFFFFF;stop-opacity:5.000000e-02"/>
	<stop  offset="1" style="stop-color:#FFFFFF"/>
</linearGradient>
<path style="opacity:0.4;fill:url(#SVGID_00000065793152878881070620000003468944125303129236_);stroke:#333333;stroke-miterlimit:10;enable-background:new    ;" d="
	M336.3,287.5c-87.4,3.9-130.8-33.1-179.6-36.2c-38.1,1.2-79.8,19.7-96.2,27.8c11.4,97.6,94.3,173.3,194.9,173.3
	c108.4,0,196.3-87.9,196.3-196.3c0-0.5,0-0.9,0-1.4C420.9,269.9,379.5,285.5,336.3,287.5z"/>
<linearGradient id="SVGID_00000106862000582986889410000001498760645108780442_" gradientUnits="userSpaceOnUse" x1="133.6645" y1="-1582.1089" x2="378.3355" y2="-2005.8911" gradientTransform="matrix(1 0 0 1 0 2562)">
	<stop  offset="0" style="stop-color:#5F6C7C"/>
	<stop  offset="1" style="stop-color:#D7D6D9"/>
</linearGradient>
<circle style="fill:url(#SVGID_00000106862000582986889410000001498760645108780442_);stroke:#676767;stroke-width:9;stroke-miterlimit:10;" cx="256" cy="768" r="244.6"/>
<linearGradient id="SVGID_00000142856411997338284510000012942475603899337115_" gradientUnits="userSpaceOnUse" x1="363.6073" y1="-1980.3813" x2="148.3927" y2="-1607.6187" gradientTransform="matrix(1 0 0 1 0 2562)">
	<stop  offset="1.078831e-03" style="stop-color:#333F4F"/>
	<stop  offset="1" style="stop-color:#FFFFFF"/>
</linearGradient>
<circle style="opacity:0.5;fill:none;stroke:url(#SVGID_00000142856411997338284510000012942475603899337115_);stroke-width:16;stroke-miterlimit:10;enable-background:new    ;" cx="256" cy="768" r="207.2"/>
<linearGradient id="SVGID_00000096058848257614593640000018133295218881084338_" gradientUnits="userSpaceOnUse" x1="256" y1="-1990.3" x2="256" y2="-1597.7" gradientTransform="matrix(1 0 0 1 0 2562)">
	<stop  offset="2.194295e-07" style="stop-color:#FDFC04"/>
	<stop  offset="0.9995" style="stop-color:#BC8017"/>
</linearGradient>
<circle style="fill:url(#SVGID_00000096058848257614593640000018133295218881084338_);stroke:#030304;stroke-miterlimit:10;" cx="256" cy="768" r="196.3"/>
<linearGradient id="SVGID_00000036217480679652284580000017580982864451353012_" gradientUnits="userSpaceOnUse" x1="256.005" y1="964.3" x2="256.005" y2="763.25">
	<stop  offset="0" style="stop-color:#FFFFFF;stop-opacity:5.000000e-02"/>
	<stop  offset="1" style="stop-color:#FFFFFF"/>
</linearGradient>
<path style="opacity:0.4;fill:url(#SVGID_00000036217480679652284580000017580982864451353012_);enable-background:new    ;" d="
	M336.3,799.5c-87.4,3.9-130.8-33.1-179.6-36.2c-38.1,1.2-79.8,19.7-96.2,27.8c11.4,97.6,94.3,173.3,194.9,173.3
	c108.4,0,196.3-87.9,196.3-196.3c0-0.5,0-0.9,0-1.4C420.9,781.9,379.5,797.5,336.3,799.5z"/>
<linearGradient id="SVGID_00000001658573331801123560000013225779941096835499_" gradientUnits="userSpaceOnUse" x1="133.6645" y1="-1070.1089" x2="378.3355" y2="-1493.8911" gradientTransform="matrix(1 0 0 1 0 2562)">
	<stop  offset="0" style="stop-color:#5F6C7C"/>
	<stop  offset="1" style="stop-color:#D7D6D9"/>
</linearGradient>
<circle style="fill:url(#SVGID_00000001658573331801123560000013225779941096835499_);stroke:#676767;stroke-width:9;stroke-miterlimit:10;" cx="256" cy="1280" r="244.6"/>
<linearGradient id="SVGID_00000100359601332725226600000004655138660185730954_" gradientUnits="userSpaceOnUse" x1="363.6072" y1="-1468.3813" x2="148.3928" y2="-1095.6187" gradientTransform="matrix(1 0 0 1 0 2562)">
	<stop  offset="1.078831e-03" style="stop-color:#333F4F"/>
	<stop  offset="1" style="stop-color:#FFFFFF"/>
</linearGradient>
<circle style="opacity:0.5;fill:none;stroke:url(#SVGID_00000100359601332725226600000004655138660185730954_);stroke-width:16;stroke-miterlimit:10;enable-background:new    ;" cx="256" cy="1280" r="207.2"/>
<linearGradient id="SVGID_00000179610862509792516290000017411140955517476517_" gradientUnits="userSpaceOnUse" x1="256" y1="-1478.3" x2="256" y2="-1085.7" gradientTransform="matrix(1 0 0 1 0 2562)">
	<stop  offset="5.391326e-04" style="stop-color:#90FE83"/>
	<stop  offset="1" style="stop-color:#399036"/>
</linearGradient>
<circle style="fill:url(#SVGID_00000179610862509792516290000017411140955517476517_);stroke:#030304;stroke-miterlimit:10;" cx="256" cy="1280" r="196.3"/>
<linearGradient id="SVGID_00000078039864926150881750000007307798563921014430_" gradientUnits="userSpaceOnUse" x1="256.005" y1="1476.3" x2="256.005" y2="1275.25">
	<stop  offset="0" style="stop-color:#FFFFFF;stop-opacity:5.000000e-02"/>
	<stop  offset="1" style="stop-color:#FFFFFF"/>
</linearGradient>
<path style="opacity:0.4;fill:url(#SVGID_00000078039864926150881750000007307798563921014430_);enable-background:new    ;" d="
	M336.3,1311.5c-87.4,3.9-130.8-33.1-179.6-36.2c-38.1,1.2-79.8,19.7-96.2,27.8c11.4,97.6,94.3,173.3,194.9,173.3
	c108.4,0,196.3-87.9,196.3-196.3c0-0.5,0-0.9,0-1.4C420.9,1293.9,379.5,1309.5,336.3,1311.5z"/>
<linearGradient id="SVGID_00000016757140549731206600000010700915815077124534_" gradientUnits="userSpaceOnUse" x1="133.6645" y1="-558.1089" x2="378.3355" y2="-981.8911" gradientTransform="matrix(1 0 0 1 0 2562)">
	<stop  offset="0" style="stop-color:#5F6C7C"/>
	<stop  offset="1" style="stop-color:#D7D6D9"/>
</linearGradient>
<circle style="fill:url(#SVGID_00000016757140549731206600000010700915815077124534_);stroke:#676767;stroke-width:9;stroke-miterlimit:10;" cx="256" cy="1792" r="244.6"/>
<linearGradient id="SVGID_00000044868254299367792280000008881756217302092980_" gradientUnits="userSpaceOnUse" x1="363.6072" y1="-956.3813" x2="148.3928" y2="-583.6187" gradientTransform="matrix(1 0 0 1 0 2562)">
	<stop  offset="1.078831e-03" style="stop-color:#333F4F"/>
	<stop  offset="1" style="stop-color:#FFFFFF"/>
</linearGradient>
<circle style="opacity:0.5;fill:none;stroke:url(#SVGID_00000044868254299367792280000008881756217302092980_);stroke-width:16;stroke-miterlimit:10;enable-background:new    ;" cx="256" cy="1792" r="207.2"/>
<linearGradient id="SVGID_00000142149202413952112020000009042389738705726619_" gradientUnits="userSpaceOnUse" x1="256" y1="-966.3" x2="256" y2="-573.7" gradientTransform="matrix(1 0 0 1 0 2562)">
	<stop  offset="0" style="stop-color:#949494"/>
	<stop  offset="1" style="stop-color:#1E1E1E"/>
</linearGradient>
<circle style="fill:url(#SVGID_00000142149202413952112020000009042389738705726619_);stroke:#333333;stroke-miterlimit:10;" cx="256" cy="1792" r="196.3"/>
<linearGradient id="SVGID_00000003792717859563261880000002860565596363138476_" gradientUnits="userSpaceOnUse" x1="256.005" y1="1988.3" x2="256.005" y2="1787.25">
	<stop  offset="0" style="stop-color:#FFFFFF;stop-opacity:5.000000e-02"/>
	<stop  offset="1" style="stop-color:#FFFFFF"/>
</linearGradient>
<path style="opacity:0.4;fill:url(#SVGID_00000003792717859563261880000002860565596363138476_);enable-background:new    ;" d="
	M336.3,1823.5c-87.4,3.9-130.8-33.1-179.6-36.2c-38.1,1.2-79.8,19.7-96.2,27.8c11.4,97.6,94.3,173.3,194.9,173.3
	c108.4,0,196.3-87.9,196.3-196.3c0-0.5,0-0.9,0-1.4C420.9,1805.9,379.5,1821.5,336.3,1823.5z"/>
<polygon class="st16" points="288.5,141 173.5,256 214.9,297.3 288.5,371 329.8,329.7 256.2,256 329.8,182.3 "/>
<polygon class="st16" points="288.5,653 173.5,768 214.9,809.3 288.5,883 329.8,841.7 256.2,768 329.8,694.3 "/>
<polygon class="st16" points="288.5,1165 173.5,1280 214.9,1321.3 288.5,1395 329.8,1353.7 256.2,1280 329.8,1206.3 "/>
<polygon class="st16" points="288.5,1677 173.5,1792 214.9,1833.3 288.5,1907 329.8,1865.7 256.2,1792 329.8,1718.3 "/>
</svg>
