<?xml version="1.0" encoding="utf-8"?>
<!-- Generator: Adobe Illustrator 27.0.1, SVG Export Plug-In . SVG Version: 6.00 Build 0)  -->
<svg version="1.1" id="Calque_1" xmlns="http://www.w3.org/2000/svg" xmlns:xlink="http://www.w3.org/1999/xlink" x="0px" y="0px"
	 viewBox="0 0 512 2048" style="enable-background:new 0 0 512 2048;" xml:space="preserve">
<style type="text/css">
	.st0{fill:url(#SVGID_1_);stroke:#676767;stroke-width:9;stroke-miterlimit:10;}
	
		.st1{opacity:0.5;fill:none;stroke:url(#SVGID_00000031191413977882317410000011231304496125408148_);stroke-width:16;stroke-miterlimit:10;enable-background:new    ;}
	.st2{fill:url(#SVGID_00000103236720998758492160000016494494734227479215_);stroke:#333333;stroke-miterlimit:10;}
	
		.st3{opacity:0.4;fill:url(#SVGID_00000113320183376313597500000011403747953118261146_);stroke:#333333;stroke-miterlimit:10;enable-background:new    ;}
	.st4{fill:url(#SVGID_00000183960036819545297230000016722793977084362389_);stroke:#676767;stroke-width:9;stroke-miterlimit:10;}
	
		.st5{opacity:0.5;fill:none;stroke:url(#SVGID_00000083057571122285435940000014580959130143645330_);stroke-width:16;stroke-miterlimit:10;enable-background:new    ;}
	.st6{fill:url(#SVGID_00000153683641831226221660000005979516739774351770_);stroke:#030304;stroke-miterlimit:10;}
	.st7{opacity:0.4;fill:url(#SVGID_00000102544036318910768440000009041997721498580382_);enable-background:new    ;}
	.st8{fill:url(#SVGID_00000021119763846774865000000009924931866616138669_);stroke:#676767;stroke-width:9;stroke-miterlimit:10;}
	
		.st9{opacity:0.5;fill:none;stroke:url(#SVGID_00000063612097213736153100000009477684354517348498_);stroke-width:16;stroke-miterlimit:10;enable-background:new    ;}
	.st10{fill:url(#SVGID_00000018956055304235288990000012565483397611190950_);stroke:#030304;stroke-miterlimit:10;}
	.st11{opacity:0.4;fill:url(#SVGID_00000075854642701358962050000007092614238728448950_);enable-background:new    ;}
	.st12{fill:url(#SVGID_00000102528234748931552700000000208966846538988468_);stroke:#676767;stroke-width:9;stroke-miterlimit:10;}
	
		.st13{opacity:0.5;fill:none;stroke:url(#SVGID_00000146488743491691853850000004757896969143779745_);stroke-width:16;stroke-miterlimit:10;enable-background:new    ;}
	.st14{fill:url(#SVGID_00000118381844515716959220000006340877573264753071_);stroke:#333333;stroke-miterlimit:10;}
	.st15{opacity:0.4;fill:url(#SVGID_00000168814624064927800320000002759520296299210382_);enable-background:new    ;}
	.st16{opacity:0.9;fill:#FFFFFF;stroke:#333333;stroke-miterlimit:10;}
</style>
<linearGradient id="SVGID_1_" gradientUnits="userSpaceOnUse" x1="133.6646" y1="4142.1089" x2="378.3354" y2="4565.8911" gradientTransform="matrix(1 0 0 -1 0 4610)">
	<stop  offset="0" style="stop-color:#5F6C7C"/>
	<stop  offset="1" style="stop-color:#D7D6D9"/>
</linearGradient>
<circle class="st0" cx="256" cy="256" r="244.63"/>
<linearGradient id="SVGID_00000041283130457281521870000008955744382501883322_" gradientUnits="userSpaceOnUse" x1="363.6073" y1="1978.3813" x2="148.3927" y2="1605.6187" gradientTransform="matrix(1 0 0 -1 0 2048)">
	<stop  offset="1.078831e-03" style="stop-color:#333F4F"/>
	<stop  offset="1" style="stop-color:#FFFFFF"/>
</linearGradient>
<circle style="opacity:0.5;fill:none;stroke:url(#SVGID_00000041283130457281521870000008955744382501883322_);stroke-width:16;stroke-miterlimit:10;enable-background:new    ;" cx="256" cy="256" r="207.18"/>
<linearGradient id="SVGID_00000120532476766505091200000017816239176622347153_" gradientUnits="userSpaceOnUse" x1="256" y1="4550.2998" x2="256" y2="4157.7002" gradientTransform="matrix(1 0 0 -1 0 4610)">
	<stop  offset="5.392733e-04" style="stop-color:#60B2E4"/>
	<stop  offset="1" style="stop-color:#646AAF"/>
</linearGradient>
<circle style="fill:url(#SVGID_00000120532476766505091200000017816239176622347153_);stroke:#333333;stroke-miterlimit:10;" cx="256" cy="256" r="196.3"/>
<linearGradient id="SVGID_00000070110510667280896660000009889237497116482444_" gradientUnits="userSpaceOnUse" x1="256.005" y1="1595.7" x2="256.005" y2="1796.75" gradientTransform="matrix(1 0 0 -1 0 2048)">
	<stop  offset="0" style="stop-color:#FFFFFF;stop-opacity:0.05"/>
	<stop  offset="1" style="stop-color:#FFFFFF"/>
</linearGradient>
<path style="opacity:0.4;fill:url(#SVGID_00000070110510667280896660000009889237497116482444_);stroke:#333333;stroke-miterlimit:10;enable-background:new    ;" d="
	M336.26,287.49c-87.45,3.94-130.78-33.09-179.63-36.24c-38.1,1.23-79.76,19.71-96.25,27.78c11.4,97.56,94.33,173.27,194.95,173.27
	c108.41,0,196.3-87.89,196.3-196.3c0-0.47-0.01-0.94-0.02-1.41C420.87,269.9,379.53,285.54,336.26,287.49z"/>
<linearGradient id="SVGID_00000157297712271497227130000011435503761016624782_" gradientUnits="userSpaceOnUse" x1="133.6645" y1="3630.1089" x2="378.3355" y2="4053.8911" gradientTransform="matrix(1 0 0 -1 0 4610)">
	<stop  offset="0" style="stop-color:#5F6C7C"/>
	<stop  offset="1" style="stop-color:#D7D6D9"/>
</linearGradient>
<circle style="fill:url(#SVGID_00000157297712271497227130000011435503761016624782_);stroke:#676767;stroke-width:9;stroke-miterlimit:10;" cx="256" cy="768" r="244.63"/>
<linearGradient id="SVGID_00000035503757766086522990000006996748780626791611_" gradientUnits="userSpaceOnUse" x1="363.6073" y1="4028.3813" x2="148.3927" y2="3655.6187" gradientTransform="matrix(1 0 0 -1 0 4610)">
	<stop  offset="1.078831e-03" style="stop-color:#333F4F"/>
	<stop  offset="1" style="stop-color:#FFFFFF"/>
</linearGradient>
<circle style="opacity:0.5;fill:none;stroke:url(#SVGID_00000035503757766086522990000006996748780626791611_);stroke-width:16;stroke-miterlimit:10;enable-background:new    ;" cx="256" cy="768" r="207.18"/>
<linearGradient id="SVGID_00000168102442624891602600000016467558131063748253_" gradientUnits="userSpaceOnUse" x1="256" y1="4038.3" x2="256" y2="3645.7" gradientTransform="matrix(1 0 0 -1 0 4610)">
	<stop  offset="2.194295e-07" style="stop-color:#FDFC04"/>
	<stop  offset="0.9995" style="stop-color:#BC8017"/>
</linearGradient>
<circle style="fill:url(#SVGID_00000168102442624891602600000016467558131063748253_);stroke:#030304;stroke-miterlimit:10;" cx="256" cy="768" r="196.3"/>
<linearGradient id="SVGID_00000029736910112536331300000003917231322980190911_" gradientUnits="userSpaceOnUse" x1="256.005" y1="1083.7" x2="256.005" y2="1284.75" gradientTransform="matrix(1 0 0 -1 0 2048)">
	<stop  offset="0" style="stop-color:#FFFFFF;stop-opacity:0.05"/>
	<stop  offset="1" style="stop-color:#FFFFFF"/>
</linearGradient>
<path style="opacity:0.4;fill:url(#SVGID_00000029736910112536331300000003917231322980190911_);enable-background:new    ;" d="
	M336.26,799.49c-87.45,3.94-130.78-33.09-179.63-36.24c-38.1,1.23-79.76,19.71-96.25,27.78c11.4,97.56,94.33,173.27,194.95,173.27
	c108.41,0,196.3-87.89,196.3-196.3c0-0.47-0.01-0.94-0.02-1.41C420.87,781.9,379.53,797.54,336.26,799.49z"/>
<linearGradient id="SVGID_00000158713497610066449610000012627589201991024019_" gradientUnits="userSpaceOnUse" x1="133.6645" y1="3118.1089" x2="378.3355" y2="3541.8911" gradientTransform="matrix(1 0 0 -1 0 4610)">
	<stop  offset="0" style="stop-color:#5F6C7C"/>
	<stop  offset="1" style="stop-color:#D7D6D9"/>
</linearGradient>
<circle style="fill:url(#SVGID_00000158713497610066449610000012627589201991024019_);stroke:#676767;stroke-width:9;stroke-miterlimit:10;" cx="256" cy="1280" r="244.63"/>
<linearGradient id="SVGID_00000154392082849608635040000018112885629206279852_" gradientUnits="userSpaceOnUse" x1="363.6072" y1="3516.3813" x2="148.3927" y2="3143.6187" gradientTransform="matrix(1 0 0 -1 0 4610)">
	<stop  offset="1.078831e-03" style="stop-color:#333F4F"/>
	<stop  offset="1" style="stop-color:#FFFFFF"/>
</linearGradient>
<circle style="opacity:0.5;fill:none;stroke:url(#SVGID_00000154392082849608635040000018112885629206279852_);stroke-width:16;stroke-miterlimit:10;enable-background:new    ;" cx="256" cy="1280" r="207.18"/>
<linearGradient id="SVGID_00000082358297192212389050000006377560557866911679_" gradientUnits="userSpaceOnUse" x1="256" y1="3526.3" x2="256" y2="3133.7" gradientTransform="matrix(1 0 0 -1 0 4610)">
	<stop  offset="5.391326e-04" style="stop-color:#90FE83"/>
	<stop  offset="1" style="stop-color:#399036"/>
</linearGradient>
<circle style="fill:url(#SVGID_00000082358297192212389050000006377560557866911679_);stroke:#030304;stroke-miterlimit:10;" cx="256" cy="1280" r="196.3"/>
<linearGradient id="SVGID_00000121978672040817266510000016041206386102570410_" gradientUnits="userSpaceOnUse" x1="256.005" y1="571.7" x2="256.005" y2="772.75" gradientTransform="matrix(1 0 0 -1 0 2048)">
	<stop  offset="0" style="stop-color:#FFFFFF;stop-opacity:0.05"/>
	<stop  offset="1" style="stop-color:#FFFFFF"/>
</linearGradient>
<path style="opacity:0.4;fill:url(#SVGID_00000121978672040817266510000016041206386102570410_);enable-background:new    ;" d="
	M336.26,1311.49c-87.45,3.94-130.78-33.09-179.63-36.24c-38.1,1.23-79.76,19.71-96.25,27.78c11.4,97.56,94.33,173.27,194.95,173.27
	c108.41,0,196.3-87.89,196.3-196.3c0-0.47-0.01-0.94-0.02-1.41C420.87,1293.9,379.53,1309.54,336.26,1311.49z"/>
<linearGradient id="SVGID_00000116226293299138383240000004770669234930518146_" gradientUnits="userSpaceOnUse" x1="133.6645" y1="2606.1089" x2="378.3355" y2="3029.8911" gradientTransform="matrix(1 0 0 -1 0 4610)">
	<stop  offset="0" style="stop-color:#5F6C7C"/>
	<stop  offset="1" style="stop-color:#D7D6D9"/>
</linearGradient>
<circle style="fill:url(#SVGID_00000116226293299138383240000004770669234930518146_);stroke:#676767;stroke-width:9;stroke-miterlimit:10;" cx="256" cy="1792" r="244.63"/>
<linearGradient id="SVGID_00000080899587368665820820000012427916365929679491_" gradientUnits="userSpaceOnUse" x1="363.6072" y1="3004.3813" x2="148.3927" y2="2631.6187" gradientTransform="matrix(1 0 0 -1 0 4610)">
	<stop  offset="1.078831e-03" style="stop-color:#333F4F"/>
	<stop  offset="1" style="stop-color:#FFFFFF"/>
</linearGradient>
<circle style="opacity:0.5;fill:none;stroke:url(#SVGID_00000080899587368665820820000012427916365929679491_);stroke-width:16;stroke-miterlimit:10;enable-background:new    ;" cx="256" cy="1792" r="207.18"/>
<linearGradient id="SVGID_00000121274831148813119440000012702369622487131311_" gradientUnits="userSpaceOnUse" x1="256" y1="3014.3" x2="256" y2="2621.7" gradientTransform="matrix(1 0 0 -1 0 4610)">
	<stop  offset="0" style="stop-color:#949494"/>
	<stop  offset="1" style="stop-color:#1E1E1E"/>
</linearGradient>
<circle style="fill:url(#SVGID_00000121274831148813119440000012702369622487131311_);stroke:#333333;stroke-miterlimit:10;" cx="256" cy="1792" r="196.3"/>
<linearGradient id="SVGID_00000070112681447697398350000016906838279890696112_" gradientUnits="userSpaceOnUse" x1="256.005" y1="59.7" x2="256.005" y2="260.75" gradientTransform="matrix(1 0 0 -1 0 2048)">
	<stop  offset="0" style="stop-color:#FFFFFF;stop-opacity:0.05"/>
	<stop  offset="1" style="stop-color:#FFFFFF"/>
</linearGradient>
<path style="opacity:0.4;fill:url(#SVGID_00000070112681447697398350000016906838279890696112_);enable-background:new    ;" d="
	M336.26,1823.49c-87.45,3.94-130.78-33.09-179.63-36.24c-38.1,1.23-79.76,19.71-96.25,27.78c11.4,97.56,94.33,173.27,194.95,173.27
	c108.41,0,196.3-87.89,196.3-196.3c0-0.47-0.01-0.94-0.02-1.41C420.87,1805.9,379.53,1821.54,336.26,1823.49z"/>
<polygon class="st16" points="293.46,125.65 163.11,256 209.94,302.83 293.46,386.35 340.28,339.52 256.77,256 340.28,172.48 "/>
<polygon class="st16" points="293.46,637.65 163.11,768 209.94,814.83 293.46,898.35 340.28,851.52 256.77,768 340.28,684.48 "/>
<polygon class="st16" points="293.46,1149.65 163.11,1280 209.94,1326.83 293.46,1410.35 340.28,1363.52 256.77,1280 
	340.28,1196.48 "/>
<polygon class="st16" points="293.46,1661.65 163.11,1792 209.94,1838.83 293.46,1922.35 340.28,1875.52 256.77,1792 
	340.28,1708.48 "/>
</svg>
