<?xml version="1.0" encoding="utf-8"?>
<!-- Generator: Adobe Illustrator 27.1.0, SVG Export Plug-In . SVG Version: 6.00 Build 0)  -->
<svg version="1.1" id="Calque_1" xmlns="http://www.w3.org/2000/svg" xmlns:xlink="http://www.w3.org/1999/xlink" x="0px" y="0px"
	 viewBox="0 0 512 2048" style="enable-background:new 0 0 512 2048;" xml:space="preserve">
<style type="text/css">
	.st0{fill:url(#SVGID_1_);stroke:#676767;stroke-width:9;stroke-miterlimit:10;}
	
		.st1{opacity:0.5;fill:none;stroke:url(#SVGID_00000070120240862890795050000015136367857257659311_);stroke-width:16;stroke-miterlimit:10;enable-background:new    ;}
	.st2{fill:url(#SVGID_00000176007450696593004080000013687787221379006634_);stroke:#333333;stroke-miterlimit:10;}
	
		.st3{opacity:0.4;fill:url(#SVGID_00000044162772459904863430000003717918807719279273_);stroke:#333333;stroke-miterlimit:10;enable-background:new    ;}
	.st4{fill:url(#SVGID_00000120537864378204528330000013474580740675762876_);stroke:#676767;stroke-width:9;stroke-miterlimit:10;}
	
		.st5{opacity:0.5;fill:none;stroke:url(#SVGID_00000165922568134671916580000004395833983168439696_);stroke-width:16;stroke-miterlimit:10;enable-background:new    ;}
	.st6{fill:url(#SVGID_00000018197311674766050160000012904491051449903800_);stroke:#030304;stroke-miterlimit:10;}
	.st7{opacity:0.4;fill:url(#SVGID_00000081645150817455678880000010175961139220175802_);enable-background:new    ;}
	.st8{fill:url(#SVGID_00000031181242605746527700000017827788202887865763_);stroke:#676767;stroke-width:9;stroke-miterlimit:10;}
	
		.st9{opacity:0.5;fill:none;stroke:url(#SVGID_00000080914165392573796570000008582216180135130802_);stroke-width:16;stroke-miterlimit:10;enable-background:new    ;}
	.st10{fill:url(#SVGID_00000075847533942548782110000014921154095259344532_);stroke:#030304;stroke-miterlimit:10;}
	.st11{opacity:0.4;fill:url(#SVGID_00000060724932904866933170000008896036874833704066_);enable-background:new    ;}
	.st12{fill:url(#SVGID_00000097461553195401086400000007155932620953164938_);stroke:#676767;stroke-width:9;stroke-miterlimit:10;}
	
		.st13{opacity:0.5;fill:none;stroke:url(#SVGID_00000152254759609814303760000002393366259265750431_);stroke-width:16;stroke-miterlimit:10;enable-background:new    ;}
	.st14{fill:url(#SVGID_00000098219463926847224090000005179224917268765630_);stroke:#333333;stroke-miterlimit:10;}
	.st15{opacity:0.4;fill:url(#SVGID_00000021816830056510996090000000517026656485950085_);enable-background:new    ;}
	.st16{opacity:0.9;fill:#FFFFFF;stroke:#333333;stroke-miterlimit:10;}
</style>
<linearGradient id="SVGID_1_" gradientUnits="userSpaceOnUse" x1="133.6796" y1="4142.1348" x2="378.3204" y2="4565.8652" gradientTransform="matrix(1 0 0 -1 0 4610)">
	<stop  offset="0" style="stop-color:#5F6C7C"/>
	<stop  offset="1" style="stop-color:#D7D6D9"/>
</linearGradient>
<circle class="st0" cx="256" cy="256" r="244.6"/>
<linearGradient id="SVGID_00000106842798148290735490000006600020457514368128_" gradientUnits="userSpaceOnUse" x1="363.6173" y1="1978.3987" x2="148.3827" y2="1605.6013" gradientTransform="matrix(1 0 0 -1 0 2048)">
	<stop  offset="1.078831e-03" style="stop-color:#333F4F"/>
	<stop  offset="1" style="stop-color:#FFFFFF"/>
</linearGradient>
<circle style="opacity:0.5;fill:none;stroke:url(#SVGID_00000106842798148290735490000006600020457514368128_);stroke-width:16;stroke-miterlimit:10;enable-background:new    ;" cx="256" cy="256" r="207.2"/>
<linearGradient id="SVGID_00000084492752881892641000000013533325514218721697_" gradientUnits="userSpaceOnUse" x1="256" y1="4550.2998" x2="256" y2="4157.7002" gradientTransform="matrix(1 0 0 -1 0 4610)">
	<stop  offset="5.392733e-04" style="stop-color:#60B2E4"/>
	<stop  offset="1" style="stop-color:#646AAF"/>
</linearGradient>
<circle style="fill:url(#SVGID_00000084492752881892641000000013533325514218721697_);stroke:#333333;stroke-miterlimit:10;" cx="256" cy="256" r="196.3"/>
<linearGradient id="SVGID_00000087404642936840555090000000372189038629475745_" gradientUnits="userSpaceOnUse" x1="256.1" y1="1595.6" x2="256.1" y2="1796.7" gradientTransform="matrix(1 0 0 -1 0 2048)">
	<stop  offset="0" style="stop-color:#FFFFFF;stop-opacity:5.000000e-02"/>
	<stop  offset="1" style="stop-color:#FFFFFF"/>
</linearGradient>
<path style="opacity:0.4;fill:url(#SVGID_00000087404642936840555090000000372189038629475745_);stroke:#333333;stroke-miterlimit:10;enable-background:new    ;" d="
	M336.3,287.5c-87.4,3.9-130.8-33.1-179.6-36.2c-38.1,1.2-79.8,19.7-96.2,27.8c11.4,97.6,94.3,173.3,194.9,173.3
	c108.4,0,196.3-87.9,196.3-196.3c0-0.5,0-0.9,0-1.4C420.9,269.9,379.5,285.5,336.3,287.5z"/>
<linearGradient id="SVGID_00000127022715593372442560000009805404388056462471_" gradientUnits="userSpaceOnUse" x1="133.6795" y1="3630.1348" x2="378.3205" y2="4053.8652" gradientTransform="matrix(1 0 0 -1 0 4610)">
	<stop  offset="0" style="stop-color:#5F6C7C"/>
	<stop  offset="1" style="stop-color:#D7D6D9"/>
</linearGradient>
<circle style="fill:url(#SVGID_00000127022715593372442560000009805404388056462471_);stroke:#676767;stroke-width:9;stroke-miterlimit:10;" cx="256" cy="768" r="244.6"/>
<linearGradient id="SVGID_00000152234489279054541020000010012703378913409174_" gradientUnits="userSpaceOnUse" x1="363.6173" y1="4028.3987" x2="148.3827" y2="3655.6013" gradientTransform="matrix(1 0 0 -1 0 4610)">
	<stop  offset="1.078831e-03" style="stop-color:#333F4F"/>
	<stop  offset="1" style="stop-color:#FFFFFF"/>
</linearGradient>
<circle style="opacity:0.5;fill:none;stroke:url(#SVGID_00000152234489279054541020000010012703378913409174_);stroke-width:16;stroke-miterlimit:10;enable-background:new    ;" cx="256" cy="768" r="207.2"/>
<linearGradient id="SVGID_00000168831633899842246250000003766480439566022283_" gradientUnits="userSpaceOnUse" x1="256" y1="4038.3" x2="256" y2="3645.7" gradientTransform="matrix(1 0 0 -1 0 4610)">
	<stop  offset="2.194295e-07" style="stop-color:#FDFC04"/>
	<stop  offset="0.9995" style="stop-color:#BC8017"/>
</linearGradient>
<circle style="fill:url(#SVGID_00000168831633899842246250000003766480439566022283_);stroke:#030304;stroke-miterlimit:10;" cx="256" cy="768" r="196.3"/>
<linearGradient id="SVGID_00000011739599933092719350000001552711519960569764_" gradientUnits="userSpaceOnUse" x1="256.1" y1="1083.6001" x2="256.1" y2="1284.7" gradientTransform="matrix(1 0 0 -1 0 2048)">
	<stop  offset="0" style="stop-color:#FFFFFF;stop-opacity:5.000000e-02"/>
	<stop  offset="1" style="stop-color:#FFFFFF"/>
</linearGradient>
<path style="opacity:0.4;fill:url(#SVGID_00000011739599933092719350000001552711519960569764_);enable-background:new    ;" d="
	M336.3,799.5c-87.4,3.9-130.8-33.1-179.6-36.2c-38.1,1.2-79.8,19.7-96.2,27.8c11.4,97.6,94.3,173.3,194.9,173.3
	c108.4,0,196.3-87.9,196.3-196.3c0-0.5,0-0.9,0-1.4C420.9,781.9,379.5,797.5,336.3,799.5z"/>
<linearGradient id="SVGID_00000109026665032795258700000009123175986160878764_" gradientUnits="userSpaceOnUse" x1="133.6795" y1="3118.1348" x2="378.3205" y2="3541.8652" gradientTransform="matrix(1 0 0 -1 0 4610)">
	<stop  offset="0" style="stop-color:#5F6C7C"/>
	<stop  offset="1" style="stop-color:#D7D6D9"/>
</linearGradient>
<circle style="fill:url(#SVGID_00000109026665032795258700000009123175986160878764_);stroke:#676767;stroke-width:9;stroke-miterlimit:10;" cx="256" cy="1280" r="244.6"/>
<linearGradient id="SVGID_00000034056854812271454560000003109360085603069830_" gradientUnits="userSpaceOnUse" x1="363.6172" y1="3516.3987" x2="148.3828" y2="3143.6013" gradientTransform="matrix(1 0 0 -1 0 4610)">
	<stop  offset="1.078831e-03" style="stop-color:#333F4F"/>
	<stop  offset="1" style="stop-color:#FFFFFF"/>
</linearGradient>
<circle style="opacity:0.5;fill:none;stroke:url(#SVGID_00000034056854812271454560000003109360085603069830_);stroke-width:16;stroke-miterlimit:10;enable-background:new    ;" cx="256" cy="1280" r="207.2"/>
<linearGradient id="SVGID_00000148649002718216272970000004597438228979267492_" gradientUnits="userSpaceOnUse" x1="256" y1="3526.3" x2="256" y2="3133.7" gradientTransform="matrix(1 0 0 -1 0 4610)">
	<stop  offset="5.391326e-04" style="stop-color:#90FE83"/>
	<stop  offset="1" style="stop-color:#399036"/>
</linearGradient>
<circle style="fill:url(#SVGID_00000148649002718216272970000004597438228979267492_);stroke:#030304;stroke-miterlimit:10;" cx="256" cy="1280" r="196.3"/>
<linearGradient id="SVGID_00000067941480447925852990000005273625062197908108_" gradientUnits="userSpaceOnUse" x1="256.1" y1="571.5999" x2="256.1" y2="772.7" gradientTransform="matrix(1 0 0 -1 0 2048)">
	<stop  offset="0" style="stop-color:#FFFFFF;stop-opacity:5.000000e-02"/>
	<stop  offset="1" style="stop-color:#FFFFFF"/>
</linearGradient>
<path style="opacity:0.4;fill:url(#SVGID_00000067941480447925852990000005273625062197908108_);enable-background:new    ;" d="
	M336.3,1311.5c-87.4,3.9-130.8-33.1-179.6-36.2c-38.1,1.2-79.8,19.7-96.2,27.8c11.4,97.6,94.3,173.3,194.9,173.3
	c108.4,0,196.3-87.9,196.3-196.3c0-0.5,0-0.9,0-1.4C420.9,1293.9,379.5,1309.5,336.3,1311.5z"/>
<linearGradient id="SVGID_00000015353831962707418930000010788443928081704866_" gradientUnits="userSpaceOnUse" x1="133.6795" y1="2606.1348" x2="378.3205" y2="3029.8652" gradientTransform="matrix(1 0 0 -1 0 4610)">
	<stop  offset="0" style="stop-color:#5F6C7C"/>
	<stop  offset="1" style="stop-color:#D7D6D9"/>
</linearGradient>
<circle style="fill:url(#SVGID_00000015353831962707418930000010788443928081704866_);stroke:#676767;stroke-width:9;stroke-miterlimit:10;" cx="256" cy="1792" r="244.6"/>
<linearGradient id="SVGID_00000105401732717035052940000006682067586304381597_" gradientUnits="userSpaceOnUse" x1="363.6172" y1="3004.3987" x2="148.3828" y2="2631.6013" gradientTransform="matrix(1 0 0 -1 0 4610)">
	<stop  offset="1.078831e-03" style="stop-color:#333F4F"/>
	<stop  offset="1" style="stop-color:#FFFFFF"/>
</linearGradient>
<circle style="opacity:0.5;fill:none;stroke:url(#SVGID_00000105401732717035052940000006682067586304381597_);stroke-width:16;stroke-miterlimit:10;enable-background:new    ;" cx="256" cy="1792" r="207.2"/>
<linearGradient id="SVGID_00000160179708833530243180000015898552751959554973_" gradientUnits="userSpaceOnUse" x1="256" y1="3014.3" x2="256" y2="2621.7" gradientTransform="matrix(1 0 0 -1 0 4610)">
	<stop  offset="0" style="stop-color:#949494"/>
	<stop  offset="1" style="stop-color:#1E1E1E"/>
</linearGradient>
<circle style="fill:url(#SVGID_00000160179708833530243180000015898552751959554973_);stroke:#333333;stroke-miterlimit:10;" cx="256" cy="1792" r="196.3"/>
<linearGradient id="SVGID_00000062872774895753105200000015933646238669910401_" gradientUnits="userSpaceOnUse" x1="256.1" y1="59.5999" x2="256.1" y2="260.7" gradientTransform="matrix(1 0 0 -1 0 2048)">
	<stop  offset="0" style="stop-color:#FFFFFF;stop-opacity:5.000000e-02"/>
	<stop  offset="1" style="stop-color:#FFFFFF"/>
</linearGradient>
<path style="opacity:0.4;fill:url(#SVGID_00000062872774895753105200000015933646238669910401_);enable-background:new    ;" d="
	M336.3,1823.5c-87.4,3.9-130.8-33.1-179.6-36.2c-38.1,1.2-79.8,19.7-96.2,27.8c11.4,97.6,94.3,173.3,194.9,173.3
	c108.4,0,196.3-87.9,196.3-196.3c0-0.5,0-0.9,0-1.4C420.9,1805.9,379.5,1821.5,336.3,1823.5z"/>
<path class="st16" d="M365.6,183h-31.8l-40.1-57H166.7v57h-20.3c-8.3,0-15,6.7-15,15v125c0,8.3,6.7,15,15,15h23v33
	c0,8.3,6.7,15,15,15h147.6c8.3,0,15-6.7,15-15v-33h18.5c8.3,0,15-6.7,15-15V198C380.6,189.8,373.9,183,365.6,183z M196.7,156h81.3
	l19,27H196.7V156z M317.1,356H199.5v-18h117.6V356z M350.6,308h-3.5v-14.9c0-8.3-6.7-15-15-15H184.5c-8.3,0-15,6.7-15,15V308h-8v-95
	h189.1V308z"/>
<path class="st16" d="M365.6,695h-31.8l-40.1-57H166.7v57h-20.3c-8.3,0-15,6.7-15,15v125c0,8.3,6.7,15,15,15h23v33
	c0,8.3,6.7,15,15,15h147.6c8.3,0,15-6.7,15-15v-33h18.5c8.3,0,15-6.7,15-15V710C380.6,701.8,373.9,695,365.6,695z M196.7,668h81.3
	l19,27H196.7V668z M317.1,868H199.5v-18h117.6V868z M350.6,820h-3.5v-14.9c0-8.3-6.7-15-15-15H184.5c-8.3,0-15,6.7-15,15V820h-8v-95
	h189.1V820z"/>
<path class="st16" d="M365.6,1207h-31.8l-40.1-57H166.7v57h-20.3c-8.3,0-15,6.7-15,15v125c0,8.3,6.7,15,15,15h23v33
	c0,8.3,6.7,15,15,15h147.6c8.3,0,15-6.7,15-15v-33h18.5c8.3,0,15-6.7,15-15v-125C380.6,1213.8,373.9,1207,365.6,1207z M196.7,1180
	h81.3l19,27H196.7V1180z M317.1,1380H199.5v-18h117.6V1380z M350.6,1332h-3.5v-14.9c0-8.3-6.7-15-15-15H184.5c-8.3,0-15,6.7-15,15
	v14.9h-8v-95h189.1V1332z"/>
<path class="st16" d="M365.6,1719h-31.8l-40.1-57H166.7v57h-20.3c-8.3,0-15,6.7-15,15v125c0,8.3,6.7,15,15,15h23v33
	c0,8.3,6.7,15,15,15h147.6c8.3,0,15-6.7,15-15v-33h18.5c8.3,0,15-6.7,15-15v-125C380.6,1725.8,373.9,1719,365.6,1719z M196.7,1692
	h81.3l19,27H196.7V1692z M317.1,1892H199.5v-18h117.6V1892z M350.6,1844h-3.5v-14.9c0-8.3-6.7-15-15-15H184.5c-8.3,0-15,6.7-15,15
	v14.9h-8v-95h189.1V1844z"/>
</svg>
