<?xml version="1.0" encoding="utf-8"?>
<!-- Generator: Adobe Illustrator 27.1.0, SVG Export Plug-In . SVG Version: 6.00 Build 0)  -->
<svg version="1.1" id="Calque_1" xmlns="http://www.w3.org/2000/svg" xmlns:xlink="http://www.w3.org/1999/xlink" x="0px" y="0px"
	 viewBox="0 0 512 2048" style="enable-background:new 0 0 512 2048;" xml:space="preserve">
<style type="text/css">
	.st0{fill:url(#SVGID_1_);stroke:#676767;stroke-width:9;stroke-miterlimit:10;}
	
		.st1{opacity:0.5;fill:none;stroke:url(#SVGID_00000183248479286306871700000002910800555089440927_);stroke-width:16;stroke-miterlimit:10;enable-background:new    ;}
	.st2{fill:url(#SVGID_00000155118938882222127470000014700780894074838460_);stroke:#333333;stroke-miterlimit:10;}
	
		.st3{opacity:0.4;fill:url(#SVGID_00000180357215332995114780000004011366495826488211_);stroke:#333333;stroke-miterlimit:10;enable-background:new    ;}
	.st4{fill:url(#SVGID_00000106869161355717818250000009193764515005854081_);stroke:#676767;stroke-width:9;stroke-miterlimit:10;}
	
		.st5{opacity:0.5;fill:none;stroke:url(#SVGID_00000144328635777428393600000005936457249568780974_);stroke-width:16;stroke-miterlimit:10;enable-background:new    ;}
	.st6{fill:url(#SVGID_00000003089031257038643300000010656375201026017702_);stroke:#030304;stroke-miterlimit:10;}
	.st7{opacity:0.4;fill:url(#SVGID_00000112605551315399851530000002110276969167594395_);enable-background:new    ;}
	.st8{fill:url(#SVGID_00000030471022759844055470000018012805026223486649_);stroke:#676767;stroke-width:9;stroke-miterlimit:10;}
	
		.st9{opacity:0.5;fill:none;stroke:url(#SVGID_00000016058282173676210050000014064445313566402215_);stroke-width:16;stroke-miterlimit:10;enable-background:new    ;}
	.st10{fill:url(#SVGID_00000054236766433014233820000001036318938585303986_);stroke:#030304;stroke-miterlimit:10;}
	.st11{opacity:0.4;fill:url(#SVGID_00000012457499214534927210000016399105609060168343_);enable-background:new    ;}
	.st12{fill:url(#SVGID_00000091734143452682975540000018441578613462918076_);stroke:#676767;stroke-width:9;stroke-miterlimit:10;}
	
		.st13{opacity:0.5;fill:none;stroke:url(#SVGID_00000093855969840248559840000006985423386121478811_);stroke-width:16;stroke-miterlimit:10;enable-background:new    ;}
	.st14{fill:url(#SVGID_00000039126080906544269520000009155475810385708689_);stroke:#333333;stroke-miterlimit:10;}
	.st15{opacity:0.4;fill:url(#SVGID_00000155862875251545356990000015135297240026776504_);enable-background:new    ;}
	.st16{opacity:0.9;fill:#FFFFFF;stroke:#333333;stroke-miterlimit:10;}
</style>
<linearGradient id="SVGID_1_" gradientUnits="userSpaceOnUse" x1="133.6796" y1="-3374.1348" x2="378.3204" y2="-3797.8652" gradientTransform="matrix(1 0 0 1 0 3842)">
	<stop  offset="0" style="stop-color:#5F6C7C"/>
	<stop  offset="1" style="stop-color:#D7D6D9"/>
</linearGradient>
<circle class="st0" cx="256" cy="256" r="244.6"/>
<linearGradient id="SVGID_00000157993630594768223760000013201212435658368384_" gradientUnits="userSpaceOnUse" x1="363.6173" y1="-1210.3987" x2="148.3827" y2="-837.6013" gradientTransform="matrix(1 0 0 1 0 1280)">
	<stop  offset="1.078831e-03" style="stop-color:#333F4F"/>
	<stop  offset="1" style="stop-color:#FFFFFF"/>
</linearGradient>
<circle style="opacity:0.5;fill:none;stroke:url(#SVGID_00000157993630594768223760000013201212435658368384_);stroke-width:16;stroke-miterlimit:10;enable-background:new    ;" cx="256" cy="256" r="207.2"/>
<linearGradient id="SVGID_00000159453702219642921790000016514629391421007268_" gradientUnits="userSpaceOnUse" x1="256" y1="-3782.3" x2="256" y2="-3389.7" gradientTransform="matrix(1 0 0 1 0 3842)">
	<stop  offset="5.392733e-04" style="stop-color:#60B2E4"/>
	<stop  offset="1" style="stop-color:#646AAF"/>
</linearGradient>
<circle style="fill:url(#SVGID_00000159453702219642921790000016514629391421007268_);stroke:#333333;stroke-miterlimit:10;" cx="256" cy="256" r="196.3"/>
<linearGradient id="SVGID_00000164507778732915271530000011708162576911100074_" gradientUnits="userSpaceOnUse" x1="256.1" y1="-827.6" x2="256.1" y2="-1028.7" gradientTransform="matrix(1 0 0 1 0 1280)">
	<stop  offset="0" style="stop-color:#FFFFFF;stop-opacity:5.000000e-02"/>
	<stop  offset="1" style="stop-color:#FFFFFF"/>
</linearGradient>
<path style="opacity:0.4;fill:url(#SVGID_00000164507778732915271530000011708162576911100074_);stroke:#333333;stroke-miterlimit:10;enable-background:new    ;" d="
	M336.3,287.5c-87.4,3.9-130.8-33.1-179.6-36.2c-38.1,1.2-79.8,19.7-96.2,27.8c11.4,97.6,94.3,173.3,194.9,173.3
	c108.4,0,196.3-87.9,196.3-196.3c0-0.5,0-0.9,0-1.4C420.9,269.9,379.5,285.5,336.3,287.5z"/>
<linearGradient id="SVGID_00000131332493614292754980000009091384856539783303_" gradientUnits="userSpaceOnUse" x1="133.6796" y1="-2862.1348" x2="378.3204" y2="-3285.8652" gradientTransform="matrix(1 0 0 1 0 3842)">
	<stop  offset="0" style="stop-color:#5F6C7C"/>
	<stop  offset="1" style="stop-color:#D7D6D9"/>
</linearGradient>
<circle style="fill:url(#SVGID_00000131332493614292754980000009091384856539783303_);stroke:#676767;stroke-width:9;stroke-miterlimit:10;" cx="256" cy="768" r="244.6"/>
<linearGradient id="SVGID_00000145771394827643402240000007787507313753915278_" gradientUnits="userSpaceOnUse" x1="363.6173" y1="-3260.3987" x2="148.3827" y2="-2887.6013" gradientTransform="matrix(1 0 0 1 0 3842)">
	<stop  offset="1.078831e-03" style="stop-color:#333F4F"/>
	<stop  offset="1" style="stop-color:#FFFFFF"/>
</linearGradient>
<circle style="opacity:0.5;fill:none;stroke:url(#SVGID_00000145771394827643402240000007787507313753915278_);stroke-width:16;stroke-miterlimit:10;enable-background:new    ;" cx="256" cy="768" r="207.2"/>
<linearGradient id="SVGID_00000109017977187186821900000012886721023298573452_" gradientUnits="userSpaceOnUse" x1="256" y1="-3270.3" x2="256" y2="-2877.7" gradientTransform="matrix(1 0 0 1 0 3842)">
	<stop  offset="2.194295e-07" style="stop-color:#FDFC04"/>
	<stop  offset="0.9995" style="stop-color:#BC8017"/>
</linearGradient>
<circle style="fill:url(#SVGID_00000109017977187186821900000012886721023298573452_);stroke:#030304;stroke-miterlimit:10;" cx="256" cy="768" r="196.3"/>
<linearGradient id="SVGID_00000001634813900562962140000003660563772377457068_" gradientUnits="userSpaceOnUse" x1="256.1" y1="-315.6" x2="256.1" y2="-516.7" gradientTransform="matrix(1 0 0 1 0 1280)">
	<stop  offset="0" style="stop-color:#FFFFFF;stop-opacity:5.000000e-02"/>
	<stop  offset="1" style="stop-color:#FFFFFF"/>
</linearGradient>
<path style="opacity:0.4;fill:url(#SVGID_00000001634813900562962140000003660563772377457068_);enable-background:new    ;" d="
	M336.3,799.5c-87.4,3.9-130.8-33.1-179.6-36.2c-38.1,1.2-79.8,19.7-96.2,27.8c11.4,97.6,94.3,173.3,194.9,173.3
	c108.4,0,196.3-87.9,196.3-196.3c0-0.5,0-0.9,0-1.4C420.9,781.9,379.5,797.5,336.3,799.5z"/>
<linearGradient id="SVGID_00000105412299415166239550000017188551710015691666_" gradientUnits="userSpaceOnUse" x1="133.6796" y1="-2350.1348" x2="378.3204" y2="-2773.8652" gradientTransform="matrix(1 0 0 1 0 3842)">
	<stop  offset="0" style="stop-color:#5F6C7C"/>
	<stop  offset="1" style="stop-color:#D7D6D9"/>
</linearGradient>
<circle style="fill:url(#SVGID_00000105412299415166239550000017188551710015691666_);stroke:#676767;stroke-width:9;stroke-miterlimit:10;" cx="256" cy="1280" r="244.6"/>
<linearGradient id="SVGID_00000067951034055910141750000003234879414955309982_" gradientUnits="userSpaceOnUse" x1="363.6172" y1="-2748.3987" x2="148.3828" y2="-2375.6013" gradientTransform="matrix(1 0 0 1 0 3842)">
	<stop  offset="1.078831e-03" style="stop-color:#333F4F"/>
	<stop  offset="1" style="stop-color:#FFFFFF"/>
</linearGradient>
<circle style="opacity:0.5;fill:none;stroke:url(#SVGID_00000067951034055910141750000003234879414955309982_);stroke-width:16;stroke-miterlimit:10;enable-background:new    ;" cx="256" cy="1280" r="207.2"/>
<linearGradient id="SVGID_00000092413965896665391480000014742454504884157077_" gradientUnits="userSpaceOnUse" x1="256" y1="-2758.3" x2="256" y2="-2365.7" gradientTransform="matrix(1 0 0 1 0 3842)">
	<stop  offset="5.391326e-04" style="stop-color:#90FE83"/>
	<stop  offset="1" style="stop-color:#399036"/>
</linearGradient>
<circle style="fill:url(#SVGID_00000092413965896665391480000014742454504884157077_);stroke:#030304;stroke-miterlimit:10;" cx="256" cy="1280" r="196.3"/>
<linearGradient id="SVGID_00000183971369851348181690000000477902849870044817_" gradientUnits="userSpaceOnUse" x1="256.1" y1="196.4001" x2="256.1" y2="-4.7" gradientTransform="matrix(1 0 0 1 0 1280)">
	<stop  offset="0" style="stop-color:#FFFFFF;stop-opacity:5.000000e-02"/>
	<stop  offset="1" style="stop-color:#FFFFFF"/>
</linearGradient>
<path style="opacity:0.4;fill:url(#SVGID_00000183971369851348181690000000477902849870044817_);enable-background:new    ;" d="
	M336.3,1311.5c-87.4,3.9-130.8-33.1-179.6-36.2c-38.1,1.2-79.8,19.7-96.2,27.8c11.4,97.6,94.3,173.3,194.9,173.3
	c108.4,0,196.3-87.9,196.3-196.3c0-0.5,0-0.9,0-1.4C420.9,1293.9,379.5,1309.5,336.3,1311.5z"/>
<linearGradient id="SVGID_00000005973228188050279310000002067698552230185911_" gradientUnits="userSpaceOnUse" x1="133.6796" y1="-1838.1349" x2="378.3204" y2="-2261.8652" gradientTransform="matrix(1 0 0 1 0 3842)">
	<stop  offset="0" style="stop-color:#5F6C7C"/>
	<stop  offset="1" style="stop-color:#D7D6D9"/>
</linearGradient>
<circle style="fill:url(#SVGID_00000005973228188050279310000002067698552230185911_);stroke:#676767;stroke-width:9;stroke-miterlimit:10;" cx="256" cy="1792" r="244.6"/>
<linearGradient id="SVGID_00000137849419414508324960000003447693892085381249_" gradientUnits="userSpaceOnUse" x1="363.6172" y1="-2236.3987" x2="148.3828" y2="-1863.6013" gradientTransform="matrix(1 0 0 1 0 3842)">
	<stop  offset="1.078831e-03" style="stop-color:#333F4F"/>
	<stop  offset="1" style="stop-color:#FFFFFF"/>
</linearGradient>
<circle style="opacity:0.5;fill:none;stroke:url(#SVGID_00000137849419414508324960000003447693892085381249_);stroke-width:16;stroke-miterlimit:10;enable-background:new    ;" cx="256" cy="1792" r="207.2"/>
<linearGradient id="SVGID_00000014623023049757063420000013090271387361782204_" gradientUnits="userSpaceOnUse" x1="256" y1="-2246.3" x2="256" y2="-1853.7" gradientTransform="matrix(1 0 0 1 0 3842)">
	<stop  offset="0" style="stop-color:#949494"/>
	<stop  offset="1" style="stop-color:#1E1E1E"/>
</linearGradient>
<circle style="fill:url(#SVGID_00000014623023049757063420000013090271387361782204_);stroke:#333333;stroke-miterlimit:10;" cx="256" cy="1792" r="196.3"/>
<linearGradient id="SVGID_00000082339143363044767030000018239873538359113364_" gradientUnits="userSpaceOnUse" x1="256.1" y1="708.4001" x2="256.1" y2="507.3" gradientTransform="matrix(1 0 0 1 0 1280)">
	<stop  offset="0" style="stop-color:#FFFFFF;stop-opacity:5.000000e-02"/>
	<stop  offset="1" style="stop-color:#FFFFFF"/>
</linearGradient>
<path style="opacity:0.4;fill:url(#SVGID_00000082339143363044767030000018239873538359113364_);enable-background:new    ;" d="
	M336.3,1823.5c-87.4,3.9-130.8-33.1-179.6-36.2c-38.1,1.2-79.8,19.7-96.2,27.8c11.4,97.6,94.3,173.3,194.9,173.3
	c108.4,0,196.3-87.9,196.3-196.3c0-0.5,0-0.9,0-1.4C420.9,1805.9,379.5,1821.5,336.3,1823.5z"/>
<path class="st16" d="M141,371h230V141L141,371z M331.4,342.4H218.6l112.7-112.7V342.4z"/>
<path class="st16" d="M141,883h230V653L141,883z M331.4,854.4H218.6l112.7-112.7V854.4z"/>
<path class="st16" d="M141,1395h230v-230L141,1395z M331.4,1366.4H218.6l112.7-112.7V1366.4z"/>
<path class="st16" d="M141,1907h230v-230L141,1907z M331.4,1878.4H218.6l112.7-112.7V1878.4z"/>
</svg>
