<?xml version="1.0" encoding="utf-8"?>
<!-- Generator: Adobe Illustrator 27.1.0, SVG Export Plug-In . SVG Version: 6.00 Build 0)  -->
<svg version="1.1" id="Calque_1" xmlns="http://www.w3.org/2000/svg" xmlns:xlink="http://www.w3.org/1999/xlink" x="0px" y="0px"
	 viewBox="0 0 512 2048" style="enable-background:new 0 0 512 2048;" xml:space="preserve">
<style type="text/css">
	.st0{fill:url(#SVGID_1_);stroke:#676767;stroke-width:9;stroke-miterlimit:10;}
	
		.st1{opacity:0.5;fill:none;stroke:url(#SVGID_00000013910573929960056790000011639095629302067607_);stroke-width:16;stroke-miterlimit:10;enable-background:new    ;}
	.st2{fill:url(#SVGID_00000032622762344704369590000016058812910394720932_);stroke:#333333;stroke-miterlimit:10;}
	
		.st3{opacity:0.4;fill:url(#SVGID_00000183248897994898833940000008479983566799203970_);stroke:#333333;stroke-miterlimit:10;enable-background:new    ;}
	.st4{fill:url(#SVGID_00000013160782189860274870000016828552234440234939_);stroke:#676767;stroke-width:9;stroke-miterlimit:10;}
	
		.st5{opacity:0.5;fill:none;stroke:url(#SVGID_00000155109723781431389770000003575615242299500988_);stroke-width:16;stroke-miterlimit:10;enable-background:new    ;}
	.st6{fill:url(#SVGID_00000151510126648997572710000010664198628354309271_);stroke:#030304;stroke-miterlimit:10;}
	.st7{opacity:0.4;fill:url(#SVGID_00000142872157009195492650000000262819952670089092_);enable-background:new    ;}
	.st8{fill:url(#SVGID_00000067214105468959225800000003769084517758674851_);stroke:#676767;stroke-width:9;stroke-miterlimit:10;}
	
		.st9{opacity:0.5;fill:none;stroke:url(#SVGID_00000125562044154556755380000016183824257935318425_);stroke-width:16;stroke-miterlimit:10;enable-background:new    ;}
	.st10{fill:url(#SVGID_00000091728178452548240250000002840411061920862872_);stroke:#030304;stroke-miterlimit:10;}
	.st11{opacity:0.4;fill:url(#SVGID_00000140729929225396555700000012448703145742924454_);enable-background:new    ;}
	.st12{fill:url(#SVGID_00000111881037070943583710000003080746515776685717_);stroke:#676767;stroke-width:9;stroke-miterlimit:10;}
	
		.st13{opacity:0.5;fill:none;stroke:url(#SVGID_00000066516831485692799740000015158506742553047686_);stroke-width:16;stroke-miterlimit:10;enable-background:new    ;}
	.st14{fill:url(#SVGID_00000065762695741301652640000004343979807252553887_);stroke:#333333;stroke-miterlimit:10;}
	.st15{opacity:0.4;fill:url(#SVGID_00000107561516490214788830000011404170592969868954_);enable-background:new    ;}
	.st16{opacity:0.9;enable-background:new    ;}
	.st17{fill:#FFFFFF;stroke:#333333;stroke-miterlimit:10;}
</style>
<linearGradient id="SVGID_1_" gradientUnits="userSpaceOnUse" x1="133.6796" y1="-2094.1348" x2="378.3204" y2="-2517.8652" gradientTransform="matrix(1 0 0 1 0 2562)">
	<stop  offset="0" style="stop-color:#5F6C7C"/>
	<stop  offset="1" style="stop-color:#D7D6D9"/>
</linearGradient>
<circle class="st0" cx="256" cy="256" r="244.6"/>
<linearGradient id="SVGID_00000146461735899403014110000004644171335870850750_" gradientUnits="userSpaceOnUse" x1="363.6173" y1="69.6014" x2="148.3827" y2="442.3987">
	<stop  offset="1.078831e-03" style="stop-color:#333F4F"/>
	<stop  offset="1" style="stop-color:#FFFFFF"/>
</linearGradient>
<circle style="opacity:0.5;fill:none;stroke:url(#SVGID_00000146461735899403014110000004644171335870850750_);stroke-width:16;stroke-miterlimit:10;enable-background:new    ;" cx="256" cy="256" r="207.2"/>
<linearGradient id="SVGID_00000177442342268576111170000010689749353990795698_" gradientUnits="userSpaceOnUse" x1="256" y1="-2502.3" x2="256" y2="-2109.7" gradientTransform="matrix(1 0 0 1 0 2562)">
	<stop  offset="5.392733e-04" style="stop-color:#60B2E4"/>
	<stop  offset="1" style="stop-color:#646AAF"/>
</linearGradient>
<circle style="fill:url(#SVGID_00000177442342268576111170000010689749353990795698_);stroke:#333333;stroke-miterlimit:10;" cx="256" cy="256" r="196.3"/>
<linearGradient id="SVGID_00000122715823240718561870000005904236830997750699_" gradientUnits="userSpaceOnUse" x1="256.1" y1="452.4" x2="256.1" y2="251.3">
	<stop  offset="0" style="stop-color:#FFFFFF;stop-opacity:5.000000e-02"/>
	<stop  offset="1" style="stop-color:#FFFFFF"/>
</linearGradient>
<path style="opacity:0.4;fill:url(#SVGID_00000122715823240718561870000005904236830997750699_);stroke:#333333;stroke-miterlimit:10;enable-background:new    ;" d="
	M336.3,287.5c-87.4,3.9-130.8-33.1-179.6-36.2c-38.1,1.2-79.8,19.7-96.2,27.8c11.4,97.6,94.3,173.3,194.9,173.3
	c108.4,0,196.3-87.9,196.3-196.3c0-0.5,0-0.9,0-1.4C420.9,269.9,379.5,285.5,336.3,287.5z"/>
<linearGradient id="SVGID_00000147196612932352951600000008499632035444318855_" gradientUnits="userSpaceOnUse" x1="133.6796" y1="-1582.1349" x2="378.3204" y2="-2005.8651" gradientTransform="matrix(1 0 0 1 0 2562)">
	<stop  offset="0" style="stop-color:#5F6C7C"/>
	<stop  offset="1" style="stop-color:#D7D6D9"/>
</linearGradient>
<circle style="fill:url(#SVGID_00000147196612932352951600000008499632035444318855_);stroke:#676767;stroke-width:9;stroke-miterlimit:10;" cx="256" cy="768" r="244.6"/>
<linearGradient id="SVGID_00000060752909105522527230000003585065927589239960_" gradientUnits="userSpaceOnUse" x1="363.6173" y1="-1980.3987" x2="148.3827" y2="-1607.6013" gradientTransform="matrix(1 0 0 1 0 2562)">
	<stop  offset="1.078831e-03" style="stop-color:#333F4F"/>
	<stop  offset="1" style="stop-color:#FFFFFF"/>
</linearGradient>
<circle style="opacity:0.5;fill:none;stroke:url(#SVGID_00000060752909105522527230000003585065927589239960_);stroke-width:16;stroke-miterlimit:10;enable-background:new    ;" cx="256" cy="768" r="207.2"/>
<linearGradient id="SVGID_00000160177230384527017010000017933858251172080777_" gradientUnits="userSpaceOnUse" x1="256" y1="-1990.3" x2="256" y2="-1597.7" gradientTransform="matrix(1 0 0 1 0 2562)">
	<stop  offset="2.194295e-07" style="stop-color:#FDFC04"/>
	<stop  offset="0.9995" style="stop-color:#BC8017"/>
</linearGradient>
<circle style="fill:url(#SVGID_00000160177230384527017010000017933858251172080777_);stroke:#030304;stroke-miterlimit:10;" cx="256" cy="768" r="196.3"/>
<linearGradient id="SVGID_00000181047328938430088800000005680301174534383017_" gradientUnits="userSpaceOnUse" x1="256.1" y1="964.4" x2="256.1" y2="763.3">
	<stop  offset="0" style="stop-color:#FFFFFF;stop-opacity:5.000000e-02"/>
	<stop  offset="1" style="stop-color:#FFFFFF"/>
</linearGradient>
<path style="opacity:0.4;fill:url(#SVGID_00000181047328938430088800000005680301174534383017_);enable-background:new    ;" d="
	M336.3,799.5c-87.4,3.9-130.8-33.1-179.6-36.2c-38.1,1.2-79.8,19.7-96.2,27.8c11.4,97.6,94.3,173.3,194.9,173.3
	c108.4,0,196.3-87.9,196.3-196.3c0-0.5,0-0.9,0-1.4C420.9,781.9,379.5,797.5,336.3,799.5z"/>
<linearGradient id="SVGID_00000098210368910517172100000008053033324742250671_" gradientUnits="userSpaceOnUse" x1="133.6796" y1="-1070.1349" x2="378.3204" y2="-1493.8651" gradientTransform="matrix(1 0 0 1 0 2562)">
	<stop  offset="0" style="stop-color:#5F6C7C"/>
	<stop  offset="1" style="stop-color:#D7D6D9"/>
</linearGradient>
<circle style="fill:url(#SVGID_00000098210368910517172100000008053033324742250671_);stroke:#676767;stroke-width:9;stroke-miterlimit:10;" cx="256" cy="1280" r="244.6"/>
<linearGradient id="SVGID_00000126325125068151794300000008532188861228380292_" gradientUnits="userSpaceOnUse" x1="363.6172" y1="-1468.3987" x2="148.3828" y2="-1095.6013" gradientTransform="matrix(1 0 0 1 0 2562)">
	<stop  offset="1.078831e-03" style="stop-color:#333F4F"/>
	<stop  offset="1" style="stop-color:#FFFFFF"/>
</linearGradient>
<circle style="opacity:0.5;fill:none;stroke:url(#SVGID_00000126325125068151794300000008532188861228380292_);stroke-width:16;stroke-miterlimit:10;enable-background:new    ;" cx="256" cy="1280" r="207.2"/>
<linearGradient id="SVGID_00000090270870308083369260000005772317987432449409_" gradientUnits="userSpaceOnUse" x1="256" y1="-1478.3" x2="256" y2="-1085.7" gradientTransform="matrix(1 0 0 1 0 2562)">
	<stop  offset="5.391326e-04" style="stop-color:#90FE83"/>
	<stop  offset="1" style="stop-color:#399036"/>
</linearGradient>
<circle style="fill:url(#SVGID_00000090270870308083369260000005772317987432449409_);stroke:#030304;stroke-miterlimit:10;" cx="256" cy="1280" r="196.3"/>
<linearGradient id="SVGID_00000080889319162721715490000006095361109039201933_" gradientUnits="userSpaceOnUse" x1="256.1" y1="1476.4001" x2="256.1" y2="1275.3">
	<stop  offset="0" style="stop-color:#FFFFFF;stop-opacity:5.000000e-02"/>
	<stop  offset="1" style="stop-color:#FFFFFF"/>
</linearGradient>
<path style="opacity:0.4;fill:url(#SVGID_00000080889319162721715490000006095361109039201933_);enable-background:new    ;" d="
	M336.3,1311.5c-87.4,3.9-130.8-33.1-179.6-36.2c-38.1,1.2-79.8,19.7-96.2,27.8c11.4,97.6,94.3,173.3,194.9,173.3
	c108.4,0,196.3-87.9,196.3-196.3c0-0.5,0-0.9,0-1.4C420.9,1293.9,379.5,1309.5,336.3,1311.5z"/>
<linearGradient id="SVGID_00000064312724523059758060000017005773073592901250_" gradientUnits="userSpaceOnUse" x1="133.6796" y1="-558.1348" x2="378.3204" y2="-981.8652" gradientTransform="matrix(1 0 0 1 0 2562)">
	<stop  offset="0" style="stop-color:#5F6C7C"/>
	<stop  offset="1" style="stop-color:#D7D6D9"/>
</linearGradient>
<circle style="fill:url(#SVGID_00000064312724523059758060000017005773073592901250_);stroke:#676767;stroke-width:9;stroke-miterlimit:10;" cx="256" cy="1792" r="244.6"/>
<linearGradient id="SVGID_00000158008225757279990010000009162034405640512676_" gradientUnits="userSpaceOnUse" x1="363.6172" y1="-956.3986" x2="148.3828" y2="-583.6013" gradientTransform="matrix(1 0 0 1 0 2562)">
	<stop  offset="1.078831e-03" style="stop-color:#333F4F"/>
	<stop  offset="1" style="stop-color:#FFFFFF"/>
</linearGradient>
<circle style="opacity:0.5;fill:none;stroke:url(#SVGID_00000158008225757279990010000009162034405640512676_);stroke-width:16;stroke-miterlimit:10;enable-background:new    ;" cx="256" cy="1792" r="207.2"/>
<linearGradient id="SVGID_00000018225577771347345340000013504870940798504871_" gradientUnits="userSpaceOnUse" x1="256" y1="-966.3" x2="256" y2="-573.7" gradientTransform="matrix(1 0 0 1 0 2562)">
	<stop  offset="0" style="stop-color:#949494"/>
	<stop  offset="1" style="stop-color:#1E1E1E"/>
</linearGradient>
<circle style="fill:url(#SVGID_00000018225577771347345340000013504870940798504871_);stroke:#333333;stroke-miterlimit:10;" cx="256" cy="1792" r="196.3"/>
<linearGradient id="SVGID_00000012450477643984153520000000520070231394368134_" gradientUnits="userSpaceOnUse" x1="256.1" y1="1988.4001" x2="256.1" y2="1787.3">
	<stop  offset="0" style="stop-color:#FFFFFF;stop-opacity:5.000000e-02"/>
	<stop  offset="1" style="stop-color:#FFFFFF"/>
</linearGradient>
<path style="opacity:0.4;fill:url(#SVGID_00000012450477643984153520000000520070231394368134_);enable-background:new    ;" d="
	M336.3,1823.5c-87.4,3.9-130.8-33.1-179.6-36.2c-38.1,1.2-79.8,19.7-96.2,27.8c11.4,97.6,94.3,173.3,194.9,173.3
	c108.4,0,196.3-87.9,196.3-196.3c0-0.5,0-0.9,0-1.4C420.9,1805.9,379.5,1821.5,336.3,1823.5z"/>
<g class="st16">
	<polygon class="st17" points="222.9,239.1 289.1,239.1 289.1,191.7 314.7,191.7 256,140.9 197.3,191.7 222.9,191.7 	"/>
	<polygon class="st17" points="289.1,272.9 222.9,272.9 222.9,320.2 197.3,320.2 256,371 314.7,320.2 289.1,320.2 	"/>
</g>
<g class="st16">
	<polygon class="st17" points="222.9,751.1 289.1,751.1 289.1,703.8 314.7,703.8 256,653 197.3,703.8 222.9,703.8 	"/>
	<polygon class="st17" points="289.1,784.9 222.9,784.9 222.9,832.3 197.3,832.3 256,883 314.7,832.3 289.1,832.3 	"/>
</g>
<g class="st16">
	<polygon class="st17" points="222.9,1263.1 289.1,1263.1 289.1,1215.8 314.7,1215.8 256,1165 197.3,1215.8 222.9,1215.8 	"/>
	<polygon class="st17" points="289.1,1296.9 222.9,1296.9 222.9,1344.3 197.3,1344.3 256,1395 314.7,1344.3 289.1,1344.3 	"/>
</g>
<g class="st16">
	<polygon class="st17" points="222.9,1775.1 289.1,1775.1 289.1,1727.8 314.7,1727.8 256,1677 197.3,1727.8 222.9,1727.8 	"/>
	<polygon class="st17" points="289.1,1808.9 222.9,1808.9 222.9,1856.2 197.3,1856.2 256,1907 314.7,1856.2 289.1,1856.2 	"/>
</g>
</svg>
