<?xml version="1.0" encoding="utf-8"?>
<!-- Generator: Adobe Illustrator 27.1.0, SVG Export Plug-In . SVG Version: 6.00 Build 0)  -->
<svg version="1.1" id="Calque_1" xmlns="http://www.w3.org/2000/svg" xmlns:xlink="http://www.w3.org/1999/xlink" x="0px" y="0px"
	 viewBox="0 0 512 2048" style="enable-background:new 0 0 512 2048;" xml:space="preserve">
<style type="text/css">
	.st0{fill:url(#SVGID_1_);stroke:#676767;stroke-width:9;stroke-miterlimit:10;}
	
		.st1{opacity:0.5;fill:none;stroke:url(#SVGID_00000146463011207100853220000008643654501018856620_);stroke-width:16;stroke-miterlimit:10;enable-background:new    ;}
	.st2{fill:url(#SVGID_00000172427682233614418720000001302396404633003150_);stroke:#333333;stroke-miterlimit:10;}
	
		.st3{opacity:0.4;fill:url(#SVGID_00000136408398418229173460000005226676150092751493_);stroke:#333333;stroke-miterlimit:10;enable-background:new    ;}
	.st4{fill:url(#SVGID_00000126308259717387415260000005607598981404365959_);stroke:#676767;stroke-width:9;stroke-miterlimit:10;}
	
		.st5{opacity:0.5;fill:none;stroke:url(#SVGID_00000010301058964126603700000005159647103030669993_);stroke-width:16;stroke-miterlimit:10;enable-background:new    ;}
	.st6{fill:url(#SVGID_00000012443786435952565510000016978609365288161165_);stroke:#030304;stroke-miterlimit:10;}
	.st7{opacity:0.4;fill:url(#SVGID_00000049201322304776180960000001466869953895298186_);enable-background:new    ;}
	.st8{fill:url(#SVGID_00000183955938364609405310000014963933324272686223_);stroke:#676767;stroke-width:9;stroke-miterlimit:10;}
	
		.st9{opacity:0.5;fill:none;stroke:url(#SVGID_00000076576666352347194310000013964436723540155802_);stroke-width:16;stroke-miterlimit:10;enable-background:new    ;}
	.st10{fill:url(#SVGID_00000024705491819961077790000017295351786065422989_);stroke:#030304;stroke-miterlimit:10;}
	.st11{opacity:0.4;fill:url(#SVGID_00000136413030954594509980000000818015343241063812_);enable-background:new    ;}
	.st12{fill:url(#SVGID_00000088127297016245282410000006828393324377242556_);stroke:#676767;stroke-width:9;stroke-miterlimit:10;}
	
		.st13{opacity:0.5;fill:none;stroke:url(#SVGID_00000063628148371884871900000003375611569413304762_);stroke-width:16;stroke-miterlimit:10;enable-background:new    ;}
	.st14{fill:url(#SVGID_00000161601514276964289580000004118696780529388169_);stroke:#333333;stroke-miterlimit:10;}
	.st15{opacity:0.4;fill:url(#SVGID_00000171000340524602391990000011878026790063459761_);enable-background:new    ;}
	.st16{fill:none;}
	.st17{opacity:0.9;}
	.st18{fill:#FFFFFF;stroke:#333333;stroke-miterlimit:10;}
</style>
<linearGradient id="SVGID_1_" gradientUnits="userSpaceOnUse" x1="133.6796" y1="-2094.1348" x2="378.3204" y2="-2517.8652" gradientTransform="matrix(1 0 0 1 0 2562)">
	<stop  offset="0" style="stop-color:#5F6C7C"/>
	<stop  offset="1" style="stop-color:#D7D6D9"/>
</linearGradient>
<circle class="st0" cx="256" cy="256" r="244.6"/>
<linearGradient id="SVGID_00000130642738082006181110000007714180494023691950_" gradientUnits="userSpaceOnUse" x1="363.6173" y1="69.6014" x2="148.3827" y2="442.3987">
	<stop  offset="1.078831e-03" style="stop-color:#333F4F"/>
	<stop  offset="1" style="stop-color:#FFFFFF"/>
</linearGradient>
<circle style="opacity:0.5;fill:none;stroke:url(#SVGID_00000130642738082006181110000007714180494023691950_);stroke-width:16;stroke-miterlimit:10;enable-background:new    ;" cx="256" cy="256" r="207.2"/>
<linearGradient id="SVGID_00000010298800881881451250000011997591068152309916_" gradientUnits="userSpaceOnUse" x1="256" y1="-2502.3" x2="256" y2="-2109.7" gradientTransform="matrix(1 0 0 1 0 2562)">
	<stop  offset="5.392733e-04" style="stop-color:#60B2E4"/>
	<stop  offset="1" style="stop-color:#646AAF"/>
</linearGradient>
<circle style="fill:url(#SVGID_00000010298800881881451250000011997591068152309916_);stroke:#333333;stroke-miterlimit:10;" cx="256" cy="256" r="196.3"/>
<linearGradient id="SVGID_00000124882215143360100110000005890294725299208340_" gradientUnits="userSpaceOnUse" x1="256.1" y1="452.4" x2="256.1" y2="251.3">
	<stop  offset="0" style="stop-color:#FFFFFF;stop-opacity:5.000000e-02"/>
	<stop  offset="1" style="stop-color:#FFFFFF"/>
</linearGradient>
<path style="opacity:0.4;fill:url(#SVGID_00000124882215143360100110000005890294725299208340_);stroke:#333333;stroke-miterlimit:10;enable-background:new    ;" d="
	M336.3,287.5c-87.4,3.9-130.8-33.1-179.6-36.2c-38.1,1.2-79.8,19.7-96.2,27.8c11.4,97.6,94.3,173.3,194.9,173.3
	c108.4,0,196.3-87.9,196.3-196.3c0-0.5,0-0.9,0-1.4C420.9,269.9,379.5,285.5,336.3,287.5z"/>
<linearGradient id="SVGID_00000149384030709653089320000004327481452064073141_" gradientUnits="userSpaceOnUse" x1="133.6796" y1="-1582.1349" x2="378.3204" y2="-2005.8651" gradientTransform="matrix(1 0 0 1 0 2562)">
	<stop  offset="0" style="stop-color:#5F6C7C"/>
	<stop  offset="1" style="stop-color:#D7D6D9"/>
</linearGradient>
<circle style="fill:url(#SVGID_00000149384030709653089320000004327481452064073141_);stroke:#676767;stroke-width:9;stroke-miterlimit:10;" cx="256" cy="768" r="244.6"/>
<linearGradient id="SVGID_00000163037259620008719250000003542516065466736788_" gradientUnits="userSpaceOnUse" x1="363.6173" y1="-1980.3987" x2="148.3827" y2="-1607.6013" gradientTransform="matrix(1 0 0 1 0 2562)">
	<stop  offset="1.078831e-03" style="stop-color:#333F4F"/>
	<stop  offset="1" style="stop-color:#FFFFFF"/>
</linearGradient>
<circle style="opacity:0.5;fill:none;stroke:url(#SVGID_00000163037259620008719250000003542516065466736788_);stroke-width:16;stroke-miterlimit:10;enable-background:new    ;" cx="256" cy="768" r="207.2"/>
<linearGradient id="SVGID_00000014605470840549101340000014915469409605129870_" gradientUnits="userSpaceOnUse" x1="256" y1="-1990.3" x2="256" y2="-1597.7" gradientTransform="matrix(1 0 0 1 0 2562)">
	<stop  offset="2.194295e-07" style="stop-color:#FDFC04"/>
	<stop  offset="0.9995" style="stop-color:#BC8017"/>
</linearGradient>
<circle style="fill:url(#SVGID_00000014605470840549101340000014915469409605129870_);stroke:#030304;stroke-miterlimit:10;" cx="256" cy="768" r="196.3"/>
<linearGradient id="SVGID_00000011717293041750080420000017858557595340627086_" gradientUnits="userSpaceOnUse" x1="256.1" y1="964.4" x2="256.1" y2="763.3">
	<stop  offset="0" style="stop-color:#FFFFFF;stop-opacity:5.000000e-02"/>
	<stop  offset="1" style="stop-color:#FFFFFF"/>
</linearGradient>
<path style="opacity:0.4;fill:url(#SVGID_00000011717293041750080420000017858557595340627086_);enable-background:new    ;" d="
	M336.3,799.5c-87.4,3.9-130.8-33.1-179.6-36.2c-38.1,1.2-79.8,19.7-96.2,27.8c11.4,97.6,94.3,173.3,194.9,173.3
	c108.4,0,196.3-87.9,196.3-196.3c0-0.5,0-0.9,0-1.4C420.9,781.9,379.5,797.5,336.3,799.5z"/>
<linearGradient id="SVGID_00000087404154327364840120000014135056990716916387_" gradientUnits="userSpaceOnUse" x1="133.6796" y1="-1070.1349" x2="378.3204" y2="-1493.8651" gradientTransform="matrix(1 0 0 1 0 2562)">
	<stop  offset="0" style="stop-color:#5F6C7C"/>
	<stop  offset="1" style="stop-color:#D7D6D9"/>
</linearGradient>
<circle style="fill:url(#SVGID_00000087404154327364840120000014135056990716916387_);stroke:#676767;stroke-width:9;stroke-miterlimit:10;" cx="256" cy="1280" r="244.6"/>
<linearGradient id="SVGID_00000060013362848200519700000018016690229776346034_" gradientUnits="userSpaceOnUse" x1="363.6172" y1="-1468.3987" x2="148.3828" y2="-1095.6013" gradientTransform="matrix(1 0 0 1 0 2562)">
	<stop  offset="1.078831e-03" style="stop-color:#333F4F"/>
	<stop  offset="1" style="stop-color:#FFFFFF"/>
</linearGradient>
<circle style="opacity:0.5;fill:none;stroke:url(#SVGID_00000060013362848200519700000018016690229776346034_);stroke-width:16;stroke-miterlimit:10;enable-background:new    ;" cx="256" cy="1280" r="207.2"/>
<linearGradient id="SVGID_00000056413309861913113320000003732624053912842159_" gradientUnits="userSpaceOnUse" x1="256" y1="-1478.3" x2="256" y2="-1085.7" gradientTransform="matrix(1 0 0 1 0 2562)">
	<stop  offset="5.391326e-04" style="stop-color:#90FE83"/>
	<stop  offset="1" style="stop-color:#399036"/>
</linearGradient>
<circle style="fill:url(#SVGID_00000056413309861913113320000003732624053912842159_);stroke:#030304;stroke-miterlimit:10;" cx="256" cy="1280" r="196.3"/>
<linearGradient id="SVGID_00000165912978458161604020000003119265974332604578_" gradientUnits="userSpaceOnUse" x1="256.1" y1="1476.4001" x2="256.1" y2="1275.3">
	<stop  offset="0" style="stop-color:#FFFFFF;stop-opacity:5.000000e-02"/>
	<stop  offset="1" style="stop-color:#FFFFFF"/>
</linearGradient>
<path style="opacity:0.4;fill:url(#SVGID_00000165912978458161604020000003119265974332604578_);enable-background:new    ;" d="
	M336.3,1311.5c-87.4,3.9-130.8-33.1-179.6-36.2c-38.1,1.2-79.8,19.7-96.2,27.8c11.4,97.6,94.3,173.3,194.9,173.3
	c108.4,0,196.3-87.9,196.3-196.3c0-0.5,0-0.9,0-1.4C420.9,1293.9,379.5,1309.5,336.3,1311.5z"/>
<linearGradient id="SVGID_00000121259646791158885870000013397032979480858785_" gradientUnits="userSpaceOnUse" x1="133.6796" y1="-558.1348" x2="378.3204" y2="-981.8652" gradientTransform="matrix(1 0 0 1 0 2562)">
	<stop  offset="0" style="stop-color:#5F6C7C"/>
	<stop  offset="1" style="stop-color:#D7D6D9"/>
</linearGradient>
<circle style="fill:url(#SVGID_00000121259646791158885870000013397032979480858785_);stroke:#676767;stroke-width:9;stroke-miterlimit:10;" cx="256" cy="1792" r="244.6"/>
<linearGradient id="SVGID_00000156563940422001146550000007744450851203029379_" gradientUnits="userSpaceOnUse" x1="363.6172" y1="-956.3986" x2="148.3828" y2="-583.6013" gradientTransform="matrix(1 0 0 1 0 2562)">
	<stop  offset="1.078831e-03" style="stop-color:#333F4F"/>
	<stop  offset="1" style="stop-color:#FFFFFF"/>
</linearGradient>
<circle style="opacity:0.5;fill:none;stroke:url(#SVGID_00000156563940422001146550000007744450851203029379_);stroke-width:16;stroke-miterlimit:10;enable-background:new    ;" cx="256" cy="1792" r="207.2"/>
<linearGradient id="SVGID_00000041999806564756283630000009385214230282590871_" gradientUnits="userSpaceOnUse" x1="256" y1="-966.3" x2="256" y2="-573.7" gradientTransform="matrix(1 0 0 1 0 2562)">
	<stop  offset="0" style="stop-color:#949494"/>
	<stop  offset="1" style="stop-color:#1E1E1E"/>
</linearGradient>
<circle style="fill:url(#SVGID_00000041999806564756283630000009385214230282590871_);stroke:#333333;stroke-miterlimit:10;" cx="256" cy="1792" r="196.3"/>
<linearGradient id="SVGID_00000047776849140078711900000015102915224500709006_" gradientUnits="userSpaceOnUse" x1="256.1" y1="1988.4001" x2="256.1" y2="1787.3">
	<stop  offset="0" style="stop-color:#FFFFFF;stop-opacity:5.000000e-02"/>
	<stop  offset="1" style="stop-color:#FFFFFF"/>
</linearGradient>
<path style="opacity:0.4;fill:url(#SVGID_00000047776849140078711900000015102915224500709006_);enable-background:new    ;" d="
	M336.3,1823.5c-87.4,3.9-130.8-33.1-179.6-36.2c-38.1,1.2-79.8,19.7-96.2,27.8c11.4,97.6,94.3,173.3,194.9,173.3
	c108.4,0,196.3-87.9,196.3-196.3c0-0.5,0-0.9,0-1.4C420.9,1805.9,379.5,1821.5,336.3,1823.5z"/>
<path class="st16" d="M523.7,559.9"/>
<path class="st16" d="M523.7,559.9"/>
<g class="st17">
	<path class="st18" d="M119.2,282.2l16.1-2.9c0.3,7.4,1.1,13,2.1,16.9c1.7,6.3,4.2,9.4,7.5,9.4c2.4,0,4.3-1.6,5.6-4.8
		c1.3-3.2,2-6.9,2-11.2c0-4-0.6-7.6-1.9-10.8c-1.2-3.2-4.1-6.2-8.7-9c-7.4-4.7-12.7-11-15.8-18.8c-3.2-7.8-4.8-17.8-4.8-29.9
		c0-8,0.8-15.5,2.4-22.6c1.6-7.1,4.1-12.7,7.3-16.7c3.3-4.1,7.7-6.1,13.4-6.1c7,0,12.3,3.7,16,11.1c3.7,7.4,5.8,19.1,6.5,35.2
		l-15.9,2.6c-0.4-7-1.3-12.1-2.7-15.2c-1.4-3.2-3.2-4.8-5.6-4.8c-2,0-3.4,1.2-4.4,3.5c-1,2.4-1.5,5.2-1.5,8.6c0,2.5,0.4,4.7,1.2,6.7
		c0.8,2,2.7,3.9,5.7,5.7c7.4,4.5,12.7,9.1,15.9,13.7c3.2,4.6,5.5,10.3,7,17.2c1.5,6.8,2.2,14.5,2.2,22.9c0,9.9-1,19.1-2.9,27.5
		c-1.9,8.4-4.6,14.8-8.1,19.1c-3.5,4.3-7.9,6.5-13.2,6.5c-9.3,0-15.7-5.1-19.3-15.2C121.7,310.8,119.6,297.9,119.2,282.2z"/>
	<path class="st18" d="M173.4,178.5h51.3v38.3h-17.2v116.8h-16.9V216.8h-17.2V178.5z"/>
	<path class="st18" d="M260.8,307.9h-19.2l-2.7,25.6h-17.2l20.5-155h18.4l20.5,155h-17.7L260.8,307.9z M257.3,274.4l-6-55.7l-6,55.7
		H257.3z"/>
	<path class="st18" d="M286.8,333.5v-155H315c5.2,0,9.2,1.3,12,3.8s5,7.2,6.7,14.1c1.7,6.9,2.5,15.2,2.5,25.1c0,8.6-0.6,16-1.9,22.3
		c-1.3,6.2-3.1,11.3-5.3,15.2c-1.4,2.5-3.4,4.5-5.9,6.1c2,1.9,3.5,3.8,4.4,5.7c0.6,1.3,1.5,4,2.7,8.2c1.2,4.2,2,7.4,2.4,9.6
		l8.2,44.9h-19.1l-9-47.4c-1.1-6.1-2.2-10.1-3.1-12c-1.2-2.4-2.6-3.6-4.1-3.6h-1.5v62.9H286.8z M303.8,241.3h7.1
		c0.8,0,2.3-0.7,4.5-2.1c1.1-0.6,2-2.3,2.7-4.9c0.7-2.6,1.1-5.6,1.1-9c0-5-0.6-8.8-1.7-11.5c-1.1-2.7-3.2-4-6.3-4h-7.4V241.3z"/>
	<path class="st18" d="M341.5,178.5h51.3v38.3h-17.2v116.8h-16.9V216.8h-17.2V178.5z"/>
</g>
<g class="st17">
	<path class="st18" d="M119.2,794.2l16.1-2.9c0.3,7.4,1.1,13,2.1,16.9c1.7,6.3,4.2,9.4,7.5,9.4c2.4,0,4.3-1.6,5.6-4.8
		c1.3-3.2,2-6.9,2-11.2c0-4-0.6-7.6-1.9-10.8c-1.2-3.2-4.1-6.2-8.7-9c-7.4-4.7-12.7-11-15.8-18.8c-3.2-7.8-4.8-17.8-4.8-29.9
		c0-8,0.8-15.5,2.4-22.6c1.6-7.1,4.1-12.7,7.3-16.7c3.3-4.1,7.7-6.1,13.4-6.1c7,0,12.3,3.7,16,11.1c3.7,7.4,5.8,19.1,6.5,35.2
		l-15.9,2.6c-0.4-7-1.3-12.1-2.7-15.2c-1.4-3.2-3.2-4.8-5.6-4.8c-2,0-3.4,1.2-4.4,3.5c-1,2.4-1.5,5.2-1.5,8.6c0,2.5,0.4,4.7,1.2,6.7
		c0.8,2,2.7,3.9,5.7,5.7c7.4,4.5,12.7,9.1,15.9,13.7c3.2,4.6,5.5,10.3,7,17.2c1.5,6.8,2.2,14.5,2.2,22.9c0,9.9-1,19.1-2.9,27.5
		c-1.9,8.4-4.6,14.8-8.1,19.1c-3.5,4.3-7.9,6.5-13.2,6.5c-9.3,0-15.7-5.1-19.3-15.2C121.7,822.8,119.6,809.9,119.2,794.2z"/>
	<path class="st18" d="M173.4,690.5h51.3v38.3h-17.2v116.8h-16.9V728.8h-17.2V690.5z"/>
	<path class="st18" d="M260.8,819.9h-19.2l-2.7,25.6h-17.2l20.5-155h18.4l20.5,155h-17.7L260.8,819.9z M257.3,786.4l-6-55.7l-6,55.7
		H257.3z"/>
	<path class="st18" d="M286.8,845.5v-155H315c5.2,0,9.2,1.3,12,3.8s5,7.2,6.7,14.1c1.7,6.9,2.5,15.2,2.5,25.1c0,8.6-0.6,16-1.9,22.3
		c-1.3,6.2-3.1,11.3-5.3,15.2c-1.4,2.5-3.4,4.5-5.9,6.1c2,1.9,3.5,3.8,4.4,5.7c0.6,1.3,1.5,4,2.7,8.2c1.2,4.2,2,7.4,2.4,9.6
		l8.2,44.9h-19.1l-9-47.4c-1.1-6.1-2.2-10.1-3.1-12c-1.2-2.4-2.6-3.6-4.1-3.6h-1.5v62.9H286.8z M303.8,753.3h7.1
		c0.8,0,2.3-0.7,4.5-2.1c1.1-0.6,2-2.3,2.7-4.9c0.7-2.6,1.1-5.6,1.1-9c0-5-0.6-8.8-1.7-11.5c-1.1-2.7-3.2-4-6.3-4h-7.4V753.3z"/>
	<path class="st18" d="M341.5,690.5h51.3v38.3h-17.2v116.8h-16.9V728.8h-17.2V690.5z"/>
</g>
<g class="st17">
	<path class="st18" d="M119.2,1306.2l16.1-2.9c0.3,7.4,1.1,13,2.1,16.9c1.7,6.3,4.2,9.4,7.5,9.4c2.4,0,4.3-1.6,5.6-4.8
		c1.3-3.2,2-6.9,2-11.2c0-4-0.6-7.6-1.9-10.8c-1.2-3.2-4.1-6.2-8.7-9c-7.4-4.7-12.7-11-15.8-18.8c-3.2-7.8-4.8-17.8-4.8-29.9
		c0-8,0.8-15.5,2.4-22.6c1.6-7.1,4.1-12.7,7.3-16.7c3.3-4.1,7.7-6.1,13.4-6.1c7,0,12.3,3.7,16,11.1c3.7,7.4,5.8,19.1,6.5,35.2
		l-15.9,2.6c-0.4-7-1.3-12.1-2.7-15.2c-1.4-3.2-3.2-4.8-5.6-4.8c-2,0-3.4,1.2-4.4,3.5c-1,2.4-1.5,5.2-1.5,8.6c0,2.5,0.4,4.7,1.2,6.7
		c0.8,2,2.7,3.9,5.7,5.7c7.4,4.5,12.7,9.1,15.9,13.7c3.2,4.6,5.5,10.3,7,17.2c1.5,6.8,2.2,14.5,2.2,22.9c0,9.9-1,19.1-2.9,27.5
		c-1.9,8.4-4.6,14.8-8.1,19.1c-3.5,4.3-7.9,6.5-13.2,6.5c-9.3,0-15.7-5.1-19.3-15.2S119.6,1321.9,119.2,1306.2z"/>
	<path class="st18" d="M173.4,1202.5h51.3v38.3h-17.2v116.8h-16.9v-116.8h-17.2V1202.5z"/>
	<path class="st18" d="M260.8,1331.9h-19.2l-2.7,25.6h-17.2l20.5-155h18.4l20.5,155h-17.7L260.8,1331.9z M257.3,1298.4l-6-55.7
		l-6,55.7H257.3z"/>
	<path class="st18" d="M286.8,1357.5v-155H315c5.2,0,9.2,1.3,12,3.8s5,7.2,6.7,14.1c1.7,6.9,2.5,15.2,2.5,25.1
		c0,8.6-0.6,16-1.9,22.3c-1.3,6.2-3.1,11.3-5.3,15.2c-1.4,2.5-3.4,4.5-5.9,6.1c2,1.9,3.5,3.8,4.4,5.7c0.6,1.3,1.5,4,2.7,8.2
		c1.2,4.2,2,7.4,2.4,9.6l8.2,44.9h-19.1l-9-47.4c-1.1-6.1-2.2-10.1-3.1-12c-1.2-2.4-2.6-3.6-4.1-3.6h-1.5v62.9H286.8z M303.8,1265.3
		h7.1c0.8,0,2.3-0.7,4.5-2.1c1.1-0.6,2-2.3,2.7-4.9c0.7-2.6,1.1-5.6,1.1-9c0-5-0.6-8.8-1.7-11.5c-1.1-2.7-3.2-4-6.3-4h-7.4V1265.3z"
		/>
	<path class="st18" d="M341.5,1202.5h51.3v38.3h-17.2v116.8h-16.9v-116.8h-17.2V1202.5z"/>
</g>
<g class="st17">
	<path class="st18" d="M119.2,1818.2l16.1-2.9c0.3,7.4,1.1,13,2.1,16.9c1.7,6.3,4.2,9.4,7.5,9.4c2.4,0,4.3-1.6,5.6-4.8
		c1.3-3.2,2-6.9,2-11.2c0-4-0.6-7.6-1.9-10.8c-1.2-3.2-4.1-6.2-8.7-9c-7.4-4.7-12.7-11-15.8-18.8c-3.2-7.8-4.8-17.8-4.8-29.9
		c0-8,0.8-15.5,2.4-22.6c1.6-7.1,4.1-12.7,7.3-16.7c3.3-4.1,7.7-6.1,13.4-6.1c7,0,12.3,3.7,16,11.1c3.7,7.4,5.8,19.1,6.5,35.2
		l-15.9,2.6c-0.4-7-1.3-12.1-2.7-15.2c-1.4-3.2-3.2-4.8-5.6-4.8c-2,0-3.4,1.2-4.4,3.5c-1,2.4-1.5,5.2-1.5,8.6c0,2.5,0.4,4.7,1.2,6.7
		c0.8,2,2.7,3.9,5.7,5.7c7.4,4.5,12.7,9.1,15.9,13.7c3.2,4.6,5.5,10.3,7,17.2c1.5,6.8,2.2,14.5,2.2,22.9c0,9.9-1,19.1-2.9,27.5
		c-1.9,8.4-4.6,14.8-8.1,19.1c-3.5,4.3-7.9,6.5-13.2,6.5c-9.3,0-15.7-5.1-19.3-15.2S119.6,1833.9,119.2,1818.2z"/>
	<path class="st18" d="M173.4,1714.5h51.3v38.3h-17.2v116.8h-16.9v-116.8h-17.2V1714.5z"/>
	<path class="st18" d="M260.8,1843.9h-19.2l-2.7,25.6h-17.2l20.5-155h18.4l20.5,155h-17.7L260.8,1843.9z M257.3,1810.4l-6-55.7
		l-6,55.7H257.3z"/>
	<path class="st18" d="M286.8,1869.5v-155H315c5.2,0,9.2,1.3,12,3.8s5,7.2,6.7,14.1c1.7,6.9,2.5,15.2,2.5,25.1
		c0,8.6-0.6,16-1.9,22.3c-1.3,6.2-3.1,11.3-5.3,15.2c-1.4,2.5-3.4,4.5-5.9,6.1c2,1.9,3.5,3.8,4.4,5.7c0.6,1.3,1.5,4,2.7,8.2
		c1.2,4.2,2,7.4,2.4,9.6l8.2,44.9h-19.1l-9-47.4c-1.1-6.1-2.2-10.1-3.1-12c-1.2-2.4-2.6-3.6-4.1-3.6h-1.5v62.9H286.8z M303.8,1777.3
		h7.1c0.8,0,2.3-0.7,4.5-2.1c1.1-0.6,2-2.3,2.7-4.9c0.7-2.6,1.1-5.6,1.1-9c0-5-0.6-8.8-1.7-11.5c-1.1-2.7-3.2-4-6.3-4h-7.4V1777.3z"
		/>
	<path class="st18" d="M341.5,1714.5h51.3v38.3h-17.2v116.8h-16.9v-116.8h-17.2V1714.5z"/>
</g>
</svg>
