<?xml version="1.0" encoding="utf-8"?>
<!-- Generator: Adobe Illustrator 27.1.0, SVG Export Plug-In . SVG Version: 6.00 Build 0)  -->
<svg version="1.1" id="Calque_1" xmlns="http://www.w3.org/2000/svg" xmlns:xlink="http://www.w3.org/1999/xlink" x="0px" y="0px"
	 viewBox="0 0 512 2048" style="enable-background:new 0 0 512 2048;" xml:space="preserve">
<style type="text/css">
	.st0{fill:url(#SVGID_1_);stroke:#676767;stroke-width:9;stroke-miterlimit:10;}
	
		.st1{opacity:0.5;fill:none;stroke:url(#SVGID_00000180347111854482274160000009642348169661830053_);stroke-width:16;stroke-miterlimit:10;enable-background:new    ;}
	.st2{fill:url(#SVGID_00000047754015334011269320000007702526481624736949_);stroke:#333333;stroke-miterlimit:10;}
	
		.st3{opacity:0.4;fill:url(#SVGID_00000069383554730204621860000004850849951519215274_);stroke:#333333;stroke-miterlimit:10;enable-background:new    ;}
	.st4{fill:url(#SVGID_00000036935011902517106030000010854336099677677700_);stroke:#676767;stroke-width:9;stroke-miterlimit:10;}
	
		.st5{opacity:0.5;fill:none;stroke:url(#SVGID_00000161624656637983314120000006184917972953697433_);stroke-width:16;stroke-miterlimit:10;enable-background:new    ;}
	.st6{fill:url(#SVGID_00000010283927308595634310000000872960227322522553_);stroke:#030304;stroke-miterlimit:10;}
	.st7{opacity:0.4;fill:url(#SVGID_00000116211276314573505330000017051737497438445503_);enable-background:new    ;}
	.st8{fill:url(#SVGID_00000036250983698836756890000005914861539792081558_);stroke:#676767;stroke-width:9;stroke-miterlimit:10;}
	
		.st9{opacity:0.5;fill:none;stroke:url(#SVGID_00000151537428206146160550000001689177387948963992_);stroke-width:16;stroke-miterlimit:10;enable-background:new    ;}
	.st10{fill:url(#SVGID_00000049929632366612797570000008252698162256784804_);stroke:#030304;stroke-miterlimit:10;}
	.st11{opacity:0.4;fill:url(#SVGID_00000109019171456252944220000001349468848218917252_);enable-background:new    ;}
	.st12{fill:url(#SVGID_00000021815150793854934630000012552616696709057208_);stroke:#676767;stroke-width:9;stroke-miterlimit:10;}
	
		.st13{opacity:0.5;fill:none;stroke:url(#SVGID_00000078021903990564486370000009107318394948547460_);stroke-width:16;stroke-miterlimit:10;enable-background:new    ;}
	.st14{fill:url(#SVGID_00000107557505054774935580000011189105609305458593_);stroke:#333333;stroke-miterlimit:10;}
	.st15{opacity:0.4;fill:url(#SVGID_00000153694252864006929470000005792873389629838978_);enable-background:new    ;}
	.st16{opacity:0.9;}
	.st17{fill:#FFFFFF;stroke:#333333;stroke-miterlimit:10;}
</style>
<linearGradient id="SVGID_1_" gradientUnits="userSpaceOnUse" x1="133.6796" y1="-3374.1348" x2="378.3204" y2="-3797.8652" gradientTransform="matrix(1 0 0 1 0 3842)">
	<stop  offset="0" style="stop-color:#5F6C7C"/>
	<stop  offset="1" style="stop-color:#D7D6D9"/>
</linearGradient>
<circle class="st0" cx="256" cy="256" r="244.6"/>
<linearGradient id="SVGID_00000039097351154430151400000000769234719806987409_" gradientUnits="userSpaceOnUse" x1="363.6173" y1="-1210.3987" x2="148.3827" y2="-837.6013" gradientTransform="matrix(1 0 0 1 0 1280)">
	<stop  offset="1.078831e-03" style="stop-color:#333F4F"/>
	<stop  offset="1" style="stop-color:#FFFFFF"/>
</linearGradient>
<circle style="opacity:0.5;fill:none;stroke:url(#SVGID_00000039097351154430151400000000769234719806987409_);stroke-width:16;stroke-miterlimit:10;enable-background:new    ;" cx="256" cy="256" r="207.2"/>
<linearGradient id="SVGID_00000180361067731148943780000017544461109298577567_" gradientUnits="userSpaceOnUse" x1="256" y1="-3782.3" x2="256" y2="-3389.7" gradientTransform="matrix(1 0 0 1 0 3842)">
	<stop  offset="5.392733e-04" style="stop-color:#60B2E4"/>
	<stop  offset="1" style="stop-color:#646AAF"/>
</linearGradient>
<circle style="fill:url(#SVGID_00000180361067731148943780000017544461109298577567_);stroke:#333333;stroke-miterlimit:10;" cx="256" cy="256" r="196.3"/>
<linearGradient id="SVGID_00000070834003893452301410000013592481137234835883_" gradientUnits="userSpaceOnUse" x1="256.1" y1="-827.6" x2="256.1" y2="-1028.7" gradientTransform="matrix(1 0 0 1 0 1280)">
	<stop  offset="0" style="stop-color:#FFFFFF;stop-opacity:5.000000e-02"/>
	<stop  offset="1" style="stop-color:#FFFFFF"/>
</linearGradient>
<path style="opacity:0.4;fill:url(#SVGID_00000070834003893452301410000013592481137234835883_);stroke:#333333;stroke-miterlimit:10;enable-background:new    ;" d="
	M336.3,287.5c-87.4,3.9-130.8-33.1-179.6-36.2c-38.1,1.2-79.8,19.7-96.2,27.8c11.4,97.6,94.3,173.3,194.9,173.3
	c108.4,0,196.3-87.9,196.3-196.3c0-0.5,0-0.9,0-1.4C420.9,269.9,379.5,285.5,336.3,287.5z"/>
<linearGradient id="SVGID_00000008847774723209364350000012031136757839894707_" gradientUnits="userSpaceOnUse" x1="133.6796" y1="-2862.1348" x2="378.3204" y2="-3285.8652" gradientTransform="matrix(1 0 0 1 0 3842)">
	<stop  offset="0" style="stop-color:#5F6C7C"/>
	<stop  offset="1" style="stop-color:#D7D6D9"/>
</linearGradient>
<circle style="fill:url(#SVGID_00000008847774723209364350000012031136757839894707_);stroke:#676767;stroke-width:9;stroke-miterlimit:10;" cx="256" cy="768" r="244.6"/>
<linearGradient id="SVGID_00000124119798834794995860000011966781622291152812_" gradientUnits="userSpaceOnUse" x1="363.6173" y1="-3260.3987" x2="148.3827" y2="-2887.6013" gradientTransform="matrix(1 0 0 1 0 3842)">
	<stop  offset="1.078831e-03" style="stop-color:#333F4F"/>
	<stop  offset="1" style="stop-color:#FFFFFF"/>
</linearGradient>
<circle style="opacity:0.5;fill:none;stroke:url(#SVGID_00000124119798834794995860000011966781622291152812_);stroke-width:16;stroke-miterlimit:10;enable-background:new    ;" cx="256" cy="768" r="207.2"/>
<linearGradient id="SVGID_00000069361311148003133740000004695329485988698755_" gradientUnits="userSpaceOnUse" x1="256" y1="-3270.3" x2="256" y2="-2877.7" gradientTransform="matrix(1 0 0 1 0 3842)">
	<stop  offset="2.194295e-07" style="stop-color:#FDFC04"/>
	<stop  offset="0.9995" style="stop-color:#BC8017"/>
</linearGradient>
<circle style="fill:url(#SVGID_00000069361311148003133740000004695329485988698755_);stroke:#030304;stroke-miterlimit:10;" cx="256" cy="768" r="196.3"/>
<linearGradient id="SVGID_00000013884367152711503740000003650288360862514337_" gradientUnits="userSpaceOnUse" x1="256.1" y1="-315.6" x2="256.1" y2="-516.7" gradientTransform="matrix(1 0 0 1 0 1280)">
	<stop  offset="0" style="stop-color:#FFFFFF;stop-opacity:5.000000e-02"/>
	<stop  offset="1" style="stop-color:#FFFFFF"/>
</linearGradient>
<path style="opacity:0.4;fill:url(#SVGID_00000013884367152711503740000003650288360862514337_);enable-background:new    ;" d="
	M336.3,799.5c-87.4,3.9-130.8-33.1-179.6-36.2c-38.1,1.2-79.8,19.7-96.2,27.8c11.4,97.6,94.3,173.3,194.9,173.3
	c108.4,0,196.3-87.9,196.3-196.3c0-0.5,0-0.9,0-1.4C420.9,781.9,379.5,797.5,336.3,799.5z"/>
<linearGradient id="SVGID_00000034774485918498834300000000260055605157977250_" gradientUnits="userSpaceOnUse" x1="133.6796" y1="-2350.1348" x2="378.3204" y2="-2773.8652" gradientTransform="matrix(1 0 0 1 0 3842)">
	<stop  offset="0" style="stop-color:#5F6C7C"/>
	<stop  offset="1" style="stop-color:#D7D6D9"/>
</linearGradient>
<circle style="fill:url(#SVGID_00000034774485918498834300000000260055605157977250_);stroke:#676767;stroke-width:9;stroke-miterlimit:10;" cx="256" cy="1280" r="244.6"/>
<linearGradient id="SVGID_00000072999951386314422420000004856521709372776079_" gradientUnits="userSpaceOnUse" x1="363.6172" y1="-2748.3987" x2="148.3828" y2="-2375.6013" gradientTransform="matrix(1 0 0 1 0 3842)">
	<stop  offset="1.078831e-03" style="stop-color:#333F4F"/>
	<stop  offset="1" style="stop-color:#FFFFFF"/>
</linearGradient>
<circle style="opacity:0.5;fill:none;stroke:url(#SVGID_00000072999951386314422420000004856521709372776079_);stroke-width:16;stroke-miterlimit:10;enable-background:new    ;" cx="256" cy="1280" r="207.2"/>
<linearGradient id="SVGID_00000110450225421945589700000017370632340219750568_" gradientUnits="userSpaceOnUse" x1="256" y1="-2758.3" x2="256" y2="-2365.7" gradientTransform="matrix(1 0 0 1 0 3842)">
	<stop  offset="5.391326e-04" style="stop-color:#90FE83"/>
	<stop  offset="1" style="stop-color:#399036"/>
</linearGradient>
<circle style="fill:url(#SVGID_00000110450225421945589700000017370632340219750568_);stroke:#030304;stroke-miterlimit:10;" cx="256" cy="1280" r="196.3"/>
<linearGradient id="SVGID_00000086670388442219623220000015453707274504993450_" gradientUnits="userSpaceOnUse" x1="256.1" y1="196.4001" x2="256.1" y2="-4.7" gradientTransform="matrix(1 0 0 1 0 1280)">
	<stop  offset="0" style="stop-color:#FFFFFF;stop-opacity:5.000000e-02"/>
	<stop  offset="1" style="stop-color:#FFFFFF"/>
</linearGradient>
<path style="opacity:0.4;fill:url(#SVGID_00000086670388442219623220000015453707274504993450_);enable-background:new    ;" d="
	M336.3,1311.5c-87.4,3.9-130.8-33.1-179.6-36.2c-38.1,1.2-79.8,19.7-96.2,27.8c11.4,97.6,94.3,173.3,194.9,173.3
	c108.4,0,196.3-87.9,196.3-196.3c0-0.5,0-0.9,0-1.4C420.9,1293.9,379.5,1309.5,336.3,1311.5z"/>
<linearGradient id="SVGID_00000016071898611714256660000018185903538368735127_" gradientUnits="userSpaceOnUse" x1="133.6796" y1="-1838.1349" x2="378.3204" y2="-2261.8652" gradientTransform="matrix(1 0 0 1 0 3842)">
	<stop  offset="0" style="stop-color:#5F6C7C"/>
	<stop  offset="1" style="stop-color:#D7D6D9"/>
</linearGradient>
<circle style="fill:url(#SVGID_00000016071898611714256660000018185903538368735127_);stroke:#676767;stroke-width:9;stroke-miterlimit:10;" cx="256" cy="1792" r="244.6"/>
<linearGradient id="SVGID_00000134220167988951017970000016392350386984083882_" gradientUnits="userSpaceOnUse" x1="363.6172" y1="-2236.3987" x2="148.3828" y2="-1863.6013" gradientTransform="matrix(1 0 0 1 0 3842)">
	<stop  offset="1.078831e-03" style="stop-color:#333F4F"/>
	<stop  offset="1" style="stop-color:#FFFFFF"/>
</linearGradient>
<circle style="opacity:0.5;fill:none;stroke:url(#SVGID_00000134220167988951017970000016392350386984083882_);stroke-width:16;stroke-miterlimit:10;enable-background:new    ;" cx="256" cy="1792" r="207.2"/>
<linearGradient id="SVGID_00000136408611938643649630000014535881200939054465_" gradientUnits="userSpaceOnUse" x1="256" y1="-2246.3" x2="256" y2="-1853.7" gradientTransform="matrix(1 0 0 1 0 3842)">
	<stop  offset="0" style="stop-color:#949494"/>
	<stop  offset="1" style="stop-color:#1E1E1E"/>
</linearGradient>
<circle style="fill:url(#SVGID_00000136408611938643649630000014535881200939054465_);stroke:#333333;stroke-miterlimit:10;" cx="256" cy="1792" r="196.3"/>
<linearGradient id="SVGID_00000026873253783886372530000013049125228109615801_" gradientUnits="userSpaceOnUse" x1="256.1" y1="708.4001" x2="256.1" y2="507.3" gradientTransform="matrix(1 0 0 1 0 1280)">
	<stop  offset="0" style="stop-color:#FFFFFF;stop-opacity:5.000000e-02"/>
	<stop  offset="1" style="stop-color:#FFFFFF"/>
</linearGradient>
<path style="opacity:0.4;fill:url(#SVGID_00000026873253783886372530000013049125228109615801_);enable-background:new    ;" d="
	M336.3,1823.5c-87.4,3.9-130.8-33.1-179.6-36.2c-38.1,1.2-79.8,19.7-96.2,27.8c11.4,97.6,94.3,173.3,194.9,173.3
	c108.4,0,196.3-87.9,196.3-196.3c0-0.5,0-0.9,0-1.4C420.9,1805.9,379.5,1821.5,336.3,1823.5z"/>
<g class="st16">
	<ellipse class="st17" cx="253" cy="186.1" rx="94.9" ry="45.1"/>
	<g>
		<path class="st17" d="M336.2,241.4c1.9,1.1,3.4,2.5,4.6,4.2c4-4.6,6.4-9.7,6.9-14.9h0.1V196c0,13.4-12.4,25.5-32,33.7L336.2,241.4
			z"/>
		<path class="st17" d="M294,237.7c0.1-0.4,0.3-0.8,0.4-1.2c-12.5,2.9-26.6,4.5-41.4,4.5c-52.4,0-94.9-20.2-94.9-45.1v34.8h0.1
			c2.1,22.2,37.9,40.1,83.6,42.7C252.3,254.4,271.5,240.7,294,237.7z"/>
	</g>
	<g>
		<path class="st17" d="M233.9,305.3c-0.1-1.6-0.2-3.1-0.2-4.7c0-6.1,0.8-12.1,2.3-17.7c-44.3-3.8-77.9-22.2-77.9-44.4v34.8h0.1
			c2.1,21.7,36.4,39.4,80.7,42.5C236.1,313.2,234.2,309.5,233.9,305.3z"/>
		<path class="st17" d="M336.8,260.2l-2.2,1.3c-5,4-11.2,7.6-18.5,10.7l-0.3,0.2c-1.3,0.7-2.7,1.3-4.1,1.6c-8.6,3.2-18.4,5.8-29,7.4
			c-5.3,6.1-8.4,14.1-8.4,22.7c0,4.3-1.7,8.4-4.7,11.4c-0.1,0.1-0.2,0.2-0.3,0.2c27.4-2.3,50.8-10.1,64.7-21c0-0.4,0-0.9,0-1.3
			c0-4.3,1.7-8.4,4.7-11.4c2.3-2.3,5.1-3.7,8.1-4.3c0.4-1.4,0.7-2.8,0.8-4.3h0.1v-34.8c0,4.8-1.6,9.4-4.5,13.7
			C342.2,255.6,339.9,258.4,336.8,260.2z"/>
	</g>
	<path class="st17" d="M264.3,349.8c0-5.2,2.8-10.1,7.3-12.7l20.9-12.1c4.5-2.6,10.1-2.6,14.6,0c0.8,0.5,1.5,1,2.2,1.6
		c10.2-3,18.3-10.6,22.2-20.3c-17.1,12-45.9,19.9-78.6,19.9c-52.4,0-94.9-20.2-94.9-45.1v34.8h0.1c2.3,23.9,43.9,43,94.8,43
		c4.8,0,9.5-0.2,14.1-0.5C265.3,355.9,264.3,352.9,264.3,349.8z"/>
	<g>
		<path class="st17" d="M333,247.9l-20.9-12.1c-3.1-1.8-7,0.5-7,4.1v5l0,0c-33.2,0-60.2,26.9-60.2,60.2c0,1.4,0,2.7,0.1,4
			c0.2,3.1,2.8,5.4,5.9,5.4h8.8c3.3,0,5.9-2.7,5.9-6c0,0,0,0,0-0.1c0-22.9,17.3-41.8,39.5-44.4l0,0c0,3.6,3.9,5.9,7,4.1L333,256
			C336.1,254.2,336.1,249.7,333,247.9z"/>
		<path class="st17" d="M359.9,291.7h-8.8c-3.3,0-5.9,2.7-5.9,6c0,0,0,0,0,0.1c0,22.9-17.3,41.8-39.5,44.4v0c0-3.6-3.9-5.9-7-4.1
			l-20.9,12.1c-3.1,1.8-3.1,6.3,0,8.1l20.9,12.1c3.1,1.8,7-0.5,7-4.1v-5l0,0c33.2,0,60.2-26.9,60.2-60.2c0-1.4,0-2.7-0.1-4
			C365.6,294,363,291.7,359.9,291.7z"/>
	</g>
</g>
<g class="st16">
	<ellipse class="st17" cx="253" cy="698.1" rx="94.9" ry="45.1"/>
	<g>
		<path class="st17" d="M336.2,753.4c1.9,1.1,3.4,2.5,4.6,4.2c4-4.6,6.4-9.7,6.9-14.9h0.1V708c0,13.4-12.4,25.5-32,33.7L336.2,753.4
			z"/>
		<path class="st17" d="M294,749.7c0.1-0.4,0.3-0.8,0.4-1.2c-12.5,2.9-26.6,4.5-41.4,4.5c-52.4,0-94.9-20.2-94.9-45.1v34.8h0.1
			c2.1,22.2,37.9,40.1,83.6,42.7C252.3,766.4,271.5,752.7,294,749.7z"/>
	</g>
	<g>
		<path class="st17" d="M233.9,817.3c-0.1-1.6-0.2-3.1-0.2-4.7c0-6.1,0.8-12.1,2.3-17.7c-44.3-3.8-77.9-22.2-77.9-44.4v34.8h0.1
			c2.1,21.7,36.4,39.4,80.7,42.5C236.1,825.2,234.2,821.5,233.9,817.3z"/>
		<path class="st17" d="M336.8,772.2l-2.2,1.3c-5,4-11.2,7.6-18.5,10.7l-0.3,0.2c-1.3,0.7-2.7,1.3-4.1,1.6c-8.6,3.2-18.4,5.8-29,7.4
			c-5.3,6.1-8.4,14.1-8.4,22.7c0,4.3-1.7,8.4-4.7,11.4c-0.1,0.1-0.2,0.2-0.3,0.2c27.4-2.3,50.8-10.1,64.7-21c0-0.4,0-0.9,0-1.3
			c0-4.3,1.7-8.4,4.7-11.4c2.3-2.3,5.1-3.7,8.1-4.3c0.4-1.4,0.7-2.8,0.8-4.3h0.1v-34.8c0,4.8-1.6,9.4-4.5,13.7
			C342.2,767.6,339.9,770.4,336.8,772.2z"/>
	</g>
	<path class="st17" d="M264.3,861.8c0-5.2,2.8-10.1,7.3-12.7l20.9-12.1c4.5-2.6,10.1-2.6,14.6,0c0.8,0.5,1.5,1,2.2,1.6
		c10.2-3,18.3-10.6,22.2-20.3c-17.1,12-45.9,19.9-78.6,19.9c-52.4,0-94.9-20.2-94.9-45.1v34.8h0.1c2.3,23.9,43.9,43,94.8,43
		c4.8,0,9.5-0.2,14.1-0.5C265.3,867.9,264.3,864.9,264.3,861.8z"/>
	<g>
		<path class="st17" d="M333,759.9l-20.9-12.1c-3.1-1.8-7,0.5-7,4.1v5l0,0c-33.2,0-60.2,26.9-60.2,60.2c0,1.4,0,2.7,0.1,4
			c0.2,3.1,2.8,5.4,5.9,5.4h8.8c3.3,0,5.9-2.7,5.9-6c0,0,0,0,0-0.1c0-22.9,17.3-41.8,39.5-44.4v0c0,3.6,3.9,5.9,7,4.1L333,768
			C336.1,766.2,336.1,761.7,333,759.9z"/>
		<path class="st17" d="M359.9,803.7h-8.8c-3.3,0-5.9,2.7-5.9,6c0,0,0,0,0,0.1c0,22.9-17.3,41.8-39.5,44.4v0c0-3.6-3.9-5.9-7-4.1
			l-20.9,12.1c-3.1,1.8-3.1,6.3,0,8.1l20.9,12.1c3.1,1.8,7-0.5,7-4.1v-5l0,0c33.2,0,60.2-26.9,60.2-60.2c0-1.4,0-2.7-0.1-4
			C365.6,806,363,803.7,359.9,803.7z"/>
	</g>
</g>
<g class="st16">
	<ellipse class="st17" cx="253" cy="1210.1" rx="94.9" ry="45.1"/>
	<g>
		<path class="st17" d="M336.2,1265.4c1.9,1.1,3.4,2.5,4.6,4.2c4-4.6,6.4-9.7,6.9-14.9h0.1V1220c0,13.4-12.4,25.5-32,33.7
			L336.2,1265.4z"/>
		<path class="st17" d="M294,1261.7c0.1-0.4,0.3-0.8,0.4-1.2c-12.5,2.9-26.6,4.5-41.4,4.5c-52.4,0-94.9-20.2-94.9-45.1v34.8h0.1
			c2.1,22.2,37.9,40.1,83.6,42.7C252.3,1278.4,271.5,1264.7,294,1261.7z"/>
	</g>
	<g>
		<path class="st17" d="M233.9,1329.3c-0.1-1.6-0.2-3.1-0.2-4.7c0-6.1,0.8-12.1,2.3-17.7c-44.3-3.8-77.9-22.2-77.9-44.4v34.8h0.1
			c2.1,21.7,36.4,39.4,80.7,42.5C236.1,1337.2,234.2,1333.5,233.9,1329.3z"/>
		<path class="st17" d="M336.8,1284.2l-2.2,1.3c-5,4-11.2,7.6-18.5,10.7l-0.3,0.2c-1.3,0.7-2.7,1.3-4.1,1.6
			c-8.6,3.2-18.4,5.8-29,7.4c-5.3,6.1-8.4,14.1-8.4,22.7c0,4.3-1.7,8.4-4.7,11.4c-0.1,0.1-0.2,0.2-0.3,0.2
			c27.4-2.3,50.8-10.1,64.7-21c0-0.4,0-0.9,0-1.3c0-4.3,1.7-8.4,4.7-11.4c2.3-2.3,5.1-3.7,8.1-4.3c0.4-1.4,0.7-2.8,0.8-4.3h0.1
			v-34.8c0,4.8-1.6,9.4-4.5,13.7C342.2,1279.6,339.9,1282.4,336.8,1284.2z"/>
	</g>
	<path class="st17" d="M264.3,1373.8c0-5.2,2.8-10.1,7.3-12.7l20.9-12.1c4.5-2.6,10.1-2.6,14.6,0c0.8,0.5,1.5,1,2.2,1.6
		c10.2-3,18.3-10.6,22.2-20.3c-17.1,12-45.9,19.9-78.6,19.9c-52.4,0-94.9-20.2-94.9-45.1v34.8h0.1c2.3,23.9,43.9,43,94.8,43
		c4.8,0,9.5-0.2,14.1-0.5C265.3,1379.9,264.3,1376.9,264.3,1373.8z"/>
	<g>
		<path class="st17" d="M333,1271.9l-20.9-12.1c-3.1-1.8-7,0.5-7,4.1v5l0,0c-33.2,0-60.2,26.9-60.2,60.2c0,1.4,0,2.7,0.1,4
			c0.2,3.1,2.8,5.4,5.9,5.4h8.8c3.3,0,5.9-2.7,5.9-6c0,0,0,0,0-0.1c0-22.9,17.3-41.8,39.5-44.4l0,0c0,3.6,3.9,5.9,7,4.1L333,1280
			C336.1,1278.2,336.1,1273.7,333,1271.9z"/>
		<path class="st17" d="M359.9,1315.7h-8.8c-3.3,0-5.9,2.7-5.9,6c0,0,0,0,0,0.1c0,22.9-17.3,41.8-39.5,44.4v0c0-3.6-3.9-5.9-7-4.1
			l-20.9,12.1c-3.1,1.8-3.1,6.3,0,8.1l20.9,12.1c3.1,1.8,7-0.5,7-4.1v-5l0,0c33.2,0,60.2-26.9,60.2-60.2c0-1.4,0-2.7-0.1-4
			C365.6,1318,363,1315.7,359.9,1315.7z"/>
	</g>
</g>
<g class="st16">
	<ellipse class="st17" cx="253" cy="1722.1" rx="94.9" ry="45.1"/>
	<g>
		<path class="st17" d="M336.2,1777.4c1.9,1.1,3.4,2.5,4.6,4.2c4-4.6,6.4-9.7,6.9-14.9h0.1V1732c0,13.4-12.4,25.5-32,33.7
			L336.2,1777.4z"/>
		<path class="st17" d="M294,1773.7c0.1-0.4,0.3-0.8,0.4-1.2c-12.5,2.9-26.6,4.5-41.4,4.5c-52.4,0-94.9-20.2-94.9-45.1v34.8h0.1
			c2.1,22.2,37.9,40.1,83.6,42.7C252.3,1790.4,271.5,1776.7,294,1773.7z"/>
	</g>
	<g>
		<path class="st17" d="M233.9,1841.3c-0.1-1.6-0.2-3.1-0.2-4.7c0-6.1,0.8-12.1,2.3-17.7c-44.3-3.8-77.9-22.2-77.9-44.4v34.8h0.1
			c2.1,21.7,36.4,39.4,80.7,42.5C236.1,1849.2,234.2,1845.5,233.9,1841.3z"/>
		<path class="st17" d="M336.8,1796.2l-2.2,1.3c-5,4-11.2,7.6-18.5,10.7l-0.3,0.2c-1.3,0.7-2.7,1.3-4.1,1.6
			c-8.6,3.2-18.4,5.8-29,7.4c-5.3,6.1-8.4,14.1-8.4,22.7c0,4.3-1.7,8.4-4.7,11.4c-0.1,0.1-0.2,0.2-0.3,0.2
			c27.4-2.3,50.8-10.1,64.7-21c0-0.4,0-0.9,0-1.3c0-4.3,1.7-8.4,4.7-11.4c2.3-2.3,5.1-3.7,8.1-4.3c0.4-1.4,0.7-2.8,0.8-4.3h0.1
			v-34.8c0,4.8-1.6,9.4-4.5,13.7C342.2,1791.6,339.9,1794.4,336.8,1796.2z"/>
	</g>
	<path class="st17" d="M264.3,1885.8c0-5.2,2.8-10.1,7.3-12.7l20.9-12.1c4.5-2.6,10.1-2.6,14.6,0c0.8,0.5,1.5,1,2.2,1.6
		c10.2-3,18.3-10.6,22.2-20.3c-17.1,12-45.9,19.9-78.6,19.9c-52.4,0-94.9-20.2-94.9-45.1v34.8h0.1c2.3,23.9,43.9,43,94.8,43
		c4.8,0,9.5-0.2,14.1-0.5C265.3,1891.9,264.3,1888.9,264.3,1885.8z"/>
	<g>
		<path class="st17" d="M333,1783.9l-20.9-12.1c-3.1-1.8-7,0.5-7,4.1v5l0,0c-33.2,0-60.2,26.9-60.2,60.2c0,1.4,0,2.7,0.1,4
			c0.2,3.1,2.8,5.4,5.9,5.4h8.8c3.3,0,5.9-2.7,5.9-6c0,0,0,0,0-0.1c0-22.9,17.3-41.8,39.5-44.4l0,0c0,3.6,3.9,5.9,7,4.1L333,1792
			C336.1,1790.2,336.1,1785.7,333,1783.9z"/>
		<path class="st17" d="M359.9,1827.7h-8.8c-3.3,0-5.9,2.7-5.9,6c0,0,0,0,0,0.1c0,22.9-17.3,41.8-39.5,44.4v0c0-3.6-3.9-5.9-7-4.1
			l-20.9,12.1c-3.1,1.8-3.1,6.3,0,8.1l20.9,12.1c3.1,1.8,7-0.5,7-4.1v-5l0,0c33.2,0,60.2-26.9,60.2-60.2c0-1.4,0-2.7-0.1-4
			C365.6,1830,363,1827.7,359.9,1827.7z"/>
	</g>
</g>
</svg>
