<?xml version="1.0" encoding="utf-8"?>
<!-- Generator: Adobe Illustrator 27.1.0, SVG Export Plug-In . SVG Version: 6.00 Build 0)  -->
<svg version="1.1" id="Calque_1" xmlns="http://www.w3.org/2000/svg" xmlns:xlink="http://www.w3.org/1999/xlink" x="0px" y="0px"
	 viewBox="0 0 512 2048" style="enable-background:new 0 0 512 2048;" xml:space="preserve">
<style type="text/css">
	.st0{fill:url(#SVGID_1_);stroke:#676767;stroke-width:9;stroke-miterlimit:10;}
	
		.st1{opacity:0.5;fill:none;stroke:url(#SVGID_00000077317401494901311200000017620403267002511807_);stroke-width:16;stroke-miterlimit:10;enable-background:new    ;}
	.st2{fill:url(#SVGID_00000076562203967910013470000008969519697779941563_);stroke:#333333;stroke-miterlimit:10;}
	
		.st3{opacity:0.4;fill:url(#SVGID_00000035497250945962843320000015077032670086107520_);stroke:#333333;stroke-miterlimit:10;enable-background:new    ;}
	.st4{fill:url(#SVGID_00000086666889428958353870000014993522834753313714_);stroke:#676767;stroke-width:9;stroke-miterlimit:10;}
	
		.st5{opacity:0.5;fill:none;stroke:url(#SVGID_00000050635215381233012580000003304684766143612597_);stroke-width:16;stroke-miterlimit:10;enable-background:new    ;}
	.st6{fill:url(#SVGID_00000026846852833708430900000001330076508099600516_);stroke:#030304;stroke-miterlimit:10;}
	.st7{opacity:0.4;fill:url(#SVGID_00000096770699654649891880000016166346437482152340_);enable-background:new    ;}
	.st8{fill:url(#SVGID_00000145033467057499547150000010730354835858087862_);stroke:#676767;stroke-width:9;stroke-miterlimit:10;}
	
		.st9{opacity:0.5;fill:none;stroke:url(#SVGID_00000153691815150188574220000006984156074979452335_);stroke-width:16;stroke-miterlimit:10;enable-background:new    ;}
	.st10{fill:url(#SVGID_00000132064980954007506520000008821057123610927258_);stroke:#030304;stroke-miterlimit:10;}
	.st11{opacity:0.4;fill:url(#SVGID_00000173155941891221743400000002034433011227044245_);enable-background:new    ;}
	.st12{fill:url(#SVGID_00000047029528583610697220000002092161594072380038_);stroke:#676767;stroke-width:9;stroke-miterlimit:10;}
	
		.st13{opacity:0.5;fill:none;stroke:url(#SVGID_00000010289246755739500630000010879372434568929982_);stroke-width:16;stroke-miterlimit:10;enable-background:new    ;}
	.st14{fill:url(#SVGID_00000134936884934625040370000018030108934498616730_);stroke:#333333;stroke-miterlimit:10;}
	.st15{opacity:0.4;fill:url(#SVGID_00000122699692101222091360000016771875764296147129_);enable-background:new    ;}
	.st16{opacity:0.9;}
	.st17{fill:#FFFFFF;stroke:#333333;stroke-miterlimit:10;}
</style>
<linearGradient id="SVGID_1_" gradientUnits="userSpaceOnUse" x1="133.6796" y1="-3374.1348" x2="378.3204" y2="-3797.8652" gradientTransform="matrix(1 0 0 1 0 3842)">
	<stop  offset="0" style="stop-color:#5F6C7C"/>
	<stop  offset="1" style="stop-color:#D7D6D9"/>
</linearGradient>
<circle class="st0" cx="256" cy="256" r="244.6"/>
<linearGradient id="SVGID_00000066474991196857779650000016928267255560118666_" gradientUnits="userSpaceOnUse" x1="363.6173" y1="-1210.3987" x2="148.3827" y2="-837.6013" gradientTransform="matrix(1 0 0 1 0 1280)">
	<stop  offset="1.078831e-03" style="stop-color:#333F4F"/>
	<stop  offset="1" style="stop-color:#FFFFFF"/>
</linearGradient>
<circle style="opacity:0.5;fill:none;stroke:url(#SVGID_00000066474991196857779650000016928267255560118666_);stroke-width:16;stroke-miterlimit:10;enable-background:new    ;" cx="256" cy="256" r="207.2"/>
<linearGradient id="SVGID_00000025437916531932921440000017126914783661633424_" gradientUnits="userSpaceOnUse" x1="256" y1="-3782.3" x2="256" y2="-3389.7" gradientTransform="matrix(1 0 0 1 0 3842)">
	<stop  offset="5.392733e-04" style="stop-color:#60B2E4"/>
	<stop  offset="1" style="stop-color:#646AAF"/>
</linearGradient>
<circle style="fill:url(#SVGID_00000025437916531932921440000017126914783661633424_);stroke:#333333;stroke-miterlimit:10;" cx="256" cy="256" r="196.3"/>
<linearGradient id="SVGID_00000119825009775153149900000007422409294397676961_" gradientUnits="userSpaceOnUse" x1="256.1" y1="-827.6" x2="256.1" y2="-1028.7" gradientTransform="matrix(1 0 0 1 0 1280)">
	<stop  offset="0" style="stop-color:#FFFFFF;stop-opacity:5.000000e-02"/>
	<stop  offset="1" style="stop-color:#FFFFFF"/>
</linearGradient>
<path style="opacity:0.4;fill:url(#SVGID_00000119825009775153149900000007422409294397676961_);stroke:#333333;stroke-miterlimit:10;enable-background:new    ;" d="
	M336.3,287.5c-87.4,3.9-130.8-33.1-179.6-36.2c-38.1,1.2-79.8,19.7-96.2,27.8c11.4,97.6,94.3,173.3,194.9,173.3
	c108.4,0,196.3-87.9,196.3-196.3c0-0.5,0-0.9,0-1.4C420.9,269.9,379.5,285.5,336.3,287.5z"/>
<linearGradient id="SVGID_00000129172463624804687460000011208598074860926632_" gradientUnits="userSpaceOnUse" x1="133.6796" y1="-2862.1348" x2="378.3204" y2="-3285.8652" gradientTransform="matrix(1 0 0 1 0 3842)">
	<stop  offset="0" style="stop-color:#5F6C7C"/>
	<stop  offset="1" style="stop-color:#D7D6D9"/>
</linearGradient>
<circle style="fill:url(#SVGID_00000129172463624804687460000011208598074860926632_);stroke:#676767;stroke-width:9;stroke-miterlimit:10;" cx="256" cy="768" r="244.6"/>
<linearGradient id="SVGID_00000089555792118237915780000000739806379239245246_" gradientUnits="userSpaceOnUse" x1="363.6173" y1="-3260.3987" x2="148.3827" y2="-2887.6013" gradientTransform="matrix(1 0 0 1 0 3842)">
	<stop  offset="1.078831e-03" style="stop-color:#333F4F"/>
	<stop  offset="1" style="stop-color:#FFFFFF"/>
</linearGradient>
<circle style="opacity:0.5;fill:none;stroke:url(#SVGID_00000089555792118237915780000000739806379239245246_);stroke-width:16;stroke-miterlimit:10;enable-background:new    ;" cx="256" cy="768" r="207.2"/>
<linearGradient id="SVGID_00000081639544777597848830000007810585630538825393_" gradientUnits="userSpaceOnUse" x1="256" y1="-3270.3" x2="256" y2="-2877.7" gradientTransform="matrix(1 0 0 1 0 3842)">
	<stop  offset="2.194295e-07" style="stop-color:#FDFC04"/>
	<stop  offset="0.9995" style="stop-color:#BC8017"/>
</linearGradient>
<circle style="fill:url(#SVGID_00000081639544777597848830000007810585630538825393_);stroke:#030304;stroke-miterlimit:10;" cx="256" cy="768" r="196.3"/>
<linearGradient id="SVGID_00000048461513832409702430000017419137667968017047_" gradientUnits="userSpaceOnUse" x1="256.1" y1="-315.6" x2="256.1" y2="-516.7" gradientTransform="matrix(1 0 0 1 0 1280)">
	<stop  offset="0" style="stop-color:#FFFFFF;stop-opacity:5.000000e-02"/>
	<stop  offset="1" style="stop-color:#FFFFFF"/>
</linearGradient>
<path style="opacity:0.4;fill:url(#SVGID_00000048461513832409702430000017419137667968017047_);enable-background:new    ;" d="
	M336.3,799.5c-87.4,3.9-130.8-33.1-179.6-36.2c-38.1,1.2-79.8,19.7-96.2,27.8c11.4,97.6,94.3,173.3,194.9,173.3
	c108.4,0,196.3-87.9,196.3-196.3c0-0.5,0-0.9,0-1.4C420.9,781.9,379.5,797.5,336.3,799.5z"/>
<linearGradient id="SVGID_00000097461231681927281110000015248070774023340980_" gradientUnits="userSpaceOnUse" x1="133.6796" y1="-2350.1348" x2="378.3204" y2="-2773.8652" gradientTransform="matrix(1 0 0 1 0 3842)">
	<stop  offset="0" style="stop-color:#5F6C7C"/>
	<stop  offset="1" style="stop-color:#D7D6D9"/>
</linearGradient>
<circle style="fill:url(#SVGID_00000097461231681927281110000015248070774023340980_);stroke:#676767;stroke-width:9;stroke-miterlimit:10;" cx="256" cy="1280" r="244.6"/>
<linearGradient id="SVGID_00000021810248594306388370000012401051091641344689_" gradientUnits="userSpaceOnUse" x1="363.6172" y1="-2748.3987" x2="148.3828" y2="-2375.6013" gradientTransform="matrix(1 0 0 1 0 3842)">
	<stop  offset="1.078831e-03" style="stop-color:#333F4F"/>
	<stop  offset="1" style="stop-color:#FFFFFF"/>
</linearGradient>
<circle style="opacity:0.5;fill:none;stroke:url(#SVGID_00000021810248594306388370000012401051091641344689_);stroke-width:16;stroke-miterlimit:10;enable-background:new    ;" cx="256" cy="1280" r="207.2"/>
<linearGradient id="SVGID_00000157989627859412580920000005738533486820155537_" gradientUnits="userSpaceOnUse" x1="256" y1="-2758.3" x2="256" y2="-2365.7" gradientTransform="matrix(1 0 0 1 0 3842)">
	<stop  offset="5.391326e-04" style="stop-color:#90FE83"/>
	<stop  offset="1" style="stop-color:#399036"/>
</linearGradient>
<circle style="fill:url(#SVGID_00000157989627859412580920000005738533486820155537_);stroke:#030304;stroke-miterlimit:10;" cx="256" cy="1280" r="196.3"/>
<linearGradient id="SVGID_00000069387371077470199780000015049617323081355186_" gradientUnits="userSpaceOnUse" x1="256.1" y1="196.4001" x2="256.1" y2="-4.7" gradientTransform="matrix(1 0 0 1 0 1280)">
	<stop  offset="0" style="stop-color:#FFFFFF;stop-opacity:5.000000e-02"/>
	<stop  offset="1" style="stop-color:#FFFFFF"/>
</linearGradient>
<path style="opacity:0.4;fill:url(#SVGID_00000069387371077470199780000015049617323081355186_);enable-background:new    ;" d="
	M336.3,1311.5c-87.4,3.9-130.8-33.1-179.6-36.2c-38.1,1.2-79.8,19.7-96.2,27.8c11.4,97.6,94.3,173.3,194.9,173.3
	c108.4,0,196.3-87.9,196.3-196.3c0-0.5,0-0.9,0-1.4C420.9,1293.9,379.5,1309.5,336.3,1311.5z"/>
<linearGradient id="SVGID_00000089535158447612690700000006154723832353124232_" gradientUnits="userSpaceOnUse" x1="133.6796" y1="-1838.1349" x2="378.3204" y2="-2261.8652" gradientTransform="matrix(1 0 0 1 0 3842)">
	<stop  offset="0" style="stop-color:#5F6C7C"/>
	<stop  offset="1" style="stop-color:#D7D6D9"/>
</linearGradient>
<circle style="fill:url(#SVGID_00000089535158447612690700000006154723832353124232_);stroke:#676767;stroke-width:9;stroke-miterlimit:10;" cx="256" cy="1792" r="244.6"/>
<linearGradient id="SVGID_00000137812436499804842980000000085686486586441150_" gradientUnits="userSpaceOnUse" x1="363.6172" y1="-2236.3987" x2="148.3828" y2="-1863.6013" gradientTransform="matrix(1 0 0 1 0 3842)">
	<stop  offset="1.078831e-03" style="stop-color:#333F4F"/>
	<stop  offset="1" style="stop-color:#FFFFFF"/>
</linearGradient>
<circle style="opacity:0.5;fill:none;stroke:url(#SVGID_00000137812436499804842980000000085686486586441150_);stroke-width:16;stroke-miterlimit:10;enable-background:new    ;" cx="256" cy="1792" r="207.2"/>
<linearGradient id="SVGID_00000055705137242269030780000002195695901526064794_" gradientUnits="userSpaceOnUse" x1="256" y1="-2246.3" x2="256" y2="-1853.7" gradientTransform="matrix(1 0 0 1 0 3842)">
	<stop  offset="0" style="stop-color:#949494"/>
	<stop  offset="1" style="stop-color:#1E1E1E"/>
</linearGradient>
<circle style="fill:url(#SVGID_00000055705137242269030780000002195695901526064794_);stroke:#333333;stroke-miterlimit:10;" cx="256" cy="1792" r="196.3"/>
<linearGradient id="SVGID_00000176039284924306826720000006864695497273366442_" gradientUnits="userSpaceOnUse" x1="256.1" y1="708.4001" x2="256.1" y2="507.3" gradientTransform="matrix(1 0 0 1 0 1280)">
	<stop  offset="0" style="stop-color:#FFFFFF;stop-opacity:5.000000e-02"/>
	<stop  offset="1" style="stop-color:#FFFFFF"/>
</linearGradient>
<path style="opacity:0.4;fill:url(#SVGID_00000176039284924306826720000006864695497273366442_);enable-background:new    ;" d="
	M336.3,1823.5c-87.4,3.9-130.8-33.1-179.6-36.2c-38.1,1.2-79.8,19.7-96.2,27.8c11.4,97.6,94.3,173.3,194.9,173.3
	c108.4,0,196.3-87.9,196.3-196.3c0-0.5,0-0.9,0-1.4C420.9,1805.9,379.5,1821.5,336.3,1823.5z"/>
<g class="st16">
	<ellipse class="st17" cx="257.1" cy="184.6" rx="91.7" ry="43.6"/>
	<path class="st17" d="M308.9,260.4c3.7-12.8,7.9-25.9,12.1-37c-16.8,9-36.5,14.3-63.9,14.3c-50.7,0-91.7-19.5-91.7-43.6v33.7h0.1
		c2.2,23.1,42.4,41.6,91.6,41.6C278.5,269.3,293.3,266.2,308.9,260.4z"/>
	<g>
		<path class="st17" d="M264.8,280.3c10.3,3.5,21.5,14,29.7,23.4c2.2-8.6,5-19.3,8.2-30.5c-12.8,3.5-27.5,5.6-43.3,5.8
			C261.8,279.2,263.7,279.9,264.8,280.3z"/>
		<path class="st17" d="M237.6,293.6l6.2-8.8c2.6-3.7,5.9-5.4,9.1-6c-48.7-1.1-87.5-20.1-87.5-43.5v33.7h0.1
			c1.9,19.7,31.3,36,70.4,40.4C233.7,304.3,234.2,298.3,237.6,293.6z"/>
	</g>
	<g>
		<path class="st17" d="M246.9,319.8c-45.9-2.4-81.6-20.9-81.6-43.3v33.7h0.1c2.2,23.1,42.4,41.6,91.6,41.6c7.4,0,14.7-0.4,21.6-1.2
			C268.3,338.3,257.5,327.2,246.9,319.8z"/>
		<path class="st17" d="M327.5,336c12.4-7.1,20.3-16.1,21.2-25.9h0.1v-33.7c0,6.3-2.8,12.3-7.9,17.7
			C336.3,307.4,331.8,321.3,327.5,336z"/>
	</g>
	<path class="st17" d="M345.7,211.3l10.8,10.1c1.9,1.8,2.6,4.6,1.8,7.1c-20.6,42.9-36.4,91.2-49.5,142.5
		c-20.5-26.8-41.1-51.8-61.9-63.8c-2.2-2.3-2.5-5.9-0.7-8.5l6.2-8.8c2.4-3.4,6.2-2.3,10.1-0.9c16.3,5.4,37.5,35.6,37.5,35.6
		s19.2-82.9,34.7-110.3C337.1,209.9,342.1,207.9,345.7,211.3z"/>
</g>
<g class="st16">
	<ellipse class="st17" cx="257.1" cy="696.6" rx="91.7" ry="43.6"/>
	<path class="st17" d="M308.9,772.4c3.7-12.8,7.9-25.9,12.1-37c-16.8,9-36.5,14.3-63.9,14.3c-50.7,0-91.7-19.5-91.7-43.6v33.7h0.1
		c2.2,23.1,42.4,41.6,91.6,41.6C278.5,781.3,293.3,778.2,308.9,772.4z"/>
	<g>
		<path class="st17" d="M264.8,792.3c10.3,3.5,21.5,14,29.7,23.4c2.2-8.6,5-19.3,8.2-30.5c-12.8,3.5-27.5,5.6-43.3,5.8
			C261.8,791.2,263.7,791.9,264.8,792.3z"/>
		<path class="st17" d="M237.6,805.6l6.2-8.8c2.6-3.7,5.9-5.4,9.1-6c-48.7-1.1-87.5-20.1-87.5-43.5v33.7h0.1
			c1.9,19.7,31.3,36,70.4,40.4C233.7,816.3,234.2,810.3,237.6,805.6z"/>
	</g>
	<g>
		<path class="st17" d="M246.9,831.8c-45.9-2.4-81.6-20.9-81.6-43.3v33.7h0.1c2.2,23.1,42.4,41.6,91.6,41.6c7.4,0,14.7-0.4,21.6-1.2
			C268.3,850.3,257.5,839.2,246.9,831.8z"/>
		<path class="st17" d="M327.5,848c12.4-7.1,20.3-16.1,21.2-25.9h0.1v-33.7c0,6.3-2.8,12.3-7.9,17.7
			C336.3,819.4,331.8,833.3,327.5,848z"/>
	</g>
	<path class="st17" d="M345.7,723.3l10.8,10.1c1.9,1.8,2.6,4.6,1.8,7.1c-20.6,42.9-36.4,91.2-49.5,142.5
		c-20.5-26.8-41.1-51.8-61.9-63.8c-2.2-2.3-2.5-5.9-0.7-8.5l6.2-8.8c2.4-3.4,6.2-2.3,10.1-0.9c16.3,5.4,37.5,35.6,37.5,35.6
		s19.2-82.9,34.7-110.3C337.1,721.9,342.1,719.9,345.7,723.3z"/>
</g>
<g class="st16">
	<ellipse class="st17" cx="257.1" cy="1208.6" rx="91.7" ry="43.6"/>
	<path class="st17" d="M308.9,1284.4c3.7-12.8,7.9-25.9,12.1-37c-16.8,9-36.5,14.3-63.9,14.3c-50.7,0-91.7-19.5-91.7-43.6v33.7h0.1
		c2.2,23.1,42.4,41.6,91.6,41.6C278.5,1293.3,293.3,1290.2,308.9,1284.4z"/>
	<g>
		<path class="st17" d="M264.8,1304.3c10.3,3.5,21.5,14,29.7,23.4c2.2-8.6,5-19.3,8.2-30.5c-12.8,3.5-27.5,5.6-43.3,5.8
			C261.8,1303.2,263.7,1303.9,264.8,1304.3z"/>
		<path class="st17" d="M237.6,1317.6l6.2-8.8c2.6-3.7,5.9-5.4,9.1-6c-48.7-1.1-87.5-20.1-87.5-43.5v33.7h0.1
			c1.9,19.7,31.3,36,70.4,40.4C233.7,1328.3,234.2,1322.3,237.6,1317.6z"/>
	</g>
	<g>
		<path class="st17" d="M246.9,1343.8c-45.9-2.4-81.6-20.9-81.6-43.3v33.7h0.1c2.2,23.1,42.4,41.6,91.6,41.6
			c7.4,0,14.7-0.4,21.6-1.2C268.3,1362.3,257.5,1351.2,246.9,1343.8z"/>
		<path class="st17" d="M327.5,1360c12.4-7.1,20.3-16.1,21.2-25.9h0.1v-33.7c0,6.3-2.8,12.3-7.9,17.7
			C336.3,1331.4,331.8,1345.3,327.5,1360z"/>
	</g>
	<path class="st17" d="M345.7,1235.3l10.8,10.1c1.9,1.8,2.6,4.6,1.8,7.1c-20.6,42.9-36.4,91.2-49.5,142.5
		c-20.5-26.8-41.1-51.8-61.9-63.8c-2.2-2.3-2.5-5.9-0.7-8.5l6.2-8.8c2.4-3.4,6.2-2.3,10.1-0.9c16.3,5.4,37.5,35.6,37.5,35.6
		s19.2-82.9,34.7-110.3C337.1,1233.9,342.1,1231.9,345.7,1235.3z"/>
</g>
<g class="st16">
	<ellipse class="st17" cx="251.1" cy="1720.6" rx="91.7" ry="43.6"/>
	<path class="st17" d="M302.9,1796.4c3.7-12.8,7.9-25.9,12.1-37c-16.8,9-36.5,14.3-63.9,14.3c-50.7,0-91.7-19.5-91.7-43.6v33.7h0.1
		c2.2,23.1,42.4,41.6,91.6,41.6C272.5,1805.3,287.3,1802.2,302.9,1796.4z"/>
	<g>
		<path class="st17" d="M258.8,1816.3c10.3,3.5,21.5,14,29.7,23.4c2.2-8.6,5-19.3,8.2-30.5c-12.8,3.5-27.5,5.6-43.3,5.8
			C255.8,1815.2,257.7,1815.9,258.8,1816.3z"/>
		<path class="st17" d="M231.6,1829.6l6.2-8.8c2.6-3.7,5.9-5.4,9.1-6c-48.7-1.1-87.5-20.1-87.5-43.5v33.7h0.1
			c1.9,19.7,31.3,36,70.4,40.4C227.7,1840.3,228.2,1834.3,231.6,1829.6z"/>
	</g>
	<g>
		<path class="st17" d="M240.9,1855.8c-45.9-2.4-81.6-20.9-81.6-43.3v33.7h0.1c2.2,23.1,42.4,41.6,91.6,41.6
			c7.4,0,14.7-0.4,21.6-1.2C262.3,1874.3,251.5,1863.2,240.9,1855.8z"/>
		<path class="st17" d="M321.5,1872c12.4-7.1,20.3-16.1,21.2-25.9h0.1v-33.7c0,6.3-2.8,12.3-7.9,17.7
			C330.3,1843.4,325.8,1857.3,321.5,1872z"/>
	</g>
	<path class="st17" d="M339.7,1747.3l10.8,10.1c1.9,1.8,2.6,4.6,1.8,7.1c-20.6,42.9-36.4,91.2-49.5,142.5
		c-20.5-26.8-41.1-51.8-61.9-63.8c-2.2-2.3-2.5-5.9-0.7-8.5l6.2-8.8c2.4-3.4,6.2-2.3,10.1-0.9c16.3,5.4,37.5,35.6,37.5,35.6
		s19.2-82.9,34.7-110.3C331.1,1745.9,336.1,1743.9,339.7,1747.3z"/>
</g>
</svg>
