<?xml version="1.0" encoding="utf-8"?>
<!-- Generator: Adobe Illustrator 27.1.0, SVG Export Plug-In . SVG Version: 6.00 Build 0)  -->
<svg version="1.1" id="Calque_1" xmlns="http://www.w3.org/2000/svg" xmlns:xlink="http://www.w3.org/1999/xlink" x="0px" y="0px"
	 viewBox="0 0 512 2048" style="enable-background:new 0 0 512 2048;" xml:space="preserve">
<style type="text/css">
	.st0{fill:url(#SVGID_1_);stroke:#676767;stroke-width:9;stroke-miterlimit:10;}
	
		.st1{opacity:0.5;fill:none;stroke:url(#SVGID_00000172430669259857970350000016419369850251357578_);stroke-width:16;stroke-miterlimit:10;enable-background:new    ;}
	.st2{fill:url(#SVGID_00000175283755026605774520000002056319167142188418_);stroke:#333333;stroke-miterlimit:10;}
	
		.st3{opacity:0.4;fill:url(#SVGID_00000155127162049004896790000014107937598867847611_);stroke:#333333;stroke-miterlimit:10;enable-background:new    ;}
	.st4{fill:url(#SVGID_00000079473757681346901970000012304047482758323131_);stroke:#676767;stroke-width:9;stroke-miterlimit:10;}
	
		.st5{opacity:0.5;fill:none;stroke:url(#SVGID_00000054982978650253568400000006869508268050509747_);stroke-width:16;stroke-miterlimit:10;enable-background:new    ;}
	.st6{fill:url(#SVGID_00000164485982176746174780000013927279616113530009_);stroke:#030304;stroke-miterlimit:10;}
	.st7{opacity:0.4;fill:url(#SVGID_00000096040842107841257910000003461337154839433860_);enable-background:new    ;}
	.st8{fill:url(#SVGID_00000054257414025293269610000010381740315168961437_);stroke:#676767;stroke-width:9;stroke-miterlimit:10;}
	
		.st9{opacity:0.5;fill:none;stroke:url(#SVGID_00000152260751003190292020000005266467505469761683_);stroke-width:16;stroke-miterlimit:10;enable-background:new    ;}
	.st10{fill:url(#SVGID_00000083072069975019321890000005749051045124252574_);stroke:#030304;stroke-miterlimit:10;}
	.st11{opacity:0.4;fill:url(#SVGID_00000029740637852986834960000014784323520489221799_);enable-background:new    ;}
	.st12{fill:url(#SVGID_00000102504894989285346570000001228097684514345126_);stroke:#676767;stroke-width:9;stroke-miterlimit:10;}
	
		.st13{opacity:0.5;fill:none;stroke:url(#SVGID_00000169523051017735852460000004680328062713380013_);stroke-width:16;stroke-miterlimit:10;enable-background:new    ;}
	.st14{fill:url(#SVGID_00000127766385253335464360000014011833684563773630_);stroke:#333333;stroke-miterlimit:10;}
	.st15{opacity:0.4;fill:url(#SVGID_00000006691824203296711000000000288923651718618810_);enable-background:new    ;}
	.st16{opacity:0.9;}
	.st17{fill:#FFFFFF;stroke:#333333;stroke-miterlimit:10;}
</style>
<linearGradient id="SVGID_1_" gradientUnits="userSpaceOnUse" x1="133.6796" y1="-3374.1348" x2="378.3204" y2="-3797.8652" gradientTransform="matrix(1 0 0 1 0 3842)">
	<stop  offset="0" style="stop-color:#5F6C7C"/>
	<stop  offset="1" style="stop-color:#D7D6D9"/>
</linearGradient>
<circle class="st0" cx="256" cy="256" r="244.6"/>
<linearGradient id="SVGID_00000168806395257348425050000008235813734074149000_" gradientUnits="userSpaceOnUse" x1="363.6173" y1="-1210.3987" x2="148.3827" y2="-837.6013" gradientTransform="matrix(1 0 0 1 0 1280)">
	<stop  offset="1.078831e-03" style="stop-color:#333F4F"/>
	<stop  offset="1" style="stop-color:#FFFFFF"/>
</linearGradient>
<circle style="opacity:0.5;fill:none;stroke:url(#SVGID_00000168806395257348425050000008235813734074149000_);stroke-width:16;stroke-miterlimit:10;enable-background:new    ;" cx="256" cy="256" r="207.2"/>
<linearGradient id="SVGID_00000097459894328048569820000007830331635627543983_" gradientUnits="userSpaceOnUse" x1="256" y1="-3782.3" x2="256" y2="-3389.7" gradientTransform="matrix(1 0 0 1 0 3842)">
	<stop  offset="5.392733e-04" style="stop-color:#60B2E4"/>
	<stop  offset="1" style="stop-color:#646AAF"/>
</linearGradient>
<circle style="fill:url(#SVGID_00000097459894328048569820000007830331635627543983_);stroke:#333333;stroke-miterlimit:10;" cx="256" cy="256" r="196.3"/>
<linearGradient id="SVGID_00000030483239319851942920000010455516868156801948_" gradientUnits="userSpaceOnUse" x1="256.1" y1="-827.6" x2="256.1" y2="-1028.7" gradientTransform="matrix(1 0 0 1 0 1280)">
	<stop  offset="0" style="stop-color:#FFFFFF;stop-opacity:5.000000e-02"/>
	<stop  offset="1" style="stop-color:#FFFFFF"/>
</linearGradient>
<path style="opacity:0.4;fill:url(#SVGID_00000030483239319851942920000010455516868156801948_);stroke:#333333;stroke-miterlimit:10;enable-background:new    ;" d="
	M336.3,287.5c-87.4,3.9-130.8-33.1-179.6-36.2c-38.1,1.2-79.8,19.7-96.2,27.8c11.4,97.6,94.3,173.3,194.9,173.3
	c108.4,0,196.3-87.9,196.3-196.3c0-0.5,0-0.9,0-1.4C420.9,269.9,379.5,285.5,336.3,287.5z"/>
<linearGradient id="SVGID_00000132047085784547330920000001786762327359850406_" gradientUnits="userSpaceOnUse" x1="133.6796" y1="-2862.1348" x2="378.3204" y2="-3285.8652" gradientTransform="matrix(1 0 0 1 0 3842)">
	<stop  offset="0" style="stop-color:#5F6C7C"/>
	<stop  offset="1" style="stop-color:#D7D6D9"/>
</linearGradient>
<circle style="fill:url(#SVGID_00000132047085784547330920000001786762327359850406_);stroke:#676767;stroke-width:9;stroke-miterlimit:10;" cx="256" cy="768" r="244.6"/>
<linearGradient id="SVGID_00000175297063769558850320000013013646053485630608_" gradientUnits="userSpaceOnUse" x1="363.6173" y1="-3260.3987" x2="148.3827" y2="-2887.6013" gradientTransform="matrix(1 0 0 1 0 3842)">
	<stop  offset="1.078831e-03" style="stop-color:#333F4F"/>
	<stop  offset="1" style="stop-color:#FFFFFF"/>
</linearGradient>
<circle style="opacity:0.5;fill:none;stroke:url(#SVGID_00000175297063769558850320000013013646053485630608_);stroke-width:16;stroke-miterlimit:10;enable-background:new    ;" cx="256" cy="768" r="207.2"/>
<linearGradient id="SVGID_00000165203935395285368370000008450697647778317953_" gradientUnits="userSpaceOnUse" x1="256" y1="-3270.3" x2="256" y2="-2877.7" gradientTransform="matrix(1 0 0 1 0 3842)">
	<stop  offset="2.194295e-07" style="stop-color:#FDFC04"/>
	<stop  offset="0.9995" style="stop-color:#BC8017"/>
</linearGradient>
<circle style="fill:url(#SVGID_00000165203935395285368370000008450697647778317953_);stroke:#030304;stroke-miterlimit:10;" cx="256" cy="768" r="196.3"/>
<linearGradient id="SVGID_00000155840971638061158590000017087500447195200657_" gradientUnits="userSpaceOnUse" x1="256.1" y1="-315.6" x2="256.1" y2="-516.7" gradientTransform="matrix(1 0 0 1 0 1280)">
	<stop  offset="0" style="stop-color:#FFFFFF;stop-opacity:5.000000e-02"/>
	<stop  offset="1" style="stop-color:#FFFFFF"/>
</linearGradient>
<path style="opacity:0.4;fill:url(#SVGID_00000155840971638061158590000017087500447195200657_);enable-background:new    ;" d="
	M336.3,799.5c-87.4,3.9-130.8-33.1-179.6-36.2c-38.1,1.2-79.8,19.7-96.2,27.8c11.4,97.6,94.3,173.3,194.9,173.3
	c108.4,0,196.3-87.9,196.3-196.3c0-0.5,0-0.9,0-1.4C420.9,781.9,379.5,797.5,336.3,799.5z"/>
<linearGradient id="SVGID_00000018942201129748385400000006178584284216719037_" gradientUnits="userSpaceOnUse" x1="133.6796" y1="-2350.1348" x2="378.3204" y2="-2773.8652" gradientTransform="matrix(1 0 0 1 0 3842)">
	<stop  offset="0" style="stop-color:#5F6C7C"/>
	<stop  offset="1" style="stop-color:#D7D6D9"/>
</linearGradient>
<circle style="fill:url(#SVGID_00000018942201129748385400000006178584284216719037_);stroke:#676767;stroke-width:9;stroke-miterlimit:10;" cx="256" cy="1280" r="244.6"/>
<linearGradient id="SVGID_00000156586156049101942290000001849318466631057577_" gradientUnits="userSpaceOnUse" x1="363.6172" y1="-2748.3987" x2="148.3828" y2="-2375.6013" gradientTransform="matrix(1 0 0 1 0 3842)">
	<stop  offset="1.078831e-03" style="stop-color:#333F4F"/>
	<stop  offset="1" style="stop-color:#FFFFFF"/>
</linearGradient>
<circle style="opacity:0.5;fill:none;stroke:url(#SVGID_00000156586156049101942290000001849318466631057577_);stroke-width:16;stroke-miterlimit:10;enable-background:new    ;" cx="256" cy="1280" r="207.2"/>
<linearGradient id="SVGID_00000170267404184154162540000002400654891893701038_" gradientUnits="userSpaceOnUse" x1="256" y1="-2758.3" x2="256" y2="-2365.7" gradientTransform="matrix(1 0 0 1 0 3842)">
	<stop  offset="5.391326e-04" style="stop-color:#90FE83"/>
	<stop  offset="1" style="stop-color:#399036"/>
</linearGradient>
<circle style="fill:url(#SVGID_00000170267404184154162540000002400654891893701038_);stroke:#030304;stroke-miterlimit:10;" cx="256" cy="1280" r="196.3"/>
<linearGradient id="SVGID_00000001659114040735027140000011151523262398981050_" gradientUnits="userSpaceOnUse" x1="256.1" y1="196.4001" x2="256.1" y2="-4.7" gradientTransform="matrix(1 0 0 1 0 1280)">
	<stop  offset="0" style="stop-color:#FFFFFF;stop-opacity:5.000000e-02"/>
	<stop  offset="1" style="stop-color:#FFFFFF"/>
</linearGradient>
<path style="opacity:0.4;fill:url(#SVGID_00000001659114040735027140000011151523262398981050_);enable-background:new    ;" d="
	M336.3,1311.5c-87.4,3.9-130.8-33.1-179.6-36.2c-38.1,1.2-79.8,19.7-96.2,27.8c11.4,97.6,94.3,173.3,194.9,173.3
	c108.4,0,196.3-87.9,196.3-196.3c0-0.5,0-0.9,0-1.4C420.9,1293.9,379.5,1309.5,336.3,1311.5z"/>
<linearGradient id="SVGID_00000034804741558227898680000003709693540164577170_" gradientUnits="userSpaceOnUse" x1="133.6796" y1="-1838.1349" x2="378.3204" y2="-2261.8652" gradientTransform="matrix(1 0 0 1 0 3842)">
	<stop  offset="0" style="stop-color:#5F6C7C"/>
	<stop  offset="1" style="stop-color:#D7D6D9"/>
</linearGradient>
<circle style="fill:url(#SVGID_00000034804741558227898680000003709693540164577170_);stroke:#676767;stroke-width:9;stroke-miterlimit:10;" cx="256" cy="1792" r="244.6"/>
<linearGradient id="SVGID_00000080925815173834201700000016637403515269781927_" gradientUnits="userSpaceOnUse" x1="363.6172" y1="-2236.3987" x2="148.3828" y2="-1863.6013" gradientTransform="matrix(1 0 0 1 0 3842)">
	<stop  offset="1.078831e-03" style="stop-color:#333F4F"/>
	<stop  offset="1" style="stop-color:#FFFFFF"/>
</linearGradient>
<circle style="opacity:0.5;fill:none;stroke:url(#SVGID_00000080925815173834201700000016637403515269781927_);stroke-width:16;stroke-miterlimit:10;enable-background:new    ;" cx="256" cy="1792" r="207.2"/>
<linearGradient id="SVGID_00000108988586447708367350000001978091026630294443_" gradientUnits="userSpaceOnUse" x1="256" y1="-2246.3" x2="256" y2="-1853.7" gradientTransform="matrix(1 0 0 1 0 3842)">
	<stop  offset="0" style="stop-color:#949494"/>
	<stop  offset="1" style="stop-color:#1E1E1E"/>
</linearGradient>
<circle style="fill:url(#SVGID_00000108988586447708367350000001978091026630294443_);stroke:#333333;stroke-miterlimit:10;" cx="256" cy="1792" r="196.3"/>
<linearGradient id="SVGID_00000110433847156634919740000002025485923601955473_" gradientUnits="userSpaceOnUse" x1="256.1" y1="708.4001" x2="256.1" y2="507.3" gradientTransform="matrix(1 0 0 1 0 1280)">
	<stop  offset="0" style="stop-color:#FFFFFF;stop-opacity:5.000000e-02"/>
	<stop  offset="1" style="stop-color:#FFFFFF"/>
</linearGradient>
<path style="opacity:0.4;fill:url(#SVGID_00000110433847156634919740000002025485923601955473_);enable-background:new    ;" d="
	M336.3,1823.5c-87.4,3.9-130.8-33.1-179.6-36.2c-38.1,1.2-79.8,19.7-96.2,27.8c11.4,97.6,94.3,173.3,194.9,173.3
	c108.4,0,196.3-87.9,196.3-196.3c0-0.5,0-0.9,0-1.4C420.9,1805.9,379.5,1821.5,336.3,1823.5z"/>
<g class="st16">
	<g>
		<path class="st17" d="M298.9,271.6l38.4-27.9c3.4-2.5,7.7-3.4,11.8-2.7c0.8,0.2,1.7,0.4,2.5,0.7c0.7-1.9,1.2-3.9,1.3-5.9h0.1V199
			c0,23-34.4,42.2-80,46.6L298.9,271.6z"/>
		<path class="st17" d="M219.4,263.5c-5.2-4.5-8.2-10.7-8.7-17.6c-0.1-1.3-0.1-2.5,0-3.7c-34.3-7.5-58.1-24.1-58.1-43.2v36.7h0.1
			c2.2,23.1,39.1,41.9,86.4,44.9L219.4,263.5z"/>
	</g>
	<g>
		<path class="st17" d="M352.9,280.7h0.1v-11.1L325,297.7l8.8,8.8C345,299.2,351.9,290.3,352.9,280.7z"/>
		<path class="st17" d="M230.7,320.1l29.4-21.4l-8.3-7.2c-54.8-0.3-99.2-21.5-99.2-47.6v36.7h0.1c2,20.9,32.4,38.3,73.4,43.7
			C227.5,322.8,229,321.4,230.7,320.1z"/>
	</g>
	<g>
		<path class="st17" d="M340.2,312.1l12.8,12.8v-36C353,297.3,348.3,305.3,340.2,312.1z"/>
		<path class="st17" d="M298.5,331.2c-3.1,0.8-6.3,1.4-9.5,2l-24.9,25c-9.7,9.7-25.3,10.2-35.5,1c-5.8-5.2-8.9-12.7-8.5-20.5
			c0.1-1.7,0.3-3.3,0.7-4.8c-39.6-6.3-68.2-24.1-68.2-45.1v36.7h0.1c2.4,25.3,46.3,45.4,100,45.4c29.2,0,55.4-5.9,73.7-15.4
			L298.5,331.2z"/>
	</g>
	<path class="st17" d="M216.6,226.1c4.6-5.1,11.2-8.1,18.1-8.3c6.9-0.2,13.6,2.5,18.5,7.4l10.7,10.7c50.1-2.6,89-22.8,89-47.3
		c0-26.3-44.8-47.6-100.1-47.6c-55.3,0-100.1,21.3-100.1,47.6c0,19.5,24.6,36.2,59.9,43.6C213.6,230,215,227.9,216.6,226.1z"/>
	<path class="st17" d="M368.8,356.3l-57.6-57.6l38.8-39.1c1.6-1.6,1.8-4,0.6-5.9l0,0c-1.5-2.3-4.6-2.9-6.8-1.3l-45.7,33.2
		l-51.4-51.4c-6-6-15.7-5.7-21.4,0.5l0,0c-5.5,6.1-5,15.6,1.3,21l51.3,44.5l-40.1,29.2c-7.8,5.7-8.4,17.1-1.2,23.6l0,0
		c6,5.4,15.2,5.2,21-0.6l37.3-37.6l62.1,53.9c3.4,3,8.5,2.8,11.7-0.4l0,0C372.2,365.1,372.2,359.7,368.8,356.3z"/>
</g>
<g class="st16">
	<g>
		<path class="st17" d="M298.9,783.6l38.4-27.9c3.4-2.5,7.7-3.4,11.8-2.7c0.8,0.2,1.7,0.4,2.5,0.7c0.7-1.9,1.2-3.9,1.3-5.9h0.1V711
			c0,23-34.4,42.2-80,46.6L298.9,783.6z"/>
		<path class="st17" d="M219.4,775.5c-5.2-4.5-8.2-10.7-8.7-17.6c-0.1-1.3-0.1-2.5,0-3.7c-34.3-7.5-58.1-24.1-58.1-43.2v36.7h0.1
			c2.2,23.1,39.1,41.9,86.4,44.9L219.4,775.5z"/>
	</g>
	<g>
		<path class="st17" d="M352.9,792.7h0.1v-11.1L325,809.7l8.8,8.8C345,811.2,351.9,802.3,352.9,792.7z"/>
		<path class="st17" d="M230.7,832.1l29.4-21.4l-8.3-7.2c-54.8-0.3-99.2-21.5-99.2-47.6v36.7h0.1c2,20.9,32.4,38.3,73.4,43.7
			C227.5,834.8,229,833.4,230.7,832.1z"/>
	</g>
	<g>
		<path class="st17" d="M340.2,824.1l12.8,12.8v-36C353,809.3,348.3,817.3,340.2,824.1z"/>
		<path class="st17" d="M298.5,843.2c-3.1,0.8-6.3,1.4-9.5,2l-24.9,25c-9.7,9.7-25.3,10.2-35.5,1c-5.8-5.2-8.9-12.7-8.5-20.5
			c0.1-1.7,0.3-3.3,0.7-4.8c-39.6-6.3-68.2-24.1-68.2-45.1v36.7h0.1c2.4,25.3,46.3,45.4,100,45.4c29.2,0,55.4-5.9,73.7-15.4
			L298.5,843.2z"/>
	</g>
	<path class="st17" d="M216.6,738.1c4.6-5.1,11.2-8.1,18.1-8.3c6.9-0.2,13.6,2.5,18.5,7.4l10.7,10.7c50.1-2.6,89-22.8,89-47.3
		c0-26.3-44.8-47.6-100.1-47.6c-55.3,0-100.1,21.3-100.1,47.6c0,19.5,24.6,36.2,59.9,43.6C213.6,742,215,739.9,216.6,738.1z"/>
	<path class="st17" d="M368.8,868.3l-57.6-57.6l38.8-39.1c1.6-1.6,1.8-4,0.6-5.9l0,0c-1.5-2.3-4.6-2.9-6.8-1.3l-45.7,33.2
		l-51.4-51.4c-6-6-15.7-5.7-21.4,0.5l0,0c-5.5,6.1-5,15.6,1.3,21l51.3,44.5l-40.1,29.2c-7.8,5.7-8.4,17.1-1.2,23.6l0,0
		c6,5.4,15.2,5.2,21-0.6l37.3-37.6l62.1,53.9c3.4,3,8.5,2.8,11.7-0.4l0,0C372.2,877.1,372.2,871.7,368.8,868.3z"/>
</g>
<g class="st16">
	<g>
		<path class="st17" d="M298.9,1295.6l38.4-27.9c3.4-2.5,7.7-3.4,11.8-2.7c0.8,0.2,1.7,0.4,2.5,0.7c0.7-1.9,1.2-3.9,1.3-5.9h0.1
			V1223c0,23-34.4,42.2-80,46.6L298.9,1295.6z"/>
		<path class="st17" d="M219.4,1287.5c-5.2-4.5-8.2-10.7-8.7-17.6c-0.1-1.3-0.1-2.5,0-3.7c-34.3-7.5-58.1-24.1-58.1-43.2v36.7h0.1
			c2.2,23.1,39.1,41.9,86.4,44.9L219.4,1287.5z"/>
	</g>
	<g>
		<path class="st17" d="M352.9,1304.7h0.1v-11.1l-27.9,28.1l8.8,8.8C345,1323.2,351.9,1314.3,352.9,1304.7z"/>
		<path class="st17" d="M230.7,1344.1l29.4-21.4l-8.3-7.2c-54.8-0.3-99.2-21.5-99.2-47.6v36.7h0.1c2,20.9,32.4,38.3,73.4,43.7
			C227.5,1346.8,229,1345.4,230.7,1344.1z"/>
	</g>
	<g>
		<path class="st17" d="M340.2,1336.1l12.8,12.8v-36C353,1321.3,348.3,1329.3,340.2,1336.1z"/>
		<path class="st17" d="M298.5,1355.2c-3.1,0.8-6.3,1.4-9.5,2l-24.9,25c-9.7,9.7-25.3,10.2-35.5,1c-5.8-5.2-8.9-12.7-8.5-20.5
			c0.1-1.7,0.3-3.3,0.7-4.8c-39.6-6.3-68.2-24.1-68.2-45.1v36.7h0.1c2.4,25.3,46.3,45.4,100,45.4c29.2,0,55.4-5.9,73.7-15.4
			L298.5,1355.2z"/>
	</g>
	<path class="st17" d="M216.6,1250.1c4.6-5.1,11.2-8.1,18.1-8.3c6.9-0.2,13.6,2.5,18.5,7.4l10.7,10.7c50.1-2.6,89-22.8,89-47.3
		c0-26.3-44.8-47.6-100.1-47.6c-55.3,0-100.1,21.3-100.1,47.6c0,19.5,24.6,36.2,59.9,43.6C213.6,1254,215,1251.9,216.6,1250.1z"/>
	<path class="st17" d="M368.8,1380.3l-57.6-57.6l38.8-39.1c1.6-1.6,1.8-4,0.6-5.9l0,0c-1.5-2.3-4.6-2.9-6.8-1.3l-45.7,33.2
		l-51.4-51.4c-6-6-15.7-5.7-21.4,0.5l0,0c-5.5,6.1-5,15.6,1.3,21l51.3,44.5l-40.1,29.2c-7.8,5.7-8.4,17.1-1.2,23.6l0,0
		c6,5.4,15.2,5.2,21-0.6l37.3-37.6l62.1,53.9c3.4,3,8.5,2.8,11.7-0.4l0,0C372.2,1389.1,372.2,1383.7,368.8,1380.3z"/>
</g>
<g class="st16">
	<g>
		<path class="st17" d="M298.9,1807.6l38.4-27.9c3.4-2.5,7.7-3.4,11.8-2.7c0.8,0.2,1.7,0.4,2.5,0.7c0.7-1.9,1.2-3.9,1.3-5.9h0.1
			V1735c0,23-34.4,42.2-80,46.6L298.9,1807.6z"/>
		<path class="st17" d="M219.4,1799.5c-5.2-4.5-8.2-10.7-8.7-17.6c-0.1-1.3-0.1-2.5,0-3.7c-34.3-7.5-58.1-24.1-58.1-43.2v36.7h0.1
			c2.2,23.1,39.1,41.9,86.4,44.9L219.4,1799.5z"/>
	</g>
	<g>
		<path class="st17" d="M352.9,1816.7h0.1v-11.1l-27.9,28.1l8.8,8.8C345,1835.2,351.9,1826.3,352.9,1816.7z"/>
		<path class="st17" d="M230.7,1856.1l29.4-21.4l-8.3-7.2c-54.8-0.3-99.2-21.5-99.2-47.6v36.7h0.1c2,20.9,32.4,38.3,73.4,43.7
			C227.5,1858.8,229,1857.4,230.7,1856.1z"/>
	</g>
	<g>
		<path class="st17" d="M340.2,1848.1l12.8,12.8v-36C353,1833.3,348.3,1841.3,340.2,1848.1z"/>
		<path class="st17" d="M298.5,1867.2c-3.1,0.8-6.3,1.4-9.5,2l-24.9,25c-9.7,9.7-25.3,10.2-35.5,1c-5.8-5.2-8.9-12.7-8.5-20.5
			c0.1-1.7,0.3-3.3,0.7-4.8c-39.6-6.3-68.2-24.1-68.2-45.1v36.7h0.1c2.4,25.3,46.3,45.4,100,45.4c29.2,0,55.4-5.9,73.7-15.4
			L298.5,1867.2z"/>
	</g>
	<path class="st17" d="M216.6,1762.1c4.6-5.1,11.2-8.1,18.1-8.3c6.9-0.2,13.6,2.5,18.5,7.4l10.7,10.7c50.1-2.6,89-22.8,89-47.3
		c0-26.3-44.8-47.6-100.1-47.6c-55.3,0-100.1,21.3-100.1,47.6c0,19.5,24.6,36.2,59.9,43.6C213.6,1766,215,1763.9,216.6,1762.1z"/>
	<path class="st17" d="M368.8,1892.3l-57.6-57.6l38.8-39.1c1.6-1.6,1.8-4,0.6-5.9l0,0c-1.5-2.3-4.6-2.9-6.8-1.3l-45.7,33.2
		l-51.4-51.4c-6-6-15.7-5.7-21.4,0.5l0,0c-5.5,6.1-5,15.6,1.3,21l51.3,44.5l-40.1,29.2c-7.8,5.7-8.4,17.1-1.2,23.6l0,0
		c6,5.4,15.2,5.2,21-0.6l37.3-37.6l62.1,53.9c3.4,3,8.5,2.8,11.7-0.4l0,0C372.2,1901.1,372.2,1895.7,368.8,1892.3z"/>
</g>
</svg>
