<?xml version="1.0" encoding="utf-8"?>
<!-- Generator: Adobe Illustrator 27.1.0, SVG Export Plug-In . SVG Version: 6.00 Build 0)  -->
<svg version="1.1" id="Calque_1" xmlns="http://www.w3.org/2000/svg" xmlns:xlink="http://www.w3.org/1999/xlink" x="0px" y="0px"
	 viewBox="0 0 512 2048" style="enable-background:new 0 0 512 2048;" xml:space="preserve">
<style type="text/css">
	.st0{fill:url(#SVGID_1_);stroke:#676767;stroke-width:9;stroke-miterlimit:10;}
	
		.st1{opacity:0.5;fill:none;stroke:url(#SVGID_00000180364906164850542940000016138562782078432917_);stroke-width:16;stroke-miterlimit:10;enable-background:new    ;}
	.st2{fill:url(#SVGID_00000124875409186135356420000007487002873882507394_);stroke:#333333;stroke-miterlimit:10;}
	
		.st3{opacity:0.4;fill:url(#SVGID_00000029014068527318252610000011498951425504220290_);stroke:#333333;stroke-miterlimit:10;enable-background:new    ;}
	.st4{fill:url(#SVGID_00000034811991426750541950000018206637779746534285_);stroke:#676767;stroke-width:9;stroke-miterlimit:10;}
	
		.st5{opacity:0.5;fill:none;stroke:url(#SVGID_00000000201531154529195690000010705067589375789980_);stroke-width:16;stroke-miterlimit:10;enable-background:new    ;}
	.st6{fill:url(#SVGID_00000117650737861163032620000015772397776473444239_);stroke:#030304;stroke-miterlimit:10;}
	.st7{opacity:0.4;fill:url(#SVGID_00000002365730366858576650000002973501863547006355_);enable-background:new    ;}
	.st8{fill:url(#SVGID_00000032636539276811645810000003613266814699512227_);stroke:#676767;stroke-width:9;stroke-miterlimit:10;}
	
		.st9{opacity:0.5;fill:none;stroke:url(#SVGID_00000127010408794968277710000013398527458789741192_);stroke-width:16;stroke-miterlimit:10;enable-background:new    ;}
	.st10{fill:url(#SVGID_00000063627315906294339320000010410034950678331311_);stroke:#030304;stroke-miterlimit:10;}
	.st11{opacity:0.4;fill:url(#SVGID_00000057863443875291432930000007295833939742321077_);enable-background:new    ;}
	.st12{fill:url(#SVGID_00000045584907539126994820000014004478693036515469_);stroke:#676767;stroke-width:9;stroke-miterlimit:10;}
	
		.st13{opacity:0.5;fill:none;stroke:url(#SVGID_00000044892406377540961450000004802934626902467519_);stroke-width:16;stroke-miterlimit:10;enable-background:new    ;}
	.st14{fill:url(#SVGID_00000175309999494993092180000003523023331504157855_);stroke:#333333;stroke-miterlimit:10;}
	.st15{opacity:0.4;fill:url(#SVGID_00000140700761881999687910000016309464273120623004_);enable-background:new    ;}
	.st16{opacity:0.9;fill:#FFFFFF;stroke:#333333;stroke-miterlimit:10;}
	.st17{opacity:0.9;}
	.st18{fill:#FFFFFF;stroke:#333333;stroke-miterlimit:10;}
</style>
<linearGradient id="SVGID_1_" gradientUnits="userSpaceOnUse" x1="133.6796" y1="-3374.1348" x2="378.3204" y2="-3797.8652" gradientTransform="matrix(1 0 0 1 0 3842)">
	<stop  offset="0" style="stop-color:#5F6C7C"/>
	<stop  offset="1" style="stop-color:#D7D6D9"/>
</linearGradient>
<circle class="st0" cx="256" cy="256" r="244.6"/>
<linearGradient id="SVGID_00000051359782944323382600000016804520776275365546_" gradientUnits="userSpaceOnUse" x1="363.6173" y1="-1210.3987" x2="148.3827" y2="-837.6013" gradientTransform="matrix(1 0 0 1 0 1280)">
	<stop  offset="1.078831e-03" style="stop-color:#333F4F"/>
	<stop  offset="1" style="stop-color:#FFFFFF"/>
</linearGradient>
<circle style="opacity:0.5;fill:none;stroke:url(#SVGID_00000051359782944323382600000016804520776275365546_);stroke-width:16;stroke-miterlimit:10;enable-background:new    ;" cx="256" cy="256" r="207.2"/>
<linearGradient id="SVGID_00000118380762716147637190000001876031989791818673_" gradientUnits="userSpaceOnUse" x1="256" y1="-3782.3" x2="256" y2="-3389.7" gradientTransform="matrix(1 0 0 1 0 3842)">
	<stop  offset="5.392733e-04" style="stop-color:#60B2E4"/>
	<stop  offset="1" style="stop-color:#646AAF"/>
</linearGradient>
<circle style="fill:url(#SVGID_00000118380762716147637190000001876031989791818673_);stroke:#333333;stroke-miterlimit:10;" cx="256" cy="256" r="196.3"/>
<linearGradient id="SVGID_00000066476265346181523110000005982898592087300525_" gradientUnits="userSpaceOnUse" x1="256.1" y1="-827.6" x2="256.1" y2="-1028.7" gradientTransform="matrix(1 0 0 1 0 1280)">
	<stop  offset="0" style="stop-color:#FFFFFF;stop-opacity:5.000000e-02"/>
	<stop  offset="1" style="stop-color:#FFFFFF"/>
</linearGradient>
<path style="opacity:0.4;fill:url(#SVGID_00000066476265346181523110000005982898592087300525_);stroke:#333333;stroke-miterlimit:10;enable-background:new    ;" d="
	M336.3,287.5c-87.4,3.9-130.8-33.1-179.6-36.2c-38.1,1.2-79.8,19.7-96.2,27.8c11.4,97.6,94.3,173.3,194.9,173.3
	c108.4,0,196.3-87.9,196.3-196.3c0-0.5,0-0.9,0-1.4C420.9,269.9,379.5,285.5,336.3,287.5z"/>
<linearGradient id="SVGID_00000178173637351263234770000009447948257013247164_" gradientUnits="userSpaceOnUse" x1="133.6796" y1="-2862.1348" x2="378.3204" y2="-3285.8652" gradientTransform="matrix(1 0 0 1 0 3842)">
	<stop  offset="0" style="stop-color:#5F6C7C"/>
	<stop  offset="1" style="stop-color:#D7D6D9"/>
</linearGradient>
<circle style="fill:url(#SVGID_00000178173637351263234770000009447948257013247164_);stroke:#676767;stroke-width:9;stroke-miterlimit:10;" cx="256" cy="768" r="244.6"/>
<linearGradient id="SVGID_00000097496694655684412660000018222228121777313437_" gradientUnits="userSpaceOnUse" x1="363.6173" y1="-3260.3987" x2="148.3827" y2="-2887.6013" gradientTransform="matrix(1 0 0 1 0 3842)">
	<stop  offset="1.078831e-03" style="stop-color:#333F4F"/>
	<stop  offset="1" style="stop-color:#FFFFFF"/>
</linearGradient>
<circle style="opacity:0.5;fill:none;stroke:url(#SVGID_00000097496694655684412660000018222228121777313437_);stroke-width:16;stroke-miterlimit:10;enable-background:new    ;" cx="256" cy="768" r="207.2"/>
<linearGradient id="SVGID_00000088130290813589449090000003113047962764054701_" gradientUnits="userSpaceOnUse" x1="256" y1="-3270.3" x2="256" y2="-2877.7" gradientTransform="matrix(1 0 0 1 0 3842)">
	<stop  offset="2.194295e-07" style="stop-color:#FDFC04"/>
	<stop  offset="0.9995" style="stop-color:#BC8017"/>
</linearGradient>
<circle style="fill:url(#SVGID_00000088130290813589449090000003113047962764054701_);stroke:#030304;stroke-miterlimit:10;" cx="256" cy="768" r="196.3"/>
<linearGradient id="SVGID_00000142897868635699641410000013080836518763500430_" gradientUnits="userSpaceOnUse" x1="256.1" y1="-315.6" x2="256.1" y2="-516.7" gradientTransform="matrix(1 0 0 1 0 1280)">
	<stop  offset="0" style="stop-color:#FFFFFF;stop-opacity:5.000000e-02"/>
	<stop  offset="1" style="stop-color:#FFFFFF"/>
</linearGradient>
<path style="opacity:0.4;fill:url(#SVGID_00000142897868635699641410000013080836518763500430_);enable-background:new    ;" d="
	M336.3,799.5c-87.4,3.9-130.8-33.1-179.6-36.2c-38.1,1.2-79.8,19.7-96.2,27.8c11.4,97.6,94.3,173.3,194.9,173.3
	c108.4,0,196.3-87.9,196.3-196.3c0-0.5,0-0.9,0-1.4C420.9,781.9,379.5,797.5,336.3,799.5z"/>
<linearGradient id="SVGID_00000178197542480670375560000010404748163937310138_" gradientUnits="userSpaceOnUse" x1="133.6796" y1="-2350.1348" x2="378.3204" y2="-2773.8652" gradientTransform="matrix(1 0 0 1 0 3842)">
	<stop  offset="0" style="stop-color:#5F6C7C"/>
	<stop  offset="1" style="stop-color:#D7D6D9"/>
</linearGradient>
<circle style="fill:url(#SVGID_00000178197542480670375560000010404748163937310138_);stroke:#676767;stroke-width:9;stroke-miterlimit:10;" cx="256" cy="1280" r="244.6"/>
<linearGradient id="SVGID_00000126289742494628252730000006175630399262279103_" gradientUnits="userSpaceOnUse" x1="363.6172" y1="-2748.3987" x2="148.3828" y2="-2375.6013" gradientTransform="matrix(1 0 0 1 0 3842)">
	<stop  offset="1.078831e-03" style="stop-color:#333F4F"/>
	<stop  offset="1" style="stop-color:#FFFFFF"/>
</linearGradient>
<circle style="opacity:0.5;fill:none;stroke:url(#SVGID_00000126289742494628252730000006175630399262279103_);stroke-width:16;stroke-miterlimit:10;enable-background:new    ;" cx="256" cy="1280" r="207.2"/>
<linearGradient id="SVGID_00000009552884749312222000000006144913956171620762_" gradientUnits="userSpaceOnUse" x1="256" y1="-2758.3" x2="256" y2="-2365.7" gradientTransform="matrix(1 0 0 1 0 3842)">
	<stop  offset="5.391326e-04" style="stop-color:#90FE83"/>
	<stop  offset="1" style="stop-color:#399036"/>
</linearGradient>
<circle style="fill:url(#SVGID_00000009552884749312222000000006144913956171620762_);stroke:#030304;stroke-miterlimit:10;" cx="256" cy="1280" r="196.3"/>
<linearGradient id="SVGID_00000117655092517949045690000002014763111383240100_" gradientUnits="userSpaceOnUse" x1="256.1" y1="196.4001" x2="256.1" y2="-4.7" gradientTransform="matrix(1 0 0 1 0 1280)">
	<stop  offset="0" style="stop-color:#FFFFFF;stop-opacity:5.000000e-02"/>
	<stop  offset="1" style="stop-color:#FFFFFF"/>
</linearGradient>
<path style="opacity:0.4;fill:url(#SVGID_00000117655092517949045690000002014763111383240100_);enable-background:new    ;" d="
	M336.3,1311.5c-87.4,3.9-130.8-33.1-179.6-36.2c-38.1,1.2-79.8,19.7-96.2,27.8c11.4,97.6,94.3,173.3,194.9,173.3
	c108.4,0,196.3-87.9,196.3-196.3c0-0.5,0-0.9,0-1.4C420.9,1293.9,379.5,1309.5,336.3,1311.5z"/>
<linearGradient id="SVGID_00000115498669639926444570000016271523350895294348_" gradientUnits="userSpaceOnUse" x1="133.6796" y1="-1838.1349" x2="378.3204" y2="-2261.8652" gradientTransform="matrix(1 0 0 1 0 3842)">
	<stop  offset="0" style="stop-color:#5F6C7C"/>
	<stop  offset="1" style="stop-color:#D7D6D9"/>
</linearGradient>
<circle style="fill:url(#SVGID_00000115498669639926444570000016271523350895294348_);stroke:#676767;stroke-width:9;stroke-miterlimit:10;" cx="256" cy="1792" r="244.6"/>
<linearGradient id="SVGID_00000061443221581077571650000006733893031411412158_" gradientUnits="userSpaceOnUse" x1="363.6172" y1="-2236.3987" x2="148.3828" y2="-1863.6013" gradientTransform="matrix(1 0 0 1 0 3842)">
	<stop  offset="1.078831e-03" style="stop-color:#333F4F"/>
	<stop  offset="1" style="stop-color:#FFFFFF"/>
</linearGradient>
<circle style="opacity:0.5;fill:none;stroke:url(#SVGID_00000061443221581077571650000006733893031411412158_);stroke-width:16;stroke-miterlimit:10;enable-background:new    ;" cx="256" cy="1792" r="207.2"/>
<linearGradient id="SVGID_00000160159103070902484000000011280179616173836208_" gradientUnits="userSpaceOnUse" x1="256" y1="-2246.3" x2="256" y2="-1853.7" gradientTransform="matrix(1 0 0 1 0 3842)">
	<stop  offset="0" style="stop-color:#949494"/>
	<stop  offset="1" style="stop-color:#1E1E1E"/>
</linearGradient>
<circle style="fill:url(#SVGID_00000160159103070902484000000011280179616173836208_);stroke:#333333;stroke-miterlimit:10;" cx="256" cy="1792" r="196.3"/>
<linearGradient id="SVGID_00000168085137078644075370000007523685205072402320_" gradientUnits="userSpaceOnUse" x1="256.1" y1="708.4001" x2="256.1" y2="507.3" gradientTransform="matrix(1 0 0 1 0 1280)">
	<stop  offset="0" style="stop-color:#FFFFFF;stop-opacity:5.000000e-02"/>
	<stop  offset="1" style="stop-color:#FFFFFF"/>
</linearGradient>
<path style="opacity:0.4;fill:url(#SVGID_00000168085137078644075370000007523685205072402320_);enable-background:new    ;" d="
	M336.3,1823.5c-87.4,3.9-130.8-33.1-179.6-36.2c-38.1,1.2-79.8,19.7-96.2,27.8c11.4,97.6,94.3,173.3,194.9,173.3
	c108.4,0,196.3-87.9,196.3-196.3c0-0.5,0-0.9,0-1.4C420.9,1805.9,379.5,1821.5,336.3,1823.5z"/>
<g>
	<ellipse class="st16" cx="254.9" cy="187.5" rx="97.9" ry="46.5"/>
	<path class="st16" d="M294.2,274.1l0-3.8c0-6.3,3.5-11.9,9.1-14.7c5.6-2.8,12.2-2.2,17.2,1.6l7.1,5.3c14.6-7.7,23.9-17.8,24.9-28.9
		h0.1v-35.9c0,25.7-43.8,46.5-97.9,46.5s-97.9-20.8-97.9-46.5v35.9h0.1c2.4,24.7,45.3,44.4,97.8,44.4
		C268.9,278,282.2,276.6,294.2,274.1z"/>
	<g class="st17">
		<path class="st18" d="M352.4,279.2c0.1-0.5,0.2-1.1,0.2-1.6h0.1v-35.9c0,9.5-6,18.3-16.2,25.6L352.4,279.2z"/>
		<path class="st18" d="M215.2,312.3c8.6-10.4,19.6-18.6,30.5-24.3c-49.8-2.2-88.8-22.1-88.8-46.3v35.9h0.1
			c1.7,17.4,23.4,32.3,54.4,39.6C212.7,315.5,213.9,313.9,215.2,312.3z"/>
	</g>
	<g class="st17">
		<path class="st18" d="M206.1,326c-29.4-8-49.2-23.1-49.2-40.4v35.9h0.1c1.5,15,17.9,28.2,42.5,36.2
			C198.7,346.9,201,336.1,206.1,326z"/>
		<path class="st18" d="M292.9,349.5l0-10.9c-27.3-1.9-45.7,6.5-58.4,26.3c6.5,0.7,13.3,1,20.3,1c15.4,0,30-1.7,43-4.7
			C294.7,358.1,292.9,354,292.9,349.5z"/>
	</g>
	<path class="st16" d="M299.7,291c0,0-11.6-0.4-26.5,0c-23.9,0.6-73.3,30.4-66.4,72.1c0.4,2.2,0.4,4.5,2,6.1c2.1,2.2,4.8,2.3,8,0.1
		c1-0.7,1.9-1.7,2.5-2.8c14-25.5,37.2-41.2,80.5-35.3v20.2c0,5.1,5.8,8,9.8,5l54.9-40.7c3.4-2.5,3.4-7.5,0-10l-54.8-41.2
		c-4.1-3-9.9-0.2-9.9,4.9L299.7,291z"/>
</g>
<g>
	<ellipse class="st16" cx="254.9" cy="699.5" rx="97.9" ry="46.5"/>
	<path class="st16" d="M294.2,786.1l0-3.8c0-6.3,3.5-11.9,9.1-14.7c5.6-2.8,12.2-2.2,17.2,1.6l7.1,5.3c14.6-7.7,23.9-17.8,24.9-28.9
		h0.1v-35.9c0,25.7-43.8,46.5-97.9,46.5s-97.9-20.8-97.9-46.5v35.9h0.1c2.4,24.7,45.3,44.4,97.8,44.4
		C268.9,790,282.2,788.6,294.2,786.1z"/>
	<g class="st17">
		<path class="st18" d="M352.4,791.2c0.1-0.5,0.2-1.1,0.2-1.6h0.1v-35.9c0,9.5-6,18.3-16.2,25.6L352.4,791.2z"/>
		<path class="st18" d="M215.2,824.3c8.6-10.4,19.6-18.6,30.5-24.3c-49.8-2.2-88.8-22.1-88.8-46.3v35.9h0.1
			c1.7,17.4,23.4,32.3,54.4,39.6C212.7,827.5,213.9,825.9,215.2,824.3z"/>
	</g>
	<g class="st17">
		<path class="st18" d="M206.1,838c-29.4-8-49.2-23.1-49.2-40.4v35.9h0.1c1.5,15,17.9,28.2,42.5,36.2
			C198.7,858.9,201,848.1,206.1,838z"/>
		<path class="st18" d="M292.9,861.5l0-10.9c-27.3-1.9-45.7,6.5-58.4,26.3c6.5,0.7,13.3,1,20.3,1c15.4,0,30-1.7,43-4.7
			C294.7,870.1,292.9,866,292.9,861.5z"/>
	</g>
	<path class="st16" d="M299.7,803c0,0-11.6-0.4-26.5,0c-23.9,0.6-73.3,30.4-66.4,72.1c0.4,2.2,0.4,4.5,2,6.1c2.1,2.2,4.8,2.3,8,0.1
		c1-0.7,1.9-1.7,2.5-2.8c14-25.5,37.2-41.2,80.5-35.3v20.2c0,5.1,5.8,8,9.8,5l54.9-40.7c3.4-2.5,3.4-7.5,0-10l-54.8-41.2
		c-4.1-3-9.9-0.2-9.9,4.9L299.7,803z"/>
</g>
<g>
	<ellipse class="st16" cx="254.9" cy="1211.5" rx="97.9" ry="46.5"/>
	<path class="st16" d="M294.2,1298.1l0-3.8c0-6.3,3.5-11.9,9.1-14.7c5.6-2.8,12.2-2.2,17.2,1.6l7.1,5.3
		c14.6-7.7,23.9-17.8,24.9-28.9h0.1v-35.9c0,25.7-43.8,46.5-97.9,46.5s-97.9-20.8-97.9-46.5v35.9h0.1c2.4,24.7,45.3,44.4,97.8,44.4
		C268.9,1302,282.2,1300.6,294.2,1298.1z"/>
	<g class="st17">
		<path class="st18" d="M352.4,1303.2c0.1-0.5,0.2-1.1,0.2-1.6h0.1v-35.9c0,9.5-6,18.3-16.2,25.6L352.4,1303.2z"/>
		<path class="st18" d="M215.2,1336.3c8.6-10.4,19.6-18.6,30.5-24.3c-49.8-2.2-88.8-22.1-88.8-46.3v35.9h0.1
			c1.7,17.4,23.4,32.3,54.4,39.6C212.7,1339.5,213.9,1337.9,215.2,1336.3z"/>
	</g>
	<g class="st17">
		<path class="st18" d="M206.1,1350c-29.4-8-49.2-23.1-49.2-40.4v35.9h0.1c1.5,15,17.9,28.2,42.5,36.2
			C198.7,1370.9,201,1360.1,206.1,1350z"/>
		<path class="st18" d="M292.9,1373.5l0-10.9c-27.3-1.9-45.7,6.5-58.4,26.3c6.5,0.7,13.3,1,20.3,1c15.4,0,30-1.7,43-4.7
			C294.7,1382.1,292.9,1378,292.9,1373.5z"/>
	</g>
	<path class="st16" d="M299.7,1315c0,0-11.6-0.4-26.5,0c-23.9,0.6-73.3,30.4-66.4,72.1c0.4,2.2,0.4,4.5,2,6.1c2.1,2.2,4.8,2.3,8,0.1
		c1-0.7,1.9-1.7,2.5-2.8c14-25.5,37.2-41.2,80.5-35.3v20.2c0,5.1,5.8,8,9.8,5l54.9-40.7c3.4-2.5,3.4-7.5,0-10l-54.8-41.2
		c-4.1-3-9.9-0.2-9.9,4.9L299.7,1315z"/>
</g>
<g>
	<ellipse class="st16" cx="254.9" cy="1723.5" rx="97.9" ry="46.5"/>
	<path class="st16" d="M294.2,1810.1l0-3.8c0-6.3,3.5-11.9,9.1-14.7c5.6-2.8,12.2-2.2,17.2,1.6l7.1,5.3
		c14.6-7.7,23.9-17.8,24.9-28.9h0.1v-35.9c0,25.7-43.8,46.5-97.9,46.5s-97.9-20.8-97.9-46.5v35.9h0.1c2.4,24.7,45.3,44.4,97.8,44.4
		C268.9,1814,282.2,1812.6,294.2,1810.1z"/>
	<g class="st17">
		<path class="st18" d="M352.4,1815.2c0.1-0.5,0.2-1.1,0.2-1.6h0.1v-35.9c0,9.5-6,18.3-16.2,25.6L352.4,1815.2z"/>
		<path class="st18" d="M215.2,1848.3c8.6-10.4,19.6-18.6,30.5-24.3c-49.8-2.2-88.8-22.1-88.8-46.3v35.9h0.1
			c1.7,17.4,23.4,32.3,54.4,39.6C212.7,1851.5,213.9,1849.9,215.2,1848.3z"/>
	</g>
	<g class="st17">
		<path class="st18" d="M206.1,1862c-29.4-8-49.2-23.1-49.2-40.4v35.9h0.1c1.5,15,17.9,28.2,42.5,36.2
			C198.7,1882.9,201,1872.1,206.1,1862z"/>
		<path class="st18" d="M292.9,1885.5l0-10.9c-27.3-1.9-45.7,6.5-58.4,26.3c6.5,0.7,13.3,1,20.3,1c15.4,0,30-1.7,43-4.7
			C294.7,1894.1,292.9,1890,292.9,1885.5z"/>
	</g>
	<path class="st16" d="M299.7,1827c0,0-11.6-0.4-26.5,0c-23.9,0.6-73.3,30.4-66.4,72.1c0.4,2.2,0.4,4.5,2,6.1c2.1,2.2,4.8,2.3,8,0.1
		c1-0.7,1.9-1.7,2.5-2.8c14-25.5,37.2-41.2,80.5-35.3v20.2c0,5.1,5.8,8,9.8,5l54.9-40.7c3.4-2.5,3.4-7.5,0-10l-54.8-41.2
		c-4.1-3-9.9-0.2-9.9,4.9L299.7,1827z"/>
</g>
</svg>
