<?xml version="1.0" encoding="utf-8"?>
<!-- Generator: Adobe Illustrator 27.1.0, SVG Export Plug-In . SVG Version: 6.00 Build 0)  -->
<svg version="1.1" id="Calque_1" xmlns="http://www.w3.org/2000/svg" xmlns:xlink="http://www.w3.org/1999/xlink" x="0px" y="0px"
	 viewBox="0 0 512 2048" style="enable-background:new 0 0 512 2048;" xml:space="preserve">
<style type="text/css">
	.st0{fill:url(#SVGID_1_);stroke:#676767;stroke-width:9;stroke-miterlimit:10;}
	
		.st1{opacity:0.5;fill:none;stroke:url(#SVGID_00000041291945118729794810000006347845488165143697_);stroke-width:16;stroke-miterlimit:10;enable-background:new    ;}
	.st2{fill:url(#SVGID_00000082361950700775514180000016047932568444208269_);stroke:#333333;stroke-miterlimit:10;}
	
		.st3{opacity:0.4;fill:url(#SVGID_00000058562514448913749760000011526520350408910512_);stroke:#333333;stroke-miterlimit:10;enable-background:new    ;}
	.st4{fill:url(#SVGID_00000111900837461707505670000013489737496099385487_);stroke:#676767;stroke-width:9;stroke-miterlimit:10;}
	
		.st5{opacity:0.5;fill:none;stroke:url(#SVGID_00000145043822317543558980000014825546370740593827_);stroke-width:16;stroke-miterlimit:10;enable-background:new    ;}
	.st6{fill:url(#SVGID_00000044890034191294274290000004788583631432481981_);stroke:#030304;stroke-miterlimit:10;}
	.st7{opacity:0.4;fill:url(#SVGID_00000177473343065419860350000015492587354461225117_);enable-background:new    ;}
	.st8{fill:url(#SVGID_00000016762004043891735650000007422869237465202867_);stroke:#676767;stroke-width:9;stroke-miterlimit:10;}
	
		.st9{opacity:0.5;fill:none;stroke:url(#SVGID_00000083780456662158981640000012018446579984097670_);stroke-width:16;stroke-miterlimit:10;enable-background:new    ;}
	.st10{fill:url(#SVGID_00000062184429280472680440000003678548246165775240_);stroke:#030304;stroke-miterlimit:10;}
	.st11{opacity:0.4;fill:url(#SVGID_00000051385764016772284050000004314417134217759386_);enable-background:new    ;}
	.st12{fill:url(#SVGID_00000008840625311006936180000010301244174946951848_);stroke:#676767;stroke-width:9;stroke-miterlimit:10;}
	
		.st13{opacity:0.5;fill:none;stroke:url(#SVGID_00000004531802201334954910000014452578474896796326_);stroke-width:16;stroke-miterlimit:10;enable-background:new    ;}
	.st14{fill:url(#SVGID_00000086676914751064836210000010035707017299836313_);stroke:#333333;stroke-miterlimit:10;}
	.st15{opacity:0.4;fill:url(#SVGID_00000150789030859777026140000017351201971419909763_);enable-background:new    ;}
	.st16{opacity:0.9;fill:#FFFFFF;stroke:#333333;stroke-miterlimit:10;enable-background:new    ;}
	.st17{opacity:0.9;}
	.st18{fill:#FFFFFF;stroke:#333333;stroke-miterlimit:10;}
</style>
<linearGradient id="SVGID_1_" gradientUnits="userSpaceOnUse" x1="133.6796" y1="5422.1348" x2="378.3204" y2="5845.8652" gradientTransform="matrix(1 0 0 -1 0 5890)">
	<stop  offset="0" style="stop-color:#5F6C7C"/>
	<stop  offset="1" style="stop-color:#D7D6D9"/>
</linearGradient>
<circle class="st0" cx="256" cy="256" r="244.6"/>
<linearGradient id="SVGID_00000127748380956669770030000015227078086262380476_" gradientUnits="userSpaceOnUse" x1="363.6173" y1="3258.3987" x2="148.3827" y2="2885.6013" gradientTransform="matrix(1 0 0 -1 0 3328)">
	<stop  offset="1.078831e-03" style="stop-color:#333F4F"/>
	<stop  offset="1" style="stop-color:#FFFFFF"/>
</linearGradient>
<circle style="opacity:0.5;fill:none;stroke:url(#SVGID_00000127748380956669770030000015227078086262380476_);stroke-width:16;stroke-miterlimit:10;enable-background:new    ;" cx="256" cy="256" r="207.2"/>
<linearGradient id="SVGID_00000170996116641848461610000013858560037445366149_" gradientUnits="userSpaceOnUse" x1="256" y1="5830.2998" x2="256" y2="5437.7002" gradientTransform="matrix(1 0 0 -1 0 5890)">
	<stop  offset="5.392733e-04" style="stop-color:#60B2E4"/>
	<stop  offset="1" style="stop-color:#646AAF"/>
</linearGradient>
<circle style="fill:url(#SVGID_00000170996116641848461610000013858560037445366149_);stroke:#333333;stroke-miterlimit:10;" cx="256" cy="256" r="196.3"/>
<linearGradient id="SVGID_00000072254612591652093040000006021695267281703079_" gradientUnits="userSpaceOnUse" x1="256.1" y1="2875.6001" x2="256.1" y2="3076.7" gradientTransform="matrix(1 0 0 -1 0 3328)">
	<stop  offset="0" style="stop-color:#FFFFFF;stop-opacity:5.000000e-02"/>
	<stop  offset="1" style="stop-color:#FFFFFF"/>
</linearGradient>
<path style="opacity:0.4;fill:url(#SVGID_00000072254612591652093040000006021695267281703079_);stroke:#333333;stroke-miterlimit:10;enable-background:new    ;" d="
	M336.3,287.5c-87.4,3.9-130.8-33.1-179.6-36.2c-38.1,1.2-79.8,19.7-96.2,27.8c11.4,97.6,94.3,173.3,194.9,173.3
	c108.4,0,196.3-87.9,196.3-196.3c0-0.5,0-0.9,0-1.4C420.9,269.9,379.5,285.5,336.3,287.5z"/>
<linearGradient id="SVGID_00000003789012950863308440000009940849290435243653_" gradientUnits="userSpaceOnUse" x1="133.6796" y1="4910.1348" x2="378.3204" y2="5333.8652" gradientTransform="matrix(1 0 0 -1 0 5890)">
	<stop  offset="0" style="stop-color:#5F6C7C"/>
	<stop  offset="1" style="stop-color:#D7D6D9"/>
</linearGradient>
<circle style="fill:url(#SVGID_00000003789012950863308440000009940849290435243653_);stroke:#676767;stroke-width:9;stroke-miterlimit:10;" cx="256" cy="768" r="244.6"/>
<linearGradient id="SVGID_00000155116439835390510950000008940985279005172134_" gradientUnits="userSpaceOnUse" x1="363.6173" y1="5308.3984" x2="148.3827" y2="4935.6016" gradientTransform="matrix(1 0 0 -1 0 5890)">
	<stop  offset="1.078831e-03" style="stop-color:#333F4F"/>
	<stop  offset="1" style="stop-color:#FFFFFF"/>
</linearGradient>
<circle style="opacity:0.5;fill:none;stroke:url(#SVGID_00000155116439835390510950000008940985279005172134_);stroke-width:16;stroke-miterlimit:10;enable-background:new    ;" cx="256" cy="768" r="207.2"/>
<linearGradient id="SVGID_00000108298509545666756540000004169294664732233623_" gradientUnits="userSpaceOnUse" x1="256" y1="5318.2998" x2="256" y2="4925.7002" gradientTransform="matrix(1 0 0 -1 0 5890)">
	<stop  offset="2.194295e-07" style="stop-color:#FDFC04"/>
	<stop  offset="0.9995" style="stop-color:#BC8017"/>
</linearGradient>
<circle style="fill:url(#SVGID_00000108298509545666756540000004169294664732233623_);stroke:#030304;stroke-miterlimit:10;" cx="256" cy="768" r="196.3"/>
<linearGradient id="SVGID_00000095333363132260028750000009527884878830831788_" gradientUnits="userSpaceOnUse" x1="256.1" y1="2363.6001" x2="256.1" y2="2564.7" gradientTransform="matrix(1 0 0 -1 0 3328)">
	<stop  offset="0" style="stop-color:#FFFFFF;stop-opacity:5.000000e-02"/>
	<stop  offset="1" style="stop-color:#FFFFFF"/>
</linearGradient>
<path style="opacity:0.4;fill:url(#SVGID_00000095333363132260028750000009527884878830831788_);enable-background:new    ;" d="
	M336.3,799.5c-87.4,3.9-130.8-33.1-179.6-36.2c-38.1,1.2-79.8,19.7-96.2,27.8c11.4,97.6,94.3,173.3,194.9,173.3
	c108.4,0,196.3-87.9,196.3-196.3c0-0.5,0-0.9,0-1.4C420.9,781.9,379.5,797.5,336.3,799.5z"/>
<linearGradient id="SVGID_00000019648005901917123670000008961192266609690788_" gradientUnits="userSpaceOnUse" x1="133.6796" y1="4398.1348" x2="378.3204" y2="4821.8652" gradientTransform="matrix(1 0 0 -1 0 5890)">
	<stop  offset="0" style="stop-color:#5F6C7C"/>
	<stop  offset="1" style="stop-color:#D7D6D9"/>
</linearGradient>
<circle style="fill:url(#SVGID_00000019648005901917123670000008961192266609690788_);stroke:#676767;stroke-width:9;stroke-miterlimit:10;" cx="256" cy="1280" r="244.6"/>
<linearGradient id="SVGID_00000135655993709944254510000011385079274632929183_" gradientUnits="userSpaceOnUse" x1="363.6172" y1="4796.3984" x2="148.3828" y2="4423.6016" gradientTransform="matrix(1 0 0 -1 0 5890)">
	<stop  offset="1.078831e-03" style="stop-color:#333F4F"/>
	<stop  offset="1" style="stop-color:#FFFFFF"/>
</linearGradient>
<circle style="opacity:0.5;fill:none;stroke:url(#SVGID_00000135655993709944254510000011385079274632929183_);stroke-width:16;stroke-miterlimit:10;enable-background:new    ;" cx="256" cy="1280" r="207.2"/>
<linearGradient id="SVGID_00000026162693308575176520000013675837412904010644_" gradientUnits="userSpaceOnUse" x1="256" y1="4806.2998" x2="256" y2="4413.7002" gradientTransform="matrix(1 0 0 -1 0 5890)">
	<stop  offset="5.391326e-04" style="stop-color:#90FE83"/>
	<stop  offset="1" style="stop-color:#399036"/>
</linearGradient>
<circle style="fill:url(#SVGID_00000026162693308575176520000013675837412904010644_);stroke:#030304;stroke-miterlimit:10;" cx="256" cy="1280" r="196.3"/>
<linearGradient id="SVGID_00000087412691917479192100000007740252633300958638_" gradientUnits="userSpaceOnUse" x1="256.1" y1="1851.5999" x2="256.1" y2="2052.7" gradientTransform="matrix(1 0 0 -1 0 3328)">
	<stop  offset="0" style="stop-color:#FFFFFF;stop-opacity:5.000000e-02"/>
	<stop  offset="1" style="stop-color:#FFFFFF"/>
</linearGradient>
<path style="opacity:0.4;fill:url(#SVGID_00000087412691917479192100000007740252633300958638_);enable-background:new    ;" d="
	M336.3,1311.5c-87.4,3.9-130.8-33.1-179.6-36.2c-38.1,1.2-79.8,19.7-96.2,27.8c11.4,97.6,94.3,173.3,194.9,173.3
	c108.4,0,196.3-87.9,196.3-196.3c0-0.5,0-0.9,0-1.4C420.9,1293.9,379.5,1309.5,336.3,1311.5z"/>
<linearGradient id="SVGID_00000142875184918736440190000018418924179673031083_" gradientUnits="userSpaceOnUse" x1="133.6796" y1="3886.1348" x2="378.3204" y2="4309.8652" gradientTransform="matrix(1 0 0 -1 0 5890)">
	<stop  offset="0" style="stop-color:#5F6C7C"/>
	<stop  offset="1" style="stop-color:#D7D6D9"/>
</linearGradient>
<circle style="fill:url(#SVGID_00000142875184918736440190000018418924179673031083_);stroke:#676767;stroke-width:9;stroke-miterlimit:10;" cx="256" cy="1792" r="244.6"/>
<linearGradient id="SVGID_00000098202727770632674170000009694879610801381791_" gradientUnits="userSpaceOnUse" x1="363.6172" y1="4284.3984" x2="148.3828" y2="3911.6013" gradientTransform="matrix(1 0 0 -1 0 5890)">
	<stop  offset="1.078831e-03" style="stop-color:#333F4F"/>
	<stop  offset="1" style="stop-color:#FFFFFF"/>
</linearGradient>
<circle style="opacity:0.5;fill:none;stroke:url(#SVGID_00000098202727770632674170000009694879610801381791_);stroke-width:16;stroke-miterlimit:10;enable-background:new    ;" cx="256" cy="1792" r="207.2"/>
<linearGradient id="SVGID_00000091010214342767735430000001476110644015931819_" gradientUnits="userSpaceOnUse" x1="256" y1="4294.2998" x2="256" y2="3901.7" gradientTransform="matrix(1 0 0 -1 0 5890)">
	<stop  offset="0" style="stop-color:#949494"/>
	<stop  offset="1" style="stop-color:#1E1E1E"/>
</linearGradient>
<circle style="fill:url(#SVGID_00000091010214342767735430000001476110644015931819_);stroke:#333333;stroke-miterlimit:10;" cx="256" cy="1792" r="196.3"/>
<linearGradient id="SVGID_00000148629656030780894660000012820776954203135910_" gradientUnits="userSpaceOnUse" x1="256.1" y1="1339.5999" x2="256.1" y2="1540.7" gradientTransform="matrix(1 0 0 -1 0 3328)">
	<stop  offset="0" style="stop-color:#FFFFFF;stop-opacity:5.000000e-02"/>
	<stop  offset="1" style="stop-color:#FFFFFF"/>
</linearGradient>
<path style="opacity:0.4;fill:url(#SVGID_00000148629656030780894660000012820776954203135910_);enable-background:new    ;" d="
	M336.3,1823.5c-87.4,3.9-130.8-33.1-179.6-36.2c-38.1,1.2-79.8,19.7-96.2,27.8c11.4,97.6,94.3,173.3,194.9,173.3
	c108.4,0,196.3-87.9,196.3-196.3c0-0.5,0-0.9,0-1.4C420.9,1805.9,379.5,1821.5,336.3,1823.5z"/>
<g>
	<ellipse class="st16" cx="250.9" cy="186.8" rx="94" ry="45.8"/>
	<g class="st17">
		<path class="st18" d="M344.8,299.5v-16.1c0,4.5-1.4,8.9-3.9,13.1C342.3,297.5,343.5,298.5,344.8,299.5z"/>
		<path class="st18" d="M283.1,338.4v10.7c0,4.3-1.7,8.4-4.5,11.3c17.1-2.6,32.2-7.5,43.5-13.9C311.8,339.9,299.1,337.3,283.1,338.4
			z"/>
		<path class="st18" d="M257.9,362.1l-50-37.9c-30.3-7.6-51-23-51-40.8v35.4h0.1c2.3,24.3,43.4,43.7,93.9,43.7c2.5,0,4.9,0,7.3-0.1
			C258.1,362.3,258,362.2,257.9,362.1z"/>
	</g>
	<path class="st16" d="M262.6,263c4.8-3.7,11.2-4.3,16.5-1.6c4.3,2.2,7.3,6.2,8.4,10.9c32.5-6.7,55.7-22,57.4-40.1h0.1v-35.4
		c0,25.3-42.1,45.8-94,45.8s-94-20.5-94-45.8v35.4h0.1c2.2,23.5,40.7,42.4,88.9,43.6L262.6,263z"/>
	<g class="st17">
		<path class="st18" d="M287.9,285c4.3,0,9.8,0,15.9,0.2c8.3,0.2,19.4,3.5,30.3,9.5c6.2-5.8,10.1-12.3,10.7-19.2h0.1v-35.4
			c0,18.9-23.5,35.1-57,42.1V285z"/>
		<path class="st18" d="M210,301.7l21.6-16.7c-42.6-4.3-74.6-22.8-74.6-44.9v35.4h0.1c1.5,16,19.8,29.9,46.6,37.5
			C204.1,308.5,206.3,304.4,210,301.7z"/>
	</g>
	<path class="st16" d="M277.2,292.3c0,0,11.1-0.4,25.5,0c23,0.6,70.3,29.9,63.8,71c-0.4,2.2-0.4,4.4-1.9,6c-2.1,2.2-4.5,2.2-7.7,0.1
		c-1-0.7-1.8-1.7-2.4-2.8c-13.4-25.1-35.7-40.6-77.2-34.8v19.9c0,5-5.5,7.9-9.5,4.9l-52.7-40.1c-3.3-2.4-3.3-7.4,0-9.8l52.6-40.5
		c3.9-3,9.5-0.2,9.5,4.8V292.3z"/>
</g>
<g>
	<ellipse class="st16" cx="250.9" cy="698.8" rx="94" ry="45.8"/>
	<g class="st17">
		<path class="st18" d="M344.8,811.5v-16.1c0,4.5-1.4,8.9-3.9,13.1C342.3,809.5,343.5,810.5,344.8,811.5z"/>
		<path class="st18" d="M283.1,850.4v10.7c0,4.3-1.7,8.4-4.5,11.3c17.1-2.6,32.2-7.5,43.5-13.9C311.8,851.9,299.1,849.3,283.1,850.4
			z"/>
		<path class="st18" d="M257.9,874.1l-50-37.9c-30.3-7.6-51-23-51-40.8v35.4h0.1c2.3,24.3,43.4,43.7,93.9,43.7c2.5,0,4.9,0,7.3-0.1
			C258.1,874.3,258,874.2,257.9,874.1z"/>
	</g>
	<path class="st16" d="M262.6,775c4.8-3.7,11.2-4.3,16.5-1.6c4.3,2.2,7.3,6.2,8.4,10.9c32.5-6.7,55.7-22,57.4-40.1h0.1v-35.4
		c0,25.3-42.1,45.8-94,45.8s-94-20.5-94-45.8v35.4h0.1c2.2,23.5,40.7,42.4,88.9,43.6L262.6,775z"/>
	<g class="st17">
		<path class="st18" d="M287.9,797c4.3,0,9.8,0,15.9,0.2c8.3,0.2,19.4,3.5,30.3,9.5c6.2-5.8,10.1-12.3,10.7-19.2h0.1v-35.4
			c0,18.9-23.5,35.1-57,42.1V797z"/>
		<path class="st18" d="M210,813.7l21.6-16.7c-42.6-4.3-74.6-22.8-74.6-44.9v35.4h0.1c1.5,16,19.8,29.9,46.6,37.5
			C204.1,820.5,206.3,816.4,210,813.7z"/>
	</g>
	<path class="st16" d="M277.2,804.3c0,0,11.1-0.4,25.5,0c23,0.6,70.3,29.9,63.8,71c-0.4,2.2-0.4,4.4-1.9,6c-2.1,2.2-4.5,2.2-7.7,0.1
		c-1-0.7-1.8-1.7-2.4-2.8c-13.4-25.1-35.7-40.6-77.2-34.8v19.9c0,5-5.5,7.9-9.5,4.9l-52.7-40.1c-3.3-2.4-3.3-7.4,0-9.8l52.6-40.5
		c3.9-3,9.5-0.2,9.5,4.8V804.3z"/>
</g>
<g>
	<ellipse class="st16" cx="250.9" cy="1210.8" rx="94" ry="45.8"/>
	<g class="st17">
		<path class="st18" d="M344.8,1323.5v-16.1c0,4.5-1.4,8.9-3.9,13.1C342.3,1321.5,343.5,1322.5,344.8,1323.5z"/>
		<path class="st18" d="M283.1,1362.4v10.7c0,4.3-1.7,8.4-4.5,11.3c17.1-2.6,32.2-7.5,43.5-13.9
			C311.8,1363.9,299.1,1361.3,283.1,1362.4z"/>
		<path class="st18" d="M257.9,1386.1l-50-37.9c-30.3-7.6-51-23-51-40.8v35.4h0.1c2.3,24.3,43.4,43.7,93.9,43.7c2.5,0,4.9,0,7.3-0.1
			C258.1,1386.3,258,1386.2,257.9,1386.1z"/>
	</g>
	<path class="st16" d="M262.6,1287c4.8-3.7,11.2-4.3,16.5-1.6c4.3,2.2,7.3,6.2,8.4,10.9c32.5-6.7,55.7-22,57.4-40.1h0.1v-35.4
		c0,25.3-42.1,45.8-94,45.8s-94-20.5-94-45.8v35.4h0.1c2.2,23.5,40.7,42.4,88.9,43.6L262.6,1287z"/>
	<g class="st17">
		<path class="st18" d="M287.9,1309c4.3,0,9.8,0,15.9,0.2c8.3,0.2,19.4,3.5,30.3,9.5c6.2-5.8,10.1-12.3,10.7-19.2h0.1v-35.4
			c0,18.9-23.5,35.1-57,42.1V1309z"/>
		<path class="st18" d="M210,1325.7l21.6-16.7c-42.6-4.3-74.6-22.8-74.6-44.9v35.4h0.1c1.5,16,19.8,29.9,46.6,37.5
			C204.1,1332.5,206.3,1328.4,210,1325.7z"/>
	</g>
	<path class="st16" d="M277.2,1316.3c0,0,11.1-0.4,25.5,0c23,0.6,70.3,29.9,63.8,71c-0.4,2.2-0.4,4.4-1.9,6
		c-2.1,2.2-4.5,2.2-7.7,0.1c-1-0.7-1.8-1.7-2.4-2.8c-13.4-25.1-35.7-40.6-77.2-34.8v19.9c0,5-5.5,7.9-9.5,4.9l-52.7-40.1
		c-3.3-2.4-3.3-7.4,0-9.8l52.6-40.5c3.9-3,9.5-0.2,9.5,4.8V1316.3z"/>
</g>
<g>
	<ellipse class="st16" cx="250.9" cy="1722.8" rx="94" ry="45.8"/>
	<g class="st17">
		<path class="st18" d="M344.8,1835.5v-16.1c0,4.5-1.4,8.9-3.9,13.1C342.3,1833.5,343.5,1834.5,344.8,1835.5z"/>
		<path class="st18" d="M283.1,1874.4v10.7c0,4.3-1.7,8.4-4.5,11.3c17.1-2.6,32.2-7.5,43.5-13.9
			C311.8,1875.9,299.1,1873.3,283.1,1874.4z"/>
		<path class="st18" d="M257.9,1898.1l-50-37.9c-30.3-7.6-51-23-51-40.8v35.4h0.1c2.3,24.3,43.4,43.7,93.9,43.7c2.5,0,4.9,0,7.3-0.1
			C258.1,1898.3,258,1898.2,257.9,1898.1z"/>
	</g>
	<path class="st16" d="M262.6,1799c4.8-3.7,11.2-4.3,16.5-1.6c4.3,2.2,7.3,6.2,8.4,10.9c32.5-6.7,55.7-22,57.4-40.1h0.1v-35.4
		c0,25.3-42.1,45.8-94,45.8s-94-20.5-94-45.8v35.4h0.1c2.2,23.5,40.7,42.4,88.9,43.6L262.6,1799z"/>
	<g class="st17">
		<path class="st18" d="M287.9,1821c4.3,0,9.8,0,15.9,0.2c8.3,0.2,19.4,3.5,30.3,9.5c6.2-5.8,10.1-12.3,10.7-19.2h0.1v-35.4
			c0,18.9-23.5,35.1-57,42.1V1821z"/>
		<path class="st18" d="M210,1837.7l21.6-16.7c-42.6-4.3-74.6-22.8-74.6-44.9v35.4h0.1c1.5,16,19.8,29.9,46.6,37.5
			C204.1,1844.5,206.3,1840.4,210,1837.7z"/>
	</g>
	<path class="st16" d="M277.2,1828.3c0,0,11.1-0.4,25.5,0c23,0.6,70.3,29.9,63.8,71c-0.4,2.2-0.4,4.4-1.9,6
		c-2.1,2.2-4.5,2.2-7.7,0.1c-1-0.7-1.8-1.7-2.4-2.8c-13.4-25.1-35.7-40.6-77.2-34.8v19.9c0,5-5.5,7.9-9.5,4.9l-52.7-40.1
		c-3.3-2.4-3.3-7.4,0-9.8l52.6-40.5c3.9-3,9.5-0.2,9.5,4.8V1828.3z"/>
</g>
</svg>
